<svg version="1.1" id="Capa_1" xmlns="http://www.w3.org/2000/svg" x="0" y="0" viewBox="0 0 817.9 1510" xml:space="preserve"><style>.st0{fill:#e30613}.st1{fill:#d50a11}.st2{fill:#ffcf44}.st3{fill:#00793c}.st5{fill:#004e2e}.st7{fill:#9b928e}</style><path class="st0" d="M662.7 348.4l155.2 28.9-159 853.3-155.1-28.9z"/><path class="st0" d="M540.3 1208.5c18.2-85.3 113.3-638 124.3-679.9 7.6-28.7 10.2-70.4 34.8-90.2 35.9-28.9 65.4-25.9 110-15.6l8.5-45.4-155.1-28.9-158.9 853.3 36.4 6.7z"/><path transform="rotate(-79.444 696.217 796.068)" class="st1" d="M262.2 780.4h868v31.3h-868z"/><path transform="rotate(-79.45 632.018 784.12)" class="st1" d="M198 768.5h868v31.3H198z"/><path class="st2" d="M768.5 219.9l49.4 157.4-155.2-28.9z"/><path class="st0" d="M785.6 274.4l-17.1-54.5-36.7 44.5z"/><path class="st3" d="M465.8 270.8l157.1 14.8-81.2 864.1-157.1-14.7z"/><path d="M421.6 1138.5c10.4-86.6 55.1-645.7 62.4-688.4 5-29.3 3.8-71.1 26.5-93 33.1-32 62.8-31.7 108.1-25.5l4.3-46-157.1-14.8-81.2 864.2 37 3.5z" fill="#006239"/><path transform="rotate(-84.637 539.617 713.636) scale(.99998)" class="st5" d="M105.6 698h868v31.3h-868z"/><path class="st5" d="M499.6 274l31.1 2.9-81.1 864.2-31.2-3z"/><path class="st2" d="M559.5 133.3l63.4 152.3-157.1-14.8z"/><path class="st3" d="M581.5 186l-22-52.7-32.5 47.6z"/><path transform="rotate(-6.8 120.483 729.435)" fill="#f59e00" d="M52.7 365.8h135.6v727H52.7z"/><path class="st2" d="M177 1214.7l-80.8-116.4 134.6-16z"/><path d="M149 1174.4l28 40.3 18.7-45.9z"/><path class="st7" d="M144.7 360.4l-134.6 16-7.3-61.2 134.6-16.1z"/><path class="st0" d="M137.6 300.4l-2.5-20.7c-4.4-37.2-38.2-63.7-75.3-59.3-37.2 4.4-63.7 38.2-59.3 75.3L3 316.5l134.6-16.1z"/><path d="M5.5 338.1l134.7-16-1-7.8L4.6 330.4m4.2 34.9l134.6-16-.9-7.8L7.9 357.6" fill="#4e433e"/><path d="M113 364.1c6.9 74.6 68.4 533.7 70.1 570.9 1.1 25.5 9.7 60.4-5.4 82.9-22 32.9-47 37.9-86.2 41l4.7 39.4 134.6-16.1-86.1-721.9-31.7 3.8z" fill="#ee7601"/><path d="M350.3 361.1s128.8-106.4 37-178.8C330 137.1 320.8 59.4 334.6 34 373.2-36.8 140 84.7 165.9 223.7c21.7 116.8 84.3 139.9 84.3 139.9l100.1-2.5z" fill="#a43223"/><path d="M165.8 223.6c21.7 116.8 84.3 139.9 84.3 139.9l100.2-2.5s3.1-2.6 8-7.2c-44.2-5.4-86.5-27.5-107.9-68.6-25.9-49.6-30.3-115.7-10.2-168.2 19.1-49.8 54.1-82.4 96.4-101.7-21.8-19-193.2 88.1-170.8 208.3z" fill="#a32523"/><path class="st0" d="M238.4 433.1l130.5-3.3s23.4 788.9 5.7 808.1c-22.1 24-74.2 24.9-97.9 2.4-15.4-14.6-38.3-807.2-38.3-807.2z"/><path class="st7" d="M252.1 360.3c15.3-8.7 89.9-8.9 99.6 2.1 10.1 11.5 17.1 67.3 17.1 67.3L238.3 433c.1-.1 7.2-69 13.8-72.7z"/><path class="st0" d="M337.9 1224.2c-21.5-18.9-27.8-47.9-36.2-74-11.3-35.2-18.1-71.7-21.8-108.5-8-80.1-6.6-268.4-8.6-348.7l-6.5-260.7-26.4.7s22.9 792.6 38.4 807.3c23.6 22.3 75.2 21.6 97.5-2.1-13.5-.9-26.4-5.2-36.4-14z"/><path d="M642.8 1459.6c-33.3 30.7-454.8 28.7-496.2-13.9-71.4-73.4-152.2-649.7-113-700 49.2-63.1 673.4-51.3 725.8 4.1 33.9 35.9-50 648.4-116.6 709.8z" fill="#00a8e8"/><path d="M23.9 849.5c1 28 3.3 60 6.7 94.5 127.5-40.2 590.9-33.2 727.2 4.3 3.6-34.2 6.3-65.9 7.8-93.6-167.4-29.7-578.7-35.1-741.7-5.2z" fill="#0075be"/></svg>