<svg version="1.1" id="Capa_1" xmlns="http://www.w3.org/2000/svg" x="0" y="0" viewBox="0 0 1755.8 1061" xml:space="preserve"><style>.st2,.st3{fill:#00a0a9}.st3{opacity:.5}.st6{fill:#ddd}.st9{fill:#004b83}.st21{fill:#ddf0f9}.st22{fill:#e30613}.st23{fill:#ed6c05}.st24{fill:#ffdb00}.st25{fill:#55bbab}.st26{fill:#b50f80}</style><path d="M1705.8 797.2c-96.8-9.1-193.5-18.7-290.2-27.7-97.8-9.2-401.5-21-456-23.7-1.1-.1-2.1.1-3 .4-14.8 2.3-57.5 5.5-72.3 7.8-36.4 5.6-169.9 17.7-213.7 24.4-38 5.8-76.1 11.6-114.1 17.5-12.6 1.9-25.2 3.8-37.8 5.8-5.9.9-12 1.3-17.8 2.7-.3.1-.5.1-.8.1-9.1 1.4-6.6 15.6 2.1 15.7l43.6.3c37.7.2 75.4.5 113 .7 52.2.3 104.5.6 156.7 1 58.4.4 116.8.7 175.2 1.1 55.4.3 110.8.7 166.2 1 44.5.3 89.1.6 133.6.8 24.6.2 49.1.3 73.7.5 15.4.1 30.7-.8 46.1-1.4 53.5-2 107-3.9 160.4-5.9 42.7-1.6 85.3-3.1 128-4.7 2.3-.1 4.7-.2 7-.3 10.5-.6 10.2-15.2.1-16.1z" fill="#82cddf"/><path d="M1705.8 797.2c-29.7-2.8-59.4-5.7-89.2-8.5-59 8.7-118.4 10.6-178.4 11.6-82.1 1.4-164.2 2.1-246.3 1.6-81.8-.5-163.4-2.2-245.1-6.4-36.9-1.9-73.7-4.2-110.6-4.6-34.1-.4-67.4-2.3-98.2-18.2-1.3-.7-2.4-1.4-3.5-2.1-26.5 2.9-49.9 5.6-64 7.8-38 5.8-76.1 11.6-114.1 17.5-12.6 1.9-25.2 3.8-37.8 5.8-5.9.9-12 1.3-17.8 2.7-.3.1-.5.1-.8.1-9.1 1.4-6.6 15.6 2.1 15.7l43.6.3c37.7.2 75.4.5 113 .7 52.2.3 104.5.6 156.7 1l175.2 1.1c55.4.3 110.8.7 166.2 1 44.5.3 89.1.6 133.6.8 24.6.2 49.1.3 73.7.5 15.4.1 30.7-.8 46.1-1.4 53.5-2 107-3.9 160.4-5.9 42.7-1.6 85.3-3.1 128-4.7 2.3-.1 4.7-.2 7-.3 10.6-.6 10.3-15.2.2-16.1z" opacity=".5" fill="#82cddf"/><path class="st2" d="M1375.1 816c-19.4 70.8-22 145.7-7.1 217.6.4 1.8.2 3.4-.4 4.7-.9 3-3.3 5.4-7.3 5.4h-1.4c-11.2.3-22.4 0-33.7 0H494.6c-3.4 0-7-2.5-7.7-5.9-15.5-74.7-13.2-152.5 7.1-226 .9-3.4 4.2-5.8 7.7-5.8h1.4c11.2-.3 22.4 0 33.7 0h830.7c5.1-.1 9 5 7.6 10z"/><path class="st3" d="M1358.7 953.1c-35.9 21.3-75.7 36.6-115.7 46.1-76.8 18.3-158.3 16.6-236.7 13.9-78.7-2.7-157.3-5-236-6.4-67.5-1.2-143.8-5.4-201-45.4-49-34.2-78.5-85.6-76.6-144-18.9 72-20.8 147.8-5.7 220.6.7 3.4 4.3 5.9 7.7 5.9h830.7c11.2 0 22.4.3 33.7 0h1.4c4 0 6.4-2.4 7.3-5.4.6-1.4.8-3 .4-4.7-5.7-26.7-8.8-53.6-9.5-80.6z"/><path d="M1719.1 1004.1c-1.1.3-2.2.3-3.1.2-.5.2-1 .4-1.6.5-25.3 5.7-50.7 10.9-76.3 15.4-90.5 15.9-182.3 24-274.2 24.1-.9.1-1.6-.1-2.3-.3-3.2 0-6.5-1.6-7.9-5.4-2-5.4-3.1-11.3-4.2-17-3.4-17-5.7-34.2-7.4-51.4-2.7-25.9-4.4-51.8-1.9-77.9 2.8-27.5 8.4-56 19.7-81.4 1.1-2.4 4.4-4.1 6.9-4 24.9.9 49.9 1.5 74.8 1.6 88.4.7 176.8-3 264.8-11 8.1-.7 9.7 9.1 5 13.7-.7 2.7-1.3 5.3-1.9 8-12.5 55.4-8.2 113.5 11.7 166.6 1.1 2.8 2.2 5.6 3.3 8.5 1.8 3.9-1.6 8.8-5.4 9.8z" fill="#5ac1d2"/><path d="M1723.3 990.7c-36.6 10.1-74.3 15.8-112 22.1-42.2 7-85.5 13.2-128.3 8.9-43.6-4.5-89.7-19.6-111.7-60.8-26.7-50-8.2-104.8 14.2-153.4-6.2-.2-12.4-.3-18.6-.5-2.5-.1-5.8 1.6-6.9 4-11.3 25.4-17 53.9-19.7 81.4-2.6 26-.9 51.9 1.9 77.9 1.8 17.2 4 34.5 7.4 51.4 1.2 5.7 2.2 11.5 4.2 17 1.4 3.8 4.7 5.4 7.9 5.4.7.2 1.5.3 2.3.3 91.9-.1 183.7-8.2 274.2-24.1 25.6-4.5 51-9.7 76.3-15.4.6-.1 1.1-.3 1.6-.5 1 .1 2.1.1 3.1-.2 3.8-1 7.2-5.8 5.6-9.8-.6-1.3-1.1-2.5-1.5-3.7z" opacity=".5" fill="#5ac1d2"/><path class="st6" d="M1721.3 985.8c-45.1 7.1-90.4 13.4-135.7 18.5-30.8 3.4-61.8 5.9-92.8 5-14.9-.4-29.8-1.6-44.6-3.8-13.5-1.9-27.2-5-39-12.1-19.6-11.9-30.9-33.3-35.4-55.2-4.5-21.8-4.9-47.6 6-67.6 13.6-24.9 43.6-27 68.8-30.3 29.9-3.9 60-5.7 90.2-6.9 57.1-2.4 114.6-3.1 170.9-14.2-12.6 55.4-8.3 113.5 11.6 166.6z"/><path d="M1748.1 524.9c-96.8-9.1-193.5-18.6-290.2-27.7-97.8-9.2-401.5-21-456-23.7-1.1-.1-2.1.1-3 .4-14.8 2.3-57.5 5.5-72.3 7.8-36.4 5.6-169.9 17.7-213.7 24.4-38 5.8-76.1 11.6-114.1 17.5-12.6 1.9-25.2 3.9-37.8 5.8-5.9.9-12 1.3-17.8 2.7-.3.1-.5.1-.8.1-9.1 1.4-6.6 15.6 2.1 15.7l43.6.3c37.7.2 75.4.5 113 .7 52.2.3 104.5.7 156.7 1 58.4.4 116.8.7 175.2 1.1 55.4.3 110.8.7 166.2 1 44.5.3 89.1.6 133.6.8 24.6.2 49.1.3 73.7.5 15.4.1 30.7-.8 46.1-1.4 53.5-2 106.9-3.9 160.4-5.9 42.7-1.6 85.3-3.1 128-4.7 2.3-.1 4.7-.2 7-.3 10.5-.6 10.2-15.2.1-16.1z" fill="#009ada"/><path d="M1748.1 524.9c-29.7-2.8-59.4-5.7-89.1-8.5-59 8.7-118.3 10.6-178.4 11.6-82.1 1.4-164.2 2.1-246.3 1.6-81.8-.5-163.4-2.2-245.1-6.4-36.9-1.9-73.7-4.2-110.6-4.6-34.1-.4-67.4-2.3-98.2-18.2-1.3-.7-2.4-1.4-3.5-2.1-26.5 2.9-49.9 5.6-64 7.7-38 5.8-76.1 11.6-114.1 17.5-12.6 1.9-25.2 3.9-37.8 5.8-5.9.9-12 1.3-17.8 2.7-.3.1-.5.1-.8.1-9.1 1.4-6.6 15.6 2.1 15.7l43.6.3c37.7.2 75.4.5 113 .7 52.2.3 104.5.7 156.7 1l175.2 1.1c55.4.3 110.8.7 166.2 1 44.5.3 89.1.6 133.6.8 24.6.2 49.1.3 73.7.5 15.4.1 30.7-.8 46.1-1.4 53.5-2 106.9-3.9 160.4-5.9 42.7-1.6 85.3-3.1 128-4.7 2.3-.1 4.7-.2 7-.3 10.5-.5 10.2-15.1.1-16z" opacity=".5" fill="#009ada"/><path class="st9" d="M1417.4 543.7c-19.4 70.8-22 145.7-7.1 217.6.4 1.8.2 3.4-.4 4.7-.9 2.9-3.3 5.4-7.3 5.4h-1.4c-11.2.3-22.4 0-33.7 0H536.9c-3.3 0-7-2.5-7.7-5.9-15.5-74.7-13.2-152.4 7.1-226 .9-3.4 4.2-5.8 7.7-5.8h1.4c11.2-.3 22.4 0 33.7 0h830.7c5.1-.1 9 5 7.6 10z"/><path d="M1401 680.8c-35.9 21.4-75.7 36.6-115.7 46.1-76.8 18.3-158.3 16.6-236.7 13.9-78.7-2.7-157.3-5-236-6.4-67.5-1.2-143.8-5.4-201-45.4-49-34.2-78.5-85.7-76.6-144-18.9 72-20.8 147.8-5.7 220.6.7 3.4 4.3 5.9 7.7 5.9h830.7c11.2 0 22.4.3 33.7 0h1.4c4 0 6.4-2.4 7.3-5.4.6-1.4.8-3 .4-4.7-5.6-26.7-8.8-53.6-9.5-80.6z" opacity=".5" fill="#004b83"/><path d="M1761.4 731.8c-1.1.3-2.2.3-3.2.2-.5.2-1 .4-1.6.5-25.3 5.7-50.7 10.9-76.3 15.4-90.5 15.9-182.3 24-274.2 24.1-.9 0-1.6-.1-2.3-.3-3.2 0-6.5-1.6-7.9-5.4-2-5.4-3.1-11.3-4.2-17-3.5-17-5.7-34.2-7.4-51.5-2.7-25.9-4.4-51.9-1.9-77.9 2.8-27.5 8.4-56 19.7-81.4 1.1-2.4 4.4-4.1 6.9-4 24.9.9 49.9 1.5 74.8 1.6 88.4.7 176.8-3 264.8-11 8.1-.7 9.7 9.1 5 13.7-.7 2.7-1.3 5.3-1.9 8-12.5 55.3-8.2 113.5 11.7 166.6 1.1 2.9 2.2 5.7 3.3 8.5 1.9 4-1.5 8.9-5.3 9.9z" fill="#006fb9"/><path d="M1765.6 718.4c-36.6 10.1-74.3 15.9-112 22.1-42.2 7-85.5 13.2-128.3 8.9-43.6-4.5-89.6-19.6-111.7-60.8-26.7-50-8.2-104.8 14.2-153.4-6.2-.2-12.4-.3-18.6-.5-2.5-.1-5.8 1.5-6.9 4-11.3 25.4-17 53.9-19.7 81.4-2.6 26-.9 51.9 1.9 77.9 1.8 17.2 4 34.5 7.4 51.5 1.2 5.6 2.2 11.5 4.2 17 1.4 3.8 4.7 5.4 7.9 5.4.7.2 1.5.4 2.3.3 91.9-.1 183.7-8.2 274.2-24.1 25.6-4.5 51-9.7 76.3-15.4.6-.1 1.1-.3 1.6-.5 1 .1 2.1.1 3.2-.2 3.8-1 7.2-5.8 5.6-9.8-.7-1.4-1.2-2.6-1.6-3.8z" opacity=".5" fill="#006fb9"/><path class="st6" d="M1763.6 713.5c-45.1 7.1-90.4 13.4-135.7 18.5-30.8 3.4-61.8 5.9-92.8 5-14.9-.4-29.8-1.6-44.6-3.8-13.5-1.9-27.2-5-39-12.1-19.6-11.9-30.9-33.3-35.4-55.2-4.5-21.8-4.9-47.6 6-67.6 13.6-24.9 43.6-27 68.8-30.3 29.9-3.9 60-5.7 90.2-6.9 57.1-2.4 114.6-3.1 170.9-14.2-12.6 55.4-8.3 113.6 11.6 166.6z"/><path d="M1364.8 551.5c-10.9 41.9-16.5 85.1-16.8 128.4-.1 21.7 1.1 43.4 3.6 65 1 8.6 2 17.6 3.6 26.4h-20.5c-1.8-10.1-2.8-20.4-3.9-30.2-7.7-69.3-1.5-140.4 17.7-207.5h21.1c-1.6 6-3.2 11.9-4.8 17.9zm-52.1 219.9h-20.2c-1.1-16.4-2-32.7-2.6-49.1-2.1-63.1 1.3-127.3 16.2-188.6h20.7c-19.8 77.5-19.6 158.1-14.1 237.7zm-41.5-35.6c.5 11.8 1 23.7 1.8 35.5h-20.3v-.3c-.9-14.8-1.6-29.6-2.2-44.4-2.5-64.2-.9-130.3 13.4-193.1h20.7c-9.7 40.4-13.7 81.8-14.7 123.3-.5 26.4.1 52.8 1.3 79zm427.6-474.1c-82.4-16.1-165.3-29.2-248.5-40.4-83-11.2-166.3-20.4-249.7-28.7-46.8-4.7-93.6-9.1-140.4-13.4-.3 0-.7-.1-1-.1h-.7c-.2 0-.4 0-.6.1-.3.1-.6.1-.9.2-88.3 20.3-177.2 38.4-266.4 54.3-24.6 4.4-45.5 7.4-69.6 14.3-4 1.1-5.5 11.4-3.8 14 .1.6-2.8-3.8-2.5-3.1 14 24.2 41.1 34.5 66.8 41.3 35 9.2 70.5 17 105.8 24.8 72.3 15.9 145 29.8 218.1 41.7 72.3 11.8 145.1 22.4 218.4 24.5 67 1.9 134.7-3.4 199.4-21.8 58.3-16.5 114.2-43.1 161-82 5.9-4.9 11.6-10 17.1-15.2 1-1 1.5-2.1 1.6-3.2.9-2.8-.4-6.6-4.1-7.3z" fill="#fad6e8"/><path d="M1698.8 261.7c-14-2.8-28.1-5.4-42.2-7.9-24 7.9-48.3 14.7-72.8 20.3-64.3 14.9-129.6 19-195.4 15.2-66.8-3.9-134-10.9-200.5-18.1-28.7-3.1-57.4-8.2-85-16.7-21.6-6.7-47.7-15.6-65.3-30.5-14.4-12.2-16.3-25.5-11.3-37.7-78.2 17.5-156.9 33.3-235.8 47.4-24.6 4.4-45.5 7.4-69.6 14.3-4 1.1-5.5 11.4-3.8 14 .1.6-2.8-3.8-2.5-3.1 14 24.2 41.1 34.5 66.8 41.3 35 9.2 70.5 17 105.8 24.8 72.3 15.9 145 29.8 218.1 41.7 72.3 11.8 145.1 22.4 218.4 24.5 67 1.9 134.7-3.4 199.4-21.8 58.3-16.5 114.2-43.1 161-82 5.9-4.9 11.6-10 17.1-15.2 1-1 1.5-2.1 1.6-3.2 1-2.8-.3-6.6-4-7.3z" opacity=".5" fill="#fad6e8"/><path d="M1387.1 555.7c-.2.4-.4.7-.6 1.1-.8 1.4-2.3 2.5-4.5 2.3-.4 0-.7-.1-1.1-.1-8.7-.4-17.4-1.3-26.2-1.9l-641.6-46.4c-2.4-.2-4-1.9-4.6-4.1-5.5-18.4-9.7-37.1-12.4-56.1-9.8-66.8-2.8-135.9 20.5-199.2.8-2.1 2.9-3.5 5.1-3.4l1.1.1c8.9.4 17.9 1.3 26.8 1.9l661.6 47.9c2.2.2 4.1 1.9 4.6 4.1 4 18.8 6.6 37.8 7.8 56.9 4.4 67.4-8.1 135.7-36.5 196.9z" fill="#e85e9e"/><path d="M1382 500.8c-34.9 9.1-70.2 15.3-106.3 17.6-67.7 4.3-136.8-2.5-203.9-11.4-61.5-8.2-125.6-16.8-184.9-35.7-50-15.9-101.6-45.5-125.9-94.1-19.8-39.7-15.9-84.2-11.8-127.2-8.8-.6-17.5-1.5-26.3-1.9l-1.1-.1c-2.2-.2-4.4 1.3-5.1 3.4-23.3 63.4-30.3 132.4-20.5 199.2 2.8 19 7 37.7 12.4 56.1.7 2.2 2.2 3.9 4.6 4.1l641.6 46.4c8.7.6 17.4 1.5 26.2 1.9.4 0 .7 0 1.1.1 2.2.2 3.7-.9 4.5-2.3.3-.3.5-.7.6-1.1 9.4-20.2 17-41.2 22.9-62.6-9.4 2.8-18.9 5.1-28.1 7.6z" opacity=".5" fill="#e85e9e"/><path class="st2" d="M919.9 525.6l-127.3-9.2c-3.6-14.1-6.4-28.5-8.4-42.9-10.3-74-.4-150.2 28.2-219l128.9 9.3c-1.3 4.8-2.5 9.6-3.5 14.4-6.9 31-12 62.3-15.3 93.8-5.6 51-6.4 102.5-2.6 153.6zm398 28.9l-127.3-9.2c-3.6-14.1-6.4-28.5-8.4-42.9-10.3-74-.4-150.2 28.2-219l128.9 9.3c-1.3 4.8-2.5 9.6-3.5 14.4-6.9 30.9-12 62.3-15.4 93.8-5.4 51-6.3 102.4-2.5 153.6z"/><path d="M1695.1 494.5c-.5 1.5-1.7 2.6-3.6 3-22.6 4.7-45.2 9.5-67.7 14.2-79.3 16.6-158.6 33.3-237.9 49.9-4.7 1-7-4.2-5.3-7.5.4-19.3.9-38.6 1.4-57.9.8-34.2.9-68.4 3-102.5 1.1-16.8 2.8-33.6 5.9-50.2 2.6-13.8 5.7-27.5 11.6-40.3-.2-1.8.5-3.6 2.3-4.5.2-.3 4-.7 8.1-1.4 19.3-2.7 38.6-5.4 57.9-7.9 75.9-10 152-18.9 228.3-26 6.9-.7 4 8.9 3.4 9.6-1.1 2.8-2.2 5.5-3.3 8.3-4.5 11.7-8.2 23.7-11.1 35.8-12.6 53.5-9.4 110.8 9.1 162.5.9 2.5 1.9 5 2.8 7.5 1.6 4.1-1.7 7.3-4.9 7.4z" fill="#f5b4d2"/><path d="M1475.5 521.9c-29.7-26.9-41.2-67.1-44.7-105.8-2.1-23.7-2.4-47.8-.2-71.5 1.2-12.5 2.7-25.3 6.3-37.4 1.3-4.5 3.2-9.1 4.8-13.7-9.6 1.3-19.3 2.7-28.9 4-4.1.7-7.9 1.1-8.1 1.4-1.7.9-2.4 2.7-2.3 4.5-5.9 12.7-9.1 26.5-11.6 40.3-3.1 16.6-4.8 33.4-5.9 50.2-2.2 34.1-2.3 68.3-3 102.5-.5 19.3-.9 38.6-1.4 57.9-1.7 3.3.6 8.5 5.3 7.5 37.5-7.9 74.9-15.7 112.4-23.6-7.9-4.5-15.5-9.9-22.7-16.3z" opacity=".5" fill="#f5b4d2"/><path class="st6" d="M1697.2 479.7c-26.3 7.9-52.9 14.5-80 19.2-23.9 4.1-48.2 6.6-72.5 7-23.2.4-48.7-.7-69.5-12.1-20.9-11.6-28.3-34.5-31.8-56.8-3.7-24-2.5-48.9 3.9-72.3 2.8-10.1 6.9-20.3 13.8-28.3 7.1-8.2 16.4-12.8 26.7-15.7 23.6-6.7 48.4-9.9 72.6-13.4 46.6-6.7 93.6-11.9 138.8-25.9-4.5 11.7-8.2 23.7-11.1 35.8-12.6 53.5-9.5 110.8 9.1 162.5z"/><path class="st3" d="M871.8 504.4c-31.4-9.6-56.4-33.5-66.1-64.8-9.6-30.7-5.9-64.2.3-95.1 3.5-17.6 8.3-35 11.7-52.7 2.3-12.2 4.6-24.4 7.6-36.3l-12.9-.9c-28.6 68.8-38.5 145-28.2 219 2 14.5 4.8 28.8 8.4 42.9l127.3 9.2c-.4-5.7-.8-11.3-1.1-17-15.6 1.5-31.4.4-47-4.3zm320.6-54.8c-6.8-56.7 16.4-112.1 36.7-165l-18.7-1.4c-28.6 68.8-38.4 145-28.2 219 2 14.5 4.8 28.8 8.4 42.9l127.3 9.2c-.5-6.3-.9-12.7-1.2-19-56.8 5.9-116.8-23.1-124.3-85.7z"/><path d="M384.2 1060.5L31.8 906.3c-20.1-8.8-29.3-32.3-20.5-52.4l363.3-830C383.4 3.7 406.8-5.5 427 3.4l352.4 154.2c20.1 8.8 29.3 32.3 20.5 52.4l-363.3 830c-8.8 20.2-32.3 29.3-52.4 20.5z" fill="#b0def5"/><path d="M779.4 157.6L579.6 70.2c-5.3 14.1-9.3 28.7-14.1 43-7.5 22.2-15.8 44.1-24.3 65.8-18.5 47.4-38.4 94.2-56.8 141.6-33.3 85.4-69 169.9-109 252.4-33.6 69.1-66.1 141.4-109.4 205.1-35.4 52.2-90.6 112.9-160.2 104.1-33.5-4.2-62.6-22.7-86.5-46.8l-8.1 18.4c-8.8 20.1.4 43.6 20.5 52.4l352.4 154.2c20.1 8.8 43.6-.4 52.4-20.5l363.3-830c8.9-20-.3-43.5-20.4-52.3z" fill="#ecf7fa"/><path class="st21" d="M779.4 157.6L624 89.6 228.8 992.5l155.4 68c20.1 8.8 43.6-.4 52.4-20.5l363.3-830c8.8-20.1-.4-43.6-20.5-52.4z"/><path class="st21" d="M346.9 994.3c-46.3-49.8-31-121.6-9.2-178.7 27.9-73.1 62.7-144.3 94.1-216 72.7-166.1 154.9-328.4 223.1-496.5L624 89.6 228.8 992.5l155.4 68c20.1 8.8 43.6-.4 52.4-20.5l2.1-4.8c-34.4-1.9-67.8-15.1-91.8-40.9z"/><path class="st22" d="M733.6 267.5c-14.8 33.9-54.4 49.4-88.3 34.5-33.9-14.9-49.4-54.4-34.5-88.3 14.8-33.9 54.4-49.4 88.3-34.5 33.9 14.9 49.3 54.4 34.5 88.3z"/><path class="st23" d="M673.6 404.5c-14.8 33.9-54.4 49.4-88.3 34.5-33.9-14.8-49.4-54.4-34.5-88.3 14.8-33.9 54.4-49.4 88.3-34.5 33.9 14.8 49.4 54.4 34.5 88.3z"/><path class="st24" d="M613.7 541.4c-14.8 33.9-54.4 49.4-88.3 34.5-33.9-14.8-49.4-54.4-34.5-88.3 14.8-33.9 54.4-49.4 88.3-34.5 33.9 14.9 49.3 54.4 34.5 88.3z"/><path class="st25" d="M553.7 678.4c-14.8 33.9-54.4 49.4-88.3 34.5-33.9-14.9-49.4-54.4-34.5-88.3 14.8-33.9 54.4-49.4 88.3-34.5 33.9 14.8 49.4 54.4 34.5 88.3z"/><path class="st9" d="M493.8 815.3c-14.8 33.9-54.4 49.4-88.3 34.5-33.9-14.8-49.4-54.4-34.5-88.3 14.8-33.9 54.4-49.4 88.3-34.5 33.9 14.9 49.4 54.4 34.5 88.3z"/><path class="st26" d="M433.9 952.3c-14.8 33.9-54.4 49.4-88.3 34.5-33.9-14.8-49.4-54.4-34.5-88.3 14.8-33.9 54.4-49.4 88.3-34.5 33.8 14.8 49.3 54.4 34.5 88.3z"/><g opacity=".5"><path class="st22" d="M681.2 288.4c-35.9-9.2-52.4-46.7-39.7-80.4 6.3-16.7 18.2-29.2 32.4-34.3-26.4-.7-51.9 14.4-63.1 40.1-14.8 33.9.6 73.4 34.5 88.3 28.4 12.4 60.7 3.6 79.2-19.5-13.2 6.9-28.7 9.5-43.3 5.8z"/><path class="st23" d="M591.9 400.6c-21.8-29.7-11.2-77.1 22.6-90-26.6-.9-52.3 14.2-63.7 40.1-14.9 33.9.6 73.4 34.5 88.3 26.2 11.5 55.6 4.8 74.5-14.4-25.1 4.4-53-3.6-67.9-24z"/><path class="st24" d="M522.4 511.7c-.8-23.1 11.2-55.4 33.8-64.1-27.2-1.6-53.8 13.6-65.4 40-14.8 33.9.6 73.5 34.5 88.3 25.7 11.3 54.7 5 73.7-13.4-33.8 9.8-75.3-13.3-76.6-50.8z"/><path class="st25" d="M454.9 653c-3.5-28.9 14.1-59.8 39.9-68.5-26.7-1-52.6 14.1-63.9 40.1-14.8 33.9.6 73.4 34.5 88.3 17.8 7.8 37.1 7.2 53.6 0-31.3-1.5-60.1-27.2-64.1-59.9z"/><path class="st9" d="M406.1 802.5c-6-16.6-5.6-37.3 2.6-53.1 8-15.5 22.6-23.3 38.9-26.2-30.9-7.3-63.5 8.2-76.7 38.3-14.8 33.9.6 73.5 34.5 88.3 26.8 11.7 57 4.5 75.9-15.8-28.9 11.4-63.9 0-75.2-31.5z"/><path class="st26" d="M348.2 935.2c-9.4-32.4 8.7-70 42-74.4-31.6-8.8-65.7 6.7-79.2 37.7-14.8 33.9.6 73.5 34.5 88.3 28.2 12.4 60.2 3.7 78.8-19.1-28.6 13.2-66.3 1.2-76.1-32.5z"/></g><path d="M376 246.2l.6 1.5 56.2 24.6c.6-.1 1.2-.3 1.8-.4 31.8-7.7 45.6-42.6 48.1-73.1.3-3.8.4-7.4.4-11-.1-19.9-5.5-39.1-14.8-56.7-4.3-8.2-8.4-16.4-13-24.4-1.3-2.2-6-8.3-6.3-9.7 6.8 31.2-26.6 49.7-46.9 65.8-10.8 8.5-20.8 18.5-26 31.4-4.5 11-6 23.2-4.6 35 .7 5.8 2.2 11.6 4.5 17z" fill="#b87637"/><path d="M482.7 198.8c.3-3.8.4-7.4.4-11-.1-19.9-5.5-39.1-14.8-56.7-4.3-8.2-8.4-16.4-13-24.4 0 0 0-.1-.1-.1-.6 8.3-1 16.5-.6 24.7.6 13.2 4.1 26 5.5 39.1 2.1 20 1.9 43.7-11.1 60.3-15 19.2-42.4 21.4-64.1 14.1-3.5-1.1-7.4-2.9-11.3-5.1.7 2.2 1.4 4.5 2.3 6.6l.6 1.5 56.2 24.6c.6-.1 1.2-.3 1.8-.4 32-7.9 45.7-42.7 48.2-73.2z" opacity=".5" fill="#b87637"/><path d="M432.4 271.9L173.4 841c-4.8 10.6-17.2 15.3-27.8 10.7-10.6-4.7-15.6-17-11.1-27.7l242.3-576.4" fill="#95575d"/><path d="M376.8 247.6l-71.4 169.7c16.6 15.6 23.3 37 17 62.9-4.8 20-14.6 38.3-23.6 56.6l-39.6 80.4c-25.5 52.2-48.2 105.7-73.5 158-7.8 16.1-18.3 37.3-34.9 45.8-5.9 3-11.4 3.6-16.1 2.3l-.2.6c-4.5 10.7.4 23 11.1 27.7 10.6 4.6 23-.1 27.8-10.7l259-569.1-55.6-24.2z" opacity=".5" fill="#95575d"/><path fill="#713265" d="M356 439.7l76.4-167.8-55.6-24.3-71.4 169.9z"/><path d="M409.5 261.9c-4.9 38-11.9 77.5-32 110.1-14.6 23.8-43.3 45.6-66.3 31.7l-5.8 13.8 50.6 22.2 76.4-167.8-22.9-10z" opacity=".5" fill="#713265"/><path fill="#82aac9" d="M376.8 247.6l55.6 24.3"/></svg>