<svg version="1.1" id="Capa_1" xmlns="http://www.w3.org/2000/svg" x="0" y="0" viewBox="0 0 1826 1713.7" xml:space="preserve"><style>.st0{fill:#b1694d}.st1{fill:#eaa26a}.st2{fill:#f4f4f4}.st5{fill:#6fc1ac}.st7{fill:#fad267}.st8{fill:#f7bf52}.st9{fill:#92cde9}.st10{fill:#7ac2df}.st11{fill:#a0645b}.st12{fill:#ab7066}.st14{fill:#965652}.st16{fill:#f8bdaf}.st17{fill:#f5a899}.st18{fill:#faba5d}.st20{fill:#fff}.st21{fill:#524743}.st22{fill:#f39d94}.st24{fill:#d78e60}.st25{fill:#eeeae5}.st28{fill:#f5afbc}.st30{fill:#a586bd}</style><path class="st0" d="M860.4 1571.5c-8.1-170-72.9-936.2-104.1-1304.5l-6.8-80.3 31.1-2.6 6.8 80.3c31.2 368.4 96.1 1135 104.2 1305.6l-31.2 1.5z"/><path class="st0" d="M1264.6 1692.4c-57.8-175.9-394-1150.1-508.9-1460.7l29.2-10.8c115 310.8 451.4 1285.7 509.3 1461.7l-29.6 9.8z"/><path class="st0" d="M608.2 1690.1l-30.8-5c18.8-115.3 69.2-545.1 113.6-924.4 25.2-215.2 49-418.5 63.8-536.2l30.9 3.9c-14.8 117.6-38.6 320.8-63.8 536-44.4 379.5-94.8 809.7-113.7 925.7z"/><path class="st1" d="M1182.2 1064.7H581.6L436.5 302.3h600.6z"/><path class="st2" d="M1148.3 993.7h-528L492.7 323.5h528z"/><path fill="#e39761" d="M1137.1 1010.4H604.4l-106-670.2h511.2z"/><path class="st2" d="M1148.3 993.7h-528L492.7 323.5h528z"/><path d="M592.8 337H518l-19.6-42.1h74.8zm373.2 0h-74.8l-19.5-42.1h74.8z" fill="#b9c8de"/><path class="st0" d="M1211.3 1082H558.1c-4.2 0-7.6-3.4-7.6-7.6v-21.1c0-4.2 3.4-7.6 7.6-7.6h653.2c4.2 0 7.6 3.4 7.6 7.6v21.1c0 4.2-3.4 7.6-7.6 7.6z"/><path class="st5" d="M672.8 825.2c-33.5 10.9-29 43.7 3.8 49.7 12.9 2.4 28.8-4.4 41.2.9 24.9 10.5 8.7 22.8 6.5 41.8-4.3 36.4 65.4 24.2 85.2 26.3 51 5.5 102.5 6.2 153.5 2 22.3-1.8 63.3-13.5 47.8-45.5-3-6.1-8.2-11.2-9.9-17.8-2.1-8 2.1-17.2 9.5-20.9 23.4-11.6 43.5-2.1 58.7-31.3 1.3-2.4 2.3-5.3 1.4-7.9-.9-2.8-3.7-4.5-6.4-5.8-49.6-24.8-109.1-8.7-164.2-15-3.8-.4-7.9-1.1-10.8-3.7-3.8-3.5-4.3-9.2-6.4-13.9-6.1-13.7-24-16.7-39-17-22.6-.4-45.2 1-67.6 4.2-8.5 1.2-19.3 2.9-25.5 9.4-9.5 10-5.5 23.6-20.8 30.6-7 3.2-14.8 4.1-22.3 5.4-11.9 2-23.4 4.8-34.7 8.5z"/><path d="M929.5 884.3c-26.2-.7-52.2-.4-78.4 1.1-9.5.6-43.9-.1-48.1 11.5-4.4 12.3 21.9 9.5 28.9 8.8 26.1-2.6 52-7.1 78.1-9.6 22.7-2.2 78.2-8.7 103 10.1-.6-1.9-1.3-3.8-2.3-5.8-3-6.1-8.2-11.2-9.9-17.8l-.1-.6c-22.9 5.4-48.2 2.9-71.2 2.3zm-201.6 19.6c5.3-4.1 12.1-7.1 18-10.3 8.8-4.8 15.1-12.1 6.5-21.3-5.9-6.3-15.9-7.5-24-8-17.9-1.2-52 6.9-73.6-.9 4.5 5.4 11.8 9.7 21.7 11.5 12.9 2.4 28.8-4.4 41.2.9 18.4 7.7 14.4 16.5 10.2 28.1zm342.6-81.4c-.9-2.8-3.7-4.5-6.4-5.8-49.6-24.8-109.1-8.7-164.2-15-3.8-.4-7.9-1.1-10.8-3.7-3.8-3.5-4.3-9.2-6.4-13.9-6.1-13.7-24-16.7-39-17-22.6-.4-45.2 1-67.6 4.2-8.5 1.2-19.3 2.9-25.5 9.4-1.1 1.2-2 2.4-2.8 3.6 1.5 3 3.4 5.8 4.7 6.7 3.8 2.6 10.7 2.8 14.8 3 10.1.5 20.3-.9 30.3-2.5 17.2-2.7 34.2-6.9 51.8-6.5 10.7.3 23 1.9 26.7 13.6 4.8 15.1-13 30.8 4.5 41.1 24.7 14.6 64.2.5 89.4-6.1 18.7-4.9 53.6-20 71.8-6.6 11.5 8.5 6 18.7-3.1 26.5 11.6-2.6 21.9-6.6 30.5-23.3 1.1-2.2 2.1-5.1 1.3-7.7z" fill="#84c9b9"/><path class="st5" d="M1007.6 770.8c-27.6-5.4-61.5-3.2-89 2.4-12.1 2.5-26.7 12.9-6.1 16.5 32.2 5.6 65.6 4.6 97.4-3 3.5-.8 7.6-2.3 8.6-5.7 1.6-5.3-5.4-9.1-10.9-10.2z"/><path class="st7" d="M619.6 452.3c-8.8 19.7-9.2 43.5-1.3 64.9 15.7 42.4 75.5 55.2 115.2 39.3 28.2-11.2 49.5-39.5 49.9-69.8.1-11.9-2.8-23.8-8.1-34.5-21.4-42.7-78.3-52.9-119.5-35.5-17.3 7.4-29.4 20.3-36.2 35.6z"/><path class="st8" d="M633.1 440.5c1.8 2.2 4.8 3.8 7.7 4.3 5.2.9 10.6-.3 15.8.7 5.2 1 10.4 5.8 8.9 10.8-.8 2.7-3.3 4.6-5.8 6-15.6 8.7-37 8.4-48 22.6.2 5.7.9 12.3 5.7 15.3 2.4 1.4 5.3 1.6 8 1.8 8.2.4 16.4.8 24.6 1.3-.1 4.7-4.8 7.8-9.3 9.2-4.4 1.4-9.4 1.9-12.9 5-17.8 15.2 25.5 36.8 35.4 40.2 16.7 5.7 56.3 12.6 70.7-2 2-2 2.7-5.7.7-7.7-1-1-2.5-1.4-3.9-1.8-17.1-3.8-35.5-1.2-51.8-7.4-3.3-1.2-7-3.9-6.1-7.3 24-5 50.8 2.8 72.4-8.9 1.5-.8 3-1.7 3.8-3.2 2.6-4.7-3.4-9.6-8.6-10.8-5.2-1.2-11.8-2.2-13.5-7.2-1.1-3.4.7-7.1 3.4-9.4 2.7-2.3 6.2-3.4 9.5-4.6 8.3-2.9 16.5-6.5 24.3-10.6 5.7-3 11.6-6.7 14.1-12.6 4.6-10.8-12.6-27-19.9-33.5-12.3-10.9-28-17.7-44.2-20.4-28.8-4.9-50.5 3.5-75.1 16.7-3.2 1.7-6.8 3.9-7.6 7.4-.5 2.2.3 4.4 1.7 6.1z"/><path class="st9" d="M1349.6 1229.5c.1-79.1 40.5-269.6 60.9-354.1 1.1-5 2.2-9.9 3.5-14.8 3.9-14.6 6.2-29.6 9.6-44.4.7-3.1 7.8-36.2 11-36.3 73-2.9 145.9-8.4 218.5-16.6 12.7-1.4 26.7-1.9 36.2 7.8 9.4 9.7 15.3 20.2 19.5 32.6 20.6 48.8 33.7 105 32.9 158.7-1.6 108.9-4.2 189.3-7 289.7-1.9 68.9-9.3 143.6-13.6 212.4-2.6 42.5-9.9 125-16.2 161.7-23.2 3-52 .4-73.7-8.5-1-6.5-2-13-3.1-19.5-13.8-87.6-23.9-178.8-33-267-9.9-96.1-20.6-177.2-28-266.7-2.7-33-6.1-65.9-9.5-98.7-15.5 50.9-21.2 81.9-32 139.4-10.2 54.4-33.5 143.8-29.8 200.2 8.4 129.2 0 198.6 1.6 315.1.2 16.7-22.9 13.3-38 11.7-13.3-1.4-33.9 1.3-41.5-9.2-10.9-148.1-68.5-288.5-68.3-393.5z"/><path class="st10" d="M1557.3 964.6l-1.3-.3c-10.8-5.7-21.4-11.5-31.6-17.2-10.2-5.6-20.8-11.4-31.6-17.1-1.4-.7-1.9-2.4-1.2-3.8s2.4-1.9 3.8-1.2c10.8 5.7 21.4 11.5 31.6 17.2 10.2 5.6 20.8 11.4 31.5 17.1 1.4.7 1.9 2.5 1.2 3.8-.4.9-1.3 1.5-2.4 1.5z"/><path class="st11" d="M1785 395c-3.5 8.6-10.9 14.9-18.9 19.6-2 1.2-4.1 2.2-6.2 3.2l-.7.3c-3.4 1.5-6.9 2.9-10.2 4.5-.5.2-1 .4-1.4.3-.6-.2-.9-.9-1.1-1.5-4.4-14.3-13.1-27.3-24.6-36.9 4.3 10.2 13.2 28.4 9.2 39.8-2 5.8-10.2 4.8-16.2 5.3-6.8.5-13.7.7-20.6.5-24.8-.7-49.3-5.3-74.1-7.2-76.2-6-131.7 22.9-227.3-2.2l-1.1-.3-.5-.1c-7.1-2-18.9-7.3-22.6-8.7-3.4-1.2-4.3-8.2-4.7-12.4-.7-7-1.7-16.4-.5-24.2-4 3-5 7.6-6 12.5-1.3 6.2-1.7 13.3 2 21.2-2.9-.9-8-2.9-12.8-5.1l-1.8-.9c-2.1-.9-4-1.9-5.6-2.6-2.9-1.5-6.1-3.2-7.3-6.2-.9-2.1-.6-4.4-.3-6.6 1.3-8.6 3.6-17 6.5-25.3.9-2.5 1.8-5 2.8-7.5 3.4-8.9 7.2-17.6 10.8-26.1 16.5-40 23.7-83.8 20.8-127l364.1-26.2c-.7 59.1 12.6 118.3 38.5 171.4 7.5 15.1 16.2 32.5 9.8 48.4z"/><path class="st12" d="M1404.7 330.3c-1.5 11.1-4.5 21.8-7.3 32.5-2.9 10.6-5.4 21.4-6.3 32.3-.7 8.5-.3 17.2 1.9 25.5l-1.1-.3-.5-.1c-.9-2.8-1.6-5.6-2.1-8.4-.9-5.5-1-11.2-.8-16.8.6-11.2 3.2-22.1 6-32.8 3-10.7 6-21.3 8-32.1 1.9-10.8 2.5-21.9.2-32.8 1.7 5.3 2.5 10.8 2.8 16.4.3 5.5-.1 11.1-.8 16.6z"/><path d="M1693.1 328.4c4.1-17.3 16.9-30.9 26-45.7 9.6-15.7 15.4-33.2 21.4-50.6-2.7-18.9-3.9-38.1-3.7-57.2l-342.5 24.6c-3 6.4-6 12.7-7.3 19.7-.1.7-.4 1.2-.6 1.7v.4c-4.8 27.1 6.4 52.7 23.6 73.2 13.1 15.5 29.7 25.9 45.3 38.5 29.6 23.8 34.4 59.9 22.4 93.3 47.5-1.4 95.4-7.2 142.8-3.5 24.7 2 49.2 6.5 74 7.2 6.8.2 13.7.1 20.6-.4 6-.5 14.2.5 16.2-5.3 2.7-7.7-.5-18.5-4.1-27.8-16.6-20.5-40.7-40.4-34.1-68.1z" fill="#965c55"/><path class="st14" d="M1366.1 369c6-9.2 10.8-19.1 14.1-29.4 3.2-10.4 5.1-21 5.3-31.8.3-10.8-.4-21.8-.4-32.9 0-11.1 1-22.4 4.8-33l.7-.3.4.6c-2.2 10.8-2.1 21.7-1.6 32.6.4 10.9 1.4 22 .9 33.2-.4 11.2-2.5 22.4-6.5 32.9-3.9 10.5-9.6 20.3-16.8 28.8l-.8.1-.1-.8zm32.8-111.2c.2 13.5 3 26.8 8.2 38.9 5.2 12.1 13.4 23.1 19 36 5.6 12.9 8.5 27 8.1 41-.2 7-1.3 14-3.2 20.7-1.8 6.7-4.1 13-6.2 19.5-.1.5-.6.7-1.1.6l-.6-.9c.5-6.9 1.8-13.6 2.8-20.2 1-6.6 1.5-13.1 1.5-19.7-.1-13.1-2.5-26.2-7.5-38.3-4.9-12.1-12.7-23.6-17.5-36.8-4.7-13.1-6.3-27.2-4.8-40.8l.7-.5.6.5zm63.7 151.3l-1.3-.3c-1.4-.7-1.9-2.5-1.2-3.8 7.7-14.4 5-31.6.9-51-3.9-18.8-7-38.6 2.2-54.8.8-1.4 2.5-1.8 3.9-1.1 1.4.8 1.8 2.5 1.1 3.9-8.3 14.5-5.3 33.1-1.6 50.8 3.3 15.8 7.8 37.4-1.5 54.8-.5 1-1.5 1.5-2.5 1.5z"/><path d="M1627.4 396.1c2.9-5.7 4.5-12 4.4-18.1-.2-6.2-2.1-12.1-4.8-17.8-2.8-5.7-6.1-11.2-9.3-17-3.1-5.8-6.1-12-7.5-18.8-.3-1.5.7-3 2.2-3.3 1.5-.3 2.9.6 3.3 2v.1c1.6 5.9 4.2 11.6 7.2 17.2 2.9 5.7 6.2 11.4 8.8 17.7 2.5 6.2 4.4 13.1 3.8 20-.5 6.9-3 13.4-6.8 18.8l-1.1.2-.2-1zm61 15c3.4-9.5 5.2-19.7 3-29.2-2.1-9.5-7.7-18-14-25.7-6.2-7.9-13.5-15.2-19.2-24.1-2.9-4.4-5.4-9.1-7.2-14.3-1.8-5.1-2.7-10.7-2.3-16.2.1-1.6 1.5-2.7 3-2.6 1.5.1 2.7 1.4 2.6 2.9-.3 9.4 3.6 18.6 9 26.8 5.3 8.3 12.2 15.8 18.4 24.1 6.1 8.3 11.9 17.6 13.5 28.3 1.7 10.7-1.1 21.3-5.6 30.5l-.9.3-.3-.8z" fill="#92504e"/><path class="st14" d="M1720.8 378.9c-5.8-4.1-10.4-9.9-13.7-16.3-3.2-6.4-5.3-13.5-6.3-20.6-2.1-14.4-.1-28.7 1.6-42.5 1.9-13.9 3-27.6 2.4-41.5-.5-13.9-2.3-27.7-5.4-41.4l.5-.8.7.4c4.7 13.3 7.8 27.3 8.8 41.4.6 7.1.6 14.2.4 21.3-.3 7.1-1.1 14.2-2.1 21.1-1.9 13.9-4 27.7-2.7 41.3 1.3 13.5 5.8 27.3 16.2 36.9v.5l-.4.2zm53.6 21.4c2.4-6.5 2.9-13.6 1.8-20.4-1-6.8-3.3-13.4-6.1-19.7-5.7-12.6-13-24.5-19.7-36.9-6.5-12.4-13.1-24.8-18.2-38-2.5-6.6-4.6-13.4-6.1-20.3-1.4-6.9-2.2-14-1.9-21l.5-.5.5.5c.3 6.9 1.4 13.8 3.1 20.5 1.7 6.7 4 13.3 6.6 19.7 5.2 12.8 11.9 25.1 18.4 37.5 6.4 12.3 13.9 24.3 19.1 37.5 2.6 6.6 4.7 13.4 5.5 20.5.7 7.1-.1 14.4-3.2 20.8l-.2.1-.1-.3z"/><path class="st12" d="M1378.9 261.9c-.1 1-.2 2-.4 3-.1.9-.2 1.7-.3 2.6-1.8 13-5.1 25.9-9.4 38.3-4.4 12.4-10 24.4-16.7 35.8-4.1 7-8.8 13.8-13.8 20.2.9-2.5 1.8-5 2.8-7.5 3.1-4.6 6-9.2 8.8-14 6.5-11.3 12-23.1 16.2-35.4 4.4-12.2 7.6-24.9 9.8-37.7 2.1-12.8 3.1-25.9 2.8-39l.5-.5.5.5c.8 11.2.4 22.5-.8 33.7z"/><path class="st12" d="M1378.7 297c-1.2 13.4-4 26.8-9 39.4-5.1 12.6-12.6 23.8-17.7 36-2.6 6.1-4.5 12.4-5.2 19-.5 4-.5 8.1.2 12.1l-1.8-.9c-.7-3.8-.8-7.7-.5-11.5.6-6.8 2.4-13.4 5-19.8 5.1-12.6 12.6-23.8 17.5-36.1 5.2-12.2 8-25.3 9.6-38.5 1.3-10.5 1.8-21.2 1.8-31.9v-8.1c.1 1.7.3 3.4.4 5.1.6 11.7.7 23.5-.3 35.2zm383.7 109.7c-.4 3.8-1.2 7.5-2.4 11l-.7.3c1-3.7 1.6-7.6 1.8-11.5.4-6.1-.1-12.1-1.3-18.1-2.2-11.9-7-23.2-12.7-34-5.5-10.9-11.9-21.4-17.3-32.5-2.7-5.6-5.2-11.3-6.9-17.2-1.6-6-2.7-12.2-2.2-18.3.1 6.2 1.4 12.2 3.5 17.9 2 5.7 4.7 11.2 7.5 16.6 5.7 10.8 12.1 21.3 17.9 32.2 5.5 11 10.5 22.6 12.3 34.9.9 6.3 1.1 12.6.5 18.7z"/><path class="st16" d="M1468.6 501.4c-13.5 34.1-27 68.8-42.3 103.5-3.9 8.7-7.8 17.4-12.1 26.2s-8.8 17.6-14.1 26.8c-2.7 4.6-5.6 9.3-9.2 14.4-1.8 2.6-3.8 5.2-6.4 8.2-2.7 3-5.6 6.3-11.7 10.5-3 2-7.2 4.5-13.8 6.2-3 .8-7.8 1.3-11.3 1.1-.9-.1-1.8-.1-2.7-.3l-1.4-.2-.7-.1-.5-.1c-1.3-.3-2.6-.6-3.8-.9l-.9-.3-.7-.2-1.4-.5c-.9-.3-1.9-.7-2.6-1.1-1.3-.6-2.9-1.4-3.9-2-2.3-1.3-4-2.4-5.7-3.6-6.2-4.4-10.2-8.2-14.2-12-7.8-7.6-14.3-14.9-20.7-22.3-6.3-7.4-12.4-14.8-18.3-22.2-11.8-14.8-23-29.8-34-44.9-11-15.1-21.8-30.3-32.3-45.7-10.6-15.4-20.9-30.8-31-47.2-7.4-12-3.7-27.8 8.3-35.2 11.6-7.1 26.6-4 34.3 7l.2.2c10.1 14.3 21 28.9 32.1 43.1 11.1 14.3 22.4 28.5 33.9 42.4 11.5 13.9 23.2 27.7 35 41 5.9 6.6 11.9 13.1 17.9 19.4 6 6.2 12.1 12.2 17.8 17.1 2.8 2.4 5.7 4.6 7.1 5.4h.2l-.8-.4-1-.4-.6-.2-.8-.3c-.7-.2-1.4-.4-2.2-.5l-.7-.1-.9-.1c-.6-.1-1.3-.1-1.9-.2-1.2 0-2.7-.1-4.1.1-.7.1-1.5.2-2.1.3-.6.1-1.1.2-1.7.3-4.4 1.1-6.6 2.6-7.7 3.2-2.3 1.6-2 1.5-1.8 1 .3-.5 1-1.6 1.7-2.9 1.5-2.5 3.2-5.8 4.8-9.3 3.3-7 6.5-14.9 9.6-22.9 3.1-8 6.1-16.3 9-24.7 11.6-33.6 21.9-68.4 32.6-103.7 6.5-21.6 29.4-33.9 51-27.3 21.6 6.5 33.9 29.4 27.3 51 0 1.2-.4 2.3-.8 3.4zm-7.1-112.6c.2 10.7 12.7 23.1 17.4 33.1 8.3 17.6 24.8 38.9 37.2 50.1 21.2 19.2 41.7 19 66.1 9.8 24.4-9.2 58.2-64.6 67.9-87.3 1.2-2.9 2.2-6.5-.1-8.7-.9-.9-2-1.9-3.3-1.9-60.7.4-68.9-23.9-70.3-47.7v-.7c-.5-7.7-.2-15.3-.8-22l-38.1.7.4.6.1.2c1.7 4.2 1.1 22.8-2.8 38.8l-.3 1.1-.1.3c-2.3 8.9-5.7 16.8-10.3 20.9-11.6 10.2-47.1 10.3-63 12.7z"/><path class="st17" d="M1650 385.8c-.9-.9-2-1.9-3.3-1.9-15.7.1-27.9-1.5-37.4-4.2l-.2.3c-13.5 17-22.6 34.4-36.4 51.1-5.6 6.8-18.6 23.7-29.2 20.7-9.5-2.6-15.4-18.2-18.2-26.3-5.1-14.8-6.7-29.8-8.3-45.2-15.3 6.1-42.3 6.5-55.5 8.5.2 10.7 12.7 23.1 17.4 33.1 8.3 17.6 24.8 38.9 37.2 50.1 21.2 19.2 41.7 19 66.1 9.7 24.4-9.2 58.2-64.6 67.9-87.3 1.2-2.8 2.2-6.4-.1-8.6z"/><path class="st18" d="M1421 766.5c-1.4 13.2-2.7 26.4-3.9 39.6-.2 2.3-.3 4.9 1.3 6.7 1.7 1.8 12.7-4.7 16.4-5.6 7.5-1.7 15-2.9 22.6-4 11.2-1.7 22.6-3.3 33.9-4 41.7-2.5 85 11.5 125.4 20.1 21.9 4.7 44.1 8.8 66.5 10.1 15.3.9 46.6 8 45-14.2-4.9-71.2-20.7-141.3-21.5-213.5-.7-58.4 9.7-126.4 4.2-184.6-2.4-25.5-17.2-27.5-39.6-32.3-17.9-3.9-37.1-7.8-55.3-9.2-1.3-.1-2.7-.2-4 .2-5.1 1.6-6.3 8.9-8.2 13.2-3.2 7.1-7.3 13.9-11.4 20.4-8 12.8-17.2 24.9-27.4 36.1-6.3 6.9-14.9 13.9-23.9 11.6-6.3-1.6-10.6-7.5-13.9-13.2-11.8-20.3-16.3-41.8-18.7-64.8-16.3 1.8-33.4 3.5-49.6 6.8-13.7 2.7-29.6 7.7-35.1 22-10.5 27.2-2.6 56-4.1 84.7-2.9 52.1 6.5 103.7 6.5 160.7 0 23.3 2.1 48.4-.5 71.4-1.6 14-3.2 27.9-4.7 41.8z"/><path class="st18" d="M1469 394.9c21 8.4 30.5 24.9 26 47.1-6.5 31.9-24.5 75.7-36.7 108.7-25.1-2.7-70.4-19.8-92.7-32.1-2.1-1.1 23-55.5 25.4-60.5 9.1-18.8 20.1-37 33.2-53.4 9.9-12.7 30.1-15.7 44.8-9.8z"/><path class="st16" d="M1454.1 79.3c-6.1 3.8-11.9 8.1-17.2 13.2-28.7 27.4-45.4 69-44.9 112 .7 61.4 48.9 107.7 96.1 125.4 50.5 18.9 113.1 19.4 161.1-8.9 63.4-37.3 88.5-135.6 41.4-202.9-49.5-70.8-152.7-76.6-221.9-46.4-5 2.3-9.9 4.8-14.6 7.6z"/><path class="st17" d="M1538.2 331.8c42.9 8.8 98.5-5.1 137.2-31.7-7.8 8.2-16.5 15.3-26.2 21-48 28.3-110.7 27.8-161.1 8.9-41.6-15.6-84-53.5-93.9-104.3 27.3 56.6 86.4 94.3 144 106.1z"/><path class="st11" d="M1734.8 166.3c-4-1.6-7.7-3.2-12.1-3.3-4.4 0-8.9 1.4-12.2 4.4-3 2.8-4.7 6.6-5.7 10.5-4 15.6-14.3 1-20.8-3.4-12.5-8.3-27-12.9-41-17.7-33.8-11.7-62.2-26.5-90.1-48.9-14.7 17.3-40.7 29.3-61.8 36.5-12.3 4.2-25 7.1-36.9 12.1-10.2 4.2-20 9.9-27.3 18.4-2.7 3.1-18.9 21.5-22.5 11.3-1.9-5.4-3.9-11.1-7.6-15.5-5.3-6.4-12.6-7.2-20.3-5.8-5.5 1 5-47.1 5.7-49.4 1.5-5.1 3.1-10.2 4.8-15.2 4.8-13.8 10.8-27.3 18.8-39.6 30.5-46.8 82.7-67.1 136.5-59 6.5 1 13 2.6 19.6 2.6 5.7-.1 11.3-1.3 17-2.1 56.2-7.3 107.2 31.2 133.8 78.9.7 1.3 1.4 2.7 2.2 4.1 5.2 9.8 9.2 19.9 12.2 30.1 2.4 8.3 4.3 16.8 5.6 25.4 1.2 7.9 3.4 17.7 2.1 25.6z"/><path d="M1621.4 237.9c2.2 13.3 11.7 25.2 24.3 30 40.1 15.1 72.6-48.1 30-65.5-10.1-4.1-26.7-4.9-36.6.8-12.5 7.2-20.2 20.2-17.7 34.7zm-135.8 0c-2.2 13.3-11.7 25.2-24.3 30-40 15.1-72.6-48.1-30-65.5 10.1-4.1 26.7-4.9 36.6.8 12.4 7.2 20.1 20.2 17.7 34.7z" fill="#f5ada7"/><path class="st20" d="M1581.7 272.2c-3 7.6-14.2 13.7-21 14.2-10.7.8-19.6-6.4-23.8-15.9-.6-1.4-1.3-3.2-.5-4.5.7-1.2 2.2-1.7 3.5-1.6 1.4.1 2.6.8 3.8 1.3 4.3 2 8.9 3.3 13.6 3.5 7 .3 13.9-1.9 20.5-4.4.7-.2 1.3-.5 2-.4 1.4.1 2.3 1.5 2.5 2.9.3 1.8 0 3.4-.6 4.9zm90.3-58c-.7.6-1.7.9-2.5 1.2-8 2.7-16.6 4.2-25.1 4.6-3.7.2-7.4.1-11.1-.1-1.2-.1-2.7-.1-4.4-.2-5.3-.3-12.2-1.1-14.7-4-1.4-1.6-1.2-3.9-.8-6 .6-3.1 1.4-6.2 2.6-9.2.6-1.7 1.4-3.3 2.3-4.9 2.9-5.3 7.1-9.7 13-12.2 4.2-1.8 8.6-2.6 13-2.5 8 .1 15.8 3.2 21.4 9 4.4 4.8 14.5 18.1 6.3 24.3z"/><path class="st21" d="M1673.3 209.9c.9-3-.4-6.8-2.1-10-1.8-3.3-4.1-6.4-6.7-9.1-5.1-5.4-12.5-8.5-20.1-8.8-7.5-.2-15.3 2.1-20.8 7.5-5.5 5.3-8.4 12.8-9.9 20.3l-.6.4-.4-.6c1.4-7.7 4.2-15.4 9.8-21.2 5.6-5.8 13.9-8.5 21.9-8.4 8 .1 16.1 3.2 21.9 9 2.8 2.9 5.3 6 7.3 9.5 1 1.8 1.9 3.6 2.4 5.7.6 2 .8 4.3.2 6.6-.2.8-1.1 1.3-1.9 1.1-.8-.3-1.3-1.1-1-2z"/><path class="st21" d="M1649.1 204.5c1.9 1.7 4 1.9 6.4 1.9-1.6 6.2-5.8 11.2-11.1 13.6-3.7.2-7.4.1-11.1-.1-1.2-.1-2.7-.1-4.4-.2-6.6-3.4-11.2-10.7-11.2-19.1 0-1.7.2-3.3.5-4.8 2.9-5.3 7.1-9.7 13-12.2 4.2-1.8 8.6-2.6 13-2.5 6.2 2.7 10.8 8.8 11.9 16.2h-.6c-1.9-.2-3.7 0-5.5.9-2.3 1-2.8 4.6-.9 6.3zm25.5 4.6c3.5-1 6.8-2.7 9-5.6l.7-.1.1.6c-1.8 3.5-5.3 6.1-8.9 7.7-.7.3-1.5 0-1.8-.7-.3-.7 0-1.5.7-1.8l.2-.1z"/><path class="st21" d="M1674.7 207.3c2.2-1.1 4-3.4 5-6l.6-.3.3.5c-.3 3-1.6 6.1-4.2 8.3-.6.5-1.6.4-2.1-.2-.5-.6-.4-1.6.2-2.1l.2-.2z"/><path class="st20" d="M1446.6 214.2c.7.6 1.7.9 2.5 1.2 8 2.7 16.6 4.2 25.1 4.6 3.7.2 7.4.1 11.1-.1 1.2-.1 2.7-.1 4.4-.2 5.3-.3 12.2-1.1 14.7-4 1.4-1.6 1.2-3.9.8-6-.6-3.1-1.4-6.2-2.6-9.2-.6-1.7-1.4-3.3-2.3-4.9-2.9-5.3-7.1-9.7-13-12.2-4.2-1.8-8.6-2.6-13-2.5-8 .1-15.8 3.2-21.4 9-4.3 4.8-14.4 18.1-6.3 24.3z"/><path class="st21" d="M1442.4 210.8c-.6-2.3-.4-4.6.2-6.6.6-2 1.4-3.9 2.4-5.7 2-3.5 4.5-6.7 7.3-9.5 5.8-5.8 13.8-9 21.9-9 8-.1 16.2 2.6 21.9 8.4 5.6 5.8 8.5 13.6 9.8 21.2l-.4.6-.6-.4c-1.5-7.5-4.5-15-9.9-20.3-5.4-5.4-13.3-7.7-20.8-7.5-7.5.2-15 3.4-20.1 8.8-2.6 2.7-4.9 5.9-6.7 9.1-1.7 3.2-3 7-2.1 10 .2.8-.2 1.7-1 1.9-.8.3-1.6-.2-1.9-1z"/><path class="st21" d="M1469.6 204.5c-1.9 1.7-4 1.9-6.4 1.9 1.6 6.2 5.8 11.2 11.1 13.6 3.7.2 7.4.1 11.1-.1 1.2-.1 2.7-.1 4.4-.2 6.6-3.4 11.2-10.7 11.2-19.1 0-1.7-.2-3.3-.5-4.8-2.9-5.3-7.1-9.7-13-12.2-4.2-1.8-8.6-2.6-13-2.5-6.2 2.7-10.8 8.8-11.9 16.2h.6c1.9-.2 3.7 0 5.5.9 2.3 1 2.8 4.6.9 6.3zm-26.5 7.1c-3.6-1.6-7-4.2-8.9-7.7l.2-.7.6.1c2.2 3 5.5 4.7 9 5.6.7.2 1.2 1 1 1.7-.2.7-1 1.2-1.7 1h-.2z"/><path class="st21" d="M1442.3 209.7c-2.6-2.2-3.8-5.3-4.2-8.3l.4-.5.5.3c1 2.6 2.8 5 5 6 .7.4 1.1 1.2.7 2-.4.7-1.2 1.1-2 .7l-.4-.2z"/><path class="st16" d="M1725.6 163.1c6.9.7 13.5 5.6 16.7 12.7 1.4 3.1 2.1 6.5 2.5 10 2.1 18.3-7.1 38.2-22.3 44-1.6.6-3.4 1.1-5.1.9-5.3-.6-8.4-7.1-10.1-13-5.5-20.1-9.2-57.5 18.3-54.6z"/><path class="st22" d="M1710.4 197.3l-1-.3c-.8-.5-.9-1.6-.4-2.3 6.1-8.3 14.5-14.3 23.7-16.7.9-.2 1.8.3 2.1 1.2.2.9-.3 1.8-1.2 2.1-8.5 2.2-16.2 7.7-21.9 15.4-.3.4-.8.6-1.3.6z"/><path class="st22" d="M1735 200.4l-.8-.2c-7.2-4-15.5-5-23.3-3-.9.2-1.8-.3-2-1.2-.2-.9.3-1.8 1.2-2 8.6-2.2 17.8-1.1 25.8 3.3.8.4 1.1 1.5.7 2.3-.4.5-1 .8-1.6.8z"/><path class="st16" d="M1380.5 164.6c-6.6.7-13 5.3-16 12.2-1.3 3-2 6.3-2.4 9.6-2 17.5 6.8 36.5 21.3 42.1 1.6.6 3.2 1.1 4.9.9 5.1-.6 8.1-6.8 9.6-12.4 5.4-19.4 8.9-55.2-17.4-52.4z"/><path class="st22" d="M1393.5 197.3c-.5 0-1-.2-1.3-.7-5.4-7.4-12.8-12.6-20.9-14.8-.9-.2-1.4-1.1-1.1-2 .2-.9 1.1-1.4 2-1.1 8.8 2.3 16.9 8 22.7 16 .5.7.4 1.7-.4 2.2l-1 .4z"/><path class="st22" d="M1370 200.3c-.6 0-1.1-.3-1.4-.8-.4-.8-.1-1.8.6-2.2 7.6-4.2 16.4-5.3 24.7-3.2.9.2 1.4 1.1 1.2 2-.2.9-1.1 1.4-2 1.2-7.5-1.9-15.4-.9-22.3 2.9l-.8.1zm186.6 36.8c-1 0-2 0-3-.1-.6 0-1.1-.1-1.7-.1-1.3 0-2.4-1.2-2.3-2.5 0-1.3 1.2-2.3 2.5-2.3.6 0 1.2 0 1.8.1 2.6.1 4.8.2 7.1-.5 2.5-.9 4.6-3.2 5.4-6 .7-2.6.3-5.1-1.2-6.9-2.8-3.5-9.2-3.7-13.8-2.2-1.3.4-2.6-.3-3-1.5-.4-1.3.3-2.6 1.5-3 6-2 14.6-1.7 19 3.7 2.5 3 3.2 7.2 2.1 11.3-1.3 4.4-4.5 7.9-8.5 9.3-2.1.5-4 .7-5.9.7z"/><path class="st21" d="M1450.1 164.8c3.3-2.5 7.1-4.2 10.8-5.7 3.8-1.4 7.6-2.6 11.6-3.5 3.9-.9 7.9-1.7 11.9-2.2 4-.5 8-.9 12.4-.6 1.5.1 2.6 1.4 2.6 2.9-.1 1.5-1.4 2.6-2.9 2.6h-.3c-3.6-.5-7.5-.4-11.3-.2-3.9.3-7.7.7-11.5 1.4-3.8.6-7.6 1.5-11.3 2.6-3.7 1.1-7.3 2.5-10.4 4.6-.6.4-1.3.2-1.7-.3-.5-.5-.4-1.2.1-1.6zm217.8 1.9c-3.1-2.1-6.8-3.5-10.4-4.6-3.7-1.1-7.5-2-11.3-2.6-3.8-.6-7.7-1.1-11.5-1.4-3.8-.2-7.7-.3-11.3.2h-.1c-1.5.2-2.9-.9-3.1-2.4-.2-1.5.9-2.9 2.4-3.1h.2c4.3-.3 8.3.1 12.4.6 4 .5 8 1.3 11.9 2.2 3.9.9 7.8 2 11.6 3.5 3.8 1.4 7.5 3.1 10.8 5.7.5.4.6 1.2.2 1.7-.5.5-1.2.6-1.8.2z"/><path class="st16" d="M1214 466.9c-3.7-13.6-6.4-27.8-15.7-38.9-.4-.4-.8-.9-1.3-1-.6-.2-1.2.1-1.8.3-10.9 4.7-15 15.2-20.8 24.8-6.6 11.1-12.7 23-15.2 35.8 4.7 2.8 9.5 5.5 14.1 8.5.6.4 1.3.8 2 .9.5 0 1.1-.1 1.6-.3 2.8-1 5.2-2.9 7.8-4.5 3.3-2 6.5-4.2 9.6-6.5 6.9-5.1 14.1-10.7 19.4-17.5l.4-.8-.1-.8z"/><path class="st14" d="M1694.7 163.8c-4.8-5.2-10.7-9.1-16.8-12.3-3.1-1.7-6.2-3.2-9.4-4.7s-6.3-3-9.5-4.5c-12.8-5.8-25.7-11.4-38.5-17.6-12.7-6.2-25.3-12.9-36.9-21.3-11.6-8.3-22.2-18.3-30.1-30.1 9.8 10.3 20.8 18.9 32.5 26.4l9 5.4c3.1 1.7 6.1 3.5 9.2 5 6.2 3.3 12.4 6.4 18.8 9.4 12.6 6.2 25.5 12 38 18.7 6.3 3.3 12.5 6.8 18.4 10.7 5.8 4.2 11.5 9 15.3 14.9zm7.9-18.9c-4.2-8.5-10.5-15.2-17-21.9-6.4-6.7-13.1-13.1-20.2-19.1-7-6.1-14.3-11.7-21.9-17.1-7.6-5.4-15.4-10.4-23.4-15.5 9 2.9 17.6 6.9 25.8 11.7 8.2 4.8 15.9 10.4 23.2 16.6 7.1 6.3 13.9 13 19.8 20.5 6 7.3 11.7 15.5 13.7 24.8zm-286.3 24.5c1.5-6.1 4.9-11.7 9.1-16.5 4.3-4.7 9.4-8.7 15-11.9 11.1-6.5 23.5-9.8 35.2-13.6 11.8-3.5 23-8.2 33.6-14.4 10.6-6.2 20.3-13.8 29.4-22.4-7.3 10.2-16.5 19-27 26.1-5.2 3.6-10.8 6.7-16.5 9.4-5.8 2.7-11.8 4.8-17.7 6.7-11.9 3.7-23.9 6.7-34.8 12-10.8 5.5-20.9 13.2-26.3 24.6zm124.1-123.3c-6.4 15-17.7 28.1-31.8 37-7 4.6-14.9 7.8-22.8 10.2-7.9 2.4-15.9 4.1-23.5 6.4-15.3 4.2-29.5 12-41.2 22.7-11.7 10.8-21.2 24.1-27.2 39.3 3.9-15.9 12.4-30.7 24.2-42.5 5.8-6 12.5-11 19.7-15.3 7.2-4.2 15.1-7.4 23-9.7 15.9-4.4 31.9-6.9 45.6-15 13.6-7.7 25.6-19.1 34-33.1zm-132.8 36.8c6-11.6 14.3-22.2 23.8-31.3 9.5-9.2 20.5-16.9 32.3-23 11.8-6.1 24.4-10.6 37.4-13.1 13-2.6 26.3-3.2 39.3-1.4-13.1.6-25.9 2.5-38.3 5.8-12.4 3.3-24.4 7.9-35.8 13.8-11.4 5.8-22.1 13-31.9 21.3-9.8 8.1-18.8 17.5-26.8 27.9z"/><path class="st14" d="M1714.4 158.4c-2.7-13.6-6.1-26.8-10.9-39.6-4.8-12.7-10.8-25-18.4-36.2-7.5-11.2-16.6-21.4-26.9-30.1-10.4-8.7-22-16-34.8-21.3 13.5 3.1 26.3 9.5 37.5 17.8 11.3 8.4 21 18.8 28.9 30.5 7.8 11.7 13.8 24.5 17.8 37.9 4.1 13.3 6.4 27.1 6.8 41z"/><path class="st12" d="M1385.9 152.9c4.6-14.6 10.6-28.9 19.6-41.6 8.9-12.6 21.1-23.3 35.8-28.9 7.4-2.8 15.1-3.8 22.7-4.8 7.6-.9 15.1-1.9 22.5-3.8 7.3-1.9 14.5-4.6 21.3-8 6.9-3.3 13.3-7.5 19.4-12.1-11.4 10.3-25.2 17.9-40.1 22.3-14.9 4.7-30.8 3.7-44.8 9.1-14.1 5.2-26 15.5-35 27.5-4.6 6-8.5 12.6-12 19.4-3.5 6.8-6.5 13.8-9.4 20.9zm-1.3-6.4c.8-10.4 3.2-20.7 6.3-30.6 3.2-9.9 7.2-19.6 12.6-28.6-3.3 9.9-6.8 19.6-9.9 29.5-3.2 9.8-6 19.7-9 29.7zm272.3-66.4c-6.3-6.8-14.2-11.7-22.5-15.4-8.4-3.7-17.2-6.3-26.1-8.8-4.4-1.3-8.9-2.6-13.3-4.1-4.4-1.5-8.7-3.2-13.1-4.8-4.3-1.7-8.7-3.4-12.8-5.9-4-2.5-7.7-5.7-10.3-9.6l.1-.9.8.1c5.8 7.1 14.4 10.8 23 13.7 4.4 1.5 8.7 3.2 13 4.6 4.4 1.5 8.8 2.7 13.2 4.1 8.8 2.8 17.8 5.5 26.1 9.7 8.5 4.3 16.4 9.8 21.9 17.3zm58.1 5.1c-1.5-1.8-3-3.5-4.5-5.2-5.4-6.1-11-12.1-16.8-17.9-11.7-11.4-23.8-22.5-37.4-31.5-6.7-4.5-13.9-8.2-21.5-11.2-7.5-3-15.3-5.4-23.3-7.1-7.9-1.8-16-2.7-24.1-2.9-8.1-.2-16.3.4-24.3 2l-.9-.6.6-.9c16.1-3.7 33.1-3.7 49.3-.3 8.1 1.7 16 4.2 23.7 7.2 7.7 3.1 15.2 6.8 22 11.6 13.6 9.5 25.8 20.7 37.1 32.5 6.2 6.5 12.2 13.3 17.9 20.3.7 1.3 1.5 2.7 2.2 4zm-167-5.7c9.9 10.5 19.6 21.2 30.4 30.6 2.7 2.3 5.5 4.6 8.4 6.7 2.8 2.2 5.8 4.1 8.8 6.1 6 3.8 12.4 7.2 18.8 10.3 12.9 6.4 26.3 11.5 39.6 17.2 6.6 2.9 13.2 5.9 19.7 9.1 6.4 3.3 12.7 6.9 18.7 10.9-12.6-7.1-25.8-12.7-39.2-18-13.4-5.3-26.9-10.4-40-16.7-13-6.4-25.5-14.1-36.2-24-10.7-9.8-20-20.9-29-32.2zm1 15.4c-3 4.2-6.4 8-10.1 11.6-3.7 3.6-7.6 6.9-11.7 10-8.2 6.2-17.2 11.4-26.5 15.8-9.3 4.3-19 8-28.7 11-4.9 1.5-9.8 3-14.7 4.3-5 1.3-9.9 2.6-14.9 3.8 4.8-1.8 9.7-3.4 14.5-5.1 4.8-1.6 9.7-3.3 14.4-5.1 9.6-3.5 19.1-7.2 28.2-11.5 9.2-4.3 18.1-9.2 26.4-14.9 8.4-5.8 16.2-12.4 23.1-19.9zm10.8-58.7c6.8 15 18 27.5 30.5 38 12.6 10.5 26.4 19.5 40.3 28.4 13.7 9.2 28.1 17.4 41.5 27.2 6.7 4.9 13.1 10.3 18.9 16.2 5.7 6 10.8 12.6 15 19.7-9.2-13.8-21.5-25-35.1-34.3-13.5-9.3-27.9-17.5-41.8-26.5-13.8-9-27.8-18-40.4-28.9-6.3-5.5-12.2-11.4-17.3-18-5.1-6.6-9.5-13.8-12.5-21.5l.3-.7.6.4z"/><path class="st12" d="M1548 29.1c-7.6.9-15.1 2-22.5 3.6-7.4 1.5-14.8 3.3-22.1 5.4-14.5 4.3-28.7 9.6-42 16.8-13.3 7.1-24.9 16.9-35.7 27.5-5.4 5.3-10.6 10.8-15.5 16.6-5 5.7-9.7 11.6-14.3 17.7 8.2-12.8 17.7-24.8 28.3-35.8 10.6-11 22.4-21 35.9-28.4 13.6-7.1 28-12.6 42.7-16.4 14.9-4 30-6.5 45.2-7z"/><path class="st10" d="M1700.6 836.6c-88.8-.5-178.6-4.9-267-13-1.6-.1-2.7-1.5-2.6-3.1.1-1.6 1.5-2.7 3.1-2.6 88.2 8.1 177.9 12.5 266.5 13 1.6 0 2.8 1.3 2.8 2.9.1 1.6-1.2 2.8-2.8 2.8z"/><path class="st10" d="M1721 899.5l-1-.2c-12.6-4.7-26.8-9.9-37.2-20.3-10.6-10.6-16.1-25.7-14.8-40.6.1-1.6 1.5-2.7 3.1-2.6 1.6.1 2.7 1.5 2.6 3.1-1.2 13.2 3.8 26.7 13.1 36.1 9.5 9.5 23.1 14.6 35.2 19 1.5.5 2.2 2.2 1.7 3.6-.4 1.2-1.5 1.9-2.7 1.9zm-155.3 15.8c-1.6 0-2.8-1.3-2.8-2.8 0-6-.2-13.6-.5-21.6-.5-17.8-1.1-40 .2-57.5.1-1.6 1.5-2.7 3-2.6 1.6.1 2.7 1.5 2.6 3-1.3 17.2-.7 39.2-.2 56.9.2 8.1.5 15.7.5 21.8 0 1.5-1.2 2.8-2.8 2.8z"/><path class="st10" d="M1570 895.6c-1.3 0-2.7-.2-4-.7-1.5-.6-2.2-2.2-1.6-3.7.6-1.5 2.2-2.2 3.7-1.6 3.3 1.3 7.2-1 9.2-3.8 2.4-3.4 3.2-8 3.8-12.4 1.8-13.4 2.5-27.1 2.2-40.7 0-1.6 1.2-2.9 2.8-2.9 1.6 0 2.9 1.2 2.9 2.8.4 13.8-.4 27.8-2.2 41.6-.7 5.1-1.6 10.5-4.8 15-2.7 3.5-7.2 6.4-12 6.4z"/><path d="M1354.8 1686.3c-4.6 0-5.4-4.9-4.8-7 5.1-17.9 22.6-29.8 39.5-35 5.9-1.8 12.2-2.7 15.9-8.2 3.8-5.7 6-12.7 6.4-19.5 0-.6.1-1.2.5-1.6.4-.4 1-.4 1.5-.5 13.7-.4 69.4-1 87.1-.3.7 0 1.4.1 1.9.4 1.3.7 1.5 2.4 1.6 3.9.8 13 2.3 47.7 2.3 59.7 0 4.5-1.2 7.1-6.1 7.6-8.8.8-110.3.6-134.4.6-3.7-.1-7.5-.1-11.4-.1zm209.6 0c-4.6 0-5.4-4.9-4.8-7 5.1-17.9 22.6-29.8 39.5-35 5.9-1.8 12.2-2.7 15.9-8.2 3.8-5.7 6-12.7 6.4-19.5 0-.6.1-1.2.5-1.6.4-.4 1-.4 1.5-.5 13.7-.4 69.4-1 87.1-.3.7 0 1.4.1 1.9.4 1.3.7 1.5 2.4 1.6 3.9.8 13 2.3 47.7 2.3 59.7 0 4.5-1.2 7.1-6.1 7.6-8.8.8-110.3.6-134.4.6-3.7-.1-7.5-.1-11.4-.1z" fill="#6e84c1"/><path class="st24" d="M1169.2 522.2c11.9-33.1 43.8-133.4 51.2-158.3-3.2-1.3-6.4-2.5-9.6-3.8-.8-.3-1.7-.7-2.6-.2-1.1.5-1.8 1.9-2.4 3.1-7.4 16.6-53 122.9-60.8 140.7-3.4 7.6-6.8 15.7-7.1 23.8-.3 8.1 3.5 16.3 10.1 16.8 4.5.3 9.2-3 12.6-7.4 3.3-4.3 6.6-9.1 8.6-14.7z"/><path class="st18" d="M1206.1 410c6.5-20.4 11.8-37.6 14.4-46.2-3.2-1.3-6.4-2.5-9.6-3.8-.8-.3-1.7-.7-2.6-.2-1.1.5-1.8 1.9-2.4 3.1-2.5 5.7-9.5 21.9-18 41.5 5.8 2.5 11.9 4.3 18.2 5.6z"/><path class="st25" d="M1202.8 318.1c4.8-5.2 11.1-8.7 17.1-12.4 9.3-5.8 18.7-13.4 20.9-24.1 4.1 7.6 6.1 16.4 5.6 25 2.2-2.4 4.5-4.9 6.7-7.3 1.4 10.5 1.4 21.3 0 31.8-1.8 13.5-3.5 27.9-16.8 35-31.6 17.1-55.4-24.2-33.5-48z"/><path class="st9" d="M1205.6 316.2l-.2-.9c0-1 .9-1.7 1.7-2.3 12.4-9.1 30.2-14.2 33.7-31.4 4.1 7.6 6.1 16.4 5.6 25 2.2-2.4 4.5-4.9 6.7-7.3-.7.8.8 7.7.9 9 .2 3.3.2 6.6.2 9.8-.1 4.9.5 12.5-1.7 17-.7 1.4-2.1 2.7-3.7 2.7-4.4.1-5.4-7.8-9.8-8.2-2.3-.2-4.1 1.8-5.7 3.5-2.2 2.4-4.7 4.6-7.5 6.4-1.1.7-2.3 1.4-3.6 1.4-2.4-.1-4-2.6-4.6-4.9-.8-3.3-.3-6.9 1.3-9.9 1-1.8 2.3-3.4 3.1-5.3.8-1.9.8-4.3-.7-5.7-1.6-1.5-4.3-1.1-6.3-.2-2 .9-3.9 2.3-6.2 2.6-1.2.1-2.6-.4-3.2-1.3z"/><path class="st16" d="M1155.5 488.7c7.4 3.7 15.6 5.9 23.9 6.3 3.5.2 6.5-.1 7.3-3.6.9-3.6-1.5-8-3.9-10.5-3.3-3.5-7.8-5.6-12.2-7.7 5 2.6 10.6 4.1 16.3 4.5 1.6.1 3.2.1 4.7-.4 4-1.5 5.6-6.8 4.2-10.8-2.8-7.8-14.1-11.3-21.3-13.3 6.2 1.1 16.2 3.8 22.2.9 4.9-2.4 3.7-9.3.2-12.7-3.7-3.5-9-4.3-13.5-6.1-5.2-2.2-10.8-4.7-16.5-4.2-6.3.6-10.7 6.2-13.8 11.7-8.7 15.6-12.7 40.8 8.3 48.5m375.4 219c-8.2-3-21.1-9.2-29.3-3.4-2.2 1.6-3.7 4.6-2.6 7.1.7 1.7 2.2 3 3.8 3.8 8 4.4 17.1 7.7 25.9 12.6-9-.9-15.5-1.4-24.9-2.9-3.3-.6-6.8.5-9.7 2.2-2.8 1.8-4.8 5.3-3.7 8.5 1.1 3.3 4.8 4.8 8.1 5.8 9.3 2.8 19.1 4.1 28.8 6.1-11.8 1.9-19.9 3.7-30.5 7-3.3 1-5.7 4.7-5.3 8.1.6 4.4 6.2 7.2 10.6 6.2 9.4-2.1 19-2.5 29.5-3.7-6.5 3.2-11.1 7.3-16.7 10.7-7.2 4.4-.2 11.4 6.1 10 15.6-3.4 30.6-7.5 46.5-11.5 2.4-.6 5.1-1.3 6.6-3.4.7-1 .9-2.2 1.2-3.3 2.2-9.1 4.3-17.6 3.4-27.1-.4-4.2-.4-9-1.5-13-.1-.5-.3-1-.6-1.4-.4-.5-1.1-.8-1.7-1-6.2-2.6-12.5-5.1-18.7-7.6-8.4-3.4-16.8-6.7-25.3-9.8z"/><path class="st16" d="M1755.4 450.4c2.7 8.9 5.8 18.3 8.9 27.7l9.6 28.5c6.5 19.1 13.1 38.4 19.5 57.8 6.4 19.5 12.6 39.1 18.4 59.3 2.9 10.1 5.6 20.3 8.1 31 1.2 5.3 2.4 10.8 3.4 16.5 1 5.7 1.9 11.7 2.4 18.6.2 3.5.4 7.3.1 11.9-.1 1.2-.1 2.3-.3 3.7-.2 1.4-.3 2.6-.7 4.3l-.5 2.4c-.2.9-.5 1.9-.8 2.8-.5 1.7-1.5 4.2-2.5 6.5-.2.4-.8 1.5-1.3 2.5-.6 1-1.2 1.9-1.8 2.8-.7 1-1 1.4-1.6 2-.5.6-1 1.2-1.5 1.7l-.8.8-.6.6-1.2 1.1-1.2 1.1-1 .8-2 1.5-1.7 1.1c-1.2.8-2.1 1.3-3.1 1.9-3.9 2.2-7 3.5-10.1 4.8-6 2.5-11.5 4.3-16.9 5.9-5.4 1.6-10.6 3.1-15.9 4.4-20.9 5.3-41.4 9.2-62 12.5-20.6 3.2-41.4 5.8-62.4 7.3-10.5.7-21.1 1.2-32 1.3-10.9 0-21.8-.4-33.6-2-12.6-1.7-21.5-13.3-19.8-26 1.6-12 12.3-20.7 24.2-20h.6c8.3.5 17.5.2 26.9-.5 9.3-.7 18.9-1.8 28.4-3.2 19.1-2.8 38.3-6.5 57.3-10.9s37.9-9.5 55.8-15.5c4.5-1.5 8.8-3.1 13-4.7 4.1-1.6 8.2-3.3 11.4-4.9 1.6-.8 3-1.6 3.4-2l.1-.1-.2.1-.5.3-.8.7-.5.5-.7.7-.9 1-1 1.3c-.5.6-.9 1.3-1.3 2l-.9 1.6c-.6 1.1-1 2.5-1.2 2.9l-.4 1.5c-.1.5-.1.4-.2.6l-.1-.1-.4-3.2c-.5-3.2-1.4-7.2-2.4-11.3-1.1-4.2-2.3-8.5-3.7-12.9-2.7-8.8-5.9-17.9-9.3-27-6.7-18.2-14.1-36.6-21.7-55s-15.5-36.9-23.4-55.4l-11.9-28.1c-4-9.5-7.9-19-11.8-29.2v-.1c-8.1-21.1 2.4-44.8 23.5-52.9 21.1-8.1 44.8 2.4 52.9 23.5 0 1.2.4 2.3.7 3.2z"/><path class="st18" d="M1690.1 393.6c5.9-.7 12.3.4 18.9 3.8 28.2 14.8 44.5 45.9 57.5 73.2 3.7 7.8 6.9 15.8 9.7 23.9 1.4 4.1 7.9 17.6 6.2 21.5-4.3 10.1-92.8 40.3-94.9 35.3-11.9-29.5-16.5-68.6-23.9-107.8l-.1-.2c-.2-.7-.5-1.3-.7-2-6.9-22.2 7.2-45.3 27.3-47.7z"/><path class="st2" d="M1549.1 618c-37.2 2.5-73.9 13.2-106.7 30.9s-86.4 57.2-65 101.2c7 14.3 23.3 21.3 38.8 25.2 39.8 10.1 81.8 7.8 122.5 2 32.2-3.6 63.3-13.2 93.1-25.5 5.6-2.3 11.4-4.8 15.4-9.4 8-9.3 4.2-26-7.1-30.8-6.9-2.9-14.3-1.5-21.4-3-11.2-2.3-23.5-5-31.3-14-7.4-8.6-9.1-21.4-4.8-32.1 4.7-11.7 21-16.3 22.2-29.4.5-5.4-2.7-11-7.7-13.2-5.3-2.4-13.1-2.1-18.9-2.4-9.8-.3-19.5-.2-29.1.5z"/><path d="M1640 711.7c-3.9-1.7-8.1-2-12.3-2.3 5.9 5.5 10.1 12.6 7.1 21.1-3.2 9.2-13.3 14.1-21.6 17.6-29.5 12.6-62 18-93.8 21.1-32.8 3.3-67.3 5.3-99.7-2.1-15.9-3.6-32.4-9.8-44.2-21.1.5 1.4 1.1 2.7 1.8 4.1 7 14.3 23.3 21.3 38.8 25.2 39.8 10.1 81.8 7.8 122.5 2 32.2-3.6 63.3-13.2 93.1-25.5 5.6-2.3 11.4-4.8 15.4-9.4 8-9.2 4.2-25.9-7.1-30.7z" fill="#e1ded6"/><path class="st5" d="M1438.3 665.1c-2 3.2-3.2 7.1-6 9.6-2.1 2-5.1 3.2-6.4 5.8-1 2.2-.5 4.9 1.2 6.7 1.6 1.7 4.2 2.5 6.6 2.1 4.2-.6 7.2-4.3 11.1-6.1 3.8-1.8 8.3-1.7 12.5-2 4.2-.3 8.8-1.3 11.5-4.5 1.9-2.2 2.6-5.3 2.8-8.2.2-1.9.2-3.9-.9-5.4-2.3-3.4-7.4-2.5-11.4-2.1-8 .7-15.6-4.5-21 4.1z"/><path class="st7" d="M1413.7 713.6c-8.1 5.5-17.4 12.3-18.9 21.8-1 6.5 2.5 13.8 8.7 16.1 5.4 2.1 11.5.1 16.8-2.3 5.3-2.4 10.6-5.3 16.5-5.3 3.9 0 7.7 1.3 11.6 1.7 3.9.3 8.4-.7 10.4-4.1 4.2-7.1-4-14.4-10.5-15.1-3.9-.5-8.7 1-11.4-1.8-3.7-3.8.5-10.6-2.1-15.2-1.5-2.7-5.1-3.7-8.1-3.2-3.1.5-5.7 2.3-8.3 4.1-1.5 1.1-3.1 2.2-4.7 3.3z"/><path class="st8" d="M1431.2 740.1c.3 3.7 3.7 6.7 3.4 10.4-.1 1.4-.8 2.7-.8 4.1.1 2 1.6 3.7 3.4 4.6 4.8 2.6 10.8 1.2 15.9-1 5.1-2.1 10.1-5 15.6-5 4.4 0 8.6 1.8 12.9 2.8 3.3.8 6.8 1.1 10.2 1 3-.1 6-.7 8.4-2.4 2.4-1.8 3.8-5.1 2.7-7.8-.9-2.3-3.3-3.7-5.7-4.1-2.4-.5-4.9-.2-7.4-.1-4.4.2-8.8-.2-13.1-1.2-9.1-2.1-1.6-7.5-2.3-12.9-.7-5.6-6.8-7.7-11.5-7.2-7.7.9-32.4 9.1-31.7 18.8z"/><path class="st9" d="M1582 734.2c.4 1.1.6 2.2.3 3.3-.7 3.5-5 4.9-8.6 4.9-3.6 0-7.5-.6-10.5 1.3-3.7 2.4-4.4 7.5-6.6 11.4-2.3 4-6.6 6.8-11.2 7.2-6.2.6-9.9-2.8-13.8-7-3.6-3.9-7.8-5.8-11.3-9.2-7.1-7.1-1.1-9.2 5.8-9.2 11.1-.1 17.8-.8 28-5.7 8.1-3.9 23.6-9.1 27.9 3z"/><path d="M1539.1 728.9c3.7.1 7.1-2 10.2-4.1 3.1-2.1 6.3-4.3 10.1-4.5 2.2-.1 4.8.3 6.2-1.3.7-.7.9-1.8.9-2.8.4-5.9-4-11.6-9.6-13.4-5.6-1.8-12.1 0-16.5 3.9-4.9 4.4-14.2 21.8-1.3 22.2z" fill="#6fbee4"/><path class="st28" d="M1492.4 708.8c3 1.5 4.2 5 6.4 7.5 2.9 3.3 8.2 4.5 12.1 2.3 3.9-2.1 5.7-7.5 3.7-11.4-1.3-2.5-4-4.3-4.7-7.1-.9-3.8 2.4-7.2 4.7-10.3 4.8-6.3 3.3-13.7-5.4-12.7-6.8.8-11 9-18 8.5-2.1-.1-4.4-1.2-6.3-.4-.9.4-1.6 1.1-2.3 1.9-3.2 3.7-8.4 10-8.7 15.1-1.2 14.8 11.6 3.2 18.5 6.6zm24.6-50c.6.2 1.2.4 1.6.9 1.3 1.4.3 3.8-1.3 4.8s-3.7 1.1-5.5 1.6c-7.8 2.4-13.4 14.9-22.9 12-2.3-.7-4.2-3-3.6-5.3.8-3 4.7-3.6 7.8-4.2 7.3-1.4 15.9-12.1 23.9-9.8z"/><path class="st1" d="M800.2 1296.5H34.1c-11.2 0-20.3-9.1-20.3-20.3v-16.3c0-11.2 9.1-20.3 20.3-20.3h766.1c11.2 0 20.3 9.1 20.3 20.3v16.3c0 11.2-9.1 20.3-20.3 20.3z"/><path class="st1" d="M100.6 1713.7H81.1c-2.3 0-4.2-1.9-4.2-4.2v-423.3c0-2.3 1.9-4.2 4.2-4.2h19.5c2.3 0 4.2 1.9 4.2 4.2v423.3c0 2.3-1.9 4.2-4.2 4.2zm655.7 0h-19.5c-2.3 0-4.2-1.9-4.2-4.2v-423.3c0-2.3 1.9-4.2 4.2-4.2h19.5c2.3 0 4.2 1.9 4.2 4.2v423.3c0 2.3-1.9 4.2-4.2 4.2z"/><path class="st28" d="M107.2 1138.8H183v100.7h-75.8z"/><path class="st21" d="M100.7 1135.5h88.9v14.4h-88.9z"/><path class="st20" d="M165.6 1194.8c0 15.8-9.2 28.6-20.5 28.6s-20.5-12.8-20.5-28.6 9.2-28.5 20.5-28.5 20.5 12.8 20.5 28.5z"/><path class="st9" d="M211.8 1142.7h75.8v96.9h-75.8z"/><path class="st21" d="M205.3 1135.5h88.9v14.4h-88.9z"/><path class="st20" d="M270.2 1194.8c0 15.8-9.2 28.6-20.5 28.6s-20.5-12.8-20.5-28.6 9.2-28.5 20.5-28.5 20.5 12.8 20.5 28.5z"/><path d="M437 1176.5c.9-18.8 1.4-75.1 1.3-89.1-1.8-.1-3.7-.3-5.5-.4-.5 0-1-.1-1.4.3-.5.4-.6 1.2-.7 2-1.2 9.6-7.8 71.2-9 81.5-.5 4.4-1 9.1.1 13.3 1.1 4.2 4.4 7.8 7.8 7 2.4-.5 4.3-3 5.3-5.8 1-2.6 1.9-5.6 2.1-8.8z" fill="#4ebbba"/><path class="st18" d="M438.2 1113.3c.1-11.4.1-21.1.1-25.9-1.8-.1-3.7-.3-5.5-.4-.5 0-1-.1-1.4.3-.5.4-.6 1.2-.7 2-.4 3.3-1.4 12.7-2.7 24.1 3.4.3 6.8.3 10.2-.1z"/><path class="st25" d="M422.1 1066.8c1.6-3.4 4.3-6.2 6.8-9.1 3.8-4.4 7.4-9.8 6.9-15.6 3.3 3.2 5.7 7.4 6.8 11.9.8-1.6 1.5-3.2 2.3-4.8 2.4 5.2 4.1 10.7 5 16.3 1.2 7.2 2.6 14.8-3.1 20.5-13.5 13.8-32.2-3.6-24.7-19.2z"/><path class="st30" d="M459.8 1170.2c1.3-20.8 4-83.1 4.5-98.6-1.2-.3-2.5-.6-3.7-.8l-.9.2c-.3.4-.5 1.3-.6 2.1-1.2 10.6-8.1 78.4-9.3 89.7-.5 4.9-1 10-.5 14.7.6 4.7 2.6 8.9 5 8.3 1.6-.4 3-3 3.8-6 .7-2.8 1.5-6.1 1.7-9.6z"/><path class="st18" d="M463.3 1097.9c.5-11.6.9-21.3 1-26.3-1.2-.3-2.5-.6-3.7-.8l-.9.2c-.3.4-.5 1.3-.6 2.1-.4 3.4-1.3 12.5-2.5 23.7 2.2.6 4.4.9 6.7 1.1z"/><path class="st25" d="M459.8 1050.2c1.6-3.7 3.2-7.3 4.8-11 1.8 5.8 3.7 11.7 4.4 17.8.6 4.8 1.2 11-1.1 15.5-3.5 6.5-10.3 3.4-11.6-2.4-1.3-5.9.4-12.8 2.7-18.1.3-.6.5-1.2.8-1.8z"/><path class="st24" d="M459.1 1184.8c5.6-20 21.1-80.5 24.8-95.5-1.1-.5-2.3-1.1-3.4-1.6h-1c-.4.4-.7 1.2-1 2-3.3 10.1-24.2 75-27.7 85.9-1.5 4.7-3.1 9.6-3.5 14.3-.4 4.8.7 9.3 3.1 9.1 1.7-.1 3.5-2.3 5-5.1 1.4-2.6 2.8-5.6 3.7-9.1z"/><path class="st18" d="M477.9 1113.2c2.7-10.5 4.9-19.3 6-23.9-1.1-.5-2.3-1.1-3.4-1.6h-1c-.4.4-.7 1.2-1 2-1 3-3.6 11-6.8 21 2 1 4.1 1.8 6.2 2.5z"/><path class="st25" d="M483.4 1070.1c4.3 1.1 8.6 3.1 12.5 4.8.7.3 1.4.7 1.7 1.4.3.9-.2 1.8-.8 2.5-2 2.6-3.7 5.4-5.8 8-1.7 2.1-4.2 5.6-6.9 6.3-1.4.3-2.8-.1-4.1-.5-2.3-.7-3-1.9-3.3-4.2-.5-2.9-.6-5.8-.5-8.7.1-3.1.4-6.1.6-9.2l.3-.9.9-.3c1.7.1 3.6.3 5.4.8z"/><path class="st24" d="M420.6 1175c-3.4-20.6-15.7-81.9-19-97-2 .3-4 .5-6.1.8-.5.1-1.1.2-1.4.6-.4.6-.4 1.5-.3 2.3.9 10.7 7.9 79.1 8.9 90.6.5 4.9 1 10.1 3.2 14.4 2.2 4.3 6.5 7.5 10.1 5.8 2.4-1.1 3.9-4.2 4.4-7.5.4-3.1.8-6.5.2-10z"/><path class="st18" d="M407.4 1106.1c-2.5-12.4-4.7-23-5.8-28.1-2 .3-4 .5-6.1.8-.5.1-1.1.2-1.4.6-.4.6-.4 1.5-.3 2.3.3 3.7 1.3 14.1 2.6 26.7 3.7-.4 7.4-1.2 11-2.3z"/><path class="st25" d="M378.6 1059.4c-.7-5.6-1.1-11.4-1.7-17l.1-1 1-.8c1.2-.6 2.5-1 3.9-1.3.9 2.8 2.1 5.4 3.6 7.9-.2-2.6-.3-5.3-.5-7.9l.1-.7.5-.3c4.8-1.2 9.7-2.3 14.5-3.6 1.4-.4 3.2-.7 4.2.4.4.4.5.9.7 1.4 1.1 3.1 2.1 6.2 3.1 9.3 2.9 8.7 7.9 20 2.4 28.6-4 6.3-11.1 9.7-18.4 7.4-6.5-2-10.4-7.1-11.9-13.6-.7-2.7-1.2-5.8-1.6-8.8z"/><path fill="#b8e1f5" d="M481.2 1121.8l-13.9 117.7H404l-13.8-117.7z"/><path d="M462.9 1121.8c-3.8 28-.9 57.3-15.9 82.5-9.8 16.4-25.8 25.4-44.1 25.7l1.1 9.5h63.3l13.9-117.7h-18.3z" fill="#a5d7ee"/><path class="st30" d="M514.1 1141.5h75.8v98h-75.8z"/><path class="st21" d="M507.6 1135.5h88.9v14.4h-88.9z"/><path class="st20" d="M589.9 1167.6v54.5c-1.9.9-4 1.3-6.2 1.3-11.3 0-20.5-12.8-20.5-28.6s9.2-28.6 20.5-28.6c2.2.1 4.3.5 6.2 1.4z"/><path class="st5" d="M373.5 1184.1h42.9v55.4h-42.9z"/><path class="st21" d="M369.8 1180.7h50.3v8.1h-50.3z"/><path class="st20" d="M373.5 1198.8v30.8c1.1.5 2.3.7 3.5.7 6.4 0 11.6-7.2 11.6-16.1s-5.2-16.1-11.6-16.1c-1.2 0-2.4.3-3.5.7z"/></svg>