<svg version="1.1" id="Layer_1" xmlns="http://www.w3.org/2000/svg" x="0" y="0" viewBox="0 0 672.7 623" xml:space="preserve"><style>.st1{display:none}.st2{fill:#fff}.st2,.st3{display:inline}.st4{fill:#d52f3d}.st5{fill:#66c8d0}.st6{fill:#f1b120}.st7{fill:#ee68a7}.st8{display:inline;fill:#d52f3d}.st10{fill:#fed3aa}.st11{fill:#f1c9a3}.st12{fill:#f69fa7}.st13{fill:#f7d4b2}.st15{fill:#4c2a14}.st16{fill:#f48996}.st17{fill:#241f1c}.st18{fill:#ef3d4f}.st20{fill:#3e4e6d}.st21{fill:#5e1a0d}.st23{fill:#764d24}.st24{fill:#fbb03b}.st25{fill:#484848}.st26{fill:#fff}</style><g id="XMLID_17_"><g id="XMLID_15_"><g id="XMLID_348_" class="st1"><path id="XMLID_761_" class="st2" d="M1043.2 538.6c-5.1-1.2-10.2-.9-15.1.8-1.3-11.4-4.6-26.8-12.2-41.1-.9-1.8-1.9-3.6-2.7-5.4-7.9-16.8-18.4-32.3-31-45.6-12.5-13.2-27-24.3-43.1-32.5 23.1-14.3 51.8-45.3 46.3-109.9-7.1-40.5-10.4-98.3-48.9-119.9 0 0-52.4-60.4-150.6-40.7-38.9 7.8-66.8 29.8-86 56.1-8.2-15.3-16.5-29.4-24.9-42.2-2.5-6.6-6.3-12.1-11-16.1-35.3-49.5-71.5-78.6-105-91.9-23.8-9.4-46.2-10.8-66.1-5.9h-1.8c-12.5 0-25 1.7-37.1 5.4-11.3 3.5-22.1 8.4-32 14.4-22.9 7.8-44 24.9-59.8 52.7-24.9 43.6-36.9 113.2-23.2 213 22.4 163.3 98.8 138 98.8 138-28.8-.1-38.1-29.3-38.1-29.3 14.8 14.1 28 19.1 38 20.5-.1 5.6 1.8 10.3 4.9 13.8-6.2 5-9.1 13.4-6.5 21.4 1.7 5.2 5.3 9.3 9.7 11.6-1.4 2.7-2.2 5.7-2.2 8.8-4.5 5-6.4 12.3-4.2 19.2 1.8 5.7 6 10 11.1 12.2-9.9 10.3-10.6 29.1-.9 45.2 11.2 18.4 31.8 26.4 46.1 17.7.8-.5 1.5-1 2.2-1.5.8-.3 1.5-.7 2.3-1.2.2-.1.3-.2.5-.3 31.5 38.5 82 58.4 132.6 50.1-1.8 2.1-3.2 4.7-4 8-2.4 9.7 5.9 17.9 14.8 14.7 5.3-1.9 10.2-9 7.4-15.1-.5-1.1-1.8-.7-1 .5 1 1.4-1 11.2-6.5 13.2-7.5 2.7-12.2-4-9.7-12.1 1.5-4.9 4.1-8.4 7.3-10.8 3.9-.9 7.8-1.9 11.7-3.2 2.4-.8 4.8-1.6 7.2-2.5.2-.1.4-.1.6-.2 3.5-.4 7.1-.6 10.6-1-1.6 3.1-7.1 14.7-10.8 24H658c-1.9.2-3.9 1.7-4.6 2.8-1.1 1.9 1.2 1.2 2 .8 1.4-.7 2.9-1.2 4.4-1.2-4.9 12.9-14.6 27.8-35.3 32.5-10.4 2.3-28.4-1.6-26.3-17.8.8-6.1 5.1-10.7 7.6-11.7.7-.3 1.4-1-.1-1-2.4.1-7.8 4.6-9 9.4-4.8 18.5 11.8 28.2 28.7 26.1 19.1-2.4 32.7-20.1 38.4-37.3 6.7.3 21.8 1 25.1 1-1.8 5.1-9.2 23-2.4 26.4 2.6 1.3 5.8.5 8.4-2 2.2-2.1 3.7-4 5.6-7.3-.3 6.3 3.9 9.4 9.2 4.4 2.1-2.1 4.1-5 5.3-7-2.2 7.8 1.3 9.7 3.7 9.6 4.1-.3 8.2-7.8 10.6-12.5.1-.1.3-.3.4-.5-1.3 6.7-13.9 30.8-15.8 32.6 1-.1 2.1.3 3.1.4 2.4.1 3.5-.7 5-3.9l7-17.5c5.3 3.1 11.8.6 15.8-4.3 5.4-6.5 9.6-18.4 2.5-20.3-5-1.4-11 8.8-13.3 12.4 1-2.5 2-6.4 2.1-8.9.1-3.6-.5-3.3-2.7-3l-3.6.6c1.8.4 1 6-.4 9.3-.1.3-.3.8-.5 1.2l-.1.1c-1.6 3.2-6.4 12.6-9.6 12.4-1 0-1.3-1.4-.7-4.4 1-4.5 5.3-12.3 6.9-13.8-1 .2-2.1-.2-3.1-.3-2.4-.1-3.4 1.6-5 4.7-1.9 3.6-4 7.3-6.6 10.4-3.5 4.1-7.6 4.7-6.8-.4.4-2.8 2.4-6.4 3-7.5 2.7-4.4 6.5-8.7 9.8-10.6 2.7-1.5 5.5-.9 6.3 1.9 1.3.2 1.9-1 .8-2.1-4.2-4.6-12.7-1.9-17.2 3.4-2.8 3.4-4.6 6.7-5.5 9.7-2.1 4-4.7 8.1-7.7 10.4-1.6 1.2-3.2 1-4.1 0-3.3-3.6 2.5-19 3.9-23.4 2.1-.1 5.3-.7 7.2-2 1.3-.9.8-1.4-.6-.9-1.2.4-4.4.5-5.9.5 5.9-17.3 13.9-28.4 15.3-29.2 2.7-1.4-.6-1-3.5.1-5.8 2-15 26.1-16.1 29.2-5.2 0-15.2-1.3-25.1-1.3 1.3-3.2 6.7-18.7 9.6-24.1 3 0 8.7-2 8.7-5.5 0-1.5-1.1-2.2-2.5-2.3.2-.1.3-.2.5-.3.4-.2.8-.5 1.2-.7.7-.4 1.3-.8 2-1.2.4-.2.8-.5 1.2-.7.6-.4 1.3-.8 1.9-1.2.4-.2.8-.5 1.1-.7.6-.4 1.3-.8 1.9-1.3.4-.2.7-.5 1.1-.8.6-.4 1.3-.9 1.9-1.3.4-.3.7-.5 1.1-.8.6-.5 1.3-.9 1.9-1.4.3-.2.7-.5 1-.7.6-.5 1.3-1 1.9-1.5.3-.2.6-.5.9-.7.7-.6 1.4-1.1 2-1.7.2-.2.5-.4.7-.6.8-.6 1.5-1.3 2.2-1.9l.4-.4c.7-.6 1.4-1.3 2.1-1.9 5.5 2.3 11.4 3 17.2 1.6 1-.2 1.9-.5 2.8-.9.9-.1 1.8-.3 2.7-.5.2-.1.4-.1.7-.2 8.3 20.8 20.9 39.4 36.9 54.6-3.6 2.8-7 8.5-8.5 11 1-2.5 2-6.4 2.1-8.9.1-3.6-.5-3.3-2.7-3l-3.6.6c1.8.4 1 6-.4 9.3-.4.9-1.1 2.6-1.5 3.3-.5 1 .9.6 1.7-.7-1.3 6.7-13.9 30.8-15.8 32.6 1-.1 2.1.3 3.1.4 2.4.1 3.5-.7 5-3.9l7-17.5c5.3 3.1 11.8.6 15.8-4.3 2.7-3.2 5-7.7 5.9-11.7 1.1.9 2.2 1.8 3.3 2.6l-.8 1.5c-.4 1 .2 1.2.7 1.2-1.3 2.7-3.2 5.4-2.5 8.6.6 2.8 3.2 3.3 4.7 3.3 3.4 0 6.4-3.2 8.9-6.7.5.3 1.1.7 1.6 1-1.1 3.1-2.4 6.3-3.8 8.7-6 1.7-13 3-18 5.3-2.9 1.3-5.6 3.3-7 6.1-2.2 4.1-1.5 9 5.9 9 11 0 18.3-11.3 23-19.7 3.9-1.4 6.6-2.7 8.7-4.3 22 12.1 47.3 19 74.2 19 1.4 0 2.8 0 4.2-.1 1.4 0 2.7-.1 4-.2.3 0 .5 0 .8-.1 1.1-.1 2.2-.1 3.2-.2.4 0 .8-.1 1.1-.1 1-.1 1.9-.2 2.9-.3.4 0 .9-.1 1.3-.1l2.7-.3c.5-.1.9-.1 1.4-.2.9-.1 1.7-.2 2.6-.4.5-.1 1-.2 1.4-.2.8-.1 1.7-.3 2.5-.4l1.5-.3c.8-.2 1.6-.3 2.4-.5l1.5-.3c.8-.2 1.6-.4 2.4-.5.5-.1 1-.2 1.5-.4l2.4-.6c.5-.1 1-.3 1.5-.4.8-.2 1.6-.4 2.4-.7.5-.1 1-.3 1.4-.4.8-.2 1.6-.5 2.4-.7.5-.1.9-.3 1.4-.4.8-.3 1.6-.5 2.4-.8.4-.2.9-.3 1.3-.5.8-.3 1.7-.6 2.5-.9.4-.1.8-.3 1.2-.4.9-.3 1.8-.7 2.6-1.1.3-.1.6-.3 1-.4 1-.4 2-.8 2.9-1.3l.6-.3c4.8-2.2 9.5-4.5 14-7.2 0 0 .1 0 .1-.1 1.1-.6 2.1-1.3 3.2-1.9.1-.1.3-.2.4-.2 1-.6 1.9-1.2 2.9-1.8.2-.1.3-.2.5-.3l2.7-1.8c.2-.1.4-.2.5-.4.9-.6 1.8-1.2 2.6-1.9.2-.1.4-.3.5-.4.9-.6 1.7-1.3 2.6-1.9.2-.1.3-.3.5-.4.9-.7 1.7-1.3 2.6-2 .1-.1.3-.2.4-.4.9-.7 1.7-1.4 2.6-2.2l.3-.3c.9-.8 1.8-1.5 2.7-2.3.1-.1.2-.1.2-.2.9-.8 1.8-1.7 2.7-2.5l.1-.1c16.4-15.4 29.5-34.3 38-55.5.8.2 1.6.3 2.4.4.9.3 1.9.6 2.8.9 17.7 4.3 36.6-10.8 42.1-33.6 5.4-22.9-4.5-44.9-22.2-49.2zM739.3 679.7c6.3-8.8 10.7-4.2 5.8 4.9-4 7.3-12.1 15.5-15.8 11.9 3.6-6.5 7.2-12.9 10-16.8zm45.1 27.3c-3.4 4.7-11.3 13.8-17.8 13.8-6.4 0-3.6-8.7 4-12 4.2-1.9 10.6-3.3 15.4-4.6l-1.6 2.8zm-17.5-260.4c-1.2 1.2-2.4 2.5-3.5 3.8-1.7-.8-3.5-1.4-5.4-1.8-2.3-3.8-5.8-6.7-9.8-8.3 1.5-1.2 2.8-2.6 3.9-4.2 4.2 1.5 8.7 2.8 13.4 3.8 2.2.5 4.4 1 6.5 1.5-1.8 1.8-3.5 3.5-5.1 5.2zm-327.1 3.9c-.1.1-.1.2-.2.3-1.5-.9-3-1.9-4.4-3 1.5 1 3.1 1.9 4.6 2.7zm232.9 195.1c-1.8.2-3.8.3-5.8.4l.6-.3c.4-.2.7-.3 1.1-.5.8-.3 1.5-.7 2.3-1.1.4-.2.8-.4 1.1-.5.7-.3 1.5-.7 2.2-1.1l1.2-.6s.1 0 .1-.1c-1.5 1.7-2.5 3.3-2.8 3.8zm2.5-.2c1-1.3 3.2-3.9 3.9-3.6.9.1 2.4 2.7-3.9 3.6zm94.8 39.2c-4 7.3-12.1 15.5-15.8 11.9 3.5-6.5 7.1-13 9.9-16.8 1.6-2.2 3-3.5 4.2-4.2l3.6 3.3c0 1.6-.6 3.5-1.9 5.8zm15.7 9.8c-4.8 5.6-7.9 2.6-4.4-5.1.3-.7.7-1.4 1-2.1 1.9 1.4 3.8 2.8 5.8 4.1-.7 1.1-1.6 2.1-2.4 3.1zm6.9 5.9l1.8-5.1c1.3.8 2.7 1.6 4.1 2.4-2.1 1.3-4.2 2.2-5.9 2.7z"/><path id="XMLID_966_" class="st2" d="M381.8 726.4l44.2 43.7-44.2 43.7h27.6l-15 38.7 56.9-19.6-9.4 59.6 52-31.6 3.5 61.1 44.8-42.5c.1 0 .2 0 .2.1l18.3 58.8 32.9-51.7 32 51.9 19.2-58.8c.2 0 .3-.1.5-.1l6.4 6.6-1.5 10.9 7.5-4.8 30.3 31 5.1-53.6 6.2-4 3.7 2.6 6.3 56.8 29.7-31.4 4.1 2.9-.6-6.6 8.9-9.4 21.6 57 30-54h.5l33.6 51 17.4-58.9c.1 0 .2 0 .2-.1l41.7 43.3 6.1-59.4 2.1-.9 46.3 37.7-1.2-60.1c.3-.1.5-.3.7-.4l48.6 34.9-4.5-56.8h23.3l-48.5-43.7 48.5-43.7h-636v-.2zm228.3 157.3c-10.3.8-20.7.9-30.9.2-1.1-.1-2.2-.2-3.2-.3l-18.2-2.4c-11.2-2-21.8-4.9-31.7-8.4l-16.4-6.5c-9.3-4.1-17.8-8.6-25.5-13.2l-20.5-13.8c-.2-.1-.3-.3-.5-.4-6.9-5.2-12.9-10.3-18.2-15l-9.7-10.1h182.2l-15.8 43.7 57.1-21.1-5.3 39.4c-9 2.6-18 4.6-27 6l-16.4 1.9zm127.8-48.8l-41.6 24c-2.9-1.5-5.7-3.1-8.4-4.7l-14.9-9.5c-8.3-5.8-15.8-11.9-22.5-17.8l-13.2-13.1H766l-27.9 21 .4.2c-.2.1-.3.2-.5.3l-.1-.4zm245.5-21.1c-6.3 4.2-12.6 8.2-18.8 12l-15.4 8.7.2.1-46.1 22.5.3.3c-.2.1-.3.1-.5.2v-.4l-49.3 17c-4.9 1.2-9.9 2.3-14.7 3.3l-22.9 3.4c-10.7 1.1-21.2 1.5-31.5 1.1l-16.3-1.2c-9.1-1-18-2.6-26.7-4.7l-3.5-39c.6-.4 1.3-.8 1.9-1.3l52.7 28.2-10.7-50.2h18.6l34.6 15.9-4.4-15.9h152.5z"/></g><g id="XMLID_25_"><g id="XMLID_27_" class="st1"><g id="XMLID_30_" class="st3"><g id="XMLID_386_"><path id="XMLID_390_" class="st4" d="M472.3 802.9l-8.9 56.1 48.6-29.5z"/></g><g id="XMLID_379_"><path id="XMLID_383_" class="st4" d="M649.5 846.6l39.7 40.6 5.4-56.5z"/></g><g id="XMLID_365_"><path id="XMLID_369_" class="st5" d="M511.1 829.4l3.3 56.6 41.1-39z"/></g><g id="XMLID_357_"><path id="XMLID_361_" class="st5" d="M693.4 830.1l46.4 32.7-5-56.6z"/></g><g id="XMLID_323_"><path id="XMLID_329_" class="st6" d="M555.5 846.8l16.9 54.2 30.5-47.9z"/></g><g id="XMLID_313_"><path id="XMLID_317_" class="st6" d="M734.9 806.1l50 26.8-11.8-55.5z"/></g><g id="XMLID_302_"><path id="XMLID_307_" class="st7" d="M602.2 852.8l29.8 48.3 17.6-54z"/></g><g id="XMLID_276_"><path id="XMLID_296_" class="st7" d="M772.3 777.7l51.5 23.8-15.1-54.7z"/></g><g id="XMLID_32_"><path id="XMLID_185_" class="st7" d="M440.4 769.5l-20.5 52.9 53.6-18.5z"/></g></g><path id="XMLID_393_" class="st8" d="M615.1 852.6c-8.7.6-17.4.6-26 0-47.3-3.3-84.4-24.4-107.2-41.5-24.7-18.6-38.4-36.6-38.5-36.8l1.2-.9c.1.2 13.7 18.1 38.3 36.5 22.6 17 59.5 37.9 106.4 41.2 69.8 4.8 142-29.5 214.5-102.2l1 1c-63.9 64.1-127.6 98.5-189.7 102.7z"/></g><g id="XMLID_29_" class="st1"><g id="XMLID_259_" class="st3"><g id="XMLID_405_"><path id="XMLID_406_" class="st4" d="M629.1 773.6l-19.3 53.3 53.2-19.6z"/></g><g id="XMLID_401_"><path id="XMLID_402_" class="st4" d="M794.8 850.2l31.2 47.4 16.1-54.5z"/></g><g id="XMLID_397_"><path id="XMLID_398_" class="st5" d="M662.2 806.9l-7.6 56.3 47.8-30.6z"/></g><g id="XMLID_392_"><path id="XMLID_394_" class="st5" d="M841 842.3l39.3 40.8 5.8-56.4z"/></g><g id="XMLID_387_"><path id="XMLID_388_" class="st6" d="M702.5 832.5l6.3 56.4 39-41.2z"/></g><g id="XMLID_381_"><path id="XMLID_382_" class="st6" d="M886.3 826.6l44 35.8-1.1-56.7z"/></g><g id="XMLID_368_"><path id="XMLID_377_" class="st7" d="M747.1 847.2l20.1 53.1 27.6-49.6z"/></g><g id="XMLID_363_"><path id="XMLID_364_" class="st7" d="M928.4 805.9l46.1 33.1-4.5-56.6z"/></g><g id="XMLID_263_"><path id="XMLID_290_" class="st7" d="M604.1 734.7l-30.1 48 56.1-8z"/></g></g><path id="XMLID_33_" class="st8" d="M759.9 849.5c-8.7-1.1-17.2-2.7-25.5-5-45.8-12.2-78.3-40-97.4-61.1-20.7-22.9-30.8-43.2-30.9-43.4l1.3-.6c.1.2 10.1 20.4 30.7 43.1 19 21 51.2 48.6 96.7 60.7 67.6 18 145-2 230-59.5l.8 1.2c-74.9 50.6-144 72.3-205.7 64.6z"/></g><g id="XMLID_3_"><g id="XMLID_20_"><path id="XMLID_266_" d="M20.5 120S5.3 352 112.8 384.6c0 0 114.4-1.4 208.8-62.9 0 0 55.9-41.6-41.7-211.9.1 0-131.2-165.3-259.4 10.2z" fill="#3f2712"/><g id="XMLID_695_"><g id="XMLID_696_"><g id="XMLID_697_"><g id="XMLID_773_"><g id="XMLID_788_"><ellipse id="XMLID_244_" transform="rotate(-30.784 32.455 204.525)" class="st10" cx="32.5" cy="204.5" rx="27.8" ry="35.8"/><ellipse id="XMLID_243_" transform="rotate(-30.784 39.774 207.429)" class="st11" cx="39.8" cy="207.4" rx="22.9" ry="29.6"/><g id="XMLID_789_"><path id="XMLID_242_" class="st12" d="M31.3 180.4s-.5.9-1.3 2.6c-.8 1.7-1.8 4.1-2.9 7.1-.5 1.5-1 3.1-1.4 4.8-.4 1.7-.7 3.6-.9 5.5-.2 1.9-.2 3.9 0 5.8.2 2 .7 3.9 1.5 5.7.8 1.8 1.8 3.5 3.1 4.9.3.4.7.7 1 1l1 1c.8.6 1.4 1.3 2.3 1.8 1.6 1.1 3.2 2 4.7 2.8 1.6.7 3.1 1.4 4.6 1.9 1.5.6 2.8 1 4.1 1.4 1.2.4 2.3.7 3.2.9 1.8.5 2.8.8 2.8.8s-1.1-.1-2.9-.2c-.5 0-1-.1-1.5-.1l-1.8-.3c-1.3-.2-2.8-.4-4.3-.8-1.6-.3-3.3-.9-5-1.5-.9-.3-1.7-.8-2.6-1.2-.9-.4-1.8-1-2.7-1.5-.9-.5-1.7-1.2-2.6-1.8-.8-.7-1.6-1.4-2.4-2.3-1.5-1.7-2.8-3.6-3.7-5.7-.8-2.1-1.4-4.3-1.6-6.5s-.1-4.4.2-6.4c.3-2 .8-4 1.4-5.7.6-1.8 1.3-3.4 2-4.9 1.4-2.9 2.8-5.2 3.9-6.7 1-1.6 1.8-2.4 1.8-2.4z"/><path id="XMLID_241_" class="st12" d="M39.6 184.9s-.5-.1-1.4-.1c-.9-.1-2.2-.1-3.7-.1-.8 0-1.6 0-2.4.1-.9 0-1.7.2-2.6.4-.5.1-.9.2-1.3.3-.4.1-.9.2-1.3.4s-.9.3-1.3.5-.8.5-1.2.7c-.9.4-1.5 1.1-2.3 1.6-.7.6-1.3 1.3-1.9 2-.5.7-1 1.5-1.5 2.1-.5.7-.8 1.5-1.2 2.1-.4.7-.7 1.3-.9 1.9-.2.6-.5 1.1-.7 1.5-.4.8-.6 1.3-.6 1.3s0-.5.1-1.5c0-.5.1-1 .2-1.7 0-.3.1-.7.1-1 .1-.4.2-.7.3-1.1.2-.8.4-1.7.8-2.5s.9-1.8 1.4-2.7c.7-.8 1.3-1.8 2.1-2.5.9-.7 1.7-1.5 2.7-2 .5-.3 1-.6 1.5-.8.5-.2 1.1-.4 1.6-.6s1.1-.3 1.6-.4 1.1-.2 1.6-.2c1-.1 2-.1 3 0 .9 0 1.8.2 2.6.4 1.6.4 2.8.8 3.7 1.2.6.4 1 .7 1 .7z"/></g></g><g id="XMLID_774_"><ellipse id="XMLID_240_" transform="rotate(-3.615 288.483 125.262) scale(.99999)" class="st10" cx="288.5" cy="125.3" rx="27.8" ry="35.8"/><ellipse id="XMLID_239_" transform="rotate(-3.615 284.058 131.753) scale(.99999)" class="st11" cx="284.1" cy="131.8" rx="22.9" ry="29.6"/><g id="XMLID_775_"><path id="XMLID_238_" class="st12" d="M275.9 104.6s1 .3 2.8.9c1.8.7 4.2 1.7 7 3.3 1.4.8 2.9 1.8 4.4 2.9 1.5 1.1 3 2.4 4.4 3.9s2.7 3.2 3.8 5.1c1.1 1.9 1.9 4.1 2.4 6.3.4 2.2.5 4.5.2 6.8-.2 1.1-.4 2.2-.7 3.2-.4 1-.6 2.1-1.1 3s-.8 1.9-1.4 2.7c-.5.8-1 1.7-1.5 2.5-1.1 1.5-2.1 2.9-3.3 4.1-1 1.2-2.1 2.2-3.1 3.1-.5.4-.9.9-1.3 1.2-.4.4-.8.7-1.2 1-1.5 1.2-2.3 1.8-2.3 1.8s.7-.8 1.9-2.2c.6-.7 1.3-1.5 2.1-2.6.8-1 1.7-2.1 2.6-3.4.9-1.2 1.8-2.7 2.7-4.2.8-1.6 1.7-3.2 2.3-5 .4-.9.6-1.8.9-2.7.1-.5.2-.9.3-1.4s.2-.9.2-1.4c.2-1.9.1-3.9-.2-5.8-.4-1.9-1-3.8-2-5.5s-2-3.4-3.3-4.8c-1.2-1.4-2.5-2.8-3.9-4-1.3-1.2-2.6-2.2-3.9-3.2-2.5-1.9-4.7-3.3-6.3-4.2-1.6-.9-2.5-1.4-2.5-1.4z"/><path id="XMLID_237_" class="st12" d="M271.5 113.1s.2-.5.7-1.3 1.2-1.9 2.3-3.1c.6-.6 1.2-1.2 1.9-1.8s1.6-1.2 2.5-1.7c.4-.3 1-.5 1.4-.7.5-.2 1-.5 1.5-.6s1.1-.3 1.6-.4c.6-.1 1.1-.1 1.7-.2 1.1-.2 2.3 0 3.4.1 1.1.2 2.1.6 3.1.9 1 .4 1.8.9 2.7 1.4.8.5 1.5 1.1 2.1 1.6.3.3.6.5.9.7.3.3.5.5.7.8.4.5.8.9 1.1 1.3.6.7.9 1.2.9 1.2s-.5-.3-1.3-.7c-.4-.2-.9-.5-1.4-.9s-1.1-.7-1.8-1-1.4-.7-2.2-1.1c-.8-.3-1.6-.6-2.5-.9-.9-.2-1.8-.4-2.7-.5-.9 0-1.9-.2-2.8 0-.5 0-.9 0-1.4.1s-.9.2-1.4.3-.9.3-1.3.4c-.4.2-.9.3-1.3.5-.8.4-1.7.7-2.4 1.2-.8.4-1.4.9-2.1 1.3-1.2.9-2.3 1.6-3 2.2l-.9.9z"/></g></g></g><g id="XMLID_698_"><g id="XMLID_760_"><circle id="XMLID_236_" class="st13" cx="156.6" cy="150.9" r="130"/><path id="XMLID_235_" class="st11" d="M275.2 96.3s-118.8 77.8-244.5 78.9c0 0 135.8-104.1 244.5-78.9z"/><path id="XMLID_234_" d="M274.1 206.5c-15 31.7-42.8 57.3-79 68.5-68.6 21.2-141.4-17.2-162.6-85.7-11.2-36.2-5.8-73.5 11.9-103.9-13.5 28.4-16.8 61.7-6.7 94.1 21.2 68.6 94 107 162.6 85.7 32.3-10 57.9-31.5 73.8-58.7z" fill="#eac9a9"/><path id="XMLID_233_" class="st15" d="M182.7 135.5C52.4 173.2 25.4 169.7 25.4 169.7c-11.1-36-5.7-70.7 10.4-98.9 0-.1 0-.1.1-.1 1.8-3.1 3.6-6 5.6-8.9 10.4-15.1 24.1-27.9 39.9-37.5 9.1-5.6 19-10 29.4-13.2 11.1-3.4 22.6-5 34-5 18.7 0 37.3 4.3 54.4 11.7 1.9.8 3.6 2 5.5 2.5 61.4 17.6-22 115.1-22 115.2z"/></g><g id="XMLID_728_"><path id="XMLID_224_" class="st11" d="M186.9 199.9c1.1 3.6-5.1 4.6-12.4 6.9-7.3 2.3-13 4.9-14.1 1.4-1.1-3.6 2.8-12 10.1-14.3 7.3-2.3 15.3 2.4 16.4 6z"/><path id="XMLID_223_" class="st12" d="M159 207.2s0-.6.2-1.7c.2-1 .5-2.5 1.2-4.3.7-1.7 1.7-3.7 3.1-5.6.8-.9 1.6-1.8 2.7-2.6 1-.8 2.2-1.4 3.5-1.9 1.3-.4 2.6-.7 4-.6.7 0 1.3.1 1.9.2.6.1 1.2.3 1.8.4.6.2 1.1.4 1.7.6.5.3 1 .5 1.5.7.9.5 1.8 1.1 2.5 1.7.8.5 1.4 1.1 1.9 1.6.6.5 1 1 1.3 1.4.7.8 1.1 1.3 1.1 1.3s-.5-.3-1.5-.8c-.4-.3-1-.6-1.6-.9s-1.3-.7-2.1-1.1-1.7-.7-2.6-1.1c-.9-.3-1.9-.6-2.9-.8-.5-.1-1-.1-1.5-.2-.5 0-1-.1-1.5 0-1 0-2 .3-3 .6-1 .4-1.9.8-2.8 1.4-.8.6-1.7 1.3-2.4 2.1s-1.4 1.5-2 2.3-1.1 1.6-1.6 2.3c-.9 1.5-1.7 2.8-2.2 3.7-.4.8-.7 1.3-.7 1.3z"/></g><g id="XMLID_702_"><g id="XMLID_721_"><g id="XMLID_457_"><g id="XMLID_462_"><path id="XMLID_463_" class="st15" d="M125.2 165.5S98 152.8 83.5 178.4c0 0 15.7-16.8 41.7-12.9z"/></g><g id="XMLID_460_"><path id="XMLID_461_" class="st15" d="M191.8 144.8s15.3-25.9 41.7-12.9c0 0-22.4-5-41.7 12.9z"/></g></g></g><g id="XMLID_705_"><g id="XMLID_494_"><g id="XMLID_495_"><g id="XMLID_496_"><g id="XMLID_499_"><ellipse id="XMLID_500_" transform="rotate(-17.196 100.584 218.23)" class="st16" cx="100.6" cy="218.2" rx="21.9" ry="10.9"/></g><g id="XMLID_497_"><ellipse id="XMLID_498_" transform="rotate(-17.196 241.886 174.5)" class="st16" cx="241.9" cy="174.5" rx="21.9" ry="10.9"/></g></g></g></g></g><path id="XMLID_217_" class="st17" d="M118.7 177.8c.4 1.4.6 2.8.5 4.1-3-3.9-8.2-5.7-13.1-4.2s-8.2 6-8.4 10.9c-.8-1.1-1.5-2.3-1.9-3.7-2-6.3 1.6-13.1 7.9-15 6.3-1.9 13.1 1.6 15 7.9z"/><path id="XMLID_78_" class="st17" d="M227.6 144.1c.4 1.4.6 2.8.5 4.1-3-3.9-8.2-5.7-13.1-4.2-5 1.5-8.2 6-8.4 10.9-.8-1.1-1.5-2.3-1.9-3.7-2-6.3 1.6-13.1 7.9-15 6.3-1.9 13 1.6 15 7.9z"/></g><path id="XMLID_214_" class="st18" d="M154.4 242.7s1 .1 2.9.4c1.8.2 4.4.5 7.3.6 3 .2 6.4.2 10 0 .9-.1 1.8-.2 2.7-.2.9-.1 1.8-.2 2.7-.4 1.8-.3 3.7-.7 5.4-1.2 1.8-.5 3.5-1.1 5.2-1.8.8-.4 1.7-.7 2.5-1.1s1.6-.8 2.4-1.3c.8-.4 1.5-.9 2.2-1.3.4-.2.7-.5 1.1-.7.3-.2.7-.5 1-.7 1.4-.9 2.6-2 3.8-2.9 1.1-1 2.2-1.8 3.1-2.7.9-.9 1.8-1.5 2.4-2.2 1.3-1.3 2.1-2 2.1-2s-.3 1-.9 2.8c-.3.9-.8 1.9-1.3 3.1s-1.3 2.4-2.2 3.8c-.9 1.3-2 2.8-3.3 4.1-.6.7-1.3 1.4-2.1 2.1-.7.7-1.5 1.4-2.3 2-.4.3-.8.6-1.3 1-.4.3-.9.6-1.4.9s-.9.6-1.4.9-1 .5-1.5.8c-2 1-4.1 1.8-6.2 2.4-2.2.5-4.4 1-6.5 1.2-2.2.2-4.3.2-6.4.1-2.1-.1-4-.5-5.8-.8-1.8-.4-3.5-.9-5-1.5-3-1.1-5.4-2.4-7-3.4-1.4-1.2-2.2-2-2.2-2z"/></g></g></g></g><path id="XMLID_213_" class="st15" d="M36.7 205.9s9.2 166.2 76.1 178.7c0 0-22.8 10.7-51.8-17.1 0 0 8.5 26.8 34.9 26.9 0 0-70 23.2-90.6-126.5-12.6-91.5-1.5-155.3 21.3-195.3 14.5-25.4 33.8-41.2 54.8-48.3L65.6 88.2 36.7 205.9z"/><path id="XMLID_212_" class="st15" d="M321.6 321.7c47-51.6-39.7-182.8-39.7-182.8l-6.7-5.7-86.3-88.1-45.1-38.4c.3-.1.7-.2 1-.3 18.6-5 39.7-3.8 62.1 5 43.9 17.3 92.8 64.3 137.3 153.2 67.7 135.3-22.6 157.1-22.6 157.1z"/></g><g id="XMLID_4_"><path id="XMLID_178_" d="M335 150.9S267.9 339 396.4 368.8s204.2-19.5 186.4-171.6L335 150.9z" fill="#273b5e"/><g id="XMLID_31_"><g id="XMLID_105_"><g id="XMLID_107_"><g id="XMLID_151_"><g id="XMLID_277_"><circle id="XMLID_167_" class="st13" cx="453.4" cy="234.1" r="139.5"/><path id="XMLID_166_" class="st11" d="M532.2 349.2c-31.1 21.3-70.7 30-110.3 20.8-75.1-17.4-121.8-92.3-104.4-167.4 9.2-39.6 34.4-71.3 67.2-89.9-27.9 19-48.9 48.2-57.1 83.6-17.4 75.1 29.4 150 104.4 167.4 35.4 8.2 70.8 2.1 100.2-14.5z"/></g><g id="XMLID_270_"><path id="XMLID_165_" class="st11" d="M454.9 295.9c-.9 3.9-7.2 1.5-15.2-.4s-14.7-2.5-13.8-6.4 9.1-9.6 17.1-7.7c8 1.9 12.8 10.6 11.9 14.5z"/><path id="XMLID_164_" class="st12" d="M425.1 287.6s.4-.5 1.1-1.4c.7-.9 1.9-2.1 3.4-3.3 1.5-1.2 3.5-2.5 5.9-3.5 1.2-.5 2.5-.8 3.9-1s2.8-.1 4.3.1c1.4.3 2.8.8 4 1.5.6.3 1.2.8 1.7 1.2.5.5 1 .9 1.4 1.4s.9 1 1.2 1.5.7 1 1 1.5c.6 1 1.1 2 1.4 2.9.4.9.7 1.8.9 2.5.3.8.4 1.4.5 2 .2 1.1.3 1.8.3 1.8s-.3-.6-.9-1.5c-.3-.5-.6-1.1-1-1.7-.4-.7-.9-1.4-1.4-2.2-.5-.8-1.1-1.6-1.8-2.4s-1.4-1.6-2.2-2.3c-.4-.4-.9-.7-1.3-1-.5-.3-.9-.6-1.4-.9-1-.5-2-.9-3.1-1.1s-2.2-.3-3.4-.2c-1.1.1-2.3.3-3.3.6-1.1.3-2.1.7-3.1 1.1s-1.9.8-2.7 1.3c-1.7.9-3 1.7-4 2.3-.8.5-1.4.8-1.4.8z"/></g><g id="XMLID_152_"><g id="XMLID_191_"><g id="XMLID_474_"><g id="XMLID_478_"><path id="XMLID_479_" class="st20" d="M416.3 230.6s-18.4-26.5-45.6-10.6c0 .1 23.6-7 45.6 10.6z"/></g><g id="XMLID_476_"><path id="XMLID_477_" class="st20" d="M489.2 247.5s28.2-15.7 45.6 10.6c.1 0-18-16.8-45.6-10.6z"/></g></g></g><g id="XMLID_159_"><g id="XMLID_168_"><g id="XMLID_469_"><g id="XMLID_472_"><ellipse id="XMLID_473_" transform="rotate(-76.967 365.273 265.268)" class="st16" cx="365.3" cy="265.3" rx="10.5" ry="23.6"/></g><g id="XMLID_470_"><ellipse id="XMLID_471_" transform="rotate(-76.967 519.893 300.973)" class="st16" cx="519.9" cy="301" rx="10.5" ry="23.6"/></g></g></g></g><path id="XMLID_41_" class="st21" d="M403.6 238.6c-.3 1.5-.9 2.9-1.7 4.1-.6-5.2-4.5-9.7-9.9-11s-10.9 1.1-13.7 5.5c-.2-1.4-.1-2.9.2-4.4 1.6-6.9 8.5-11.3 15.5-9.7 6.9 1.7 11.3 8.6 9.6 15.5z"/><path id="XMLID_46_" class="st21" d="M522.8 266.2c-.3 1.5-.9 2.9-1.7 4.1-.6-5.2-4.5-9.7-9.9-11s-10.9 1.1-13.7 5.5c-.2-1.4-.1-2.9.2-4.4 1.6-6.9 8.5-11.3 15.5-9.7 6.9 1.7 11.2 8.6 9.6 15.5z"/></g></g></g></g><path id="XMLID_28_" class="st18" d="M411.3 311.1c-3.1 13.2 5.1 26.3 18.3 29.3 13.1 3 26.2-5.1 29.3-18.3l-47.6-11z"/></g><path id="XMLID_154_" class="st20" d="M505.7 153.7s-28 67.8-116.6 56.8c0 0 43.1-6.8 47.9-19.9 0 0-87.1 3.4-97.4 39.2 0 0-5.8-12.1-.9-19.4 0 0-46.8 53 3.3 114.3 0 0-34.4-35.3-38.3-70.8-4.1-37.4 21.6-138 111.5-156.1 90-18.1 138 37.3 138 37.3s-38.6-8.3-47.5 18.6z"/><path id="XMLID_153_" class="st20" d="M553.2 135s-56-14.8-58.4 36.3c0 0 18.1 36.9-30.3 53.7 0 0 100.6 15.9 93.9-6.3 0 0 34.3 106.8-27.8 137.5 0 0 75.7-14.4 67.4-111.3-6.6-37.1-9.5-90.1-44.8-109.9z"/></g><g id="XMLID_5_"><g id="XMLID_7_"><g id="XMLID_282_"><g id="XMLID_297_"><ellipse id="XMLID_130_" transform="rotate(-13.59 349.427 497.103)" class="st10" cx="349.5" cy="497.1" rx="30.3" ry="39"/><ellipse id="XMLID_129_" transform="rotate(-13.59 356.14 502.498)" class="st11" cx="356.2" cy="502.5" rx="25" ry="32.3"/><g id="XMLID_298_"><path id="XMLID_128_" class="st12" d="M356 471.5s-.8.8-2.2 2.3-3.2 3.7-5.3 6.4c-1 1.4-2 2.9-3 4.6-1 1.7-1.9 3.5-2.8 5.4-.9 1.9-1.4 4-1.9 6.1-.4 2.1-.5 4.3-.3 6.4.2 2.1.8 4.2 1.6 6.2.2.5.5.9.7 1.4.3.5.5 1 .7 1.4.6.9 1.1 1.8 1.8 2.6 1.3 1.6 2.7 3.1 4.1 4.4 1.5 1.3 2.8 2.5 4.2 3.5 1.3 1.1 2.6 1.9 3.8 2.7 1.1.8 2.2 1.5 3.1 2 1.7 1.1 2.7 1.7 2.7 1.7s-1.1-.4-3-1.2c-.5-.2-1-.4-1.6-.6-.6-.2-1.1-.6-1.8-.9-.6-.3-1.3-.7-2-1-.7-.4-1.4-.8-2.2-1.3-.7-.5-1.6-.9-2.3-1.5l-2.4-1.8c-.8-.6-1.6-1.4-2.4-2.1-.8-.7-1.5-1.6-2.3-2.4-.8-.8-1.4-1.8-2.1-2.7-.6-1-1.2-2-1.8-3.1-1-2.2-1.7-4.6-2-7.1-.2-2.5-.1-5 .4-7.3s1.3-4.6 2.3-6.6 2.1-3.9 3.3-5.5c1.2-1.7 2.4-3.1 3.6-4.4 2.4-2.6 4.6-4.5 6.2-5.8 1.9-1.2 2.9-1.8 2.9-1.8z"/><path id="XMLID_127_" class="st12" d="M363.2 478.9s-.5-.3-1.5-.6c-.9-.4-2.3-.9-3.8-1.4-.8-.2-1.7-.5-2.6-.7-.9-.2-1.9-.3-2.9-.5-.5-.1-1 0-1.5-.1-.5 0-1-.1-1.5 0-.5 0-1 .1-1.5.1l-1.5.3c-1 .1-1.9.6-2.9.9-.9.4-1.8 1-2.7 1.4-.8.6-1.5 1.2-2.3 1.8-.7.6-1.3 1.3-1.9 1.8-.6.6-1.2 1.1-1.6 1.7-.4.5-.8 1-1.2 1.4-.7.8-1.1 1.2-1.1 1.2l.6-1.5c.2-.5.4-1 .7-1.7.2-.3.3-.7.5-1s.4-.7.7-1.1c.5-.7 1-1.6 1.7-2.3s1.5-1.6 2.3-2.3c1-.6 1.9-1.4 3-1.9s2.2-1.1 3.5-1.2c.6-.1 1.2-.3 1.8-.3s1.2 0 1.8-.1 1.2 0 1.8.1 1.2.1 1.7.3c1.1.3 2.2.5 3.1 1 1 .3 1.8.8 2.6 1.2 1.5.9 2.7 1.8 3.5 2.5.9.5 1.2 1 1.2 1z"/></g></g><g id="XMLID_283_"><ellipse id="XMLID_126_" transform="rotate(-76.414 641.849 497.138)" class="st10" cx="641.8" cy="497.1" rx="39" ry="30.3"/><ellipse id="XMLID_125_" transform="rotate(-76.414 635.174 502.43)" class="st11" cx="635.2" cy="502.4" rx="32.3" ry="25"/><g id="XMLID_284_"><path id="XMLID_124_" class="st12" d="M635.4 471.5s1 .6 2.6 1.9c1.6 1.3 3.8 3.2 6.2 5.8 1.2 1.3 2.4 2.8 3.6 4.4 1.2 1.6 2.3 3.5 3.3 5.5s1.8 4.2 2.3 6.6c.5 2.4.6 4.8.4 7.3-.3 2.5-1 4.9-2 7.1-.5 1.1-1.1 2.1-1.7 3.1-.7.9-1.3 1.9-2.1 2.7s-1.5 1.7-2.3 2.4l-2.4 2.1-2.4 1.8c-.8.6-1.6 1-2.3 1.5-.8.4-1.5.9-2.2 1.3-.7.4-1.4.7-2 1l-1.8.9c-.6.2-1.1.4-1.6.6-1.9.8-3 1.2-3 1.2s1-.6 2.7-1.7c.9-.5 1.9-1.2 3.1-2 1.2-.8 2.5-1.7 3.8-2.7 1.4-1 2.8-2.2 4.2-3.5 1.4-1.4 2.8-2.8 4.1-4.4.7-.8 1.2-1.7 1.8-2.6.3-.4.5-.9.7-1.4s.5-.9.7-1.4c.8-2 1.4-4 1.6-6.2.2-2.1.1-4.3-.3-6.4-.5-2.1-1-4.2-1.9-6.1-.8-1.9-1.7-3.7-2.8-5.4-1-1.7-2-3.2-3-4.6-2-2.7-3.9-4.9-5.3-6.4-1.2-1.6-2-2.4-2-2.4z"/><path id="XMLID_123_" class="st12" d="M628.1 478.9s.4-.5 1.1-1.1c.8-.7 1.9-1.6 3.5-2.5.8-.4 1.6-.9 2.6-1.2.9-.4 2-.7 3.1-1 .6-.1 1.1-.2 1.7-.3.6-.1 1.2-.2 1.8-.1.6 0 1.2 0 1.8.1l1.8.3c1.2.2 2.4.8 3.5 1.2 1.1.5 2 1.3 3 1.9.9.8 1.6 1.6 2.3 2.3.7.8 1.2 1.6 1.7 2.3.2.4.5.7.7 1.1.2.3.3.7.5 1 .3.6.5 1.2.7 1.7.4.9.6 1.5.6 1.5s-.4-.4-1.1-1.2c-.3-.4-.7-.8-1.2-1.4-.4-.6-1-1.1-1.6-1.7-.6-.6-1.2-1.2-1.9-1.8-.8-.6-1.5-1.1-2.3-1.8-.9-.5-1.7-1-2.7-1.4-1-.3-1.9-.8-2.9-.9-.5-.1-1-.3-1.5-.3s-1-.1-1.5-.1c-.5-.1-1 0-1.5 0s-1 0-1.5.1c-1 .2-2 .2-2.9.5-.9.2-1.8.4-2.6.7-1.6.5-2.9 1-3.8 1.4-.9.4-1.4.7-1.4.7z"/></g></g></g><circle id="XMLID_122_" cx="496.1" cy="481.2" r="141.8" fill="#f8cfa5"/><path id="XMLID_121_" class="st11" d="M600.6 577.1c-25.9 28.2-63.1 45.9-104.4 45.9-78.3 0-141.8-63.5-141.8-141.8 0-41.3 17.7-78.5 45.9-104.4-23.2 25.2-37.4 58.9-37.4 95.9 0 78.3 63.5 141.8 141.8 141.8 37 0 70.7-14.1 95.9-37.4z"/><g id="XMLID_267_"><path id="XMLID_120_" class="st11" d="M511.9 542.1c0 4.1-6.8 3.1-15.1 3.1-8.4 0-15.1.9-15.1-3.1 0-4.1 6.8-11.6 15.1-11.6s15.1 7.5 15.1 11.6z"/><path id="XMLID_119_" class="st12" d="M480.5 540.7s.2-.6.8-1.7c.5-1 1.4-2.5 2.7-4 1.2-1.6 2.9-3.3 5.1-4.8 1.1-.7 2.3-1.4 3.6-1.9s2.8-.8 4.2-.9c1.5 0 2.9.2 4.3.6.7.2 1.3.5 2 .8.6.3 1.2.7 1.7 1 .5.4 1.1.7 1.5 1.2.5.4.9.8 1.3 1.2.8.9 1.5 1.7 2.1 2.5s1.1 1.6 1.5 2.3.7 1.3 1 1.9c.5 1.1.7 1.7.7 1.7s-.5-.5-1.2-1.3c-.4-.4-.8-.9-1.4-1.5-.5-.6-1.2-1.2-1.9-1.8-.7-.7-1.5-1.3-2.3-2-.9-.6-1.8-1.3-2.8-1.8-.5-.3-1-.5-1.5-.7s-1.1-.4-1.6-.5c-1.1-.3-2.2-.4-3.4-.4-1.1.1-2.3.3-3.4.6-1.1.4-2.2.8-3.2 1.4-1 .6-2 1.1-2.8 1.8-.9.6-1.7 1.3-2.4 1.9-1.4 1.2-2.6 2.4-3.4 3.2-.8.7-1.2 1.2-1.2 1.2z"/></g><g id="XMLID_155_"><g id="XMLID_211_"><path id="XMLID_135_" class="st17" d="M451.6 504.5c0 1.3-.2 2.7-.5 3.9-1.7-6.5-7.6-11.2-14.6-11.2s-12.9 4.8-14.6 11.2c-.3-1.3-.5-2.6-.5-3.9 0-8.4 6.8-15.1 15.1-15.1s15.1 6.7 15.1 15.1z"/><path id="XMLID_131_" class="st17" d="M572.1 504.5c0 1.3-.2 2.7-.5 3.9-1.7-6.5-7.6-11.2-14.6-11.2s-12.9 4.8-14.6 11.2c-.3-1.3-.5-2.6-.5-3.9 0-8.4 6.8-15.1 15.1-15.1s15.1 6.7 15.1 15.1z"/></g><g id="XMLID_181_"><path id="XMLID_116_" class="st23" d="M458.7 486.3s-22.2-34.1-47.6 0c0 0 21.7-12.5 47.6 0z"/><path id="XMLID_115_" class="st23" d="M534.8 486.3s23.8-36.3 47.6 0c0 0-21.8-12.5-47.6 0z"/></g><g id="XMLID_157_"><g id="XMLID_169_"><ellipse id="XMLID_114_" class="st16" cx="416.1" cy="533.2" rx="23.9" ry="11.7"/><ellipse id="XMLID_113_" class="st16" cx="577.4" cy="533.2" rx="23.9" ry="11.7"/></g></g></g><path id="XMLID_110_" class="st18" d="M464.2 564.3s31.9 53.9 65 0h-65z"/><path id="XMLID_109_" class="st23" d="M626 422.2c-.9-1.6-1.7-3.3-2.5-4.9-7.2-15.4-16.9-29.6-28.5-41.8-25.5-27-60.4-44.4-98.9-44.4-38.2 0-72.9 17.1-98.4 43.8-26.8 27.9-43.4 66.3-43.4 106.4v3.6c85 10.8 149.6-30.1 179.9-54.7-21.7 19.1-56.6 47.2-75.6 49 0 0 75.6-7.4 120.9-47.8 0 0 9.4 42.4 51.1 49.1 0 0-4.2-7.7 7.3-4.3.1-.3 1.4-28.9-11.9-54z"/><path id="XMLID_1_" class="st23" d="M534.8 458.5s-12.8 14.6-18.1 14.2c0 0 36.7 5.2 73.4-18.6l-12.7-48.5-42.6 52.9z"/></g></g><g id="XMLID_8_"><g id="XMLID_9_"><g id="XMLID_197_"><g id="XMLID_198_"><g id="XMLID_338_"><g id="XMLID_353_"><ellipse id="XMLID_69_" transform="rotate(-31.193 130.567 492.99)" class="st10" cx="130.6" cy="493" rx="27.8" ry="35.8"/><ellipse id="XMLID_63_" transform="rotate(-31.193 137.866 495.803)" class="st11" cx="137.9" cy="495.8" rx="22.9" ry="29.6"/><g id="XMLID_354_"><path id="XMLID_62_" class="st12" d="M129.1 468.8s-.5.9-1.3 2.6c-.8 1.7-1.8 4.1-2.8 7.1-.5 1.5-1 3.1-1.4 4.8s-.7 3.6-.9 5.5c-.2 1.9-.1 3.9.1 5.8.2 2 .8 3.9 1.5 5.7.8 1.8 1.9 3.5 3.1 4.9.3.4.7.7 1 1l1 1c.8.6 1.5 1.3 2.3 1.8 1.6 1.1 3.2 2 4.8 2.8 1.6.7 3.2 1.4 4.6 1.9 1.5.6 2.8 1 4.1 1.3 1.2.4 2.3.7 3.2.9 1.8.5 2.8.7 2.8.7s-1.1 0-2.9-.2c-.5 0-1-.1-1.5-.1l-1.8-.3c-1.3-.2-2.8-.4-4.3-.8-1.6-.3-3.3-.9-5-1.5-.9-.3-1.7-.8-2.7-1.1-.9-.4-1.8-1-2.7-1.5-.9-.5-1.7-1.2-2.6-1.8-.8-.7-1.6-1.4-2.4-2.2-1.5-1.7-2.8-3.6-3.7-5.6-.8-2.1-1.4-4.3-1.6-6.5s-.1-4.4.2-6.4c.3-2 .8-4 1.4-5.7.6-1.8 1.2-3.4 1.9-4.9 1.4-2.9 2.8-5.2 3.9-6.7 1-1.7 1.7-2.5 1.7-2.5z"/><path id="XMLID_61_" class="st12" d="M137.6 473.2s-.5-.1-1.4-.1c-.9-.1-2.2-.1-3.7-.1-.8 0-1.6 0-2.4.1-.9 0-1.7.3-2.6.4-.5.1-.9.2-1.3.4-.4.1-.9.2-1.3.4s-.9.4-1.3.5c-.4.2-.8.5-1.2.7-.9.4-1.5 1.1-2.3 1.6-.7.6-1.3 1.3-1.9 2-.5.7-1 1.5-1.5 2.2s-.8 1.5-1.2 2.1c-.4.7-.7 1.3-.9 1.9-.2.6-.5 1.1-.7 1.5-.4.8-.6 1.3-.6 1.3s0-.5.1-1.5c0-.5.1-1 .1-1.7 0-.3.1-.7.1-1 .1-.4.2-.7.3-1.1.2-.8.4-1.7.8-2.5s.8-1.8 1.4-2.7c.7-.8 1.3-1.8 2.1-2.5.9-.7 1.7-1.6 2.7-2.1.5-.3 1-.6 1.5-.8s1.1-.4 1.6-.6c.5-.2 1.1-.3 1.6-.4.5-.1 1.1-.2 1.6-.3 1-.1 2-.1 3 0 .9 0 1.8.2 2.6.4 1.6.4 2.9.8 3.7 1.2.6.4 1.1.7 1.1.7z"/></g></g><g id="XMLID_339_"><ellipse id="XMLID_57_" transform="matrix(.9975 -.07016 .07016 .9975 -27.95 28.097)" class="st10" cx="386" cy="411.9" rx="27.8" ry="35.8"/><ellipse id="XMLID_56_" transform="matrix(.9975 -.07017 .07017 .9975 -28.423 27.812)" class="st11" cx="381.7" cy="418.5" rx="22.9" ry="29.6"/><g id="XMLID_340_"><path id="XMLID_55_" class="st12" d="M373.2 391.3s1 .3 2.8.9 4.2 1.7 7 3.3c1.4.8 2.9 1.7 4.4 2.9 1.5 1.1 3 2.4 4.4 3.9s2.8 3.2 3.9 5.1c1.1 1.9 1.9 4.1 2.4 6.3.4 2.2.5 4.5.2 6.7-.2 1.1-.4 2.2-.7 3.2-.4 1-.6 2.1-1.1 3s-.8 1.9-1.3 2.7c-.5.8-1 1.7-1.5 2.5-1.1 1.5-2.1 2.9-3.2 4.1-1 1.2-2.1 2.3-3.1 3.2-.5.4-.9.9-1.3 1.3s-.8.7-1.2 1c-1.4 1.2-2.3 1.8-2.3 1.8s.7-.8 1.9-2.2c.6-.7 1.3-1.6 2.1-2.6s1.7-2.1 2.6-3.4c.9-1.3 1.8-2.7 2.7-4.2.8-1.6 1.6-3.2 2.3-5 .4-.9.5-1.8.8-2.7.1-.5.2-.9.3-1.4s.2-1 .2-1.4c.2-1.9.1-3.9-.3-5.8s-1.1-3.8-2-5.5c-1-1.7-2-3.3-3.3-4.8-1.3-1.4-2.5-2.8-3.9-3.9-1.3-1.2-2.7-2.2-3.9-3.2-2.5-1.8-4.8-3.2-6.4-4.2-1.5-1.1-2.5-1.6-2.5-1.6z"/><path id="XMLID_49_" class="st12" d="M368.9 399.8s.2-.5.7-1.3 1.2-1.9 2.3-3.1c.6-.6 1.2-1.2 1.9-1.8.7-.6 1.6-1.2 2.5-1.7.4-.3.9-.5 1.4-.7s1-.5 1.5-.6 1.1-.3 1.6-.5c.6-.1 1.1-.1 1.7-.2 1.1-.2 2.3 0 3.4.1 1.1.2 2.1.6 3.2.9 1 .4 1.8.9 2.7 1.4.8.5 1.5 1.1 2.1 1.6.3.3.6.5.9.7.3.3.5.5.7.8.4.5.8.9 1.1 1.3.6.7.9 1.2.9 1.2s-.5-.3-1.3-.7c-.4-.2-.9-.5-1.4-.9s-1.1-.7-1.8-1-1.4-.7-2.2-1.1c-.8-.3-1.6-.6-2.5-.9-.9-.2-1.8-.4-2.7-.5-.9 0-1.9-.2-2.8 0-.5.1-.9.1-1.4.1-.5.1-.9.2-1.4.3-.5.1-.9.3-1.3.4-.4.2-.9.3-1.3.5-.8.4-1.6.7-2.4 1.2-.8.4-1.4.9-2.1 1.3-1.2.9-2.3 1.7-3 2.2-.6.7-1 1-1 1z"/></g></g></g><circle id="XMLID_43_" class="st10" cx="254.3" cy="438.4" r="130"/><path id="XMLID_37_" class="st11" d="M372.1 493.3c-14.8 31.8-42.4 57.6-78.5 69.1-68.4 21.7-141.5-16.1-163.2-84.6-11.5-36.1-6.3-73.5 11.1-104-13.3 28.5-16.3 61.8-6.1 94.2 21.7 68.4 94.8 106.3 163.2 84.6 32.4-10.4 57.9-32.1 73.5-59.3z"/><g id="XMLID_325_"><path id="XMLID_36_" class="st11" d="M284.9 487.2c1.1 3.6-5.1 4.6-12.4 6.9-7.3 2.3-13 5-14.1 1.5-1.1-3.6 2.7-12 10-14.3 7.4-2.3 15.4 2.4 16.5 5.9z"/><path id="XMLID_35_" class="st12" d="M257.1 494.8s0-.6.2-1.7.5-2.5 1.2-4.3c.6-1.7 1.6-3.7 3.1-5.6.7-.9 1.6-1.9 2.6-2.7s2.2-1.4 3.5-1.9c1.3-.4 2.6-.7 4-.7.7 0 1.3.1 1.9.1.6.1 1.2.2 1.8.4s1.2.3 1.7.6c.5.2 1 .5 1.5.7.9.5 1.8 1.1 2.5 1.6.8.5 1.4 1.1 1.9 1.6.6.5 1 1 1.4 1.4.7.8 1.1 1.3 1.1 1.3s-.5-.3-1.5-.8c-.4-.3-1-.6-1.6-.9-.6-.3-1.3-.7-2.1-1.1-.8-.4-1.7-.7-2.6-1.1-.9-.3-1.9-.6-2.9-.8-.5-.1-1-.1-1.5-.2-.5 0-1-.1-1.5 0-1 0-2 .3-3 .6-1 .4-1.9.8-2.8 1.5-.8.6-1.7 1.3-2.4 2.1s-1.4 1.5-2 2.3-1.1 1.6-1.6 2.3c-.9 1.5-1.6 2.8-2.1 3.7l-.8 1.6z"/></g><g id="XMLID_255_"><g id="XMLID_300_"><path id="XMLID_171_" class="st21" d="M221.8 471.1c.4 1.2.6 2.4.6 3.5-3.3-5.2-9.8-7.7-15.9-5.8-6.1 1.9-10 7.8-9.7 13.9-.6-1-1.1-2.1-1.5-3.3-2.3-7.3 1.7-15.1 9-17.4 7.4-2.2 15.2 1.8 17.5 9.1z"/><path id="XMLID_156_" class="st21" d="M327.1 437.7c.4 1.2.6 2.4.6 3.5-3.3-5.2-9.8-7.7-15.9-5.8-6.1 1.9-10 7.8-9.6 13.9-.6-1-1.1-2.1-1.5-3.3-2.3-7.3 1.7-15.1 9-17.4 7.3-2.3 15.1 1.8 17.4 9.1z"/></g><g id="XMLID_271_"><path id="XMLID_23_" class="st24" d="M222.9 453.2s-28.9-23.6-41.6 13.2c.1 0 15.6-16.9 41.6-13.2z"/><path id="XMLID_22_" class="st24" d="M289.4 432.1s10.7-38.3 41.6-13.2c0 0-22.4-4.8-41.6 13.2z"/></g><g id="XMLID_256_"><g id="XMLID_257_"><ellipse id="XMLID_19_" transform="rotate(-17.609 199.37 508.206)" class="st16" cx="199.4" cy="508.2" rx="21.9" ry="12.9"/><ellipse id="XMLID_18_" transform="rotate(-17.609 340.244 463.408)" class="st16" cx="340.2" cy="463.4" rx="21.9" ry="12.9"/></g></g></g><path id="XMLID_6_" class="st18" d="M250.4 522.9s1 .1 2.9.3c1.8.2 4.4.4 7.4.6 3 .2 6.4.2 10-.1l2.7-.3c.9-.1 1.8-.2 2.7-.4 1.8-.3 3.6-.7 5.4-1.2 1.8-.5 3.5-1.1 5.2-1.9.8-.4 1.7-.7 2.5-1.2.8-.4 1.6-.8 2.4-1.3.8-.4 1.5-.9 2.2-1.4.4-.2.7-.5 1.1-.7.3-.3.7-.5 1-.7 1.4-.9 2.6-2 3.8-2.9 1.1-1 2.2-1.8 3.1-2.7.9-.9 1.8-1.6 2.4-2.2 1.3-1.3 2.1-2 2.1-2s-.3 1-.9 2.8c-.3.9-.8 1.9-1.3 3.1-.5 1.2-1.3 2.4-2.2 3.8-.9 1.3-1.9 2.8-3.2 4.2-.6.7-1.3 1.4-2 2.1-.7.7-1.5 1.4-2.3 2-.4.3-.8.6-1.3 1-.4.3-.9.6-1.3.9-.5.3-.9.6-1.4.9-.5.3-1 .5-1.5.8-2 1-4.1 1.8-6.2 2.5-2.2.6-4.4 1.1-6.5 1.2-2.2.2-4.3.2-6.4.1-2.1-.1-4-.4-5.8-.8-1.8-.4-3.5-.9-5-1.4-3-1.1-5.4-2.3-7-3.3-1.8-1-2.6-1.8-2.6-1.8z"/></g></g><g id="XMLID_10_"><g id="XMLID_430_"><g id="XMLID_431_"><path id="XMLID_432_" class="st24" d="M391.9 382.8c1.3 7.2-2 14.6-8.3 18.5-2.6 1.6-5.4 2.5-8.1 2.7-8.2.7-16.2-4.4-18.8-12.6-.4-1.1-.6-2.3-.7-3.4-5.3.3-10.5-1.8-14.1-5.6-6.9 1.2-13.7-1.6-17.7-7-1.9 1.7-4.1 3-6.6 3.8-4.3 1.4-8.8 1-12.6-.6-1.7 1.3-3.5 2.3-5.7 3-4.3 1.4-1.4-5.2-5.2-6.9-2.2 2.8-5.9 7.9-9.5 9.1-3 .9-7.4 1.1-10.3.5-1.5-.3-6.6-7.5-7.9-8.2-1.8 5.4-12.9 2.5-18.7 4.4-5.7 1.8-15.1-7.3-19.6-10.5-2 4.6-2.1 26.8-7.2 28.5-4.6 1.5-17 11.5-21.1 9.5-1.4 5 7.5 5.3 2.5 7.7-14.7 7.2-18.3 1.8-21.5-1.7-1.5 5.9-.6 11.9-6.8 13.9-3.2 1-11.1 3.3-14.1 2.5.3 8-.1 13.3-8 15.8-.1 0-.2.1-.3.1.8 5.9-1.4 11.8-5.6 15.7.5.9.9 1.8 1.2 2.8 3.1 9.7-2.5 20.1-12.4 22.9-9.1 2.6-18.9-2.6-22-11.5-1.1-3-1.3-6.2-.7-9.1-6.6-1-12.4-5.6-14.5-12.4-2-6.3-.3-13 3.8-17.6 0-2.8.7-5.6 2-8-4.1-2.1-7.4-5.8-8.9-10.6-2.3-7.4.3-15.1 6-19.6-3.1-3.5-4.9-8.3-4.4-14.1.7-7.1 5.8-13 12.6-15.1h.1c-.3-.7-.6-1.3-.8-2-.7-2.3-1-4.7-.8-7 .5-5.5 3.5-10.6 8.2-13.7-1-3.5-.9-7 .1-10.2 1.5-5 5.2-9.2 10.2-11.4-1.2-8.6 3.9-17.1 12.5-19.8.6-.2 1.3-.4 1.9-.5 1-6.5 5.7-12.3 12.4-14.4 1.3-.4 2.7-.7 4.1-.8 1.3-6.2 5.8-11.6 12.3-13.6 2.9-.9 6-1.1 8.8-.5 1.4-6 5.8-11.1 12.1-13.1 3.1-1 6.4-1.1 9.4-.4 2.1-2.3 4.7-4.1 7.9-5.1 3.4-1.1 6.9-1.1 10.2-.2 1.7-2 3.9-3.8 6.5-4.9 6.7-3 14.3-1.6 19.4 3 1.6-1.7 3.6-3.1 5.8-4.1 8-3.6 17.2-.9 22.2 6 1-.7 2-1.3 3.2-1.8 9.1-4.1 19.9 0 23.9 9.1.4.9.7 1.9 1 2.9 5-2.2 10.4-1.9 14.9.2 3.8 1.8 7 4.9 8.8 9 .2.3.3.7.4 1 4.7 1.1 9 4.1 11.5 8.4.7 1.2 1.3 2.4 1.7 3.8.2.6.3 1.1.4 1.7 8.3-.6 16.6 3.9 20.2 12 1 2.2 1.5 4.4 1.7 6.6 6.3 1.2 11.9 5.8 13.9 12.3 1.7 5.2.8 10.6-1.8 14.9 7.1.6 13.4 5.4 15.7 12.6 2.3 7.4-.3 15.1-6 19.6 5.5 2 10 6.9 11.2 13.5z"/></g></g></g></g></g></g><g id="XMLID_16_" class="st1"><path id="XMLID_11_" class="st8" d="M991.7 786.9H408.3l40.5-40.1-40.5-40.1h583.4l-44.5 40.1z"/><g id="XMLID_407_" class="st3"><g id="XMLID_558_"><path id="XMLID_570_" class="st25" d="M694.2 657.4c1.4 0 4.3-.1 5.4-.5 1.3-.5 1.7 0 .5.8-1.8 1.2-4.6 1.7-6.6 1.8-1.2 4-6.5 18.2-3.5 21.5.9 1 2.3 1.1 3.8 0 3.5-2.6 6.3-7.9 8.5-12.3.7-1.5 1.8-1.2 1 .5-3.5 7.5-5.2 9.8-8.3 12.8-2.4 2.3-5.3 3.1-7.7 1.8-6.2-3.2.6-19.6 2.2-24.2-3.1 0-16.8-.6-23-.9-5.3 15.8-17.7 32-35.2 34.2-15.5 2-30.7-6.9-26.3-23.9 1.2-4.4 6.1-8.6 8.3-8.6 1.4 0 .8.7.1 1-2.2 1-6.2 5.1-6.9 10.7-1.9 14.8 14.6 18.4 24.1 16.3 19-4.3 27.9-18 32.4-29.8-1.4 0-2.8.5-4.1 1.1-.7.3-2.9 1-1.8-.7.6-1 2.4-2.4 4.2-2.6h2.6c3.4-8.5 8.5-19.1 9.9-22-13.3 1.5-29.3.5-34.2 16.2-2.3 7.4 2 13.6 8.9 11.1 5-1.8 6.9-10.8 6-12.1-.7-1.1.4-1.5.9-.5 2.6 5.6-1.9 12.1-6.8 13.8-8.1 3-15.8-4.5-13.6-13.4 4.3-17.2 26.5-15.4 39.8-16.7.5-.8 3.1-4.8 5.2-5.4 2-.5 3.9 0 3.9 1.9 0 3.2-5.3 5-8 5-2.6 5-7.6 19.2-8.8 22.1 9.1 0 18.3 1.2 23 1.2 1-2.9 9.4-24.9 14.8-26.7 2.6-1 5.7-1.4 3.2-.1-1.1.5-8.4 10.8-13.9 26.6zm-16.9-24.9c5.8-.9 4.4-3.3 3.6-3.3-.7-.3-2.7 2.1-3.6 3.3z"/><path id="XMLID_568_" class="st25" d="M717 681.7c-2.2.1-5.4-1.6-3.4-8.8-1.1 1.8-2.9 4.5-4.9 6.4-7.8 7.5-13-4.4-2.7-16.7 4.1-4.8 11.9-7.3 15.7-3.1 1 1 .4 2.2-.7 2-.7-2.5-3.3-3.1-5.8-1.7-3.1 1.7-6.6 5.7-9 9.7-.5 1-2.4 4.3-2.8 6.9-.7 4.8 3.1 4.2 6.2.4 2.4-2.9 4.3-6.2 6-9.5 1.5-2.9 2.4-4.5 4.6-4.3.9.1 1.9.5 2.9.3-1.4 1.4-5.4 8.6-6.3 12.7-.5 2.8-.2 4.1.7 4.1 2.9.1 7.3-8.5 8.8-11.4.6-1.2 1.6-.8 1 .5-2.1 4-6.3 12.2-10.3 12.5z"/><path id="XMLID_565_" class="st25" d="M740.9 676.4c-3.7 4.5-9.7 6.8-14.5 3.9l-6.4 16.1c-1.4 2.9-2.3 3.7-4.5 3.5-.9-.1-1.9-.5-2.9-.3 1.7-1.6 13.2-23.7 14.5-29.9-.7 1.2-2 1.6-1.6.6.3-.7 1-2.2 1.4-3.1 1.3-3 2-8.1.4-8.5 0 0 2.8-.5 3.3-.5 2-.2 2.6-.5 2.4 2.8-.1 2.2-1 5.8-1.9 8.1 2-3.3 7.5-12.7 12.2-11.4 6.4 1.9 2.6 12.7-2.4 18.7zm-4.9-12.5c-2.6 3.5-5.9 9.4-9.1 15.4 3.3 3.3 10.8-4.2 14.5-10.9 4.5-8.3.4-12.5-5.4-4.5z"/><path id="XMLID_562_" class="st25" d="M763.7 676.4c-3.7 4.5-9.7 6.8-14.5 3.9l-6.4 16.1c-1.4 2.9-2.3 3.7-4.5 3.5-.9-.1-1.9-.5-2.9-.3 1.7-1.6 13.2-23.7 14.5-29.9-.7 1.2-2 1.6-1.6.6.3-.7 1-2.2 1.4-3.1 1.3-3 2-8.1.4-8.5 0 0 2.8-.5 3.3-.5 2-.2 2.6-.5 2.4 2.8-.1 2.2-1 5.8-1.9 8.1 2-3.3 7.5-12.7 12.2-11.4 6.4 1.9 2.6 12.7-2.4 18.7zm-4.8-12.5c-2.6 3.5-5.9 9.4-9.1 15.4 3.3 3.3 10.8-4.2 14.5-10.9 4.4-8.3.3-12.5-5.4-4.5z"/><path id="XMLID_559_" class="st25" d="M783.7 685c-4.3 7.7-11 18.1-21 18.1-6.8 0-7.5-4.5-5.4-8.3 1.3-2.5 3.7-4.3 6.4-5.6 4.5-2.2 11-3.3 16.5-4.9 2.6-4.5 4.8-11.7 5.8-15.3-2.3 4.1-6.7 12.5-11.9 12.5-1.4 0-3.7-.5-4.3-3.1-.6-2.9 1.1-5.4 2.3-7.9-.4 0-1-.2-.6-1.1l1.2-2.4c1.4-2.6 2.8-5.4 3.8-7.5.5-1.1 1.4-1.4 2.6-1.4h4.1c-.6.5-1.7 1-2.5 2.4-2.3 3.9-4.2 7.9-6.1 12-3.3 7.1-.4 9.8 4 4.7 3.8-4.4 8.1-12.4 10.7-17.7.5-1.1 1.4-1.4 2.6-1.4h3.7c-2.6 1.8-3.6 4.5-5.3 9s-3.5 10.2-5.4 15.5c3-.9 7.1-2.9 9.8-6.7 2.1-3.1 3.6-6.2 4.3-7.5.6-1.2 1.6-.7 1 .6-4.8 9.6-6.5 12.4-16.3 16zm-18.9 5.7c-6.9 3-9.5 11-3.7 11 6 0 13.2-8.4 16.3-12.7l1.5-2.5c-4.4 1.1-10.3 2.5-14.1 4.2z"/></g></g><g id="XMLID_26_" class="st3"><g id="XMLID_686_"><path id="XMLID_723_" class="st26" d="M464.3 752.1c0-15.8 7.8-24.2 22.3-24.2 5 0 13.5 1.6 13.5 1.6l.4 1.2s-1.9 5.6-3.3 13l-9.5.5s.7-3.5.7-4.5c0-2.2-1.5-3.4-4-3.4-4.4 0-6.1 4.3-6.1 15.3 0 6.1 1.2 8.4 4.1 8.4 3 0 4.1-1.5 5.2-7l9.4-.6s-1.6 7.1-2.2 12.9l-.9 1s-6.1 2.3-13.7 2.3c-10.2-.1-15.9-6-15.9-16.5z"/><path id="XMLID_720_" class="st26" d="M536.5 759.7c0 1.9.5 2.7 1.9 2.7.9 0 1.6-.2 1.6-.2l.4.7-1.2 5s-3.3-.1-7.2-.1h-3c-2.7 0-9.9.1-9.9.1l1.1-5.3c2.8-.1 4-1.3 4.4-4.6l.8-6.2s-1.8-.1-3.2-.1c-1.2 0-6.5.5-6.5.5l-.7 6.1c-.1.9-.2 1.7-.2 2.2 0 1.5.4 1.9 1.5 1.9s1.6-.2 1.6-.2l.4.6-1.2 5.1s-7.3-.2-9.8-.2c-3.6 0-9.8.3-9.8.3l1.1-5.2c3.2-.7 3.9-1.6 4.4-5l2.6-21c.3-2.5-.1-3.1-1.7-3.1-.6 0-1.5.1-1.5.1l-.4-.8 1-4.5h7.6c3.5 0 12-.3 12-.3l-1.1 5.5c-2.5.5-3.1 1-3.5 3.2l-1.2 7.3 4.7.2c2.7 0 3.8-.1 4.8-.2l.9-7.2c.3-2.4-.1-3.1-1.7-3.1-.7 0-1.6.1-1.6.1l-.4-.8 1-4.5h11.3c3.3-.1 8.9-.3 8.9-.3l-1 5.3c-2.9.5-3.5 1-3.9 3.3-.9 4.8-3.3 20.5-3.3 22.7z"/><path id="XMLID_718_" class="st26" d="M558.2 760.2c0 1.8.4 2.3 1.5 2.3 1.2 0 1.9-.2 1.9-.2l.4.6-1.2 5.1s-7.4-.2-9.9-.2c-3.8 0-9.9.3-9.9.3l1.1-5.2c3.3-.7 4-1.6 4.4-5l2.6-21c.3-2.5-.1-3.1-1.7-3.1-.6 0-1.5.1-1.5.1l-.5-.8 1-4.5h9.6c2.5 0 10.3-.3 10.3-.3l-1.1 5.5c-2.7.4-3.2.9-3.7 3.2-.9 5.6-3.3 20.9-3.3 23.2z"/><path id="XMLID_716_" class="st26" d="M562.6 768.4l1.2-5.6c3-.5 4-1.7 4.4-5.3l2.5-20.5c.3-2.5-.1-3.1-1.7-3.1-.6 0-1.5.1-1.5.1l-.4-.8 1-4.5h9.6c2.8 0 12.5-.3 12.5-.3l-1.4 5.9c-4.1.4-5.3 1-5.6 3.2-1 5.5-3.2 19.1-3.2 21.5 0 1.4.5 1.9 1.8 1.9 4 0 5.3-1.8 6.7-9.9l7.9-.8.6.9s-1.8 7.8-3.4 16.2l-1 1s-8.7-.4-17.3-.4c-6.2-.1-12.7.5-12.7.5z"/><path id="XMLID_713_" class="st26" d="M604.4 767.8c-3.3 0-8.6.5-8.6.5l1.2-5.6c2.8-.5 3.8-1.5 4.4-5l2.5-20.3c.3-2.5.1-3.3-1-3.3-.8 0-1.9.1-1.9.1l-.5-.8 1.2-4.9s6.6.2 9 .2c2.7 0 9.3-.4 9.3-.4 11 0 17.2 5.2 17.2 15.2 0 15.1-9.3 25.1-23.4 25.1-.2-.1-5.7-.8-9.4-.8zm11.7-30.2c-.4 2.1-3.2 20.8-3.2 21.5 0 1.5.4 1.9 1.6 1.9 5.6 0 8.6-5.9 8.6-17.3 0-5.8-1.5-7.8-5.6-7.8-.8 0-1.1.4-1.4 1.7z"/><path id="XMLID_710_" class="st26" d="M653.6 754l-.5 4.1c-.4 3.8-.1 4.2 3.6 4.4l.2.5-1.2 5.1s-7.3-.2-9.8-.2c-4.4 0-10.4.5-10.4.5l1.2-5.6c2.9-.5 4-1.7 4.4-5.2l2.6-21c.2-2-.1-2.7-1.2-2.7-.9 0-2.1.1-2.1.1l-.5-.7 1.2-4.8s6 .1 8.4.1c2.9 0 10.5-.4 10.5-.4 10.1 0 15.8 3.3 15.8 9.9 0 5.3-2.8 9.7-8.5 12.9l2.7 6.3c1.5 3.5 3.3 5.3 5 5.3l.5 1-1.1 4.4-9.4.7c-3.4 0-5-1.5-6.1-5.5l-2.4-9.3h-2.9v.1zm5.5-7c2.8-1.1 4.2-3.4 4.2-6.9 0-2.9-1.9-4.2-5.9-4.2-.8 0-1 .2-1.2 1.3-1 5.6-1.3 7.1-1.6 9.2l4.5.6z"/><path id="XMLID_707_" class="st26" d="M695.5 760.8c4.8 0 6-1 7.4-6.4l7.8-.5.7.9s-1.8 5.9-3.2 12.5l-1 1s-9.6-.4-18.8-.4c-6.2 0-12.7.6-12.7.6l1.2-5.6c3-.5 4-1.7 4.4-5.3l2.6-20.3c.3-2.6.1-3.3-1.2-3.3-.6 0-1.5.1-1.5.1l-.6-.8 1.2-4.8s8.5.2 13.9.2c7.3 0 15-.3 18.3-.7l.7 1s-1.9 6.4-2.8 12.1l-8.5.5s.5-1.9.5-3c0-2.1-1.2-2.6-5.2-2.6-1.6 0-1.9.3-2.1 1.6l-1.2 6.8c1.2 0 3.2.1 4.8.1 1.8 0 6.5-.4 6.5-.4l.6.8-1.7 7s-4.3-.2-7-.2c-1.7 0-3.3.2-4.4.4-.3 2.1-.8 5.3-.8 6.6-.3 1.8.3 2.1 2.1 2.1z"/><path id="XMLID_704_" class="st26" d="M742.4 747.6l1.1-11.1c.2-2.1-.2-2.6-1.6-2.6h-1.8l-.2-.7.9-4.9s6.6.2 9.9.2c3.3 0 8.3-.1 8.3-.2l-1 5.5c-2.5.4-3.5 1.3-3.8 3.8l-4.5 30.1-11.6.7c-4.9-11.3-9.1-19.8-9.1-19.8h-.9l-1.1 10.8c-.2 2.3.2 3.1 1.9 3.1.7 0 1.9-.2 1.9-.2l.5.5-1.3 5.2s-6.7-.2-9.2-.2c-4.2 0-9.3.5-9.3.5l1.3-5.5c2.4-.3 3.5-1.4 3.8-3.8l3.3-21.2c.4-2.8-.2-3.4-3.9-3.8l-.6-.8.9-4.9s4.4.3 8.8.3c3.3 0 7.8-.2 7.8-.2 3.9 9.8 8.5 19.3 8.5 19.3l1-.1z"/><path id="XMLID_701_" class="st26" d="M760.6 730.5c2.1-1.6 4.4-2.7 6.2-2.7 3.1 0 5.2 2.4 5.2 6.1 0 4.3-3.9 9.2-10.1 12.7l-3.5-2.8v-1.5c2.4-1.6 3.9-4.2 3.9-6.4 0-1.6-.7-3.4-1.8-4.6l.1-.8z"/><path id="XMLID_699_" class="st26" d="M771.4 765.9l-.6-1.1s1.9-6 2.5-10l7.7-.5c-.4 3.8 1 6.2 4.3 6.2 2.4 0 3.9-1.1 3.9-2.7 0-2.1-2.8-3.3-6.1-4.8-4.3-2.1-9.2-4.7-9.2-10.8 0-8.5 7.7-14.2 19.5-14.2 6.5 0 11.7 1.7 11.7 1.7l.6 1.3s-1.8 5.1-2.8 10.5l-7.2.5-.7-.5s.2-1.4.2-1.7c0-2.4-1.4-3.5-3.8-3.5-2.2 0-3.8 1.3-3.8 3s1.8 2.8 4.1 3.9c4.5 2.2 11.3 4.5 11.3 11.6 0 8.6-7.5 13.8-19.6 13.8-7-.1-12-2.7-12-2.7z"/><path id="XMLID_692_" class="st26" d="M820 767.8c-3.3 0-8.6.5-8.6.5l1.2-5.6c2.8-.5 3.8-1.5 4.4-5l2.5-20.3c.3-2.5.1-3.3-1-3.3-.8 0-1.9.1-1.9.1l-.5-.8 1.2-4.9s6.6.2 9 .2c2.7 0 9.3-.4 9.3-.4 11 0 17.2 5.2 17.2 15.2 0 15.1-9.3 25.1-23.4 25.1-.1-.1-5.7-.8-9.4-.8zm11.8-30.2c-.4 2.1-3.2 20.8-3.2 21.5 0 1.5.4 1.9 1.6 1.9 5.6 0 8.6-5.9 8.6-17.3 0-5.8-1.5-7.8-5.6-7.8-.9 0-1.2.4-1.4 1.7z"/><path id="XMLID_689_" class="st26" d="M891.2 762.6l.4.6-1.1 4.8s-5.1-.1-8.4-.1c-5.6 0-11.4.3-11.4.3l-.4-.5 1-5.1c3.4-.4 4-.7 4-2.1V757s-3.9-.1-4.4-.1c-1.1 0-4.7.3-4.7.3l-.8 2.7c-.2.8-.4 1.3-.4 1.6 0 .7.4.9 1.4.9h1.6l.4.6-1.1 5s-5.5-.2-9.1-.2c-3.7 0-7.9.1-7.9.1l1-5.3c1.4-.4 2.5-1.5 3.3-3.3l12.8-30.4 16.2-1 .8.7s2.9 23.3 3.8 29.9c.5 2.8 1.3 3.8 3 4.1zm-22.2-13h2.9c.9 0 1.7-.1 3-.1l-.6-10.6H873l-4 10.7z"/><path id="XMLID_687_" class="st26" d="M914.6 744.3h.8l3-6.9c.7-1.2 1.1-2.2 1.1-2.8s-.5-.8-2.1-.8l-.1-.4 1.1-4.8h9.4c3.1 0 6.7-.2 6.7-.2l.2.5-1.1 5.3c-2.6 1.5-5.5 4.2-7.4 7.6l-6.7 11c-1.2 2.1-1.3 3.6-1.6 5.6-.4 2.8.2 3.8 2.5 3.8 1.5 0 3-.2 3-.2l.2.4-1.2 5.7s-8.9-.4-12.4-.4c-3.8 0-12.2.5-12.2.5l1.2-5.6c5.1-.4 6.3-1.2 6.7-4.8l.1-1c.2-1.8 0-3.1-1-5.5l-4.8-12.1c-.8-2.2-2.7-3.9-5.1-5.1l-.2-.4 1.3-5.5s7 .1 9 .1c2.7 0 10.7-.4 10.7-.4l.4.7-1.2 5c-1.7 0-2.5.5-2.5 1.6.2 1.5 1.3 6.2 2.2 9.1z"/></g></g></g></g></g></g></svg>