<svg version="1.1" id="Object" xmlns="http://www.w3.org/2000/svg" xmlns:xlink="http://www.w3.org/1999/xlink" x="0" y="0" viewBox="0 0 2907.8 2638.4" xml:space="preserve"><style>.st2{fill:#f03631}.st3{fill:#f37a37}.st4{fill:#ffeb4b}.st5{fill:#417e53}.st6{fill:#3f6cf7}.st7{fill:#c32cd9}</style><g id="Heart"><defs><path id="SVGID_1_" d="M2929 1507.7a897.73 897.73 0 01-71.7 67.1l-973 825.8-280.4 237.9-13.2-11.1L336.9 1566.9c-25.3-21.4-49.1-43.9-71.3-67.5-298.4-316.1-318-812.8-30.7-1152.6 86-101.7 190.5-178.7 304.4-230 47-21.2 95.5-38 145-50.5C945.6.6 1233.6 57.6 1455 244.8l145.8 123.3 146.5-122.4C2012 24.6 2369.9-11.5 2663.8 123.3c113.5 52.1 217.5 129.6 302.9 231.9 285.4 341.6 262.7 838.2-37.7 1152.5z"/></defs><clipPath id="SVGID_00000089542040291896123020000012829547394827419317_"><use xlink:href="#SVGID_1_" overflow="visible"/></clipPath><g id="Pride_Color" clip-path="url(#SVGID_00000089542040291896123020000012829547394827419317_)"><path class="st2" d="M-10.1 705.3c3.7 1 7.3 2.2 10.8 3.2-6.9 2.2-17.1 2.5-28.8 1.7 28.4 6.2 59.1 9.7 90.5 11 15.7.7 31.6.7 47.6.4 16-.3 31.9-1.2 47.8-2.4 63.4-5 124.6-16.7 172.5-30.9 34.7.6 65.5-7.7 68.7-18.8 3.1-11-22.6-20.5-57.6-21.2-7.7-1.2-16.7-2-22.3-3.7-50.2-16.3-111.4-27.1-179-34.8 13 3 26.6 6.1 39.7 9.1-19.5-2.4-38.8-4.9-60.5-4.7 2.3 2 5.3 4 7.6 6-8.4-1.7-17.2-3.1-26.2-4.2s-18.3-1.8-27.7-2.2c-18.8-.9-38-.6-56.5.8-37.1 2.8-71.5 10-94.5 20.9-46.1 21.9-29.1 50.3 38.1 63.7l29.8 6.1z"/><path class="st2" d="M115.7 766.8c-10-1.7-20-3.4-29.8-5-9.9-1.7-19.7-3.4-29.4-5.1-19.5-3.5-38.8-7-58.1-10.6l-7.7-3.6 2.9 16.9.7-1.1c17.9-7.4 41.7-12.8 67.8-17 13.1-2.1 26.7-3.9 40.5-5.5 13.8-1.5 27.8-2.8 41.4-4l19.5-2.7c9.3-2.3 15.5-5.7 17.4-9.3 4.4-8.2-12.7-15.6-38.3-16.6l-29.4-1.1c-71.8-8.5-184.6-6.7-224 22.6-8.9 6.8-.8 15 1.3 22.7-2.5 11.2 24.6 20.5 60.4 20.6 35.8.1 66.4-8.9 68.7-20.2 6.1.7 12.3 1.3 18.4 2-4.7 1.5-9.5 2.8-14.3 4.3 9.9-10 42.5-12.8 66.7-18.4 12.1-1.2 24.2-2.2 36.3-3.3l-21-25.9-18.9 3.8c1.5 1.1 4.3 2.7 4 2.8C55 720.9 21.2 728.6-18.1 734l-49.5 10.5c-13.4 5.2-11.9 12.6 2.9 16.9l22.1 5.2c-3.3-1.1-6.7-2-10-3.2 50.9 5 104.5 7.5 154.8 12.8 7.9 1.1 17.6-.1 21.7-2.8 3.5-2.6.1-5.6-8.2-6.6zm-179.1 6.8c-8.3-1.8-16.2-3.8-27.9-3.1-2.8 1.2-4.2 1.9-5 2.2 4.4 1.1 10.3 2.7 16.2 4.2 11.6 2.9 17.5.4 16.7-3.3zm-32.9-1c-4-1.1-6.7-1.8-6.7-1.8 1.6.9 3.1 1.6 4.5 2.4l1.3-.2s.1 0 .9-.4zM1221.5 65c78.5 4.2 157.2 8.7 236 12.6 78.8 3.8 157.6 7.9 236.4 11.5 5.3.3 9.8-.8 10.1-2.4.3-1.4-3.8-3-8.6-3.1-78.9-3.9-157.5-7.8-236.1-11.8-78.6-3.9-157.1-8.4-235.6-12.6-5.3-.2-9.7.9-10.4 2.4-.3 1.6 3.3 3.1 8.2 3.4zm1170.4 199.1c-3.8 1.1-3.7 2.8.1 4.1 3.3 1.1 9.2 1.5 12.9.5 3.2-.9 3.1-3-.1-4.1-3.8-1.4-9.7-1.4-12.9-.5z"/><path class="st2" d="M2352.8 389.7c-22 1.4-42.9 3.2-61.7 6.8-3.5.5-7.4.2-10.3-.6 1.2 2.7-3.1 4.9-11.1 5.6-19.6 1.9-39.3 3.5-59.2 5.1-19.9 1.6-39.9 3-60.1 4.3-40.3 2.5-81.1 4.5-122.2 6.1-41.1 1.5-82.4 3.1-123.8 4.5-41.4 1.4-82.9 2.8-124.1 4.2-1.2 2.1-3.4 4.1-7.2 5.9-11.6 6.1-34.6 8.8-58.3 7l-17.9-2.1c-72.3-5.7-144.4-11.4-216.3-17-14.8 2.6-31.9 4.2-50.5 4.3-31.2 3.3-62.5 6.5-94 9.4-15.7 1.5-31.5 2.8-47.3 4.1-15.8 1.4-31.7 2.6-47.7 3.8 4 1.9 6.4 4.1 6.3 6.4-1.4 5.6-16.2 9.5-33.5 8.9-8.7 0-17.4-.1-26.1-.2 24.9 1.9 49.9 3.8 74.7 5.9 3.6.2 6.9.6 9.9 1.2 13.7.4 27.4.7 41.3 1 13.8.3 27.8.5 41.8.6 245.5.7 476.7-13.2 706.7-29.4 3.8-.7 9.7-.4 12.9 1.1 2.2 1.4 1.7 3.3-2.5 3.9-18.2 2.8-36 5.8-53.7 8.9-17.7 3.1-35.2 6.2-52.6 9.6-34.8 6.6-69.3 13.3-104.4 19.7-35.1 6.4-70.7 12.5-107.8 17.7-37.1 5.4-75.6 10.1-116.5 13.5-194.6 16.3-386.5 30.7-585.4 41.1-51.9-.9-102.9-.8-153.5-.2-25.3.3-50.5.7-75.6 1.3-25.1.7-50.3 1.5-75.4 2.3-50.3 1.7-100.7 3.8-151.8 5.9-51.1 2.3-102.8 4.6-155.8 6.8-286.2 11.9-556.3 14.5-836.2 18.3-52.4 2.8-102.7-1.5-141.6-10.6-9.7-2.3-18.8-4.8-26.9-7.7-8.2-2.8-15.5-5.9-21.8-9.2-12.6-6.6-21.3-14.2-24.8-22.4-8.2-20 15.3-39.4 58.4-52.9-8.6 0-17.1-.1-25.6-.1l-40.7-3.4c-38.5-3.4-71.4-11.2-92.2-22.2l-28.7-13.5c-19.1-12.9-44.1-24.8-68.3-36.7-24.1-11.9-47.5-23.9-63.2-37.5l6.8-10.5-7.4-2.9c-24.4-7.2-40.9-16.9-46.7-27.4l2.1-12.7c4.8-14.5 16.7-28.4 35.9-41.5-.8-5.4 1.5-10.6 6.4-15.7-16.9-12.7-25-26.1-12.1-41.3-10.1-3.5-8.5-9.1 3.4-12.5 4.1-1.1 9-1.9 14.1-2.2h-.1c-5.6-3.2-7.2-4.1-14.7-7.7-10-.9-15.7-1.6-15.7-1.6-26.5-1.7-26.5-1.7-49.5-3.5-19.8-4.1-32.1-10-32.1-10-22.3-22.2-22.3-22.2-19.1-32 1.3-1 2.7-1.9 4.2-2.9-17.6-2.9-18.8-3.2-23.5-4.1-5-1.6-8.4-3.6-8.4-3.6-.9-5.2-.9-5.2-3.9-7.1-1-2-.8-3.9-.8-3.9 9.7-6 9.7-6 9.9-7.7 2.3-1.6 5.4-2.9 5.4-2.9 11.4-2 16-2.8 17.9-3.1 24.8 13.1 24.9 13.1 24.9 13.1l5.3-4.8 5.8 6.1-3.4-5.7 12.5 3.2-14.3-4.7c29.4 1.5 29.4 1.5 41.2 1.1 12.2.5 22.7-1.1 23.9-1.2-1.1-1.8-1.1-3-1.1-3 31.5 1.6 31.5 1.6 62.1 3.5 2.9 1.2 5.1 2.4 7.2 3.6 2.9-1.6 8.8-2.6 14.8-2.3 5.4.2 10.7.5 16.1.7 1.2-.3 2.4-.6 3.4-.9v-.4c5.4-1.2 9.2-2 13.5-2.9 2.7-.7 2.8-.7 2.8-.7s.1 0 .2.1c9.3-2 22.8-4.8 58.5-12.4 9.5.6 18.4 1.3 26.8 2.3-2.7-.8-5.3-1.6-7.8-2.5-5-1.8-.5-6.8-3.3-7.3-16.8-2.4-34-4.5-51.5-6.2-17.5-1.7-35.2-3.3-53-4.5-35.7-2.5-72.1-4.3-108.2-6.5-12.9.8-25.1-1.9-27.1-5.9-1.8-4.1 7.4-8 20.6-8.8 36.4-7.4 75-13 114.7-16.8 39.7-3.8 80.5-5.7 121.5-6.2s82.1.6 122.4 2.9C-530.5 48.1-491 52-453.4 57c39.6 2.2 79.4 4.1 119.3 5.8-1.9-.8-3.8-1.6-5.7-2.5 10.3 1.2 20.7 2.4 31 3.7 1.1.1 2.2.1 3.3.2-7.9-3-15.7-6-23.5-9-5.4-.9-10.8-1.7-16.3-2.5-46.3-1.4-90.4-5.5-134.2-10.2-43.8-4.7-87.2-10.2-131.9-14-48.2-4.4-89.6-12.5-135.1-18.4-11.7-.3-19.9-3.5-18.5-7.3 1.3-3.6 12.2-6.3 23.6-6 37.9-2.1 77.1-3.5 116.6-4 19.7-.2 39.5-.2 59.2.1 19.7.4 39.3 1 58.7 2 38.7 1.9 76.5 5 112.2 9.5 17.9 2.2 35.2 4.8 51.9 7.8 16.7 3 32.7 6.5 47.9 10.3 27.7.1 54.4 2.4 76.5 8 .4 0 .8.1 1.2.1-5.8-2.5-11.3-5.1-17.1-7.6 20.7 1.8 31.8 8 50.7 10.6-2.2-3.5-4.8-6.9-7-10.4 25.5 1.5 51.6 2.4 77.8 3.1 26.2.7 52.5 1.5 78.6 2.4C18 30.6 69.2 33.6 116.4 41c3.8.2 7.4.6 10.9.9C168 34.7 209.2 27.8 257.4 27c-16.3-1.2-32.3-2.3-48.6-3.5 35.1-4.4 69.8-7.3 107.3-6.7 50.8.5 104.6 5.3 152.3 13.2 47.8 7.9 89.5 19.1 116.2 32.9 98.4-.5 196.8-.9 295.2-1.4 49.2-.2 98.4-.4 147.5-.9 24.6-.2 49.2-.4 73.7-.7 24.6-.2 49.1-.5 73.7-.8 10.1-.2 19.2 2.2 20.9 5.3 1 3.1-5.8 5.9-15.9 6.2-35.2 2-70.6 3.6-106 5-35.4 1.5-71 2.8-106.6 3.9-35.6 1.1-71.3 2-107 2.9-35.7.8-71.5 1.7-107.2 2.5 29.9 1.7 59.8 3.3 89.7 5 30 1.7 60 3.4 90.1 4.9 30.1 1.5 60.3 2.9 90.7 4.1 15.2.6 30.4 1.1 45.6 1.7 15.2.6 30.5 1.1 45.8 1.5 15.6-.1 31.3-.3 47-.4 15.6-.2 31 1 46.3 2.6 19.6.4 39 .9 58.3 1.3 9.7.2 19.3.4 28.9.7 9.6.3 19.2.5 28.8.8 38.4 1 76.6 2 114.9 2.7 19.2.3 38.3.6 57.6.8 19.2.1 38.6.3 58 .4 38.8.2 78 0 118-.8 34.1-.8 67.2-1.5 99.7-2.2 32.5-.7 64.5-1.4 96.5-2.2 63.9-1.6 127.8-3.8 195.9-6 47.8-1.6 94.5-3.1 140.7-4.7 23.1-.8 46-1.3 68.9-1.8 22.9-.5 45.6-.9 68.4-1.3 45.5-.6 90.9-.9 136.8-.4 45.8.6 92 1.9 139.1 4.1 25.1.2 48 7 50.6 15.1 2.6 8-15.9 14.4-41 14.2-49.2.8-98.3 1.7-147.4 2.5-49.1 1-98.1 2.1-147.1 3.1-98 1.8-196 4.2-294.6 5.4l-74 .9c-24.7.3-49.5.5-74.2.7-24.8.2-49.6.2-74.5.2-24.9-.1-49.8-.1-74.9-.2-50-.2-100.3-.7-150.9-1.7-12.6-.3-25.3-.6-38-.8l-38.1-.9c-25.5-.6-51-1.4-76.7-2.2-44.3-1.6-87.8-3.1-131.1-4.7.5 1.1 1 2.1 1 3.2-.1 4.3-4.3 8.2-11.3 11.4 49.2 2.3 98.7 5.2 148.4 8.8 17.3-.7 34.6-1.4 52-2.1 17.3-.7 34.7-1.4 52.1-1.8 34.8-1 69.7-1.8 104.9-2.2 35.2-.4 70.7-.3 106.6.4 35.9.8 72.2 2.4 109 4.8 25.3 1.7 50 3.7 74.2 6 12.1 1.1 24.1 2.4 36.1 3.6 6 .6 11.9 1.3 17.8 1.9l17.7 2.1c47.1 5.6 93.3 11.8 139.9 17.9 29.7-.1 59.4-.3 89.1-.4l89.1-.3c29.7-.1 59.5-.1 89.4-.2 14.9 0 29.9 0 44.8.1 15 .1 29.9.3 44.9.4 4.8-.3 9.7.7 11.4 2.3 1.6 1.6-1 3-5.9 3.4-20.7 1.5-41.5 2.8-62.4 4-20.9 1.3-41.9 2.5-63 3.5-42.2 2.1-84.7 3.8-127.4 5.3 13.2 5.5 20.9 12.2 19.6 19.2-1.4 7.2-12 13.3-28.1 17.2l57.8 3c11.9.8 21.2 4 20.7 7.5-.4 3.9-10 6.3-21.4 5.7-19.7-.9-39.3-1.9-59-2.8-9.8-.5-19.6-1-29.5-1.4l-29.5-1.3c-39.3-1.8-78.5-3.5-117.8-5.3-47.2.2-94.3.3-141.5.5-47.1.1-94.3.1-141.6 0 12.9 5.2 22.4 11.4 26.8 18.2v.1c14.6.3 29.2.6 43.7.9 267.4-11.4 541.1-11.6 816.2 5.8 5.4.2 9.8 1.7 9.8 3.5 0 1.7-4.2 2.9-9.1 2.5-41.5-2.5-83-4.7-124.4-6.6-20.7-.9-41.4-1.8-62.1-2.6-20.7-.8-41.4-1.5-62-2 .1 0 .2.1.3.1 3.3 1.1 3.8 3 .1 4.1-3.2.9-9.7.7-13-.4-3.8-1.3-3.3-3.1-.2-4.1-38.5-.9-77-1.6-115.3-2-38.4-.4-76.7-.7-114.9-.4-38.2.2-76.3.7-114.4 1.4-19 .3-38 .7-56.9 1.2-9.5.2-18.9.5-28.4.7-9.5.3-18.9.6-28.4.9 35.1.7 70.1 1.8 105.1 2.8 35 1 70.1 2.2 105.1 3.5l52.5 2.1c17.5.8 35 1.7 52.5 2.6 35 1.8 69.9 3.8 104.9 6.1 15.4-1.4 30.6-2.9 46.2-4.2 4.2-.2 9.7 1 11.3 2.6 1.1 1.4-2 3-6.4 3.2-4.3.3-8.6.7-12.9 1 13.2.9 24.9 3.3 33.1 6.6 8.2 3.3 13.1 7.4 12.6 11.7-1.9 8.7-24.9 14.6-52.4 13.1-36.9-.7-73.6-1.6-110.4-2.7-18.4-.6-36.7-1.1-55.1-1.7-18.4-.6-36.7-1.2-55.1-1.8l-23.9.6c-8.1 1-16.1 2.1-24.1 3.2 28.5 2 57 3.9 85.4 6 28.4 2.2 56.9 4.4 85.3 6.6 28.4 2.3 56.8 4.5 85.1 6.7 28.3 2.3 56.6 4.5 84.8 7 9.7.4 17.9 3.2 17.9 6.3.1 3.1-7.9 5.3-17.6 4.9-25 .4-50 .8-75.1 1.1-25.1.4-50.1.7-75.3.9l-75.4.6c-25.2.1-50.4.3-75.6.4-50.4.3-101 .3-151.6.1-25.3-.1-50.6-.2-75.9-.2l-76-.3c-66.9 11.1-134.1 22.2-202.4 33.5 8.5.5 17.2.9 25.9 1.2 55.1 1.5 108.1 1.1 160-.9 26-1 51.7-2.3 77.2-3.8s50.9-3.2 76.2-4.8c101.3-6.5 201.8-14.4 308.6-13.6 5.4-.2 9.7 1.4 10.4 2.9.5 1.6-3.2 3-8.6 2.8-26.1.2-51.6.9-76.8 1.9-12.6.5-25.2 1.1-37.7 1.8-12.5.7-25 1.4-37.4 2.2-49.9 3.1-99.6 6.7-151.4 9.3-10.7.5-21.4 1.1-32 1.6-10.6.6-21.1 1.2-31.6 1.7-21 1.2-41.7 2.4-62.2 3.6-41.1 2.6-81.4 5.4-121.3 9.1 40.6.5 80.9.1 120.9-.7 20-.4 40-.9 59.9-1.5l59.7-1.8c39.8-1.2 79.5-2.6 119.4-3.7 39.9-1.1 79.9-2.1 120.2-2.2 7.1-.4 14.1.6 18.5 2.4.4-.8 1.9-1.6 4.1-2 20.3-3.4 42.3-5.5 64.9-7.1 4.3-.5 9.7.4 11.9 2.1 2.3 1.8-.4 3.2-5.2 3.9zM423.1 823.3c-1.6-.7-2.9-1.3-4.1-1.8 4.4.9 9.1 1.9 14.3 3l20 12.3s-15.1-6.6-30.2-13.5zm-249.2 49.2h.1c-6.7-4-11.6-6.9-11.6-6.9 4.7 2.9 8.4 5.1 11.5 6.9zM869 102.3c-10.7-.2-21.5-.5-32.2-.7l-32.1-.9c-21.4-.7-42.7-1.6-64-2.7-42.6-2.2-85-5.4-127.4-9.9 20.8-.4 41.4-.9 62.2-1.3 32.2 2.2 64.4 4.7 96.6 7.2 32.2 2.5 64.5 5.2 96.9 8.3zM254.8 778c22.7 6.2 40.4 14 57.1 22 7.4-.8 15-1.5 22.7-1.9 7.7-.4 15.5-.5 23.4-.4 42.3.5 83.4 1.7 124 3.7-5.3-4.4 4.4-3.9 9.4-4.5 5.1-.4 10.2-.8 15.2-1.2-43.3-2.7-86.7-5.7-130.8-9-39.8-3-83-4.3-121-8.7zm-301.7 21.9c-1.2-.5-2.3-1-3.7-1.5l8-6.7c0-.1-1.9 3.4-4.3 8.2zm-12.5 11.3c2 .3 4 .6 6.2.8-2.2 2.6-4.2 1.7-6.2-.8zm57 7.3c-3.4-1.7-5.5-2.7-8.1-3.4 8 3.4 8.1 3.4 8.1 3.4zm43.7 193.2l21.5-33.4-23.5 32.1 2 1.3z"/><path class="st3" d="M-134.6 1093c3.8 1.4 7.6 3.1 11.3 4.6-7.6 1.7-18.6 1-31-1.1 29.8 9.7 62.3 16.7 95.8 21.3 16.8 2.3 33.8 4.1 51 5.2 17.1 1.1 34.4 1.7 51.5 1.8 68.5.4 135.1-6.7 187.7-17.9 37.2 3.5 70.8-3.1 75.2-14.9 4.3-11.8-22.4-24.2-59.8-27.8-8.2-2-17.7-3.6-23.6-6.1-52.2-22.4-116.6-39.8-188-54.5 13.6 4.5 27.8 9.1 41.5 13.6-20.6-4.4-40.9-8.9-64.1-10.7 2.3 2.4 5.2 4.8 7.5 7.2-8.8-2.6-18.1-5-27.6-7s-19.4-3.8-29.3-5.3c-19.9-2.9-40.5-4.5-60.4-4.9-39.8-.7-77.3 3.6-103 13.1-51.5 19.1-36.5 51.9 34 73.4l31.3 10z"/><path class="st3" d="M-5.8 1172.9c-5.3-1.4-10.6-2.8-15.8-4.1-5.3-1.4-10.5-2.8-15.7-4.3-10.4-2.8-20.7-5.7-31-8.6-20.6-5.8-40.9-11.6-61.2-17.5l-7.9-4.7 1.3 18.7.9-1.1c20-6.3 46-9.7 74.5-11.6 14.2-1 29-1.5 44-1.8 15-.4 30.1-.5 44.9-.6l21.2-1.2c10.2-1.7 17.2-4.8 19.5-8.6 5.5-8.5-12.2-18.2-39.4-21.6l-31.4-3.9c-4.8-1-9.7-2-14.8-2.9-5.1-1-10.3-1.9-15.6-2.8-10.7-1.8-21.8-3.4-33.2-4.8-22.7-2.8-46.4-4.7-69.1-5.2-45.4-1-86.9 3.6-109.6 17.6-10.2 6.5-2.5 16.3-1.1 24.9-3.9 12 24.2 24.9 62.6 28.7 38.4 3.8 72.2-2.9 75.8-15 6.4 1.3 13.1 2.7 19.5 4.1-5.2 1.1-10.5 2.1-15.8 3.2 11.7-9.8 46.9-9.6 73.4-13.2 13.1 0 26.2-.1 39.3-.1l-20-30.2-20.6 2.3c1.5 1.3 4.3 3.4 4 3.5-39.3 4.9-76.3 9.9-119 11.7l-54.1 6.4c-14.9 4.3-14.1 12.5 1.3 18.7l23.2 8c-3.5-1.6-7-2.9-10.4-4.5 54.1 10.7 111.4 18.9 164.9 29.9 8.4 2 18.9 1.5 23.6-1 4-2.9.5-6.5-8.2-8.4zm-193-10.8c-8.7-2.9-17-5.8-29.7-6.3-3.1 1.1-4.7 1.6-5.6 1.9 4.6 1.7 10.7 4 16.9 6.2 12.2 4.5 18.8 2.2 18.4-1.8z"/><path class="st3" d="M-234 1157.7c-4.2-1.6-7-2.6-7-2.6 1.6 1.1 3.1 2.1 4.6 3.1l1.4-.1s0-.1 1-.4zm1488.7-585.4c84.5 5.8 169.2 10.2 254 14.5 21.2 1 42.4 2.1 63.6 3.1l15.9.8 15.9.7 31.8 1.3c42.4 1.7 84.9 3.4 127.4 5 5.7.2 10.5-1 10.8-2.8.3-1.5-4.1-3.2-9.3-3.3-42.5-1.7-84.9-3.4-127.3-5.1-10.6-.4-21.2-.9-31.8-1.3-10.6-.4-21.2-.9-31.8-1.4-21.2-1.1-42.3-2.1-63.5-3.2-42.3-2.2-84.6-4.4-126.8-6.7l-31.7-1.8-15.8-.9-15.8-1-63.3-4.1c-5.7-.2-10.4.9-11.2 2.6-.3 1.6 3.6 3.2 8.9 3.6zm1267.1 197.1c-4.1 1.3-3.9 3.2.3 4.5 3.6 1.1 10 1.3 14 0 3.4-1.1 3.3-3.4-.3-4.5-4.1-1.3-10.6-1.1-14 0z"/><path class="st3" d="M2484.8 908.7c-23.9 2.5-46.6 5.4-66.9 10.1-3.8.7-8 .5-11.2-.2 1.4 2.9-3.2 5.5-11.8 6.6-21.2 2.9-42.7 5.6-64.3 8-21.6 2.4-43.4 4.5-65.3 6.6-43.9 4-88.3 7.4-133 10.5-44.7 3.2-89.8 5.5-134.9 7.9-45.1 2.4-90.4 4.7-135.4 7.3-1.2 2.3-3.7 4.5-7.7 6.6-6.3 3.5-15.7 6.1-26.8 7.6-11.1 1.4-23.8 1.8-36.8.9l-19.5-2.2c-39.5-2.9-79-5.5-118.3-8.1-19.7-1.4-39.4-2.7-59-4.1-9.8-.7-19.7-1.4-29.5-2.2-9.8-.8-19.6-1.6-29.5-2.4-16.2 2.9-34.9 4.6-55.2 4.8-34.1 3.6-68.3 7.1-102.6 10.3-17.2 1.6-34.4 3.1-51.7 4.5-17.3 1.3-34.7 2.6-52.2 3.7 4.3 2.1 6.9 4.5 6.8 7.1-1.5 6.1-17.8 10.3-36.7 9.5-9.5-.1-19-.3-28.5-.5 27.2 2.3 54.5 4.7 81.7 7.3 3.9.2 7.6.7 10.8 1.4 15 .6 30 1 45.1 1.3 15.1.3 30.4.5 45.8.6 268.5 1.7 521.4-17.7 771.8-42 4.1-.9 10.5-.7 14.2.8 2.4 1.5 2 3.5-2.6 4.3-19.8 3.7-39.2 7.5-58.4 11.5-19.2 4-38.2 8-57.2 11.9-37.9 7.9-75.4 16-113.7 23.8-38.2 7.7-77.1 15.1-117.6 21.7-40.5 6.4-82.7 11.9-127.4 16.1-213.1 20.4-423.7 34.8-642.3 43.8-57-2-113-3.1-168.5-3.4-27.8-.2-55.4-.2-83.1-.1-27.6 0-55.2 0-82.8.2-55.3.3-110.7 1-166.9 1.7-56.2.4-113.1.8-171.4.9-314.9.5-611.9-13.7-919.1-32.1-57.7-1.4-112.5-10.2-154.4-23.4-10.5-3.3-20.1-6.8-28.8-10.6s-16.4-7.9-23.1-12.1c-13.3-8.4-22-17.5-25.1-26.8-7.1-22.6 20.3-41.5 68.5-52.4-9.4-.7-18.7-1.5-28-2.4l-44.1-7.5c-41.7-7.3-76.9-18.9-98.5-32.9l-30-17.5c-9.8-8-21.2-15.8-33.3-23.5-12.1-7.7-24.9-15.3-37.4-23.1-25.1-15.5-49.2-31-64.9-47.5l8.4-10.8-7.7-3.9c-25.7-10.4-42.6-22.6-47.8-34.8l3.6-13.6c6.7-15.4 21-29.2 43.1-41.6-.3-5.9 2.7-11.5 8.6-16.4-16.9-15.6-24.3-31-8.8-46.3-10.5-4.9-8.2-10.8 4.9-13.3 4.5-.8 9.9-1.1 15.4-1l-.1-.1c-5.7-4.1-7.3-5.2-15-9.9-10.6-2-16.8-3.4-16.8-3.4-28.4-4.6-28.4-4.6-52.9-8.9-20.9-6.5-33.6-14.3-33.6-14.3-21.6-26.5-21.6-26.5-17.1-36.9 1.5-.9 3.1-1.8 4.8-2.7-18.6-5-19.9-5.4-24.9-6.9-5.2-2.3-8.6-4.8-8.6-4.8-.4-5.8-.4-5.8-3.4-8.1-.9-2.3-.5-4.4-.5-4.4 11-5.6 11-5.6 11.5-7.3 2.6-1.5 6.2-2.7 6.2-2.7 12.5-1 17.4-1.4 19.5-1.5 25.3 16.8 25.3 16.9 25.3 16.9l6.1-4.7 5.6 7.3-3-6.5 13.1 4.8-14.8-6.6c31.4 4.7 31.4 4.7 44.1 5.4 13.1 1.8 24.5 1.1 25.8 1.1-.9-2-.9-3.4-.9-3.4 33.6 5 33.6 5 66.4 10.2 3 1.6 5.3 3.2 7.4 4.7 3.3-1.5 9.7-2 16.1-1 5.8.8 11.5 1.6 17.2 2.4 1.3-.2 2.6-.4 3.8-.6v-.5c6-.8 10.1-1.3 14.8-1.9 3-.5 3.1-.5 3.1-.5s.1.1.2.1c10.2-1.3 25-3.2 64.1-8.2 10.2 1.5 19.6 3.2 28.5 5-2.8-1.1-5.6-2.2-8.2-3.4-5.2-2.4.1-7.5-2.8-8.2-17.8-4.2-36.1-8-54.7-11.5-18.6-3.6-37.5-6.7-56.5-9.9-38.1-6.4-76.9-12.1-115.4-18.2-13.9-.4-26.7-4.7-28.4-9.3-1.5-4.7 8.8-8 23.1-7.5 39.8-4.4 81.7-6.5 124.6-6.6h16.1c5.4 0 10.8.1 16.2.1 10.8.2 21.7.4 32.7.8 21.8.8 43.8 2 65.8 3.6 44 3.3 87.9 8.2 130.9 14.5 43 6.1 85 13.6 124.9 22.1 42.3 5.7 84.8 11 127.5 16.2-2-1-4-2.1-6-3.2 11 2.2 22 4.2 33 6.3 1.2.2 2.4.3 3.6.4-8.2-3.9-16.4-7.7-24.5-11.6-5.7-1.4-11.5-2.7-17.3-4-49.5-5.4-96.6-13.4-143.1-22.2-46.5-8.8-92.6-18.1-140.2-26.6-51.1-9.1-94.7-21.8-142.9-32.4-12.5-1.4-20.9-5.7-19.1-9.6 1.7-3.8 13.6-5.8 25.8-4.4 40.7 1.2 82.8 3.2 125.1 6.4 21.1 1.6 42.3 3.5 63.3 5.6 21 2 42 4.4 62.6 7 41.3 5.3 81.5 11.7 119.4 19.6 18.9 3.9 37.3 8.2 54.9 12.8 17.6 4.6 34.5 9.4 50.5 14.7 29.7 2.1 58.1 6.5 81.5 14.2.4.1.9.1 1.3.2-6.1-3.2-11.7-6.3-17.8-9.5 22.1 3.4 33.5 11.1 53.6 15.2-2.1-4-4.7-7.9-6.8-11.9 27.3 3.5 55.2 6.3 83.2 9 14 1.4 28.1 2.5 42.1 3.8 14.1 1.2 28.1 2.5 42.1 3.8 55.9 5.3 110.7 11.6 161 22.7 4.1.5 7.9 1.1 11.7 1.7 44.1-5.7 88.7-11.2 140.6-9.6-17.5-2.1-34.6-4.2-52.1-6.3 37.9-3 75.4-4.4 115.6-1.9 54.5 3.4 112 10.5 163 21.2 51 10.6 95.4 24.5 123.6 40.8 52.9 1.3 105.9 2.6 158.8 3.8 53 1.2 105.9 2.6 158.8 3.3 52.9.8 105.9 1.5 158.8 2l39.7.3c13.2 0 26.4 0 39.7.1 26.4 0 52.9 0 79.3-.2 10.9-.2 20.6 2.6 22.5 6 1 3.4-6.3 6.4-17.2 6.6-38 1.8-76 3.3-114.2 4.5-38.2 1.1-76.5 1.7-114.8 2.3-38.4.5-76.8.8-115.3 1-9.6 0-19.2.1-28.9.1-9.6 0-19.3-.1-28.9-.1l-57.8-.3c16.1 1.4 32.1 2.8 48.2 4.1 16.1 1.3 32.2 2.8 48.3 4 32.2 2.5 64.6 4.9 97 7.2 32.4 2.3 65 4.4 97.6 6.3 16.3 1 32.7 1.9 49.1 2.7 16.4.8 32.9 1.5 49.4 2.1h50.7c16.8 0 33.4 1.4 49.9 3.3 21.1.7 42 1.3 62.9 2 10.4.3 20.8.7 31.2 1 10.4.3 20.7.6 31.1.8 41.4 1.1 82.6 2.1 123.9 2.8 20.6.4 41.3.7 62.1.9 10.4.1 20.8.2 31.2.2 10.4.1 20.8 0 31.3 0 41.9-.2 84.1-.8 127.2-2.1 36.8-1.1 72.4-2.2 107.4-3.6s69.5-2.9 103.9-4.5c68.8-3.2 137.6-6.6 210.8-11.4 51.4-3.2 101.6-6.4 151.2-9.6 24.8-1.5 49.4-3.1 74-4.6 24.6-1.5 49-2.9 73.5-4.2 24.4-1.3 48.9-2.5 73.4-3.5 12.2-.5 24.5-1 36.8-1.5 12.3-.4 24.6-.9 36.9-1.3 49.3-1.7 99-2.7 149.7-2.8 27-1.1 52 5.2 55.2 13.8 3.3 8.6-16.3 16.6-43.3 17.7-52.9 3.5-105.7 6.9-158.4 10.4l-19.8 1.3-19.8 1.2c-13.2.8-26.4 1.6-39.5 2.4-26.4 1.6-52.7 3.2-79.1 4.8-26.4 1.6-52.7 3.1-79.1 4.7-13.2.7-26.4 1.6-39.6 2.2-13.2.7-26.4 1.3-39.6 2-52.8 2.6-105.8 5.1-158.9 7.4-13.3.5-26.6 1.1-39.9 1.6-13.3.5-26.6.9-39.9 1.4-26.6.9-53.3 1.6-80 2.3-26.7.7-53.5 1.3-80.4 1.8-26.9.5-53.8 1-80.8 1.2-54 .4-108.2.3-162.8-.2-13.6-.2-27.3-.3-41-.5s-27.4-.4-41.2-.8c-27.5-.7-55-1.5-82.7-2.4-47.8-1.7-94.7-3.3-141.5-5.1.6 1.2 1.1 2.4 1.1 3.5-.1 4.7-4.7 9-12.3 12.4 53.1 2.5 106.5 5.7 160.2 9.5 37.4-1.5 74.8-3 112.4-4.5 37.6-1.5 75.3-2.8 113.3-3.6s76.3-1.1 115-.7c38.7.2 77.9 1.1 117.7 2.9 27.3 1.3 54 3 80.2 5 13.1 1 26.1 2.1 39 3.2 12.9 1.2 25.7 2.3 38.5 3.4 51 4.7 101 10 151.6 15.2 16-.5 32.1-1.1 48.1-1.6 16-.6 32-1.1 48.1-1.8 32-1.4 64.1-2.7 96.2-4.1 32.1-1.3 64.2-2.6 96.4-3.9 32.2-1.2 64.5-2.5 96.8-3.7 5.2-.6 10.5.3 12.4 1.9 1.9 1.7-.9 3.4-6.2 4-22.3 2.7-44.7 5.3-67.2 7.6s-45.2 4.4-67.9 6.5c-45.5 4.1-91.3 7.7-137.4 11.2 14.5 5.5 23.1 12.5 21.9 20.2-1.2 8-12.5 15-29.7 20l62.7.8c12.9.3 23.1 3.5 22.7 7.4-.3 4.3-10.6 7.3-22.9 7.2-21.3-.2-42.6-.4-63.9-.7l-32-.3-31.9-.5-127.7-2.1c-25.6.8-51.1 1.6-76.6 2.5-12.8.4-25.5.7-38.3 1l-38.3.9c-51.1 1.1-102.1 2.1-153.4 3 14.1 5.5 24.5 12.1 29.3 19.4v.1c15.9 0 31.7.1 47.4.1 289.7-18 585.7-28.4 884.1-25.1 5.8-.1 10.7 1.4 10.8 3.3.1 1.8-4.4 3.4-9.7 3.2-45.1-.6-90.1-.9-135-.7-22.5.1-44.9.2-67.3.4-22.4.3-44.8.5-67.2.8.2 0 .2.1.4.1 3.6 1.1 4.3 3.2.3 4.5-3.4 1.2-10.5 1.1-14 .1-4.2-1.3-3.8-3.3-.4-4.4-41.7.6-83.4 1.5-124.9 2.6-41.6 1.1-83.1 2.7-124.4 4-41.4 1.5-82.7 3.2-123.8 5.1-20.6 1-41.1 2-61.7 3.1l-61.5 3.3 28.5.1h85.5c38 0 76 .2 114 .5l113.9 1.2c38 .5 75.9 1.3 113.9 2.3 16.6-2.2 33.1-4.5 49.9-6.6 4.6-.4 10.6.7 12.4 2.4 1.3 1.5-2.1 3.4-6.8 3.8-4.7.5-9.3 1.1-13.9 1.6 14.4.4 27.1 2.6 36.2 5.8 9.1 3.2 14.5 7.5 14.2 12.2-1.6 9.7-26.3 17.1-56.2 16.6-40 .8-79.9 1.3-119.9 1.7-20 .1-39.9.3-59.8.4l-29.9.1-29.9-.1c-8.6.5-17.3 1-25.9 1.5-8.7 1.4-17.4 2.8-26 4.3 31 1.3 62 2.5 92.9 3.8 31 1.2 61.9 2.4 92.8 3.6 30.9 1.3 61.8 2.6 92.6 3.8 30.8 1.3 61.7 2.7 92.4 3.8 10.6-.1 19.6 2.6 19.8 6 .3 3.3-8.3 6.2-18.9 6.3-13.6.8-27.1 1.7-40.7 2.5-13.6.7-27.2 1.5-40.8 2.2-27.2 1.4-54.4 2.8-81.7 4.1s-54.6 2.6-82 3.8c-13.7.6-27.4 1.2-41.1 1.7l-41.1 1.5c-54.8 1.9-109.8 3.5-164.8 4.9-13.8.3-27.5.7-41.3 1-13.8.3-27.5.5-41.3.8l-82.7 1.2c-36.3 6.8-72.7 13.5-109.3 20.3-9.2 1.7-18.3 3.4-27.5 5.1-9.2 1.6-18.4 3.3-27.6 4.9-18.4 3.3-36.9 6.5-55.5 9.8 9.3.4 18.8.8 28.2 1 15 .3 29.9.4 44.6.4 14.7 0 29.4-.3 43.9-.6 29-.7 57.6-2 85.9-3.6 28.3-1.6 56.2-3.6 84-5.7 13.9-1.1 27.7-2.2 41.5-3.4 13.8-1.2 27.6-2.5 41.3-3.8 110.1-10.5 219.2-21.6 335.3-25.7 5.8-.4 10.6 1.1 11.4 2.8.6 1.7-3.3 3.4-9.2 3.4-28.4 1.3-56.1 3.1-83.5 5.3-13.7 1.1-27.3 2.3-40.9 3.4-13.6 1.2-27.1 2.4-40.7 3.6-54.2 5-108.2 10.5-164.5 15-11.7.9-23.3 1.9-34.8 2.8-11.5.9-23 1.7-34.4 2.6-22.8 1.7-45.4 3.5-67.7 5.3-44.7 3.7-88.6 7.7-132 12.5 44.3-.3 88.2-1.6 131.8-3.3 21.8-.9 43.6-1.9 65.3-2.9 10.9-.6 21.7-1.1 32.5-1.7 10.8-.6 21.7-1.3 32.5-1.9 43.3-2.6 86.6-5.3 130-7.8 43.4-2.5 86.9-4.6 130.8-6.5 7.7-.7 15.4.1 20.3 1.9.4-.9 2-1.8 4.3-2.4 21.9-4.6 45.9-7.8 70.3-10.5 4.7-.8 10.6 0 13 1.8 1.8 2.2-1 3.9-6.2 4.9zM319.7 1262.2c-1.6-.9-3-1.6-4.2-2.3 4.7 1.4 9.6 2.8 15.2 4.5l20.6 15.1c-.1-.1-15.9-8.6-31.6-17.3zm-273.1 31.5h.2c-6.9-5-11.8-8.6-11.8-8.6 4.7 3.6 8.4 6.3 11.6 8.6zm827.7-686c-11.6-.4-23.1-.9-34.7-1.5-11.5-.5-23.1-1.2-34.6-1.9-23-1.4-46-3-68.9-4.9-45.8-3.8-91.5-8.6-137-14.7 22.4.1 44.7.3 67 .4 34.6 3.4 69.2 7.1 103.9 10.8 34.8 4 69.5 7.9 104.3 11.8zM142.6 1198c23.8 8.9 42.2 19 59.5 29.4 8.1-.2 16.3-.2 24.6.1 8.3.2 16.7.7 25.2 1.5 45.5 4 89.7 8.8 133.2 14.2-5.4-5.2 5.1-3.9 10.5-4.2 5.5 0 11-.1 16.5-.1-46.4-6.5-92.8-13.4-140.1-20.6-42.6-6.4-89-12-129.4-20.3zm-326.4-5.6c-1.3-.7-2.4-1.4-3.8-2.1l9.3-6.5c-.1 0-2.5 3.6-5.5 8.6zm-14.7 11.2c2.1.5 4.3 1 6.6 1.5-2.6 2.5-4.7 1.3-6.6-1.5zm60.5 13.8c-3.5-2.2-5.6-3.6-8.4-4.5 8.4 4.4 8.4 4.5 8.4 4.5zm27.4 215.4l26.7-34.2-28.7 32.6 2 1.6z"/><path class="st4" d="M-214.4 1637.4c4 .8 8 1.8 11.9 2.6-7.3 2.5-18.5 3.3-31.2 3.1 31.1 4.7 64.5 6.5 98.6 6.2 17.1-.1 34.3-.9 51.6-2 17.3-1.1 34.6-2.7 51.7-4.7 68.6-7.9 134.4-22.3 185.8-38.5 37.7-1.1 70.7-10.6 73.7-21.6 2.9-10.9-25.3-18.9-63.3-17.9-8.4-.9-18.2-1.1-24.4-2.6-55.1-13.5-122-21-195.6-25.3 14.2 2.3 29.1 4.7 43.4 7-21.3-1.4-42.3-2.9-65.8-1.7 2.6 1.8 5.9 3.6 8.5 5.4-9.2-1.3-18.8-2.2-28.6-2.8-9.8-.6-19.9-.8-30.1-.8-20.4.1-41.2 1.3-61.3 3.6-40.1 4.6-77.2 13.3-101.6 25.1-49 23.6-29.4 50.6 44 60.2l32.7 4.7z"/><path class="st4" d="M-75.4 1691.2c-11-1.2-21.8-2.3-32.5-3.4-10.8-1.2-21.4-2.4-32.1-3.5-21.3-2.4-42.3-4.9-63.4-7.4l-8.5-3.1 3.8 16.3.8-1.1c19.1-8.1 44.6-14.6 72.8-20 14.1-2.7 28.8-5.2 43.7-7.4 14.9-2.2 30-4.1 44.8-6l21-3.6c10-2.7 16.6-6.3 18.5-9.9 4.5-8.2-14.5-14.6-42.2-14.3l-32 .4c-4.9-.3-10-.6-15.2-.8-5.2-.2-10.5-.3-16-.4-10.9-.2-22.3-.1-33.8.1-23.1.5-47 2-69.8 4.5-45.5 5.1-86.5 14.6-107.2 29.9-9.3 7.1-.3 14.7 2.3 22.1-2.2 11.1 27.6 18.8 66.3 17.1 38.8-1.7 71.6-12 73.6-23.1 6.6.3 13.4.7 20 1-5 1.7-10.2 3.2-15.3 4.9 10.4-10.2 45.6-14.6 71.6-21.3 13.1-1.7 26.2-3.3 39.3-5l-23.8-24.2-20.3 4.6c1.6 1 4.7 2.4 4.5 2.5-38.7 9.4-75 18.7-117.5 25.9l-53.2 12.7c-14.3 5.8-12.4 12.9 3.8 16.3l24.2 4c-3.7-.9-7.3-1.7-11-2.6 55.4 2.3 113.6 2 168.4 4.7 8.7.7 19.1-.9 23.5-3.7 3.8-2.9-.1-5.6-9.1-6.2zm-193.9 15.5c-9-1.4-17.7-2.9-30.4-1.7-3 1.3-4.5 2-5.3 2.4 4.8.9 11.2 2.1 17.7 3.3 12.7 2.4 19-.5 18-4zm-35.7.7c-4.4-.8-7.4-1.4-7.4-1.4 1.7.8 3.4 1.4 5 2.1l1.4-.3s.1 0 1-.4zm1503.9-802.2c85.4 1.3 170.9 3 256.5 4.1 85.6 1.1 171.3 2.3 256.9 3.4 5.7.1 10.6-1.1 10.8-2.7.3-1.4-4.2-2.8-9.5-2.8-42.9-.6-85.7-1.2-128.4-1.8-10.7-.2-21.4-.3-32.1-.5l-16-.3-16-.2c-21.4-.3-42.7-.5-64.1-.8-85.4-1.1-170.7-2.9-256.1-4.1-5.7 0-10.5 1.2-11.2 2.8-.2 1.5 3.8 2.8 9.2 2.9zm1276.6 157.2c-4.1 1.2-3.9 2.8.3 4 3.6 1 10 1.2 14 .1 3.4-1 3.3-3-.3-4-4.1-1.2-10.6-1-14-.1z"/><path class="st4" d="M2437.4 1186.1c-23.8 2-46.5 4.4-66.6 8.4-3.8.6-8 .4-11.2-.3 1.4 2.6-3.2 4.8-11.8 5.8-21.2 2.4-42.5 4.5-64 6.7-21.5 2.1-43.2 4.1-65 5.9-43.6 3.7-87.8 6.8-132.3 9.5-44.5 2.7-89.2 5.4-134.1 8.2-44.8 2.7-89.7 5.3-134.5 8-1.2 2-3.6 4.1-7.6 6-6.2 3.2-15.5 5.6-26.5 7.1s-23.6 2.1-36.5 1.6l-19.5-1.5c-78.6-3.2-157-6.3-235.1-9.4-16 3.1-34.5 5.2-54.6 6-33.7 4.3-67.5 8.5-101.5 12.4-17 2-34.1 3.8-51.2 5.7-17.1 1.9-34.3 3.7-51.6 5.4 4.4 1.7 7 3.8 7 6.1-1.3 5.5-17.2 9.9-35.9 9.9-9.4.3-18.9.5-28.3.8 27.1.9 54.2 1.9 81.2 3.1 3.9 0 7.5.3 10.8.8 14.8-.1 29.8-.3 44.8-.4 15-.2 30.1-.5 45.4-.9 266.1-7.9 516.4-28.8 765.2-51.5 4.1-.8 10.5-.7 14.1.7 2.4 1.3 2 3.1-2.6 3.8-19.6 3.3-38.9 6.8-57.9 10.3-19.1 3.5-37.9 7.1-56.7 10.9-37.5 7.5-74.7 15.1-112.5 22.5-37.8 7.3-76.2 14.4-116.2 20.7-40 6.5-81.6 12.3-125.8 17-210.4 22.2-417.9 43-633.1 60.4-56.3 1.1-111.6 3-166.4 5.5-27.4 1.3-54.7 2.6-81.9 4.1-27.2 1.6-54.4 3.4-81.6 5.2-54.4 3.7-109 7.6-164.3 11.6-55.3 4.3-111.3 8.7-168.6 12.9-309.7 23.3-602.3 37.7-905.3 54.4-56.7 5.2-111.3 3.4-153.8-3.7-10.6-1.7-20.5-3.9-29.5-6.2-9-2.3-17-5-24-7.9-14-5.8-23.7-12.8-27.8-20.6-9.7-19.1 15-39.2 61.1-54.4-9.3.4-18.5.8-27.8 1.1l-44.2-1.4c-41.8-1.5-77.8-7.5-100.9-17.2l-31.6-11.8c-10.6-5.9-22.8-11.4-35.7-16.7-12.9-5.4-26.4-10.6-39.8-15.7-26.7-10.4-52.4-21-70-33.4l6.9-10.6-8.1-2.5c-26.7-5.8-45-14.4-51.7-24.4l1.7-12.5c4.6-14.4 16.9-28.5 37.2-42.3-1.1-5.2 1.2-10.5 6.3-15.6-18.8-11.5-28.2-24.2-14.8-39.7-11.1-3-9.6-8.4 3.1-12.3 4.4-1.3 9.7-2.3 15.2-2.9h-.1c-6.1-2.8-8-3.7-16.2-6.7-10.8-.4-17.1-.8-17.1-.8-28.8-.4-28.8-.4-53.8-.9-21.7-3-35.3-8.2-35.3-8.2-25.1-20.5-25.1-20.5-22.1-30.2 1.3-1 2.8-2 4.4-3-19.2-2-20.5-2.1-25.7-2.8-5.5-1.4-9.3-3.1-9.3-3.1-1.2-5.1-1.2-5.1-4.5-6.7-1.2-1.9-1.1-3.8-1.1-3.8 10.2-6.3 10.2-6.3 10.4-8 2.4-1.7 5.8-3.1 5.8-3.1 12.3-2.5 17.2-3.5 19.3-3.9l27.5 11.5 5.5-4.9 6.6 5.7-3.9-5.3 13.7 2.5-15.7-3.9c32 0 32 0 44.7-1 13.3-.2 24.5-2.2 25.9-2.4-1.2-1.7-1.4-2.9-1.4-2.9 34.2 0 34.2 0 67.5.3 3.2 1 5.7 2.1 8 3.2 3.1-1.7 9.4-3 16-3 5.8 0 11.7-.1 17.5-.1 1.3-.4 2.5-.7 3.7-1 0-.3-.1-.4-.1-.4 5.9-1.4 9.9-2.4 14.5-3.5 2.9-.8 3-.8 3-.8s.1 0 .2.1c10-2.4 24.5-5.8 63-15 10.3.1 20 .4 29.1 1-3-.6-5.8-1.3-8.6-2-5.5-1.5-.9-6.6-3.8-6.9-18.3-1.6-37.1-2.7-56.1-3.6-19-.8-38.3-1.5-57.7-1.8-38.9-.6-78.4-.6-117.6-.9-14 1.5-27.3-.6-29.6-4.4-2.1-3.9 7.7-8.2 22-9.6 39.2-9.1 80.8-16.4 123.7-22.2 5.4-.7 10.7-1.4 16.1-2.1 5.4-.6 10.8-1.2 16.3-1.8 10.9-1.2 21.8-2.3 32.8-3.3 22-2 44.1-3.6 66.3-4.8 44.4-2.4 89.1-3.4 132.9-3.1 43.8.6 86.7 2.5 127.7 5.6 43 .3 86.2.3 129.6.1-2.1-.7-4.2-1.4-6.3-2.2 11.3.7 22.5 1.4 33.7 2.2h3.6c-8.6-2.6-17.3-5.2-25.8-7.8-5.9-.7-11.8-1.2-17.7-1.7-50.2.8-98.3-1.1-146-3.7-47.7-2.5-95-5.9-143.7-7.4-52.4-1.8-97.6-7.7-147.2-11.2-12.7.2-21.7-2.5-20.4-6.2 1.3-3.6 13-6.7 25.4-7 41-3.9 83.5-7.2 126.3-9.5 21.4-1.2 42.8-2.1 64.2-2.7 21.4-.5 42.7-.8 63.7-.8 42.1 0 83.2 1.3 122.1 4 19.5 1.4 38.4 3.1 56.6 5.2 18.2 2.1 35.7 4.8 52.3 7.8 30-1.2 59.1-.1 83.3 4.3h1.3c-6.4-2.2-12.4-4.4-18.8-6.6 22.5.8 34.8 6.4 55.4 8-2.5-3.3-5.5-6.5-8-9.8 27.8.3 56 0 84.5-.5 14.2-.3 28.5-.4 42.7-.6 14.2-.2 28.5-.3 42.6-.5 56.7-.4 112.4.2 163.9 5.4 4.1 0 8 .2 11.9.4 43.9-8.8 88.3-17.2 140.6-20.1-17.8-.5-35.1-.9-52.9-1.4 37.9-5.7 75.5-10.1 116.2-11.1 55.1-1.7 113.7.9 165.8 6.6 52.1 5.8 97.8 15 127.3 27.4 13.3-.6 26.7-1.2 40-1.7l40-1.6c26.7-1.1 53.4-2.1 80-3.2 53.4-2.1 106.7-4.5 160.1-6.3 53.4-2 106.7-4.1 160-6.4 13.3-.6 26.7-1.2 40-1.7s26.7-1.1 40-1.6c26.6-1.1 53.3-2.3 79.9-3.4 11-.6 20.9 1.4 22.9 4.4 1.2 3-6 6-17 6.6-38.2 3.2-76.5 6.1-114.9 8.7-38.4 2.8-76.9 5.4-115.5 7.8-38.6 2.4-77.2 4.7-116 6.8-9.7.5-19.4 1.1-29 1.6-9.7.6-19.4 1.1-29.1 1.7-19.4 1.1-38.8 2.2-58.1 3.3 32.5.5 65 .9 97.5 1.4 32.6.6 65.2 1.1 97.9 1.4 32.7.4 65.6.6 98.5.6 16.5 0 33 0 49.5-.1 16.5 0 33.1 0 49.7-.1 16.9-.7 34-1.4 51-2.1 16.9-.7 33.6-.1 50.3.9 21.2-.3 42.3-.5 63.3-.8 10.5-.1 21-.3 31.4-.4l31.3-.3c41.7-.3 83.2-.7 124.8-1.4 20.8-.3 41.6-.7 62.5-1.2s41.8-1 62.9-1.5c42.1-1.1 84.7-2.5 128-4.6 74-3.7 143.4-7.1 212.7-10.6 69.3-3.6 138.6-7.8 212.3-11.8 51.8-3 102.4-5.9 152.5-8.7 12.5-.7 25-1.4 37.4-2 12.4-.6 24.9-1.2 37.2-1.8 24.8-1.1 49.5-2.2 74.2-3.1s49.3-1.8 74-2.5c12.4-.3 24.7-.7 37.1-1 12.4-.3 24.8-.6 37.2-.7 49.7-.6 99.9-.6 151.1.3 27.2-.5 52.3 5.6 55.4 13.4 3.1 7.7-16.7 14.5-44.1 15-53.4 2.1-106.6 4.2-159.8 6.3l-19.9.8-19.9.9-39.9 1.8c-26.6 1.2-53.1 2.4-79.7 3.6-26.6 1.2-53.1 2.3-79.7 3.5-13.3.6-26.6 1.1-39.9 1.7-13.3.6-26.6 1.2-39.9 1.9-53.2 2.4-106.5 4.7-159.9 6.8-13.4.5-26.7 1-40.1 1.5-13.4.5-26.8 1.1-40.2 1.6-26.8 1.1-53.6 2.1-80.5 3-26.9.9-53.8 1.8-80.8 2.6-27 .7-54.1 1.5-81.2 2.2-54.3 1.5-108.8 2.6-163.8 3.3-13.7.1-27.5.3-41.3.4-13.8.1-27.6.2-41.4.4-27.6.3-55.4.4-83.2.4-48.1 0-95.4 0-142.4-.1.6 1 1.2 2.1 1.2 3.1 0 4.2-4.4 8.1-11.9 11.5 53.4.5 107.2 1.7 161.3 3.4 18.8-1.3 37.5-2.5 56.3-3.8 18.8-1.2 37.6-2.5 56.5-3.6 37.7-2.1 75.6-4.1 113.8-5.6s76.7-2.6 115.7-3.1c39-.3 78.4.1 118.4 1.2 27.5.9 54.3 2.1 80.7 3.6 13.2.7 26.3 1.5 39.2 2.4 6.5.4 13 .9 19.4 1.3 6.5.5 12.9 1 19.3 1.5 51.3 4.1 101.6 8.8 152.4 13.3 32.2-1 64.4-2 96.6-3.1 32.2-.9 64.4-1.9 96.7-2.8l96.9-2.7 48.6-1.2c16.2-.3 32.5-.5 48.8-.8 5.2-.5 10.6.4 12.4 2 1.8 1.5-1 3-6.2 3.4-22.4 2-44.9 3.8-67.6 5.6-22.7 1.8-45.4 3.6-68.3 5.2-45.7 3.3-91.8 6.1-138.1 8.8 14.5 5 23.1 11.3 21.9 18.2-1.2 7.1-12.6 13.3-29.9 17.5l62.8 1.3c12.9.4 23.1 3.3 22.7 6.8-.3 3.8-10.7 6.4-23 6.2-21.4-.4-42.7-.7-64.1-1.1l-32-.6-32-.4c-42.7-.6-85.3-1.1-128-1.7-25.6.8-51.2 1.5-76.8 2.3-12.8.3-25.6.8-38.4 1.2l-38.4 1.2c-51.1 1.6-102.3 3.1-153.6 4.4 14.2 4.7 24.7 10.5 29.7 17v.1c15.9-.2 31.7-.3 47.5-.5 289.7-19.5 586.6-27.5 885.6-17.7 5.9.1 10.7 1.4 10.7 3.1.1 1.6-4.5 2.9-9.7 2.7-45.1-1.4-90.2-2.4-135.2-3.2-22.5-.4-45-.7-67.5-.9l-33.7-.3c-11.2-.1-22.5 0-33.7 0 .2 0 .2.1.4.1 3.6 1 4.3 2.9.3 4-3.5 1-10.5.9-14.1-.1-4.1-1.2-3.7-3-.3-4-41.8.2-83.5.6-125.2 1.2-41.6.7-83.2 1.5-124.6 2.9-41.4 1.4-82.8 2.9-124 4.7-20.6.9-41.2 1.8-61.7 2.9-10.3.5-20.5 1-30.8 1.6-10.3.6-20.5 1.2-30.7 1.8l28.5-.3 28.5-.1 57.1-.1c38 0 76.1.1 114.1.3 19 .2 38 .3 57 .5 19 .3 38 .7 57 1 38 .8 76 1.8 114 3 16.6-1.8 33.1-3.7 50-5.4 4.6-.3 10.6.7 12.4 2.2 1.3 1.4-2.1 3-6.8 3.3-4.7.4-9.3.9-14 1.3 14.4.5 27.1 2.5 36.1 5.5s14.4 6.9 14.1 11.1c-1.7 8.6-26.5 14.9-56.4 14.2-40 .3-79.9.5-119.8.5l-119.6-.3c-8.6.4-17.2.9-25.9 1.3-8.7 1.3-17.3 2.6-26 3.9 31 1.1 61.9 2.1 92.9 3.3 30.9 1.3 61.8 2.7 92.7 4 30.9 1.4 61.7 2.8 92.5 4.2 30.8 1.4 61.6 2.8 92.3 4.5 10.5.1 19.5 2.7 19.7 5.7.2 3-8.4 5.4-19 5.3-13.5.5-27.1 1-40.7 1.5-13.6.5-27.1 1.1-40.7 1.6l-81.6 3c-27.2.9-54.5 1.8-81.8 2.7-13.6.4-27.3.8-41 1.2-13.7.4-27.3.9-41 1.3-54.7 1.7-109.5 3.3-164.4 4.6-54.9 1.4-109.8 2.7-164.8 4.1-36.1 6.4-72.3 12.9-108.6 19.4l-27.3 4.8c-9.1 1.7-18.2 3.3-27.4 5-18.3 3.3-36.6 6.6-55 9.9 9.3.2 18.7.3 28.1.3 14.9-.1 29.7-.3 44.4-.6 14.7-.4 29.2-.7 43.7-1.2 28.9-1 57.3-2.4 85.4-4.2 28.1-1.7 55.9-3.8 83.6-6.1 27.6-2.4 55.1-4.7 82.5-7 109.6-9.4 218.3-20.1 334.2-22.2 5.8-.3 10.6 1 11.4 2.6.6 1.5-3.3 3-9.2 2.9-28.3.9-55.9 2.3-83.3 4-13.7.9-27.3 1.7-40.8 2.8l-40.5 3.3c-54 4.5-107.8 9.5-163.9 13.6-11.6.8-23.1 1.7-34.6 2.5s-22.9 1.8-34.2 2.7c-22.7 1.8-45.1 3.6-67.4 5.5-44.5 3.8-88.1 7.9-131.2 12.7 44.1-.8 87.7-2.4 131.1-4.5 21.7-1 43.3-2.2 64.9-3.4l32.4-1.8c10.8-.6 21.6-1.2 32.3-1.8 43.1-2.4 86.1-4.8 129.3-7.1 43.2-2.2 86.6-4.4 130.3-5.6 7.6-.6 15.3.2 20.2 1.9.4-.8 2-1.6 4.3-2.1 21.9-3.9 45.7-6.6 70.1-8.7 4.7-.6 10.5.1 13 1.8 2.9 1.9.1 3.4-5.1 4.2zM260.2 1731.5c-1.7-.6-3.2-1.1-4.5-1.6 4.8.7 9.9 1.4 15.6 2.3l22.2 11.1c.1 0-16.7-5.8-33.3-11.8zM-8 1791.4h.2c-7.4-3.6-12.8-6.1-12.8-6.1 5.1 2.5 9.2 4.5 12.6 6.1zm825.7-836.8c-11.7.2-23.3.4-34.9.5-11.6.1-23.2.2-34.9.4-23.2.2-46.4.1-69.5-.1-46.3-.5-92.5-2-138.6-4.7 22.5-1.2 44.9-2.5 67.4-3.7 35 .9 70 2 105.1 3.3 17.5.7 35.1 1.3 52.7 2l13.2.5 13.2.6c8.7.4 17.5.8 26.3 1.2zM75.9 1695.3c24.9 4.9 44.4 11.7 62.9 18.7 8-1.2 16.2-2.2 24.6-2.9 8.3-.7 16.8-1.2 25.3-1.5 45.8-1.5 90.6-2.2 134.6-2.2-5.9-4 4.6-4 10-4.8 5.5-.6 11-1.3 16.5-1.9-47-.6-94.2-1.5-142.2-2.7-43.4-1.1-90.4-.2-131.7-2.7zm-326.2 36.2c-1.4-.5-2.6-.9-4.1-1.3l8.3-7s-1.9 3.5-4.2 8.3zm-13.1 11.7c2.2.2 4.4.3 6.8.5-2.3 2.6-4.6 1.8-6.8-.5zm62 4.3c-3.7-1.5-6-2.4-8.9-2.9l8.9 2.9zm55.4 186.3l21.9-33.6-24.2 32.5 2.3 1.1z"/><path class="st5" d="M-261.4 2041.5c3.8.9 7.6 1.9 11.3 2.8-7.2 1.9-17.9 2-30.1 1.3 29.6 5.5 61.5 8.6 94.3 9.8 16.4.6 33 .7 49.7.5 16.7-.2 33.3-.8 49.9-1.7 66.2-3.8 130.2-13.4 180.3-25.2 36.2.8 68.4-6 71.9-15.4 3.4-9.4-23.3-17.8-59.9-18.7-8-1.2-17.4-1.8-23.3-3.4-52.2-14.3-116-24-186.4-31.1 13.6 2.7 27.7 5.4 41.3 8.1-20.3-2.2-40.4-4.5-63.1-4.5 2.4 1.7 5.5 3.4 7.9 5.2-8.8-1.5-17.9-2.8-27.3-3.8-9.4-1-19.1-1.6-28.9-2-19.6-.8-39.6-.7-59 .4-38.7 2.2-74.7 8.2-98.8 17.4-48.3 18.5-30.8 43 39.1 54.7l31.1 5.6z"/><path class="st5" d="M-130.7 2094.8c-10.4-1.5-20.8-3-31.1-4.5s-20.5-3-30.6-4.5c-20.3-3.1-40.4-6.2-60.5-9.4l-8-3.1 2.8 14.4.8-.9c18.7-6.3 43.6-10.8 70.9-14.3 13.7-1.7 27.9-3.2 42.3-4.5 14.4-1.2 29-2.2 43.3-3.2l20.4-2.2c9.8-1.9 16.2-4.8 18.2-7.8 4.7-7-13.1-13.4-39.8-14.5l-30.7-1.1c-4.7-.5-9.5-1-14.5-1.4-5-.4-10.1-.8-15.3-1.1-10.5-.6-21.4-1.1-32.5-1.4-22.2-.6-45.2-.4-67.2.8-44 2.4-83.7 8.9-104.4 21.4-9.3 5.8-1 12.9 1.1 19.5-2.7 9.6 25.5 17.7 62.8 17.9 37.4.3 69.4-7.3 71.8-17 6.3.6 12.9 1.2 19.1 1.8-4.9 1.3-9.9 2.4-14.9 3.6 10.5-8.5 44.5-10.7 69.8-15.4 12.7-.9 25.3-1.7 38-2.6l-21.6-22.3c-6.6 1-13.2 2.1-19.8 3.1 1.5.9 4.4 2.3 4.2 2.4-37.6 6.5-72.9 13-114.1 17.4l-51.7 8.7c-14 4.4-12.5 10.7 2.8 14.5l23 4.6c-3.5-1-7-1.8-10.4-2.8 53 4.5 108.9 6.9 161.3 11.7 8.3 1 18.4 0 22.7-2.2 4-2.1.4-4.7-8.2-5.6zm-186.9 4.9c-8.6-1.6-16.9-3.4-29.1-2.8-2.9 1-4.4 1.6-5.2 1.8 4.5 1 10.7 2.3 16.8 3.7 12.1 2.6 18.3.4 17.5-2.7zm-34.3-1l-7-1.5c1.6.7 3.2 1.4 4.7 2.1 1.3-.2 1.4-.2 1.4-.2l.9-.4zm1414.1-666c81.9 5.7 163.8 12 245.9 17.6 20.5 1.4 41 2.8 61.6 4.2l15.4 1 15.4 1.1 30.8 2.2c41.1 2.9 82.1 5.8 123.2 8.7 5.5.4 10.2-.4 10.5-1.8.3-1.2-3.9-2.7-9-3-164.4-11.7-327.9-23.4-491.5-35.1-5.5-.3-10.1.5-10.9 1.8-.3 1.5 3.5 2.9 8.6 3.3zm1216.7 210c-4 .8-3.9 2.2 0 3.5 3.4 1.1 9.5 1.7 13.5.9 3.3-.7 3.3-2.4-.1-3.5-3.9-1.3-10.1-1.5-13.4-.9z"/><path class="st5" d="M2235.9 1748.7c-23 .4-44.8 1.1-64.4 3.4-3.6.3-7.7-.1-10.7-.9 1.2 2.3-3.3 4-11.6 4.4-20.4.9-41 1.5-61.8 2.1-20.8.6-41.7 1.1-62.7 1.4-42 .7-84.6.8-127.4.7-85.6-.4-172.4-.8-258.5-1.2-1.2 1.7-3.6 3.4-7.6 4.8-6.1 2.5-15.1 4-25.8 4.7-10.6.7-22.8.5-35.1-.7l-18.6-2.4c-75.2-7.2-150.3-14.3-225.1-21.4-15.5 1.8-33.4 2.6-52.7 2.2-32.6 1.9-65.2 3.7-98 5.2-16.4.8-32.9 1.5-49.4 2.1-16.5.7-33.1 1.4-49.8 1.9 4.1 1.7 6.6 3.7 6.4 5.7-1.5 4.8-17.1 7.7-35 6.7-9.1-.3-18.1-.6-27.2-.9 25.9 2.3 51.9 4.6 77.8 7.1 3.7.2 7.2.7 10.3 1.3 14.2.7 28.6 1.4 43 2.1 14.4.7 28.9 1.2 43.6 1.7 255.7 7.6 496.9 3.5 736.7-2 4-.5 10.1 0 13.5 1.4 2.2 1.3 1.7 2.9-2.7 3.2-19 1.8-37.6 3.7-56.1 5.7s-36.7 4-54.9 6.3c-36.4 4.4-72.4 9-109.1 13.3-36.6 4.3-73.8 8.2-112.5 11.5-38.7 3.5-78.9 6.2-121.6 7.9-203 7.6-403.1 14.5-610.5 18.2-54.1-2-107.2-3.2-159.9-4-26.3-.4-52.6-.6-78.8-.7-26.2 0-52.4.1-78.6.3-52.4.4-105 1-158.2 1.7-53.3.9-107.2 2-162.4 2.7-37.3.5-74.3.9-111.1 1.4-36.8.5-73.4.8-109.9 1.1-36.5.3-72.7.3-108.9.4-36.2.2-72.3.4-108.3.4-36 .1-72 0-108-.1-36 0-72 .1-108 .1s-72.1-.1-108.3-.1c-9 0-18.1 0-27.2-.1h-27.2c-18.2.1-36.3.1-54.6.2-54.6 1.9-107-2.3-147.4-10.4-10.1-2-19.5-4.3-28-6.8s-16.1-5.1-22.6-8c-13.1-5.7-22-12.3-25.6-19.3-8.3-17.2 16.4-33.7 61.4-44.9-9-.1-17.8-.2-26.7-.3l-42.3-3.2c-40.1-3.2-74.3-10.1-95.9-19.7l-29.7-11.8c-9.9-5.6-21.3-11-33.4-16.3-12.1-5.3-24.8-10.5-37.4-15.6-25.1-10.3-49.2-20.7-65.5-32.4l7.2-9-7.7-2.5c-25.3-6.3-42.4-14.6-48.4-23.7l2.3-10.8c5.2-12.4 17.7-24.2 37.9-35.4-.8-4.6 1.6-9.1 6.9-13.4-17.4-10.9-25.8-22.4-12.2-35.4-10.5-3.1-8.8-7.8 3.6-10.7 4.3-1 9.4-1.6 14.7-1.8h-.1c-5.8-2.8-7.5-3.6-15.2-6.6-10.4-.8-16.4-1.5-16.4-1.5-27.6-1.6-27.6-1.6-51.6-3.2-20.6-3.6-33.4-8.7-33.4-8.7-23-19.1-23-19.1-19.6-27.5 1.3-.8 2.8-1.7 4.4-2.4-18.3-2.6-19.6-2.8-24.5-3.6-5.2-1.4-8.7-3.1-8.7-3.1-.9-4.5-.9-4.5-4-6.1-1-1.7-.8-3.4-.8-3.4 10.1-5.1 10.1-5.1 10.4-6.5 2.4-1.4 5.7-2.5 5.7-2.5 11.9-1.6 16.7-2.3 18.7-2.6l25.8 11.3 5.5-4.1 6 5.3-3.4-4.9 13 2.8-14.9-4.1c30.7 1.5 30.7 1.5 42.9 1.1 12.8.4 23.7-.8 25-1-1.1-1.5-1.2-2.6-1.2-2.6 32.8 1.5 32.8 1.5 64.8 3.3 3 1 5.3 2.1 7.5 3.1 3.1-1.4 9.2-2.2 15.5-1.9 5.6.2 11.2.5 16.8.7 1.3-.3 2.5-.5 3.6-.7v-.4c5.7-1 9.6-1.6 14.1-2.4 2.8-.6 2.9-.6 2.9-.6s.1 0 .2.1c9.7-1.6 23.8-4 61.2-10.2 9.9.5 19.2 1.3 27.9 2.2-2.8-.7-5.5-1.4-8.1-2.2-5.2-1.5-.5-5.8-3.3-6.2-17.5-2.2-35.4-4.1-53.6-5.7-18.2-1.6-36.7-3.1-55.3-4.2-37.3-2.3-75.2-4-112.8-6.1-13.5.7-26.2-1.7-28.2-5.2-1.8-3.5 7.8-6.8 21.6-7.4 38.1-6.2 78.4-10.8 119.8-13.9 5.2-.4 10.4-.8 15.6-1.1 5.2-.3 10.5-.6 15.7-.9 10.5-.5 21-1 31.6-1.3 21.2-.7 42.5-1.1 63.9-1.2 42.8-.1 85.7 1.1 127.7 3.4 42 2.5 83.1 6.3 122.3 10.9 41.3 2.3 82.7 4.3 124.4 6.2-2-.7-4-1.4-5.9-2.2 10.8 1.2 21.5 2.3 32.3 3.5 1.2.1 2.3.1 3.5.2-8.2-2.7-16.3-5.4-24.4-8-5.6-.9-11.2-1.6-16.9-2.3-48.3-1.7-94.3-5.6-139.9-10.1-45.6-4.4-90.8-9.6-137.5-13.2-50.2-4-93.3-11.3-140.7-16.6-12.2-.4-20.7-3.1-19.3-6.4 1.4-3.1 12.8-5.3 24.7-5 39.6-1.6 80.5-2.5 121.7-2.5 20.6 0 41.2.1 61.8.5 20.5.5 41 1.3 61.2 2.3 40.4 2 79.8 5 117 9.2 18.6 2.1 36.7 4.5 54 7.2 17.4 2.7 34 5.9 49.8 9.3 28.9.4 56.7 2.7 79.7 7.7.4 0 .9.1 1.3.1-6.1-2.3-11.7-4.4-17.7-6.7 21.6 1.8 33 7.3 52.7 9.7-2.2-3-5-6-7.2-9 26.6 1.6 53.8 2.7 81.1 3.6 13.7.4 27.3 1 41 1.5 13.7.6 27.3 1.1 40.9 1.7 54.4 2.4 107.8 5.7 157 12.8 4 .2 7.7.6 11.4 1 42.5-5.5 85.6-10.7 136-10.5-17-1.3-33.7-2.5-50.7-3.8 36.6-3.1 72.9-5.1 112.1-3.9 53 1.3 109 6.5 158.7 14.2 49.7 7.7 93.1 18.1 120.7 30.5 12.8.1 25.7.4 38.5.6l38.5.7c25.7.5 51.3.9 77 1.4 51.3.9 102.7 1.6 154 2.8 51.3 1.1 102.6 2.1 153.9 2.9 12.8.2 25.6.4 38.5.6 12.8.3 25.6.5 38.4.8 25.6.4 51.2.9 76.8 1.3 10.6.1 20 2.4 21.8 5.1 1 2.7-6.1 4.9-16.7 4.8-36.8.7-73.7 1.2-110.7 1.4-37 .4-74.1.7-111.2.7-37.2.1-74.4 0-111.6-.2-9.3-.1-18.6-.1-28-.2h-28c-18.6 0-37.3-.1-56-.1 62.2 4.2 124.6 8.5 187.4 12.7 31.4 2 62.9 4 94.5 5.8 15.8.9 31.7 1.7 47.5 2.6 15.9.9 31.8 1.8 47.7 2.6 16.3.3 32.7.6 49.1 1 16.2.3 32.3 1.7 48.2 3.5 20.4.9 40.6 1.8 60.8 2.7 10.1.5 20.1.9 30.2 1.4 10 .5 20.1 1 30.1 1.5 40 2 79.8 3.9 119.8 5.7 20 .9 40 1.7 60 2.4 20.1.7 40.2 1.4 60.4 2.2 40.5 1.4 81.4 2.5 123 3.1 71.2 1 137.9 1.9 204.6 2.7 66.7.8 133.3 1.1 204.3 1.8 49.8.4 98.6.8 146.7 1.2 12 .1 24 .2 36 .4s23.9.4 35.8.7c23.8.5 47.6 1 71.3 1.6 23.7.6 47.4 1.3 71.2 2.2 11.9.4 23.7.9 35.6 1.3 11.9.5 23.8 1 35.7 1.6 47.7 2.5 95.9 5.5 144.9 9.4 26.1 1.2 49.9 8 52.4 15 2.6 7-16.8 11.7-43 10.4-51.3-1.4-102.5-2.7-153.6-4.1l-19.2-.5-19.2-.4c-12.8-.3-25.6-.5-38.3-.8-25.6-.5-51.1-1-76.6-1.6-25.5-.6-51.1-1.1-76.6-1.7-12.8-.3-25.6-.6-38.3-.8-12.8-.2-25.6-.5-38.4-.7-51.2-1-102.4-2-153.8-3.3-12.8-.3-25.7-.7-38.5-1l-38.6-.9c-25.8-.6-51.6-1.3-77.4-2-25.8-.7-51.7-1.5-77.7-2.4-25.9-.9-52-1.8-78-2.7-52.2-1.7-104.6-3.8-157.3-6.3-26.4-1.3-52.8-2.6-79.3-3.9-26.5-1.3-53.2-2.7-79.9-4.2-46.1-2.7-91.5-5.3-136.6-7.9.5.9 1 1.9 1 2.8-.2 3.7-4.6 6.9-12 9.4 51.2 3.4 102.8 7.4 154.6 11.9 18.1-.1 36.1-.2 54.2-.2 18.1-.1 36.2-.1 54.3 0 36.3.2 72.7.7 109.4 1.5s73.7 2 111.1 3.8c37.4 1.9 75.2 4.5 113.6 7.8 26.3 2.3 52 4.9 77.2 7.7 12.6 1.4 25.1 2.9 37.5 4.3 6.2.8 12.4 1.5 18.6 2.3 6.2.8 12.3 1.6 18.4 2.4 49 6.6 97 13.6 145.5 20.5 15.5.5 30.9 1 46.4 1.5s30.9.9 46.4 1.5c30.9 1.1 61.9 2.2 92.9 3.3 31 1.1 62 2.3 93.1 3.4 15.5.6 31.1 1.2 46.7 1.9 15.6.8 31.2 1.5 46.8 2.3 5-.1 10.1 1 11.8 2.5 1.7 1.5-1.1 2.6-6.2 2.6-21.6.4-43.3.6-65.1.9-21.8.3-43.8.4-65.8.5-44 .1-88.4-.1-132.9-.5 13.7 5.2 21.6 11.3 20.1 17.2-1.5 6.1-12.8 10.9-29.6 13.6l60.2 4.8c12.4 1.1 22 4.2 21.4 7.3-.5 3.3-10.6 5-22.4 4.1-20.5-1.6-40.9-3.2-61.4-4.8-10.2-.8-20.5-1.6-30.7-2.4l-30.7-2.2c-40.9-3-81.8-5.9-122.7-8.9l-73.8-2.4c-12.3-.5-24.6-.8-36.9-1.2l-36.9-1.1c-49.1-1.5-98.3-3.1-147.6-4.9 13.4 4.9 23.1 10.6 27.6 16.5v.1c15.2.8 30.4 1.5 45.6 2.3 278.9-.5 564.1 9.8 850.4 36.6 5.6.4 10.2 1.9 10.1 3.4 0 1.4-4.5 2.3-9.5 1.8-43.2-3.9-86.4-7.5-129.5-10.9-21.6-1.7-43.1-3.3-64.7-4.8-10.8-.8-21.5-1.5-32.3-2.3-10.8-.7-21.5-1.3-32.3-2 .1 0 .2.1.3.1 3.4 1.1 3.9 2.8 0 3.5-3.4.7-10.1.2-13.5-.9-3.9-1.3-3.4-2.8-.1-3.5-40.1-2.3-80.2-4.4-120.1-6.3-40-1.8-79.9-3.7-119.7-4.8-39.8-1.2-79.6-2.2-119.2-3.1-19.8-.4-39.6-.7-59.4-1.1-9.9-.1-19.8-.3-29.6-.4-9.9-.1-19.7-.1-29.6-.2l27.4 1.4 27.4 1.6 54.7 3.2c36.5 2.2 73 4.5 109.5 6.9 18.2 1.2 36.5 2.5 54.7 3.7 18.2 1.4 36.4 2.8 54.6 4.3 36.4 2.9 72.8 6.1 109.2 9.4 16-.6 32-1.3 48.3-1.8 4.4 0 10.1 1.3 11.8 2.7 1.1 1.3-2.2 2.5-6.7 2.5-4.5.1-9 .2-13.5.4 13.8 1.3 25.9 3.8 34.4 6.9 8.5 3.1 13.5 6.9 13 10.5-1 3.7-7.6 6.5-17.5 8.2-9.9 1.7-23 2.1-37.4.9-38.4-2.1-76.7-4.3-114.9-6.7-19.1-1.2-38.2-2.4-57.4-3.6l-28.7-1.9-28.7-1.8-24.9-.3c-8.4.6-16.8 1.3-25.2 1.9 29.7 2.7 59.3 5.4 88.9 8.3 29.6 3 59.2 6 88.7 9s59 6.1 88.5 9.1c29.5 3.1 58.9 6.1 88.3 9.5 10.1.7 18.6 3.5 18.6 6.2 0 2.6-8.3 4.2-18.5 3.5-13-.4-26-.7-39.1-1.1-13-.3-26.1-.7-39.1-1-26.1-.7-52.2-1.5-78.4-2.2-26.2-.8-52.4-1.7-78.6-2.5-13.1-.5-26.2-.9-39.3-1.4-13.1-.4-26.3-.8-39.4-1.2-52.6-1.6-105.2-3.5-157.9-5.5-13.2-.5-26.4-1-39.5-1.5-13.2-.5-26.4-.9-39.6-1.4-26.4-1-52.8-1.9-79.2-2.9a182516.124 182516.124 0 01-131.6 13.5c-8.8.9-17.7 1.9-26.5 2.8-17.7 1.9-35.5 3.7-53.3 5.6 8.9.7 17.9 1.3 26.9 1.8 14.3.8 28.5 1.4 42.6 2 14.1.5 28.1 1.1 41.9 1.4 27.7.8 55.1 1.2 82.2 1.2s53.9-.2 80.5-.5c26.6-.5 53.1-.9 79.5-1.4 105.6-1.8 210.5-5 321.7.1 5.6.1 10.1 1.5 10.8 2.9.5 1.4-3.4 2.4-9 2-27.2-.9-53.8-1.3-80.1-1.4-13.2 0-26.2-.1-39.3 0-13 .2-26.1.3-39.1.5-52 .8-103.9 2.1-157.9 2.4-11.2.1-22.3.1-33.3.2-11 .1-22 .2-33 .4-21.9.3-43.5.6-64.9 1-42.8.8-84.9 1.8-126.5 3.6 42.3 1.8 84.3 2.9 126 3.6 20.9.3 41.7.6 62.4.8 10.4.1 20.8.2 31.1.2l31.1.3c41.5.4 82.9.8 124.4 1.3 41.6.6 83.3 1.1 125.2 2.7 7.4-.1 14.7 1.1 19.3 2.8.4-.7 2-1.3 4.3-1.5 21.2-2.1 44.2-3 67.7-3.5 4.5-.3 10.1.7 12.4 2.3 2.6 1.4-.2 2.5-5.2 2.9zM189.3 2145.6c-1.6-.6-3-1.1-4.2-1.6 4.6.8 9.5 1.7 14.9 2.7l20.8 10.7c-.1 0-15.8-5.8-31.5-11.8zm-260.5 40.1h.1l-12-6c5 2.5 8.8 4.4 11.9 6zM694 1455.6c-11.2-.5-22.4-1-33.5-1.4-11.2-.5-22.3-1-33.5-1.5-22.3-1.1-44.5-2.3-66.7-3.7-44.4-2.9-88.6-6.5-132.8-11.3 21.7.1 43.2.2 64.8.2 33.5 2.6 67.1 5.4 100.7 8.3l50.4 4.5 12.6 1.2 12.6 1.2c8.5.8 16.9 1.6 25.4 2.5zM14.3 2105.3c23.6 5.5 42 12.3 59.4 19.3 7.8-.7 15.7-1.2 23.7-1.4 8-.2 16.2-.3 24.4-.1 44.1.8 87 2.3 129.3 4.3-5.5-3.8 4.7-3.3 9.8-3.8l15.9-.9c-45.1-2.7-90.3-5.8-136.4-9-41.5-3-86.6-4.3-126.1-8.4zm-314.9 17c-1.3-.5-2.4-.9-3.9-1.3l8.4-5.7c-.1-.1-2 2.9-4.5 7zm-13.2 9.7c2.1.2 4.2.5 6.5.7-2.4 2.1-4.5 1.4-6.5-.7zm59.3 6.5c-3.5-1.5-5.7-2.4-8.4-3 8.4 2.9 8.4 3 8.4 3zm43.6 165.6l22.7-28.5-24.8 27.4 2.1 1.1z"/><path class="st6" d="M-9.8 2476.5c3.7.7 7.4 1.5 11 2.2-6.8 2.4-17 3.2-28.8 3.1 28.8 3.9 59.6 5.3 91.1 4.6 7.9-.2 15.8-.5 23.8-.9 7.9-.4 15.9-1 23.9-1.5 16-1.1 31.9-2.6 47.8-4.5 63.3-7.6 124-21.1 171.5-36.2 34.8-1 65.3-9.7 68.1-19.7 2.7-10-23.4-17.3-58.6-16.4-7.8-.8-16.9-1-22.5-2.3-51-12-112.9-18.5-181-22 13.2 2 27 4.1 40.2 6.1-19.7-1.1-39.1-2.4-60.9-1.2 2.4 1.6 5.5 3.3 7.9 4.9-8.5-1.1-17.4-1.9-26.5-2.4-9.1-.5-18.5-.6-27.9-.4-18.9.3-38.1 1.6-56.7 3.9-37.1 4.6-71.3 13-93.8 24-45.1 22.1-26.7 46.5 41.2 54.5l30.2 4.2z"/><path class="st6" d="M118.9 2524.2c-5.1-.5-10.1-1-15.1-1.5s-10-.9-15-1.4c-9.9-1-19.8-1.9-29.6-2.9-19.6-2-39.1-4-58.6-6.1l-7.8-2.8 3.7 14.8.7-1c17.5-7.6 41.1-13.8 67-19 13-2.6 26.6-5 40.3-7.2 13.8-2.1 27.7-3.9 41.3-5.7l19.4-3.4c9.2-2.5 15.3-5.9 17-9.2 4.1-7.5-13.4-13.2-39-12.8l-29.5.5c-4.5-.3-9.2-.5-14-.6-4.8-.1-9.7-.2-14.8-.2-10.1-.1-20.6.1-31.2.4-21.3.7-43.4 2.3-64.4 4.8-42 5.1-79.7 14.2-98.7 28.4-8.5 6.6-.1 13.4 2.4 20.2-1.9 10.1 25.6 16.8 61.4 14.9 35.8-1.9 66-11.7 67.7-21.9 6.1.2 12.4.5 18.5.7-4.6 1.6-9.4 3.1-14.1 4.6 9.5-9.4 41.9-13.8 65.9-20.2l9.1-1.3 9.1-1.2 18.1-2.4-22.1-22c-6.3 1.4-12.5 2.9-18.8 4.4 1.5.9 4.4 2.1 4.2 2.3-35.6 9-69.1 17.9-108.2 24.9l-49 12.1c-13.1 5.4-11.3 11.9 3.7 14.9l22.4 3.4c-3.4-.8-6.8-1.4-10.2-2.2 51.1 1.5 104.8.7 155.3 2.6 8 .6 17.6-1 21.6-3.5 3.2-2.4-.4-4.9-8.7-5.4zm-178.7 16.2c-8.4-1.2-16.4-2.5-28.1-1.2-2.7 1.3-4.1 1.9-4.9 2.2 4.4.8 10.4 1.8 16.4 2.8 11.7 2 17.5-.6 16.6-3.8zm-33 1c-4.1-.7-6.8-1.2-6.8-1.2 1.6.7 3.2 1.3 4.6 1.9l1.3-.3s.1 0 .9-.4zm1319.4-762.2c78.7 3.9 157.6 9.1 236.5 13.3 19.7 1.1 39.5 2.2 59.2 3.2l14.8.8 14.8.9 29.6 1.9c39.5 2.4 78.9 4.8 118.4 7.2 5.3.3 9.8-.5 10.1-2 .3-1.3-3.7-2.7-8.6-2.9-39.5-2.4-78.9-4.9-118.3-7.3-9.9-.6-19.7-1.3-29.6-1.9l-14.8-.9-14.8-.8-59.1-3.3c-39.4-2.2-78.7-4.5-118.1-6.8l-29.5-1.8-14.8-.9-14.8-.8-59-3.1c-5.3-.2-9.7.8-10.5 2.1-.1 1.5 3.6 2.9 8.5 3.1zm1168 203.9c-3.8.8-3.8 2.3 0 3.7 3.2 1.1 9.1 1.7 12.9.9 3.2-.7 3.2-2.5 0-3.6-3.8-1.4-9.7-1.7-12.9-1z"/><path class="st6" d="M2352.3 2093.6c-22 .4-42.8 1.3-61.5 3.8-3.5.3-7.3-.1-10.2-.9 1.1 2.4-3.2 4.2-11.1 4.6-9.8.5-19.6.9-29.4 1.3-9.8.4-19.7.7-29.6 1.1-19.8.8-39.8 1.4-59.9 1.9-40.2 1-80.8 1.5-121.7 1.6-40.9 0-82 .5-123.2.7-41.2.3-82.4.5-123.5.8-1.2 1.8-3.5 3.5-7.2 5.1-2.9 1.3-6.5 2.4-10.7 3.3-4.1.9-8.8 1.5-13.9 2-10.1.9-21.7.9-33.5-.1l-17.7-2.2c-35.9-3.3-71.8-6.4-107.6-9.5-17.9-1.6-35.8-3.2-53.7-4.7l-13.4-1.2-13.4-1.1c-8.9-.7-17.9-1.5-26.8-2.2-14.7 2.2-31.8 3.4-50.3 3.3-31.1 2.6-62.2 5.1-93.5 7.3-15.6 1.1-31.3 2.2-47.1 3.2-15.8 1.1-31.6 2.2-47.5 3.2 4 1.7 6.3 3.7 6.2 5.8-1.4 5-16.1 8.4-33.3 7.8l-25.9-.3c24.8 1.8 49.6 3.6 74.3 5.6 3.6.2 6.9.6 9.9 1.1l20.4.6c6.8.2 13.7.4 20.6.7 13.8.4 27.6.7 41.6.9 30.5.5 60.7.7 90.8.7 15 0 30 0 45-.1 14.9-.1 29.8-.3 44.7-.3 59.4-.1 118.2-1.1 176.5-2.5 14.6-.4 29.1-.8 43.6-1.2l43.5-.9a12194.405 12194.405 0 00172.8-5.4l10.8-.4 10.7-.3 21.5-.6c14.3-.4 28.6-.9 42.9-1.3 3.8-.5 9.6 0 12.9 1.4 2.1 1.3 1.6 3-2.6 3.4-18.1 2-35.9 4.1-53.6 6.3-8.8 1.1-17.6 2.3-26.3 3.4-2.2.3-4.4.6-6.5.9-2.2.3-4.4.6-6.5.9-4.4.6-8.7 1.3-13 1.9-34.7 5-69.1 10.2-104 15s-70.4 9.4-107.2 13.2c-36.9 4.2-75.2 7.7-115.8 10-193.3 10.8-383.7 22.4-580.9 31.1-51.5-.6-102.1-.5-152.2.2-25.1.3-50 .8-74.9 1.4-24.9.8-49.8 1.8-74.7 2.8-49.8 2-99.8 4.3-150.4 6.6-50.6 2.8-101.8 5.8-154.3 8.5-17.7.9-35.4 1.8-53 2.7-8.8.4-17.6.9-26.3 1.3-8.8.5-17.5 1-26.3 1.5-35 1.9-69.7 3.7-104.4 5.4-34.6 1.6-69.1 3.1-103.5 4.7-34.4 1.8-68.6 3.5-102.9 5.1-34.2 1.6-68.4 3.1-102.6 4.5l-12.8.5-12.8.6-25.6 1.3c-17.1.9-34.2 1.7-51.3 2.6-34.2 1.6-68.5 3.3-102.8 4.9l-25.8 1.2-12.9.6c-4.3.2-8.6.5-12.9.7-17.2 1-34.5 2-51.8 2.9-51.8 4.7-101.6 3.1-140.5-3.4-9.7-1.6-18.8-3.5-27-5.6-8.2-2.1-15.6-4.5-22-7.1-12.8-5.3-21.7-11.6-25.5-18.7-4.4-8.7-1.1-17.7 8.7-26.2 4.9-4.3 11.4-8.5 19.3-12.5s17.2-7.9 27.8-11.3c-8.5.4-17 .7-25.4 1.1l-40.5-1c-38.3-1.1-71.3-6.5-92.4-15.2l-29-10.6c-9.8-5.3-21-10.3-32.8-15.1-11.8-4.8-24.3-9.6-36.6-14.1-24.5-9.2-48.2-18.6-64.5-29.8l6.2-9.8-7.5-2.2c-24.6-5-41.4-12.7-47.7-21.8l1.5-11.4c4.1-13.2 15.3-26.2 33.8-39-1-4.7 1-9.6 5.7-14.3-17.4-10.3-26.1-21.8-14-36.1-10.2-2.6-8.9-7.6 2.8-11.3 4-1.2 8.9-2.2 14-2.8h-.1c-5.7-2.5-7.4-3.3-15-6-10-.3-15.8-.6-15.8-.6-26.5-.1-26.5-.1-49.5-.3-20-2.5-32.6-7.1-32.6-7.1-23.3-18.5-23.4-18.5-20.6-27.4 1.2-.9 2.6-1.9 4-2.8-17.7-1.6-18.9-1.7-23.7-2.3-5.1-1.2-8.6-2.7-8.6-2.7-1.1-4.6-1.1-4.6-4.3-6.1-1.1-1.7-1-3.5-1-3.5 9.4-5.9 9.4-5.9 9.5-7.4 2.2-1.6 5.3-2.9 5.3-2.9 11.3-2.4 15.8-3.4 17.7-3.8 25.4 10.2 25.5 10.3 25.5 10.3l5-4.5 6.1 5.1-3.6-4.8 12.6 2.2-14.5-3.4c29.5-.3 29.5-.3 41.2-1.3 12.3-.3 22.6-2.3 23.8-2.5-1.1-1.5-1.3-2.6-1.3-2.6 31.5-.3 31.5-.3 62.3-.4 2.9.9 5.2 1.9 7.4 2.8 2.8-1.6 8.6-2.8 14.7-2.9 5.4-.1 10.8-.2 16.1-.3 1.2-.3 2.3-.7 3.4-1 0-.2-.1-.4-.1-.4 5.4-1.3 9.1-2.2 13.4-3.2 2.7-.7 2.8-.8 2.8-.8s.1 0 .2.1c9.2-2.2 22.6-5.5 58-14 9.5 0 18.4.3 26.9.7-2.7-.6-5.4-1.1-7.9-1.8-5.1-1.3-.8-6.1-3.6-6.3-16.9-1.3-34.2-2.3-51.8-3-8.8-.3-17.6-.6-26.5-.8-4.4-.1-8.9-.2-13.4-.3-4.5 0-8.9-.1-13.4-.1-35.9-.2-72.3.3-108.5.4-12.9 1.5-25.2-.3-27.4-3.8-2-3.6 7-7.6 20.2-9 36.1-8.7 74.4-15.8 114-21.5 4.9-.7 9.9-1.4 14.9-2.1l15-1.8c10-1.1 20.1-2.2 30.3-3.1 20.3-1.9 40.7-3.5 61.3-4.7 41-2.5 82.3-3.6 122.7-3.5 40.5.4 80.1 2.2 118 5.1 39.7.3 79.6.2 119.6 0-2-.6-3.9-1.3-5.8-2 5.2.3 10.4.7 15.6 1 5.2.4 10.4.7 15.6 1.1h3.4c-8-2.4-15.9-4.8-23.8-7.2-5.4-.6-10.9-1.1-16.4-1.6-46.4.7-90.7-1-134.8-3.3-44-2.3-87.7-5.5-132.7-6.5-48.4-1.4-90.2-6.6-136.1-9.5-11.8.3-20.1-2.1-18.9-5.5 1.2-3.3 11.9-6.2 23.4-6.6 37.9-3.8 77.2-7 116.7-9.4 19.8-1.2 39.6-2.2 59.4-2.8 19.8-.5 39.4-.8 58.9-.8 38.9 0 76.9 1.1 112.9 3.6 18 1.2 35.5 2.8 52.3 4.7 8.4.9 16.7 2.1 24.7 3.3 8.1 1.2 15.9 2.6 23.6 4 27.8-1 54.6.2 76.9 4.3h1.2c-5.9-2-11.4-4.1-17.4-6.1 20.8.8 32.1 6 51.1 7.6-2.3-3-5.1-6-7.4-9 25.6.4 51.8.2 78-.1 13.1-.2 26.3-.2 39.5-.2h39.4c52.4.1 103.8 1.3 151.3 6.5 3.8.1 7.4.3 10.9.5 40.6-7.4 81.7-14.5 130.2-16.3-16.4-.7-32.4-1.3-48.9-2 35.1-4.7 69.9-8.1 107.5-8.4 50.9-.8 105 2.8 153 9 48 6.3 90 15.6 117 27.5 6.2-.1 12.3-.3 18.5-.4l18.5-.2 37-.5c24.7-.3 49.3-.7 74-1l74-1 18.5-.3 9.2-.1h9.2l37-.2c49.3-.3 98.6-.6 147.9-1.1 12.3-.1 24.6-.3 37-.4 12.3 0 24.6-.1 36.9-.1 24.6-.1 49.2-.3 73.8-.4 10.2-.2 19.2 2 21 4.8 1 2.7-5.8 5.3-15.9 5.4-35.3 1.6-70.7 2.9-106.3 4-8.9.2-17.8.7-26.7 1-8.9.3-17.8.7-26.7 1-17.8.6-35.6 1.2-53.5 1.8-35.7 1.1-71.4 2-107.2 2.8l-26.8.6c-8.9.3-17.9.6-26.8.8-17.9.5-35.8 1.1-53.7 1.6 15 .6 29.9 1.2 44.9 1.8l22.5.9 11.3.4 11.3.5c30 1.5 60.1 2.9 90.3 4.2 30.2 1.3 60.4 2.5 90.8 3.5 15.2.5 30.4.9 45.7 1.4 15.3.6 30.5 1.1 45.9 1.6 15.6 0 31.4-.1 47.1-.1 15.6-.1 31 1 46.4 2.5 19.6.5 39 .9 58.4 1.4 9.7.2 19.3.5 29 .7 9.6.3 19.3.7 28.9 1 38.5 1.3 76.7 2.6 115.1 3.6 19.2.5 38.4 1 57.7 1.4 9.6.2 19.3.4 29 .5l14.5.3c4.8.1 9.7.2 14.6.3 38.9.9 78.2 1.4 118.2 1.4 34.2 0 67.3-.1 99.9-.1 32.6.2 64.6.3 96.6.4 64.1.2 128.1-.5 196.3 0 47.9.1 94.7.2 141 .3 5.8 0 11.6 0 17.3.1 5.8 0 11.5 0 17.3.2 11.5.2 23 .4 34.4.6a7808.665 7808.665 0 01136.9 3.6c11.4.4 22.8.9 34.3 1.3 11.4.5 22.9.9 34.4 1.6 45.9 2.6 92.1 5.9 139.2 9.9 25.1 1.3 47.9 8.4 50.2 15.7 2.4 7.3-16.4 12.1-41.5 10.8-49.3-1.5-98.5-3-147.6-4.4l-18.4-.5-18.4-.3c-12.3-.2-24.6-.5-36.8-.7-24.5-.5-49.1-1-73.6-1.4l-73.6-1.5-18.4-.4c-6.1-.1-12.3-.3-18.4-.3-12.3-.2-24.6-.3-36.9-.5-49.2-.7-98.4-1.4-147.7-2.4-12.3-.3-24.7-.5-37-.8-12.3-.2-24.7-.3-37.1-.5-24.7-.3-49.5-.7-74.3-1.2-24.8-.5-49.7-1-74.6-1.6-12.5-.3-24.9-.7-37.4-1-6.2-.2-12.5-.4-18.7-.5-6.3-.1-12.5-.2-18.8-.4-50.1-1-100.4-2.4-151-4.2-12.7-.5-25.3-.9-38-1.4-6.3-.3-12.7-.5-19.1-.8-6.4-.2-12.7-.4-19.1-.6-25.5-.8-51.1-1.8-76.7-2.9-44.3-1.9-87.9-3.8-131.2-5.6.5 1 1 1.9 1 2.9-.1 3.9-4.3 7.2-11.3 10 49.2 2.6 98.7 5.8 148.4 9.4 17.3-.4 34.7-.9 52-1.3 17.4-.4 34.7-.9 52.1-.9 34.8-.3 69.8-.4 105-.1 35.2.3 70.8 1 106.7 2.3 35.9 1.6 72.2 3.9 109 6.9 25.3 2.1 49.9 4.6 74.1 7.2 12.1 1.3 24.1 2.7 36 4.1 6 .7 11.9 1.4 17.8 2.2l17.7 2.4c47 6.5 93 13.5 139.5 20.4l44.5 1.2c14.8.4 29.7.7 44.5 1.3 29.7 1 59.4 2.1 89.1 3.1 29.7 1.1 59.5 2.2 89.3 3.3 14.9.6 29.9 1.1 44.8 1.8 14.9.8 29.9 1.6 44.9 2.4 4.8-.1 9.7 1.1 11.3 2.6 1.6 1.5-1.1 2.7-6 2.7-10.4.2-20.8.3-31.2.5-5.2.1-10.4.1-15.6.2-5.2 0-10.4.1-15.7.2-21 .4-42 .6-63.1.7-42.2.3-84.8.2-127.5-.1 13.1 5.4 20.6 11.7 19.1 17.9-1.5 6.4-12.3 11.4-28.5 14.2l57.7 4.9c11.9 1.1 21 4.3 20.5 7.5-.5 3.5-10.2 5.2-21.5 4.3l-58.8-4.8-29.4-2.4-29.4-2.1c-39.2-2.8-78.3-5.6-117.5-8.4-23.6-.7-47.1-1.4-70.7-2-11.8-.4-23.5-.6-35.3-.9l-35.3-.8c-47.1-1-94.2-2.2-141.4-3.5 12.9 5 22.2 10.8 26.5 16.9v.1c14.6.6 29.1 1.3 43.6 1.9 33.4-.4 66.9-.8 100.5-.9 8.4 0 16.8-.1 25.2-.1 8.4.1 16.8.1 25.2.2l50.5.6c33.7.5 67.5 1.1 101.4 1.9 16.9.4 33.9.9 50.9 1.3 8.5.2 17 .6 25.5 1s17 .7 25.5 1.1c34 1.5 68 3.2 102.1 5 17 1 34.1 1.9 51.2 2.9s34.2 2 51.2 3.4c68.3 5.2 136.7 11.2 205.2 18 5.4.4 9.7 2 9.7 3.5s-4.3 2.4-9.1 1.8c-41.3-4.1-82.7-8-124-11.5-20.6-1.8-41.3-3.5-61.9-5.1l-30.9-2.4c-5.2-.4-10.3-.7-15.5-1l-15.5-1c.1 0 .2.1.3.1 3.3 1.1 3.7 2.9 0 3.6-3.2.7-9.7.2-12.9-.9-3.7-1.3-3.2-2.9-.1-3.6-38.4-2.3-76.8-4.4-115.1-6.2-19.1-.9-38.3-1.8-57.4-2.6l-14.3-.6c-4.8-.2-9.5-.4-14.3-.5-9.6-.3-19.1-.5-28.6-.8-38.2-1-76.2-1.8-114.2-2.3-19-.2-37.9-.5-56.9-.7-9.5-.1-18.9-.2-28.4-.2s-18.9.1-28.3.1l26.2 1.2c8.7.4 17.5.9 26.2 1.4l52.4 3c34.9 2 69.9 4.1 104.8 6.4 17.5 1.2 34.9 2.3 52.4 3.5 17.4 1.4 34.9 2.9 52.3 4.3 34.9 2.9 69.7 6.1 104.5 9.5 15.4-.7 30.7-1.4 46.3-2 4.2 0 9.7 1.3 11.2 2.8 1.1 1.3-2.1 2.6-6.5 2.6-4.3.1-8.6.3-12.9.4 13.2 1.3 24.7 3.9 32.9 7.1 8.1 3.2 12.8 7.2 12.3 11-.5 1.9-2.4 3.6-5.3 5.1-2.9 1.4-6.8 2.6-11.6 3.5-9.5 1.8-22.1 2.2-35.8 1.1-36.7-2-73.4-4.2-110-6.6l-54.9-3.6-27.4-1.9-27.4-1.6c-7.9-.1-15.9-.1-23.8-.2-8.1.7-16.1 1.4-24.1 2.1 14.2 1.3 28.4 2.6 42.5 4l21.3 2c7.1.7 14.2 1.3 21.2 2.1 28.3 3 56.6 6.1 84.8 9.1 28.2 3.1 56.4 6.2 84.6 9.2 14.1 1.6 28.2 3.1 42.2 4.7l10.5 1.2 10.5 1.3c7 .9 14 1.7 21.1 2.6 9.7.8 17.7 3.7 17.7 6.4s-8 4.4-17.7 3.6c-12.4-.4-24.9-.9-37.4-1.2l-37.4-.9c-25-.7-50-1.4-75-2-25-.8-50.1-1.6-75.1-2.4-12.5-.4-25.1-.9-37.6-1.3-12.6-.3-25.1-.7-37.7-1-50.3-1.3-100.6-2.9-151-4.6-12.6-.4-25.2-.9-37.8-1.3-6.3-.3-12.6-.4-18.9-.5l-18.9-.5-75.7-2.1c-33.4 4.1-66.9 8.2-100.5 12.4-8.4 1-16.8 2.1-25.2 3.1-8.4 1.1-16.9 2.2-25.3 3.3-16.9 2.2-33.9 4.4-50.9 6.6 8.5.6 17.1 1.1 25.7 1.5 13.7.6 27.3 1.1 40.7 1.4 3.4.1 6.7.2 10.1.2 3.4.1 6.7.2 10 .3 6.7.2 13.3.3 20 .5 26.5.5 52.6.6 78.5.4 25.9-.2 51.5-.8 76.9-1.5l38.1-1.2c6.3-.2 12.7-.4 19-.5 6.3-.2 12.6-.3 18.9-.5 100.9-2.6 201.2-6.9 307.5-1.8 5.3 0 9.7 1.6 10.3 3 .5 1.4-3.2 2.5-8.6 2.1-26-.8-51.4-1.2-76.5-1.2H2234c-6.3 0-12.5 0-18.7.2-12.5.3-24.9.5-37.3.8-49.7 1.2-99.3 2.9-150.9 3.6-10.7.1-21.3.3-31.9.4-10.6.1-21.1.5-31.5.7-20.9.5-41.5 1.1-62 1.7-40.9 1.3-81.1 2.9-120.8 5.2 40.4 1.4 80.5 2.1 120.3 2.3 19.9.1 39.8.1 59.6.1 9.9 0 19.8-.1 29.8-.1 9.9 0 19.8.1 29.7.1 39.6.1 79.2.3 118.9.4 19.9.1 39.7.3 59.7.6 5 .1 10 .1 15 .2l7.5.1 7.5.2c10 .3 20 .6 30 1 7-.1 14 1.1 18.4 2.9.4-.7 1.9-1.3 4.1-1.6 20.3-2.3 42.3-3.3 64.7-3.9 4.3-.3 9.6.7 11.8 2.4 1.9 1.1-.8 2.2-5.6 2.7zM428.4 2559.8c-1.6-.6-2.9-1-4.1-1.4 4.4.6 9.2 1.3 14.4 2.1l20.5 10.1c0-.1-15.4-5.3-30.8-10.8zm-246.8 55.7h.1c-6.9-3.2-11.8-5.5-11.8-5.5 4.8 2.2 8.6 4 11.7 5.5zm691.9-803.1c-21.5-.4-43-.7-64.4-1.1-21.4-.4-42.8-1-64.1-1.8-42.7-1.6-85.2-4.1-127.7-7.6 20.8-.6 41.5-1.2 62.2-1.8 32.2 1.7 64.5 3.5 96.9 5.5 16.2 1 32.3 2.1 48.5 3.1l12.1.8 12.2.9c8.1.7 16.2 1.3 24.3 2zm-615 714.8c23 4.4 41 10.4 58 16.8 7.4-1.1 14.9-2.1 22.6-2.8 7.7-.7 15.5-1.1 23.4-1.4 42.3-1.4 83.5-2.1 124.1-2.1-5.5-3.7 4.3-3.7 9.2-4.4 5.1-.6 10.1-1.2 15.2-1.7-43.3-.5-86.9-1.4-131.1-2.4-40-1.1-83.3.1-121.4-2zm-300.6 35.6c-1.3-.4-2.4-.8-3.8-1.2l7.6-6.4-3.8 7.6zm-11.9 10.9c2 .1 4 .3 6.2.4-2.1 2.3-4.1 1.6-6.2-.4zm57.2 3.2c-3.5-1.3-5.6-2.1-8.3-2.6 8.2 2.6 8.3 2.6 8.3 2.6zm52.5 169.6l19.9-30.9-21.9 29.9 2 1z"/><path class="st7" d="M214.3 2820.3c3.4.8 6.7 1.8 10 2.7-6.2 2.2-15.6 2.6-26.3 2.1 26.1 5 54.1 7.6 82.8 8.1 7.2.1 14.4.1 21.6 0 7.2-.1 14.5-.4 21.8-.6 14.6-.6 29.1-1.6 43.6-2.9 57.8-5.5 113.4-17.1 157-30.7 31.7.1 59.7-7.8 62.5-17.8 2.7-10-20.9-18.2-52.9-18.4-7.1-1.1-15.3-1.6-20.5-3.1-46.1-13.9-102.3-22.7-164.2-28.6 12 2.5 24.4 5.1 36.4 7.6-17.9-1.8-35.5-3.8-55.4-3.3 2.1 1.7 4.9 3.5 7 5.3-7.7-1.4-15.8-2.5-24.1-3.4-8.3-.8-16.8-1.2-25.4-1.5-17.2-.4-34.8.3-51.7 1.9-33.9 3.3-65.2 10.5-85.9 20.8-41.6 20.7-25.5 46.1 36.2 56.7l27.5 5.1z"/><path class="st7" d="M330.3 2873.4c-4.6-.7-9.2-1.4-13.7-2-4.5-.7-9.1-1.3-13.6-2-9-1.4-18-2.7-26.9-4-17.8-2.7-35.5-5.5-53.2-8.4l-7.1-3.1 3 15.2.7-1c16.2-7.1 37.7-12.5 61.5-16.8 11.9-2.2 24.3-4.1 36.9-5.8 12.6-1.6 25.3-3 37.7-4.3l17.7-2.8c8.5-2.2 14.1-5.4 15.7-8.7 3.9-7.5-11.9-13.9-35.2-14.4l-26.9-.5c-4.1-.4-8.4-.8-12.7-1.1-4.4-.3-8.9-.6-13.4-.8-9.2-.4-18.7-.7-28.4-.7-19.4-.1-39.6.7-58.8 2.5-38.4 3.6-72.9 11.4-90.6 25.1-7.9 6.3-.4 13.6 1.7 20.5-2 10.2 22.9 18 55.5 17.4 32.7-.6 60.4-9.4 62.2-19.7 5.5.5 11.3 1 16.8 1.4-4.3 1.4-8.6 2.7-12.9 4.2 8.9-9.2 38.5-12.4 60.5-18 11-1.3 22.1-2.4 33.1-3.6l-19.6-23c-5.7 1.2-11.5 2.5-17.2 3.8 1.4 1 3.9 2.3 3.7 2.4-32.7 7.8-63.3 15.5-99.2 21.2l-44.9 10.5c-12.1 5-10.6 11.6 3 15.2l20.3 4.3c-3.1-.9-6.1-1.7-9.2-2.6 46.5 3.5 95.4 4.6 141.4 8.4 7.3.9 16-.4 19.8-2.8 3-2.5-.2-5.2-7.7-6zm-163.2 9.8c-7.6-1.5-14.9-3.1-25.5-2.3-2.5 1.2-3.8 1.8-4.5 2.1 4 .9 9.4 2.2 14.8 3.5 10.6 2.4 16 0 15.2-3.3zm-30-.2c-3.7-.9-6.2-1.5-6.2-1.5l4.2 2.1 1.2-.2s0-.1.8-.4zm1122.8-706.2c71.6 5.1 143.3 11.2 215.1 16.4 17.9 1.3 35.9 2.6 53.8 3.9l13.5 1 13.5 1.1 26.9 2.1c35.9 2.8 71.8 5.6 107.7 8.3 4.8.4 8.9-.5 9.3-1.9.3-1.3-3.3-2.8-7.8-3.1-35.9-2.8-71.8-5.7-107.6-8.5-9-.7-17.9-1.4-26.9-2.2l-13.4-1.1-13.4-1c-17.9-1.3-35.8-2.7-53.7-4-35.8-2.7-71.6-5.4-107.4-8.3l-26.8-2.1-13.4-1.1-13.4-1-53.7-4c-4.8-.3-8.8.6-9.6 2-.5 1.7 2.8 3.1 7.3 3.5zm1060 214.9c-3.5.8-3.5 2.4-.1 3.7 2.9 1.2 8.3 1.7 11.7.9 2.9-.7 3-2.5.1-3.7-3.4-1.3-8.8-1.6-11.7-.9z"/><path class="st7" d="M2279.4 2503.6c-20 .4-39.1 1.2-56.2 3.7-3.2.3-6.7-.1-9.3-.9 1 2.5-3 4.3-10.2 4.6-8.9.5-17.8.9-26.8 1.3s-18 .7-27 1.1c-18.1.7-36.3 1.3-54.6 1.7-36.6.9-73.7 1.2-110.9 1.2h-224.9c-1.1 1.8-3.2 3.6-6.7 5.1-5.3 2.6-13.2 4.3-22.5 5.1-9.2.8-19.8.7-30.5-.4l-16.1-2.4c-32.6-3.6-65.3-7.1-97.9-10.6-16.3-1.8-32.6-3.5-48.8-5.3l-12.2-1.3-12.2-1.3c-8.1-.9-16.3-1.7-24.4-2.6-13.5 2-29 3.1-45.9 2.8-28.4 2.3-56.8 4.4-85.3 6.3-14.3 1-28.6 1.8-43 2.7-14.4.9-28.8 1.8-43.3 2.5 3.6 1.8 5.7 3.8 5.6 5.9-1.3 5.1-14.9 8.3-30.5 7.5l-23.6-.6c22.5 2.1 45.1 4.3 67.6 6.7 3.3.2 6.2.7 9 1.2 12.4.6 24.8 1.2 37.3 1.8 12.5.6 25.1 1 37.9 1.4 27.8.8 55.3 1.4 82.8 1.7 13.7.2 27.4.3 41 .4 13.6.1 27.2 0 40.7.2 54.2.4 107.7 0 160.9-1 13.3-.3 26.6-.5 39.8-.8 13.2-.2 26.5-.5 39.6-.7 26.4-.5 52.7-1.1 79-1.9 26.3-.7 52.5-1.6 78.6-2.5 26.2-.8 52.3-1.5 78.4-2.3 3.5-.5 8.8 0 11.7 1.4 1.9 1.4 1.4 3-2.4 3.4-16.6 1.9-32.8 4-49 6.2-16.1 2.2-32 4.4-47.9 6.9-31.7 4.9-63.2 9.9-95.1 14.6-31.9 4.7-64.3 9.1-98 12.7-33.7 3.9-68.7 7.1-105.8 9.1-176.5 9.3-350.2 18.6-530.2 24.5-46.9-1.5-93-2.2-138.7-2.3-22.9-.1-45.6 0-68.3.2-22.7.4-45.4.8-68.2 1.4-45.5 1.1-91 2.4-137.2 3.8-46.2 1.8-92.9 3.6-140.8 5.3-16.2.5-32.3 1-48.3 1.6-8 .2-16 .5-24 .7l-24 .9c-31.9 1.1-63.6 2.1-95.2 2.9-15.8.4-31.6.8-47.3 1.2-7.9.2-15.7.3-23.6.5-7.9.2-15.7.3-23.5.5-31.4.9-62.6 1.7-93.8 2.4s-62.4 1.3-93.6 1.9c-15.6.2-31.2.7-46.8 1.1-15.6.4-31.2.7-46.8 1.1-31.2.7-62.5 1.3-93.8 2-7.8.2-15.7.3-23.5.5l-11.8.2-11.8.3c-15.7.4-31.5.9-47.3 1.3-47.3 3.1-92.7-.1-128-7.9-8.8-1.9-17-4.2-24.4-6.6-7.4-2.4-14.1-5.1-19.8-7.9-11.5-5.8-19.5-12.5-22.7-19.8-3.8-9-.5-17.9 8.6-26.3 4.6-4.2 10.6-8.2 17.9-12 7.3-3.8 15.9-7.4 25.6-10.5l-23.2.3-36.8-2.4c-34.9-2.5-64.8-9-83.8-18.6l-26.2-11.8c-8.8-5.7-18.9-11.1-29.5-16.4-10.7-5.3-21.9-10.5-33-15.6-22.1-10.2-43.5-20.7-58-32.6l5.9-9.7-6.8-2.5c-22.2-6-37.4-14.4-42.9-23.8l1.6-11.5c4.1-13.2 14.6-26 31.8-38.2-.8-4.8 1.1-9.6 5.6-14.3-15.6-11.1-23.2-23-11.8-37.1-9.2-3-7.9-8 2.8-11.3 3.7-1.1 8.2-1.9 12.8-2.3h-.1c-5.1-2.8-6.6-3.6-13.5-6.6-9.1-.6-14.4-1.2-14.4-1.2-24.2-1-24.2-1-45.1-2.1-18.1-3.3-29.5-8.4-29.5-8.4-20.8-19.6-20.8-19.6-18.1-28.5 1.1-.9 2.4-1.8 3.8-2.7-16.1-2.3-17.2-2.5-21.5-3.2-4.6-1.4-7.7-3.1-7.7-3.1-.9-4.7-.9-4.7-3.7-6.3-1-1.8-.8-3.5-.8-3.5 8.7-5.6 8.7-5.6 8.8-7.1 2-1.5 4.9-2.8 4.9-2.8 10.4-2 14.5-2.8 16.2-3.2 22.9 11.3 23 11.3 23 11.3l4.7-4.4 5.5 5.4-3.2-5 11.5 2.7-13.1-4c26.8.8 26.8.8 37.6.2 11.2.2 20.6-1.5 21.8-1.6-1-1.6-1.1-2.7-1.1-2.7 28.7.8 28.7.8 56.7 1.9 2.6 1 4.7 2.1 6.7 3.1 2.6-1.5 7.9-2.6 13.5-2.4l14.7.3c1.1-.3 2.1-.6 3.1-.8 0-.2-.1-.4-.1-.4 4.9-1.1 8.4-1.9 12.3-2.8 2.5-.6 2.5-.7 2.5-.7s.1 0 .1.1c8.5-1.9 20.7-4.7 53.1-12.2 8.7.3 16.8.9 24.4 1.7-2.5-.7-4.9-1.3-7.2-2.1-4.6-1.5-.6-6.2-3.1-6.5-15.4-1.9-31.1-3.5-47-4.8-8-.6-16-1.2-24.1-1.8-4-.3-8.1-.5-12.2-.8-4.1-.2-8.1-.4-12.2-.6-32.6-1.5-65.8-2.4-98.8-3.6-11.8 1-23-1.2-24.8-4.8-1.7-3.7 6.6-7.4 18.7-8.4 33.1-7.5 68.2-13.3 104.3-17.6 4.5-.5 9.1-1.1 13.6-1.5 4.6-.4 9.1-.9 13.7-1.3 9.2-.8 18.4-1.5 27.6-2.1 18.5-1.2 37.2-2.1 55.9-2.7 37.4-1.1 75-.8 111.8.7 36.8 1.8 72.9 4.8 107.3 8.9 36.1 1.6 72.5 2.8 108.9 3.9-1.8-.7-3.5-1.4-5.2-2.2 9.5 1 18.9 2 28.3 3.1 1 .1 2.1.1 3.1.1-7.2-2.7-14.4-5.3-21.5-8-4.9-.8-9.9-1.5-14.9-2.1-42.2-.8-82.6-3.9-122.6-7.7-40-3.7-79.7-8.3-120.6-10.9-44-3-81.9-9.8-123.6-14.3-10.7-.1-18.2-2.8-17.1-6.3 1.1-3.3 11-5.9 21.5-5.8 34.6-2.5 70.4-4.4 106.5-5.5 18-.5 36.1-.8 54.1-.8 18 .1 35.9.5 53.6 1.1 35.4 1.3 70 3.6 102.7 7.2 16.3 1.8 32.2 4 47.5 6.5 7.6 1.2 15.1 2.6 22.4 4.1 7.3 1.5 14.5 3.1 21.4 4.7 25.3-.2 49.7 1.8 69.9 6.6.4 0 .8.1 1.1.1-5.3-2.2-10.3-4.5-15.7-6.7 18.9 1.5 29.1 7 46.3 9.2-2-3.1-4.5-6.2-6.5-9.3 23.3 1.2 47.1 1.8 71 2.2 12 .2 23.9.6 35.9.9 12 .3 23.9.7 35.9 1 47.7 1.5 94.4 4.1 137.6 10.7 3.5.2 6.7.5 10 .8 37.1-6.5 74.7-12.7 118.8-13.4-14.9-1.1-29.5-2.1-44.4-3.2 32-3.9 63.8-6.5 98.1-5.9 46.4.4 95.5 5.2 139.1 12.6 43.6 7.4 81.6 17.7 105.9 30.4 11.2-.1 22.4 0 33.7.1l33.7.2 67.3.4c44.9.3 89.8.3 134.7 1.1 44.9.6 89.8 1 134.7 1.3 11.2.1 22.4.1 33.7.2 11.2.1 22.4.3 33.6.4l67.2.6c9.3 0 17.5 2.3 19 5.1.8 2.8-5.4 5.2-14.6 5.3-32.2 1.1-64.5 2-96.8 2.6-16.2.4-32.4.7-48.6 1.1l-48.7.9c-32.5.5-65 .8-97.6 1.1-8.1.1-16.3.1-24.4.2l-24.5.3-48.9.6c27.2 1.8 54.5 3.6 81.8 5.5 27.3 2 54.7 3.9 82.1 5.7 27.4 1.8 55 3.5 82.6 5 27.6 1.5 55.4 2.9 83.3 4.4 14.2.2 28.5.3 42.9.5 14.2.1 28.2 1.5 42.2 3.2 17.8.8 35.5 1.5 53.2 2.3 8.8.4 17.6.8 26.4 1.1 8.8.4 17.5.9 26.3 1.3 35 1.8 69.8 3.5 104.7 5 17.5.7 34.9 1.4 52.5 2.1 17.5.6 35.1 1.2 52.8 1.8 35.4 1.2 71.2 2.1 107.6 2.5 31.1.3 61.3.5 91 .7 29.7.4 58.8.7 88 1 58.3.6 116.7.4 178.8 1.1 43.6.3 86.3.5 128.4.8 5.3 0 10.5.1 15.8.1 5.3 0 10.5.1 15.7.2l31.4.6c20.9.5 41.6 1 62.4 1.6 20.8.6 41.5 1.3 62.3 2.2 10.4.5 20.8.9 31.2 1.4 10.4.5 20.8 1 31.3 1.7 41.8 2.6 83.8 5.8 126.7 9.9 22.9 1.3 43.5 8.5 45.5 15.8 2 7.3-15.1 12.3-38 11-44.9-1.4-89.7-2.9-134.4-4.3l-16.8-.5-16.8-.4-33.5-.8-67.1-1.5c-22.3-.5-44.7-1.1-67-1.6l-16.8-.4c-5.6-.1-11.2-.3-16.8-.4l-33.6-.6c-44.8-.8-89.6-1.8-134.5-3l-33.7-.9c-11.2-.3-22.5-.5-33.8-.8-22.5-.5-45.1-1.1-67.7-1.7s-45.2-1.3-67.9-2.1c-22.7-.7-45.4-1.8-68.2-2.4-45.6-1.5-91.4-3.3-137.5-5.6-11.5-.6-23.1-1.2-34.6-1.8-5.8-.3-11.6-.6-17.3-.9l-17.4-.9c-23.2-1.1-46.5-2.4-69.8-3.8-40.3-2.4-80-4.8-119.4-7.2.5 1 .9 2 .9 2.9-.2 3.9-4.1 7.3-10.5 10 44.7 3.2 89.8 7 135 11.3 15.8-.2 31.6-.5 47.4-.7 15.8-.2 31.7-.5 47.5-.4 31.7 0 63.6.2 95.7.8 32.1.6 64.4 1.6 97.1 3.2 32.7 1.8 65.7 4.4 99.2 7.7 23 2.3 45.4 4.9 67.4 7.8 11 1.4 21.9 2.9 32.7 4.4 5.4.8 10.8 1.5 16.2 2.3 5.4.8 10.7 1.7 16.1 2.5 42.7 6.8 84.5 14 126.8 21.2 13.5.5 27 .9 40.6 1.4 13.5.5 27 .8 40.5 1.4 27 1.1 54.1 2.2 81.1 3.3 27.1 1.1 54.2 2.3 81.4 3.4 13.6.6 27.2 1.2 40.8 1.9 13.6.8 27.2 1.6 40.9 2.4 4.4-.1 8.8 1.1 10.3 2.6 1.4 1.5-1 2.7-5.5 2.8-18.9.5-37.9.7-57 .9-19.1.3-38.3.5-57.5.7-38.5.2-77.3.1-116.2-.3 11.8 5.5 18.6 11.9 17.1 18.1-1.5 6.5-11.4 11.5-26.2 14.4l52.5 5c10.8 1.2 19.1 4.4 18.5 7.6-.5 3.5-9.4 5.3-19.6 4.3-17.8-1.6-35.7-3.3-53.5-4.9l-26.7-2.5-26.7-2.2c-35.7-3-71.3-6-106.9-9-21.5-.8-42.9-1.6-64.4-2.3-10.7-.4-21.4-.7-32.2-1.1l-32.2-1c-42.9-1.4-85.8-2.8-128.7-4.4 11.6 5.1 20 11 23.8 17.3v.1c13.3.7 26.5 1.5 39.7 2.2 30.4-.2 60.9-.3 91.5-.3 7.6 0 15.3 0 23 .1l23 .3c15.3.3 30.7.5 46 .8 30.7.6 61.5 1.4 92.4 2.3 15.4.5 30.9 1 46.3 1.5 15.5.6 30.9 1.4 46.4 2.2 31 1.6 62 3.3 93 5.2 15.5 1 31.1 2 46.6 3 15.5 1.1 31.1 2.1 46.6 3.5 62.2 5.2 124.5 11.1 186.8 18 4.9.4 8.8 2 8.7 3.5-.1 1.5-4 2.4-8.4 1.9-37.6-4.1-75.2-7.9-112.8-11.5-18.8-1.8-37.6-3.4-56.3-5.1l-28.2-2.4c-9.4-.8-18.8-1.4-28.2-2.1.1 0 .2.1.3.1 2.9 1.2 3.4 2.9-.1 3.7-3 .7-8.9.2-11.8-.9-3.4-1.3-2.9-3 0-3.7-35-2.4-69.9-4.5-104.8-6.4-17.4-1-34.9-1.9-52.3-2.7-8.7-.4-17.4-.9-26.1-1.2l-26.1-.9c-34.8-1.2-69.4-2.1-104-2.8-17.3-.4-34.6-.7-51.8-.9l-25.8-.3c-8.6 0-17.2 0-25.8-.1l23.9 1.3c8 .5 15.9 1 23.9 1.5l47.7 3.2c31.8 2.2 63.6 4.5 95.4 6.9l47.7 3.7c15.9 1.5 31.7 2.9 47.6 4.4 31.7 3 63.4 6.2 95.1 9.7 14-.7 28-1.4 42.2-2 3.8 0 8.8 1.3 10.2 2.8 1 1.3-2 2.6-5.9 2.6-3.9.1-7.8.3-11.8.4 12 1.3 22.5 4 29.8 7.2 7.3 3.3 11.6 7.3 11 11.1-1 3.9-6.8 6.9-15.5 8.7-8.7 1.8-20.2 2.2-32.6 1-33.4-2.1-66.8-4.4-100.1-6.8-16.7-1.2-33.3-2.5-49.9-3.7l-25-1.9-25-1.8-21.7-.3c-7.4.7-14.7 1.4-22 2.1l38.7 4.2 19.3 2.1c6.4.7 12.9 1.4 19.3 2.2 25.7 3.1 51.5 6.2 77.2 9.3 25.7 3.2 51.3 6.3 77 9.5l38.4 4.8 9.6 1.2 9.6 1.3c6.4.9 12.8 1.7 19.1 2.6 8.8.8 16.1 3.7 16 6.5 0 2.8-7.4 4.5-16.2 3.7-11.3-.4-22.7-.8-34-1.1-11.4-.3-22.7-.6-34.1-1-22.7-.7-45.5-1.4-68.3-2.2-22.8-.8-45.6-1.7-68.5-2.5-11.4-.5-22.8-.9-34.3-1.4-11.4-.4-22.9-.8-34.3-1.1-45.8-1.6-91.6-3.3-137.5-5.2-11.5-.5-23-1-34.4-1.5-11.5-.5-23-.8-34.5-1.3l-69-2.7c-30.5 3.9-61.1 7.9-91.9 11.9l-23.1 3c-7.7 1.1-15.4 2.1-23.1 3.2-15.4 2.1-30.9 4.2-46.5 6.3 7.7.7 15.6 1.3 23.4 1.7 12.5.7 24.8 1.3 37.1 1.8 6.1.2 12.2.5 18.3.7 6.1.2 12.1.4 18.2.6 24.1.7 48 .9 71.5.9 23.6-.1 46.9-.4 70.1-1 23.2-.6 46.3-1.2 69.3-1.9 92-2.3 183.5-6 280.4-.9 4.9.1 8.8 1.6 9.3 3 .4 1.4-3 2.6-7.9 2.1-23.7-.9-46.8-1.2-69.8-1.3-11.5 0-22.9-.1-34.2.1-11.4.2-22.7.4-34 .7-45.3 1.1-90.6 2.6-137.6 3l-29 .3c-9.6.1-19.2.4-28.7.5-19 .4-37.9.8-56.5 1.4-37.3 1-74 2.4-110.2 4.5 36.8 1.7 73.3 2.6 109.6 3.1 18.2.3 36.3.4 54.4.5 9 0 18.1.1 27.1.1 9 .1 18.1.2 27.1.2l108.4.9c36.2.5 72.5.8 109 2.5 6.4-.1 12.8 1.1 16.7 2.9.4-.7 1.8-1.4 3.7-1.6 18.5-2.3 38.6-3.3 59.1-3.8 3.9-.3 8.8.7 10.7 2.4.5 1.8-2 3-6.4 3.5zM611.2 2919.9c-1.5-.6-2.6-1.1-3.7-1.6 4 .8 8.3 1.6 13.1 2.5l18.4 10.9c-.1.1-14-5.8-27.8-11.8zM385 2968h.1c-6.2-3.5-10.6-6-10.6-6 4.3 2.5 7.7 4.4 10.5 6zm552.7-763.1c-9.8-.3-19.6-.7-29.3-1.1-9.8-.4-19.5-.8-29.3-1.1-19.5-.8-38.9-1.8-58.3-3.1-38.8-2.4-77.5-5.8-116.1-10.2l56.7-.6c29.3 2.3 58.7 4.8 88.1 7.5 14.7 1.4 29.4 2.7 44.1 4.1l11 1.1 11 1.2c7.3.6 14.7 1.4 22.1 2.2zm-480.4 676.4c20.8 5.2 37 12 52.4 19 6.8-.9 13.7-1.6 20.7-2 7-.4 14.1-.6 21.3-.6 38.5-.1 76.1.6 113 1.8-4.9-3.9 4-3.6 8.5-4.2 4.7-.4 9.3-.9 13.9-1.3-39.4-1.9-79-4.2-119.3-6.6-36.5-2.4-75.9-2.7-110.5-6.1zm-274.6 25.3c-1.1-.5-2.2-.9-3.4-1.3l7.1-6.2c0-.1-1.6 3.1-3.7 7.5zm-11.2 10.5c1.8.2 3.7.4 5.7.6-1.9 2.3-3.8 1.6-5.7-.6zm52 5.4c-3.1-1.5-5-2.4-7.5-2.9l7.5 2.9zm43.6 173.7l18.9-30.6-20.7 29.5 1.8 1.1z"/></g></g></svg>