<svg version="1.1" id="Layer_1" xmlns="http://www.w3.org/2000/svg" x="0" y="0" viewBox="0 0 322.8 389.5" xml:space="preserve"><style/><path d="M930.2 1007.8c-.9-2.9-1.9-5.8-3-8.8-1.1-3-2.1-6-3.2-9h-32.3c-1 3-2.1 6-3.1 9.1-1 3-2 6-2.9 8.8h-19.3c3.1-8.9 6.1-17.1 8.8-24.7 2.8-7.5 5.5-14.7 8.2-21.3 2.7-6.7 5.3-13 7.9-19 2.6-6 5.3-11.9 8.1-17.6H917c2.7 5.7 5.4 11.6 8 17.6 2.6 6 5.3 12.3 8 19 2.7 6.7 5.4 13.8 8.2 21.3 2.8 7.6 5.7 15.8 8.9 24.7h-19.9zm-22.3-63.9c-.4 1.2-1 2.8-1.8 4.9-.8 2.1-1.7 4.5-2.7 7.2-1 2.7-2.2 5.7-3.4 8.9-1.3 3.3-2.5 6.7-3.8 10.2h23.6c-1.3-3.6-2.5-7-3.7-10.3-1.2-3.3-2.3-6.2-3.4-9-1.1-2.7-2-5.1-2.8-7.2-.9-1.9-1.5-3.6-2-4.7zm77.1-19.7c12.4 0 21.9 2.2 28.5 6.6 6.6 4.4 9.9 11.3 9.9 20.6 0 5.8-1.3 10.5-4 14.1-2.7 3.6-6.5 6.5-11.5 8.5 1.7 2.1 3.4 4.4 5.2 7.1 1.8 2.7 3.6 5.4 5.4 8.3 1.8 2.9 3.5 5.9 5.2 9.1 1.7 3.1 3.2 6.2 4.6 9.2h-20.8c-1.5-2.7-3.1-5.4-4.6-8.2-1.6-2.8-3.1-5.5-4.8-8.1-1.6-2.6-3.3-5.1-4.8-7.5-1.6-2.3-3.2-4.5-4.8-6.4h-9.2v30.2h-18.6v-81.4c4.1-.8 8.2-1.4 12.6-1.7 4.4-.2 8.3-.4 11.7-.4zm1 15.9c-1.4 0-2.6 0-3.6.1-1.1.1-2.1.2-3 .2v22.4h5.2c7 0 12-.9 15-2.6 3-1.7 4.5-4.7 4.5-8.9 0-4.1-1.5-6.9-4.6-8.6-3-1.8-7.5-2.6-13.5-2.6zm114.4-14.9V941h-24.9v66.8h-18.6V941H1032v-15.9h68.4zm36.7-1c12.3 0 21.8 2.2 28.4 6.5 6.6 4.3 9.9 11.4 9.9 21.3s-3.3 17.1-10 21.5c-6.7 4.4-16.2 6.6-28.6 6.6h-5.8v27.7h-18.6v-81.4c4.1-.8 8.3-1.4 12.9-1.7 4.4-.3 8.4-.5 11.8-.5zm1.2 15.9c-1.4 0-2.7 0-4 .1-1.3.1-2.4.2-3.4.2v23.8h5.8c6.4 0 11.3-.9 14.5-2.6 3.3-1.7 4.9-5 4.9-9.8 0-2.3-.4-4.2-1.3-5.7-.8-1.5-2-2.7-3.6-3.6-1.5-.9-3.4-1.5-5.7-1.9-2-.4-4.5-.5-7.2-.5zm129.5 26.3c0 7.1-1.1 13.3-3.2 18.7-2.1 5.4-5 9.9-8.6 13.5-3.7 3.6-8 6.3-13.1 8.2-5 1.8-10.5 2.7-16.3 2.7-5.6 0-11-.9-16-2.7-5-1.8-9.4-4.5-13.1-8.2-3.7-3.6-6.7-8.1-8.8-13.5-2.1-5.4-3.2-11.6-3.2-18.7s1.1-13.3 3.3-18.7c2.2-5.4 5.2-9.9 9-13.5 3.8-3.7 8.1-6.4 13.1-8.2 5-1.8 10.2-2.7 15.7-2.7 5.6 0 11 .9 16 2.7 5 1.8 9.4 4.6 13.1 8.2 3.7 3.7 6.7 8.2 8.8 13.5 2.2 5.4 3.3 11.6 3.3 18.7zm-63.1 0c0 4.1.5 7.7 1.5 11s2.4 6.1 4.3 8.4c1.9 2.3 4.2 4.2 6.9 5.4 2.7 1.3 5.8 1.9 9.3 1.9 3.4 0 6.5-.6 9.2-1.9 2.7-1.3 5-3.1 6.9-5.4 1.9-2.3 3.3-5.1 4.3-8.4 1-3.3 1.5-6.9 1.5-11s-.5-7.7-1.5-11-2.4-6.1-4.3-8.5c-1.9-2.3-4.2-4.2-6.9-5.4-2.7-1.3-5.8-1.9-9.2-1.9-3.5 0-6.6.7-9.3 2-2.7 1.3-5 3.1-6.9 5.5-1.9 2.3-3.3 5.2-4.3 8.5-1 3.2-1.5 6.8-1.5 10.8zm78.6-41.2h18.6v82.6h-18.6v-82.6zm93.1 82.6c-5.3-9.5-11.1-18.8-17.3-28-6.2-9.2-12.8-17.9-19.8-26.1v54.1h-18.4v-82.6h15.1c2.6 2.6 5.5 5.8 8.7 9.7 3.2 3.8 6.4 7.9 9.7 12.2 3.3 4.3 6.6 8.8 9.8 13.5 3.3 4.6 6.3 9.1 9.2 13.4v-48.8h18.5v82.6h-15.5zm95.9-82.6V941h-24.9v66.8h-18.6V941h-24.9v-15.9h68.4z" fill="#60b9e9"/><path d="M892.7 1049c.7 0 1.2-.1 1.6-.2.4-.1.8-.3 1-.4.3-.2.4-.4.5-.7.1-.3.1-.5.1-.9 0-.7-.3-1.2-.9-1.7-.6-.4-1.7-.9-3.3-1.4-.7-.2-1.3-.5-2-.8-.7-.3-1.3-.7-1.8-1.2s-1-1-1.3-1.7c-.3-.7-.5-1.5-.5-2.4 0-.9.2-1.8.5-2.6.4-.8.9-1.4 1.5-1.9.7-.5 1.4-.9 2.4-1.2.9-.3 2-.4 3.1-.4 1.4 0 2.6.1 3.6.4 1 .3 1.8.6 2.5 1l-1.3 3.6c-.6-.3-1.2-.6-1.9-.8-.7-.2-1.5-.3-2.5-.3-1.1 0-1.9.2-2.4.5s-.7.8-.7 1.4c0 .4.1.7.3.9.2.3.4.5.8.7.3.2.7.4 1.1.6s.9.3 1.4.5c1.1.4 2 .8 2.8 1.2.8.4 1.4.8 2 1.3.5.5.9 1.1 1.2 1.8.3.7.4 1.5.4 2.5 0 1.9-.7 3.4-2 4.5s-3.4 1.6-6.1 1.6c-.9 0-1.7-.1-2.5-.2-.7-.1-1.4-.2-1.9-.4-.6-.2-1-.3-1.5-.5-.4-.2-.7-.3-1-.5l1.3-3.7c.6.3 1.4.6 2.3.9.8.4 1.9.5 3.2.5zm46.7-.4v4h-13.7V1032h4.6v16.6h9.1zm43.9-6.3c0 1.8-.3 3.3-.8 4.6-.5 1.3-1.2 2.5-2.1 3.3-.9.9-2 1.6-3.2 2-1.3.5-2.6.7-4 .7s-2.7-.2-4-.7-2.3-1.1-3.3-2c-.9-.9-1.7-2-2.2-3.3-.5-1.3-.8-2.9-.8-4.6s.3-3.3.8-4.6 1.3-2.5 2.2-3.4c.9-.9 2-1.6 3.3-2 1.2-.5 2.5-.7 3.9-.7s2.7.2 4 .7c1.2.5 2.3 1.1 3.3 2 .9.9 1.7 2 2.2 3.4.4 1.3.7 2.8.7 4.6zm-15.7 0c0 1 .1 1.9.4 2.7.2.8.6 1.5 1.1 2.1.5.6 1 1 1.7 1.3.7.3 1.4.5 2.3.5.8 0 1.6-.2 2.3-.5.7-.3 1.3-.8 1.7-1.3.5-.6.8-1.3 1.1-2.1.2-.8.4-1.7.4-2.7s-.1-1.9-.4-2.7c-.2-.8-.6-1.5-1.1-2.1-.5-.6-1-1-1.7-1.3-.7-.3-1.4-.5-2.3-.5-.9 0-1.6.2-2.3.5-.7.3-1.2.8-1.7 1.4-.5.6-.8 1.3-1.1 2.1-.3.7-.4 1.6-.4 2.6zm50.9-6.7c-2.2 0-3.7.6-4.7 1.8-1 1.2-1.4 2.8-1.4 4.9 0 1 .1 1.9.4 2.7.2.8.6 1.5 1.1 2.1.5.6 1.1 1.1 1.8 1.4.7.3 1.5.5 2.5.5h1.3c.4 0 .7-.1 1-.1v-7.1h4.6v10.2c-.6.2-1.4.4-2.7.7-1.2.2-2.7.4-4.5.4-1.5 0-2.9-.2-4.2-.7-1.3-.5-2.3-1.2-3.2-2.1-.9-.9-1.6-2-2.1-3.3-.5-1.3-.7-2.8-.7-4.5 0-1.7.3-3.2.8-4.6.5-1.3 1.3-2.4 2.2-3.4.9-.9 2-1.6 3.3-2.1 1.3-.5 2.6-.7 4-.7 1 0 1.8.1 2.6.2s1.5.3 2 .4c.6.2 1 .3 1.4.5l.8.4-1.3 3.7c-.6-.3-1.4-.6-2.2-.9-.9-.3-1.8-.4-2.8-.4zm45.9 16.9c-.2-.7-.5-1.4-.7-2.2s-.5-1.5-.8-2.2h-8c-.3.7-.5 1.5-.8 2.3-.3.8-.5 1.5-.7 2.2h-4.8c.8-2.2 1.5-4.3 2.2-6.1.7-1.9 1.4-3.6 2-5.3.7-1.7 1.3-3.2 2-4.7.6-1.5 1.3-2.9 2-4.4h4.4c.7 1.4 1.3 2.9 2 4.4.7 1.5 1.3 3.1 2 4.7s1.3 3.4 2 5.3 1.4 3.9 2.2 6.1h-5zm-5.5-15.8c-.1.3-.3.7-.5 1.2s-.4 1.1-.7 1.8-.5 1.4-.9 2.2c-.3.8-.6 1.7-1 2.5h5.9c-.3-.9-.6-1.7-.9-2.6-.3-.8-.6-1.6-.8-2.2-.3-.7-.5-1.3-.7-1.8-.1-.5-.3-.9-.4-1.1zm48.2 15.8c-1.3-2.4-2.8-4.7-4.3-7s-3.2-4.5-4.9-6.5v13.5h-4.6V1032h3.8c.7.7 1.4 1.5 2.2 2.4.8.9 1.6 2 2.4 3l2.4 3.3c.8 1.2 1.6 2.3 2.3 3.3v-12h4.6v20.5h-3.9zm47.1-16.9c-2.2 0-3.7.6-4.7 1.8-1 1.2-1.4 2.8-1.4 4.9 0 1 .1 1.9.4 2.7.2.8.6 1.5 1.1 2.1.5.6 1.1 1.1 1.8 1.4s1.5.5 2.5.5h1.3c.4 0 .7-.1 1-.1v-7.1h4.6v10.2c-.6.2-1.4.4-2.7.7-1.2.2-2.7.4-4.5.4-1.5 0-2.9-.2-4.2-.7-1.3-.5-2.3-1.2-3.2-2.1-.9-.9-1.6-2-2.1-3.3-.5-1.3-.7-2.8-.7-4.5 0-1.7.3-3.2.8-4.6.5-1.3 1.3-2.4 2.2-3.4.9-.9 2-1.6 3.3-2.1 1.3-.5 2.6-.7 4-.7 1 0 1.8.1 2.6.2s1.5.3 2 .4c.6.2 1 .3 1.4.5l.8.4-1.3 3.7c-.6-.3-1.4-.6-2.2-.9-.9-.3-1.8-.4-2.8-.4zm51.7 6.7c0 1.8-.3 3.3-.8 4.6-.5 1.3-1.2 2.5-2.1 3.3s-2 1.6-3.2 2-2.6.7-4 .7-2.7-.2-4-.7c-1.2-.5-2.3-1.1-3.3-2s-1.7-2-2.2-3.3c-.5-1.3-.8-2.9-.8-4.6s.3-3.3.8-4.6c.6-1.3 1.3-2.5 2.2-3.4.9-.9 2-1.6 3.3-2 1.2-.5 2.5-.7 3.9-.7s2.7.2 4 .7c1.2.5 2.3 1.1 3.3 2 .9.9 1.7 2 2.2 3.4.5 1.3.7 2.8.7 4.6zm-15.6 0c0 1 .1 1.9.4 2.7s.6 1.5 1.1 2.1c.5.6 1 1 1.7 1.3s1.4.5 2.3.5c.8 0 1.6-.2 2.3-.5.7-.3 1.3-.8 1.7-1.3.5-.6.8-1.3 1.1-2.1.2-.8.4-1.7.4-2.7s-.1-1.9-.4-2.7c-.2-.8-.6-1.5-1.1-2.1-.5-.6-1-1-1.7-1.3-.7-.3-1.4-.5-2.3-.5-.9 0-1.6.2-2.3.5s-1.2.8-1.7 1.4c-.5.6-.8 1.3-1.1 2.1s-.4 1.6-.4 2.6zm40.8 10.2V1032h13.9v3.9h-9.2v4h8.2v3.8h-8.2v5h9.9v3.9h-14.6zm44.9-3.5c.7 0 1.2-.1 1.6-.2.4-.1.8-.3 1-.4.3-.2.4-.4.5-.7s.1-.5.1-.9c0-.7-.3-1.2-.9-1.7-.6-.4-1.7-.9-3.3-1.4-.7-.2-1.3-.5-2-.8-.7-.3-1.3-.7-1.8-1.2s-1-1-1.3-1.7c-.3-.7-.5-1.5-.5-2.4 0-.9.2-1.8.5-2.6.4-.8.9-1.4 1.5-1.9.7-.5 1.4-.9 2.4-1.2.9-.3 2-.4 3.1-.4 1.4 0 2.6.1 3.6.4 1 .3 1.8.6 2.5 1l-1.3 3.6c-.6-.3-1.2-.6-1.9-.8-.7-.2-1.5-.3-2.5-.3-1.1 0-1.9.2-2.4.5s-.7.8-.7 1.4c0 .4.1.7.3.9s.4.5.8.7c.3.2.7.4 1.1.6.4.2.9.3 1.4.5 1.1.4 2 .8 2.8 1.2.8.4 1.4.8 2 1.3s.9 1.1 1.2 1.8c.3.7.4 1.5.4 2.5 0 1.9-.7 3.4-2 4.5s-3.4 1.6-6.1 1.6c-.9 0-1.7-.1-2.5-.2-.7-.1-1.4-.2-1.9-.4-.6-.2-1-.3-1.5-.5s-.7-.3-1-.5l1.3-3.7c.6.3 1.4.6 2.3.9.8.4 1.9.5 3.2.5zm52.5-17h4.6v20.5h-4.6v-8.7h-7.8v8.7h-4.6V1032h4.6v7.9h7.8v-7.9zm30.7 20.5V1032h13.9v3.9h-9.2v4h8.2v3.8h-8.2v5h9.9v3.9h-14.6zm45.4-20.7c3.1 0 5.4.5 7.1 1.6 1.6 1.1 2.5 2.8 2.5 5.1 0 1.4-.3 2.6-1 3.5-.7.9-1.6 1.6-2.9 2.1.4.5.8 1.1 1.3 1.8s.9 1.4 1.3 2.1.9 1.5 1.3 2.3c.4.8.8 1.5 1.2 2.3h-5.2c-.4-.7-.8-1.4-1.1-2-.4-.7-.8-1.4-1.2-2-.4-.7-.8-1.3-1.2-1.9-.4-.6-.8-1.1-1.2-1.6h-2.3v7.5h-4.6v-20.2c1-.2 2.1-.3 3.1-.4 1.1-.2 2-.2 2.9-.2zm.2 3.9h-.9c-.3 0-.5 0-.8.1v5.6h1.3c1.7 0 3-.2 3.7-.7s1.1-1.2 1.1-2.2c0-1-.4-1.7-1.1-2.1-.7-.5-1.8-.7-3.3-.7zm34.9 16.8V1032h13.9v3.9h-9.2v4h8.2v3.8h-8.2v5h9.9v3.9h-14.6z" fill="#f8b335"/><path d="M101.6 133.2c3.2-6.7 7.5-13.1 13.1-18.6 25.8-25.8 67.6-25.8 93.3 0 17.6 17.6 23.2 42.6 16.8 64.9l75.7 63.6c8.8-15 15-31.1 18.6-47.6L119.3 5.4c-26.4 7.1-51.3 21-72 41.7-1.7 1.7-3.4 3.4-5 5.2l59.3 80.9z" fill="#6fb32d"/><path d="M319.9 191.6c9.7-50.7-5.1-105.2-44.4-144.4C245.8 17.4 207.3 1.7 168.4 0l151.5 191.6z" fill="#f39f00"/><path d="M2.2 134.4c-8.3 49.7 6.7 102.6 45 140.9l114.1 114.1 25-25-184.1-230z" fill="#00a7e2"/><path d="M221.7 188c-3.2 7.2-7.7 14-13.6 19.9-25.8 25.8-67.6 25.8-93.3 0-15.7-15.7-21.8-37.4-18.4-57.8L20.3 82.8c-8.3 14.8-14 30.7-17.2 47l212.9 205 59.5-59.5c1.4-1.4 2.7-2.8 4-4.1L221.7 188z" fill="#e51e3d"/></svg>