<svg xmlns="http://www.w3.org/2000/svg" viewBox="0 0 1389 1389"><style>.st4{fill:#dff8df}.st26{fill:#f9f24d}.st32{fill:#dff8e0}.st51{fill:#ff7200}</style><g id="Layer_2"><path fill="none" d="M-461.9-222.6h2293v2000h-2293z"/><path d="M981.2 22.3c8.6-2.2 19.5-4.7 27 1.2 4.8 4.5 7.2 10.4 9.3 16.2 4.9 14.8 9.7 29.6 15.1 44.3.9 2.7 2 5.5 1.5 8.4-2.5 2.2-6.7 2-9.8 3.4-10.3 3.8-20.1 8.9-30.9 11.8-9.1 2.5-18.7 3.7-27.6 6.6-10 3.3-19.6 7.4-29.1 11.7-5-1.4-4.7-6.9-6.5-10.4-6-14.5-11.4-29.2-15.6-44.2-2.2-8.8-7-17.1-7.9-26.1 26.9-1.7 49.4-16 74.5-22.9zm6.5 5.9c-24.5 6.1-46 19.6-71.5 23.1 7.5 21.7 13.7 43.8 23 65 12.2-5.7 25.1-10.2 38.6-12.9 16.6-2.8 31.4-10.5 47-16-4.7-14.8-10.1-29.5-14.8-44.3-2-5.4-3.8-11.6-9.4-15.1-3.9-2.4-8.8-.4-12.9.2z"/><path d="M540.7 23.7c3.5-4.4 12.6-1.2 11.6 4-7.7 19.5-3.8 41 4.5 59.8 9.1 21.2 23.2 40.4 32.2 61.5 2.7 6 3.8 12.5 6.2 18.7l2.3.1c-.5.2-1.6.7-2.1 1 .7 7.6 1.9 15.3 1 23-2.5 19.7-11.8 38-20 56.3-3.7 8-6.2 16.3-10.4 24.2 4.3 16.2 9.1 32.3 11.8 48.8 1.2 5.2 2.3 10.4 3.2 15.6 1.2.2 3.6.6 4.8.7-1.3.9-2.7 1.9-4.1 2.8 4.5 21.1 5.5 42.5 6.9 63.8.8 16.7-.9 33.4-1 50.1-.5 14.7 0 29.4-2.6 44 14.2-28.9 25.6-58.9 41.7-87.1 5.3-10.1 11.1-20 16.5-30 13.4-23.6 25-48.8 46.2-68.1 2.4-2.6 6.3-3.4 9.8-2.2 4.7 2.6 7.5 6.9 10.7 10.7 1.9-3.1 3.5-6.4 6.1-9.1 3.3-2.4 7.3-.9 10.8.1 1.5 3.6 3.4 7.2 5.9 10.4 1.8-3.1 3.5-6.7 7.5-8.1 3.1-1.4 6.5.5 8.6 2.5 3.9 4 6.4 8.8 9.3 13.3 4.5-4.1 8.5-8.5 12.7-12.8-9.7-19.3-18.8-39.4-19.3-60.8-.8-16 2.7-32.2 10.8-46.6 12.3-21 28.3-41.3 51.6-54.1-5.4-6.4-11.8-12.2-15.8-19.4-7.6-14.4-14-30.6-9-46.5 3.4-10.8 15.5-20.8 29-18.6 10.3 1.5 16.8 10.1 18.4 18.6 6-8.7 12-18 21.5-24.2 6.6-4.3 15.8-6.6 23.7-3.8 8.4 3.2 12.3 12 10.9 19.6-1.9 9.4-7.7 17.9-15.3 24.6-12.1 10.9-20.9 24-31.2 36.1 20-5.4 41.7-4.1 61.9.2 36.5 8.1 66.1 34 77.9 65 3.2 7.8 4.2 16.2 6 24.3 9.3 1.3 18.6 3 27.7 5.2 6.4 1.6 12.7 3.7 19.2 5 18.4 6.5 37.2 13.1 53.2 23.6 6.7 4.4 13.1 9.7 16.4 16.6 2.4 5 0 10.3-1 15.3 12.8-.6 26.1 1.2 36.7 7.9 13.2 8.1 21.5 22 21.8 36.1-1.1 16.6-11.7 32.3-27.2 41.8-5.9 3.6-12.1 6.8-18.2 10-6.9 3.5-14 6.8-21.1 9.9-7.6 3.3-15.1 6.8-22.7 10.1 5.4 6.2 10.9 12.6 13.9 20.1 7.1 17.3 7.3 36.1 6.5 54.2-2.5 39.3-11.8 78.3-26.1 115.6-10.4 28-22.8 55.4-38.2 81.5-8.6 14.8-17.7 29.5-25.9 44.5 9.4-1.9 19.7-1.9 28.1-6.7 7.2-3.9 14-9.1 22.7-10.5 6.9-1.2 15 .3 20.8-4 4.2-2.4 4-7.3 5.3-11.1 13.2-22.1 29.7-42.6 42.7-64.8 8.6-13.3 18.7-26 26.3-39.8-14.6-18.2-3.5-45.4 18.7-54.5 24.4-11 57.1 4.6 61.4 27.9 4.9 20-11.9 40.6-34.5 44.6-3.2 3.3-6.3 6.6-9.3 10-8.1 7.5-16 15.3-22.5 23.9-20.1 22.2-41.9 43.6-67.4 61.2-3.6 2.3-8.1 3.2-12.3 4-.6.8-1.7 2.4-2.3 3.2-9 8.7-24.1 3.2-34.3 9.7-7.7 4.3-15 9.7-24.3 11-8.3 1.3-16.7 2.6-24.6 5.4-4.1 7.8-8.8 15.3-13.2 23-6.6 3.7-11.1 9.4-16.9 13.9-14.9 11.4-30.7 21.7-45.8 32.9 1.5 4.4 3.5 9 2.6 13.7-1.4 9.2-8.5 16.5-14.8 23.6 12.6 3.7 25.7 9.2 32.5 19.7 8.1 12.2 3.5 28.1-6.6 38.3-13.4 14.2-34.4 19.8-54 24.3-2.7 19.7-18.2 37.6-38.9 45.8 3.9 4.9 7.3 10.4 6.8 16.6-.6 18.1-15.9 35.2-35.9 40.1-12.1 3.2-24.9 2.9-37.4 3.5-14.6.9-29.5 2.3-43.1 7.2-19.4 6.8-34.6 19.8-51.9 29.6-3.5 8-4.9 16.6-6.9 25 19-10.2 37.8-20.8 56.8-31.1 9.7-5.3 19-12.9 31.2-12.9 10.6.1 20.9 2.6 31.4 3.6 4.4.2 9.5 1.7 13.5-.7 8.5-4.5 16.6-9.7 25.5-13.7 4.5-2.5 8.9 1.9 10.4 5.2.6 6.2-.9 12.5-3.5 18.2-3.5 5.1-10.4 7.2-15.7 10.6 41.7-7.7 82.6-18.4 124.2-26.2 3.3 17.2 5.8 34.6 10.7 51.6-13.8 2.1-27.1 5.7-40.7 8.6-54.1 12.2-108.3 24.1-162.5 36.2-12.7 3.4-26.2 4.5-38.2 9.7-21 11-41.8 22.3-62.4 33.9-4 1.9-3.8 6.3-4.9 9.6-2.2 10.5-5.5 20.8-7.9 31.3-1.2 2.3 2.1 3.3 3.7 4.4 22.9 12.3 46 24.4 68.3 37.4 6 3.2 13.1 5.2 18.1 9.8 8.4 7.4 9.7 18.3 14.6 27.4 5.4 9.6 21.1 9.9 27.1 19.3 2.3 5.4 3.6 11.2 3.2 17-.4 4.7-6.8 8.4-11.7 5.6-9-4.9-18.2-9.4-26.7-14.9-16 .6-31.6 5.2-47.6 4.6l.3-1.5c-4.5-.6-9.2-1.3-13-3.7-20.7-12.4-42.7-23.2-63.4-35.6-13 19.2-28.6 39.2-53.2 48-15.9 5.5-34.7 9.5-50.9 2.7-15.9-6.6-26.9-19.8-33.5-33.7-7.6-15.9-10.6-33.2-11.2-50.4-32.5 9.2-67.4 14.1-101.3 8.4-20.8-3.3-40.4-10.9-58.6-20.2-4.7-2.7-9.2-5.6-13.9-8.3-21.4-14.7-39-33.3-52.1-54.1-5.6-10.3-10.7-20.9-14.4-31.8-6.4-19.9-7.2-41.1-2.9-61.4 1.7-9.8 4.9-19.3 7.7-28.9 7.1-22 15.2-44.6 12.5-67.8-4.3-6.4-11.6-10.9-17.1-16.5-15.7-14.6-31.8-28.9-47.6-43.4-4.6-4.3-9.3-8.6-14-12.8-15-14.2-31.3-27.5-45.4-42.5-1.1 2-2.1 4-3.1 5.9v-7.9c-6.3-5.5-12.5-11.1-18.5-16.8-7.1-6.6-14.6-13-20.9-20.2 11.1-7.5 22.2-14.9 33-22.7 7.7-5.8 15.6-11.4 22.7-17.7 2.9-1.5 4.4 1.8 6.1 3.2 29 27.5 59.6 53.8 89 81 3.3-5.8 6.9-11.5 10.9-16.9 10.1-11.8 23.4-21.1 37.9-28.5-9.2-6.7-17.9-14-25.4-22.1-5.9-6.6-14.4-10.9-21.7-16.2-7.3-5.4-10.6-13.4-15.8-20.1-4.8-6.3-13.8-8.2-19.8-13.2-3.8-3.1-4.8-7.7-6.3-11.8-12-7.3-13.7-21.1-19.9-31.8-4.1-9.8-7.3-19.8-10.5-29.9-7.4-23.7-10.7-48.4-19.2-71.9-1.6-2.4-4.1-4.3-6.3-6.2-.4.5-1.1 1.4-1.5 1.9l.8-1.5c-6.3-9.1-11.5-19.3-9.9-30.2 2-9.9 7.7-19.5 16.9-25.7 9.2-6.3 20.9-7.1 31.9-9.1.6.4 1.8 1.2 2.3 1.6 13.5 2.2 26.1 9.6 32 20.6 10.1 17 3.2 40.4-16.2 49.9-.3 8.5.9 17 1.8 25.5.9 11.8 2 23.6 2.5 35.4.5 13.5 2.2 27 3 40.5.5 8.5 2.6 17.2.3 25.6-1.5 4.3-.7 9.3 3.2 12.5 5.2 4.1 12.3 6.1 17.2 10.6 7.2 6 9.9 14.7 16.5 21.1 6.6 5.3 14.8 9 20.8 14.9 9.4 9.3 19.5 18.2 30.2 26.4 19-7.8 39.6-12.1 60.4-14.1-16.5-38.6-33.2-77.1-50-115.5-12.8-30-25.7-59.9-38.7-89.9-.9-2.4-1.4-5-1.5-7.5-.2-.1-.7-.4-.9-.5-2.8-9-3.6-18.4-5.2-27.6-2.5-18.7-6-37.4-8.5-56.1-.9-7.9-2.9-15.8-2-23.7.2-2.8 4.6-3.9 7.2-2.4 3.5 2.1 6.2 5.2 8.9 8 9.1 9.9 18.2 19.6 27.4 29.4 5.1 5.7 10.5 11.3 15.7 16.9 9.1 10.4 19.1 20.3 27.8 31 7.5 13.5 12.7 27.9 19 41.9 29.1 66.6 57.6 133.5 86.6 200.2 9.5 1.9 19 3.9 28.3 6.4-6-23.5-12.6-47-18.5-70.6-19.8-26.8-32.9-57.1-41.6-88-9.5-32.4-19.4-64.8-24-98-3.9-26.6-4.7-53.4-3.2-80.2-.2-4.2.9-9.2-2.8-12.5-9.2-9.3-18.9-18.4-27.2-28.4-17.5-20.6-23.1-48.3-14.1-72.8 3.8-14.4 11-28 14.7-42.5 10.3-38.4 18.8-77.2 32.9-114.7.8-7.3 13.9-8.5 15-.8-5.5 23 3.2 46.7 16.3 66.6 13.2 20.4 30.2 38.8 43.2 59.4 5.9 10.3 10.4 21.2 12.1 32.6 4.5-.5 9.1-.8 13.4-2.3-4.1 1.6-8.4 3-12.7 4.3 4.6 33.8-12.2 65.8-18 98.7.7 3.6 2.6 7 4.1 10.4 9.9 21.1 17.2 43 24.8 64.8 7.4 20.8 11.5 42.3 16 63.6 3.9 22.9 5.8 46 9 68.9 1.9 17.2 4.6 35-1.3 51.8-1.2 4.2-3.8 8.4-2.2 12.8 9.3 34.9 17.1 70.2 26 105.2.5 3.3 4.4 4.7 7 6.5 9.3 5.3 17.6 11.7 25.5 18.5 1.2-21.3 3.7-42.6 2.3-64-11-99.1-23.6-198-33.6-297.2-1.3-6.6-6.1-12.1-8.3-18.4-7-17.6-12.8-35.7-15.9-54.2-3.4-22.2-6.3-44.5-8.9-66.8-1.5-11.9.6-24-1.5-35.9v-1c-1-26.4 2.4-52.9 7.8-78.8.5-4.2 2.2-9.1-1-12.8-3.8-5.3-8-10.3-11.9-15.6-4.1-5.6-8-11.4-11.4-17.4-8.1-15.3-10.9-32.8-6.3-49.3 4.8-18.7 17.4-34.7 25.2-52.4 13.6-31.3 25.8-63.1 41.7-93.6 1.8-3.9 3.6-8.4 6.8-12.1zm-10.2 45.5c-2.2 1.3-2.7 2.9-1.4 4.9-11.8 23.6-20.2 48.5-32.8 71.8-5.6 10-5.9 21.4-7.6 32.3-3.1 23.7-.1 48 9.6 70.4 2.8 5.3 6.7 10.1 10 15.2-.3-6.5-3.1-12.5-4.5-18.7-5.5-22.2-9.6-45-7.7-67.8 1.5-20.7 12.2-39.4 19.5-58.8 5.2-15.1 10.7-30.2 15.6-45.4 1.7-1.9 1.5-3.2-.7-3.9zM864 76.4c-18.4 14.4-25.2 36.3-27.7 57 10.2-10.4 17.8-22.6 28.6-32.7 7-6.5 14.5-14.2 14.4-23.6-1.4-7-11.2-4-15.3-.7zM524.1 106c-6.1 20.4-17.3 39.4-22.4 60.1-4.5 21.7-1.4 44 2.8 65.5 3.6 12.8 5.1 26.5 12.6 38.1 3.4.4 6.9.3 10.4.3-3.9-9.3-9.2-18.4-11-28.3-2.4-13-5.1-26-3.8-39.2 1.3-15.4-.3-30.9 2.3-46.2 3.3-22.4 11.9-43.9 17.8-65.8.9-3.5 1.4-7.1 1.7-10.7-5.3 8-6.6 17.6-10.4 26.2zm282.6-20.2c-8.2 7.3-7.7 18.7-5.2 28 3.9 10.6 7.6 22.2 17.4 29.9.2-11 .8-22.1 3.4-32.9.8-8 3.2-17.1-1.5-24.6-2.9-4.7-10.4-4-14.1-.4zm-264.3 3.7c4.1 19.4 13 37.8 19 56.9 5.4 21.8 8 44.5 3.8 66.6-3.9 19-15 36-21.5 54.3 1.2-.4 3.6-1.3 4.8-1.7 5.5-11.5 12.6-22.6 15.8-34.8 3.3-12.6 5.4-25.4 8-38.1 3.5-17.6 1.1-35.8-4.5-52.9-6.6-17.2-16.4-33.3-23.2-50.3h-2.2zm.3 58.5c3.6 20.2 3.8 40.8 3.1 61.2-1.5 20.4-6.7 40.4-12.1 60.2 1.3-.3 3.8-1 5-1.3 7.8-19.2 18.9-37.5 23-57.8 3.6-21.2.9-42.9-4.5-63.8-6-18.1-13.4-35.8-18.6-54.1-3.9 18.6 2.1 37.2 4.1 55.6zm-9.8-28.1c-2.1 32.3-4.2 64.7-1.4 97.1 1.1 14.1-1 28.4.8 42.4 6.5-22.9 11.2-46.5 9.7-70.2.6-22.7-4.2-45-7.3-67.5-.4-.5-1.3-1.4-1.8-1.8zm-7.9 9.7c-3.6 12.9-6.6 25.9-7.2 39.2-1.1 11.2-.2 22.5-1.1 33.7-.6 6.8-.9 13.8.5 20.5 2.3 12 3.1 24.7 9.7 35.7 2.2-21.7.5-43.4-.7-65.1-.5-23.8 1-47.5 2.6-71.2-2.7 1.6-2.9 4.7-3.8 7.2zm51.4 26.4c3.7 19.3-.2 38.7-4.2 57.7-1.5 6.5-1.8 13.3-5.6 19.2-3 11.1-9.6 21-14.6 31.4 5.4 1.7 7.2-3.3 8.4-6.6 3.6-9.6 9.1-18.7 10.9-28.7 6.2-13.9 12.2-28.3 12.4-43.4.5-11.1-2.3-22-6.5-32.4-.3-6.7-6.6 2.9-.8 2.8zm274.3-3.1c-20.1 5.4-38.3 16.1-52.5 29.5-18.1 19.9-34.8 43.2-34 69.5-1.2 28.3 14.8 53.7 26 79.4 5.8-1.6 8.4-10.9 16.1-8.2 7.5 3.7 6.2 12.4 7.7 18.7 4.7-4.4 8.2-9.8 13.1-14 4.4-1.8 10.8-.3 12.3 4.1 2.4 5.6 3.1 11.7 4.4 17.6 4.1-2.7 7.4-6.1 10.7-9.5 2.9-3.3 10.1-4.1 12.7-.1 2.7 4.4 3.6 9.5 5.2 14.3 5.6-4.2 11.5-9.7 19.4-9.9 6.7.9 5.4 8.2 9 11.9 10.7-34 20-68.3 30.3-102.4 2-6.1 2.3-13.6 8.7-17.6 11.1-6.8 25.4-5.9 38.3-5.6-3-24.4-17.8-47.4-40.4-62.1-24.2-16.8-57.4-21.8-87-15.6zM489 235.6c-1.6-8.7-4.2-17.2-5-25.9-1.9-14.4.6-28.8 1.7-43.1-14.5 20.7-13.1 49.4 3.3 69zm457.9 11.1c4.8 8.5 14.1 14.1 23.1 19 28.5 14.5 60.6 23.6 93.3 26.9 11.4.7 23.7 1.7 34-3.4-1.1-2.4-2.1-5.1-4.3-6.9-8.9-8-20.3-13.4-31.5-18.5-27.5-11.5-57.2-19.5-87.7-21.3-9-.2-19.3-1-26.9 4.2zm-5 15.3c-7.8 27.9-15.9 55.7-23.7 83.6 5.2 5.4 7 12.2 8.9 18.9 4.6-4.3 9.3-11.8 17.4-9.1 7.7 3.9 6.5 12.6 8.2 19.1 4.8-3.2 9.1-6.9 13.2-10.7-6.4-8.8-7-20.2-2.9-29.8 1.5-3.1 4.2-7.1 8.8-6.5 12 3.4 23.3 8.5 35.1 12.2 3.5.6 6.1 3.9 4.9 7-5.3 11.2-17.4 20.3-31.4 21.8l.3 10.3c5.1-3.6 10.8-9.1 18.1-6.9 7.2 4.1 5.8 12.8 7 19.3 2.8-3 5.4-6.2 8.8-8.8 4.8-2.6 11.4.7 12.6 5.2 2.3 6.8 3.8 13.8 5.6 20.6 3.6-4 7.5-8.1 9.9-12.8 15.1-30.6 31-60.8 46.2-91.4-22.6 1.9-45.1-2-66.7-7.2-28.5-7.4-57.2-17.5-80.3-34.8zm-433.7 17.3c-1.1 6.1-2.2 12.2-3.1 18.3 18.1 4.2 37.4.4 53.6-7.3-1.1-5.1-2.4-10.2-3.7-15.2-15.1 3.8-30.9 7.4-46.8 4.2zm-134.1 6.5c-7.8 26.7-13.5 53.9-23 80.2-.9 2.6-1.6 5.3-2 8-1.9 29.1.3 59.2 14.1 86.2 4.3 10.9 12 20.4 21 28.6-8.7-19.2-17.3-38.5-22.3-58.8-5-17.2-7.3-35.2-4.7-52.8 2.5-17 8.7-33.4 11.5-50.3 2.8-16.1 6.6-32 8.5-48.2-1.4 2.1-2.4 4.6-3.1 7.1zm-.7 41.1c-3.2 18.7-10.3 36.8-12.4 55.7-1.2 9.1-.1 18.2 1.1 27.3 4.3 24 12.3 47.5 23 70 2.4 4.7 4.5 9.6 8.3 13.6 3.8.1 7.5-.3 11.3-.5-5.8-10-13.3-19.4-16.8-30.3-3.7-11.7-8.6-23.3-9.4-35.5-1.2-14.9-3.8-29.7-5.2-44.6-1.8-27.3 4.9-54.2 8.1-81.2.6-4.8.6-9.6-.2-14.4-3 13.2-5.1 26.6-7.8 39.9zm131-25.9c-.1 1.4-.2 4.3-.2 5.7 19.1 4.8 39.7 2.1 57.5-5.4-.5-2.4-1.1-4.8-1.6-7.1-17.2 7.2-36.9 11.2-55.7 6.8zm-112.6-3.8c1.8 10.7 8.9 19.7 13.4 29.6 5.3 11 12.3 21.3 17 32.5 8.3 21.2 14.5 43.4 14 66-.8 21.5-9.8 41.8-14.5 62.7 1.1-.5 3.4-1.5 4.5-2 4.6-13.2 10.2-26.4 11.6-40.2 1.4-14.8 1.7-29.6 2.2-44.4.1-23.5-8.3-46.8-22.4-66.7-8.4-12.7-16.5-25.5-25.8-37.5zm-4.1 5.3c-.4 14 4.3 27.5 8.4 40.8 4.9 16.7 10.9 33.3 13.8 50.4 1.9 11.5 4 23.1 5 34.7 1 21-.9 42-3.4 62.9l5.1-1.8c4.8-22.1 14.5-43.4 15.1-66.1-.2-23.3-6.4-46.3-16.1-68-9.6-17.5-19.1-35.1-27.9-52.9zm146.4 9.8c-10.3 1.3-20.6-.1-30.6-2.1-4.8 37.8-1.7 76 4 113.6 3.2 20.2 4.1 40.9 11.3 60.5 14.1 14.7 44.8 11.2 55.9-4.8.6-15.8.5-31.6 1.2-47.4 1.1-19.9-.4-39.8-2-59.6-2.1-22.6-7-44.8-11.1-67.1-9.4 2.7-18.8 5.9-28.7 6.9zm565.3-2.2c2 2.3 5.6 1.7 8.4 2.3 16.2 1.3 30.3 12.6 34.1 26.2 2.3 8.6-1.1 17.9-7.8 24.4-12.1 11.6-28.2 19.1-43.9 26.3-10.7 5.5-22.1 10-32.9 15.2-1.7 1.2-7.5 2.9-3.9 5.3 22.6-10 45.4-20 67.2-31.4 12.1-6.7 24.6-15.2 28.6-27.8 5.6-14.8-3.9-32.6-20.4-38.5-9.2-3.6-19.6-3.4-29.4-2zm-4.8 12.4c-3.6 7.8-8 15.3-11.2 23.2.2.6.5 1.9.7 2.5l-1.2-1.6c-4.2 7.3-7.5 14.9-11.2 22.5l.2.3c-4 5.9-6.9 12.2-9.5 18.6 6-2.5 11.8-5.2 17.6-7.9 7.1-3.1 13.9-6.6 20.7-10.2 9.9-5.2 20.9-10.4 26.4-19.7 4.7-8.5-1.6-18.3-9.9-23-6.7-4.1-14.9-4.2-22.6-4.7zm-437.3 61c-13.1 24-27.2 47.6-38.1 72.4-7.8 17.8-17.1 35.2-26.1 52.5-11.5 24.2-21.4 48.9-30.9 73.8-4 11.7-9.3 23.2-11.7 35.3 2-.6 4-1.4 5.8-2.3 9.5-17.5 13.8-36.6 21.7-54.5 4.9-10.6 9.1-21.4 14.7-31.7l2.8.8c-3.1 9-7.8 17.5-11.5 26.3-8.9 19.1-13.4 39.6-23.4 58.4 7.4-1.2 14.9-2.6 22.4-3.6 5.7-13.6 10.6-27.4 15-41.4 6.2-19.5 14.7-38.3 21.4-57.7 9.9-28.2 32.2-51.5 43.5-79.3 4.4-10 7.1-20.5 12.3-30.1.9-.6 2.6-1.7 3.4-2.3-.2 2.4-.8 4.8-1.8 7.1-5.1 11.3-8.5 23.1-14 34.3-8.5 17.8-21.1 33.7-30.8 51.1-9.6 16.4-13.5 34.6-21.4 51.5-10 21.6-13.7 44.9-23.9 66.5 8.8-.8 17.5-1.7 26.3-2.3 8.6-13.2 17-26.6 23.3-40.9 8.5-18.8 17.7-37.4 26.5-56.1 1-2.4 2.9-4.3 5.1-5.9-.1 3.3-1.1 6.5-2.6 9.4-8.8 18.3-17.7 36.6-26.1 55.1-5.9 13.2-13.7 25.8-21.7 38.2l11.1-.9c6.3-19.3 20.9-35.4 28-54.4 3.7-9.7 6.3-19.8 10.2-29.5 7.2-18.2 17.8-35.2 28.5-51.9 1.4-2.4 3.4-4.6 6.3-5.7-.8 2.9-1.9 5.7-3.6 8.2-9.5 14.7-18.8 29.6-25.6 45.4-7.2 16-10.1 33.4-18.9 48.9-7.3 12.9-15.9 25.4-21.5 39 11-.4 22.1-.8 33.2-.8 17.8-36.4 36.4-72.5 54.5-108.8 1.2-2.8 3.1-5.3 5.5-7.4.6 3.6-1.4 6.9-2.9 10.1-18 35.3-35.3 70.9-53.6 106.1 3.8.1 7.6.1 11.4.2 32.7-66.2 66.1-132 99.2-198.1 1.7-2.8 2.8-6.6 6.7-7.6-1.5 6.5-5.2 12.4-8.1 18.5-31.3 62.4-62.8 124.7-94.2 187.1 10.4.3 20.7 1.1 31.1 1.9 12.1-22.1 24.5-44.1 36.3-66.4 5.7-8.7 9.4-18.5 16.1-26.7.3 2.2-.1 4.2-1.2 6.2-15.6 29.3-32.3 58.1-48 87.3 4.6.5 9.3 1 14 1.3 5.5-12.8 13-24.8 19-37.4 10.9-21 19.8-42.8 29.6-64.2 11.2-26.8 26.1-52.5 46-75.3 5.4-5.6 9-13.4 17.1-16.5-1.9 5.3-6.4 9.4-10.1 13.8-11 12.8-21.5 26-29.9 40.2-26.4 45.3-41.6 94.9-68.9 139.8 4.4.7 8.8 1.4 13.2 2 4.5-10.6 10.5-20.5 16.1-30.7 12.6-21.9 17.1-46.5 28.1-68.9 1.3-2.8 2.8-5.8 6-7.3-1.4 5.9-5 11.2-7.3 16.8-7.1 16.8-11.5 34.4-19.4 51-6.2 13.5-14.9 26-20.5 39.7 7.1 1.6 14.2 3.3 21.2 5.3 7.5-19.7 16.3-39 23.9-58.6 7.9-19.5 18-38.2 26.9-57.3 5.8-12.1 11.5-24.3 19.9-35.3 1.9-2.2 3.9-5.5 7.8-4.9-3 5.2-7.2 9.7-10.3 14.8-7.5 12.1-13 25-19.3 37.6-17.3 34.2-32.3 69.3-46.1 104.7 3.2 1 6.4 2.1 9.6 3.1 14.6-31.1 29.3-62.1 44-93.1 8.5-17.5 16.1-35.4 25.3-52.6 4.5-.8 1.6 4 .9 5.7-22.3 47-44.4 94.1-66.8 141.1 5.7 2.2 11.4 4.5 17.1 6.7 29.4-58.7 59.5-117.2 89.1-175.9 1.9-3.2 3-7.1 7.1-8.8-.8 3.5-1.8 6.9-3.6 10.1-30.1 58.5-59.5 117.3-89.7 175.8 1.6.8 3.3 1.6 4.9 2.4 17.5-32.4 36-64.4 53.9-96.6 2.1-3 3.3-7.1 7.5-8.5-1.1 4.3-3.1 8.4-5.4 12.2-17.9 31.3-34.9 63-53.2 94 8.2 4.3 16.5 8.5 24.5 13.2 32.7-65.7 64.4-131.7 96.9-197.5 1-2.1 2.6-3.9 4.7-5.2 1 4.6-2.2 8.7-4 12.8-31.4 64-63.2 127.8-94.5 191.7 2.8 1.8 5.3 4 8.7 5 25.7-51.9 50.4-104.3 75.9-156.4 1-1.9 2.5-3.3 4.5-4.3-.5 3.8-1.9 7.5-3.7 11-24.8 50.6-48.7 101.6-73.9 152 2.6 2 5.4 4 8.1 5.9 8.4-13.6 17-27.2 26.1-40.5 3.1-4.6 5-9.8 9.2-13.8.1 1.9-.4 3.7-1.3 5.4-8.8 17.7-21.1 33.8-31 50.9 3.1 2.6 6.4 5.1 9.6 7.7 10.2-18.6 19.6-37.5 30.3-55.9 18.2-34 35.6-68.3 53.9-102.2 1.6-2.4 2.7-5.4 6.1-6.5-1.4 6.8-5.4 12.9-8.6 19.1-11.2 20.9-22.1 41.8-33.7 62.5-15.4 28.3-29.4 57.1-45 85.3 2.5 2 5 3.9 7.5 5.9 22-44.2 44.4-88.2 66.4-132.4 1.8-3.4 2.9-7.4 7.1-9.2-.2 2.9-1.1 5.7-2.4 8.3-23 45.2-45.3 90.5-68.4 135.7 6.5 5.2 12.9 10.6 19.5 15.8 15.7-28.3 31.6-56.4 47.6-84.5 12-19.2 21.6-39.6 34.2-58.5.4 1.7.3 3.4-.8 4.9-26.2 46.9-51.8 94-78.6 140.6 2.2 1.8 4.3 3.7 6.5 5.5 9.2-13.4 19.3-26.4 29.6-39.2 12.5-15.5 20.8-33 30.2-50 2-3.2 3.4-7.2 7.7-8.7-1.4 6.9-6.1 12.7-9.2 19-7.2 13.8-14.7 27.6-24.6 40.1-10.8 13.5-21.3 27.1-31.7 40.8 3 2.8 6.1 5.6 9.1 8.4 8.1-10.8 16.9-21.1 24.5-32.2 14.2-20.5 25.6-42.4 36.3-64.4 12.3-26.4 27-51.9 40.1-78 2.1-3.6 3.1-8.3 7.9-9.9-.3 2.3-.9 4.6-2 6.7-15.2 30-31.9 59.3-46.2 89.7-15.4 31.9-34.2 62.7-58.4 90.2 1.7 1.6 3.4 3.2 5.2 4.9 9.4-10.8 16.7-22.8 24.6-34.5 11.3-17.2 23.5-34 34.4-51.4 14.6-23.3 26.4-47.9 37.6-72.5 14.9-33 24.8-68 26.2-103.5-3.4 4.3-5.3 9.4-7.7 14.1-17.3 34.8-34.7 69.6-52.1 104.4-1.7 3.1-3 6.9-7 8.3 3.1-10.9 9.5-20.9 14.3-31.3 17.2-34.3 34-68.8 51.2-103.1 3.6-6.8 1.8-14.5 1.7-21.6-3.9 6-6.2 12.8-9.4 19.1-10.2 21.8-25.3 41.5-36.1 63-3.6 6.3-6 13.4-12.1 18.4.5-5.9 4-11.1 6.7-16.4 14-27.4 33.4-52.6 44.7-81.1-4.8.3-8.9-1.7-10.7-5.7-35.3 65.7-71 131.2-106.3 196.9-1.8 3-3.1 6.8-7.1 8.2.7-3.4 2-6.7 3.8-9.9 33.6-62.2 67.1-124.5 100.7-186.8 3.3-6.4 7.4-12.4 9.5-19.2-4.5 3.3-8.2 8.3-14.8 8.1-15.8 29.1-32.2 57.9-48.1 87-1.9 3.5-4 7.1-7.6 9.6.5-3.4 1.7-6.7 3.4-9.7 16.6-29.7 32.8-59.5 49.4-89.3-1.9-5.3-3-10.8-4.6-16.2-5.5 9.7-7.4 20.6-12.3 30.6-6.7 16.4-17.4 31.1-26.3 46.6-2.3 3.7-4.1 7.9-8.5 10.1 2.4-10.3 9.9-19 15.1-28.3 13.6-21.4 23.3-44.7 29.5-68.5-5.8 4.5-9.2 12.3-18 12.9-22.8 45-45.3 90.1-67.9 135.2-2.4 4.7-4.2 9.8-8.9 13.3.1-3.5 1.2-6.8 2.9-9.9 23.5-46.4 46.7-93 70.1-139.4-4.3-7.4-1.9-15.9-3.6-23.8-2.5 3.8-4.3 8-6.1 12.1-10.5 23.2-21 46.3-31.4 69.5-1.7 3.3-2.9 7.1-6.6 9.3.1-3.3 1.1-6.4 2.5-9.4 11.3-24.9 22.7-49.8 33.9-74.7-4.3 2.5-10.3 6.1-15.2 2.6-4.8-4.8-2-11.6-2.1-17.2-6.1 3.9-8 10.4-10.9 16.2-30.6 62.7-61.3 125.4-92.1 188.1-1.9 3.5-3 7.7-7.1 9.9-.2-2.4.3-4.7 1.5-6.8 32.3-66 64.7-131.9 97.2-197.8-5.4 2.3-11.3.8-15-3-16.4 36.3-33.1 72.5-49.6 108.8-1.7 3.5-2.8 7.5-6.7 9.6-.3-4.9 2.5-9.2 4.4-13.7 16.5-35.9 32.7-71.9 49.3-107.8 2-3.6 1.6-7.6 1-11.4-3.7 3.3-6.4 7.8-11.6 9.5-3.4.9-6.5-.6-9.5-1.6-12.4 27.8-26.4 55-39.3 82.6-13.7 28.4-27.3 56.7-40.9 85.1-1.1 2.8-3.1 5.1-5.7 7 .1-5 2.8-9.6 5-14.1 25.5-52.7 50.7-105.5 76.4-158.1 4.3-5.5 1.8-12.2-.6-18-11.5 25.2-23.1 50.4-34.8 75.6-1.1 2.3-2.6 4.6-5 6.1.3-2.5.8-5 1.8-7.3 10.4-23.5 21.7-46.6 31.8-70.1-4.7 3.3-9.5 9.3-16.4 7-4.4-1.7-3.8-6.1-2.9-9.5-26.4 50.1-51.8 100.7-77.9 151-1.5 2.4-2.7 5.5-6 6.6 1.4-6.6 5.1-12.5 8.1-18.6 15.6-30.2 31-60.4 46.6-90.6 9.3-18.9 19.9-37.4 28.6-56.5-6.4 3.5-9.6 11.6-17.9 11.8-7.4-.7-7.1-8.4-8.6-13.1-5.4 8.2-8.6 17.2-13.3 25.7-10.4 20.1-26.3 37.4-37.8 56.9-8.4 14.2-17 28.3-24.5 42.9-1 2.2-2.6 4-5.3 4.7 1.5-7 5.8-13.2 9.2-19.6 7.1-12.4 14.2-24.8 21.9-37 9.6-15.3 22-29.1 30.6-44.9 5.3-9.6 10.3-19.3 14.3-29.4-5.1 4-10.4 8.8-17.9 8.2-4.5 7.5-8.4 15.2-12.8 22.7-11.3 19.1-25.5 36.9-37.1 55.8-9.8 15.8-17.3 32.5-26.1 48.7-8 14.8-15.8 29.8-22.4 45.1-1.3 2.2-1.9 5.5-5.4 5.9 4.2-16.5 13.6-31.6 21.3-47 11.3-20.6 20.7-42 33.9-61.8 15.7-23.3 32.6-46.1 45.1-71-2.4-6-2.9-12.4-4.6-18.6-5.4 7.3-7.6 16-13.5 23.2-7.9 12.4-12.6 26.6-23.3 37.6 0-2.9.4-5.8 2.2-8.3 4.7-7.4 9.2-14.9 13-22.7 2.8-6.5 8-11.9 11-18.4-3.8 1.5-8.3 4.4-12.6 2.1-4.2-3.1-3.9-8.3-4.8-12.5-5.4 9.6-10.6 19.3-17.2 28.3-20.3 28.3-38.3 58-52.2 89.1-1 2.1-2.5 3.8-4.5 5.3-.3-5.9 3.1-11.2 5.5-16.6 12.9-26.3 28.1-51.7 45.4-75.9 7.5-10.4 14.3-21.3 19.7-32.7-4.8 3.7-9 8.7-15.9 9.2-7.8 14.6-17.8 28.2-27.3 42-36.1 53-58.3 111.8-79.8 170.2-.7 2.3-2.3 4.1-4.3 5.7-.8-4.6 1.4-9 3-13.4 20.6-55.3 42-111 76-161.4 9.9-14.6 20.9-28.6 28.9-44.1-3.8-5.8-3.3-12.6-4.4-19-5.5 5.7-13.5 10-16.5 17.3-15.7 31-30.6 62.3-46.5 93.2-1 1.9-2.5 3.3-4.7 4.2.3-2.2 1-4.4 1.8-6.5 15.7-31.7 32.2-63.1 48.1-94.8-5.5-2.2-7.9-7.1-11-11.3-23.2 46.8-46.9 93.3-70.2 140.1-1.4 2.5-2.4 5.7-6 6.4.3-3.2 1.6-6.2 3.1-9.1 22-43.4 43.6-87 65.7-130.3-2.1.1-6.2.2-8.3.3-16.3 28.2-33.7 56-48.9 84.7-16.9 31.1-29.7 63.8-42.9 96.2-9.4 24.2-21.5 47.8-27.7 72.8l-2 2c-2.1-3.2-.5-6.7.2-10 4.4-16 11.7-31.2 18-46.6 15.4-36.7 29-74.1 47.9-109.6 16-31.4 35.9-61.1 53.5-91.8-1.6-3.9-3.6-7.6-6-11.2-4.4 5.4-8.4 13.9-17.9 11.3-26.4 34.3-44.5 72.7-64 110.1-12.8 24.7-24.6 50-32 76.5-1.9 4.7-1.6 10.5-6.3 14-1-7.3 2.9-14.1 4.6-21.1 9.7-33 26.8-63.9 42.8-94.9 15.7-30.3 31.3-61.1 53.6-88.4-1.7-3.5-3.8-6.9-5.9-10.3-18.1 16-27.8 37.7-39.7 57.8zm-265.7 1c2.5 25.1 9.6 49.6 12.9 74.6 1.4 7.9 1.5 16.1 3.7 23.9 1.1-9.6 1.8-19.2 2.2-28.9 2.5-22.5-2.5-45-6.4-67.1-4.6-19.2-10.7-38.2-17.2-56.9.1 18.2 3.3 36.2 4.8 54.4zm-10.1-51.4c-4.2 22.6-5.2 45.7-1.4 68.4 2.7 15.2 1.9 31 7.5 45.8 3.6 11.7 7.2 23.6 14.9 33.8-1.6-20.2-5.2-40.3-9.6-60.1-5.1-23.9-6.8-48.2-9.6-72.3-.7-5.3 0-10.6-1.8-15.6zm592.2 7.5c.3 5.1-1.5 12.3 4.2 15.6 6.9.9 12.7-3.5 17.1-7.5-6.9-3-14.2-5.4-21.3-8.1zM437 362.2c9.8 22.2 7.4 46.4 6.2 69.7 0 15.3-4.8 30.2-10.2 44.7-.8 2.2-1.1 4.5-1 6.9 2-1.5 4.1-3 4.4-5.5 2.2-8 4.3-16 6.4-24.1 1.6-12.6 6.8-24.5 8.1-37.1 2.4-18.6-1.4-38.1-12.4-54.4 3.3-3.3-5.3-3.3-1.5-.2zM358.3 461c-2.2-6-5-11.9-6.9-18-6.3-18.4-7.3-37.8-7.6-56.9-11.8 24.7-6.5 55.2 14.5 74.9zm713.9-7c-1.9 15.8-3.1 31.7-6.3 47.4 4.1-15.6 7.3-31.4 6.3-47.4zm4 15.3c-.7 18-7.9 35.2-11.9 52.7-5 20-6.3 40.6-13.4 60.2-6.3 18.9-16.4 36.6-23.5 55.3-1.2 2.9-2.1 6.3-5.8 7.7 0-2.5.4-4.9 1.3-7.3 8.4-21.8 20.4-42.5 26.8-65 3.2-10.8 4.5-21.9 6.7-32.8 1.7-1.2 2.5-5.2-.2-5.6-2 1.5-2.5 4.6-1.2 6.6-16.7 42.3-36.3 84.1-63 122.4-15.9 22.8-30.1 46.6-47.8 68.4 1 .5 3 1.6 4 2.1 24.8-21.3 37.4-50.2 56-75.3 1.3-1.6 2.9-2.9 4.4-4.2-.1 5.9-5.1 10.3-8 15.3-15.5 22.6-27.6 47.7-49.9 66.1l8.1 4.5c21.8-24 43.2-48.6 58.6-76.3 9.1-16.3 19.4-32.2 27.8-48.8 1.8-3.3 3-7.3 7.1-9-.2 5-3.3 9.3-5.5 13.8-7.6 14.6-16.6 28.5-24.7 42.9-15.7 28.6-37.6 54.3-60.6 78.8 2.7 1.3 5.5 2.5 8.2 3.8 4.9-6.9 11.2-13 15.3-20.3 3.4-4 5-9.5 10.4-11.9-5.8 11.9-13.2 23.4-22.9 33.2 2.7 1.5 5.5 3 8.3 4.4 11.7-23.8 25.3-46.8 38.9-69.7 14.3-23.9 25.7-49 35.6-74.5 15.2-38.7 25.6-79 28-119.9-.4-.1-1.3-.1-1.7-.2-.7 15.1-4.2 29.9-7.5 44.6-4 16.8-7.3 33.6-11.4 50.4-.4 2.1-2.2 3.7-3.5 5.3-1.4-7.6 2.2-14.9 3.4-22.3 7-35.4 19.4-70.9 14.4-107.1-1 3.7-.5 7.7-.8 11.7zm-556 20.7c1 3 1.9 5.9 2.9 8.9 5.1 2.5 10.4 5.6 16.5 5.6 10.6.3 21-3 30.3-7 5.8-2.1 4.5-8.1 4.9-12.4-13.7 12.5-38.4 15.4-54.6 4.9zm-109.3 13c-8.1 2.1-16.7 2.1-25.1 2.1.4 6.5-1.6 13.5.7 19.6 19.6 2.3 39.4-4.4 55.1-14.4-2.3-5.1-4.4-10.2-6.4-15.4-8.3 2.3-15.9 6.1-24.3 8.1zm114.6.7c1.5 6 4.2 11.8 7.4 17.3 1.1 1.6 2 4 4.6 3.9 7.8.8 15.8.1 23.4-1.5 2-.3 3.4-1.2 4.4-2.8 4.5-6.3 6.8-13.6 7.9-20.8-14.6 5.7-32.4 11.6-47.7 3.9zm-140 25c0 1.4.1 4.4.2 5.8 21.3 2.8 43-2.4 60.7-12.7-1.1-2.5-2.3-5-3.5-7.5-16.4 10.4-36.9 16.5-57.4 14.4zm.2 9.8c1.1 40.5 10.2 80.4 22.2 119.4 6.6 21.3 11.4 43.2 21.9 63.4 17 14.4 48.8 6.9 58.8-10.9-2.2-21-5.6-41.9-7.7-62.9-4-26.2-9.5-52.2-17.8-77.6-5.1-14.7-9.9-29.5-15.3-44.1-18.4 10-40.3 15.6-62.1 12.7zM254 530.1c.7 5.4 1.2 10.9 2.6 16.2 4 2.3 6.8-2.1 9.4-4.1-3.7-4.2-6.6-9.2-12-12.1zm281.1 5.1c2.5 21.1 5.1 42.1 7.5 63.2 6.8-16.9 12.3-34.3 19.8-51 2.3-4.2 2.3-8.9 2-13.4-9.7 1-19.5 1.4-29.3 1.2zm649 7.1c1.5 5.5.8 11.2-.3 16.7-2.5 4-4.5 8.2-7.1 12.1-4.4 6.7-12.4 10.6-19.3 15.2 3 4.8 7.2 8.8 12.1 12.2 17.9 11.7 47.3 3.5 53.7-15.4 5.7-12.8-.5-27.9-13.1-35.7-7.3-5.1-17.1-5.1-26-5.1zm-25.4 15.3c-4.9 6.4-4.7 14.5-4 21.8 6.4-3.8 12.9-8 16.6-14.1 4-6.3 8.8-14.3 3.9-21.2-6.3 3.7-13 7.4-16.5 13.5zM273.8 551c-4 4.2-9.5 6.8-15.8 6.7 1.8 16.4 4.3 32.7 6.6 49 0 3.6 4.4 5 7 7.2.5-4.2-2.3-11 4-12.9 4.8-1.8 8.4 2.2 11.9 4.3-1.2-4.8-2.4-12.3 4.8-13.9 6.8 0 10.2 6.5 15.1 9.8.8-3.6 1.7-7.2 2.4-10.8-12.3-12.9-23.6-26.5-36-39.4zm-123 19c-12.8 5.2-19.4 17.5-19.9 29.3 1.1 12.1 9.3 24 22.6 28.6 12.4 5.1 27.1 2.4 37.9-4.3-2.9-5-6.7-9.8-8.5-15.3-3.6-11.9-2.6-25.4 6.3-35.4-10.2-7.6-26.5-8.9-38.4-2.9zm45.9 48.9c11.3-12.2 10.7-31-1.6-42.4-11.5 12-8 30.3 1.6 42.4zm960.8-19.5c-.9 1.8-1.9 3.6-2.9 5.4-15.8 20.6-28.9 42.7-43.1 64.1-4 5.2 1 12 8.1 11.3 26-20.4 44.8-46.5 68-69.2-11.4-.2-21.7-5.4-30.1-11.6zm-837.3 3.7c-1 4.7-1.9 9.5-4 14 17.3 39.6 34.3 79.3 51.7 118.9 14.4 31.3 28 62.9 41.8 94.5 3.1.4 6.2.7 9.4 1.1-33-76.2-65.5-152.5-98.9-228.5zm-18.5 10c.3 3.8.2 7.8-2.2 11.1 17.3 38.4 33.4 77.1 50.7 115.5 12.9 29.6 26.1 59.2 38.8 88.9 5.4.6 10.9 1.1 16.3 1.3-17.7-39.7-34.6-79.6-52-119.3-14-30.5-27-61.3-41-91.8-3.9-1.3-7.5-3.3-10.6-5.7zm-18.4 3.9c.9 5.1-1.8 10.3-.5 15.3 28.6 65.3 57.4 130.6 85.9 195.9 5.5.2 11.1.3 16.7.4-12.8-29.7-26.1-59.2-38.9-88.8-16.3-38.3-33.9-76.1-50.2-114.3-5.3-1.7-9.2-5.2-13-8.5zm263 12.2c6.4 29.1 12.8 58.2 17.7 87.5 32-8.3 65.8-3.5 98.4-.4 1.2-6.6 2.1-13.6 6-19.5 1-1.8 3.2-3.3 5.6-3 14.5.7 28.8 3.5 42.8 7.1 13 2.7 25.9 6.6 37.1 13 5.6 4.9-1.8 10.6-4.6 15.1 11.5 3 22.8 6.5 33.7 10.9 27.9 11.2 55.2 24.4 78.1 42.3 21.7-16.3 45.1-30.9 66.3-47.9-21.3-21.1-45-40.3-69.1-59.1-22.4-17.8-48.9-31.2-76.5-42-21.1-8.2-43.9-12.1-66.8-14.1-27.9-2.8-56-3-84-1.5-28.5 1.4-57.4 3.6-84.7 11.6zm-273.4.9c28.9 66.2 57.5 132.5 86.3 198.6h5.3c-.7-2.2-1.3-4.3-2.2-6.4-27.6-62.9-55.3-125.8-82.8-188.7-.4-3.2-3.7-3.3-6.6-3.5zm-123.8 3c10.3 30.2 13.6 61.9 26.7 91.4 3 .6 6 1.2 9.1 1.6 2.3-2.7 6-5.2 5.3-9-.1-10.7-2.1-21.3-2-32-.3-16.9-4-33.7-3.7-50.7-11.6 3.2-24.3 3.2-35.4-1.3zm941.1 69.1c8.7-3.7 15.5-10 22.1-16-3.1-1.6-5.9-3.4-8.6-5.4-4.8 7-10.5 13.6-13.5 21.4zm-525.8 16.7c.5 5 1.2 10.1 2.1 15.1 31.3-5 63.3-2.3 94.8-.1 0-4.7.2-9.4.4-14.1-18.6-1.9-37.2-4.5-56-4.3-13.8-.3-27.6 1.6-41.3 3.4zm-85.7 6.4c-13.3 7.6-31.6 9.5-45.9 2.9 2.3 3.6 3 9.1 8.5 10.2 15.3 6.3 31.7-1.3 44.7-8.4 5.7-2.7 4.4-8.4 3.9-13-4 2.5-7 6.1-11.2 8.3zm-299.8 6.8c2.4 5.6 4.7 11.2 7.4 16.7 1.5 2.8 2.8 6.3 6.8 7.1 0-8.9-1-17.8-2-26.6-3.7 2.2-8 2.6-12.2 2.8zm261.1 9.4c4 7.4 7.9 15.2 14.6 21 8.4.7 16.7-1.4 24.6-3.5 1.9-.8 4.7-1.1 5.6-3.1 4.3-7.5 5.4-16 6-24.3-14.9 7.9-33.3 16.9-50.8 9.9zm294.2 5c39 10.5 76.4 26.4 107.6 49.6 5.6-3.7 11.1-7.5 16.1-11.9-24.7-18.7-53.8-32.6-83.6-44.1-9.3-3-18.5-7-28.3-7.8-4.5 4.4-7.7 9.6-11.8 14.2zM567 736.8c4 37 5.2 74.1 3.9 111.2-1.1 43-6 86-16.6 128.1-7.2 30.2-18.3 59.5-27.4 89.3-13.8 43.5-26.6 87.3-36.6 131.6-6.5 31.9-11.9 65-4.2 97.1 3.9 15.6 11.1 31.6 25.6 42 11.6 8.8 30.7 8.9 42.3.1 15.2-10.7 24-26.6 31.3-42 13.3-30.7 19.9-63.1 30.1-94.5 10.6-33.6 21.3-67.2 27.1-101.7 7-40 13.3-80.7 32.5-117.9 28.2-54.8 68.1-105.2 118.3-146.5 14.2-12.1 29.5-23.1 44.3-34.4-2.2-3.7-7-5.5-10.5-8.2-28.5-19.2-61.9-32.3-96.2-41.2-12.4 12-25.9 23.3-40.7 33-7.4 5.4-17.3-.4-21.5-6.4-7.1-11.8-6.9-25.6-8.2-38.5-30.9-3.8-62.4-4.4-93.5-1.1zm303.1 51.9c8.4 8.8 18.4 16.7 25 26.9 25.5-18.8 52.2-36.4 78.1-54.8-12.8-6.8-26.5-12.5-38.1-20.9-21.8 16-43.1 32.7-65 48.8zm-414.2-14.8c23 85 46.4 169.9 69 255 4.3-9.3 6.6-19.1 9.8-28.7 1.8-6.5 5.2-13.2 2.6-20-17.3-70.4-34-140.9-51.4-211.2-9.7 2.9-19.9 4.1-30 4.9zm395 29.1c10.2 7.5 18.9 16.3 26.9 25.6 4.6-3.6 9.3-7.1 13.8-10.8-6.5-10-15.6-18.5-25.1-26.4-5.4 3.6-10.8 7.3-15.6 11.6zm-166 185.5c-20.3 41.6-24.3 87.1-33.6 131.1-7.2 35.2-19.9 69.2-29.8 103.8-8.5 27.3-14.6 55.4-27.8 81.4-2.8 5.7-6.7 11-8.9 16.9 6.6-5.6 11.5-12.4 16.1-19.2 9.6-14.8 17.1-30.7 22.6-47 23.5-69.4 31.3-142.1 55.4-211.4 11.5-33.3 29.1-65.1 52.8-93.2 16.1-19 35.1-36 54.6-52.4 28.5-23.2 58.1-45.5 87.8-67.6-7.2-9.7-16.2-18.7-26.9-25.5-69.9 48.4-127.4 111.2-162.3 183.1zM137 812.2c-16.5 13.3-34.1 25.6-52.1 37.4 8.7 7 16.4 14.9 24.9 22 6-1.2 8.7-10.3 16.5-8.5-4 4.2-8.9 7.7-13.3 11.7 15 13.4 29.8 27 44.9 40.4 5.2-3.7 9.5-9.1 16.4-10.2-2 5.9-9.4 8.3-13.8 12.7 18.9 17 37.3 34.4 56.6 51 5.4-4.1 9.8-11.3 17.9-11-3.5 5.7-11.7 8.3-14.6 14.1 8.2 8.1 16.8 15.9 25.7 23.4-3.5-21.8-14.5-41.9-18.7-63.6-2.6 1.4-4.7 5.2-8.1 3.9 0-3.8 5.1-5.8 7.4-8.7-.7-5.1-1-10.3-.6-15.5-2.1.7-4.2 1.2-6.4 1.5 1.7-3.4 5.2-5.7 7.4-8.7 1.1-2.6 1.7-5.3 2.5-8-2.3-2.2-4.7-4.4-7.4-6.2-4.4 3.7-7.4 8.5-12 12l-2.6-.6c2.3-5.6 8.1-9.5 12-14.2-3.3-3.1-6.6-6.1-10.1-9-5.4 4.3-8.9 12.7-17.2 12.7 4.2-5.6 10-10 14.9-15.1-3.3-2.8-6.5-5.7-9.7-8.5-4.4 4.2-7.8 10-14.4 11.8 1-6.1 8-9.4 12-14-3.9-3.4-7.1-7.6-11.8-10.1-9.2 7.2-17.3 15.7-26.9 22.5-1 .1-3.1.1-4.1.2 8.2-9.5 19.1-17 28.6-25.6-4-3.4-7.8-7-11.6-10.5-5.7 4.6-9.6 11.8-17.6 13.7 2.1-6.9 10.2-10.6 15.2-15.9-2.8-2.5-5.6-5-8.5-7.5-6.3 4.5-10.7 11.6-18.7 13.9 2.3-7.2 10.6-11 16-16.3-2.7-2.5-5.4-4.9-8-7.4-6 4.2-10.5 10.1-17.4 13.2.8-7.2 9.7-10.5 14.5-15.8-2.6-2.5-5.2-4.9-7.8-7.2zm742.4 29.7c4.3 2.3 7.7 6.9 4.5 11.2-3.3 6.9-16.1 8.3-18.7.1-16.9 11.7-32.9 24.4-49 37 12.8-.4 25.8.4 37.8 4.6 12.5 3.9 22.8 12.3 28.3 22.8 14.6-4 30.1-7.3 42-16.2 9.2-6.3 15.3-17.2 11.8-27.3-3.5-8.5-13.5-13.1-22.6-16.1-5.9-2.1-12.6-1.8-18.4-4.1-5.1-4 .2-9 4-11.7 8.1-7.2 19.1-15.4 16.8-26.6-12.5 8.6-24.6 17.3-36.5 26.3zm-559 13.9c-21.1 4.2-43.9 10.1-58.1 25.4-10.6 11-12.1 26.6-7.7 40 9.4 28.8 33.6 52.6 38.9 82.7 4.9 23.7-4 47.2-13.8 69-10.3 23.3-20.1 48.5-14.1 73.7 5.8 24.8 25.8 44.4 46.4 61.2 20.8 16.6 44.5 31.7 71.9 38.6 29.3 7.6 62.2 1.9 87.1-13 7.5-52.6 23.3-104 38.7-155.1-32-5.3-47.4-43-28.2-65.4 5.2-6.9 14.3-10 22.9-12.5-3.1-11.7-6.2-23.4-9.6-35.1-2.6-.1-4.4 1.8-6.6 2.7-10.2 5.4-23.6 3.8-33.3-1.7-22.1-12.3-29-41.2-14-60 7.7-9.4 22.1-14.4 35-11.9-3.2-11.3-6.2-22.6-9.2-33.9-24.2-9-50.7-13.3-77-12.7-23.3.5-46.4 3.9-69.3 8zm207.8 34.1c5.4 23.4 11.5 46.6 16.6 70 3.9-16.2 7.1-32.6 8.2-49.1-6.9-8-15.2-15.2-24.8-20.9zM802.1 902c-7.4 4.7-13.4 10.9-20.2 16.3-22.8 20.1-44.6 41.7-59.6 67 25.7-13.3 56.5-15.8 85.8-15.8 17.8 0 37.4-3.3 49.8-15.4 7.4-7.4 14.6-16.2 14.7-26.4-.1-10.2-9.1-18.4-19.1-22.6-15.9-6.4-34.5-6.7-51.4-3.1zm-341.5 3c-10.3 3.7-15.8 13.5-16.1 22.9-.6 12.4 6.5 26.2 20.3 31.2 8.3 3.6 18.8.7 24.6-5.3 2.8-2.7.4-6.4 0-9.5-3.9-12.1-6.2-24.5-10.3-36.5-5.3-3.4-12.3-3.9-18.5-2.8zm-216.9 29.3c2.3 13.8 8.7 26.6 12.4 40.1 5 16.9 7.7 34.7 4.9 52.1-3.7 30.1-20 57.8-22.4 88.1-3.9 32.5 9.7 64.9 31.4 90.9 23.7 28.3 58.7 50.2 98.4 57.1 33.6 6.4 68.4 1.1 100.7-7.8.4-2.4.8-4.8 1.2-7.1-15.7 6.5-32.2 12.1-49.6 13.3-31.7 3.2-62.9-7.7-88.3-23.4-24.5-15.6-47.8-33.4-64.7-55.6-14.2-18.5-20.8-41.5-17.1-63.7 4.2-33.1 26.6-62.2 29.9-95.4 2.1-24.2-11.6-46.2-24.3-66.8-4.8-7-7.8-14.8-12.5-21.8zm560.9 45.4c1.7 3.1 5.4 6.7 2.8 10.2-2.6 4.7-11.2 4.8-13.8.1-2.6-3.6.6-7.3 2.7-10.2-24.6.9-50.3 4-71.3 16.3-6.3 4-14.4 7-17.3 13.8-7.6 14.7-13.4 30-18.9 45.3 10.5-6.5 20.4-13.8 31.9-18.9 17.9-8.5 38.4-11.5 58.5-12.3 11.7-.7 23.6-.3 34.9-3.3 15.5-4.1 27.1-17.7 26.9-31.8-.1-5.7-5.9-11.9-13-10.4-7.8.8-15.6 1.3-23.4 1.2zM487.9 1023c-5.6 10.6-3.3 23.4 3.8 33 4.7 6.2 12.6 11.1 21.4 11 1.5-7 6.3-14 3.7-21.2-3.2-11.5-6.3-23-9.4-34.5-8.9-.8-15.9 5.2-19.5 11.7zm335.7 35.7c1 2.2 2.1 4.4 3.7 6.5 5.3-2.2 5.5-7.3 6.3-11.6-3.4 1.5-6.7 3.3-10 5.1zm97-.2c1.2 4.1 2.3 8.2 2.8 12.4h-2.6c-1-4-2.1-7.9-3.4-11.8-16.6 3.7-33.2 7.5-49.9 11 1 4.5 2 9 2.3 13.7-5.3-2.2-3.5-8.9-5.5-13-15.5 4-31.6 6.4-46.9 10.9-5.6 8.2-6.5 18.3-12.9 26.2-3.8 4.8-9.5 8.1-15.6 10.4-6.5 2.4-11.8 6.6-17.7 9.9 1.2 3.6 2.5 7.3 3.7 10.9 3.5-.8 7.1-1.5 10.6-2.3-1-3.3-2-6.5-2.7-9.8 4.5 1.2 4.4 5.9 6.1 9.1 2.5-.6 5.1-1.2 7.7-1.7-.7-3.6-2.5-7.2-1.8-10.8 4.2 1.4 3.6 6.9 5.2 10.1 3.2-.8 6.4-1.6 9.7-2.4-1.7-3.4-3.2-6.8-3.8-10.4 5.2 1.2 3.8 7.3 7.5 9.6 2.5-.5 5-1 7.5-1.6-1.5-3.3-2.9-6.7-4.3-10.1.7-.2 2.2-.7 3-.9 1.4 3.4 2.9 6.8 4.4 10.2 3-.6 5.9-1.1 8.9-1.7-2.2-6.7-4.4-13.5-6.2-20.3-.2-2-2.3-5.9 1-6.6 3.4 8.5 4.8 17.4 8.1 25.9 3.8-.8 7.6-1.5 11.4-2.4-1.6-4.6-3.6-9.2-3.8-14 5.3 2.6 4.5 9 6.7 13.4 4-1 8.2-1.9 12.2-2.9-2.1-4.4-4.4-8.8-5.3-13.6 5.8 2 5.4 8.9 8 13.1 3.8-.9 7.6-1.7 11.3-2.6-2.2-4.9-4.3-9.9-4.9-15.1 5.4 3 5 9.9 7.5 14.6 3.5-.8 7.1-1.6 10.7-2.4-1.8-4.3-3.4-8.7-4.1-13.2 5.3 2.2 4.9 8.4 6.9 12.6 4.3-.9 8.7-1.9 13-2.7-2.1-9.4-6.6-18.4-7.5-28 .6.3 1.9 1 2.5 1.3 3.2 8.5 5.4 17.2 8.1 25.8 4.4-.9 8.8-1.9 13.1-2.8-1.9-5.3-4.5-10.5-4.5-16.1 5.3 3.6 4.8 10.3 7.1 15.4 3.1-.6 6.2-1.2 9.4-1.8-1.4-5.6-3.4-11.1-4.6-16.7 6.4 2.7 5.1 10.8 7.7 15.9 3.1-.8 6.2-1.5 9.3-2.3-1.7-5.2-3.6-10.3-4-15.7 5.5 3.4 4.9 10 6.6 15.1l9-1.8c-4-15.3-6.9-30.8-9-46.4-9.2 2.2-18.6 4.4-28 6.4zm-168 8c11.7 13.7 22.6 28 31.1 43.4 17.2-4.8 15.4-23.3 24.3-34.3 3.3-2.7.6-7.9-3.6-8-11.7-1.3-23.2-3.4-34.9-5-6.1-1.1-11.9 1.1-16.9 3.9zm-71.2 39.3c-3.2 2-8 3.3-8.4 7.3-4.9 21.5-9.4 43.1-14.4 64.7 38.6-20.6 76.3-42.4 114.6-63.3-8-15-18.7-28.8-29.3-42.5-21.1 10.9-41.6 22.7-62.5 33.8zm73.9 30.9c1.4 1.9 1.3 4.9 3.6 6 4.3-.8 8.6-1.9 12.9-2.9-1.1-3.3-2.3-6.7-3.4-10-4.5 2.1-8.8 4.4-13.1 6.9zm-13.4 9.9c4.4-.9 8.9-2 13.3-3.1-.8-1.8-1.5-3.5-2.2-5.3-4 2.4-10.6 3.4-11.1 8.4zm-5.1-1.2c-3.3.5-2.2 4.7 1 3.1 3.2-.5 2.1-4.6-1-3.1zm-113.9 145.8c18.4 10.1 36.6 20.3 55.2 30.1 10.7-13.7 22-27.5 29.3-43-21.8-12-43.7-24-65.3-36.2-5.2 16.7-11.1 33.3-19.2 49.1zm64.1 35.7c4.9 2.3 10.3 4.7 16.2 3.8 11.7-1.7 23.3-4 35.1-5.1 3.3.1 4.3-3.1 6-5-10.2-11.9-8.1-31.2-25.8-37.7-9.1 15.3-20.3 29.7-31.5 44zm74 2.3c-.8 1.6-1.6 3.3-2.4 4.9 2.7 1.4 5.4 2.8 8.2 4.1-.3-3.7-1.2-7.7-5.8-9zM962.5 53.4c5.2-7.3 11.7-16.7 22.8-16.7 8.3-.8 14.8 6.5 14.1 13.3.6 13.3-9.7 24-15.4 35.6-2.7 4.5-1.1 11.6-8.3 13-8.5-11-23.5-15.3-34.3-24-7.2-5.6-8.3-17.5.3-22.4 6.2-3.7 14.9-2.9 20.8 1.2zm5.5 11.7c-6.9 0-10-7.8-17.2-8.6-2 .8-4 1.7-6.1 2.5-3.1 4.9 1 10 5.6 12.8 8 5.1 16.7 9.2 24.6 14.5 4.2-10.3 11.6-19.3 15.6-29.7 1.9-4.9 1-11.1-4.9-13.5-10.2 3.7-16.1 12.8-17.6 22z"/><path d="M721.7 142.2c9.7-3.6 20.9-2.2 30 2 12.9 5.7 20.2 18.5 18.2 30.9-.8 2.9-1.8 5.7-3.2 8.3-7.8 13.4-22.1 22.5-36.9 29.6-8.9 4.2-18 8.5-25.7 14.2-8.6 6.7-5.7 17.7-11.5 25.7-4.5 6.8-12.8 13.1-22.3 12.3-3.6-1.2-6.7-3.3-9.9-5.3-4.6 3.1-9.3 6.1-14.4 8.5-13.8 6.3-27.1 13.5-39.9 21.3-4.5 2.7-8.5 6.1-13.9 7.3-4.6.1-6.8-3.8-9.4-6.3 4.3-10 14.8-16.3 21.7-24.7 8.9-10.3 17.4-20.9 25.9-31.5-4.5-5.4-8.4-11.9-5.8-18.8 4.1-8.9 15-13.7 25.4-15.4 19.3-5 32.1-19.7 43.2-33.4 7.8-9.3 15.5-20.2 28.5-24.7zm3.2 13.3c-8.2 5.3-13.9 12.9-19.7 20-8.7 11.2-18.9 21.5-31.2 29.9 5.9 4.7 12.2 9 16.6 14.9 16.4-15.2 41.8-20.1 57.3-36.2 5.7-5.6 9.3-14.2 4.9-21.3-3.7-5.9-11.3-8-18.3-9.6-3.2.8-6.4 1.6-9.6 2.3zm-85.8 64.6c2.2 6.7 8.6 11.3 14.2 15.9 7 5.1 13.1 11.2 20.6 15.8 7.3-5.6 10.9-15.4 5.2-22.9-5.1-5.8-11.6-10.8-19.2-14-7.4-2.1-15.1 1.2-20.8 5.2zM641 245c-5.3 5.4-10 11.2-14.3 17.2 7.9-2.8 15.1-6.9 22.5-10.6-2.6-2.3-4.7-5.4-8.2-6.6zm175.7 9.3c5.5-1.5 12.4-2.9 17.2.8 7.8 5.6 16.5 10.7 26.8 11.9 11.1 1.3 23.7 2.3 31.8 10 6.5 5.8 6.2 15.4 1.1 21.8-5.7 7.3-15.6 11-25.1 12.9-18.1 2.3-37.5-2.6-51.1-13.4-8.6-6.4-13.6-16.2-13-26.1.2-7.1 4.1-15.1 12.3-17.9zm13.4 13.9c9 12.6 28.8 19.7 44.8 13.5-2.6-3.5-8.4-2.2-12.3-3.3-11.9-1-23-5.6-32.1-12.2l-.4 2zm128.8 18.6c13.4-4.3 28.7 5.5 28.5 17.8.5 10.8-10.9 20.2-23.2 19.5-10.8-.3-20.5-8.4-20.8-17.9-.8-8.6 6.1-16.9 15.5-19.4zm64.3 18.6c12-4.6 27 1.9 29.8 13.1 3.5 11.4-7.3 23.6-20.7 23.7-11.9.5-23-8.5-22.6-19-.3-7.6 5.3-15 13.5-17.8zm-477.3 13c4.7-2.6 12.5-1.1 14.2 3.9 2.5 7.4-8.3 15.5-16 10.6-6.4-3.2-4.3-12 1.8-14.5zm-32.7 2.5c4.9-2.4 12.7-.5 13.9 4.7 1.8 7.3-8.4 14.6-15.9 10.3-6.8-3.3-4.7-12.5 2-15zm726.3 37c13.6-6.3 31.1-2.9 41.9 6.3 7.8 7 11.3 17.6 8.7 27.2-5.7 16.1-21.7 27.2-38 35-8.2 3.5-15.7 7.9-23.4 12-5.6 3.8-10.4 9.4-10.6 15.7-.9 8-5.5 15.6-12.2 21.2-3.9 1.7-7.8 3.9-12.3 4-4.9 0-8.6-3.3-12.3-5.6-2.5 1.8-5.1 3.7-7.8 5.4-17.9 9-36.2 17.6-52.6 28.7-2.6 1.7-5.6 3.1-8.9 3.4-5.4-.9-9.8-7-5.8-11 7.9-8.5 17.1-16.1 24.1-25.1 5.9-7.3 11.4-14.8 17.8-21.7 1.2-1.4 2.5-2.8 3.8-4.2-7.2-6.3-9.6-17-2.7-24.3 3.4-3.3 7.8-5.6 12.3-7.5 7.8-1.9 15.9-3.5 22.6-7.7 12.5-6.9 21.3-17.7 30.1-27.9 6.9-9.1 14.2-18.5 25.3-23.9zm-1.5 17.6c-9.5 9.9-17 21.1-26.9 30.7-5.1 5-11.3 9.1-16.7 13.8 6.5 4.3 12.9 8.9 17.4 14.9 3.6-3.9 7.8-7.5 12.9-9.8 12.7-7.1 26.7-12.6 38.3-21 6.4-5.8 13.8-12.8 12.6-21.5-.4-7.4-8.1-12.7-15.8-14.4-8.2-1.9-16.7 1.7-21.8 7.3zm-78.1 58.1c1.1 5.7 6.2 9.7 10.3 13.9 7.8 6.2 15.7 12.4 23.6 18.5 9.6-4.7 12-17.3 4.9-24.5-5.2-5.3-11.5-9.8-18.7-12.9-7.3-1.5-14.1 1.8-20.1 5zm1.3 26.1c-5.4 5.5-10.5 11.3-14.2 17.7 7.9-3.7 15.8-7.4 23.1-11.9-2.8-1.8-5.2-6.9-8.9-5.8zM147.8 383.1c-5.8-2.7-.8-10.4 4.8-7.9 15.3 5.3 31.4 7.8 47.5 10.5 3-3.7 6.3-8.5 12.3-8.1 7.7.1 12.9 5.6 17.4 10.3 6.9 7.2 17.5 10.3 27.7 12.4 9.3 1.8 18.8 3.5 27.6 6.9 12.8 6.9 14.8 24.5 3.1 33-10.8 8.3-27.2 4.4-38-2-6.5-3.9-12.6-8.2-19.1-12.2-6.7-6-16.2-3.7-24.4-2.5-9.4 1.5-21.7-6-16.3-15-14.5-8.1-27.3-18.4-42.6-25.4zm62.3 3.9c-5 6.7-6.6 14.7-10.3 21.9-.3 1.1-.8 3.4-1 4.5 4.4 1.6 9.8 2.9 14.1.3 7-3.7 7.8-11.4 9.7-17.7-1.8-4.4-5.9-11.3-12.5-9zm-33 3c4.8 3.8 10 7.1 15.1 10.7 2.2-2.1 3-4.8 3.8-7.4-6.4-1-12.6-2.4-18.9-3.3zm54.8 10.5c-1.7 4.8-3.6 9.5-6.4 13.9 16.9 5.1 27.7 20.3 46.2 22.6 5.2.1 9.4-2.3 13.3-4.9.9-4.3 3.2-9.5-.3-13.4-2.8-4.8-9.1-6.2-14.5-7.7-13.4-1.5-26.6-4.8-38.3-10.5zm-60.3 41.9c6.5-3.9 15-4.6 22.5-2.9 7.6 2 12.8 8.1 15.4 14.4 2.5 7.8.1 15.8-2.8 23.2 4.7 0 9.4-.1 14.2.1 6.9 1.6 14.1 4.6 17.2 10.6 6.6 10.3.2 24.7-12.6 28.5-7.2 2.8-14.8.6-21.8-1.4.4 9.1.6 19-5.6 26.8-4 6.3-12.4 9-20.3 8.4-7.7-3.2-13.9-8.6-17.6-15.4-4.2-7.7-4.7-16.4-4.2-24.7-11.1 4-24.8 4.1-35.1-1.6-8.8-4.9-13.6-15.6-8.5-23.9 7.2-13.7 27.8-18.3 43.3-13.7-.5-11.1 5.4-22.2 15.9-28.4zm-8.7 23.5c-1.7 8.1 4.8 14.9 10 20.9-2.2 4.6-7.4.8-9.8-1.6-3.5-3-5.2-8.3-10.7-9-10.7-2.8-23.7-.6-30.9 7.3-5 5.1-5 14 1.3 18.3 12.4 8.9 33.2 5.4 41-6.9 1-2.8 6.3-4.5 7.1-.5-.8 6.5-8.8 10.5-8.1 17.3-.9 12.5 4.2 28.9 19.9 32.5 3.4-1.5 7.3-2.8 9.2-5.9 8.2-12.1 5.8-28.3-3.7-39.3-2.2-1.6-3.3-6.5.8-6.7 6.7 1.6 8.4 8.3 11.8 12.8 7 6.4 20.3 8.7 28.1 2.1 3.6-2.7 4-7.1 5.5-10.8-1.3-4.1-3.2-8.4-7.6-10.7-11.4-5.5-25.4-1.9-35.6 3.8-1.5 0-4.6.1-6.2.1-1.1-6.4 8.6-7.4 11.7-12.1 7.4-7.3 9.1-19.1 2.9-27.4-4.4-5.4-13.3-7-20-4.2-9.5 3.2-15.3 11.6-16.7 20zm1124.6 5.1c4.4-6.2 9.4-12.8 17.4-15.7 5.5-1.2 12.2-.8 16 3.2 4.4 4.4 3.7 10.7 3.2 16-2.7 14.1-15.5 24.8-18 39-.8 3.4-6.6 4.6-8.5 1.2-8.9-10.3-24.4-13.6-33.7-23.4-6.5-6.5-5.3-18 4.1-21.9 6.3-3.4 13.6-1.2 19.5 1.6zm14.5-3.9c-4.5 4.5-8.5 10.1-8.2 16.3-1 .2-3 .5-4 .6-4.6-3.2-8.5-7.3-14.4-8.7-2.8 1.5-6.4 2.7-7.1 5.9 1.8 6.5 9 9.9 14.9 13.3 5.4 2.8 10.3 6.3 15.9 8.9 4-5.7 6.7-12 10.5-17.8 3.7-6.4 8.3-14.1 4.5-21.2-3.8-3.1-9.2-.1-12.1 2.7zm-868.8 74.4c5-3.2 13.8-1.3 15.2 4.4 2.4 7.5-7.5 15.8-15.9 12.1-7.5-3.2-6.2-13.4.7-16.5zm-35.1 6.9c5-3.3 13.7-1.3 15.2 4.2 2.6 7.6-7.6 16.1-16 12-7.2-3.2-5.9-13 .8-16.2zm30.4 27.7c4.2-1.5 8.1-3.8 12.2-5.5 4.3.4 2.4 4.7 2.4 7.3-1.5 5.5-4.3 11.1-9.2 15-3.5 2.9-9.2 3.1-13.1.7-5.4-3.1-8.4-8.2-11.7-12.9 6.2-2.3 13.2-2.3 19.4-4.6zm-13 6.7c3 3.4 5.9 7.8 11.2 8.6 7.9-1.3 10.4-9.3 12.2-15.1-7.4 3.3-15.2 5.7-23.4 6.5zM37.7 638.1c11.8-4.7 23.5 2.4 34.7 5 4.3 1.4 8-1.8 12-2.7 3.9-1.4 8 .2 11.8 1.2l.3 5.4c6.3 1.9 12.5 4 18.8 5.9 5 1.5 10 3 14.9 5-4.8 5.5-13.2 2.4-19.9 3.1-4.9.1-9.8.2-14.6.5-1.4 2-2.2 4.5-4.4 6-3.7 1.8-7.8.2-11.4-.6-10.5-9.7-26.8-3.4-39.7-6.2-11.1-3.2-13.1-18.2-2.5-22.6zm3.1 18.1c11.1.1 22.2-.4 33.2.5-.1-2.7-.1-5.5-.1-8.2-11-1.7-20.8-8.8-32.5-6.7-7.3 3-5.7 10.4-.6 14.4zm39.9-8c-2.1 5.8-1.8 15.2 7.5 15.2 2.4-6 2.5-12.4 2.8-18.6-3.8.3-8 .5-10.3 3.4zm14.4 8.4c4.2-.3 8.4-.6 12.6-1-4-1.3-12.4-6-12.6 1zm533.1-11.2c11.9-4.5 27.7-.4 32.5 10.6 7.3 16.7-14.6 35.2-33.7 29.8-8.8-2.3-15.4-9.8-15.7-17.8-.7-9.8 6.6-19.1 16.9-22.6zm-406 27.8c-.3-11.7 16.5-20.2 28-14.3 6.2 2.5 9.3 8.3 10.4 14 2.4 10.9-3.2 21.4-2.9 32.3.1 6.3 7.4 9.7 9.2 15.5 3.4 5.3-1.7 12-8.4 12.4-1.9 13.3-5 26.5-5.6 39.9-2.3.1-4.6.2-6.9.4-1.7-12.9-5.8-25.3-9.5-37.8-4.5-.5-9.6-1.1-12-5-4.1-7 3.3-13.4 4.1-20.2 2.2-12.9-5.9-24.7-6.4-37.2zm6.8 1.4c2.5 11.7 7.8 23 6.9 35.1 4.9-.6 9.9-1 14.8-1-1.8-13.1 6.7-26.2 1.4-39.1-1.1-4.4-6.4-5.5-10.4-7.1-6.3 1.6-13.5 5.4-12.7 12.1zm5.6 43.2c-3.5 2.9-4 7.1-3.4 11.1 9.9.8 19.7-1.3 29.4-2.5-.4-3.5-1.4-7.3-4.7-9.7-6.4-3.9-14.8-1.6-21.3 1.1zm9.3 17.1c.9 5.2 2 10.4 4.9 15.1 1.1-5.3 2.1-10.6 2.9-15.9-2.6.2-5.2.5-7.8.8zM801.3 686c11.5-2.9 24.9 2 29.1 12.1 6.6 16.6-14.8 34.6-33.6 29.4C786.8 725 780 716 781 707c.6-9.9 9.3-18.7 20.3-21zM95.8 716.2c9.1-2.4 20.3-5.9 28.7-.3 8.4 7.7 10.3 18.9 13.9 28.7 3.6 10.6 7 21.3 11.1 31.8 1.3 3.3.9 6.9-.4 10.1-10.6.2-19 6.6-28.6 9.7-13 5.2-27.5 6.2-40.7 10.9-9.2 3.3-18.2 7-27 11-3.7-7.1-6-14.7-9.2-22-5-12-8.2-24.4-12.2-36.6-2-7.3-5.5-14.2-6.7-21.6 6.9-1 13.9-1.1 20.5-3.2 9.3-3 18.5-6.4 27.5-10 7.6-3 15.2-6.2 23.1-8.5zm-63.1 27.4c8.6 21.6 13.6 44.3 23.9 65.5 12.7-5 25.4-10.3 39.2-12.8 16.8-2.8 31.6-10.6 47.3-16-4.4-13.8-9.4-27.4-13.7-41.1-1.7-5.1-3.3-10.3-6.3-15-2.3-3.7-7.1-6.3-12-5-27.5 4.7-50.6 20.7-78.4 24.4zm1144.8-21.5c17.8-1.8 35.6-3.2 53.3-5.1 6-.7 12.1-.8 18.2-.2-5.1 6.6-13.1 10.9-19.9 16.1-16.5 12.1-33.3 23.8-49.8 35.8-7.2 5-14.4 10.1-21.6 15.2-17.5 12.6-35.1 25-52.6 37.6-8.9 6.2-17.3 12.8-26.8 18.3-.7-1.3-2.2-3.9-2.9-5.2-4.5-9.5-8-19.3-10.9-29.2-13.8 2.6-26.6 8.7-40.8 9.5 1.3-4.2 3-8.3 5.4-12.1 7.5-12.5 14-25.5 22-37.8-3-9.9-8.9-19-11.9-28.9l1.1-1.2c15-1.3 30-2.7 44.9-4.1 23.7-2.2 47.4-4.5 71.2-6.6 4.6-.4 9.3-.4 13.9-1.2 1.7-.3 5.4-.7 7.2-.9zm10.6 3.5c-47.5 4.2-94.8 9.2-142.3 13 2.6 8.7 8.3 16.5 10.1 25.5 54.4-13.2 108.7-26.9 163-40.5 2.9 3.5 4.9-3.7.6-1.2-10.5 1.5-21 2.1-31.4 3.2zm1.9 17.2c-41.1 16.8-82.1 34-123.3 50.7 3.5 13.4 7.3 26.9 14.2 39.4 49.5-35.1 99-70.3 148.3-105.7-13.6 4-26.1 10.6-39.2 15.6zm-111.1 19.5c-8.1 2.3-16.9 3.2-24.4 6.8-3.3 3.6-5 8-7.5 12.1-4.5 8.4-10 16.4-13.6 25.1 10.7-5.3 19.2-14.2 31.7-16.7 4.7-1.2 9-3.1 13.3-5 36.9-15.5 73.9-30.5 110.9-45.9 4.8-1.9 9.9-3.5 14-6.5-41.8 9.1-82.9 20.3-124.4 30.1zm-36.7 44.6c7.1-2 14.3-4.1 21.4-6.3-.6-2.2-1.2-4.3-1.8-6.5-6.9 3.8-13.5 8.1-19.6 12.8z"/><path d="M95.8 731.2c5.6-2.5 14.1-2 17.7 3.1 4.3 5.3 3.2 12.5 1.3 18.4-3.9 11.8-14.3 21.2-16.5 33.5.1 2.9-3.3 3.3-5.7 4.1-8.3-12.5-26.8-15.4-36.4-26.9-5.5-6.8-2.3-17.8 7.4-20 6-2.2 11.9.5 17 3.2 3.6-6 8.2-12.1 15.2-15.4zm-8.2 17.9c-1.9 2.6-.8 6.6-3.9 8.5-4.9-3.4-9.2-7.7-15.4-9.5-2.6 1.4-5.8 2.4-7.5 4.8-1.6 4.6 2.2 8.9 6.1 11.5 8.3 5.5 17.7 9.4 25.4 15.5 4.4-9.7 10.8-18.6 15.3-28.3 2.2-5 3-11.7-2.2-15.5-8.9-1.1-14.4 6.8-17.8 13zm990 118.2c6.1-10.5 21.9-15.4 34.4-11 11.7 3.8 19 15.1 18 25.8-.6 2.7-1.2 5.5-2 8.2 5.8-.7 11.7-.9 17.4.5 14 4.8 22.5 20.2 15.6 32.4-4.3 9.6-19.5 15.1-29.7 8.9-.8-.1-2.3-.3-3.1-.4-3.7-1.4-7.2-3-10.8-4.5.3 7.7 2.1 16.3-2.6 23.3-2.9 4.7-8.3 7.6-13.8 9.7-11.4 1.1-23.7-4-28.4-13.4-4.3-6.6-3.7-14.4-1-21.3-6.4-.2-12.8-1-18.8-2.7-7.7-3.4-15.7-8-18.5-15.5-3.4-7.2.4-16.1 8.1-19.9 6.4-3.8 14.4-4.1 21.9-3.6 3.7.6 7.3 1.5 11 2.3-.8-6.3-1.5-13.1 2.3-18.8zm4.3 7.9c-2.3 12 9.1 20.7 13.7 30.9-1.6 6.2-8.4.5-9.6-2.9-6.6-13.2-29.1-18.4-41.9-9.2-6.2 4-4.3 11.7.3 16 6.8 6.4 17.1 9.7 27 9.2 6.2-.2 10.8-5.1 17-5.1 3.8 4.8-4.3 7.3-7.1 10.5-10.7 8.6-3.2 25 9.5 28.6 6.6 2.6 15.2-.3 18.1-6.1 4.1-7.1 2.1-15.4 0-22.7-2.5-1.8-5.1-3.8-3-6.8 11.6-.2 20.2 8.9 31.5 10.4 6.6 1.8 14.2-1.6 17.2-6.9 4.8-8.8-.5-20.8-11.1-24.2-9.9-3.8-20.9.8-28.2 6.7-2.8 1.8-5.3 5.2-9.3 4.2-.5-5.7 5.9-8.8 9.9-12.2 11.1-9.1 9.1-28.2-5.7-33.3-11.3-4.7-26.8 1.7-28.3 12.9zM992.2 891c10-1.9 20.3 1 28.7 5.8 10.4 6.4 15.6 18.2 13.6 29.1-3.7 13.1-14.9 23.7-27.7 30.9-8.6 5.8-18.9 9.1-27.8 14.6-7.3 3.4-14.5 8.5-16.6 15.8-1.1 8.6-3.8 18-12.1 23.6-4.1 3.3-9.5 5.4-15.1 5-4-.9-7.4-3.2-11-4.9-6.2 5-13.8 8.4-21.2 11.7-13.8 6.9-27.3 14.4-40 22.7-3.9 2.6-10.7 3.8-13.3-.9-5.3-6.8 3.9-12.4 8.3-17.1 14.2-12.6 23.8-28.3 36.7-41.8-4.8-5.5-8.7-12.7-5.8-19.7 4.6-9.4 16.5-13.6 27.4-15.3 20-6.5 32.6-22.5 44.4-37.1 7.7-9.9 17.4-20.2 31.5-22.4zm-6.8 18c-11.6 9.9-19 22.9-30.1 33.3-5.2 5-11 9.4-16.8 13.8 6.3 4.1 12.2 8.7 16.9 14.3 14.4-13.5 35.8-18.5 51.3-30.7 6.8-5.7 14-13.2 12.1-22.1-2.8-12.5-23.3-17.8-33.4-8.6zm-81.3 60.9c1.1 5.9 6.6 10.1 11 14.3 8 5.8 14.8 12.8 23.6 17.7 5.1-4.8 9.1-11.5 6.9-18.1-3.4-7.8-11.3-13.4-19.3-17.7-7.5-3.5-15.8.2-22.2 3.8zm-12.5 42.7c7.6-3.1 15-6.7 21.8-11l-7.8-6.3c-5 5.6-10.1 11.1-14 17.3zM113.7 907.4c9.8-2.6 23.9-5.6 30.5 3.5 6.6 10 10.1 21.4 12.3 32.7.2.1.6.4.8.5 2.7 7.3 5.4 14.7 8 22.1 1.4 3.8 2.2 7.7 2.5 11.6-3.7 1-7.5 1.8-11.2 3.1-8.9 3.3-17.5 7.6-26.7 10.4-10.6 3.3-21.9 4.4-32.4 8.1-7.6 2.7-15.2 5.6-22.4 9.1-1.3.6-4 1.8-5.4 2.4-2.2-1.9-3.9-4.1-4.7-6.7-2.4-7.1-5.3-14-8.3-20.8-3.1-9.5-6.2-19-9-28.5-2.5-8.4-6.3-16.4-7.7-25 15.3-.9 29.6-5.8 43.3-11.4 10.1-3.8 19.9-8.2 30.4-11.1zm-63.6 28.7c6.9 21.8 13.7 43.7 22.7 65 12.6-5.9 26.1-10.6 40.1-13.2 16.1-2.9 30.3-10.4 45.5-15.6-5.4-16.5-11-33-16.7-49.5-2-5.3-6.7-12.8-14.5-10.9-27 4.8-49.8 20.5-77.1 24.2z"/><path d="M96.6 938c4.6-8.2 12.8-17.8 24.6-16.4 8.9.4 13.1 9.4 11.8 16.2-.8 15.8-16.8 27.1-18.1 42.7-1.8 1.1-3.7 2.1-5.5 3.1-8.6-11-23.6-15.4-34.5-24.1-7.6-5.9-8.2-18.7 1.6-23.1 6.4-3.3 14.1-1.5 20.1 1.6zm4.9 12c-6.9-.5-10.2-7.8-17.3-9-4.6 1.4-9.7 5.8-5.9 10.1 7.3 9.2 20.6 12.8 30.2 20 4.2-10.3 11.6-19.3 15.6-29.6 2-4.9.9-11-4.9-13.5-10.3 3.6-15.8 12.9-17.7 22zm242.2 9.1c9.1-3.7 19.9-1.5 28.2 2.9 23.4 12.4 30.5 43.4 13.4 62.3-8.4 9.7-24.1 14.2-37.3 9.6-20.3-6.7-31.9-26.8-29.6-45.2 1.2-12.9 10.5-25.9 25.3-29.6zm2 10.3c-24.2 11.5-17.1 48.4 8.9 54.3 9 2 18.6-2.8 22.7-9.7 7.7-13.1 3.2-30.5-9.5-40-5.8-4.7-14.4-6.1-22.1-4.6zm681.6 21.2c13.1-4.4 26.5-10.7 41-9.1 10.9 2.3 14 13.1 17.5 21.1 2.8 10.8 6.9 21.3 10.4 32 1.8 6.8 6.7 13.4 4.7 20.7-5.8 1-11.6 2.6-16.8 5.1-9.7 4.3-19.7 8.2-30.3 10.6-16.8 2.8-32.7 8.5-47.7 15.6-2.6 1.8-5.6-.1-6.2-2.4-2.7-7.6-5.6-15.1-8.8-22.5-3.4-9.4-6.5-18.9-9.3-28.5-2.6-8.9-6.7-17.5-8.5-26.6 19-1.7 36.8-8.3 53.6-15.8l.4-.2zm-43.9 22.4c3.2 8.6 6.2 17.2 8.7 25.9 3.8 13 9.4 25.6 14.2 38.3 12.3-4.9 24.6-10 37.8-12.4 16.9-2.9 32-10.4 47.8-16.2-5.1-16.1-10.7-32.1-16.2-48.1-2-5.6-6-13.2-14.3-11.6-27.4 4.4-50.4 20.3-78 24.1zm-832.7-15.5c4.5-5.5 11-10.4 19-11.1 9.2.2 17 6.7 19.7 14.1 3 8.4 2.2 17.6-2 25.6 9.8-.8 20.7-1.8 29.1 3.8 6.6 3.7 11.8 11 8.4 17.8-2.4 6.7-10.2 10-17.4 11.7-8.2.8-16.5-.1-24.1-2.9-.1 1.4-.3 4.1-.4 5.4-1.1 8-6.5 16.1-15.5 18.9-4.7 1.7-9.9.2-14.6-.7-9.7-7.5-13.1-19.5-8.5-30.1-5.1 1.1-10.3 1.9-15.5 1.4-8.2-1.6-17.6-3.8-22-10.7-5-6.1-2.3-15.1 4.7-19.2 4.8-3.9 11.6-3.7 17.6-4.7 5.9-.2 11.6 1.1 17.1 2.8-.8-7.7.7-15.3 4.4-22.1zm9.9-.9c-8 7.6-9.7 19.4-5.6 28.9 1.6 4 6.6 7.1 5.4 11.7-8.9-1.4-11-11.1-19.5-13-10.6-3.1-26.3-2.1-30.2 8.9 3.1 8 12.7 12.7 22.1 12.1 7.7.7 14-3.3 19.9-6.8 1 1.8 5.1 3.8 2.9 6.1-5 6.6-8.7 15-4.7 22.7 1.5 5 7 7.7 12.3 8.9 13.4-4.3 15.9-20 8.7-29.6.9-.8 2.7-2.3 3.7-3.1 3.4 1.3 5.7 4.1 8.8 5.8 8.9 5.8 22.1 6.1 30.9 0 3.1-2.1 3.6-5.8 2.9-8.9-3.7-6.2-12-8.7-19.5-9.4-8.1-.7-15.5 3.1-21.2 7.8-2-1.7-7.3-3.8-3.6-6.5 7-5.8 10.7-14.1 10.5-22.4-.9-6.1-3-13.8-10.4-16.2-4.9-2.4-9.7.5-13.4 3z"/><path d="M1030 1014.5c4.9-7.7 12-16.8 23.3-16.5 8-.3 13.8 6.5 13.3 13 .9 13.6-9.7 24.6-15.5 36.6-2.4 4.5-1.3 12.2-9.1 12.3-8.3-11.6-24.9-15-35-25-6.6-6.4-6-18.9 4-22.4 6.3-2.9 13.4-1 19 2zm5.6 12.1c-5.9 1-8.4-5.2-13.3-6.9-4.5-2.8-11.8.2-11.7 5.1 2 6.2 8.9 9.5 14.6 12.8 5.7 3 11.1 6.5 16.6 9.7 4.9-10 11.7-19.3 15.9-29.6 1.9-4.4 1.1-12.7-6.2-11.9-9.5 3-15.3 12.3-15.9 20.8zM750 1170.7c7.8-7.9 23.4-10.8 32.4-2.8 9.6 7.3 10.1 19.8 6 29.6 17.8-3.5 40.2 6.8 40.4 24.1-1.7 16.6-24.8 23.2-40.8 18.1 2.6 8.4 2.8 17.8-2.2 25.6-4.8 7.9-16.2 12.8-26.3 10-11-2.4-19.2-10.7-23.1-19.7-3.2-6.9-2.4-14.6-1.2-21.9-13.4.6-27.4-4.6-34.5-14.8-5.4-7.3-5-18.3 3.3-23.9 10-7.4 24.6-6 35.9-1.6-.1-8.4 3.3-16.7 10.1-22.7zm6.7 2.7c-7.6 5.3-11.1 14.3-9.6 22.6 1.9 6 8.7 9.8 10.8 15.6-8.6 2.6-13-6-17.3-10.8-10.3-6.5-28.1-8.2-35.8 2.2-5.2 14.1 13.2 24.8 27.6 24.6 8.5.9 13.2-8.3 21.6-7.6 3.1 6.6-6.4 9.5-11 12.7-3.1 6.6-2.9 14.6.2 21.3 4.1 9.3 15.4 18 27.5 14.6 13.1-4.9 13.8-20.3 8.6-30.3-2.1-5.9-10.4-8.7-10.5-15.2 8.5-1.2 12.2 7.1 19.2 9.4 9.5 3.6 22.9 3.6 29.9-3.9 4.8-4.7 4.3-12.1-.2-16.8-7.2-7.6-20-10.9-30.7-7.6-6.1 1.4-10 6.1-13.8 10-1.7-.3-5-.9-6.6-1.2-2.5-6.2 6.4-6.9 9.7-10.7 8.3-8 11-22.3 1.1-30.1-5.8-5-15.1-3.2-20.7 1.2z"/><path d="M987.7 28.2c4.1-.7 9-2.6 12.9-.2 5.6 3.5 7.3 9.7 9.4 15.1 4.7 14.8 10 29.5 14.8 44.3-15.6 5.5-30.3 13.2-47 16-13.5 2.7-26.4 7.3-38.6 12.9-9.2-21.2-15.5-43.3-23-65 25.5-3.5 47-16.9 71.5-23.1zm-25.2 25.2c-5.9-4.1-14.6-4.9-20.9-1.1-8.6 5-7.4 16.8-.3 22.4 10.8 8.7 25.8 13 34.3 24 7.2-1.5 5.6-8.5 8.3-13 5.7-11.6 16-22.3 15.4-35.6.7-6.8-5.8-14.1-14.1-13.3-11-.1-17.5 9.3-22.7 16.6zM32.7 743.6c27.8-3.7 50.9-19.7 78.3-24.5 4.9-1.3 9.7 1.3 12 5 3 4.7 4.6 9.9 6.3 15 4.3 13.8 9.4 27.4 13.7 41.1-15.7 5.4-30.5 13.2-47.3 16C82 798.7 69.3 804 56.5 809c-10.3-21.1-15.2-43.8-23.8-65.4zm63.1-12.4c-7.1 3.3-11.6 9.4-15.2 15.5-5.1-2.7-11-5.4-17-3.2-9.7 2.2-12.9 13.2-7.4 20 9.6 11.5 28 14.4 36.4 26.9 2.4-.9 5.8-1.3 5.7-4.1 2.2-12.3 12.5-21.8 16.5-33.5 1.9-5.9 3.1-13.1-1.3-18.4-3.5-5.3-12-5.8-17.7-3.2z" fill="#338bbb"/><path d="M968 65.1c1.6-9.2 7.5-18.3 17.7-21.9 5.9 2.4 6.9 8.6 4.9 13.5-4 10.3-11.4 19.4-15.6 29.7-7.8-5.3-16.6-9.4-24.6-14.5-4.6-2.8-8.7-7.9-5.6-12.8 2-.8 4-1.7 6.1-2.5 7 .7 10.2 8.4 17.1 8.5zm334 402c2.9-2.8 8.3-5.8 12.2-2.8 3.7 7.1-.8 14.8-4.5 21.2-3.8 5.8-6.5 12.1-10.5 17.8-5.5-2.6-10.5-6.1-15.9-8.9-5.9-3.4-13.1-6.8-14.9-13.3.7-3.2 4.2-4.4 7.1-5.9 5.9 1.5 9.8 5.6 14.4 8.7 1-.2 3-.5 4-.6-.4-6.1 3.6-11.7 8.1-16.2zM87.6 749.1c3.3-6.2 8.9-14.1 18-13 5.2 3.8 4.4 10.5 2.2 15.5-4.5 9.7-11 18.6-15.3 28.3-7.8-6-17.2-10-25.4-15.5-3.9-2.6-7.7-6.9-6.1-11.5 1.7-2.4 4.9-3.3 7.5-4.8 6.1 1.9 10.4 6.1 15.4 9.5 2.9-2 1.8-5.9 3.7-8.5zM101.5 950c1.9-9.1 7.4-18.4 17.7-22.1 5.8 2.5 6.9 8.6 4.9 13.5-4 10.3-11.4 19.3-15.6 29.6-9.6-7.2-22.8-10.8-30.2-20-3.9-4.3 1.3-8.7 5.9-10.1 7.1 1.3 10.4 8.5 17.3 9.1zm934.1 76.6c.7-8.5 6.4-17.7 16-20.8 7.4-.8 8.1 7.5 6.2 11.9-4.2 10.3-11 19.6-15.9 29.6-5.6-3.2-10.9-6.7-16.6-9.7-5.8-3.3-12.6-6.5-14.6-12.8-.1-4.9 7.2-7.9 11.7-5.1 4.7 1.7 7.3 7.9 13.2 6.9z" fill="#f71d96"/><path d="M530.5 69.2c2.2.7 2.5 2 .6 3.9-.5.3-1.6.7-2.1 1-1.2-2-.8-3.7 1.5-4.9z" fill="#141413"/><path class="st4" d="M529 74.1c.5-.3 1.6-.7 2.1-1-4.9 15.2-10.4 30.3-15.6 45.4-7.3 19.4-18 38.1-19.5 58.8-1.9 22.8 2.3 45.6 7.7 67.8 1.4 6.3 4.2 12.3 4.5 18.7-3.3-5.1-7.2-9.9-10-15.2-9.7-22.4-12.7-46.7-9.6-70.4 1.7-10.9 1.9-22.3 7.6-32.3 12.6-23.4 21-48.2 32.8-71.8z"/><path class="st4" d="M524.1 106c3.7-8.6 5.1-18.2 10.4-26.1-.3 3.6-.8 7.2-1.7 10.7-6 21.9-14.5 43.4-17.8 65.8-2.6 15.3-.9 30.8-2.3 46.2-1.3 13.2 1.5 26.2 3.8 39.2 1.8 9.9 7.1 18.9 11 28.3-3.5-.1-7 0-10.4-.3-7.5-11.6-9-25.3-12.6-38.1-4.2-21.5-7.3-43.8-2.8-65.5 5.1-20.8 16.4-39.8 22.4-60.2zm18.3-16.5l2.2-.1c6.9 17.1 16.7 33.2 23.2 50.3 5.5 17.1 8 35.3 4.5 52.9-2.6 12.7-4.7 25.5-8 38.1-3.1 12.3-10.2 23.3-15.8 34.8-1.2.4-3.6 1.3-4.8 1.7 6.5-18.3 17.5-35.3 21.5-54.3 4.2-22.1 1.6-44.8-3.8-66.6-5.9-19-14.8-37.3-19-56.8z"/><path class="st4" d="M542.7 148c-2-18.4-8.1-37.1-4.1-55.5 5.2 18.3 12.6 36 18.6 54.1 5.3 20.8 8.1 42.5 4.5 63.8-4.1 20.2-15.2 38.6-23 57.8-1.2.3-3.8 1-5 1.3 5.5-19.8 10.7-39.8 12.1-60.2.7-20.5.5-41-3.1-61.3z"/><path class="st4" d="M532.9 119.9c.4.5 1.3 1.4 1.8 1.9 3.1 22.4 7.9 44.8 7.3 67.5 1.5 23.7-3.2 47.2-9.7 70.2-1.8-14 .3-28.3-.8-42.4-2.8-32.5-.7-64.9 1.4-97.2zm-7.9 9.7c.9-2.5 1.1-5.6 3.7-7.3-1.5 23.7-3 47.5-2.6 71.2 1.2 21.7 2.9 43.4.7 65.1-6.6-11-7.4-23.6-9.7-35.7-1.4-6.8-1.1-13.7-.5-20.5.9-11.2 0-22.5 1.1-33.7.7-13.2 3.7-26.2 7.3-39.1zm-36 106c-16.3-19.6-17.7-48.4-3.3-69.1-1 14.4-3.5 28.8-1.7 43.1.8 8.8 3.3 17.4 5 26z"/><path d="M864 76.4c4.1-3.3 13.9-6.3 15.2.8.1 9.4-7.4 17.1-14.4 23.6-10.8 10-18.3 22.3-28.6 32.7 2.5-20.8 9.4-42.7 27.8-57.1z" fill="#05c5eb"/><path d="M806.7 85.8c3.7-3.6 11.2-4.3 14.2.4 4.7 7.5 2.3 16.5 1.5 24.6-2.6 10.8-3.2 21.9-3.4 32.9-9.8-7.7-13.6-19.3-17.4-29.9-2.5-9.2-3.1-20.7 5.1-28zM150.8 570c11.9-6 28.1-4.7 38.5 2.9-9 10-9.9 23.5-6.3 35.4 1.7 5.5 5.5 10.2 8.5 15.3-10.9 6.7-25.5 9.4-37.9 4.3-13.3-4.5-21.6-16.4-22.6-28.6.4-11.8 7-24.1 19.8-29.3zm-1.7 63.1c11.1 4.5 23.8 4.5 35.3 1.4-.3 16.9 3.4 33.7 3.7 50.7 0 10.7 1.9 21.3 2 32 .7 3.8-3.1 6.2-5.3 9-3.1-.5-6.1-1-9.1-1.6-13-29.6-16.3-61.4-26.6-91.5z" fill="#04c5eb"/><path d="M616 100.1c39.2-4.5 78.7-7.4 117.9-11.5 6.8-.6 13.6-1 20.5-1-2 2.2-4.1 4.5-6.5 6.3-16.7 12.1-33.6 24-50.4 36-18.5 12.8-36.1 26.6-55.3 38.7-2.6-5.2-5.1-10.4-7.1-15.8-.8-2.3-1.4-4.6-2-6.8-8.9 2.1-17.4 5.5-26.6 6.5 4.1-11.6 11.6-22.2 17.8-33-2.4-6.6-5.6-12.9-8.3-19.4zm5.3 2.3c1 5.8 5 10.8 6.3 16.5 35.5-8.2 70.6-17.6 106-26.1-.1-.3-.2-.9-.3-1.2-37.3 3.7-74.7 6.8-112 10.8zm87.7 5.2c-24.8 10.2-49.6 20.4-74.4 30.7 2.2 8.8 4.8 17.5 8.7 25.8 10.1-5 18.2-12.6 27.6-18.6 23.6-17.2 48-33.5 71-51.1-11.4 3.5-21.9 8.8-32.9 13.2zm-77.6 12.9c-5.8.5-7.4 5.7-9.7 9.5-2.9 5.5-6.7 10.8-8.5 16.7 7.4-4.6 14.5-9.8 23.4-11.9 26.3-10.4 52.1-21.6 78.3-32.1 2.7-1.1 5.4-2.4 7.7-4-30.6 6.2-60.8 14.5-91.2 21.8zm-12.8 26.6c5.7-1.1 16.7-1.2 14.3-8.8-5.9 1.3-10.5 4.9-14.3 8.8z"/><path d="M621.3 102.4c37.3-4 74.7-7 112.1-10.7.1.3.2.9.3 1.2-35.4 8.5-70.5 17.9-106 26.1-1.5-5.8-5.5-10.8-6.4-16.6z" fill="#feec00"/><path d="M709 107.6c10.9-4.4 21.5-9.7 32.9-13.2-23.1 17.6-47.5 34-71 51.1-9.3 6.1-17.4 13.6-27.6 18.6-3.9-8.3-6.5-17.1-8.7-25.8 24.8-10.3 49.6-20.5 74.4-30.7zm128.8 1040.1c37.7-3.8 75.5-7.6 113.3-10.5-35 10-70.8 17.9-106.2 27-1.9-5.7-4.5-11.1-7.1-16.5zm100.2.2c6.9-2.8 13.6-6 20.9-8.2-32.4 23.5-65.2 46.6-97.8 70-4.4-8.3-6.8-17.1-9.5-25.9 28.6-12.4 57.7-23.8 86.4-35.9zm-251 179c11.2-14.3 22.4-28.6 31.5-44.1 17.6 6.5 15.6 25.9 25.8 37.7-1.7 1.9-2.7 5.1-6 5-11.8 1.2-23.4 3.4-35.1 5.1-5.9 1-11.3-1.4-16.2-3.7z" fill="#ffed00"/><path d="M631.4 120.5c30.4-7.3 60.6-15.5 91.3-21.8-2.4 1.6-5 3-7.7 4-26.2 10.5-52.1 21.7-78.3 32.1-9 2.1-16 7.4-23.4 11.9 1.8-5.9 5.6-11.2 8.5-16.7 2.2-3.8 3.8-9 9.6-9.5z" fill="#eb9300"/><path d="M1033.1 105.7c-.5-4.5 4.9-.6 6.6.4 7.8 5.4 14.2 12.2 21.2 18.3 7.4 6.4 12.4 15.8 9.3 24.9-4.2 13.2-19 19.8-29.8 28.3-12.7 9.4-12.3 25.7-10.2 38.8.9 6.5 4.4 12.4 6.9 18.5-.2 3.9-4.4.2-5.8-.8-2.7-2.4-5.1-5-7.5-7.6-9.3-9.4-17.9-21.2-16-34.2 2.6-16.6 15.7-30.4 30.8-40 11.1-6.6 12.5-20.4 6.6-30.3-3.1-5.9-9.5-10.1-12.1-16.3zm15.5 13.6c6.2 11.1 6.5 26.5-5.7 34.7-14.1 9.2-27.3 21.3-30.6 37-2.9 12.7 5.9 24.4 15.1 33.5-4.1-16.7-5.6-38.1 11-50.2 10.6-8 25-14.6 28-27.5 2.3-11.8-8.8-20.5-17.8-27.5z"/><path d="M1067.8 110.8c2.5-3.1 6.3 1 8.7 2.2 8.8 7 17.1 14.5 24.5 22.7 7.8 8.8 6.1 21.9-2.3 29.9-9.5 10.9-27.3 15.7-32.3 29.4-2.3 7.2-2.5 14.8-2.3 22.2l2.2-.8c-.5.3-1.6 1.1-2.1 1.4.3 9 6.5 16.6 7.6 25.4-8.3-4.4-13.6-11.7-19.6-18.1-4.7-5.5-6.3-12.6-11.4-17.9 2.1-6 1.8-12.5 4.5-18.5 5.3-12.8 16.2-23.1 28.7-31.1 9.4-5.9 11.8-17.3 7.9-26.4-2.5-7.8-10.9-12.8-14.1-20.4zm16.5 14.9c5.4 11.1 5.6 25.9-6.4 33.9-13.4 8.8-26 20.1-30 34.7-4.2 12.8 3.7 25.8 13.9 34.6-2.3-13-3.6-27 2.5-39.3 7.3-12.5 24.3-17 32.9-28.6 4.7-5.8 6-13.8 2.3-20.3-3.6-5.9-9.1-10.8-15.2-15zm-251.7 69.6c11.4-5.9 26.5 3 25.3 14.2 0 11.7-17.4 18.9-27.9 11.6-10.3-6.1-8.9-21.4 2.6-25.8zm3.6 8.3c-3.6 2.1-4.2 6.9-.8 9.4 3.2 3.1 9.7 1.9 11.3-2.1 2.7-5-5.5-10.8-10.5-7.3zm66.2 8.3c11-5.7 25.6 2.1 25.5 13 .8 11.4-15 19.6-26.1 13.7-11.9-5.2-11.5-22.1.6-26.7zm3.7 8.1c-4.2 2.4-4 8.4.5 10.4 4.5 2.6 11.3-1.2 10.4-5.9-.3-4.1-7.2-7.4-10.9-4.5zm-590.2 64.1c5.1-.4 10.2-.7 15.3-.7-1.7 2.2-3.6 4.1-5.8 5.9-3.2-1.7-6.4-3.5-9.5-5.2zm628.4 850.5c.3-.4 1-1.3 1.3-1.7 8 3 17.4-1.4 26.1-.2-2.6 4.6-7.9 7.1-12.1 10.4-17.9 13.1-36.3 25.6-54 38.9-15.7 10.2-30 22-46 31.9-3.9-7.2-6.9-14.8-8.8-22.6-9.2 1.9-17.9 5.5-27.5 6.1 5.5-11.1 11.7-22 18.4-32.6-2.5-6.7-5.6-13.2-8.3-19.8 36.9-3.3 73.9-6.9 110.9-10.4zm-106.5 13.1c2.6 5.4 5.2 10.8 7.1 16.5 35.4-9 71.2-16.9 106.2-27-37.8 2.9-75.6 6.7-113.3 10.5zm100.2.2c-28.7 12-57.8 23.5-86.4 35.9 2.7 8.7 5.1 17.6 9.5 25.9 32.5-23.4 65.4-46.4 97.8-70-7.2 2.2-13.9 5.4-20.9 8.2zm-53.7 9c-13.5 3.7-27.7 5.9-40.7 10.7-5.1 8-9.7 16.4-13.9 24.8 7.5-4.9 14.8-10.5 24.1-12.6 24.4-9.7 48.4-20 72.7-29.9 4.6-1.9 9.3-3.5 13.2-6.4-18.6 4.1-36.9 9-55.4 13.4zm-48.4 35.3c4.3-1.1 8.6-2.3 12.9-3.4.1-1.3.3-3.8.4-5-4.8 2.3-9.2 5.2-13.3 8.4z"/><path d="M1048.6 119.3c8.9 7 20.1 15.7 17.8 27.3-3 13-17.4 19.6-28 27.5-16.6 12-15.1 33.5-11 50.2-9.2-9-18-20.8-15.1-33.5 3.3-15.6 16.5-27.7 30.6-37 12.2-8 11.9-23.4 5.7-34.5zm35.7 6.4c6 4.2 11.6 9.1 15.3 15.1 3.8 6.5 2.5 14.5-2.3 20.3-8.6 11.6-25.6 16.1-32.9 28.6-6.2 12.3-4.8 26.3-2.5 39.3-10.2-8.8-18.1-21.9-13.9-34.6 4-14.7 16.6-25.9 30-34.7 11.9-8.1 11.7-22.9 6.3-34z" fill="#bcb9dc"/><path d="M618.6 147.1c3.8-3.9 8.4-7.5 14.3-8.8 2.4 7.6-8.6 7.7-14.3 8.8z" fill="#d3c400"/><path d="M576.4 156c-5.8.1.5-9.6.9-2.8-.3.8-.7 2.1-.9 2.8z" fill="#1d1c1a"/><path d="M850.7 152.9c29.6-6.2 62.8-1.2 87 15.4 22.6 14.7 37.4 37.7 40.4 62.1-12.9-.3-27.2-1.2-38.3 5.6-6.4 4.1-6.7 11.5-8.7 17.6-10.3 34.1-19.6 68.4-30.3 102.4-3.5-3.7-2.3-11-9-11.9-7.9.1-13.8 5.7-19.4 9.9-1.6-4.8-2.5-9.8-5.2-14.3-2.6-4-9.8-3.2-12.7.1-3.3 3.3-6.6 6.8-10.7 9.5-1.4-5.9-2-11.9-4.4-17.6-1.5-4.3-7.9-5.9-12.3-4.1-4.9 4.2-8.4 9.6-13.1 14-1.5-6.3-.3-15-7.7-18.7-7.7-2.7-10.2 6.6-16.1 8.2-11.3-25.6-27.3-51-26-79.4-.8-26.3 15.9-49.7 34-69.5 14.3-13.2 32.4-23.9 52.5-29.3zm-18.1 42.4c-11.5 4.4-12.9 19.7-2.6 25.8 10.5 7.3 27.9.1 27.9-11.6 1.2-11.2-13.9-20.1-25.3-14.2zm69.8 16.6c-12.1 4.7-12.4 21.5-.7 26.6 11.1 5.9 26.9-2.3 26.1-13.7.1-10.8-14.5-18.6-25.4-12.9zm-85.7 42.4c-8.1 2.8-12.1 10.8-12.3 18-.6 9.9 4.4 19.7 13 26.1 13.6 10.8 33 15.7 51.1 13.4 9.5-1.9 19.4-5.6 25.1-12.9 5.1-6.4 5.4-16-1.1-21.8-8.1-7.7-20.6-8.7-31.8-10-10.2-1.2-19-6.2-26.8-11.9-4.8-3.8-11.7-2.3-17.2-.9zm225.5 552.6c6.1-4.8 12.7-9 19.6-12.8.6 2.1 1.2 4.3 1.8 6.5-7.1 2.3-14.3 4.3-21.4 6.3z" fill="#24c94c"/><path d="M577.3 153.3c4.2 10.4 7 21.3 6.5 32.4-.2 15.1-6.3 29.5-12.4 43.4-1.8 10.1-7.3 19.1-10.9 28.7-1.2 3.2-3.1 8.3-8.4 6.6 5-10.4 11.6-20.3 14.6-31.4 3.8-5.9 4.1-12.8 5.6-19.2 4.1-19 8-38.4 4.2-57.7.1-.8.5-2.1.8-2.8z" fill="#e0f9e0"/><path d="M724.9 155.5c3.2-.7 6.4-1.5 9.7-2.3 7 1.5 14.6 3.7 18.3 9.6 4.5 7.1.9 15.6-4.9 21.3-15.5 16.1-40.9 21-57.3 36.2-4.4-5.9-10.7-10.2-16.6-14.9 12.2-8.4 22.4-18.7 31.2-29.9 5.7-7.2 11.4-14.7 19.6-20zM211.2 315.1c31.2-7.3 62-15.7 93.4-22.3-4.7 3.3-10.5 5-15.9 7.3-24.7 10.1-49.3 20.5-74 30.5-9.7 2.2-17.3 8.1-25.3 13 3.1-8.4 8.4-16.1 12.8-24 1.4-3.3 5.8-3.5 9-4.5z" fill="#a15393"/><path d="M836.2 203.6c4.9-3.6 13.2 2.2 10.5 7.3-1.5 3.9-8 5.1-11.3 2.1-3.3-2.4-2.7-7.3.8-9.4zm69.9 16.4c3.7-2.9 10.6.3 10.9 4.6 1 4.7-5.8 8.5-10.4 5.9-4.5-2-4.7-8.1-.5-10.5zm-76 48.2c.1-.5.3-1.5.3-2 9.2 6.6 20.2 11.2 32.1 12.2 4 1 9.7-.2 12.3 3.3-15.9 6.2-35.7-.9-44.7-13.5zm143.6 72.4c7.1 2.7 14.4 5.1 21.3 8.1-4.4 4-10.2 8.5-17.1 7.5-5.7-3.3-3.9-10.4-4.2-15.6z" fill="#fefefe"/><path d="M639.1 220.1c5.7-4 13.4-7.3 20.8-5.2 7.6 3.2 14.1 8.3 19.2 14 5.7 7.5 2 17.4-5.2 22.9-7.5-4.6-13.6-10.7-20.6-15.8-5.6-4.6-12-9.2-14.2-15.9zM641 245c3.5 1.2 5.7 4.2 8.2 6.6-7.4 3.8-14.6 7.8-22.5 10.6 4.2-6 9-11.8 14.3-17.2zM229 674.6c-.8-6.7 6.4-10.5 12.8-12.1 4 1.6 9.4 2.7 10.4 7.1 5.3 12.9-3.3 26-1.4 39.1-5 0-9.9.4-14.8 1 .9-12.1-4.5-23.4-7-35.1zM50.1 936.1c27.3-3.8 50.1-19.4 77.1-24.3 7.8-1.9 12.4 5.5 14.5 10.9 5.7 16.5 11.3 33 16.7 49.5-15.1 5.2-29.4 12.7-45.5 15.6-14 2.7-27.5 7.3-40.1 13.2-9-21.1-15.8-43-22.7-64.9zm46.5 1.9c-6-3.2-13.7-4.9-20.2-1.6-9.8 4.4-9.2 17.2-1.6 23.1 10.9 8.7 25.9 13.1 34.5 24.1 1.8-1.1 3.7-2.1 5.5-3.1 1.3-15.6 17.3-26.9 18.1-42.7 1.4-6.8-2.9-15.7-11.8-16.2-11.7-1.3-19.9 8.3-24.5 16.4z" fill="#ac64e5"/><path d="M946.9 246.7c7.6-5.2 17.9-4.4 26.9-4.2 30.5 1.8 60.2 9.8 87.7 21.3 11.2 5.1 22.6 10.5 31.5 18.5 2.3 1.9 3.2 4.5 4.3 6.9-10.3 5.1-22.7 4.1-34 3.4-32.7-3.3-64.8-12.4-93.3-26.9-9-5-18.3-10.5-23.1-19z" fill="#9ba9da"/><path d="M1195.5 260.1c2.6 1.6 1.8 4.6 2.3 7 .3 4.6 1.4 9.1 2.2 13.6 34.2-3.5 68.5-6.5 102.8-9.8 7.1-.8 14.3-1.4 21.6-1.1-5.5 5.7-12.8 9.7-19.2 14.7-30.8 21.9-61.4 44-92.4 65.7-4.4-6.9-7.3-14.6-9.2-22.3-2.7.1-5.4.2-8 .2 2.5-1.1 5-2.2 7.6-3.3-.3-1.3-1-3.8-1.3-5.1-5.1 2.6-9.9 5.6-14.1 9.3 1.8-.2 5.4-.5 7.2-.6-.9 1-1.9 1.8-3.1 2.4-5 1.3-10.1 2.1-15.3 2.6 5.8-10.9 11.9-21.6 18.4-32.2-2.7-6.5-5.6-12.8-8.3-19.3 3.8-.3 7.7-.6 11.6-.9.1-7.1-1.6-14-2.8-20.9zm80.1 15.5c-28.6 2.8-57.3 5.2-85.9 8.1 2.8 5.7 4.4 12 8 17.3 32-7.3 63.7-15.7 95.6-23.5 4.2-1.1 8.6-1.7 12.2-4.2-10.1 0-20 1.6-29.9 2.3zm27.1 3.3c-32.9 13.6-65.7 27.3-98.8 40.7 2.5 9.2 4.2 19 10.3 27.1 27.7-20.1 55.8-39.8 83.6-59.8 5.1-3.8 10.8-6.9 15.1-11.4-3.4.8-6.9 2-10.2 3.4zM1196 303.5c-5.7 8.2-10.4 17.1-14.6 25.9 8.8-2.6 14.3-10.4 23.8-11.9 27-10.5 53.4-22.2 80.4-32.8 3-1.4 6.8-2.2 8.4-5.2-32.9 7.4-65.8 15.1-98 24z"/><path d="M941.9 262c23.1 17.3 51.7 27.3 80.5 34.9 21.7 5.2 44.2 9.1 66.7 7.2-15.2 30.6-31.1 60.8-46.2 91.4-2.4 4.7-6.2 8.8-9.9 12.8-1.8-6.9-3.3-13.9-5.6-20.6-1.2-4.5-7.8-7.8-12.6-5.2-3.4 2.5-6 5.8-8.8 8.8-1.2-6.5.2-15.2-7-19.3-7.3-2.3-13.1 3.2-18.1 6.9l-.3-10.3c14-1.5 26.1-10.6 31.4-21.8 1.1-3.1-1.4-6.4-4.9-7-11.9-3.8-23.1-8.8-35.1-12.2-4.6-.7-7.3 3.3-8.8 6.5-4 9.7-3.4 21 2.9 29.8-4.1 3.8-8.5 7.5-13.2 10.7-1.7-6.6-.5-15.2-8.2-19.1-8-2.6-12.8 4.8-17.4 9.1-1.9-6.7-3.7-13.5-8.9-18.9 7.6-28 15.7-55.8 23.5-83.7zm17 24.8c-9.4 2.5-16.3 10.8-15.4 19.4.3 9.5 10 17.6 20.8 17.9 12.2.7 23.7-8.8 23.2-19.5.1-12.3-15.2-22.1-28.6-17.8zm64.3 18.6c-8.1 2.8-13.8 10.2-13.5 17.8-.4 10.4 10.7 19.5 22.6 19 13.4-.1 24.2-12.3 20.7-23.7-2.9-11.2-17.8-17.7-29.8-13.1zm76.2 4.7c9.8-1.4 20.2-1.5 29.5 2 16.5 5.9 26 23.7 20.4 38.5-4.1 12.6-16.5 21.1-28.6 27.8-21.8 11.4-44.6 21.3-67.2 31.4-3.6-2.4 2.2-4.1 3.9-5.3 10.8-5.3 22.2-9.7 32.9-15.2 15.7-7.2 31.8-14.7 43.9-26.3 6.7-6.5 10.1-15.8 7.8-24.4-3.9-13.7-17.9-24.9-34.1-26.2-2.9-.6-6.4 0-8.5-2.3z" fill="#4470c1"/><path d="M1275.6 275.6c9.9-.7 19.8-2.4 29.8-2.2-3.5 2.4-8 3.1-12.2 4.2-31.9 7.8-63.6 16.3-95.6 23.5-3.6-5.4-5.2-11.6-8-17.3 28.7-3 57.4-5.4 86-8.2zm27.1 3.3c3.3-1.4 6.7-2.6 10.3-3.4-4.3 4.5-10 7.6-15.1 11.4-27.9 20-55.9 39.7-83.6 59.8-6.1-8-7.8-17.8-10.3-27.1 33-13.4 65.9-27.1 98.7-40.7zM385.5 528.7c20.5 2.2 41-3.9 57.5-14.4 1.2 2.5 2.3 5 3.5 7.5-17.7 10.3-39.5 15.6-60.7 12.7-.1-1.5-.2-4.4-.3-5.8z" fill="#ec2102"/><path d="M508.2 279.3c15.8 3.3 31.7-.4 46.9-4.1 1.3 5.1 2.6 10.1 3.7 15.2-16.2 7.7-35.5 11.4-53.6 7.3.8-6.2 1.9-12.3 3-18.4zm25.9 33c10-1 19.4-4.1 28.8-6.9 4.1 22.3 9 44.6 11.1 67.1 1.6 19.8 3.1 39.7 2 59.6-.7 15.8-.6 31.6-1.2 47.4-11.1 16-41.8 19.4-55.9 4.8-7.2-19.6-8.2-40.3-11.3-60.5-5.6-37.6-8.8-75.8-4-113.6 9.9 1.9 20.2 3.4 30.5 2.1zm11.8 6.1c-6.1 2.5-8.2 11.3-1.9 14.6 7.7 4.8 18.5-3.2 16-10.6-1.6-5.1-9.4-6.6-14.1-4zm-32.7 2.5c-6.6 2.4-8.8 11.6-2.1 15 7.5 4.3 17.8-3 15.9-10.3-1.1-5.2-8.9-7-13.8-4.7zM520 351c1 5.7 4.3 11.4 9.7 14.9 4.3 2.5 10 .9 13.4-2.2 5.3-4.7 9.9-11.4 8.1-18.2-9.9 3.7-20.3 6-31.2 5.5z" fill="#e6251f"/><path class="st26" d="M374.1 285.8c.7-2.5 1.6-4.9 3.2-7.1-1.9 16.2-5.8 32.1-8.5 48.2-2.8 17-9.1 33.3-11.5 50.3-2.6 17.7-.3 35.6 4.7 52.8 5 20.3 13.6 39.6 22.3 58.8-9.1-8.3-16.7-17.8-21-28.6-13.7-27-16-57.1-14.1-86.2.3-2.7 1.1-5.4 2-8 9.4-26.3 15.1-53.5 22.9-80.2z"/><path class="st26" d="M373.4 326.9c2.7-13.3 4.8-26.7 7.9-39.9.8 4.8.8 9.6.2 14.4-3.2 27-9.9 53.9-8.1 81.2 1.4 14.9 4 29.7 5.2 44.6.8 12.2 5.7 23.8 9.4 35.5 3.5 10.9 10.9 20.3 16.8 30.3-3.8.2-7.5.5-11.3.5-3.8-4-6-8.9-8.3-13.6-10.7-22.5-18.8-46-23-70-1.1-9-2.3-18.2-1.1-27.3 2-18.9 9.1-37 12.3-55.7zm18.4-29.7c9.4 12 17.4 24.8 25.8 37.4 14.1 19.9 22.5 43.2 22.4 66.7-.5 14.8-.8 29.6-2.2 44.4-1.5 13.8-7 27-11.6 40.2-1.1.5-3.4 1.5-4.5 2 4.7-20.9 13.7-41.2 14.5-62.7.6-22.6-5.7-44.7-14-66-4.7-11.2-11.7-21.5-17-32.5-4.6-9.8-11.7-18.9-13.4-29.5z"/><path class="st26" d="M387.7 302.5c8.9 17.8 18.3 35.4 27.8 53 9.7 21.6 16 44.7 16.1 68-.5 22.7-10.3 44.1-15.1 66.1l-5.1 1.8c2.5-20.9 4.4-41.9 3.4-62.9-1-11.6-3.1-23.2-5-34.7-2.9-17.1-8.9-33.7-13.8-50.4-4.1-13.4-8.7-26.9-8.3-40.9z"/><path class="st26" d="M391.6 384.5c-1.5-18.2-4.7-36.2-4.8-54.4 6.5 18.8 12.6 37.7 17.2 56.9 3.9 22.2 8.9 44.6 6.4 67.1-.4 9.6-1.1 19.3-2.2 28.9-2.2-7.8-2.3-16-3.7-23.9-3.3-25-10.4-49.5-12.9-74.6zm-10.1-51.4c1.8 5 1.1 10.3 1.8 15.5 2.8 24.1 4.5 48.4 9.6 72.3 4.4 19.9 7.9 39.9 9.6 60.1-7.7-10.2-11.2-22.1-14.9-33.8-5.6-14.8-4.8-30.6-7.5-45.8-3.8-22.6-2.8-45.7 1.4-68.3zm55.5 29.1l1.5.3c11 16.3 14.8 35.7 12.4 54.4-1.3 12.6-6.5 24.6-8.1 37.1-2.1 8-4.2 16.1-6.4 24.1-.3 2.4-2.5 4-4.4 5.5-.2-2.4.1-4.7 1-6.9 5.4-14.5 10.2-29.4 10.2-44.7 1.2-23.4 3.6-47.6-6.2-69.8z"/><path d="M1196 303.5c32.3-8.9 65.1-16.6 97.9-24-1.6 3-5.3 3.8-8.4 5.2-27 10.6-53.3 22.4-80.4 32.8-9.5 1.5-15 9.3-23.8 11.9 4.3-8.8 9-17.7 14.7-25.9z" fill="#9e3546"/><path d="M193.8 295.6c40.7-3.9 81.4-7.7 122.1-11.5 3.2 1.7 6.3 3.5 9.5 5.2-24.6 17.6-49.2 35.1-73.8 52.6-10.6 7.3-20.7 15.3-31.8 22.1-4.4-7-6.9-14.8-9.4-22.4-8.9 1.9-17.3 5.3-26.4 6.2 4.2-11.5 11.8-21.9 17.7-32.8-2.3-6.6-5.8-12.8-7.9-19.4zm3.9 2c2.2 5.8 5.1 11.5 7.2 17.4 33-7.9 65.9-16.4 98.9-24.5 2.9-1 6.6-1 8.5-3.4-38.4 3-76.5 7-114.6 10.5zm13.8 35.9c2.1 9.3 4.8 18.5 9.7 27 29.6-20.9 58.9-42 88.4-62.9 3.7-2.6 7.8-5 10.6-8.5-36.5 14.3-72.3 29.9-108.7 44.4zm-.3-18.4c-3.2 1.1-7.6 1.2-9 4.4-4.4 8-9.7 15.6-12.8 24 8-5 15.5-10.8 25.3-13 24.8-10 49.3-20.4 74-30.5 5.3-2.3 11.2-4 15.9-7.3-31.4 6.6-62.3 15-93.4 22.4zM194.1 344c5.5-1.6 12.2-2.1 16.6-5.5-.3-1.3-.9-4-1.2-5.3-5.5 3-11.9 5.7-15.4 10.8z" fill="#130910"/><path d="M197.7 297.6c38.2-3.5 76.3-7.6 114.5-10.5-1.9 2.4-5.6 2.4-8.5 3.4-33 8.1-65.8 16.6-98.9 24.5-2.1-5.9-4.9-11.5-7.1-17.4zm13.8 35.9c36.4-14.5 72.2-30.1 108.7-44.4-2.8 3.4-6.9 5.9-10.6 8.5-29.5 20.9-58.9 42-88.4 62.9-4.8-8.5-7.6-17.7-9.7-27zm23.1 384.3c6.5-2.7 14.9-5 21.3-1.1 3.3 2.4 4.2 6.1 4.7 9.7-9.8 1.2-19.5 3.4-29.4 2.5-.6-4-.1-8.2 3.4-11.1zm9.3 17.1c2.6-.3 5.2-.5 7.8-.8-.8 5.3-1.8 10.6-2.9 15.9-2.9-4.7-4-9.9-4.9-15.1z" fill="#c660a4"/><path d="M504.4 301c18.8 4.4 38.5.5 55.6-6.9.5 2.4 1.1 4.8 1.6 7.1-17.7 7.5-38.3 10.2-57.5 5.4.2-1.3.3-4.2.3-5.6zm679.7 241.3c8.9 0 18.7.1 26 5.1 12.6 7.8 18.8 22.9 13.1 35.7-6.3 18.9-35.7 27.1-53.7 15.4-4.8-3.4-9.1-7.5-12.1-12.2 6.9-4.6 14.9-8.4 19.3-15.2 2.6-3.9 4.7-8.1 7.1-12.1 1.1-5.6 1.8-11.2.3-16.7zm-26.6 57.1c8.4 6.2 18.7 11.5 30 11.6-23.1 22.7-42 48.8-68 69.2-7.1.7-12.1-6.1-8.1-11.3 14.3-21.4 27.4-43.4 43.1-64.1 1.1-1.8 2.1-3.6 3-5.4zM137 812.2c2.6 2.3 5.1 4.7 7.7 7-4.7 5.2-13.6 8.6-14.5 15.8 6.9-3.1 11.4-9 17.4-13.2 2.6 2.5 5.3 5 8 7.4-5.4 5.3-13.6 9.1-16 16.3 8-2.2 12.4-9.4 18.7-13.9 2.8 2.5 5.7 5 8.5 7.5-5 5.3-13 9-15.2 15.9 8-1.9 11.8-9.1 17.6-13.7 3.8 3.5 7.7 7.1 11.6 10.5-9.5 8.6-20.4 16.1-28.6 25.6 1 0 3.1-.1 4.1-.2 9.6-6.9 17.6-15.3 26.9-22.5 4.7 2.5 7.9 6.8 11.8 10.1-4 4.6-11 7.9-12 14 6.6-1.8 10-7.6 14.4-11.8 3.2 2.8 6.4 5.7 9.7 8.5-4.9 5-10.7 9.5-14.9 15.1 8.3.1 11.8-8.3 17.2-12.7 3.5 2.9 6.8 5.9 10.1 9-4 4.7-9.8 8.6-12 14.2l2.6.6c4.7-3.5 7.7-8.3 12-12 2.7 1.8 5.1 4 7.4 6.2-.8 2.7-1.5 5.4-2.5 8-2.2 3.1-5.7 5.3-7.4 8.7 2.2-.3 4.4-.8 6.4-1.5-.3 5.2-.1 10.3.6 15.5-2.3 2.9-7.4 4.9-7.4 8.7 3.4 1.4 5.5-2.5 8.1-3.9 4.2 21.6 15.1 41.8 18.7 63.6-8.9-7.5-17.4-15.3-25.7-23.4 2.9-5.8 11.1-8.4 14.6-14.1-8-.3-12.5 6.9-17.9 11-19.3-16.6-37.7-34-56.6-51 4.5-4.3 11.8-6.7 13.8-12.7-7 1.1-11.3 6.5-16.4 10.2-15-13.4-29.8-27-44.9-40.4 4.4-4 9.3-7.5 13.3-11.7-7.7-1.8-10.5 7.3-16.5 8.5-8.5-7.1-16.2-15-24.9-22 18.1-11.6 35.7-23.8 52.2-37.2z" fill="#feef00"/><path d="M1187.6 329c4.1-3.7 9-6.6 14.1-9.3.3 1.3 1 3.8 1.3 5.1-2.5 1.1-5 2.2-7.6 3.3l-.6.3c-1.8.1-5.4.5-7.2.6zM478.7 725.3c4.3-2.2 7.3-5.8 11.2-8.4.5 4.6 1.8 10.4-3.9 13-13 7-29.4 14.6-44.7 8.4-5.5-1.1-6.2-6.6-8.5-10.2 14.2 6.7 32.6 4.8 45.9-2.8zM802.1 902c16.9-3.6 35.5-3.3 51.4 3.2 10 4.1 19 12.4 19.1 22.6-.1 10.2-7.2 19-14.7 26.4-12.4 12-32 15.4-49.8 15.4-29.3 0-60.1 2.5-85.8 15.8 15-25.3 36.8-46.9 59.6-67 6.8-5.5 12.8-11.7 20.2-16.4zm22.1 5.7c-5.4 1.7-9.6 8.3-5 12.5 7.2 6 21.5-.8 19.3-9.4-2.1-4.9-9.8-5.1-14.3-3.1zM782 932.2c-3.1 5-1.2 11.8 4.6 14.6 7.9 4 17.4 2.1 25.9 1.1-2.9-5.9-5.4-12-6.5-18.4-.9-2.5-.9-5.8-3.6-7.4-7.9.6-16.6 3.6-20.4 10.1zm51.8 4.4c-6 2.7-6.7 10.6-1.5 14.2 5.2 4 14.5 1.7 16.1-4.3 3.1-7-7.7-13.9-14.6-9.9z" fill="#ed2305"/><path class="st32" d="M657.3 383.5c11.9-20.1 21.6-41.8 39.2-58.7 2.2 3.3 4.2 6.7 5.9 10.3-22.2 27.3-37.9 58-53.6 88.4-15.9 31-33 61.8-42.8 94.9-1.7 7-5.6 13.8-4.6 21.1 4.7-3.5 4.5-9.3 6.3-14 7.4-26.4 19.1-51.7 32-76.5 19.5-37.5 37.5-75.8 64-110.1 9.4 2.6 13.5-6 17.9-11.3 2.3 3.6 4.3 7.3 6 11.2-17.5 30.7-37.4 60.4-53.5 91.8-18.9 35.5-32.5 72.9-47.9 109.6-6.3 15.5-13.5 30.7-18 46.6-.7 3.3-2.3 6.8-.2 10l2-2c6.3-25.1 18.4-48.6 27.7-72.8 13.2-32.4 26-65 42.9-96.2 15.3-28.7 32.6-56.5 48.9-84.7 2.1-.1 6.2-.2 8.3-.3-22.1 43.4-43.7 86.9-65.7 130.3-1.5 2.9-2.9 5.9-3.1 9.1 3.6-.7 4.6-3.9 6-6.4 23.3-46.8 47-93.3 70.2-140.1 3.1 4.2 5.4 9.1 11 11.3-15.9 31.7-32.4 63.1-48.1 94.8-.8 2.1-1.4 4.2-1.8 6.5 2.2-.9 3.7-2.3 4.7-4.2 15.9-30.9 30.8-62.3 46.5-93.2 3.1-7.3 11-11.6 16.5-17.3 1 6.4.5 13.2 4.4 19-8 15.5-19 29.5-28.9 44.1-34.1 50.4-55.4 106.1-76 161.4-1.5 4.3-3.7 8.7-3 13.4 1.9-1.6 3.5-3.5 4.3-5.7 21.6-58.3 43.7-117.2 79.8-170.2 9.5-13.8 19.5-27.4 27.3-42 6.9-.4 11.1-5.5 15.9-9.2-5.5 11.4-12.2 22.3-19.7 32.7-17.3 24.3-32.5 49.7-45.4 75.9-2.4 5.4-5.7 10.7-5.5 16.6 2-1.5 3.5-3.2 4.5-5.3 13.9-31.1 31.9-60.8 52.2-89.1 6.6-9 11.8-18.7 17.2-28.3.9 4.3.6 9.5 4.8 12.5 4.2 2.3 8.7-.6 12.6-2.1-3 6.4-8.2 11.9-11 18.4-3.8 7.8-8.4 15.3-13 22.7-1.8 2.5-2.2 5.4-2.2 8.3 10.7-11 15.4-25.2 23.3-37.6 5.9-7.1 8-15.9 13.5-23.2 1.7 6.1 2.2 12.5 4.6 18.6-12.5 24.8-29.3 47.7-45.1 71-13.2 19.8-22.6 41.2-33.9 61.8-7.7 15.4-17.2 30.5-21.3 47 3.4-.4 4.1-3.7 5.4-5.9 6.6-15.4 14.4-30.3 22.4-45.1 8.7-16.2 16.3-32.9 26.1-48.7 11.7-19 25.8-36.7 37.1-55.8 4.5-7.5 8.3-15.2 12.8-22.7 7.5.6 12.8-4.2 17.9-8.2-4 10-9.1 19.8-14.3 29.4-8.6 15.7-21 29.6-30.6 44.9-7.8 12.1-14.8 24.6-21.9 37-3.5 6.4-7.7 12.6-9.2 19.6 2.7-.6 4.3-2.5 5.3-4.7 7.5-14.6 16.1-28.7 24.5-42.9 11.5-19.5 27.5-36.9 37.8-56.9 4.8-8.4 7.9-17.5 13.3-25.7 1.5 4.7 1.2 12.4 8.6 13.1 8.3-.2 11.5-8.4 17.9-11.8-8.7 19.1-19.2 37.6-28.6 56.5-15.6 30.2-31.1 60.4-46.6 90.6-3.1 6.1-6.7 12-8.1 18.6 3.3-1.1 4.5-4.1 6-6.6 26.1-50.3 51.5-100.8 77.9-151-.9 3.4-1.5 7.9 2.9 9.5 6.9 2.3 11.7-3.7 16.4-7-10.1 23.5-21.4 46.7-31.8 70.1-1 2.3-1.5 4.8-1.8 7.3 2.5-1.5 3.9-3.7 5-6.1 11.7-25.2 23.2-50.4 34.8-75.6 2.4 5.7 4.9 12.4.6 18-25.8 52.6-50.9 105.4-76.4 158.1-2.2 4.5-4.9 9.1-5 14.1 2.6-1.9 4.5-4.3 5.7-7 13.6-28.4 27.3-56.8 40.9-85.1 12.9-27.6 26.9-54.8 39.3-82.6 3 1 6.1 2.6 9.5 1.6 5.2-1.7 7.9-6.2 11.6-9.5.6 3.8 1 7.8-1 11.4-16.5 35.9-32.8 71.9-49.3 107.8-1.9 4.4-4.7 8.7-4.4 13.7 3.9-2.1 5-6.1 6.7-9.6 16.5-36.3 33.2-72.5 49.6-108.8 3.8 3.8 9.7 5.3 15 3-32.6 65.9-64.9 131.8-97.2 197.8-1.1 2.2-1.6 4.4-1.5 6.8 4.1-2.2 5.2-6.4 7.1-9.9 30.8-62.7 61.4-125.4 92.1-188.1 2.9-5.7 4.9-12.2 10.9-16.2.1 5.6-2.7 12.4 2.1 17.2 4.9 3.5 10.9-.1 15.2-2.6-11.1 24.9-22.6 49.8-33.9 74.7-1.4 3-2.4 6.1-2.5 9.4 3.7-2.1 4.9-5.9 6.6-9.3 10.4-23.2 21-46.3 31.4-69.5 1.8-4.1 3.6-8.3 6.1-12.1 1.7 7.9-.7 16.4 3.6 23.8-23.4 46.5-46.6 93-70.1 139.4-1.7 3.1-2.8 6.4-2.9 9.9 4.6-3.4 6.5-8.6 8.9-13.3 22.5-45.1 45.1-90.2 67.9-135.2 8.9-.6 12.2-8.4 18-12.9-6.2 23.8-15.9 47.1-29.5 68.5-5.1 9.4-12.7 18-15.1 28.3 4.4-2.1 6.2-6.4 8.5-10.1 8.9-15.5 19.5-30.2 26.3-46.6 4.9-9.9 6.8-20.9 12.3-30.6 1.6 5.4 2.7 10.9 4.6 16.2-16.5 29.7-32.8 59.6-49.4 89.3-1.8 3-2.9 6.3-3.4 9.7 3.6-2.5 5.7-6.1 7.6-9.6 15.9-29.1 32.2-57.9 48.1-87 6.7.2 10.3-4.7 14.8-8.1-2.1 6.8-6.2 12.8-9.5 19.2-33.6 62.3-67 124.5-100.7 186.8-1.8 3.1-3.1 6.4-3.8 9.9 4-1.4 5.3-5.2 7.1-8.2 35.3-65.7 70.9-131.2 106.3-196.9 1.8 4 5.8 6 10.7 5.7-11.4 28.5-30.7 53.6-44.7 81.1-2.7 5.3-6.1 10.5-6.7 16.4 6.1-4.9 8.4-12.1 12.1-18.4 10.8-21.5 25.9-41.2 36.1-63 3.2-6.3 5.5-13 9.4-19.1.1 7.2 1.9 14.9-1.7 21.6-17.2 34.3-34.1 68.7-51.2 103.1-4.8 10.4-11.2 20.3-14.3 31.3 4.1-1.4 5.3-5.2 7-8.3 17.3-34.8 34.7-69.6 52.1-104.4 2.5-4.8 4.3-9.8 7.7-14.1-1.5 35.5-11.3 70.5-26.2 103.5-11.2 24.7-23 49.2-37.6 72.5-10.9 17.4-23.1 34.2-34.4 51.4-7.9 11.7-15.2 23.7-24.6 34.5-1.7-1.6-3.5-3.2-5.2-4.9 24.2-27.5 43-58.3 58.4-90.2 14.3-30.3 31-59.7 46.2-89.7 1-2.2 1.7-4.4 2-6.7-4.8 1.6-5.8 6.3-7.9 9.9-13.1 26.1-27.8 51.6-40.1 78-10.7 22.1-22.1 43.9-36.3 64.4-7.6 11.1-16.4 21.4-24.5 32.2-3-2.8-6.1-5.6-9.1-8.4 10.3-13.7 20.9-27.3 31.7-40.8 9.9-12.5 17.4-26.3 24.6-40.1 3.1-6.3 7.8-12.1 9.2-19-4.3 1.5-5.7 5.5-7.7 8.7-9.3 17-17.7 34.6-30.2 50-10.3 12.8-20.4 25.7-29.6 39.2-2.2-1.8-4.4-3.7-6.5-5.5 26.9-46.6 52.4-93.7 78.6-140.6 1.1-1.5 1.2-3.2.8-4.9-12.6 18.9-22.3 39.2-34.2 58.5-16 28.1-31.9 56.3-47.6 84.5-6.6-5.1-12.9-10.6-19.5-15.8 23.1-45.1 45.4-90.5 68.4-135.7 1.4-2.6 2.2-5.4 2.4-8.3-4.2 1.8-5.3 5.9-7.1 9.2-22 44.2-44.4 88.2-66.4 132.4-2.5-2-5-3.9-7.5-5.9 15.6-28.2 29.6-57 45-85.3 11.6-20.7 22.5-41.7 33.7-62.5 3.2-6.2 7.2-12.3 8.6-19.1-3.3 1-4.5 4.1-6.1 6.5-18.4 33.9-35.7 68.2-53.9 102.2-10.7 18.4-20.1 37.3-30.3 55.9-3.3-2.5-6.5-5-9.6-7.7 10-17.2 22.3-33.2 31-50.9.9-1.7 1.3-3.5 1.3-5.4-4.2 4-6.1 9.2-9.2 13.8-9.2 13.3-17.7 26.9-26.1 40.5-2.7-1.9-5.5-3.8-8.1-5.9 25.2-50.5 49.1-101.4 73.9-152 1.8-3.5 3.2-7.2 3.7-11-2.1 1-3.6 2.4-4.5 4.3-25.5 52-50.2 104.4-75.9 156.4-3.3-1-5.9-3.3-8.7-5 31.4-64 63.1-127.8 94.5-191.7 1.8-4.1 5-8.2 4-12.8-2.2 1.3-3.7 3.1-4.7 5.2-32.5 65.8-64.2 131.8-96.9 197.5-8-4.6-16.3-8.9-24.5-13.2 18.4-31.1 35.4-62.8 53.2-94 2.3-3.9 4.3-8 5.4-12.2-4.1 1.4-5.4 5.5-7.5 8.5-17.9 32.2-36.4 64.2-53.9 96.6-1.6-.8-3.3-1.6-4.9-2.4 30.2-58.5 59.7-117.3 89.7-175.8 1.8-3.2 2.8-6.6 3.6-10.1-4 1.6-5.2 5.6-7.1 8.8-29.6 58.7-59.7 117.2-89.1 175.9-5.7-2.3-11.4-4.5-17.1-6.7 22.4-47 44.5-94 66.8-141.1.7-1.7 3.6-6.6-.9-5.7-9.2 17.2-16.7 35.1-25.3 52.6-14.6 31-29.4 62-44 93.1-3.2-1.1-6.4-2.1-9.6-3.1 13.8-35.4 28.8-70.4 46.1-104.7 6.2-12.6 11.7-25.5 19.3-37.6 3.1-5.1 7.3-9.6 10.3-14.8-3.9-.5-5.8 2.7-7.8 4.9-8.4 11-14.1 23.2-19.9 35.3-8.9 19.1-19 37.8-26.9 57.3-7.6 19.7-16.4 38.9-23.9 58.6-7-2-14.1-3.7-21.2-5.3 5.6-13.7 14.3-26.2 20.5-39.7 7.9-16.6 12.3-34.2 19.4-51 2.3-5.6 5.9-10.9 7.3-16.8-3.2 1.6-4.6 4.6-6 7.3-11 22.5-15.5 47-28.1 68.9-5.6 10.2-11.6 20.1-16.1 30.7-4.4-.7-8.8-1.3-13.2-2 27.3-45 42.5-94.5 68.9-139.8 8.5-14.2 18.9-27.4 29.9-40.2 3.7-4.4 8.2-8.5 10.1-13.8-8.1 3.1-11.7 10.8-17.1 16.5-19.9 22.8-34.8 48.5-46 75.3-9.9 21.4-18.7 43.2-29.6 64.2-6 12.6-13.5 24.6-19 37.4-4.7-.3-9.3-.8-14-1.3 15.8-29.2 32.4-58 48-87.3 1.1-2 1.5-4 1.2-6.2-6.7 8.3-10.4 18-16.1 26.7-11.8 22.2-24.2 44.2-36.3 66.4-10.3-.8-20.7-1.6-31.1-1.9 31.4-62.4 62.9-124.7 94.2-187.1 3-6.1 6.6-12 8.1-18.5-4 1-5.1 4.8-6.7 7.6-33 66-66.5 131.9-99.2 198.1-3.8-.1-7.6-.1-11.4-.2 18.3-35.2 35.6-70.8 53.6-106.1 1.6-3.2 3.5-6.5 2.9-10.1-2.5 2.1-4.3 4.7-5.5 7.4-18 36.3-36.6 72.4-54.5 108.8-11.1-.1-22.1.3-33.2.8 5.5-13.7 14.2-26.1 21.5-39 8.8-15.5 11.7-32.8 18.9-48.9 6.9-15.8 16.1-30.7 25.6-45.4 1.7-2.5 2.9-5.3 3.6-8.2-2.9 1.1-4.9 3.3-6.3 5.7-10.7 16.8-21.3 33.7-28.5 51.9-3.9 9.7-6.5 19.8-10.2 29.5-7 19-21.6 35.2-28 54.4l-11.1.9c7.9-12.4 15.7-24.9 21.7-38.2 8.4-18.5 17.3-36.8 26.1-55.1 1.6-3 2.5-6.1 2.6-9.4-2.1 1.7-4.1 3.5-5.1 5.9-8.8 18.7-18.1 37.3-26.5 56.1-6.3 14.2-14.6 27.7-23.3 40.9-8.8.6-17.5 1.5-26.3 2.3 10.2-21.6 14-44.8 23.9-66.5 7.9-16.9 11.8-35.2 21.4-51.5 9.6-17.3 22.2-33.3 30.8-51.1 5.5-11.2 9-23 14-34.3.9-2.3 1.5-4.6 1.8-7.1-.9.6-2.6 1.7-3.4 2.3-5.2 9.7-7.9 20.2-12.3 30.1-11.3 27.7-33.5 51-43.5 79.3-6.6 19.4-15.1 38.2-21.4 57.7-4.4 13.9-9.3 27.7-15 41.4-7.5.9-14.9 2.3-22.4 3.6 10-18.8 14.5-39.2 23.4-58.4 3.7-8.8 8.4-17.3 11.5-26.3l-2.8-.8c-5.6 10.3-9.8 21.1-14.7 31.7-7.9 18-12.2 37.1-21.7 54.5-1.8.9-3.8 1.7-5.8 2.3 2.4-12.1 7.8-23.5 11.7-35.3 9.5-24.8 19.4-49.6 30.9-73.8 9.1-17.4 18.3-34.7 26.1-52.5 11.5-23.9 25.6-47.5 38.6-71.5zm242.8 220.2"/><path class="st32" d="M1076.2 469.3c.2-3.9-.3-8 1-11.8 5.1 36.3-7.3 71.8-14.4 107.1-1.1 7.4-4.8 14.8-3.4 22.3 1.4-1.6 3.2-3.2 3.5-5.3 4.1-16.7 7.5-33.6 11.4-50.4 3.3-14.8 6.8-29.6 7.5-44.6.4.1 1.3.1 1.7.2-2.4 40.9-12.8 81.2-28 119.9-9.8 25.5-21.3 50.6-35.6 74.5-13.6 23-27.2 46-38.9 69.7-2.8-1.4-5.6-2.9-8.3-4.4 9.7-9.9 17.1-21.3 22.9-33.2-5.4 2.4-7 7.9-10.4 11.9-4.1 7.3-10.4 13.4-15.3 20.3-2.7-1.3-5.5-2.6-8.2-3.8 23-24.5 44.8-50.2 60.6-78.8 8-14.4 17.1-28.3 24.7-42.9 2.2-4.5 5.4-8.8 5.5-13.8-4.1 1.7-5.3 5.7-7.1 9-8.4 16.7-18.7 32.5-27.8 48.8-15.4 27.7-36.9 52.3-58.6 76.3l-8.1-4.5c22.3-18.4 34.3-43.5 49.9-66.1 2.9-5 7.9-9.4 8-15.3-1.6 1.3-3.1 2.7-4.4 4.2-18.6 25.1-31.2 54-56 75.3-1-.5-3-1.6-4-2.1 17.7-21.8 31.9-45.6 47.8-68.4 26.7-38.3 46.3-80.1 63-122.4.3-.3 1.1-.7 1.4-1-2.2 10.9-3.5 22-6.7 32.8-6.4 22.4-18.4 43.2-26.8 65-.9 2.3-1.3 4.8-1.3 7.3 3.6-1.4 4.5-4.8 5.8-7.7 7.1-18.7 17.1-36.4 23.5-55.3 7.1-19.6 8.4-40.2 13.4-60.2 3.8-17.5 11-34.6 11.7-52.6z"/><path d="M194.1 344c3.5-5.1 9.9-7.7 15.4-10.9.3 1.3.9 4 1.2 5.3-4.4 3.5-11.1 4-16.6 5.6z" fill="#b65897"/><path d="M520 351c10.8.5 21.3-1.9 31.2-5.5 1.8 6.9-2.8 13.5-8.1 18.2-3.3 3.1-9.1 4.7-13.4 2.2-5.4-3.5-8.6-9.2-9.7-14.9zm4.7 3.3c2.2 3.6 4.4 7.9 9.2 9.2 7.5-.5 10.8-7.6 13.6-12.7-7.4 2.1-15 3.4-22.8 3.5zM334 860.7c8.9-2.6 18.8.1 26.4 4.5 23.2 13 28.7 44.8 9.9 62.8-8.8 8.6-23.6 11.9-35.8 7.2-27.7-9.9-37.6-44.8-18.5-64.9 4.5-5 11.3-7.7 18-9.6zm-1.8 10.6c-23.7 12-16.8 47.9 8.6 54.6 9.9 2.9 20.8-2.5 24.9-10.5 7.7-14.2 1.8-33-13.2-41.7-5.8-3.4-13.6-4.2-20.3-2.4zm522.3-6.9c2.8-2.6 7-2.9 10.6-3.9 3.3 7.6 5.2 15.5 6.2 23.6-6.3 1.9-13.8.7-18.2-3.8-4.6-4.5-3.6-11.9 1.4-15.9zm-.4 10.7c1.4 5.2 8.1 6.4 13.2 7.3-1.1-6.3-2.5-12.5-4.4-18.6-5.4 1.5-10.5 5.9-8.8 11.3zm-29.9 32.6c4.5-1.9 12.3-1.8 14.2 3.1 2.2 8.6-12.1 15.5-19.3 9.4-4.5-4.3-.3-10.8 5.1-12.5zM782 932.2c3.8-6.6 12.5-9.5 20.5-10.1 2.7 1.5 2.7 4.9 3.6 7.4 1.1 6.4 3.5 12.5 6.5 18.4-8.5 1-18 2.9-25.9-1.1-5.9-2.7-7.8-9.6-4.7-14.6zm4.8-.5c-3.4 3.4-3.3 9.6 1.4 12 5.6 3.1 12.5 2.1 18.7 1.7-3.1-6.5-4-13.4-5.9-20.2-5.2 1.1-10.8 2.6-14.2 6.5zm47 4.9c7-3.9 17.7 2.9 14.7 10-1.7 6-10.9 8.3-16.1 4.3-5.3-3.7-4.6-11.6 1.4-14.3zm-70.8 64.3c-2.6-9.2 9.8-16.5 19.3-13.3.6 6.6 1.8 13.1 2.3 19.7-7.5 1.1-18.8 1.5-21.6-6.4zm3.4-1.7c1.3 5.7 9.1 5.4 14.2 5.4-.7-4.9-1.4-9.7-1.9-14.6-6.1-.3-12.6 3.4-12.3 9.2zm-327.9 103.7c7.9-2.4 16.7-.4 23.9 3 24.9 12.2 32.2 45.7 12.5 64.2-8.4 8.5-22.8 11.8-34.9 7.5-27.7-9.2-38.6-43.6-20.5-64 4.6-5.5 11.6-8.8 19-10.7zm-1.6 10.6c-14.5 6.8-17.8 24-11.7 36.5 3.9 11.9 18.7 22 33.1 17.7 14.7-5.4 18.2-22.1 13.6-34.2-3.9-12.9-19.3-24.7-35-20zm-108.8-3c11.2-2.5 23.1 1.9 31.2 8.6 18.3 14.9 21.8 43 4.2 59.4-9 8.9-24.6 11.7-37 6.6-26.8-10.5-36.4-44.5-17.6-64.4 4.8-5.5 12.1-8.3 19.2-10.2zm-3.9 11.8c-17.9 10.5-16 35.2-1.7 47.5 7.9 7.3 22.6 9.5 31.2 1.9 13-11.6 10.3-31.6-1.5-43.1-6.5-6.8-18.7-10.5-28-6.3z" fill="#010101"/><path d="M524.7 354.3c7.8-.1 15.4-1.4 22.8-3.4-2.8 5.1-6.2 12.2-13.6 12.7-4.8-1.4-7-5.7-9.2-9.3zM273.8 551c12.3 13 23.6 26.6 36 39.5-.7 3.6-1.6 7.2-2.4 10.8-4.9-3.3-8.3-9.8-15.1-9.8-7.2 1.6-5.9 9.1-4.8 13.9-3.5-2.1-7.2-6.1-11.9-4.3-6.3 1.9-3.5 8.7-4 12.9-2.6-2.2-7-3.5-7-7.2-2.3-16.3-4.8-32.7-6.6-49 6.3-.1 11.9-2.7 15.8-6.8zm141.7 31.8c8.2-.8 16.1-3.2 23.4-6.5-1.8 5.8-4.3 13.9-12.2 15.1-5.3-.8-8.3-5.1-11.2-8.6zm438.6 292.3c-1.7-5.4 3.4-9.8 8.8-11.3 1.9 6.1 3.3 12.3 4.4 18.6-5.1-.9-11.8-2-13.2-7.3zm-67.3 56.6c3.4-3.9 9-5.4 14.2-6.5 1.9 6.7 2.8 13.7 5.9 20.2-6.2.4-13.1 1.4-18.7-1.7-4.8-2.5-4.9-8.6-1.4-12zm-20.4 67.5c-.3-5.8 6.2-9.4 12.3-9.2.4 4.9 1.2 9.7 1.9 14.6-5.1-.1-12.9.2-14.2-5.4z" fill="#fff"/><path d="M437 362.2c-3.8-3.1 4.8-3 1.5.3l-1.5-.3z"/><path d="M1238 375.5c5-5.6 13.6-9.2 21.7-7.4 7.7 1.7 15.4 7 15.8 14.4 1.3 8.8-6.2 15.7-12.6 21.5-11.6 8.5-25.6 13.9-38.3 21-5.1 2.3-9.3 5.9-12.9 9.8-4.6-6-10.9-10.6-17.4-14.9 5.5-4.7 11.6-8.8 16.7-13.8 10.1-9.4 17.5-20.7 27-30.6z" fill="#9ed315"/><path d="M210.1 387c6.5-2.3 10.6 4.6 12.4 9.1-1.9 6.2-2.8 14-9.7 17.7-4.3 2.5-9.7 1.3-14.1-.3.3-1.1.8-3.4 1-4.5 3.8-7.3 5.4-15.3 10.4-22zm-33 3c6.3.9 12.5 2.3 18.8 3.3-.8 2.6-1.6 5.3-3.8 7.4-5-3.6-10.2-6.9-15-10.7z" fill="#fee621"/><path d="M358.3 461c-21.1-19.7-26.4-50.2-14.5-74.9.3 19.1 1.2 38.5 7.6 56.9 1.9 6.1 4.7 12 6.9 18z" fill="#faf34f"/><path d="M231.9 400.5c11.7 5.8 24.9 9 38.2 10.5 5.4 1.5 11.7 2.8 14.5 7.7 3.6 3.9 1.2 9.1.3 13.4-3.9 2.7-8.2 5.1-13.3 4.9-18.4-2.3-29.2-17.5-46.2-22.6 2.9-4.4 4.8-9.1 6.5-13.9zM520.2 490c16.2 10.5 40.8 7.7 54.6-4.8-.4 4.4.9 10.3-4.9 12.4-9.4 4-19.7 7.2-30.3 7-6.1-.1-11.3-3.1-16.5-5.6-.9-3.1-1.9-6.1-2.9-9z" fill="#fff000"/><path d="M1159.9 433.6c6-3.2 12.8-6.5 20.2-5.1 7.1 3.1 13.5 7.6 18.7 12.9 7.1 7.2 4.7 19.9-4.9 24.5-7.9-6.1-15.8-12.3-23.6-18.5-4.3-4.1-9.4-8.1-10.4-13.8zm1.3 26.1c3.6-1.1 6.1 4 9 5.8-7.3 4.6-15.2 8.3-23.1 11.9 3.7-6.5 8.8-12.3 14.1-17.7z" fill="#73d912"/><path d="M1234.9 462.5c28.7-2.5 52.1-19.5 80.1-24.3 7-.9 15.6-.8 20.1 4.8 7.2 8.8 9.2 19.8 12.9 29.9 3.6 11.4 7.8 22.6 11.6 34 1.1 2.3-.9 4.5-2 6.5-7.4.2-13.6 4-20.2 6.5-10.1 4.4-20.7 7.9-31.8 9.9-15.5 2.8-29.8 9-43.8 15.3-6.8-1.8-5.9-9.3-8.6-14-9-20.1-13.7-41.4-21.5-61.8-1.5-2.7-1.6-7.2 3.2-6.8zm52.6 8.5c-5.9-2.8-13.3-5-19.5-1.5-9.4 3.9-10.6 15.5-4.1 21.9 9.3 9.8 24.8 13.1 33.7 23.4 1.8 3.4 7.7 2.2 8.5-1.2 2.5-14.2 15.4-24.9 18-39 .5-5.4 1.3-11.7-3.2-16-3.8-4.1-10.6-4.4-16-3.2-8 2.8-13 9.4-17.4 15.6zm-876.6 32c8.4-2 16-5.8 24.3-8 1.9 5.2 4.1 10.3 6.4 15.4-15.7 10-35.4 16.7-55.1 14.4-2.2-6.1-.2-13.2-.7-19.6 8.4-.1 17-.2 25.1-2.2zm777.2 222.6c10.4-1.1 21-1.7 31.4-3.2l-.6 1.2c-54.3 13.6-108.6 27.3-163 40.5-1.8-9-7.5-16.7-10.1-25.5 47.5-3.8 94.8-8.8 142.3-13zm1.9 17.2c13.1-5 25.6-11.6 39.2-15.6-49.3 35.3-98.8 70.5-148.3 105.7-6.9-12.5-10.7-26-14.2-39.4 41.2-16.7 82.2-33.9 123.3-50.7zM983.4 1013c27.6-3.7 50.6-19.7 78-24.1 8.3-1.6 12.3 6 14.3 11.6 5.5 16 11.1 32 16.2 48.1-15.7 5.8-30.8 13.3-47.8 16.2-13.3 2.4-25.6 7.6-37.8 12.4-4.8-12.8-10.4-25.3-14.2-38.3-2.5-8.7-5.5-17.4-8.7-25.9zm46.6 1.5c-5.6-3-12.7-4.9-18.9-2-10.1 3.5-10.6 16-4 22.4 10 10 26.7 13.4 35 25 7.8-.1 6.6-7.8 9.1-12.3 5.8-11.9 16.4-22.9 15.5-36.6.5-6.6-5.4-13.4-13.3-13-11.4-.3-18.5 8.8-23.4 16.5z" fill="#22c94c"/><path d="M162.9 465.9c1.3-8.4 7.1-16.9 16.6-20 6.8-2.8 15.6-1.2 20 4.2 6.2 8.3 4.5 20.1-2.9 27.4-3.1 4.8-12.8 5.8-11.7 12.1 1.5 0 4.6-.1 6.2-.1 10.2-5.7 24.3-9.3 35.6-3.8 4.4 2.3 6.2 6.6 7.6 10.7-1.4 3.7-1.9 8.1-5.5 10.8-7.8 6.6-21.1 4.3-28.1-2.1-3.3-4.5-5.1-11.2-11.8-12.8-4.1.2-3 5-.8 6.7 9.5 11 11.9 27.2 3.7 39.3-1.9 3.1-5.8 4.4-9.2 5.9-15.6-3.6-20.8-20-19.9-32.5-.7-6.9 7.3-10.9 8.1-17.3-.7-4-6.1-2.3-7.1.5-7.8 12.2-28.6 15.8-41 6.9-6.4-4.3-6.4-13.2-1.3-18.3 7.2-7.9 20.2-10 30.9-7.3 5.5.7 7.1 6 10.7 9 2.5 2.4 7.6 6.2 9.8 1.6-5.1-6-11.6-12.8-9.9-20.9zm919 409.3c1.5-11.2 17-17.6 28.3-12.9 14.8 5.1 16.8 24.3 5.7 33.3-4 3.5-10.4 6.6-9.9 12.2 4 1 6.5-2.4 9.3-4.2 7.3-5.9 18.3-10.6 28.2-6.7 10.7 3.4 16 15.4 11.1 24.2-3 5.3-10.6 8.7-17.2 6.9-11.3-1.5-19.9-10.5-31.5-10.4-2.1 3 .5 4.9 3 6.8 2 7.4 4.1 15.6 0 22.7-2.9 5.8-11.5 8.8-18.1 6.1-12.7-3.6-20.2-20-9.5-28.6 2.9-3.2 10.9-5.7 7.1-10.5-6.2 0-10.7 4.9-17 5.1-9.9.5-20.2-2.9-27-9.2-4.6-4.4-6.5-12-.3-16 12.8-9.2 35.3-4.1 41.9 9.2 1.2 3.4 8 9.1 9.6 2.9-4.6-10.3-16-19-13.7-30.9z" fill="#fe6d00"/><path d="M525.5 503.7c15.2 7.7 33.1 1.8 47.8-3.9-1.1 7.3-3.4 14.6-7.9 20.8-.9 1.6-2.4 2.5-4.4 2.8-7.6 1.6-15.6 2.3-23.4 1.5-2.6.1-3.5-2.3-4.6-3.9-3.3-5.5-5.9-11.3-7.5-17.3zm9.6 31.5c9.8.3 19.6-.2 29.4-1.2.3 4.5.2 9.2-2 13.4-7.5 16.7-13 34.1-19.8 51-2.5-21.1-5.1-42.2-7.6-63.2z" fill="#e72722"/><path d="M385.7 538.5c21.8 2.8 43.7-2.8 62.1-12.8 5.4 14.6 10.2 29.4 15.3 44.1 8.3 25.4 13.8 51.4 17.8 77.6 2.1 21 5.4 41.9 7.7 62.9-10 17.8-41.9 25.3-58.8 10.9-10.5-20.2-15.3-42.1-21.9-63.4-11.9-38.9-21.1-78.8-22.2-119.3zm47.5 3c-6.9 3.2-8.1 13.3-.6 16.5 8.4 3.7 18.3-4.6 15.9-12.1-1.5-5.7-10.3-7.6-15.3-4.4zm-35.1 6.9c-6.7 3.2-8.1 13-.7 16.3 8.4 4 18.6-4.5 16-12-1.6-5.6-10.3-7.6-15.3-4.3zm30.4 27.7c-6.2 2.3-13.2 2.3-19.4 4.6 3.3 4.6 6.3 9.8 11.7 12.9 3.9 2.4 9.6 2.1 13.1-.7 5-3.8 7.8-9.4 9.2-15 0-2.5 1.9-6.9-2.4-7.3-4.1 1.8-7.9 4-12.2 5.5zM440 741.5c17.5 7 35.9-2 50.8-9.8-.6 8.3-1.7 16.8-6 24.3-.9 2-3.6 2.2-5.6 3.1-7.9 2.2-16.3 4.3-24.6 3.5-6.7-5.9-10.6-13.8-14.6-21.1zm15.9 32.4c10.2-.8 20.4-2 30.1-4.9 17.4 70.4 34.1 140.9 51.4 211.2 2.6 6.7-.9 13.4-2.6 20-3.2 9.6-5.5 19.4-9.8 28.7-22.7-85.1-46.1-170-69.1-255zM160.6 996.6c3.6-2.5 8.5-5.4 13.1-3.2 7.4 2.4 9.5 10.1 10.4 16.2.3 8.3-3.5 16.7-10.5 22.4-3.7 2.7 1.6 4.8 3.6 6.5 5.7-4.7 13.1-8.4 21.2-7.8 7.5.7 15.8 3.2 19.5 9.4.8 3.1.2 6.8-2.9 8.9-8.8 6.1-22 5.7-30.9 0-3.1-1.7-5.4-4.6-8.8-5.8-.9.8-2.7 2.3-3.7 3.1 7.2 9.5 4.7 25.3-8.7 29.6-5.4-1.2-10.8-3.9-12.3-8.9-4-7.7-.3-16.1 4.7-22.7 2.2-2.3-1.9-4.3-2.9-6.1-6 3.5-12.3 7.6-19.9 6.8-9.4.6-19.1-4.1-22.1-12.1 3.9-10.9 19.6-11.9 30.2-8.9 8.5 1.9 10.6 11.5 19.5 13 1.2-4.6-3.7-7.8-5.4-11.7-3.7-9.4-2.1-21.2 5.9-28.7zm596.1 176.8c5.5-4.4 14.8-6.2 20.8-1.3 9.9 7.8 7.2 22.2-1.1 30.1-3.3 3.8-12.1 4.5-9.7 10.7 1.7.3 5 .9 6.6 1.2 3.9-4 7.7-8.7 13.8-10 10.7-3.3 23.4 0 30.7 7.6 4.4 4.7 4.9 12 .2 16.8-7.1 7.5-20.4 7.5-29.9 3.9-7-2.3-10.7-10.5-19.2-9.4.1 6.5 8.4 9.3 10.5 15.2 5.2 10 4.5 25.4-8.6 30.3-12.1 3.4-23.4-5.2-27.5-14.6-3-6.7-3.3-14.7-.2-21.3 4.7-3.2 14.2-6.2 11-12.7-8.4-.6-13.1 8.5-21.6 7.6-14.4.3-32.8-10.4-27.6-24.6 7.7-10.5 25.5-8.7 35.8-2.2 4.2 4.8 8.7 13.4 17.3 10.8-2.1-5.8-8.9-9.6-10.8-15.6-1.5-8.2 2-17.2 9.5-22.5z" fill="#25ca4f"/><path d="M254 530.1c5.3 2.9 8.3 8 12.1 12.1-2.6 1.9-5.4 6.4-9.4 4.1-1.5-5.3-1.9-10.8-2.7-16.2z" fill="#00b9ca"/><path d="M1056.3 534.5c2.8.4 1.9 4.4.2 5.6-.3.2-1.1.7-1.4 1-1.4-2.1-.9-5.1 1.2-6.6z" fill="#0c0d0c"/><path d="M1158.7 557.6c3.5-6.1 10.2-9.8 16.5-13.4 5 6.9.1 14.9-3.9 21.2-3.7 6.1-10.2 10.3-16.6 14.1-.7-7.4-.9-15.5 4-21.9zm-68.5 144.6c3.1-7.7 8.8-14.4 13.5-21.4 2.7 2 5.6 3.8 8.6 5.4-6.6 6-13.5 12.3-22.1 16z" fill="#fe8f00"/><path d="M196.7 618.9c-9.6-12.1-13.1-30.4-1.6-42.4 12.2 11.4 12.8 30.2 1.6 42.4zm-116 29.3c2.3-2.9 6.6-3.1 10.2-3.4-.3 6.2-.3 12.6-2.8 18.6-9.2 0-9.6-9.4-7.4-15.2zm98.2 83.9c4.2-.2 8.6-.6 12.2-2.8 1 8.8 2 17.7 2 26.6-4-.9-5.2-4.3-6.8-7.1-2.7-5.5-5-11.1-7.4-16.7z" fill="#009fc7"/><path d="M320.2 603.1c33.4 76 65.9 152.3 98.9 228.5-3.2-.4-6.3-.8-9.4-1.1-13.8-31.5-27.5-63.1-41.8-94.5-17.3-39.6-34.3-79.3-51.7-118.9 2.1-4.5 3-9.2 4-14zm-18.5 10c3.1 2.4 6.7 4.4 10.7 5.6 14 30.5 27 61.3 41 91.8 17.4 39.8 34.4 79.7 52 119.3-5.5-.2-10.9-.6-16.3-1.3-12.7-29.7-25.9-59.2-38.8-88.9-17.3-38.3-33.5-77.1-50.7-115.5 2.3-3.3 2.4-7.2 2.1-11zm-18.4 3.9c3.9 3.3 7.8 6.8 12.9 8.5 16.3 38.3 33.9 76.1 50.2 114.3 12.9 29.6 26.1 59.1 38.9 88.8-5.6-.1-11.1-.2-16.7-.4-28.4-65.4-57.3-130.6-85.9-195.9-1.3-5 1.4-10.2.6-15.3zm-10.4 13.1c2.9.2 6.2.4 6.6 3.5 27.6 62.9 55.3 125.8 82.8 188.7.8 2.1 1.5 4.2 2.2 6.4h-5.3c-28.8-66.2-57.4-132.5-86.3-198.6z" fill="#00bacb"/><path class="st51" d="M546.3 629.2c27.3-7.9 56.2-10.1 84.8-11.6 28-1.5 56.1-1.3 84 1.5 22.8 2.1 45.7 5.9 66.8 14.1 27.6 10.8 54.1 24.1 76.5 42 24.1 18.7 47.8 37.9 69.1 59.1-21.1 16.9-44.5 31.5-66.3 47.9-23-18-50.3-31.1-78.1-42.3-10.9-4.4-22.2-7.9-33.7-10.9 2.7-4.5 10.2-10.2 4.6-15.1-11.3-6.4-24.1-10.3-37.1-13-13.9-3.6-28.2-6.3-42.8-7.1-2.4-.3-4.6 1.2-5.6 3-3.9 5.9-4.7 12.9-6 19.5-32.5-3.1-66.3-7.9-98.4.4-5.1-29.3-11.4-58.4-17.8-87.5zm81.9 16.2c-10.3 3.5-17.6 12.9-16.8 22.6.3 8 6.9 15.5 15.7 17.8 19 5.4 41-13.1 33.7-29.8-4.9-11-20.7-15.2-32.6-10.6zM801.3 686c-11 2.3-19.7 11.1-20.3 21-.9 9 5.9 18 15.8 20.4 18.8 5.2 40.2-12.8 33.6-29.4-4.2-10-17.6-14.9-29.1-12z"/><path class="st51" d="M567 736.8c31.1-3.3 62.6-2.6 93.7.8 1.3 12.9 1.1 26.6 8.2 38.5 4.1 6 14 11.8 21.5 6.4 14.8-9.7 28.3-21 40.7-33 34.4 8.9 67.7 22 96.2 41.2 3.5 2.6 8.3 4.5 10.5 8.2-14.9 11.4-30.1 22.4-44.3 34.4-50.2 41.3-90 91.7-118.3 146.5-19.2 37.2-25.4 78-32.5 117.9-5.8 34.5-16.5 68.2-27.1 101.7-10.2 31.5-16.8 63.9-30.1 94.5-7.3 15.5-16.1 31.3-31.3 42-11.7 8.8-30.7 8.7-42.3-.1-14.5-10.4-21.7-26.4-25.6-42-7.7-32.1-2.4-65.2 4.2-97.1 10-44.3 22.8-88.1 36.6-131.6 9.1-29.8 20.2-59.1 27.4-89.3C564.9 934 569.8 891 570.9 848c1.4-37.1.1-74.3-3.9-111.2z"/><path d="M40.8 656.2c-5.1-4-6.8-11.4.6-14.4 11.6-2.1 21.4 5.1 32.5 6.7 0 2.7 0 5.4.1 8.2-11-.9-22.1-.4-33.2-.5z" fill="#3c91d6"/><path d="M95.1 656.6c.2-6.9 8.5-2.3 12.6-1-4.1.4-8.3.7-12.6 1zm784.3 185.3c11.9-9 24.1-17.7 36.4-26.4 2.3 11.2-8.7 19.4-16.8 26.6-3.8 2.8-9.1 7.7-4 11.7 5.8 2.3 12.5 2 18.4 4.1 9.2 2.9 19.2 7.5 22.6 16.1 3.5 10.1-2.6 21.1-11.8 27.3-11.9 8.9-27.4 12.2-42 16.2-5.5-10.5-15.8-18.9-28.3-22.8-12-4.2-25-5-37.8-4.6 16.1-12.6 32.1-25.3 49-37 2.7 8.2 15.4 6.8 18.7-.1 3.3-4.2-.1-8.7-4.4-11.1zm-24.9 22.5c-5 3.9-6 11.4-1.4 15.9 4.4 4.5 11.9 5.7 18.2 3.8-1-8.1-2.9-16-6.2-23.6-3.7 1-7.9 1.4-10.6 3.9zm28.6 9.9c-5.1 3.7-3.4 11.8 3 13.5 6.4 2.3 14.1-3.4 12.1-9.3-1-6.1-10.3-7.8-15.1-4.2z" fill="#00a0c8"/><path d="M1156.3 724.1c-.3-18.3-2.8-36.9 1.4-54.9-2 18.1-1.9 36.3-.1 54.4 4.2-.3 8.4-.7 12.6-.7-4.6.8-9.3.9-13.9 1.2z" fill="#516500"/><path d="M564.4 718.9c13.7-1.9 27.5-3.8 41.4-3.5 18.8-.2 37.4 2.4 56 4.3-.3 4.7-.4 9.4-.4 14.1-31.5-2.2-63.5-4.9-94.8.1-1-4.9-1.6-9.9-2.2-15zm169.8 27.6c4-4.6 7.2-9.8 11.7-14.1 9.9.8 19.1 4.8 28.3 7.8 29.9 11.4 58.9 25.3 83.6 44.1-5 4.3-10.5 8.1-16.1 11.9-31.1-23.3-68.4-39.2-107.5-49.7z" fill="#5ad8d8"/><path d="M1219.4 722.4c4.3-2.5 2.3 4.7-.6 1.2l.6-1.2z"/><path d="M1078.9 762.3c41.5-9.8 82.6-20.9 124.4-29.9-4.1 3-9.2 4.5-14 6.5-36.9 15.3-74 30.4-110.9 45.9-4.4 1.9-8.7 3.8-13.3 5-12.4 2.5-20.9 11.4-31.7 16.7 3.6-8.7 9.1-16.7 13.6-25.1 2.4-4.1 4.1-8.5 7.5-12.1 7.5-3.8 16.3-4.7 24.4-7z" fill="#028745"/><path d="M870.1 788.7c21.8-16.1 43.1-32.7 65-48.8 11.6 8.4 25.3 14.1 38.1 20.9-26 18.3-52.6 36-78.1 54.8-6.6-10.2-16.6-18.1-25-26.9z" fill="#bc3900"/><path d="M850.9 803c4.8-4.3 10.2-8 15.7-11.6 9.5 7.9 18.5 16.4 25.1 26.4-4.5 3.7-9.2 7.2-13.8 10.8-8.1-9.3-16.8-18.2-27-25.6z" fill="#0bc"/><path d="M684.9 988.5c34.9-71.9 92.4-134.7 162.4-183.1 10.7 6.8 19.7 15.8 26.9 25.5-29.7 22-59.3 44.4-87.8 67.6-19.5 16.4-38.5 33.4-54.6 52.4-23.7 28-41.3 59.8-52.8 93.2-24.1 69.3-31.9 142-55.4 211.4-5.5 16.3-13.1 32.1-22.6 47-4.6 6.8-9.6 13.7-16.1 19.2 2.2-5.9 6.1-11.2 8.9-16.9 13.2-26 19.2-54.1 27.8-81.4 9.9-34.6 22.6-68.7 29.8-103.8 9.3-44 13.2-89.5 33.5-131.1z" fill="#bb3900"/><path d="M320.4 855.8c22.8-4.1 46-7.5 69.3-8 26.3-.6 52.8 3.7 77 12.7 3 11.3 6 22.6 9.2 33.9-13-2.5-27.4 2.4-35 11.9-15.1 18.8-8.1 47.7 14 60 9.7 5.5 23.1 7.1 33.3 1.7 2.2-.9 4.1-2.8 6.6-2.7 3.4 11.6 6.5 23.3 9.6 35.1-8.6 2.5-17.7 5.6-22.9 12.5-19.1 22.4-3.8 60.1 28.2 65.4-15.4 51.2-31.2 102.5-38.7 155.1-25 14.9-57.8 20.6-87.1 13-27.4-6.9-51.1-22-71.9-38.6-20.6-16.8-40.6-36.4-46.4-61.2-6-25.2 3.8-50.4 14.1-73.7 9.7-21.8 18.7-45.3 13.8-69-5.3-30.1-29.5-53.9-38.9-82.7-4.4-13.4-2.9-29 7.7-40 14.2-15.3 37-21.2 58.1-25.4zm13.6 4.9c-6.7 1.9-13.5 4.6-17.9 9.5-19.1 20.1-9.2 55 18.5 64.9 12.2 4.7 27 1.4 35.8-7.2 18.7-17.9 13.2-49.7-9.9-62.8-7.7-4.3-17.6-7-26.5-4.4zm9.7 98.4c-14.8 3.7-24.1 16.7-25.3 29.7-2.3 18.3 9.3 38.5 29.6 45.2 13.1 4.5 28.9.1 37.3-9.6 17-18.9 9.9-49.8-13.4-62.3-8.3-4.5-19.1-6.6-28.2-3zm94.8 143.8c-7.3 1.9-14.4 5.2-19 10.7-18.1 20.5-7.3 54.8 20.5 64 12 4.3 26.4 1 34.9-7.5 19.7-18.6 12.4-52-12.5-64.2-7.2-3.4-16-5.4-23.9-3zm-110.4 7.6c-7.2 2-14.4 4.8-19.1 10.1-18.8 19.9-9.2 53.9 17.6 64.4 12.3 5.1 27.9 2.3 37-6.6 17.6-16.4 14.1-44.5-4.2-59.4-8.2-6.6-20.1-11.1-31.3-8.5zm200.1-220.6c9.5 5.7 17.9 12.9 24.8 20.9-1.1 16.5-4.3 32.9-8.2 49.1-5-23.4-11.1-46.6-16.6-70z" fill="#ad65e6"/><path d="M332.2 871.3c6.6-1.8 14.4-1 20.4 2.3 15 8.7 20.9 27.5 13.2 41.7-4.2 8-15 13.4-24.9 10.5-25.4-6.6-32.3-42.6-8.7-54.5z" fill="#ff7400"/><path d="M883.1 874.3c4.9-3.6 14.2-1.8 15.2 4.2 1.9 5.9-5.7 11.6-12.1 9.3-6.5-1.7-8.2-9.9-3.1-13.5z" fill="#050600"/><path d="M460.6 905c6.2-1.1 13.2-.6 18.4 2.8 4.2 12 6.5 24.4 10.3 36.5.4 3.1 2.8 6.8 0 9.5-5.7 6-16.3 8.9-24.6 5.3-13.8-5-20.9-18.7-20.3-31.2.4-9.4 5.9-19.2 16.2-22.9z" fill="#009ce3"/><path d="M985.4 909c10.1-9.3 30.6-3.9 33.3 8.6 2 8.8-5.3 16.4-12.1 22.1-15.5 12.2-36.9 17.3-51.3 30.7-4.6-5.6-10.6-10.2-16.9-14.3 5.8-4.4 11.7-8.8 16.8-13.8 11.2-10.3 18.6-23.3 30.2-33.3zm-149.5 283.2c4.1-3.2 8.5-6.1 13.3-8.5-.1 1.3-.3 3.8-.4 5-4.3 1.2-8.6 2.4-12.9 3.5zm-74.9 137c4.6 1.3 5.5 5.3 5.8 9.1-2.8-1.3-5.5-2.8-8.2-4.1.8-1.8 1.6-3.4 2.4-5z" fill="#ffe723"/><path d="M243.7 934.3c4.7 7 7.7 14.8 12.4 21.9 12.7 20.6 26.4 42.6 24.3 66.8-3.3 33.2-25.6 62.3-29.9 95.4-3.7 22.1 2.8 45.2 17.1 63.7 16.9 22.2 40.1 40 64.7 55.6 25.5 15.7 56.6 26.6 88.3 23.4 17.5-1.3 34-6.8 49.6-13.3-.4 2.3-.8 4.7-1.2 7.1-32.3 9-67.1 14.2-100.7 7.8-39.7-6.9-74.7-28.9-98.4-57.1-21.7-26-35.2-58.5-31.4-90.9 2.4-30.3 18.7-58 22.4-88.1 2.7-17.4.1-35.2-4.9-52.1-3.5-13.6-10-26.5-12.3-40.2z" fill="#a25594"/><path d="M904.1 969.9c6.5-3.6 14.7-7.3 22.3-3.8 7.9 4.3 15.8 9.9 19.3 17.7 2.2 6.6-1.8 13.3-6.9 18.1-8.8-4.9-15.6-12-23.6-17.7-4.6-4.1-10-8.4-11.1-14.3zm-12.5 42.7c4-6.2 9.1-11.7 14.1-17.3l7.8 6.3c-6.9 4.4-14.3 7.9-21.9 11zm-7.3 144.3c18.5-4.4 36.8-9.3 55.5-13.2-3.9 2.8-8.6 4.5-13.2 6.4-24.3 9.9-48.3 20.2-72.7 29.9-9.3 2.1-16.6 7.7-24.1 12.6 4.1-8.5 8.8-16.8 13.9-24.8 12.9-5 27.1-7.2 40.6-10.9z" fill="#ec9300"/><path d="M345.7 969.4c7.6-1.6 16.2-.1 22.2 4.5 12.7 9.5 17.2 26.9 9.5 40-4.2 7-13.7 11.7-22.7 9.7-26-5.7-33.2-42.7-9-54.2z" fill="#e81d2f"/><path d="M804.6 979.7c7.8.1 15.7-.4 23.4-1.4 7-1.5 12.8 4.8 13 10.4.1 14.1-11.4 27.7-26.9 31.8-11.3 3-23.3 2.6-34.9 3.3-20.1.8-40.6 3.8-58.5 12.3-11.5 5.2-21.4 12.5-31.9 18.9 5.5-15.3 11.3-30.6 18.9-45.3 2.9-6.8 11.1-9.8 17.3-13.8 20.9-12.3 46.6-15.3 71.3-16.3-2.1 3-5.3 6.7-2.7 10.2 2.6 4.7 11.3 4.6 13.8-.1 2.5-3.3-1.1-6.9-2.8-10zm-41.6 21.2c2.8 7.9 14.1 7.5 21.7 6.4-.5-6.6-1.7-13.1-2.3-19.7-9.6-3.2-22 4.1-19.4 13.3zm35.8 0c-4.9 2.4-4.8 9.3.1 11.6 4.4 2.6 11.2-.2 11.8-4.8 1.7-5.6-6.7-9.9-11.9-6.8z" fill="#94da09"/><path d="M798.8 1000.9c5.2-3.1 13.5 1.2 11.9 6.8-.5 4.7-7.3 7.5-11.8 4.8-4.8-2.3-4.9-9.2-.1-11.6z" fill="#080901"/><path d="M487.9 1023c3.5-6.5 10.6-12.6 19.5-11.7 3.1 11.5 6.2 23 9.4 34.5 2.6 7.3-2.2 14.2-3.7 21.2-8.8.1-16.7-4.8-21.4-11-7.1-9.6-9.4-22.4-3.8-33z" fill="#d3de9e"/><path d="M823.6 1058.7c3.3-1.8 6.6-3.5 10-5.2-.8 4.3-1 9.5-6.3 11.6-1.6-2-2.7-4.2-3.7-6.4zm-71 7.8c4.9-2.9 10.8-5 16.9-3.9 11.6 1.6 23.2 3.7 34.9 5 4.2.2 6.9 5.3 3.6 8-8.9 11-7.1 29.5-24.3 34.3-8.4-15.4-19.4-29.7-31.1-43.4z" fill="#6eb7d3"/><path d="M920.6 1058.5c9.5-2 18.9-4.2 28.3-6.4 2 15.6 5 31.1 9 46.4l-9 1.8c-1.7-5.1-1.1-11.8-6.6-15.1.4 5.4 2.4 10.5 4 15.7-3.1.8-6.2 1.5-9.3 2.3-2.6-5.1-1.3-13.2-7.7-15.9 1.2 5.6 3.2 11.1 4.6 16.7-3.2.6-6.3 1.2-9.4 1.8-2.2-5.1-1.8-11.8-7.1-15.4 0 5.6 2.6 10.8 4.5 16.1-4.4.9-8.8 1.9-13.1 2.8-2.7-8.6-4.8-17.4-8.1-25.8-.6-.3-1.9-1-2.5-1.3 1 9.6 5.4 18.6 7.5 28-4.4.8-8.7 1.8-13 2.7-2.1-4.2-1.6-10.4-6.9-12.6.7 4.6 2.4 8.9 4.1 13.2-3.6.8-7.1 1.6-10.7 2.4-2.5-4.8-2.1-11.7-7.5-14.6.6 5.3 2.7 10.2 4.9 15.1-3.8.8-7.6 1.7-11.3 2.6-2.6-4.2-2.3-11.1-8-13.1.9 4.8 3.2 9.2 5.3 13.6-4.1 1-8.2 1.9-12.2 2.9-2.2-4.4-1.4-10.8-6.7-13.4.2 4.8 2.1 9.4 3.8 14-3.8.9-7.6 1.6-11.4 2.4-3.3-8.5-4.7-17.4-8.1-25.9-3.3.7-1.2 4.6-1 6.6 1.8 6.8 4 13.6 6.2 20.3-3 .5-5.9 1.1-8.9 1.7-1.5-3.4-3-6.8-4.4-10.2-.7.2-2.2.7-3 .9 1.4 3.4 2.8 6.7 4.3 10.1-2.5.6-5 1.1-7.5 1.6-3.7-2.3-2.3-8.4-7.5-9.6.6 3.6 2.1 7.1 3.8 10.4-3.2.8-6.4 1.6-9.7 2.4-1.6-3.3-1.1-8.7-5.2-10.1-.7 3.7 1.1 7.3 1.8 10.8-2.6.5-5.2 1.1-7.7 1.7-1.7-3.2-1.6-7.9-6.1-9.1.7 3.3 1.7 6.6 2.7 9.8-3.5.7-7.1 1.5-10.6 2.3-1.2-3.7-2.5-7.3-3.7-10.9 5.9-3.3 11.2-7.5 17.7-9.9 6.1-2.3 11.8-5.6 15.6-10.4 6.4-7.9 7.2-18 12.9-26.2 15.3-4.5 31.4-6.8 46.9-10.9 2.1 4.1.3 10.8 5.5 13-.3-4.6-1.3-9.1-2.3-13.7 16.7-3.5 33.3-7.3 49.9-11 1.3 3.9 2.4 7.8 3.4 11.8h2.6c-.8-4.2-1.9-8.4-3.1-12.4zm-165.3 78.2c4.3-2.5 8.6-4.8 13.1-6.9 1.1 3.3 2.3 6.7 3.4 10-4.3 1-8.6 2.1-12.9 2.9-2.3-1.2-2.2-4.2-3.6-6zm-13.4 9.9c.4-4.9 7.1-6 11.1-8.4.7 1.8 1.5 3.5 2.2 5.3-4.4 1.1-8.8 2.1-13.3 3.1z" fill="#ae67e6"/><path d="M681.4 1105.8c20.9-11.1 41.4-22.9 62.4-33.9 10.7 13.7 21.4 27.5 29.3 42.5-38.3 20.9-76 42.7-114.6 63.3 5-21.5 9.5-43.1 14.4-64.7.5-3.9 5.3-5.2 8.5-7.2z" fill="#0086b6"/><path d="M436.9 1113.5c15.8-4.7 31.2 7.1 34.9 20 4.7 12.1 1.2 28.8-13.6 34.2-14.4 4.3-29.2-5.8-33.1-17.7-6-12.5-2.8-29.7 11.8-36.5z" fill="#00567e"/><path d="M324.2 1122.3c9.4-4.2 21.5-.6 28.1 6.3 11.8 11.5 14.5 31.6 1.5 43.1-8.6 7.6-23.3 5.4-31.2-1.9-14.4-12.3-16.4-37 1.6-47.5z" fill="#00925e"/><path d="M736.8 1145.4c3.1-1.6 4.1 2.6 1 3.1-3.2 1.6-4.3-2.6-1-3.1z" fill="#4c3a31"/><path d="M622.9 1291.2c8.1-15.8 14-32.4 19.1-49.1 21.7 12.2 43.5 24.2 65.3 36.2-7.3 15.5-18.5 29.3-29.3 43-18.5-9.8-36.8-20-55.1-30.1z" fill="#ff8f00"/></g></svg>