<svg version="1.1" id="Layer_2" xmlns="http://www.w3.org/2000/svg" x="0" y="0" viewBox="0 0 400 487" xml:space="preserve"><style>.st4{fill:#717379}.st5{fill:#808188}</style><g id="XMLID_479_"><path id="XMLID_263_" d="M350.3 427.6c16-7.6 23.1-22.1 15.8-32.4L259.9 244.3 202 271.8l106.2 150.9c7.2 10.3 26.1 12.5 42.1 4.9z" fill="#ffc800"/><path id="XMLID_446_" d="M317.8 216.9L401.6 336c-7.2-10.3-26.1-12.5-42.1-4.9s-23.1 22.1-15.8 32.4l-83.8-119.1 57.9-27.5z" fill="#ed000a"/><path id="XMLID_266_" d="M234.4 482.5c16-7.6 23.1-22.1 15.8-32.4L144.1 299.2l-57.9 27.4 106.2 150.9c7.2 10.4 26.1 12.6 42 5z" fill="#6e0291"/><path id="XMLID_392_" d="M202 271.8l60.4 85.9c-7.2-10.3-26.1-12.5-42.1-4.9s-23.1 22.1-15.8 32.4l-60.4-85.9 57.9-27.5z" fill="#009ade"/><g id="XMLID_661_"><path id="XMLID_667_" class="st4" d="M42.5 264.6c.8-4.8 3.2-9.7 7-14.1 11.4-13.1 36.3-43.2 43.7-64.2 9.7-27.5-41.3-61.8-74.4-105.9-33.2-44.1-8-80.4-8-80.4l16.9 24C15.1 29.9 11 43.3 18.4 53.8c7.4 10.5 23.5 14.2 36.1 8.3l103.9 147.6-115.9 54.9z"/><path id="XMLID_668_" class="st5" d="M63.7 32.3c-7.4-10.5-23.5-14.2-36-8.3L10.8 0s51 .3 80.9 45.9c29.9 45.6 40.6 98.9 74.5 105.8 25.8 5.2 70 2.6 89.6 1.1 6.6-.5 12.9.2 18.4 2l-115.8 54.9L54.5 62.1c12.5-6 16.6-19.3 9.2-29.8z"/></g><path id="XMLID_691_" class="st5" d="M197.3 265.1l-28.8-40.9 115.8-54.9 28.9 41z"/><path id="XMLID_670_" class="st4" d="M81.5 320l-28.8-41 115.8-54.8 28.8 40.9z"/></g></svg>