<?xml version="1.0" encoding="utf-8"?>
<!-- Generator: Adobe Illustrator 25.0.0, SVG Export Plug-In . SVG Version: 6.00 Build 0)  -->
<svg version="1.1" id="Слой_1" xmlns="http://www.w3.org/2000/svg" xmlns:xlink="http://www.w3.org/1999/xlink" x="0px" y="0px"
	 viewBox="0 0 130 100" style="enable-background:new 0 0 130 100;" xml:space="preserve">
<g id="g84" transform="matrix(-2.2758212,0.08914476,0.08914476,2.2758212,1123.5905,-297.27804)">
	<path id="path86" d="M467.12,116.44c0.21,0.93-0.19,1.64-0.34,2.41c-0.49,2.38-1.69,4.45-2.26,6.79c-0.07,0.31-0.4,0.64-0.06,0.9
		c0.9,0.69,1.43,1.77,2.88,1.75c4.57-0.04,9.14,0.34,13.7,0.64c3.52,0.23,7.05,0.56,10.55-0.22c0.56-0.13,1.16-0.22,1.89,0.26
		c-1.93,1.95-3.76,3.77-5.97,5.06c-0.99,0.58-1.04,0.79-0.41,1.79c0.21,0.33,0.48,0.61,0.74,0.89c1.37,1.46,2.74,2.91,4.11,4.36
		c0.75,0.8,1.43,1.66,2.08,2.92c-3.23-0.94-6.35-1.03-9.38-1.73c-3.89-0.89-7.6-2.47-11.31-4.03c-2.39-1-4.87-1.74-7.33-2.56
		c-0.36-0.12-0.83-0.42-1.14,0.18c-0.27,0.53-0.59,1.07-0.25,1.7c0.34,0.64,0.78,1.22,1.09,1.88c0.85,1.78,1.82,3.59,1.58,5.68
		c-0.18,1.53-0.01,2.95,0.34,4.4c0.19,0.76,0.43,1.52,0.04,2.56c-2.04-2.03-3.97-3.95-6.01-5.98c1.31-1.47,2.89-1.64,4.46-1.73
		c-0.03-0.37-0.17-0.56-0.34-0.56c-1.47-0.01-2.92,0.03-4.07,1.3c-0.51,0.56-1.37,0.31-1.92-0.51c-0.53-0.79,0.15-1.1,0.56-1.4
		c0.6-0.44,1.27-0.79,1.93-1.12c0.66-0.33,1.36-0.6,2.23-0.98c-0.68-0.16-1.06-0.01-1.47,0.14c-1.28,0.46-2.42,1.22-3.61,1.89
		c-0.38,0.21-0.79,0.56-1.15,0.07c-0.61-0.81-1.73-0.98-2.13-2.15c1.62-1.9,4.18-1.76,6.17-3.18c-0.29-0.1-0.41-0.19-0.51-0.17
		c-2.1,0.41-4.15,1.06-6.04,2.12c-0.7,0.39-1.25,0.4-1.55-0.22c-0.36-0.75,0.42-0.95,0.85-1.22c1.62-1.06,3.38-1.81,5.12-2.6
		c0.31-0.14,0.77-0.1,0.6-0.84c-1.11,0-2.07,0.63-3.06,1.02c-1.43,0.57-2.88,1.13-4.09,2.18c-0.64,0.55-1.01,0.16-1.37-0.33
		c-0.52-0.72,0.15-0.94,0.49-1.2c0.81-0.61,1.74-0.94,2.66-1.3c1.33-0.52,2.71-0.92,3.94-1.85c-0.34-0.28-0.59-0.18-0.8-0.09
		c-2.31,1.01-4.85,1.29-7.01,2.76c-0.41,0.28-0.68,0.09-0.89-0.3c-0.24-0.45-0.07-0.76,0.33-0.95c0.56-0.26,1.11-0.54,1.67-0.8
		c1.5-0.68,2.98-1.4,4.54-1.95c-1.04-0.5-1.98-0.19-2.84,0.29c-1.48,0.82-3.13,1.06-4.62,1.82c-0.43,0.22-0.69,0.02-0.92-0.43
		c1.41-1.41,3.47-1.48,4.88-2.91c-1.66,0.34-3.26,0.91-4.75,1.77c-1.35,0.78-1.33,0.82-2.37-0.73c2.95-1.84,6.23-2.85,9.24-4.51
		c-0.69-0.29-1.25,0-1.8,0.25c-2.41,1.1-4.82,2.22-7.22,3.34c-0.86,0.4-1.68,0.77-2.5-0.49c2.93-1.84,5.69-3.82,8.65-5.35
		c3.58-1.86,7.09-3.83,10.51-6.02C464.72,118.33,465.69,117.06,467.12,116.44 M467.08,138.61c0.39-0.39,0.66-0.38,0.87-0.28
		c2.93,1.37,6.01,2.27,8.98,3.54c2.78,1.19,5.72,1.94,8.68,2.38c2.55,0.37,5.06,0.88,7.55,1.54c1.6,0.42,3.21,0.83,4.79,1.35
		c0.68,0.22,1.14-0.02,1.37-0.58c0.32-0.77-0.28-1.07-0.81-1.28c-1.23-0.49-2.23-1.34-3.14-2.37c-1.11-1.26-2.16-2.59-3.42-3.69
		c-0.84-0.73-1.31-1.77-1.9-2.72c-0.77-1.23-0.84-1.31,0.19-2.31c2.29-2.21,4.66-4.31,7.27-6.04c0.26-0.17,0.56-0.28,0.8-0.48
		c0.37-0.31,0.52-0.75,0.36-1.25c-0.17-0.53-0.47-0.57-0.99-0.54c-4.23,0.29-8.45,0.12-12.65-0.67c-1.03-0.2-2.07,0.14-3.1,0.1
		c-3.35-0.12-6.7-0.1-10.06-0.01c-1.34,0.03-2.68-0.11-4.02-0.18c-0.74-0.04-0.99-0.51-0.78-1.22c0.27-0.96,0.55-1.94,0.96-2.83
		c0.98-2.1,1.59-4.37,2.48-6.51c0.15-0.36,0.29-0.75,0.35-1.15c0.13-0.91-0.34-1.4-1.18-1.31c-0.58,0.07-0.99,0.47-1.44,0.81
		c-1.89,1.45-3.77,2.91-5.67,4.34c-3.32,2.49-6.86,4.5-10.53,6.3c-2.55,1.24-5.01,2.74-7.31,4.49c-0.74,0.56-1.56,0.62-2.36,0.81
		c-0.7,0.17-0.77,0.49-0.53,1.12c0.46,1.19,1.1,2.03,2.24,2.69c2.2,1.26,4.42,2.6,6.01,4.86c1.79,2.54,4.05,4.49,6.4,6.32
		c2.76,2.14,5.18,4.72,7.75,7.1c1.46,1.36,2.88,2.71,3.98,4.44c0.25,0.4,0.53,0.87,1.01,0.61c0.36-0.19,0.76-0.48,0.78-1.03
		c0.02-0.54,0.08-1.09,0.02-1.62c-0.38-3.29-0.77-6.58-1.19-9.86C468.61,141.73,467.9,140.16,467.08,138.61"/>
</g>
<g id="g1120" transform="matrix(-2.2758212,0.08914476,0.08914476,2.2758212,1188.3645,-321.95392)">
	<path id="path1122" d="M491.15,150.43c-0.45-0.2-0.69-0.01-0.87,0.41C490.64,151.09,490.88,150.84,491.15,150.43"/>
</g>
</svg>
