<?xml version="1.0" encoding="utf-8"?>
<!-- Generator: Adobe Illustrator 25.0.0, SVG Export Plug-In . SVG Version: 6.00 Build 0)  -->
<svg version="1.1" id="Слой_1" xmlns="http://www.w3.org/2000/svg" xmlns:xlink="http://www.w3.org/1999/xlink" x="0px" y="0px"
	 viewBox="0 0 100 100" style="enable-background:new 0 0 100 100;" xml:space="preserve">
<style type="text/css">
	.st0{fill:#333333;}
</style>
<g>
	<g>
		<path class="st0" d="M85.66,53c0.34,0.23-0.52,1.88-2.4,4.27c-1.89,2.38-4.83,5.47-8.55,8.47c-3.71,3.01-7.46,5.33-10.32,6.77
			c-2.86,1.45-4.81,2.06-5.03,1.74c-0.47-0.69,6.04-4.77,13.19-10.59C79.75,57.9,84.92,52.54,85.66,53z"/>
		<path class="st0" d="M15.54,56.83c0.03,0.44-0.01,0.8-0.28,0.99c-0.26,0.17-0.71,0.11-1.19-0.24c-0.48-0.34-0.96-0.98-1.17-1.77
			c-0.2-0.78-0.11-1.52,0.13-2.01c0.24-0.5,0.61-0.75,0.93-0.7c0.64,0.13,0.96,1.14,1.26,2.23C15.38,55.89,15.5,56.4,15.54,56.83z"
			/>
		<path class="st0" d="M37.49,35.93c0.18,0.09,1.02,0.44,0.91,0.73c-0.14,0.39-1.53,0.2-1.82,0.18c-1.38-0.06-2.76-0.16-4.14-0.16
			c-3.04,0.01-6.08,0.33-8.93,1.3c-2.61,0.88-4.98,2.27-6.65,4.27c-1.55,1.85-2.21,4.03-2.55,6.27c-0.05,0.33-0.09,2.19-0.63,2.16
			c-0.62-0.03-0.9-1.72-0.98-2.12c-0.43-2.14-0.1-4.43,0.9-6.41c2.27-4.48,7.62-7.06,12.97-7.66c2.65-0.3,5.4-0.15,7.98,0.46
			C35.55,35.2,36.57,35.48,37.49,35.93z"/>
	</g>
	<path class="st0" d="M99.02,43.68c3.41,8.71-2.64,16.1-9.25,22.01c-6.74,6.02-13.86,12.02-21.83,16.77
		c-6.71,4-16.47,8.69-24.59,5.11c-7.75-3.42-9.02-12.11-2.72-17.26c-8.39,2.34-18.43,2.56-26.7-0.27C3.38,66.43-0.15,57.58,0,48.25
		c0.14-8.96,4.02-16.92,13.95-20.37c8.65-3.01,18.9-2.88,27.64-0.18c-5.87-4.56-6.8-12-0.17-16.29c6.7-4.33,15.05-2.59,21.79,0.73
		c7.69,3.77,14.14,9.3,20.4,14.66C89.31,31.66,96.39,36.86,99.02,43.68z M91.14,55.7c5.53-7.57,0.19-14.06-5.84-19.7
		c-6.02-5.63-12.23-11.36-19.07-16.23c-6.2-4.4-16.17-10.2-23.67-4.59c-2.8,2.09-3.13,4.85-1.88,7.77c0.33,0.77,5.09,6.46,5.09,6.83
		c0,0.01-0.01,0.01-0.01,0.01c-1.96,0.7-4.6,0.06-6.72-0.07c-3.53-0.21-7.06-0.27-10.58,0.03c-6.78,0.57-15.13,2.31-19.15,7.65
		c-3.4,4.51-3.48,11.14-2.65,16.32c1.07,6.62,5.36,10.69,12.49,12.7c6.38,1.8,13.24,1.96,19.88,1.59c0.97-0.05,6.31-0.93,6.72-0.05
		c0.19,0.42-1.82,1.81-2.08,2.04c-3.96,3.77-5.93,9.67-0.45,13.15c5.01,3.19,11.51,0.78,16.27-1.64c6.4-3.25,11.99-7.7,17.27-12.19
		C81.76,65.09,87.33,60.81,91.14,55.7z"/>
</g>
</svg>
