<?xml version="1.0" encoding="utf-8"?>
<!-- Generator: Adobe Illustrator 25.0.0, SVG Export Plug-In . SVG Version: 6.00 Build 0)  -->
<svg version="1.1" id="Слой_1" xmlns="http://www.w3.org/2000/svg" xmlns:xlink="http://www.w3.org/1999/xlink" x="0px" y="0px"
	 viewBox="0 0 100 55" style="enable-background:new 0 0 100 55;" xml:space="preserve">
<g id="g5606" transform="matrix(1.0542298,-0.04129458,0.04129458,1.0542298,-84.354958,25.237175)">
	<g id="g28" transform="matrix(-2.1587523,0,0,2.1587523,640.67853,-178.06691)">
		<path id="path30" d="M256.23,84.41c-0.39-0.29-0.65-0.65-1.04-0.87c-0.37-0.22-0.65-0.6-1-0.87c-0.36-0.27-0.66-0.59-0.98-0.89
			c-0.31-0.29-0.7-0.5-0.98-0.88c0.1-0.02,0.14-0.05,0.18-0.04c0.92,0.05,1.83,0.07,2.75,0c0.18-0.01,0.37,0.04,0.5,0.22
			c0.29,0.38,0.53,1.38,0.43,1.96c-0.76-0.62-1.34-1.4-2.23-1.8c-0.02,0.08,0.01,0.11,0.04,0.14c0.59,0.51,1.16,1.03,1.65,1.63
			c0.12,0.15,0.26,0.28,0.44,0.36c0.13,0.06,0.2,0.15,0.22,0.28C256.26,83.89,256.28,84.12,256.23,84.41 M250.49,80.9
			c0.35,0.02,0.67-0.09,0.99-0.07c0.11,0.01,0.21,0,0.31,0.09c0.29,0.26,0.61,0.51,0.9,0.77c0.38,0.33,0.72,0.72,1.13,1.01
			c0.89,0.61,1.61,1.41,2.37,2.16c0.04,0.04,0.06,0.11,0.06,0.17c0.02,0.24,0.04,0.49,0.06,0.81c-0.22-0.19-0.39-0.3-0.52-0.45
			c-0.5-0.56-1.1-1-1.72-1.41c-0.33-0.22-0.67-0.43-0.97-0.68c-0.36-0.3-0.69-0.66-1.09-0.9C251.39,82.01,251.07,81.35,250.49,80.9
			 M217.17,83.15L217.17,83.15c0.29-0.28,0.66-0.43,0.98-0.66c0.15-0.11,0.24-0.01,0.33,0.08c0.45,0.45,0.96,0.83,1.47,1.21
			c0.11,0.09,0.2,0.22,0.46,0.25c-0.59-0.69-1.39-1.05-1.84-1.77c0.25-0.2,0.55-0.32,0.82-0.49c0.26-0.16,0.39-0.13,0.66,0.05
			c0.78,0.54,1.45,1.19,2.12,1.83c0.9,0.85,1.82,1.67,2.79,2.46c1.03,0.84,2.08,1.66,3.05,2.59c0.21,0.2,0.43,0.39,0.65,0.58
			c0.08-0.11,0.02-0.14-0.02-0.19c-0.48-0.53-1-1.02-1.54-1.49c-0.82-0.72-1.75-1.32-2.54-2.08c-0.37-0.35-0.76-0.67-1.15-1
			c-0.44-0.36-0.91-0.7-1.3-1.11c-0.5-0.54-1.04-1.02-1.61-1.47c-0.17-0.13-0.31-0.28-0.51-0.47c0.35-0.14,0.66-0.23,0.94-0.37
			c0.25-0.12,0.43-0.08,0.65,0.09c0.33,0.26,0.68,0.49,1.02,0.73c-0.21-0.46-0.7-0.66-0.96-1.12c0.89-0.38,1.75-0.74,2.6-1.11
			c0.18-0.08,0.29,0,0.41,0.12c0.41,0.4,0.82,0.79,1.28,1.14c0.22,0.18,0.48,0.32,0.68,0.52c1.2,1.17,2.38,2.37,3.53,3.6
			c0.06,0.07,0.11,0.17,0.26,0.04c-0.13-0.22-0.31-0.41-0.51-0.6c-0.52-0.49-1.04-0.98-1.51-1.51c-0.52-0.59-1.15-1.08-1.68-1.66
			c-0.05-0.06-0.12-0.11-0.19-0.15c-0.72-0.42-1.16-1.13-1.81-1.68c0.22-0.09,0.4-0.13,0.54-0.22c0.25-0.16,0.43-0.08,0.64,0.09
			c0.35,0.28,0.65,0.61,0.95,0.93c1.12,1.19,2.24,2.37,3.38,3.55c0.15,0.16,0.24,0.39,0.5,0.54c-0.01-0.23-0.11-0.35-0.21-0.47
			c-0.22-0.26-0.44-0.53-0.68-0.77c-0.38-0.38-0.76-0.76-1.12-1.16c-0.35-0.39-0.69-0.78-1.08-1.14c-0.54-0.49-1.01-1.05-1.51-1.57
			c-0.07-0.07-0.12-0.15-0.14-0.25c0.47-0.29,0.47-0.29,0.81,0.09c0.11,0.12,0.22,0.23,0.33,0.34c0.69,0.68,1.36,1.37,1.98,2.11
			c0.66,0.79,1.49,1.43,2.15,2.23c-0.17-0.56-0.59-0.92-1-1.29c-0.42-0.39-0.77-0.84-1.12-1.28c-0.36-0.46-0.82-0.83-1.18-1.31
			c-0.34-0.44-0.83-0.75-1.16-1.25c1.09-0.47,2.02-1.12,3.02-1.64c0.9-0.47,1.8-0.94,2.8-1.19c0.78-0.2,0.95-0.02,0.83,0.77
			c-0.1,0.63-0.46,1.14-0.74,1.68c-0.29,0.56-0.68,1.07-0.96,1.64c-0.13,0.26-0.24,0.52-0.25,0.81c-0.01,0.36,0.08,0.49,0.45,0.52
			c0.53,0.03,0.93,0.25,1.32,0.61c0.38,0.35,0.81,0.66,1.14,1.07c0.66,0.81,1.38,1.58,2.18,2.26c0.3,0.26,0.62,0.49,0.94,0.74
			c0.03-0.03,0.06-0.06,0.08-0.09c-1.56-1.31-2.87-2.86-4.33-4.4c0.67,0.03,1.25-0.08,1.73,0.36c0.29,0.27,0.61,0.5,0.9,0.78
			c1.14,1.1,2.24,2.25,3.33,3.4c0.16,0.17,0.3,0.38,0.53,0.5c0.06-0.13,0.01-0.17-0.05-0.24c-0.47-0.51-0.93-1.03-1.42-1.52
			c-0.86-0.87-1.74-1.71-2.61-2.57c-0.2-0.2-0.46-0.36-0.53-0.67c0.26-0.07,0.5-0.03,0.74-0.03c0.06,0,0.12,0,0.17,0.06
			c0.43,0.5,0.96,0.86,1.48,1.25c0.96,0.71,1.82,1.54,2.68,2.36c0.51,0.48,1.03,0.94,1.39,1.56c0.03,0.05,0.07,0.1,0.15,0.08
			c0.04-0.14-0.03-0.24-0.1-0.35c-0.2-0.31-0.43-0.59-0.69-0.85c-1.16-1.14-2.4-2.2-3.67-3.23c-0.29-0.24-0.64-0.45-0.8-0.9
			c0.28-0.02,0.52-0.03,0.75-0.05c0.16-0.02,0.27,0.06,0.38,0.16c0.74,0.66,1.53,1.28,2.23,1.99c1.03,1.04,2.09,2.03,3.15,3.04
			c0.12,0.12,0.25,0.25,0.31,0.41c0.04,0.12,0.07,0.28,0.25,0.16c0.14-0.09,0.11-0.21,0.02-0.33c-0.05-0.06-0.09-0.13-0.15-0.18
			c-0.56-0.48-1-1.1-1.62-1.52c-0.09-0.06-0.17-0.14-0.24-0.22c-0.53-0.54-1.06-1.09-1.61-1.61c-0.38-0.36-0.8-0.67-1.19-1.01
			c-0.29-0.25-0.57-0.5-0.75-0.85c0.13-0.07,0.25-0.1,0.38-0.1c1.25-0.02,2.49-0.22,3.74-0.27c0.06,0,0.14-0.03,0.18,0.03
			c0.21,0.29,0.57,0.37,0.81,0.64c0.39,0.44,0.8,0.87,1.25,1.24c0.67,0.56,1.34,1.12,2,1.68c1.05,0.89,2.14,1.74,3.14,2.7
			c0.06,0.06,0.11,0.18,0.28,0.17c-0.36-0.57-0.82-0.98-1.28-1.38c-0.62-0.54-1.29-1.03-1.89-1.59c-0.38-0.35-0.76-0.72-1.19-1.02
			c-0.57-0.39-1.07-0.84-1.54-1.34c-0.32-0.34-0.64-0.69-1-1.07c0.44-0.12,0.78-0.19,1.15,0.12c1.42,1.17,2.76,2.43,4.11,3.67
			c1.03,0.94,2.1,1.84,3.08,2.84c0.12,0.12,0.27,0.44,0.45,0.26c0.15-0.15-0.15-0.34-0.28-0.47c-1.08-1.07-2.22-2.07-3.38-3.06
			c-0.47-0.4-0.96-0.77-1.4-1.19c-0.83-0.77-1.63-1.58-2.58-2.31c0.61-0.03,1.16-0.17,1.64,0.34c0.53,0.56,1.14,1.05,1.69,1.59
			c0.59,0.58,1.17,1.15,1.77,1.72c0.76,0.72,1.64,1.31,2.37,2.06c0.47,0.48,1.05,0.81,1.57,1.23c0.08,0.06,0.16,0.16,0.3,0.09
			c-0.05-0.13-0.16-0.19-0.24-0.28c-0.37-0.39-0.88-0.63-1.23-1.03c-0.44-0.5-0.95-0.94-1.49-1.33c-0.83-0.6-1.56-1.29-2.3-1.99
			c-0.84-0.79-1.58-1.69-2.53-2.39c0.46-0.09,0.9-0.05,1.33-0.05c0.93-0.01,1.87-0.04,2.8-0.05c0.15,0,0.31-0.03,0.45,0.11
			c0.58,0.57,1.21,1.07,1.82,1.61c0.61,0.54,1.23,1.05,1.9,1.51c0.89,0.62,1.7,1.32,2.38,2.18c0.07,0.09,0.16,0.15,0.14,0.28
			c-0.06,0.42-0.01,0.86-0.11,1.28c-0.12,0.5-0.45,0.82-0.95,0.85c-0.46,0.02-0.92,0.1-1.37,0.08c-0.66-0.03-1.33,0.01-1.99-0.08
			c-1.62-0.23-3.25-0.14-4.88-0.28c-0.14-0.01-0.28-0.02-0.42-0.03c-0.79-0.06-1.58-0.15-2.37-0.16c-0.36,0-0.72-0.03-1.06-0.1
			c-0.64-0.14-1.3-0.17-1.94-0.3c-0.22-0.05-0.43,0.04-0.66,0c-0.48-0.09-0.96-0.14-1.45-0.2c-0.83-0.1-1.68-0.13-2.5-0.32
			c-1.58-0.35-3.2-0.45-4.79-0.7c-0.84-0.13-1.43,0.27-1.44,1.21c-0.01,0.63,0.12,1.24,0.37,1.8c0.23,0.52,0.4,1.07,0.63,1.59
			c0.27,0.64,0.08,1.38-0.48,1.74c-0.73,0.47-1.52,0.59-2.29,0.11c-0.66-0.41-1.31-0.84-1.92-1.32c-0.68-0.54-1.43-0.95-2.19-1.33
			c-0.72-0.36-1.4-0.75-1.98-1.3c-0.55-0.52-1.09-1.04-1.74-1.46c-0.92-0.59-1.84-1.18-2.78-1.73c-0.58-0.34-1.11-0.73-1.64-1.15
			c-0.2-0.16-0.39-0.38-0.25-0.66C216.35,83.64,216.65,83.27,217.17,83.15 M231.61,86.91c0.86,0.04,1.7,0.18,2.55,0.3
			c1.03,0.16,2.07,0.33,3.1,0.47c0.68,0.09,1.36,0.12,2.04,0.2c1.31,0.14,2.62,0.24,3.91,0.49c0.14,0.03,0.28,0.05,0.42,0.05
			c0.78,0,1.55,0.07,2.32,0.14c1.34,0.12,2.69,0.13,4.04,0.23c0.67,0.05,1.33,0.11,1.99,0.19c0.79,0.1,1.59,0.02,2.38,0
			c0.22-0.01,0.44-0.03,0.66-0.05c0.92-0.06,1.5-0.62,1.54-1.54c0.04-0.79,0.06-1.58,0-2.37c-0.07-0.9-0.06-1.8-0.12-2.7
			c-0.03-0.4-0.15-0.78-0.28-1.15c-0.2-0.57-0.52-0.74-1.11-0.61c-0.41,0.09-0.83,0.08-1.23,0.06c-1.01-0.05-2.03-0.08-3.04-0.05
			c-2.33,0.07-4.67-0.06-7,0.11c-0.95,0.07-1.9,0.03-2.85,0.12c-1.55,0.15-3.1,0.28-4.65,0.34c-1.25,0.05-2.5,0.07-3.75-0.11
			c-0.08-0.01-0.16-0.02-0.24-0.04c-0.49-0.1-0.66-0.36-0.41-0.8c0.22-0.4,0.44-0.8,0.67-1.2c0.57-0.96,1.2-1.91,1.17-3.11
			c-0.01-0.37-0.03-0.41-0.39-0.44c-0.47-0.04-0.92,0.08-1.34,0.26c-0.86,0.38-1.72,0.75-2.53,1.21c-0.66,0.37-1.32,0.76-1.99,1.12
			c-0.73,0.39-1.51,0.66-2.27,0.97c-1.13,0.46-2.26,0.92-3.37,1.43c-0.59,0.27-1.2,0.51-1.81,0.74c-0.43,0.17-0.85,0.36-1.23,0.61
			c-0.64,0.41-1.3,0.79-1.95,1.18c-0.34,0.2-0.62,0.49-0.83,0.84c-0.33,0.56-0.27,0.94,0.24,1.32c0.48,0.36,0.97,0.72,1.49,1.02
			c0.76,0.43,1.46,0.95,2.21,1.4c0.96,0.57,1.8,1.3,2.62,2.05c0.48,0.43,1.01,0.77,1.59,1.03c0.65,0.3,1.32,0.59,1.87,1.02
			c0.73,0.57,1.56,0.98,2.28,1.55c1.09,0.86,2.53,0.35,3.17-0.58c0.35-0.5,0.37-1.04,0.18-1.59c-0.16-0.48-0.32-0.96-0.55-1.42
			c-0.27-0.55-0.41-1.13-0.41-1.74c0-0.14,0-0.29,0.03-0.43c0.08-0.42,0.22-0.53,0.64-0.54C231.45,86.91,231.53,86.91,231.61,86.91"
			/>
	</g>
	<g id="g156" transform="matrix(-2.1587523,0,0,2.1587523,673.7556,-111.68942)">
		<path id="path158" d="M268.51,59.77c-1.52,0.14-2.91-0.05-4.31-0.12c-1.73-0.09-3.43-0.43-5.14-0.66
			c-0.44-0.06-0.89-0.07-1.32-0.15c-1.4-0.25-2.82-0.4-4.22-0.72c-0.35-0.08-0.72-0.13-1.08-0.18c-0.99-0.13-1.96-0.41-2.96-0.45
			c-0.26-0.01-0.51,0.01-0.76,0.04c-0.15,0.02-0.32,0.06-0.41,0.21c-0.03,0.06-0.04,0.13,0,0.18c0.02,0.03,0.09,0.05,0.13,0.04
			c0.86-0.22,1.7,0,2.55,0.13c1.1,0.16,2.19,0.37,3.28,0.56c0.97,0.17,1.93,0.36,2.9,0.5c1.22,0.18,2.45,0.32,3.68,0.47
			c0.85,0.11,1.69,0.27,2.55,0.32c0.92,0.06,1.84,0.07,2.75,0.15c1.13,0.1,2.25-0.07,3.38,0c0.67,0.04,1.32-0.03,1.99-0.14
			c0.39-0.06,0.78-0.1,1.17-0.16c1.29-0.2,2.03-1.03,2.33-2.25c0.31-1.31,0.03-2.55-0.26-3.8c-0.09-0.4-0.14-0.81-0.21-1.22
			c-0.03-0.14-0.02-0.32-0.24-0.26c-0.18,0.04-0.19,0.21-0.15,0.35c0.13,0.36,0.16,0.74,0.25,1.11c0.19,0.8,0.41,1.6,0.44,2.43
			c0.02,0.68-0.05,1.36-0.33,2c-0.4,0.92-1.17,1.28-2.11,1.37c-0.52,0.05-1.04,0.12-1.55,0.2c-0.57,0.09-1.14,0.05-1.71,0.05
			C268.89,59.76,268.64,59.77,268.51,59.77"/>
	</g>
	<g id="g168" transform="matrix(-2.1587523,0,0,2.1587523,673.53218,-120.4088)">
		<path id="path170" d="M268.42,63c-0.95,0.07-1.9-0.03-2.85-0.06c-0.9-0.02-1.81-0.07-2.71-0.11c-0.47-0.02-0.95-0.03-1.42-0.11
			c-0.59-0.1-1.2-0.05-1.8-0.15c-0.73-0.12-1.49-0.15-2.21-0.32c-0.62-0.15-1.23-0.29-1.86-0.36c-1.07-0.13-2.13-0.35-3.2-0.45
			c-0.61-0.06-1.21-0.25-1.83-0.31c-0.68-0.06-1.34-0.28-2.02-0.27c-0.13,0-0.26,0-0.38,0.02c-0.14,0.03-0.23,0.12-0.2,0.27
			c0.03,0.13,0.14,0.09,0.23,0.09c1.04,0.01,2.05,0.21,3.06,0.39c1.54,0.28,3.1,0.44,4.65,0.67c0.61,0.09,1.22,0.15,1.81,0.35
			c0.26,0.09,0.53,0.07,0.79,0.12c1.09,0.22,2.2,0.18,3.29,0.33c0.66,0.09,1.33,0.02,2,0.08c1.28,0.11,2.56,0.01,3.84,0.15
			c0.31,0.03,0.63,0.03,0.95-0.04c0.14-0.03,0.29-0.04,0.43-0.03c0.8,0.09,1.58-0.04,2.37-0.11c0.96-0.08,1.51-0.67,1.86-1.54
			c0.49-1.25,0.36-2.51,0.22-3.79c-0.1-0.87-0.4-1.69-0.45-2.56c-0.01-0.08-0.02-0.17-0.12-0.18c-0.09-0.01-0.14,0.06-0.18,0.13
			c-0.05,0.09-0.01,0.18,0,0.28c0.04,0.36,0.11,0.72,0.23,1.07c0.14,0.39,0.16,0.81,0.22,1.21c0.13,0.9,0.23,1.8,0.13,2.7
			c-0.07,0.62-0.25,1.23-0.63,1.73c-0.35,0.46-0.87,0.66-1.46,0.69C270.26,62.95,269.34,62.97,268.42,63"/>
	</g>
	<g id="g204" transform="matrix(-2.1587523,0,0,2.1587523,914.17933,-71.524722)">
		<path id="path206" d="M357.75,44.86c-0.05,0.01-0.09,0-0.11,0.02c-0.76,0.5-1.49,0.24-2.22-0.07c-1.32-0.55-2.52-1.33-3.72-2.1
			c-0.43-0.27-0.89-0.5-1.29-0.8c-0.52-0.39-1.02-0.81-1.56-1.16c-1.07-0.69-2.01-1.54-3-2.33c-0.79-0.63-1.6-1.24-2.49-1.72
			c-0.4-0.22-0.46-0.23-0.72,0.07c0.91,0.3,1.63,0.89,2.38,1.45c0.52,0.39,1,0.83,1.49,1.25c0.81,0.71,1.72,1.3,2.59,1.93
			c1.31,0.95,2.68,1.81,4.06,2.65c0.76,0.46,1.53,0.89,2.37,1.2c0.33,0.12,0.67,0.2,1.01,0.25c0.44,0.06,0.79-0.19,1.16-0.36
			C357.77,45.11,357.82,44.99,357.75,44.86"/>
	</g>
	<g id="g212" transform="matrix(-2.1587523,0,0,2.1587523,921.79492,-57.126082)">
		<path id="path214" d="M360.58,39.51c-0.16-0.07-0.28,0.01-0.4,0.04c-0.55,0.1-1.03-0.08-1.5-0.33c-0.84-0.44-1.61-1.02-2.45-1.45
			c-0.82-0.42-1.56-0.97-2.33-1.48c-0.42-0.28-0.85-0.57-1.28-0.82c-0.91-0.51-1.64-1.23-2.41-1.93c-0.64-0.59-1.36-1.1-2.04-1.64
			c-0.31-0.25-0.62-0.49-0.93-0.74c-0.17-0.14-0.37-0.24-0.56-0.35c-0.09-0.05-0.16-0.11-0.23,0.01c-0.05,0.09-0.05,0.18,0.05,0.24
			c0.5,0.29,0.9,0.7,1.35,1.05c1.18,0.91,2.3,1.9,3.43,2.86c0.62,0.53,1.33,0.92,2,1.37c1.23,0.82,2.52,1.53,3.77,2.31
			c0.62,0.39,1.26,0.71,1.9,1.07c0.46,0.26,0.95,0.21,1.43,0.09C360.52,39.78,360.58,39.67,360.58,39.51"/>
	</g>
	<g id="g1008" transform="matrix(-2.1587523,0,0,2.1587523,802.84855,-210.72842)">
		<path id="path1010" d="M316.42,96.53c1.87,1.85,3.76,3.68,5.79,5.37c-1.82-1.91-3.83-3.61-5.67-5.5
			C316.51,96.44,316.47,96.48,316.42,96.53"/>
	</g>
	<g id="g1012" transform="matrix(-2.1587523,0,0,2.1587523,959.72276,-123.75227)">
		<path id="path1014" d="M374.65,64.24c0.02-0.11-0.05-0.18-0.13-0.24c-0.47-0.37-0.92-0.77-1.4-1.13
			c-0.43-0.32-0.84-0.67-1.23-1.04c-0.88-0.82-1.86-1.53-2.76-2.32c-0.23-0.2-0.54-0.29-0.81-0.44c0.5,0.4,1,0.8,1.5,1.21
			c1.45,1.18,2.83,2.44,4.31,3.59c0.17,0.13,0.31,0.32,0.54,0.36L374.65,64.24z"/>
	</g>
	<g id="g1016" transform="matrix(-2.1587523,0,0,2.1587523,1006.3045,-145.59283)">
		<path id="path1018" d="M391.95,72.35c-0.31-0.43-0.74-0.73-1.14-1.06c-0.31-0.26-0.64-0.5-0.94-0.79
			c-0.88-0.83-1.84-1.56-2.8-2.29c-0.16-0.12-0.33-0.17-0.53-0.11c0,0,0,0,0,0c0.61,0.28,1.08,0.75,1.59,1.16
			c1.21,0.96,2.38,1.97,3.57,2.96c0.07,0.06,0.14,0.13,0.25,0.11L391.95,72.35z"/>
	</g>
	<g id="g1020" transform="matrix(-2.1587523,0,0,2.1587523,991.41259,-189.3624)">
		<path id="path1022" d="M386.42,88.6c0.14-0.04,0.2,0.07,0.28,0.14c1.11,0.99,2.19,2.02,3.25,3.07c0.19,0.19,0.41,0.36,0.46,0.64
			c0.02,0.1,0.08,0.13,0.17,0.1c0.09-0.03,0.1-0.11,0.09-0.2c-0.03-0.15-0.13-0.26-0.23-0.35c-0.26-0.26-0.52-0.51-0.8-0.75
			c-0.64-0.56-1.16-1.25-1.89-1.73c-0.33-0.22-0.57-0.59-0.9-0.84C386.71,88.57,386.58,88.53,386.42,88.6L386.42,88.6z"/>
	</g>
	<g id="g1024" transform="matrix(-2.1587523,0,0,2.1587523,991.41798,-189.35592)">
		<path id="path1026" d="M386.42,88.6c0.03-0.11,0.09-0.24,0-0.32c-0.37-0.3-0.61-0.74-1.05-0.94c-0.01,0-0.03,0.01-0.04,0.01
			c0.27,0.28,0.54,0.56,0.8,0.84C386.24,88.31,386.42,88.39,386.42,88.6C386.42,88.6,386.42,88.6,386.42,88.6"/>
	</g>
	<g id="g1028" transform="matrix(-2.1587523,0,0,2.1587523,1006.1908,-145.71498)">
		<path id="path1030" d="M391.9,72.4c0.03,0.22,0.23,0.28,0.37,0.4c0.28,0.23,0.57,0.44,0.89,0.69c0.01-0.18-0.11-0.23-0.17-0.28
			c-0.35-0.28-0.68-0.61-1.11-0.79L391.9,72.4"/>
	</g>
	<g id="g1032" transform="matrix(-2.1587523,0,0,2.1587523,986.33302,-128.46614)">
		<path id="path1034" d="M384.53,65.99c-0.06-0.12-0.13-0.24-0.3-0.3C384.29,65.86,384.39,65.94,384.53,65.99"/>
	</g>
	<g id="g1036" transform="matrix(-2.1587523,0,0,2.1587523,959.61953,-123.86192)">
		<path id="path1038" d="M374.62,64.29c0,0.16,0.14,0.18,0.28,0.33c-0.04-0.26-0.13-0.33-0.29-0.32L374.62,64.29z"/>
	</g>
</g>
</svg>
