<?xml version="1.0" encoding="utf-8"?>
<!-- Generator: Adobe Illustrator 25.0.0, SVG Export Plug-In . SVG Version: 6.00 Build 0)  -->
<svg version="1.1" id="Слой_1" xmlns="http://www.w3.org/2000/svg" xmlns:xlink="http://www.w3.org/1999/xlink" x="0px" y="0px"
	 viewBox="0 0 100 100" style="enable-background:new 0 0 100 100;" xml:space="preserve">
<g>
	<g>
		<path d="M98.17,44.44c-3.25-1.93-6.66-3.59-9.85-5.62c-2.34-1.49-4.64-3.02-6.95-4.55c-5.66-3.74-11.29-7.54-17.03-11.16
			c-1.02-0.64-2.05-1.29-3.09-1.89c-0.5-0.29-1.1-0.72-1.68-0.81c-0.37-0.06-0.63,0.09-0.77,0.44c-0.48,1.16-0.5,2.58-0.56,3.81
			c-0.11,2-0.1,4-0.04,6c0.09,3.4,0.09,7.09,0.97,10.39c0.2-0.26,0.4-0.53,0.6-0.79c-2.7,0.09-5.44-0.5-8.07-1.08
			c-3.95-0.87-7.85-1.98-11.71-3.18c-9-2.78-17.87-6.03-26.53-9.72c-4.16-1.77-8.29-3.65-12.28-5.8c-0.44-0.23-0.91,0.06-0.94,0.54
			c-0.06,0.95,0.16,1.96,0.3,2.89c0.27,1.8,0.58,3.6,0.88,5.4c0.96,5.7,1.9,11.41,2.7,17.14c0.77,5.5,1.4,11.01,1.84,16.54
			c0.34,4.2,0.64,8.42,1.21,12.6c0.14,1.04,0.15,2.6,0.74,3.52c0.39,0.62,1.07,0.54,1.71,0.41c2.59-0.53,5.12-1.87,7.5-2.96
			c7.78-3.55,15.37-7.49,23.01-11.33c3.44-1.73,6.81-3.57,10.23-5.33c2.16-1.11,4.33-2.2,6.53-3.21c1.19-0.55,2.84-1.56,4.2-1.56
			c0-0.42,0-0.83,0-1.25c-0.03,0-0.06,0-0.08,0c0,0.42,0,0.83,0,1.25c0.01,0,0.03,0,0.04,0c-0.2-0.15-0.4-0.31-0.6-0.46
			c0.4,1.34,0.45,2.81,0.55,4.2c0.15,2.05,0.24,4.11,0.33,6.17c0.08,1.94,0.15,3.88,0.26,5.82c0.06,1.06,0.02,2.27,0.35,3.29
			c0.11,0.33,0.43,0.52,0.77,0.44c1.44-0.37,2.84-1.8,3.97-2.69c2.51-1.98,4.95-4.05,7.38-6.12c5.78-4.93,11.48-9.95,17.25-14.9
			c2.13-1.82,4.24-3.7,6.48-5.38c0.64-0.48,0.01-1.56-0.63-1.08c-4.69,3.51-9.03,7.54-13.44,11.37
			c-5.51,4.78-10.99,9.62-16.67,14.22c-0.99,0.8-1.99,1.6-3.02,2.35c-0.48,0.35-1.24,0.92-1.65,1.02c0.26,0.15,0.51,0.29,0.77,0.44
			c-0.34-1.05-0.27-2.32-0.33-3.4c-0.11-1.98-0.18-3.96-0.26-5.94c-0.09-2.03-0.18-4.06-0.34-6.09c-0.1-1.33-0.17-2.75-0.55-4.04
			c-0.08-0.26-0.32-0.46-0.6-0.46c-0.01,0-0.03,0-0.04,0c-0.8,0-0.81,1.25,0,1.25c0.03,0,0.06,0,0.08,0c0.8,0,0.81-1.25,0-1.25
			c-1.06,0-2.17,0.57-3.13,0.98c-1.79,0.75-3.54,1.6-5.28,2.46c-3.36,1.67-6.64,3.48-9.97,5.22c-7.02,3.65-14.14,7.17-21.27,10.6
			c-3.22,1.55-6.46,3.13-9.81,4.41c-0.83,0.32-1.84,0.46-2.62,0.81c-0.42,0.19-0.04-0.14-0.04,0.11c0.01-0.46-0.28-1.07-0.36-1.53
			c-0.7-3.96-0.93-8.02-1.26-12.02c-0.4-4.85-0.86-9.69-1.47-14.52c-0.84-6.54-1.87-13.05-2.96-19.55
			c-0.36-2.15-0.74-4.31-1.08-6.46c-0.17-1.08-0.45-2.26-0.38-3.36c-0.31,0.18-0.63,0.36-0.94,0.54C8.23,25.71,16.42,29,24.6,32.06
			c8.42,3.14,17.01,6.07,25.78,8.11c3.04,0.7,6.25,1.46,9.39,1.35c0.41-0.01,0.71-0.39,0.6-0.79c-0.86-3.2-0.84-6.77-0.93-10.06
			c-0.05-1.92-0.06-3.84,0.03-5.75c0.06-1.21,0.06-2.58,0.53-3.72c-0.26,0.15-0.51,0.29-0.77,0.44c1.19,0.19,2.88,1.57,3.98,2.26
			c2.59,1.62,5.15,3.3,7.71,4.98c5.37,3.53,10.7,7.14,16.11,10.61c3.41,2.19,7.04,3.98,10.52,6.04
			C98.23,45.93,98.86,44.85,98.17,44.44L98.17,44.44z"/>
	</g>
</g>
</svg>
