<?xml version="1.0" encoding="utf-8"?>
<!-- Generator: Adobe Illustrator 25.0.0, SVG Export Plug-In . SVG Version: 6.00 Build 0)  -->
<svg version="1.1" id="Слой_1" xmlns="http://www.w3.org/2000/svg" xmlns:xlink="http://www.w3.org/1999/xlink" x="0px" y="0px"
	 viewBox="0 0 100 100" style="enable-background:new 0 0 100 100;" xml:space="preserve">
<style type="text/css">
	.st0{fill:#333333;stroke:#333333;stroke-width:0.25;stroke-miterlimit:10;}
</style>
<g id="g3241" transform="matrix(-2.2924926,-0.06331627,-0.06331627,2.2924926,1027.4383,-79.151686)">
	<path id="path3243" class="st0" d="M417.5,56.98c0.05,0.11,0.17,0.17,0.15,0.37c-0.02,0.13-0.11,0.14-0.18,0.13
		c-0.1,0-0.2-0.04-0.18-0.22C417.31,57.13,417.35,57,417.5,56.98 M418.74,57.37c-0.31,0.16-0.47,0.02-0.58-0.34
		c-0.09-0.3-0.18-0.61-0.36-0.81c-0.09-0.1-0.09-0.23-0.02-0.36c0.08-0.15,0.18-0.09,0.24,0.02
		C418.26,56.36,418.57,56.75,418.74,57.37 M406.06,69.88c0.02-0.03,0.04-0.06,0.06-0.09c0.5,0.58,0.98,1.18,1.5,1.73
		c0.29,0.31,0.26,0.6,0.06,0.99C407.13,71.62,406.59,70.75,406.06,69.88 M443.78,73.69c0.4,0.5,0.64,1.1,0.97,1.59
		c0.05,0.07,0.07,0.2,0.07,0.31c-0.01,0.12,0.02,0.3-0.1,0.35c-0.08,0.04-0.14-0.04-0.19-0.12c-0.27-0.41-0.46-0.94-0.85-1.18
		c-0.08-0.05-0.05-0.18-0.03-0.29C443.69,74.16,443.72,73.97,443.78,73.69 M444.27,70.29c0.33,0.71,0.91,1.09,0.92,2.13
		c-0.48-0.14-0.52-1.2-1.13-0.88C444.08,71.11,444.05,70.72,444.27,70.29 M444.93,74.28c-0.19-0.11-0.22-0.37-0.33-0.5
		c-0.22-0.26-0.27-0.82-0.67-0.75c-0.11,0.02-0.09-0.16-0.08-0.25c0.01-0.22,0.06-0.43,0.14-0.62
		C444.72,72.75,445.06,73.5,444.93,74.28 M444.36,68.71c0.04-0.04,0.08-0.07,0.12-0.11c0.23,0.32,0.45,0.63,0.68,0.95
		c0.03,0.04,0.05,0.08,0.07,0.12c0.23,0.42,0.24,0.6-0.01,1.2C444.99,70.07,444.4,69.64,444.36,68.71 M408.97,74.46
		c-0.25-0.13-0.32-0.49-0.5-0.67c-0.36-0.35-0.35-0.82-0.18-1.35C409.17,73.22,409.2,73.29,408.97,74.46 M443.56,75.5
		c0.3,0.44,0.62,0.86,0.9,1.33c0.27,0.46,0.26,0.49,0.01,1.11c-0.42-0.41-0.47-1.42-1.07-1.55c-0.01,0-0.03-0.17,0-0.23
		C443.46,75.97,443.41,75.72,443.56,75.5 M418.93,52.22c0.31,0.46,0.44,1.15,0.88,1.42c0.07,0.04,0.04,0.2,0,0.3
		c-0.08,0.26-0.16,0.52-0.25,0.83c-0.23-0.52-0.37-1.01-0.6-1.4C418.65,52.87,418.65,52.87,418.93,52.22 M418.47,53.98
		c0.29,0.37,0.75,1.39,0.79,1.77c0.03,0.3-0.08,0.51-0.19,0.75c-0.07-0.1-0.12-0.15-0.15-0.22c-0.16-0.31-0.32-0.62-0.47-0.94
		C418.15,54.69,418.09,54.88,418.47,53.98 M445.49,69.01c-0.47-0.46-0.65-1.2-1.01-1.7c-0.05-0.07-0.02-0.27-0.02-0.4
		c0-0.14,0.02-0.29,0.12-0.36c0.11-0.07,0.16,0.07,0.22,0.16c0.25,0.36,0.43,0.83,0.76,1.04c0.1,0.06,0.07,0.24,0.06,0.37
		C445.6,68.4,445.61,68.69,445.49,69.01 M445.82,64.62c-0.37-0.42-0.53-1.03-0.9-1.32c-0.09-0.07-0.07-0.18-0.07-0.29
		c0.02-0.39,0.04-0.79,0.06-1.25C445.84,63.33,445.89,63.5,445.82,64.62 M410.08,76.47c-0.83-0.97-0.92-1.46-0.47-2.45
		c0.2,0.21,0.51,0.45,0.5,0.72C410.08,75.31,410.26,75.89,410.08,76.47 M419.43,47.83c0.37,0.68,0.71,1.24,0.99,1.9
		c0.18,0.42,0.09,0.68-0.01,1.09c-0.41-0.51-0.53-1.34-1.01-1.66c-0.03-0.02-0.04-0.15-0.04-0.23
		C419.37,48.61,419.31,48.28,419.43,47.83 M430.43,74.63c0.23-0.01,0.44-0.13,0.55,0.16c0.24,0.66,0.54,1.3,0.55,2.12
		c-0.2,0.13-0.38,0.04-0.55-0.03c-0.07-0.03-0.13-0.09-0.13-0.22C430.83,75.95,430.52,75.38,430.43,74.63 M419.88,53.01
		c-0.25-0.94-0.96-1.57-0.6-2.86c0.38,0.26,0.43,0.9,0.72,1.19c0.25,0.24,0.27,0.56,0.15,0.94
		C420.08,52.5,420.06,52.76,419.88,53.01 M411.02,78.33c-0.2-0.35-0.35-0.59-0.48-0.85c-0.06-0.11-0.15-0.27-0.13-0.35
		c0.16-0.52,0.09-1.13,0.3-1.7c0.23,0.32,0.53,0.44,0.5,0.98C411.17,77.02,411.17,77.64,411.02,78.33 M444.82,64.11
		c0.25,0.42,0.41,0.77,0.62,1.03c0.45,0.56,0.4,1.21,0.22,2.02c-0.27-0.5-0.47-0.97-0.73-1.35
		C444.61,65.35,444.62,64.87,444.82,64.11 M437.12,78.17c-0.5,0.09-0.81-0.13-0.82-0.96c0-0.23-0.12-0.46-0.18-0.69
		c-0.05-0.2-0.14-0.39-0.04-0.62c0.21,0,0.46-0.04,0.56,0.24C436.87,76.77,437.16,77.39,437.12,78.17 M416.97,72.4
		c0.29,1.14,0.55,2.15,0.84,3.25L417,75.66c-0.05-0.81-0.16-1.6-0.15-2.42C416.85,73.02,416.84,72.79,416.97,72.4 M444.15,80.71
		c-0.34-1.02-0.59-2.07-0.95-3.04c-0.08-0.21-0.05-0.41,0.11-0.58c0.24,0.43,0.44,0.87,0.69,1.22
		C444.52,79.04,444.34,79.87,444.15,80.71 M427.6,74.17c0.31,0.01,0.73-0.11,0.81,0.2c0.18,0.67,0.47,1.3,0.48,2.07
		c-0.67,0.14-0.68,0.14-0.89-0.67C427.87,75.26,427.74,74.75,427.6,74.17 M430.38,76.77c-0.29-0.04-0.51-0.07-0.73-0.11
		c-0.09-0.01-0.21-0.04-0.22-0.2c-0.05-0.7-0.32-1.32-0.36-2.06c0.44-0.05,0.78-0.07,0.88,0.72
		C430.01,75.65,430.21,76.14,430.38,76.77 M438.72,78.77c-0.32-0.12-0.57-0.21-0.82-0.31c-0.09-0.03-0.18-0.07-0.19-0.25
		c-0.03-0.72-0.27-1.35-0.35-2.1c0.39,0.07,0.77,0.03,0.8,0.8c0.01,0.17,0.12,0.34,0.18,0.5C438.5,77.79,438.61,78.2,438.72,78.77
		 M435.91,77.95c-0.36-0.09-0.6-0.15-0.84-0.2c-0.23-0.05-0.38-0.09-0.36-0.59c0.02-0.35-0.06-0.77-0.12-1.14
		c-0.05-0.32,0.01-0.47,0.25-0.44c0.22,0.02,0.4,0.12,0.49,0.44C435.53,76.61,435.7,77.22,435.91,77.95 M440.2,79.36
		c-0.25-0.07-0.44-0.13-0.64-0.19c-0.11-0.04-0.22-0.09-0.26-0.27c-0.18-0.8-0.37-1.59-0.55-2.4c0.54-0.13,0.76,0.25,0.91,0.9
		C439.82,78.04,440.08,78.61,440.2,79.36 M421.06,75.83c-0.08-1.22-0.34-2.25-0.73-3.27c0.4-0.07,0.65,0.13,0.85,0.59
		c0.2,0.47,0.36,0.96,0.48,1.49c0.08,0.36,0.34,0.75,0.19,1.07C421.67,76.11,421.34,75.81,421.06,75.83 M413.98,84.65
		c-0.25-0.54-0.48-0.94-0.63-1.4c-0.1-0.3,0.29-0.51,0.2-0.89c-0.01-0.02,0-0.06,0.01-0.08c0.1-0.56,0.21-1.13,0.33-1.8
		c0.21,0.39,0.55,0.61,0.5,1.04C414.25,82.51,414.29,83.54,413.98,84.65 M440.17,76.9c0.31,0.12,0.52,0.21,0.73,0.29
		c0.09,0.03,0.16,0.06,0.21,0.21c0.26,0.85,0.53,1.69,0.83,2.63c-0.27-0.1-0.48-0.17-0.69-0.26c-0.14-0.06-0.31-0.08-0.38-0.31
		C440.62,78.67,440.34,77.9,440.17,76.9 M441.8,77.54c0.37,0.18,0.73,0.22,0.91,0.59c0.4,0.83,0.66,1.8,0.88,2.83
		c-0.31-0.05-0.52-0.23-0.74-0.37c-0.12-0.07-0.28-0.11-0.31-0.31C442.38,79.35,441.93,78.63,441.8,77.54 M424.8,76.02
		c-0.28,0.08-0.52,0.04-0.76-0.03c-0.12-0.03-0.23-0.07-0.25-0.34c-0.07-0.85-0.3-1.64-0.47-2.54c0.36,0.06,0.79,0.02,0.94,0.39
		C424.55,74.24,424.9,75.01,424.8,76.02 M421.71,72.92c0.61-0.12,1.08-0.03,1.21,0.93c0.09,0.67,0.4,1.25,0.34,2
		c-0.23,0.12-0.46,0.03-0.68,0.06c-0.09,0.01-0.15-0.02-0.18-0.21C422.26,74.75,422.01,73.86,421.71,72.92 M434.33,77.51
		c-0.72-0.13-1.35-0.24-1.98-0.35c-0.1-0.02-0.18-0.07-0.22-0.22c-0.18-0.65-0.32-1.32-0.42-2.03c0.43-0.05,0.68,0.14,0.78,0.73
		c0.07,0.37,0.2,0.72,0.31,1.07c0.07,0.24,0.19,0.35,0.36,0.21c0.13-0.12,0.17-0.31,0.08-0.51c-0.15-0.33-0.15-0.72-0.23-1.18
		c0.28,0.03,0.52,0.05,0.76,0.08c0.14,0.02,0.24,0.11,0.27,0.34C434.13,76.24,434.22,76.81,434.33,77.51 M427.55,76.39
		c-0.81-0.2-1.59-0.14-2.41-0.29c0.43-0.99-0.09-1.69-0.16-2.55c0.32-0.06,0.55,0.13,0.69,0.53c0.11,0.32,0.2,0.65,0.3,0.98
		c0.05,0.18,0.1,0.36,0.15,0.54c0.06,0.21,0.14,0.43,0.33,0.33c0.22-0.12,0.16-0.39,0.11-0.64c-0.05-0.24-0.11-0.47-0.17-0.71
		c-0.05-0.21-0.13-0.4-0.11-0.71c0.25-0.01,0.52-0.01,0.75,0.15c0.2,0.13-0.09,0.39,0.02,0.57c0.05,0.08,0.09,0.17,0.13,0.27
		C427.33,75.3,427.49,75.73,427.55,76.39 M415.46,83.76c0.57,0.77,0.58,0.85,0.37,1.67c-0.11,0.42-0.21,0.83-0.25,1.29
		c-0.04,0.44-0.11,0.92-0.34,1.37c-0.26-0.75-0.49-1.44-0.75-2.11c-0.18-0.47-0.44-0.89-0.06-1.44c0.08-0.12,0.06-0.38,0.1-0.56
		c0.13-0.51,0.08-1.09,0.29-1.7c0.15,0.43,0.47,0.62,0.33,1.09c-0.24,0.8-0.13,1.67-0.28,2.48c-0.02,0.14-0.02,0.29,0.09,0.34
		c0.14,0.06,0.22-0.07,0.25-0.24c0.05-0.24,0.08-0.49,0.11-0.74C415.38,84.77,415.41,84.33,415.46,83.76 M418.7,72.13
		c0.31,0.06,0.59,0.11,0.86,0.18c0.1,0.03,0.26,0.09,0.22,0.29c-0.1,0.42,0.11,0.6,0.24,0.86c0.34,0.67,0.45,1.47,0.55,2.3
		c-0.46,0.01-0.85-0.02-1.24,0.02c-0.72,0.08-1.24-0.19-1.29-1.43c0-0.08-0.04-0.15-0.06-0.23c-0.15-0.74-0.37-1.44-0.43-2.24
		c0.28-0.07,0.51-0.04,0.75,0.15c-0.06,0.24-0.24,0.46-0.09,0.76c0.37,0.74,0.54,1.64,0.83,2.45c0.06,0.17,0.1,0.41,0.26,0.32
		c0.19-0.1,0.25-0.32,0.17-0.61c-0.1-0.36-0.21-0.71-0.3-1.08C419.04,73.29,418.79,72.8,418.7,72.13 M418.94,47.69
		c0.02,1.23-0.01,2.33-0.23,3.48c-0.37,1.95-1,3.7-1.63,5.46c-0.13,0.37-0.27,0.75-0.37,1.14c-0.09,0.37,0,0.57,0.25,0.54
		c0.77-0.08,1.54,0.02,2.3-0.11c0.89-0.15,1.79-0.15,2.68-0.19c1.91-0.08,3.82-0.15,5.73-0.17c0.51,0,1.01,0.1,1.51,0.09
		c1.37-0.04,2.74,0.05,4.1,0.25c1.67,0.24,3.35,0.43,5.03,0.65c1.6,0.21,3.21,0.42,4.81,0.66c0.97,0.15,1.22,0.58,1.26,2.03
		c0,0.14,0,0.28,0.01,0.42c0.04,2.29-0.29,4.53-0.46,6.79c-0.2,2.65-0.62,5.26-1.04,7.87c-0.1,0.63-0.1,0.62-0.51,0.43
		c-1.26-0.58-2.54-1.12-3.86-1.39c-1.71-0.35-3.41-0.71-5.11-1.07c-1.31-0.28-2.61-0.73-3.94-0.86c-1.42-0.15-2.82-0.49-4.22-0.87
		c-0.61-0.16-1.21-0.34-1.83-0.45c-1.63-0.3-3.26-0.64-4.88-1.09c-0.53-0.15-1.07-0.24-1.61-0.33c-0.3-0.05-0.54,0.34-0.53,0.72
		c0.05,1.59,0.16,3.18,0.12,4.77c-0.05,1.97,0,3.92,0.05,5.87c0.01,0.55,0.05,1.11-0.17,1.73c-0.38-0.52-0.66-1.11-0.93-1.69
		c-0.62-1.33-1.26-2.62-1.99-3.8c-2.03-3.31-4.32-6.16-6.7-8.89c-1.04-1.2-2.08-2.42-3.11-3.64c-0.3-0.35-0.31-0.39-0.03-0.83
		c0.5-0.77,1-1.54,1.56-2.23c1.42-1.76,2.82-3.53,4.38-5.01c0.97-0.93,1.92-1.92,2.8-3.06c1.11-1.43,2.27-2.75,3.5-3.92
		c0.7-0.67,1.41-1.32,2.05-2.12C418.25,48.49,418.5,48.01,418.94,47.69 M412.34,81.21c-0.19-0.64-0.5-1.16-0.78-1.71
		c-0.09-0.17-0.26-0.34-0.21-0.56c0.15-0.64,0.12-1.36,0.34-2c0.74,0.81,0.75,0.86,0.72,2.04c-0.01,0.39,0,0.79-0.04,1.17
		C412.33,80.52,412.51,80.88,412.34,81.21c0.31-0.02,0.46-0.22,0.46-0.74c-0.01-0.54,0.06-1.08,0.1-1.8
		c0.26,0.45,0.57,0.7,0.56,1.11c-0.04,0.93-0.11,1.87-0.37,2.8C412.72,82.2,412.65,81.56,412.34,81.21 M419.45,57.38
		c0.49-2.12,0.99-4.13,1.38-6.18c0.09-0.45,0.14-0.93,0.32-1.35c0.08-0.19,0.04-0.39-0.1-0.57c-0.61-0.76-1.09-1.71-1.49-2.75
		c-0.11-0.29-0.22-0.38-0.39-0.12c-1.21,1.91-2.73,3.23-4.16,4.71c-0.92,0.95-1.81,1.96-2.65,3.09c-0.93,1.26-2,2.26-3.04,3.31
		c-0.95,0.95-1.87,1.95-2.75,3.03c-1.28,1.57-2.52,3.19-3.64,5.01c-0.26,0.42-0.26,0.45,0.01,0.86c1.35,2.1,2.82,4.01,4.12,6.18
		c1.07,1.8,2.19,3.55,3.16,5.48c0.76,1.51,1.53,3,2.2,4.6c0.31,0.73,0.64,1.43,0.98,2.12c0.4,0.83,0.7,1.76,1.03,2.66
		c0.2,0.55,0.3,1.19,0.42,1.8c0.05,0.26,0.11,0.49,0.32,0.5c0.19,0.01,0.24-0.24,0.31-0.44c0.32-0.94,0.46-1.97,0.66-2.96
		c0.07-0.35,0.13-0.71,0.29-0.98c0.55-0.92,0.52-2.01,0.51-3.11c-0.02-1.68-0.14-3.35-0.05-5.03c0.04-0.68,0.05-0.67,0.51-0.73
		c1.07-0.15,2.14,0.03,3.2,0.07c0.43,0.02,0.86,0.06,1.29,0.05c2.03-0.04,4.04,0.3,6.06,0.45c1.38,0.1,2.75,0.37,4.13,0.64
		c1.37,0.26,2.72,0.73,4.09,0.98c1.38,0.25,2.68,0.94,4.02,1.42c0.33,0.12,0.65,0.27,0.97,0.37c0.74,0.23,1.4,0.74,2.08,1.17
		c0.25,0.16,0.45,0.38,0.6,0.72c0.08,0.18,0.13,0.42,0.33,0.33c0.19-0.09,0.27-0.3,0.3-0.56c0.09-0.75,0.19-1.5,0.25-2.25
		c0.04-0.51,0.09-1,0.18-1.49c0.22-1.31,0.37-2.63,0.49-3.96c0.19-2.08,0.42-4.15,0.63-6.22c0.04-0.42,0.07-0.84,0.11-1.26
		c0.03-0.33-0.02-0.68,0.17-0.96c0.03-0.05,0.07-0.18,0.05-0.22c-0.25-0.54-0.05-1.1,0.01-1.63c0.04-0.39,0.02-0.71-0.12-1.03
		c-0.29-0.61-0.58-1.22-0.85-1.85c-0.23-0.53-0.52-1.01-0.59-1.68c-0.02-0.22-0.16-0.27-0.28-0.37c-0.53-0.42-1.13-0.37-1.7-0.46
		c-1.84-0.27-3.7-0.43-5.54-0.72c-3.15-0.5-6.31-0.86-9.48-0.86c-2.29,0-4.58-0.04-6.87,0.17C420.47,57.4,420,57.37,419.45,57.38"/>
</g>
</svg>
