<?xml version="1.0" encoding="utf-8"?>
<!-- Generator: Adobe Illustrator 25.0.0, SVG Export Plug-In . SVG Version: 6.00 Build 0)  -->
<svg version="1.1" id="Слой_1" xmlns="http://www.w3.org/2000/svg" xmlns:xlink="http://www.w3.org/1999/xlink" x="0px" y="0px"
	 viewBox="0 0 100 100" style="enable-background:new 0 0 100 100;" xml:space="preserve">
<path d="M99.38,36.57c-4.06-5.53-8.98-9.9-13.6-14.66c-3.72-3.83-7.51-7.57-11.11-11.55c-2-2.21-4.21-4.3-5.47-7.31
	c-1.1-2.62-2.82-3.58-5.14-3.47c-1.71,0.08-1.9,0.24-2.02,2.36c-0.07,1.3,0.04,2.69-0.29,3.89c-0.78,2.82-1.24,5.71-1.64,8.63
	c-0.19,1.42-0.55,2.8-0.84,4.2c-0.29,1.4-0.51,2.82-0.89,4.18c-0.47,1.66-1.3,2.25-2.71,2.21c-3.81-0.11-7.61-0.17-11.42-0.36
	c-3.34-0.16-6.68-0.47-9.84-0.7c-0.39-0.91-0.56-2.03-1.01-2.23c-1.68-0.74-3.21-2.09-5.16-1.88c-3,0.32-6,0.58-9.01,0.75
	c-4.29,0.24-8.53,1.59-12.88,0.56c-2.17-0.52-3.18,1.43-2.98,3.71c0.08,0.95,0.04,1.92,0.1,2.87c0.06,1.09,0.16,2.18,0.27,3.27
	c0.1,0.95,0.29,1.89,0.34,2.85c0.16,3.54-0.41,7.1,0.1,10.65c0.07,0.46-0.07,0.95-0.1,1.43c-0.1,1.3-0.24,2.6-0.28,3.9
	c-0.08,2.4-0.25,4.75-0.88,7.09c-0.61,2.26-0.77,4.7-1.18,7.05c-0.18,1.06-0.28,2.25-0.76,3.1c-1.26,2.21-0.67,4.19,0.26,6.16
	c0.5,1.07,1.36,1.7,2.4,1.7c0.85,0,1.71-0.04,2.54-0.23c3.11-0.73,6.21-1.54,9.31-2.31c3.72-0.93,7.45-1.79,11.15-2.79
	c2.54-0.69,5.02-1.77,7.59-2.31c3.87-0.81,7.59-2.22,11.32-3.66c1.82-0.7,3.67-1.3,5.77-2.03c0.09,2.27,0.13,4.11,0.25,5.96
	c0.38,5.64,0.57,11.29,0.05,16.92c-0.28,3.04-0.15,6.22-1.57,9c-0.17,0.34-0.19,1.01-0.03,1.36c0.54,1.19,1.03,2.53,1.83,3.42
	c1.94,2.15,4.52,1.44,5.51-0.92c0.48-1.15,1.24-2.13,1.91-3.15c4.37-6.59,8.74-13.18,13.15-19.74c2.98-4.43,5.92-8.9,9.5-12.68
	c1.32-1.39,2.57-2.89,3.79-4.41c1.47-1.81,2.81-3.78,4.33-5.53c2.92-3.36,5.53-7.14,8.92-9.88
	C100.58,40.67,100.67,38.32,99.38,36.57z M91.3,38.98c-3.26,3.94-6.49,7.93-9.74,11.89c-2.72,3.32-5.58,6.5-8.15,10
	c-3.4,4.63-6.59,9.48-9.82,14.28c-1.54,2.29-2.97,4.7-4.47,7.05c-0.26,0.41-0.61,0.74-0.91,1.1c-0.1-0.07-0.21-0.13-0.31-0.2
	c0-1.85,0.05-3.71-0.01-5.56c-0.12-3.99-0.3-7.97-0.44-11.96c-0.09-2.35,0.11-4.64,0.84-6.85c0.58-1.76,0.49-2.17-0.71-3.33
	c-0.62-0.6-1.28-1.14-1.96-1.63c-1.33-0.97-2.73-1.15-4.01,0.01c-1.61,1.46-3.55,1.76-5.38,2.45c-3.31,1.24-6.64,2.38-9.96,3.54
	c-0.76,0.26-1.53,0.46-2.3,0.67c-2.33,0.63-4.66,1.26-6.98,1.89c-3.43,0.92-6.87,1.86-10.3,2.76c-2.38,0.62-4.77,1.2-7.16,1.78
	c-0.33,0.08-0.67,0.05-1.1,0.07c-0.27-1.47-0.23-2.9,0.04-4.28c1.21-6.24,2.1-12.5,1.97-18.96c-0.09-4.26,0.1-8.52,0.21-12.78
	c0.02-0.8,0.27-1.6,0.44-2.57c2.17-0.39,4.3-0.78,6.43-1.15c0.56-0.1,1.15-0.05,1.69-0.21c1.22-0.35,2.31-0.52,3.16,1.01
	c0.22,0.4,0.9,0.53,1.39,0.61c3.21,0.53,6.41,1.19,9.64,1.47c6.41,0.55,12.82,0.9,19.24,1.31c1.19,0.08,2.39,0.09,3.58,0.09
	c1.15,0,2.23,0.29,3.3,0.86c1.94,1.04,4.46-0.86,4.34-3.43c-0.11-2.32,0.45-4.31,1.16-6.37c0.32-0.92,0.27-2.02,0.44-3.02
	c0.52-3.07,1.06-6.13,1.65-9.56c0.98,0.97,1.79,1.61,2.44,2.44c4.76,6.06,10.23,11.15,15.45,16.57c2.16,2.24,4.24,4.58,6.34,6.91
	C92.55,37.26,92.49,37.53,91.3,38.98z"/>
</svg>
