<?xml version="1.0" encoding="utf-8"?>
<!-- Generator: Adobe Illustrator 25.0.0, SVG Export Plug-In . SVG Version: 6.00 Build 0)  -->
<svg version="1.1" id="Слой_1" xmlns="http://www.w3.org/2000/svg" xmlns:xlink="http://www.w3.org/1999/xlink" x="0px" y="0px"
	 viewBox="0 0 100 100" style="enable-background:new 0 0 100 100;" xml:space="preserve">
<style type="text/css">
	.st0{stroke:#000000;stroke-width:0.25;stroke-miterlimit:10;}
</style>
<g id="g3241" transform="matrix(-2.2924926,-0.06331627,-0.06331627,2.2924926,1027.4383,-79.151686)">
	<path id="path3243" class="st0" d="M432.1,57.38c0.14,0.03,0.18,0.17,0.19,0.29c0.01,0.19-0.09,0.21-0.19,0.21
		c-0.07,0-0.16-0.01-0.17-0.14C431.92,57.54,432.05,57.48,432.1,57.38 M430.84,57.71c0.2-0.61,0.54-0.98,0.81-1.44
		c0.06-0.1,0.16-0.16,0.24,0c0.06,0.13,0.06,0.26-0.04,0.35c-0.2,0.19-0.31,0.49-0.41,0.79C431.31,57.76,431.14,57.88,430.84,57.71
		 M442.82,70.89c-0.58,0.84-1.17,1.69-1.76,2.53c-0.18-0.4-0.19-0.7,0.11-0.98c0.54-0.52,1.06-1.09,1.59-1.64
		C442.78,70.83,442.8,70.86,442.82,70.89 M404.94,72.62c0.04,0.28,0.07,0.48,0.1,0.66c0.02,0.11,0.04,0.25-0.04,0.29
		c-0.39,0.22-0.62,0.73-0.91,1.13c-0.06,0.08-0.12,0.16-0.2,0.11c-0.12-0.06-0.08-0.23-0.08-0.36c0-0.1,0.03-0.24,0.08-0.3
		C404.23,73.68,404.51,73.1,404.94,72.62 M404.63,69.2c0.19,0.44,0.14,0.83,0.14,1.26c-0.59-0.36-0.69,0.71-1.18,0.82
		C403.66,70.24,404.27,69.88,404.63,69.2 M403.76,73.14c-0.09-0.78,0.29-1.51,1.06-2.07c0.07,0.19,0.11,0.41,0.11,0.63
		c0,0.1,0.01,0.27-0.1,0.25c-0.39-0.09-0.48,0.47-0.71,0.71C404,72.78,403.96,73.04,403.76,73.14 M404.63,67.61
		c-0.09,0.93-0.71,1.32-0.98,2.11c-0.21-0.61-0.2-0.79,0.06-1.2c0.03-0.04,0.05-0.08,0.08-0.12c0.24-0.3,0.49-0.6,0.73-0.91
		C404.56,67.53,404.6,67.57,404.63,67.61 M439.66,75.3c-0.16-1.17-0.13-1.25,0.79-1.98c0.14,0.54,0.12,1.01-0.25,1.34
		C440.01,74.83,439.91,75.18,439.66,75.3 M405.05,74.44c0.15,0.22,0.07,0.47,0.14,0.67c0.02,0.06-0.01,0.23-0.02,0.23
		c-0.62,0.1-0.71,1.1-1.16,1.49c-0.21-0.63-0.23-0.66,0.07-1.11C404.39,75.27,404.73,74.86,405.05,74.44 M430.93,52.55
		c0.25,0.67,0.25,0.67-0.09,1.15c-0.26,0.37-0.42,0.86-0.68,1.36c-0.08-0.32-0.14-0.58-0.2-0.84c-0.03-0.11-0.05-0.26,0.02-0.3
		C430.43,53.68,430.6,52.99,430.93,52.55 M431.3,54.33c0.33,0.93,0.28,0.74-0.06,1.36c-0.17,0.31-0.34,0.61-0.52,0.91
		c-0.04,0.06-0.08,0.11-0.16,0.21c-0.09-0.25-0.19-0.47-0.14-0.76C430.47,55.68,430.99,54.68,431.3,54.33 M403.49,67.85
		c-0.1-0.33-0.08-0.61-0.09-0.88c-0.01-0.14-0.03-0.31,0.08-0.37c0.35-0.2,0.55-0.65,0.82-1c0.07-0.09,0.13-0.23,0.23-0.15
		c0.09,0.07,0.1,0.22,0.1,0.36c-0.01,0.14,0.01,0.34-0.04,0.4C404.2,66.69,403.98,67.42,403.49,67.85 M403.4,63.45
		c0-1.12,0.06-1.28,1.06-2.8c0,0.46,0,0.86-0.01,1.25c0,0.1,0.01,0.22-0.08,0.28C403.98,62.45,403.79,63.05,403.4,63.45
		 M438.43,77.25c-0.15-0.59,0.07-1.16,0.07-1.73c0-0.26,0.33-0.49,0.54-0.69C439.43,75.85,439.31,76.32,438.43,77.25 M430.68,48.14
		c0.09,0.45,0.01,0.78,0.01,1.1c0,0.08-0.02,0.21-0.05,0.23c-0.5,0.29-0.66,1.12-1.1,1.6c-0.08-0.41-0.15-0.68,0.05-1.09
		C429.9,49.34,430.27,48.81,430.68,48.14 M418.22,74.3c-0.13,0.74-0.48,1.29-0.52,2.01c-0.01,0.13-0.07,0.19-0.15,0.21
		c-0.18,0.07-0.36,0.14-0.56,0c0.06-0.82,0.39-1.44,0.66-2.09C417.78,74.15,417.99,74.27,418.22,74.3 M429.94,53.28
		c-0.17-0.26-0.17-0.52-0.22-0.74c-0.1-0.39-0.06-0.71,0.2-0.93c0.31-0.27,0.39-0.9,0.78-1.15
		C430.98,51.77,430.24,52.36,429.94,53.28 M437.4,79.06c-0.11-0.7-0.08-1.31-0.08-1.92c0-0.54,0.31-0.65,0.55-0.95
		c0.18,0.57,0.07,1.18,0.2,1.71c0.02,0.08-0.09,0.24-0.15,0.34C437.77,78.48,437.61,78.72,437.4,79.06 M404.43,62.99
		c0.16,0.77,0.14,1.25-0.2,1.69c-0.28,0.36-0.51,0.82-0.81,1.31c-0.13-0.81-0.14-1.47,0.33-2C403.98,63.74,404.16,63.4,404.43,62.99
		 M411.34,77.46c0-0.78,0.33-1.38,0.59-2c0.12-0.28,0.36-0.23,0.58-0.21c0.08,0.24-0.02,0.43-0.08,0.62
		c-0.07,0.23-0.2,0.45-0.21,0.68C412.16,77.37,411.84,77.58,411.34,77.46 M431.78,72.81c0.11,0.4,0.08,0.62,0.08,0.85
		c-0.03,0.81-0.19,1.6-0.28,2.41l-0.81-0.06C431.11,74.93,431.43,73.94,431.78,72.81 M404.18,79.6c-0.14-0.85-0.28-1.68,0.28-2.38
		c0.27-0.34,0.5-0.77,0.76-1.18c0.15,0.17,0.16,0.38,0.08,0.58C404.88,77.57,404.58,78.61,404.18,79.6 M421.07,73.99
		c-0.18,0.57-0.33,1.07-0.49,1.57c-0.26,0.8-0.26,0.8-0.93,0.62c0.05-0.77,0.38-1.38,0.6-2.04
		C420.35,73.85,420.76,73.98,421.07,73.99 M418.15,76.43c0.21-0.62,0.43-1.09,0.52-1.61c0.15-0.78,0.49-0.74,0.92-0.67
		c-0.08,0.74-0.39,1.34-0.48,2.04c-0.02,0.15-0.14,0.17-0.23,0.18C418.67,76.38,418.45,76.4,418.15,76.43 M409.71,77.97
		c0.14-0.56,0.27-0.97,0.45-1.33c0.08-0.16,0.2-0.32,0.21-0.49c0.07-0.77,0.45-0.71,0.84-0.76c-0.12,0.75-0.4,1.37-0.47,2.08
		c-0.02,0.18-0.11,0.21-0.2,0.24C410.3,77.79,410.04,77.87,409.71,77.97 M412.56,77.3c0.25-0.72,0.46-1.31,0.67-1.9
		c0.11-0.31,0.29-0.4,0.51-0.41c0.24-0.01,0.3,0.14,0.23,0.45c-0.08,0.37-0.18,0.78-0.18,1.14c0,0.5-0.16,0.53-0.39,0.57
		C413.16,77.19,412.92,77.23,412.56,77.3 M408.2,78.48c0.17-0.74,0.46-1.3,0.64-1.93c0.19-0.64,0.43-1.01,0.96-0.85
		c-0.23,0.79-0.46,1.58-0.69,2.36c-0.05,0.18-0.16,0.23-0.27,0.26C408.64,78.38,408.45,78.42,408.2,78.48 M427.5,76.01
		c-0.27-0.04-0.63,0.24-0.78-0.16c-0.13-0.33,0.15-0.71,0.25-1.06c0.15-0.52,0.33-1,0.56-1.46c0.23-0.45,0.49-0.64,0.89-0.54
		C427.97,73.78,427.65,74.8,427.5,76.01 M434.09,85.21c-0.24-1.12-0.15-2.15-0.23-3.15c-0.03-0.43,0.32-0.63,0.55-1.01
		c0.09,0.67,0.16,1.24,0.23,1.81c0,0.03,0.01,0.06,0,0.08c-0.11,0.37,0.27,0.6,0.15,0.9C434.62,84.3,434.37,84.68,434.09,85.21
		 M408.37,76.02c-0.22,0.99-0.55,1.75-0.85,2.52c-0.09,0.22-0.25,0.24-0.4,0.29c-0.21,0.08-0.43,0.13-0.71,0.22
		c0.35-0.93,0.67-1.75,0.98-2.58c0.06-0.15,0.13-0.17,0.22-0.2C407.84,76.2,408.05,76.12,408.37,76.02 M406.7,76.57
		c-0.18,1.08-0.67,1.78-0.89,2.69c-0.05,0.2-0.21,0.23-0.33,0.29c-0.23,0.13-0.45,0.3-0.76,0.33c0.28-1.02,0.58-1.96,1.03-2.78
		C405.96,76.74,406.32,76.72,406.7,76.57 M423.76,75.99c-0.04-1.01,0.35-1.76,0.68-2.47c0.17-0.37,0.6-0.3,0.96-0.34
		c-0.22,0.88-0.49,1.66-0.61,2.51c-0.04,0.27-0.15,0.3-0.27,0.33C424.28,76.05,424.04,76.08,423.76,75.99 M427.02,73.06
		c-0.35,0.92-0.65,1.8-0.85,2.73c-0.04,0.19-0.1,0.22-0.19,0.2c-0.22-0.04-0.45,0.03-0.67-0.1c-0.01-0.75,0.32-1.31,0.45-1.98
		C425.94,72.97,426.42,72.91,427.02,73.06 M414.17,76.96c0.15-0.7,0.27-1.26,0.38-1.83c0.05-0.23,0.15-0.32,0.29-0.33
		c0.24-0.02,0.48-0.02,0.77-0.04c-0.1,0.45-0.13,0.84-0.29,1.17c-0.1,0.19-0.08,0.39,0.05,0.51c0.16,0.15,0.28,0.05,0.37-0.19
		c0.13-0.35,0.28-0.69,0.36-1.05c0.14-0.58,0.4-0.76,0.82-0.69c-0.14,0.7-0.32,1.36-0.53,2c-0.05,0.15-0.13,0.19-0.23,0.2
		C415.53,76.79,414.89,76.87,414.17,76.96 M421,76.21c0.09-0.65,0.27-1.08,0.46-1.5c0.04-0.09,0.09-0.18,0.14-0.26
		c0.12-0.18-0.16-0.45,0.05-0.57c0.24-0.15,0.51-0.13,0.76-0.11c0.01,0.31-0.09,0.5-0.15,0.7c-0.07,0.23-0.14,0.46-0.2,0.7
		c-0.07,0.24-0.14,0.51,0.07,0.64c0.18,0.11,0.27-0.1,0.34-0.31c0.06-0.17,0.11-0.35,0.18-0.53c0.12-0.32,0.22-0.65,0.35-0.96
		c0.16-0.39,0.4-0.57,0.72-0.49c-0.12,0.85-0.68,1.53-0.3,2.54C422.6,76.16,421.82,76.06,421,76.21 M432.66,84.24
		c0.02,0.57,0.03,1.01,0.05,1.45c0.01,0.25,0.04,0.5,0.07,0.74c0.02,0.17,0.09,0.31,0.24,0.25c0.12-0.05,0.13-0.19,0.11-0.33
		c-0.1-0.82,0.05-1.68-0.14-2.5c-0.11-0.48,0.22-0.65,0.39-1.07c0.17,0.62,0.1,1.2,0.19,1.72c0.04,0.19,0,0.45,0.07,0.57
		c0.35,0.57,0.06,0.98-0.14,1.43c-0.29,0.65-0.56,1.33-0.86,2.06c-0.21-0.46-0.25-0.94-0.26-1.38c-0.02-0.46-0.1-0.88-0.18-1.3
		C432.03,85.06,432.05,84.98,432.66,84.24 M430.07,72.44c-0.13,0.66-0.4,1.14-0.57,1.7c-0.11,0.36-0.24,0.71-0.36,1.06
		c-0.1,0.28-0.05,0.51,0.14,0.62c0.16,0.09,0.21-0.14,0.28-0.31c0.33-0.79,0.55-1.68,0.96-2.4c0.16-0.29,0-0.52-0.05-0.76
		c0.25-0.17,0.49-0.19,0.76-0.1c-0.1,0.8-0.36,1.49-0.55,2.22c-0.02,0.08-0.06,0.15-0.07,0.23c-0.12,1.23-0.65,1.48-1.37,1.35
		c-0.39-0.07-0.78-0.06-1.24-0.09c0.15-0.82,0.3-1.61,0.68-2.27c0.14-0.25,0.36-0.41,0.29-0.84c-0.04-0.21,0.13-0.26,0.23-0.28
		C429.47,72.51,429.75,72.48,430.07,72.44 M431.17,48.03c0.43,0.34,0.65,0.84,0.93,1.23c0.6,0.84,1.27,1.53,1.93,2.23
		c1.17,1.24,2.25,2.62,3.28,4.11c0.82,1.18,1.71,2.23,2.63,3.21c1.48,1.57,2.78,3.41,4.1,5.24c0.52,0.72,0.98,1.52,1.43,2.32
		c0.26,0.45,0.25,0.49-0.07,0.83c-1.1,1.16-2.2,2.32-3.31,3.46c-2.52,2.59-4.97,5.31-7.18,8.5c-0.79,1.15-1.51,2.4-2.2,3.69
		c-0.3,0.57-0.61,1.14-1.02,1.64c-0.18-0.62-0.12-1.18-0.07-1.73c0.16-1.95,0.32-3.9,0.38-5.86c0.05-1.59,0.24-3.17,0.38-4.76
		c0.03-0.38-0.19-0.78-0.49-0.75c-0.54,0.06-1.09,0.12-1.63,0.24c-1.64,0.36-3.28,0.61-4.93,0.82c-0.62,0.08-1.23,0.22-1.85,0.35
		c-1.42,0.3-2.84,0.57-4.26,0.63c-1.34,0.06-2.65,0.43-3.98,0.64c-1.72,0.27-3.44,0.53-5.16,0.79c-1.33,0.2-2.63,0.66-3.93,1.17
		c-0.42,0.17-0.42,0.18-0.48-0.46c-0.28-2.62-0.55-5.26-0.6-7.91c-0.05-2.27-0.25-4.53-0.09-6.81c0.01-0.14,0.02-0.28,0.03-0.42
		c0.12-1.44,0.4-1.87,1.37-1.96c1.61-0.15,3.22-0.27,4.84-0.39c1.69-0.13,3.37-0.23,5.06-0.37c1.37-0.12,2.74-0.13,4.1-0.02
		c0.51,0.04,1.01-0.04,1.52-0.01c1.91,0.12,3.81,0.3,5.71,0.48c0.88,0.09,1.78,0.14,2.67,0.34c0.75,0.17,1.53,0.11,2.29,0.24
		c0.24,0.04,0.35-0.15,0.28-0.53c-0.08-0.4-0.2-0.78-0.31-1.16c-0.53-1.8-1.06-3.58-1.32-5.54
		C431.06,50.36,431.09,49.26,431.17,48.03 M435.91,81.86c-0.33,0.33-0.43,0.97-0.82,1.33c-0.21-0.95-0.22-1.89-0.21-2.82
		c0.01-0.41,0.33-0.64,0.62-1.07c0,0.72,0.04,1.26,0,1.8C435.47,81.62,435.61,81.82,435.91,81.86c-0.15-0.34,0.05-0.69,0.03-1.05
		c-0.02-0.39,0.01-0.78,0.02-1.18c0.03-1.19,0.05-1.23,0.83-2c0.18,0.65,0.11,1.36,0.23,2.01c0.04,0.22-0.15,0.38-0.24,0.54
		C436.47,80.73,436.14,81.23,435.91,81.86 M430.13,57.68c-0.55-0.04-1.02-0.04-1.48-0.11c-2.28-0.34-4.56-0.43-6.85-0.55
		c-3.17-0.17-6.34,0.02-9.51,0.34c-1.86,0.19-3.71,0.24-5.57,0.41c-0.57,0.05-1.17-0.03-1.72,0.36c-0.12,0.09-0.26,0.13-0.3,0.35
		c-0.11,0.66-0.43,1.12-0.68,1.64c-0.3,0.62-0.63,1.21-0.96,1.8c-0.17,0.31-0.2,0.62-0.18,1.02c0.03,0.54,0.2,1.1-0.08,1.63
		c-0.02,0.04,0,0.17,0.04,0.22c0.18,0.28,0.1,0.64,0.12,0.97c0.02,0.42,0.02,0.84,0.04,1.26c0.1,2.08,0.21,4.16,0.29,6.25
		c0.05,1.34,0.12,2.67,0.27,3.99c0.06,0.49,0.08,1,0.1,1.5c0.02,0.76,0.08,1.51,0.13,2.26c0.02,0.26,0.08,0.48,0.27,0.58
		c0.2,0.1,0.26-0.13,0.35-0.31c0.17-0.33,0.38-0.54,0.64-0.68c0.71-0.4,1.4-0.87,2.15-1.06c0.33-0.08,0.66-0.22,0.99-0.31
		c1.36-0.4,2.7-1.02,4.09-1.2c1.38-0.17,2.75-0.57,4.14-0.75c1.38-0.19,2.77-0.38,4.16-0.41c2.02-0.04,4.05-0.27,6.07-0.12
		c0.43,0.03,0.86,0.01,1.29,0.02c1.07,0.02,2.14-0.1,3.2,0.1c0.45,0.09,0.46,0.08,0.46,0.76c0,1.69-0.21,3.35-0.33,5.02
		c-0.07,1.09-0.16,2.19,0.33,3.13c0.15,0.28,0.19,0.65,0.24,1c0.15,1,0.23,2.04,0.5,3c0.06,0.2,0.1,0.45,0.28,0.46
		c0.21,0,0.28-0.22,0.35-0.48c0.16-0.6,0.29-1.24,0.52-1.77c0.38-0.87,0.73-1.79,1.18-2.6c0.38-0.68,0.75-1.36,1.09-2.07
		c0.76-1.56,1.61-3.01,2.45-4.47c1.07-1.87,2.29-3.56,3.46-5.3c1.42-2.1,2.99-3.93,4.45-5.95c0.29-0.4,0.29-0.42,0.06-0.86
		c-1.02-1.88-2.17-3.57-3.36-5.21c-0.82-1.13-1.69-2.17-2.58-3.18c-0.98-1.1-1.99-2.16-2.85-3.47c-0.77-1.17-1.61-2.23-2.47-3.23
		c-1.35-1.56-2.78-2.95-3.89-4.93c-0.15-0.26-0.27-0.18-0.39,0.1c-0.45,1.01-0.98,1.93-1.64,2.66c-0.16,0.18-0.21,0.37-0.14,0.56
		c0.16,0.43,0.18,0.91,0.24,1.37C429.37,53.5,429.76,55.53,430.13,57.68"/>
</g>
</svg>
