<?xml version="1.0" encoding="utf-8"?>
<!-- Generator: Adobe Illustrator 25.0.0, SVG Export Plug-In . SVG Version: 6.00 Build 0)  -->
<svg version="1.1" id="Слой_1" xmlns="http://www.w3.org/2000/svg" xmlns:xlink="http://www.w3.org/1999/xlink" x="0px" y="0px"
	 viewBox="0 0 100 100" style="enable-background:new 0 0 100 100;" xml:space="preserve">
<style type="text/css">
	.st0{fill:#333333;}
</style>
<g>
	<g>
		<path class="st0" d="M14.34,53c-0.34,0.23,0.52,1.88,2.4,4.27c1.89,2.38,4.83,5.47,8.55,8.47c3.71,3.01,7.46,5.33,10.32,6.77
			c2.86,1.45,4.81,2.06,5.03,1.74c0.47-0.69-6.04-4.77-13.19-10.59C20.25,57.9,15.08,52.54,14.34,53z"/>
		<path class="st0" d="M84.46,56.83c-0.03,0.44,0.01,0.8,0.28,0.99c0.26,0.17,0.71,0.11,1.19-0.24c0.48-0.34,0.96-0.98,1.17-1.77
			c0.2-0.78,0.11-1.52-0.13-2.01c-0.24-0.5-0.61-0.75-0.93-0.7c-0.64,0.13-0.96,1.14-1.26,2.23C84.62,55.89,84.5,56.4,84.46,56.83z"
			/>
		<path class="st0" d="M62.51,35.93c-0.18,0.09-1.02,0.44-0.91,0.73c0.14,0.39,1.53,0.2,1.82,0.18c1.38-0.06,2.76-0.16,4.14-0.16
			c3.04,0.01,6.08,0.33,8.93,1.3c2.61,0.88,4.98,2.27,6.65,4.27c1.55,1.85,2.21,4.03,2.55,6.27c0.05,0.33,0.09,2.19,0.63,2.16
			c0.62-0.03,0.9-1.72,0.98-2.12c0.43-2.14,0.1-4.43-0.9-6.41c-2.27-4.48-7.62-7.06-12.97-7.66c-2.65-0.3-5.4-0.15-7.98,0.46
			C64.45,35.2,63.43,35.48,62.51,35.93z"/>
	</g>
	<path class="st0" d="M16.38,26.8c6.26-5.37,12.72-10.89,20.4-14.66c6.74-3.31,15.09-5.05,21.79-0.73
		c6.63,4.29,5.7,11.73-0.17,16.29c8.74-2.7,18.99-2.83,27.64,0.18c9.93,3.45,13.81,11.41,13.95,20.37
		c0.15,9.33-3.38,18.18-13.92,21.78c-8.28,2.83-18.32,2.61-26.7,0.27c6.31,5.15,5.03,13.84-2.72,17.26
		c-8.13,3.58-17.89-1.11-24.59-5.11c-7.98-4.75-15.09-10.74-21.83-16.77C3.62,59.78-2.42,52.39,0.98,43.68
		C3.61,36.86,10.69,31.66,16.38,26.8z M23.2,69.31c5.28,4.5,10.88,8.94,17.27,12.19c4.77,2.42,11.26,4.82,16.27,1.64
		c5.48-3.49,3.51-9.38-0.45-13.15c-0.26-0.24-2.27-1.63-2.08-2.04c0.41-0.88,5.75,0,6.72,0.05c6.64,0.38,13.5,0.21,19.88-1.59
		c7.14-2.01,11.43-6.08,12.49-12.7c0.84-5.19,0.75-11.81-2.65-16.32c-4.01-5.33-12.37-7.07-19.15-7.65
		c-3.52-0.29-7.05-0.24-10.58-0.03c-2.12,0.13-4.75,0.77-6.72,0.07c0-0.01-0.01-0.01-0.01-0.01c0-0.36,4.76-6.05,5.09-6.83
		c1.25-2.91,0.92-5.68-1.88-7.77c-7.5-5.6-17.46,0.19-23.67,4.59C26.93,24.64,20.72,30.37,14.7,36C8.67,41.64,3.33,48.13,8.86,55.7
		C12.67,60.81,18.24,65.09,23.2,69.31z"/>
</g>
</svg>
