<?xml version="1.0" encoding="utf-8"?>
<!-- Generator: Adobe Illustrator 25.0.0, SVG Export Plug-In . SVG Version: 6.00 Build 0)  -->
<svg version="1.1" id="Слой_1" xmlns="http://www.w3.org/2000/svg" xmlns:xlink="http://www.w3.org/1999/xlink" x="0px" y="0px"
	 viewBox="0 0 100 100" style="enable-background:new 0 0 100 100;" xml:space="preserve">
<path d="M1.57,41.97c3.39,2.75,6,6.52,8.92,9.88c1.52,1.75,2.86,3.72,4.33,5.53c1.23,1.52,2.47,3.02,3.79,4.41
	c3.58,3.78,6.52,8.25,9.5,12.68c4.41,6.55,8.78,13.15,13.15,19.74c0.68,1.02,1.43,2,1.91,3.15c0.99,2.35,3.57,3.07,5.51,0.92
	c0.8-0.89,1.29-2.22,1.83-3.42c0.16-0.35,0.15-1.02-0.03-1.36c-1.42-2.78-1.29-5.95-1.57-9c-0.52-5.63-0.33-11.28,0.05-16.92
	c0.12-1.84,0.16-3.69,0.25-5.96c2.1,0.73,3.95,1.33,5.77,2.03c3.72,1.44,7.44,2.84,11.32,3.66c2.56,0.54,5.04,1.62,7.59,2.31
	c3.7,1,7.43,1.87,11.15,2.79c3.1,0.77,6.2,1.58,9.31,2.31c0.83,0.2,1.69,0.24,2.54,0.23c1.04-0.01,1.9-0.64,2.4-1.7
	c0.93-1.97,1.52-3.95,0.26-6.16c-0.48-0.84-0.58-2.04-0.76-3.1c-0.4-2.35-0.57-4.78-1.18-7.05c-0.63-2.34-0.8-4.69-0.88-7.09
	c-0.05-1.3-0.18-2.6-0.28-3.9c-0.04-0.48-0.17-0.98-0.1-1.43c0.51-3.55-0.06-7.1,0.1-10.65c0.04-0.95,0.24-1.9,0.34-2.85
	c0.11-1.09,0.21-2.18,0.27-3.27c0.06-0.95,0.01-1.92,0.1-2.87c0.2-2.28-0.81-4.23-2.98-3.71c-4.34,1.04-8.59-0.31-12.88-0.56
	c-3.01-0.17-6.01-0.43-9.01-0.75c-1.95-0.21-3.48,1.14-5.16,1.88c-0.45,0.2-0.62,1.31-1.01,2.23c-3.16,0.23-6.5,0.53-9.84,0.7
	c-3.8,0.19-7.61,0.25-11.42,0.36c-1.42,0.04-2.24-0.55-2.71-2.21c-0.39-1.36-0.6-2.78-0.89-4.18c-0.29-1.4-0.65-2.78-0.84-4.2
	c-0.4-2.92-0.86-5.81-1.64-8.63c-0.33-1.2-0.22-2.59-0.29-3.89c-0.12-2.11-0.31-2.28-2.02-2.36c-2.32-0.11-4.04,0.85-5.14,3.47
	c-1.27,3.01-3.48,5.1-5.47,7.31c-3.6,3.99-7.39,7.72-11.11,11.55c-4.62,4.76-9.53,9.13-13.6,14.66
	C-0.13,38.32-0.04,40.67,1.57,41.97z M9.23,35.88c2.09-2.33,4.18-4.67,6.34-6.91c5.22-5.42,10.69-10.51,15.45-16.57
	c0.65-0.83,1.46-1.47,2.44-2.44c0.59,3.42,1.14,6.49,1.65,9.56c0.17,1,0.12,2.1,0.44,3.02c0.71,2.05,1.27,4.04,1.16,6.37
	c-0.12,2.57,2.4,4.47,4.34,3.43c1.07-0.58,2.14-0.86,3.3-0.86c1.19,0,2.39-0.01,3.58-0.09c6.41-0.41,12.83-0.75,19.24-1.31
	c3.22-0.28,6.43-0.94,9.64-1.47c0.49-0.08,1.17-0.21,1.39-0.61c0.85-1.54,1.94-1.36,3.16-1.01c0.55,0.16,1.13,0.11,1.69,0.21
	c2.13,0.37,4.25,0.76,6.43,1.15c0.17,0.97,0.42,1.77,0.44,2.57c0.11,4.26,0.3,8.53,0.21,12.78c-0.14,6.46,0.76,12.72,1.97,18.96
	c0.27,1.38,0.3,2.81,0.04,4.28c-0.43-0.02-0.77,0.01-1.1-0.07c-2.39-0.58-4.78-1.15-7.16-1.78c-3.44-0.9-6.87-1.83-10.3-2.76
	c-2.33-0.63-4.66-1.25-6.98-1.89c-0.77-0.21-1.54-0.4-2.3-0.67c-3.33-1.16-6.66-2.3-9.96-3.54c-1.83-0.69-3.76-0.98-5.38-2.45
	c-1.28-1.16-2.68-0.98-4.01-0.01c-0.68,0.5-1.34,1.03-1.96,1.63c-1.2,1.16-1.29,1.57-0.71,3.33c0.73,2.21,0.93,4.5,0.84,6.85
	c-0.15,3.99-0.32,7.97-0.44,11.96c-0.06,1.85-0.01,3.71-0.01,5.56c-0.1,0.07-0.21,0.13-0.31,0.2c-0.31-0.36-0.65-0.69-0.91-1.1
	c-1.5-2.34-2.93-4.75-4.47-7.05c-3.23-4.8-6.43-9.65-9.82-14.28c-2.57-3.5-5.42-6.67-8.15-10c-3.25-3.96-6.48-7.94-9.74-11.89
	C8.04,37.53,7.99,37.26,9.23,35.88z"/>
</svg>
