<svg version="1.1" id="Слой_1" xmlns="http://www.w3.org/2000/svg" x="0" y="0" viewBox="0 0 501 129" xml:space="preserve"><style>.st0{fill:#141414}</style><path class="st0" d="M1.96 49.26c.02 0 .04-.01.06-.01.02-.02.05-.04.07-.07l-.13.08z"/><path class="st0" d="M492.6 71.03c-2.84-.55-5.67-1.12-8.56-1.67 2.54-.11 5.08-.25 7.6-.41 8.42-.51 11.12-1.78 6.39-3.97-4.65-2.16-11.8-3.29-19.8-3.95-1.24-.22-2.41-.53-3.75-.65-8.1-.73-11.23-1.01-10.66-1.97.55-.14 1.12-.25 1.74-.33 4.83-.61 3.46 2.17 8.84 1.68 2.78-.25 6.14-.07 6.62-1.73-5.26.05-7.97-1.76-13.59-1.77.47-.23.98-.47 1.53-.73 1.93.18 3.86.35 5.79.53.23.65 1.25 1.32 3.45 1.09 2.93-.31.09-.97.1-1.47 5.87-.43 12.56.89 18.45-.81-3.54-3.3-14.94-2.52-21.57-4.05l-2.55-1.44c2.38-.06 5.52-.07 5.75-.93.33-1.23-3.74-1.07-6.22-1.38-.02-.25.09-.5.35-.74.76-.02 1.46-.1 2.13-.21l.79-.06c7.42.23 13.96-.89 21.6-.96-.66-.73-1.74-1.22-3.03-1.56a.773.773 0 00-.13-.32c-.83-1.28-.92-2.83-7.25-3.09-1.07-.04-2.12-.12-3.17-.2 1.36-.12 3.24-.19 4.54-.24 1.5-.06 3.01-.08 4.52-.12-.37-.43-.35-1.15-1.15-1.25-14.39-1.78-28.27-4.29-44.67-3.49-.44-.28-.92-.58-1.46-.93 9.25-.49 18.68-.53 26.95.2 9.89.87 16.63-2 26.09-1.02-1.91-.69-3.97-1.2-5.98-1.68 2.01-.23 4.16-.49 6.6-.71-4.89-.96-8.87-1.77-8.76-3.15a.31.31 0 00.06-.22c.01-.03.01-.05.02-.08.76-1.6 8.95-.38 9.72-2.17-2.5-.8-5.97-.34-8.7-.7-7.3-.97-14.61-1.93-22.08-2.65 5.53.2 11.07.24 16.57-.5-3.76-.74-7.6-1.09-11.39-1.47-1.98-.2-4.38-.66-3.32-1.28 5.54-3.24-3.9-3.25-9.12-3.95-8.1-1.09-16.36-2.01-24.73-2.85 13.55-.34 26.32-.02 39.22 1.53 3.32.4 7.21 1.19 13.4.65-24.95-5.19-50.5-7.39-78.51-7l-.6.07c-16.59-1.69-33.84-1.78-51.04-2 1.01-.84 3.66-.68 5.72-.88h20.92c-.69-1.4-1.03-3.18-6.49-2.09-4.61.92-8.13.48-12.48.46-15.84-.08-31.86-1.06-47.47.6-10.46-.59-20.77-.53-31.42-.27-2.6-.11-5.19-.21-7.78-.33-13.93-.6-27.99-.95-42.07-1.23-16.55-1.34-33.41-2.14-50.7-1.06-25.84-.66-51.67-1.18-76.94 1.82-15.08.6-29.61 2.26-36.78 4.32 5.6.62 10.2-1 14.92-.41 2.97.37.58.95-.15 1.43-4.91.66-9.82 1.31-14.73 1.96 5.9-.19 10.27.92 15.47 1.6-5.2-.68-9.58-1.78-15.47-1.6-4.29.65-7.01 1.96-12.55 2.22 4.47 1.26 10.29.04 13 1.59-.67 1.33-3.1 1.62-7.42 1.63-12.77.02-23.35 1.85-36.51 4.45 13.39.49 22.54 1.74 30.77 3.65 2.7.62 4.47 1.23 2.49 2.28-1.29.69-2.1 1.41-2.1 2.21-3.45.34-5.59.89-2.13 2.71.32.17.44.32.42.46-6.06.73-12.04 1.57-18.3 1.85-9.08.41-9.72 3.71-17.87 4.16-.5.03-1.01.04-1.51.06-7.07 1.99-13.37 4.08-9.34 7.39l-.97.23-1.22-.05c-1.78.64-6.94 1.15-4.46 1.98 3.61 1.22 6.7 2.65 10.07 3.97-1.49.07-3.03.19-4.68.41-.75.1-2.74-.82-4.33-1.19-1.75-.42-3.68-.39-5.51 0-2.83 2.5-3.7 4.49 5.83 6.33 2.84.55 5.67 1.12 8.56 1.67-2.54.11-5.08.25-7.6.41-8.42.51-11.12 1.78-6.39 3.97 4.65 2.16 11.8 3.29 19.8 3.95 1.24.22 2.41.53 3.75.65 8.1.73 11.23 1.01 10.66 1.97-.55.14-1.12.25-1.74.33-4.83.61-3.46-2.17-8.84-1.68-2.78.25-6.14.07-6.62 1.73 5.26-.05 7.97 1.76 13.59 1.77-.47.23-.98.47-1.53.73-1.93-.18-3.86-.35-5.79-.53-.23-.65-1.25-1.32-3.45-1.09-2.93.31-.09.97-.1 1.47-5.87.43-12.56-.89-18.45.81 3.54 3.3 14.94 2.52 21.57 4.05l2.55 1.44c-2.38.06-5.52.07-5.75.93-.33 1.23 3.74 1.07 6.22 1.38.02.25-.09.5-.35.74-.76.02-1.46.1-2.13.21l-.79.06c-7.42-.23-13.96.89-21.6.96.66.73 1.74 1.22 3.03 1.56.02.1.05.21.13.32.83 1.28.92 2.83 7.25 3.09 1.07.04 2.12.12 3.17.2-1.36.12-3.24.19-4.54.24-1.5.06-3.01.08-4.52.12.37.43.35 1.15 1.15 1.25 14.39 1.78 28.27 4.29 44.67 3.49.44.28.92.58 1.46.93-9.25.49-18.68.53-26.95-.2-9.89-.87-16.63 2-26.09 1.02 1.91.69 3.97 1.2 5.98 1.68-2.01.23-4.16.49-6.6.71 4.89.96 8.87 1.77 8.76 3.15a.31.31 0 00-.06.22c-.01.03-.01.05-.02.08-.76 1.6-8.95.38-9.72 2.17 2.5.8 5.97.34 8.7.7 7.3.97 14.61 1.93 22.08 2.65-5.53-.2-11.07-.24-16.57.5 3.76.74 7.6 1.09 11.39 1.47 1.98.2 4.38.66 3.32 1.28-5.54 3.24 3.9 3.25 9.12 3.95 8.1 1.09 16.36 2.01 24.73 2.85-13.55.34-26.32.02-39.22-1.53-3.32-.4-7.21-1.19-13.4-.65 24.95 5.19 50.5 7.39 78.51 7l.6-.07c16.59 1.69 33.84 1.78 51.04 2-1.01.84-3.66.68-5.72.88h-20.92c.69 1.4 1.03 3.18 6.49 2.09 4.61-.92 8.13-.48 12.48-.46 15.84.08 31.86 1.06 47.47-.6 10.46.59 20.77.53 31.42.27 2.6.11 5.19.21 7.78.33 13.93.6 27.99.95 42.07 1.23 16.55 1.34 33.41 2.14 50.7 1.06 25.84.66 51.67 1.18 76.94-1.82 15.07-.61 29.59-2.27 36.76-4.33-5.6-.62-10.2 1-14.92.41-2.97-.37-.58-.95.15-1.43 4.91-.65 9.82-1.3 14.73-1.96-5.9.19-10.27-.92-15.47-1.6 5.2.68 9.58 1.78 15.47 1.6 4.29-.65 7.01-1.96 12.55-2.22-4.47-1.26-10.29-.04-13-1.59.67-1.33 3.1-1.62 7.42-1.63 12.77-.02 23.35-1.85 36.51-4.45-13.39-.49-22.54-1.74-30.77-3.65-2.7-.62-4.47-1.23-2.49-2.28 1.29-.69 2.1-1.41 2.1-2.21 3.45-.34 5.59-.89 2.13-2.71-.32-.17-.44-.32-.42-.46 6.06-.73 12.04-1.57 18.3-1.85 9.08-.41 9.72-3.71 17.87-4.16.5-.03 1.01-.04 1.51-.06 7.07-1.99 13.36-4.08 9.33-7.39l.97-.23 1.22.05c1.78-.63 6.94-1.14 4.47-1.98-3.61-1.22-6.7-2.65-10.07-3.97 1.49-.07 3.03-.2 4.68-.41.75-.1 2.74.82 4.33 1.19 1.75.42 3.68.39 5.51 0 2.85-2.49 3.71-4.48-5.81-6.32z"/></svg>