<svg version="1.1" id="Слой_1" xmlns="http://www.w3.org/2000/svg" x="0" y="0" viewBox="0 0 140 165" xml:space="preserve"><style>.st0{fill-rule:evenodd;clip-rule:evenodd;fill:#333}</style><path class="st0" d="M69.9 57.8c4.6-3.3 7.3-8.6 5.6-14.7-.9-3.4-2.8-6.1-5.5-8.3-2.4-2-5.5-3.6-8.8-4.9-1.2-.5-2.6-.4-3.6.2-9.1-.1-15.4 5.4-17.3 11.9-2.1 7.2 1.1 15.4 11.5 18.4 6.8 1.9 13.5.6 18.1-2.6zm-22-14.3c1.2-4.2 5.5-7.7 11.7-6.8.3 0 .5.1.8 0 1.6.7 3.1 1.6 4.3 2.6 1.6 1.3 2.8 3 3.4 5.1.9 3.5-.5 6.5-3.1 8.3-2.7 1.9-6.6 2.6-10.5 1.4-6.1-1.6-7.9-6.4-6.6-10.6z"/><path class="st0" d="M139.3 159.1c-1.1-1.4-3.8-4.8-4.3-5.5l-9.9-11.7-10.4-14.2c-1.1-1.7-2.2-4-3.7-5.7-1-1.1-2.2-2-3.6-2.6-2.2-1-5-1.5-8.1-1.6-3.6-.2-7.5 0-11.1.2 6.5-11.3 13.2-22.6 18.3-34.3 4-9.2 6.9-18.6 7.9-28.3.8-7.8-.5-16.7-4-25-3.5-8.4-9.3-16.1-16.9-21.2C86.2 4.4 76.9 1.6 67.2.5c-9.6-1-19.4-.3-27.9 1.8-4.4 1.1-8.7 2.5-12.7 4.3-4.1 1.8-8 4.1-11.3 7-2.2 1.9-4.1 4.1-5.7 6.4-2.3 3.3-4.1 6.9-5.6 10.4-6.3 15-4.6 29.2 1.3 42.6 7.9 17.7 23.6 33.9 37.9 48.3l-5.4.2c-.9 0-3.7-.5-5-.4-1 .1-1.7.4-2.2.7-.5.3-1.2.8-1.7 1.7-.8 1.3-1.4 4.3-1.8 5.1l-6.7 14.5-5.5 10.4-2.4 3.2c-.7.9-2.1 2.9-2.1 3.4.1 1.5.7 3.2 4 3.2l80.7 1.3h24.8c3.7.1 7.7.5 11.6.5 1.9 0 3.8-.1 5.6-.4.2-.1 4.5-2.6 2.2-5.6zM12.6 70.7c-5.3-12-6.9-24.7-1.3-38.1 1.1-2.6 2.4-5.3 4-7.9 1.5-2.4 3.3-4.7 5.6-6.6 2.8-2.4 6-4.3 9.4-5.8 3.6-1.6 7.4-2.8 11.3-3.8C49 6.6 57.7 6 66.2 6.9c8.3.9 16.3 3.2 22.5 7.3 6.6 4.4 11.4 11 14.4 18.3 3.1 7.4 4.3 15.3 3.6 22.3-1 9.2-3.8 18-7.5 26.7-8.1 18.8-20.6 36.7-29.6 54.9l-16.7-15.6c-14.8-14.8-32-31.5-40.3-50.1zM120.2 158H95.4l-73.9-1.2.1-.2 6-11.2 6.8-14.8c.2-.4.6-1.8 1-3 .9.1 1.9.2 2.3.2l12-.4 17.2 16c.3 1 1.1 1.9 2.4 2.3 2 .6 4.2-.2 5-1.9 2.9-6.5 6.4-13 10.1-19.5 3.5 0 8-.4 12.3-.3 2.7 0 5.3.2 7.1 1l4.1 5.7 10.9 14.8 10 11.8.6.7h-9.2z"/><path class="st0" d="M20.3 25c-.9-.4-2.1-.2-2.6.6-2.3 3.5-4.1 7.1-5.3 10.9-1.3 3.8-2 7.7-2.2 11.7-.1.9.8 1.7 1.8 1.7 1.1 0 2-.6 2-1.5.2-3.7.9-7.4 2.1-10.9 1.2-3.6 2.8-7 5-10.2.5-.9.1-1.9-.8-2.3zm-6 29.2c-.1-.9-1-1.6-2.1-1.5-1.1.1-1.9.9-1.8 1.8l1.3 6.7c.3.9 1.4 1.4 2.4 1.1 1-.2 1.6-1.2 1.3-2l-1.1-6.1zm51.4 72.4c.8-.6.8-1.6.1-2.3l-12-11.1c-.7-.7-1.9-.7-2.7-.1-.8.6-.9 1.6-.2 2.3l12 11.2c.8.6 2 .6 2.8 0zm10.2-87.4c2.1 3.3 3.1 6.9 2 10.6-.3.9.4 1.8 1.4 2 1 .2 2.1-.3 2.3-1.2 1.1-3.6.5-7.2-1-10.5C78.3 35.2 74 31 69.3 28c-.8-.5-2.1-.4-2.7.3-.6.7-.5 1.8.4 2.3 3.4 2.2 6.7 5.2 8.9 8.6z"/></svg>