<svg version="1.1" id="Слой_1" xmlns="http://www.w3.org/2000/svg" x="0" y="0" viewBox="0 0 140 165" xml:space="preserve"><style>.st0{fill:#333}</style><path class="st0" d="M129.5 130.8c-3.1 9.1-7.3 15.1-12.1 18.6v-.3c-3.5-9-11.8-14.2-17.8-20.8-3.3-3.6-6.3-7.5-9.4-11.4-.8-1-1.4-1.9-2.1-2.8 14.6-7.8 23.5.9 32.8 13.3 4.6 6.1 12.6-2.8 7.8-8.7-6.6-8.2-17.8-22.2-29-20.9-11 1.3-24.6 11.3-34.9.8-14-14.3-26.6-45.5-5.3-60.4 2.2-1.5 3.2-4.7 1.9-7.4C54.5 16.9 42.3 9.9 31 1.1 25.8-3 16.4 7.3 12.7 10.7-9.8 32 1.6 64.1 14.8 86.6c18.1 30.7 44.1 62.7 74.9 76 19.6 8.5 47-4.3 47.5-30.4.1-5.6-6.2-5.9-7.7-1.4zM18.7 17.7c9.6-11.8 25.3 3.9 32 14.2-5.1 4.6-8.4 10.2-10.2 16.4-2.6-4.4-7.6-7.2-11-10.6-4.6-4.6-8.5-9.9-12.7-14.9-.4-.5-.9-.6-1.5-.6 1.1-1.5 2.2-3.1 3.4-4.5zm16.5 83.5C23.7 86.5 9.6 66.3 7.9 45.7c-.6-7.4 1.9-14.4 5.5-20.4 2.3 6.5 6 11.7 10.2 16.8 3.8 4.6 9.9 11.3 15.8 11.1-2.5 14.3 2 30.6 10.5 43.1 5.4 8 13.8 20.9 24 21.2 2.6.1 4.9.1 7.1-.4 2.2 7 8.6 13.9 12.3 18.5 5.4 6.7 11.6 14.5 19.6 16.4-24.9 9.9-63-32.3-77.7-50.8zm76.1-61.4c-6.9-12.9-20.3-19.4-33.1-18-3.7.4-3.8 6.3 0 6.6 10.5.8 19.9 6.1 25.9 16.1 6.2 10.2 1.3 20.4 4.2 30.8.8 2.9 3.9 3.8 5.8 1.8 8.7-9.1 2.3-27.7-2.8-37.3z"/><path class="st0" d="M127 23.8c-14.4-26-39.4-26.3-63.4-21-1.7.4-1.8 3.8 0 4.1C70.7 8 77.6 8 84.7 8.1c15.8.1 26.4 5.3 35.6 20.1 5.2 8.4 7.7 18.5 9.5 28.4 2.2 12.2-1.4 23.4-1.1 35.4.1 3.5 3.9 4.5 5.5 1.7 11.9-20 3-51.4-7.2-69.9z"/></svg>