<svg xmlns="http://www.w3.org/2000/svg" viewBox="0 0 50 50"><path d="M48.91 50c-.04 0-.09 0-.13-.01L32.5 48.01a1.08 1.08 0 01-.63-1.84l2.77-2.77L25 33.77l-9.63 9.64 2.77 2.77c.29.29.39.73.26 1.12-.14.39-.48.67-.89.72l-16.3 1.97c-.33.04-.66-.07-.9-.31s-.35-.57-.31-.9L1.99 32.5c.05-.41.33-.76.72-.89.39-.13.83-.03 1.12.26l2.77 2.77L16.23 25 6.6 15.36l-2.77 2.77c-.29.29-.73.39-1.12.26-.39-.14-.67-.48-.72-.89L.01 1.21C-.03.88.08.55.32.31s.56-.35.9-.31L17.5 1.99c.41.05.76.33.89.72.13.39.03.83-.26 1.12L15.36 6.6 25 16.23l9.63-9.64-2.77-2.77c-.29-.29-.39-.73-.26-1.12.14-.39.48-.67.89-.72L48.77 0c.33-.04.66.07.9.31s.35.57.31.9L48 17.5a1.08 1.08 0 01-1.84.63l-2.77-2.77L33.76 25l9.63 9.64 2.77-2.77c.29-.29.73-.39 1.12-.26.39.14.67.48.72.89l1.96 16.13c.02.09.04.18.04.28 0 .6-.48 1.08-1.08 1.08l-.01.01zm-13.95-3.87l12.7 1.54-1.54-12.71-1.96 1.96c-.42.42-1.11.42-1.53 0L31.47 25.77c-.2-.2-.32-.48-.32-.77 0-.29.11-.56.32-.77l11.16-11.17c.42-.42 1.11-.42 1.53 0l1.96 1.96 1.54-12.7-12.7 1.54 1.96 1.96c.42.42.42 1.11 0 1.53L25.76 18.53c-.42.42-1.11.42-1.53 0L13.06 7.36c-.42-.42-.42-1.11 0-1.53l1.96-1.96-12.7-1.55 1.54 12.71 1.96-1.96c.42-.42 1.11-.42 1.53 0l11.16 11.17c.42.42.42 1.11 0 1.53L7.36 36.93c-.42.42-1.11.42-1.53 0l-1.96-1.96-1.55 12.71 12.7-1.54-1.96-1.96c-.2-.2-.32-.48-.32-.77 0-.29.11-.56.32-.77l11.17-11.17c.2-.2.48-.32.77-.32.29 0 .56.11.77.32l11.16 11.17c.42.42.42 1.11 0 1.53l-1.97 1.96z" fill="#eee"/></svg>