<svg version="1.1" id="Слой_1" xmlns="http://www.w3.org/2000/svg" x="0" y="0" viewBox="0 0 523.1 201.2" xml:space="preserve"><style>.st0{fill:#f24841}</style><path class="st0" d="M455.6 26.6c5-.4 6.3 7.5 12.2 5.1 4.4-1.8 9.3.7 13.8-2.1-4.5.6-8.2-2.5-12.6-1.9-4.5.8-8.6-3.1-13.4-1.1zm9.2-3.5c-5.1-2.4-5.5-2.5-12.7-.8 4.2-1.1 7.9 3.6 12.7.8zM84.7 171.6c-.4.1-.9.9-.8 1.1 1 1.9 2.8.8 4.3 1.2.2.1.5-.1 1.3-.2-.7-.5-.9-.7-1.2-.8-1.2-.3-2.1-1.8-3.6-1.3z"/><path class="st0" d="M515.6 119.7c-1-.1-2-.1-3-.1-.1.1-.2.1-.4.2.1-.1.2-.1.4-.2-1.3-1.7-4.2-.6-5.6-2.9 5.5-1 10.8.8 15.8-1.4-13.8-5.1-28.1-4.1-42.4-3.9.1 1.3-.1 2.6-.4 3.9.3-1.3.5-2.6.4-3.9-2-.8-2-4.3-5-3.9-1.2-2.2-4.5.8-5.6-2.7 4.1-.1 7.4-1.3 7.9-6.2.1-1.1 1.7-2 2.6-3 2.7-.4 3.8-2 3.6-4.7 1-.7 1.5-1.6 1.6-2.8 4.3-2.8 4.5-3.6 1.8-7.7-.2-.5-.5-1-.6-1.6l.4-.3c1.3.2 2.7.6 3.1-1.4-3.7-4.4.3-6.4 3.4-8.4-3.4-2.9-7.2-1.4-10-3.7-2.4-2-6.5-4-5.5-6.6 1-2.9 1.1-7.5 5.5-8.7.8-1.6.5-3.2.2-4.9.6-4.1-1.5-6.4-5-7.7-3.4-1.3-6.8-2.6-10.5-2.5-8 .2-15.4-2.2-23.4-4.3 2.2-1.6 5.6-1.7 4.5-4.7-.7-1.9-2.7-1.3-4.1 0-2.2.1-4.4.3-6.6.4-1-.6-2.1-1.2-3.1-1.8 2.5-2.8 6-1.9 9.9-2.5-4.8-2.4-9.3-1.5-13.4-1.7-7.6-.4-9.2-.4-14.4-6.1-4-4.3-9.3-4.8-14.5-5.6-10.7-2.8-21.8-3-32.7-4.4-12-1.5-24 .1-36-.1-4.6-.1-8.9.8-12.1 4.5-.5.2-1 .3-1.5.5-.4-.4-.9-.6-1.5-.6-1.4-1.2-2.6-1.3-3.6.6-3.6-.4-7.1-1.3-10.6-1.9-3.9-.6-8.1.5-11.4-.7-11.2-4-22.3-1.4-33.4-.8-2.8-.1-5.6-.7-8.3.2-3.5.2-6.9-2.4-10.4-.3l1.8 1.8-1.8-1.8c-1.6 0-3.1 0-4.7.1-8.9-2.7-18.1-1.3-27.2-1.4h-6.5c-2.3-.5-4.6-.4-6.9 0-1.6-.7-3.2-1.6-4.9-.1-1.1 0-2.3-.1-3.4-.1-2.1-.2-4.3-.3-6.4-.5-3.3-1.8-6.8-1.9-10.4-1.2-1.7 0-3.4-.1-5.1-.1-8.4-.1-16.7-.6-25-1.2-8.5-.6-17.3-1.7-25.4 2.6-.4-.2-.8-.5-1.1-.8.6-1 .6-1-.1-.1-.5.3-.9.6-1.3 1-1-1.3-2.1-1.2-3.6-.7C102 5.3 94 6.4 86 5.8c-7.3-.6-14.4.8-21.6 1.9-3.9.6-7.4 1.2-11 1.3-11.7.2-17.9 8.2-23.5 17.1-.8 0-1.6-.1-2.4.1-1.1.2-2.2.7-1.9 2 .1.5 1.1 1 1.8 1.1.7.2 1.5.1 2.3.2-8.6 9.1-18.1 17.2-29.9 24.1 14.9 3.2 29.2 3.3 43.5 3.1-.4 3-.4 3.1-3.1 3.4-7.1.7-12.6 3.7-14.9 11.3-4.7-1.4-8.8-4.2-14.6-7.8C17.4 76 27.7 79.7 38 83.4c-3 4.1-3 4.1-2.2 8 1.9 5.4 7.9 4.9 11.3 8.1-.6 5.1-5 8.5-5.7 13.6 1.2.7 2.3 1.3 3.5 2-1.2-.7-2.3-1.3-3.5-2-4.3 2.3-.9 5.6-1 8.4-6.6 4.6-12.5 10.8-21.5 10.5-2.2-.1-2.4 1.8-2.4 3.6 0 2.2 1.3 3 3.2 2.9 3.5-.2 6.6.7 9.5 2.4 6 3.4 12.5 4.2 19.2 4.4l-.1.2c-.3 2.6-2 6.4 3 5.6 10.8-1.7 20.8.7 30.7 4.5 1.2.3 2.4.7 3.6 1-1.2-.4-2.4-.7-3.6-1-.6 1.8-3.3 2.1-3.2 4.4-4.1-2.2-7 2.6-11 1.1.5 3.1 1.4 4.8 4.2 5.1 10.1 1.1 19.6 5.6 30 4.9-.6 4-3.5 2.6-5.8 2.6-1.2 0-2.1.6-2 2.1 0 1.4.9 2 2.1 2 6.4 0 12.7 1.1 19 1.7 8 .8 15.6 3.8 23.7 3.6 3.8 1.3 7.7 1.4 11.6 1.9 26.3 4.9 52.8 8.1 79.2 11.8 8.3 2.3 16.7 3.4 25.3 3.3 15.8.3 31.5 2.2 47.4 1.2 12.7-.8 25.5-.5 38.2-1.4 7.5-.1 15 .8 22.4-1.6-5.2-2.2-10.5-1.4-15.8-1.3-1.1-.1-2.1-.1-3.2-.1v-1.7c12.1-1.5 24.4-.6 36.5-1.2 6.4-.3 12.3-3.5 18.8-2.4 1.6.2 3.9.6 4.3-1.1.6-3-2.2-2.1-3.8-2.4-1.8-.3-3.8.4-5.3-1.3 1.4-.1 2.7-.3 4.1-.4 13-.5 24.9-4.2 34.8-13.3 3-1.7 6.4-2.8 8.9-5.2 13.6-2.6 26.1-8.6 39.5-12.1 5.2 1.2 8-3.1 11.7-5.3.1-.2.1-.4.1-.6 0 .2 0 .4-.1.6 2.3 0 5 1.1 6.7-1.6 4.2-3.3 10.7-4.4 10.8-11.6.5-.5 1-1.1 1.4-1.6 3.4-2.3 6-5 3.6-9.4-1.4-2.5.8-4.1 1.1-6.1-.3-1.3-.9-1.3-1.6-.5z"/></svg>