<svg version="1.1" id="Слой_1" xmlns="http://www.w3.org/2000/svg" x="0" y="0" viewBox="0 0 523.1 201.2" xml:space="preserve"><style>.st0{fill:#f66a5e}</style><path class="st0" d="M455.65 26.64c5-.35 6.34 7.49 12.18 5.14 4.37-1.76 9.32.7 13.76-2.15-4.45.58-8.22-2.55-12.62-1.87-4.51.7-8.56-3.19-13.32-1.12zm9.14-3.55c-5.08-2.42-5.48-2.45-12.71-.75 4.2-1.18 7.97 3.58 12.71.75zM84.71 171.65c-.37.15-.89.95-.78 1.15.99 1.87 2.85.78 4.29 1.18.24.07.53-.08 1.33-.22-.72-.49-.92-.72-1.17-.78-1.27-.33-2.13-1.93-3.67-1.33z"/><path class="st0" d="M515.62 119.65c-1-.05-2-.09-2.99-.14-.1.06-.23.11-.36.15.13-.05.25-.1.36-.15-1.33-1.69-4.23-.56-5.59-2.88 5.51-1.02 10.76.78 15.83-1.37-13.8-5.08-28.14-4.1-42.39-3.91.14 1.3-.09 2.6-.41 3.91.32-1.31.55-2.61.41-3.91-2.04-.81-2-4.35-4.98-3.94-1.24-2.18-4.55.82-5.63-2.67 4.14-.08 7.36-1.31 7.87-6.18.11-1.07 1.72-1.98 2.64-2.96 2.68-.39 3.81-2.02 3.64-4.69.96-.68 1.55-1.58 1.59-2.79 4.31-2.76 4.5-3.6 1.77-7.7-.23-.52-.45-1.04-.65-1.57l.4-.33c1.3.16 2.69.55 3.07-1.39-3.73-4.39.29-6.38 3.42-8.4-3.36-2.89-7.18-1.36-10-3.66-2.41-1.96-6.45-4.04-5.53-6.61 1.05-2.93 1.14-7.5 5.46-8.67.78-1.6.47-3.25.18-4.89.58-4.09-1.52-6.4-5.05-7.73-3.4-1.29-6.83-2.63-10.52-2.53-7.98.2-15.41-2.24-23.43-4.26 2.18-1.62 5.56-1.68 4.53-4.71-.66-1.94-2.72-1.33-4.11.04-2.21.15-4.42.29-6.63.43-1.04-.59-2.09-1.18-3.12-1.78 2.48-2.82 5.97-1.9 9.89-2.53-4.77-2.37-9.26-1.47-13.42-1.66-7.62-.35-9.19-.41-14.43-6.08-4-4.33-9.27-4.83-14.5-5.65-10.72-2.8-21.78-2.96-32.67-4.36-11.97-1.53-23.99.11-35.99-.09-4.64-.08-8.85.75-12.07 4.49-.5.16-.99.32-1.48.51a2.91 2.91 0 00-1.48-.62c-1.4-1.16-2.65-1.34-3.57.58-3.58-.43-7.07-1.35-10.64-1.87-3.89-.56-8.15.5-11.41-.66-11.2-3.97-22.26-1.43-33.39-.84-2.78-.07-5.56-.74-8.32.17-3.47.16-6.85-2.45-10.38-.35.6.61 1.19 1.22 1.79 1.83-.6-.61-1.19-1.22-1.79-1.83-1.57.02-3.13.03-4.7.05-8.94-2.7-18.09-1.33-27.16-1.38l-6.49-.03c-2.31-.52-4.61-.41-6.92.04-1.62-.68-3.23-1.57-4.9-.12l-3.4-.12-6.45-.45c-3.32-1.8-6.83-1.85-10.42-1.18-1.7-.05-3.41-.09-5.11-.14-8.35-.14-16.66-.64-24.99-1.25-8.54-.62-17.27-1.72-25.39 2.57-.39-.24-.77-.51-1.12-.81.61-.95.6-1-.09-.07a5.7 5.7 0 00-1.33 1.01c-1-1.34-2.12-1.23-3.64-.74-7.73 2.54-15.68 3.62-23.75 3.01-7.32-.55-14.45.8-21.57 1.95C60.53 8.32 57 8.91 53.37 9c-11.67.25-17.9 8.21-23.45 17.12-.8.01-1.62-.07-2.4.07-1.09.19-2.19.71-1.93 2.03.1.5 1.14.95 1.83 1.15.73.22 1.55.14 2.34.17-8.64 9.13-18.13 17.2-29.91 24.1 14.94 3.25 29.22 3.29 43.52 3.07-.44 3.03-.43 3.08-3.07 3.36-7.1.74-12.59 3.65-14.9 11.28-4.71-1.42-8.81-4.25-14.57-7.76 6.7 12.37 16.95 16.11 27.27 19.79-3.05 4.06-3.05 4.06-2.18 7.96 1.88 5.39 7.88 4.87 11.27 8.11-.61 5.07-4.97 8.53-5.67 13.56 1.15.66 2.31 1.32 3.46 1.98-1.15-.66-2.31-1.32-3.46-1.98-4.31 2.34-.87 5.61-.99 8.45-6.63 4.64-12.5 10.83-21.54 10.49-2.2-.08-2.43 1.83-2.4 3.63.03 2.17 1.33 3.02 3.22 2.88 3.45-.25 6.62.7 9.54 2.36 5.99 3.4 12.5 4.19 19.17 4.42l-.07.18c-.32 2.6-2.04 6.35 2.99 5.56 10.75-1.69 20.81.7 30.71 4.54l.04.04c1.2.33 2.4.66 3.59 1.02-1.19-.36-2.39-.7-3.59-1.02-.62 1.78-3.3 2.05-3.15 4.4-4.06-2.17-7.03 2.58-11.02 1.08.52 3.09 1.44 4.84 4.2 5.14 10.08 1.08 19.62 5.58 29.98 4.85-.63 3.98-3.5 2.57-5.85 2.55-1.24-.01-2.07.63-2.02 2.05.04 1.42.91 1.97 2.14 1.96 6.4-.01 12.69 1.09 19.04 1.72 7.96.79 15.57 3.8 23.66 3.62 3.75 1.34 7.71 1.4 11.59 1.89 26.27 4.86 52.76 8.11 79.2 11.79a91.591 91.591 0 0025.3 3.28c15.8.31 31.51 2.18 47.4 1.24 12.7-.75 25.48-.47 38.2-1.38 7.48-.11 15.05.84 22.42-1.65-5.17-2.18-10.53-1.38-15.82-1.31-1.08-.05-2.15-.09-3.23-.14.01-.56.02-1.13.04-1.69 12.14-1.52 24.35-.64 36.53-1.18 6.38-.28 12.34-3.46 18.83-2.37 1.6.2 3.91.57 4.26-1.06.64-3-2.22-2.15-3.8-2.45-1.78-.33-3.78.37-5.26-1.26 1.37-.13 2.73-.34 4.1-.39 13.05-.49 24.88-4.22 34.76-13.26 3-1.72 6.38-2.77 8.94-5.25 13.57-2.64 26.13-8.65 39.45-12.13 5.22 1.22 8-3.06 11.67-5.32.11-.19.15-.4.14-.63 0 .23-.04.44-.14.63 2.34-.03 4.96 1.13 6.66-1.61 4.2-3.29 10.67-4.4 10.77-11.61.47-.53.95-1.06 1.43-1.59 3.42-2.27 6.03-4.99 3.63-9.42-1.38-2.53.8-4.06 1.07-6.09-.4-1.04-.98-1.05-1.69-.32z"/></svg>