<svg version="1.1" id="Слой_1" xmlns="http://www.w3.org/2000/svg" x="0" y="0" viewBox="0 0 532 241" xml:space="preserve"><style>.st0{fill:#f6695e}</style><path class="st0" d="M466.52 129.13c-10.01 2.25-20.06 4.11-30.42.64-1.1-.37-3.5 1.21-3.7-.88-.07-.78.59-1.89 1.46-2.36 1.85-.99 5.08-1.05 4.37-3.52 4.46-2.64 12.34-1.31 15.31-6.37-4.45.73-8.5 1.38-12.55 2.04l.27-4.27c4.21-.35 8.1-1.28 11.73-2.84-1.7-.89-4.33.24-5.78-1.77 4.91-1.1 9.76-2.18 14.6-3.26 4.37-.34 8.21-2.59 12.89-1.83-4.92-.85-9.88-1.86-15.16-1.28-.98-.55-1.08-1.16-.29-1.84.88.07 1.73 0 2.56-.21 7.72 1.13 13.43-2.05 19.48-4.66-6.67 3.31-15.44-1.16-21.85 3.16-5.8-.17-11.61-.35-18.2-.55 3.25-3.02 6.96-2.57 10.08-3.2 7.01 1.53 9.11-2.8 11.82-5.31 2.85-2.65-1.71-6.54-6.85-6.22-3.43.22-6.8.91-10.19 1.39-2.98-.2-5.97-.4-8.32-.56-4.64-8.76 7.73-8.87 15.19-12.69-7.59-1.04-10.86 3.06-16.11 2.69-4.01-.28-8.18.04-6.42-4.18-6.51 2.12-13.96 1.74-20.61 3.77-2.25.69-6.8 1.42-7.87-2.04 3.05-.45 4.3-2.01 5.06-3.87 7.22.65 14.55 1.97 21.08-1.6-2.88-.09-5.75-.19-8.63-.28-1.31-.02-2.62-.03-3.93-.04 4.79-3.23-5.79-4.39-2.36-8.13.82-.89-4.97-.13-7.33.32-4.25.82-8.45 1.47-12.79 1.03-4.57-.46-8.59.3-12.44 1.85-3.09-.35-6.49.59-9.61-.77 6.51-4.64 16.03-3.41 22.82-6.69 6.23-.78 12.38-1.75 18.22-3.47 3.37-1.27 6.74-2.54 10.11-3.82 7.19.12 15.22-1.48 19.62 4.99-.7-3.96.83-8.14-7.23-8.94-2.21-.22-4.09-2.03-6.12-3.11 0 0-.19-.11-.19-.1-.29-2.18-1.85-5.16-4.06-5.17-5.56-.03-10.54-3.33-16.2-1.35-8 2.79-17.26.52-25.34 3.09-1.29.41-4.62-.01-4.8-.45-2.2-5.53-8.38-2.48-12.85-2.98-1.63-.11-3.27-.22-4.9-.32-.57-4.02-5.39-3.93-8.75-3.25-13.49 2.72-27.41.08-40.83 1.94-5.57.77-10.82.43-16.21-.14-16.37.3-32.68 1.12-48.92-1.83-7.39-1.34-15.46-.61-23.18-1.09-3.73-.23-8.54 2.25-13.33.56-14.9-5.25-31.98-4.88-47.49-8.66-3.36-.82-7.42-1.7-11 .16.01-.03.03-.06.04-.09-3.1 1.51-6.4 2.49-10.27 1.99-.05-.04-.1-.07-.15-.12h-.26c3.25-6.02 3-6.29-5.17-5.45-1.68.17-3.27.73-4.9 1.11-.94-2.43-3.7-5.4-6.64-3.75-6.16 3.45-14.41 1.41-20.19 4.71-6.93-.55-7.4-5.64-11.83-8.01-1.54-.82-2.05-2.93-4.73-1.99-1.81.64-4.68 2.45-4.37 2.95 3.9 6.22-.47 8.46-7.96 11.82-8.06 3.62-6.86 4.89-11.6 5.16-2.59.15-5.26.61-7.77.35-6.21-.64-10.93 1-15.05 3.91-11.91 6.3-13.06 8.23-9.73 16.34-3.05.08-7.35.28-7.01 2.65.71 4.94-5.93 1.62-7.44 3.65 8.31 7.13 12.13 7.8 24.69 4.35 4.91 3.28-.4 4.99-2.37 7.21-.93.4-1.85.81-2.78 1.21-.72.34-1.31.29-1.78-.1 1.06 2.56.12 4.6-3.54 6.06-2.79 1.11-.66 2.36.02 3.54-5.36 1.29-5.57 1.39-2.89 3.95 2.16 2.07.2 2.44-1.95 2.84-2.02.38-4.24-.83-7.4 1.01 4.51 2.01 6.54 4.89 3.71 8.4.27 4.09 2.86 7.51 6.55 10.61-3.74 2.2-2.8 3.52 1.77 3.48 2.81-.03 7.22-2.15 4.01 2.36-1.53 2.14.82 3.31 2.54 4.59 2.9 2.16.25 3.83-.95 5.63-.27.66-.55 1.33-.82 1.99-1.87 2.15-3.24 4.6-7.09 5.56-6.16 2.71-1.26 4.11 1.67 5.18 1.66.6 4.21.06 6.35.04 6.15 1.83 6.84 2.44 7.92 6.81.07.29.28.56.42.84-3.69 1.5-6.41 5.01-10.69 5.28 2.05.25 4.72 1.34 3.51 2.03-9.49 5.4 4.09 3.02 3.51 5.22.89 2.37 4.24 4.6.41 7.24-.64.44 1.28 1.27 2.59 1.44.54 1.17-.55 1.71-1.82 2.18-7.79-1.7-11.44.91-13.07 5.8-.13.38-1.98.71-1.93.86.98 2.48 5.2 2.74 7 4.72.9.99 1.85 1.96 2.77 2.94-.25.38-.38.79-.39 1.2l-.51 3.46c-3.8 1.46-4.25 2.99.33 3.9 2.37.47 5.07.16 7.63.2 2.48 5.15 8.72 5.29 15.05 5.32.16-.05.34-.08.52-.11-.18.02-.36.06-.52.11.16 1.24.79 2.72 2.57 2.76 13.08.29 24.41 5.65 37.43 5.99 8.33.82 16.66 1.46 28.01.65-11.31-4.73-22.76-4.43-30.53-9.46-.37.24-.74.47-1.11.71l1.02-.78c.02-1.18.05-2.36.07-3.54 6.96 1.05 13.78 2.54 20.94 2.98 1.53.09 3.8 1.7 4.53.6 4.26-6.35 12.02-2.47 18.15-3.22 8.02 2.92 15.81-.77 23.91-.47 12.36.45 24.43 3.67 36.99 1.9l23.97 3.57c.55 3.19 1.09 6.04-6.23 4.56-4.5-.91-4.68-.48-9.2 2.45 8.25 2.42 17.14.79 25.77 1.47 1 .08 2.53-.54 3.15-1.15 1.85-1.81-1.4-1.34-2.19-1.89-2.79-1.95-2.01-2.92 1.54-3.4 7.89.45 9.5 4.48 10.64 8.78-8.48 1.91-17.29 1.23-25.97 1.59-2.75-1.11-5.49-2.09-8.24 0l-.16.04c-6.96-.39-13.93-.66-20.88.11-2.47.51-4.71 1.64-7.5 1.27.31-.9.62-1.79.93-2.69 1.2-.23 2.58-.45 2.5-1.51-.03-.43-.87-1.17-1.4-1.19-2.62-.13-2.07 1.3-2.2 2.37-10.44-.78-20.87-1.57-31.31-2.35-2.93-1.56-6.81-2.53-9.19-.54-2.53 2.11.99 4.2 2.83 6.03.91.91 2.27 1.6 3.45 2.39v.05h.08l-.08-.07c2.82-.08 5.71-.36 7.82 1.4-3.51 2.6-1.1 3.32 2.47 3.67 1.51-.06 2.51-.57 2.98-1.56l.03-.02c3.06-.88 7.42-3.16 9.08-.32 3.03 5.17 10.34 4.3 14.82 7.09 3.06-2.61 1.39-6.93 7.76-6.95 2.31-.07 4.62-.13 6.94-.2 1.06-.45 2.39-.75 3.14-1.37 1.7-1.43 3.56-1.65 5.42-.46.79.5 1.29 1.57 1.15 2.32-.27 1.55-2.38 1.38-4.02 1.5-2.56.18-5.18.17-7.68.54-1.95.29-2.5 1.56-2 2.79.5 1.24 1.75 1.93 3.84 1.49 4.39-.93 8.66-2.74 13.46-.94 10.51-.17 21.04.71 31.52-.33 6.36.57 11.7-.91 16.29-3.86 10.31 1.81 20.84 1.96 31.39 2.02 15.43 1.46 31.13.12 46.52 2.12 2.06.27 4.3-.1 6.46-.19l36.05-1.62c3.52.35 7.56-.81 10.32 1.71-17 7.29-36.15 7.86-55.37 8.68-11.52.49-22.99.35-34.49.42-2.25.01-4.65.06-4.8 2.02-.1 1.32 1.7 1.83 3.49 2.17 11.8 2.26 23.68 3.4 35.68.9 2.09-.43 3.59-1.29 5.68.04 5.29 3.36 11.08 1.69 17.03.87 4.88-.67 8.19-3.48 12.81-3.95 7.36-.75 14.76-1.64 21.22-4.03 5.58-2.06 8.49-6.61 14.43-8.64l-10.37.12c2.44-1.7-1.21-6.14 5.61-5.86 7.99 2.89 11.82-1.85 17.59-4.49-3.98.56-7.51-.55-10.6.93-3.58.14-6.56-.36-7.3-3.24-1.58-.23-2.97-.15-4.25.13 1.28-.28 2.67-.37 4.25-.13l4.5-.57c1.45.18 2.49-.27 3.3-1.04.82-.15 1.64-.32 2.44-.52 2.89-.06 6.01.42 8.09-1.59 4.28-1.36 8.58-2.71 12.84-4.1.74-.24 1.87.41 2.25-.82 1.25-4.1 1.34-4.22 2.78-4.39 4.56-.56 8.59-1.71 12.73-4.64-14.43 1.8-26.99 5.7-40.86 5.85.47-3.66 6.79-2.35 7.01-5.31-3.93-2.5-7.14.61-10.76.67-3.54.06-4.55-1.21-4.06-3.38 6.96.2 13.48-1.4 20.16-2.32 4.22-.25 8.05-1.12 11.63-2.65-1.88-1.95-4.04-1.99-5.96-2.39.02-.03.06-.04.08-.07h-.18c-4.59-6.68-4.55-6.7 6.31-9.03.4-.09.79-.17 1.19-.26 4.9.36 9.16-.35 12.96-3.2-4.64-2.04-8.19.28-11.95-.09-5.51-.55-6.78-1.58-2.99-4.82 3.18-2.72 2.45-3.55-1.9-3.65-2.23-.05-3.3-.42-2.98-1.84.43-1.9 2.38-.87 3.97-.87 7.73.01 14.18-2.45 21.53-4.5-4.04-3.02-7.44-1.75-10.66-1.26-4.72.72-8.71.41-10.81-3.09.39-.44.71-.9.95-1.39 11.55-1.73 20.22-.18 34.58 6.18 1.94-.86 1.26-1.86.54-3.01-.44-.7-4.36-4.86-5.39-5.08-5.78-1.23-2.59-3.46-1.33-5.48.89-1.58 4.55-1.44 4.66-3.52 4.9-.67 10.79 1.34 14.79-2.89-6.22.5-10.93-3.48-17.42-2.02z"/><path class="st0" d="M430.45 71.23c0 .01 0 .02-.01.03.01 0 .03-.01.04-.01l-.03-.02zM410.01 218.6H410c-.01 0-.06-.27-.06-.27l-.09.32c-.09.03-.17.07-.25.1h.23l.18-.15zM31.25 146.9c.52.06 1.02.07 1.5.04-.28-.03-.55-.05-.8-.05-.23-.01-.47.01-.7.01zm481.62-55.96c.01-.03.01-.05.01-.07-.04.01-.09 0-.13.02l.09.06c.02-.01.03-.01.03-.01zm7.72-1.69c.24-1.01-3.45-2.63 1.4-2.37 2.82.15 5.99 1.22 8.2-2.03-8.93-2.35-16.63-.98-24.16 1.83.63 3.22 7.86.23 6.85 4.19 2.62-.61 6.87 1.93 7.71-1.62z"/><path class="st0" d="M512.85 90.94c-4.53.09-9.21-.68-14.6.93 11.06 6.92 22.1 2.64 33.96 2.1-6.72-2.93-14.17.75-19.36-3.03zm-38.69-32.8c-6.13 1.18-15.27-5.76-18.99 3.63 7.63 1.13 13.53-.66 18.99-3.63zM279.6 226.91c-2.91-.2-7.99-.45-7.59 2.73.32 2.57 4.85 1.49 7.61 1.57 3.27.1 6.66.31 10.36-1.35-3.39-2.73-7.17-2.73-10.38-2.95zM32.72 68.45c.06.03.1.05.16.09.07.09.16.15.24.22-.06-.14-.1-.28-.17-.43-.08.04-.15.07-.23.12zm-18.24-.71c7.31-1.39 12 4.41 18.24.71-8.87-4.95-8.95-4.93-18.24-.71zm472.57 46.22c8.46.46 14.75.9 20.4-3.5-7.45-.52-13.09.8-20.4 3.5zM47.69 19.76c3.52-.16 6.88-.32 10.9-.51-7.07-4.45-7.07-4.45-10.9.51zm466.26 44.75c-5.05-.92-9.02-1.16-14.4 1.65 6.43 1.87 10.21.92 14.4-1.65zm-42.11 7.63c6.66 2.24 10.03 1.52 14.48-1.13-5.41-1.16-8.79.03-14.48 1.13zm29.74 13.14c-6.02 1.08-10.13 1.82-14.23 2.56.22.67.43 1.35.65 2.02 3.97-1.18 9.27.43 13.58-4.58zm-18.78-33.2c1.73-.63 4.44-.56 4.27-2.84-1.86-1.18-3.82-.58-5.72.06-1.54.52-3.15 1.22-2 2.59.76.9 2.29.62 3.45.19zm-52.29 19.13c4.31-.93 8.63-1.86 14.04-3.03-11.01-.6-11.04-.6-14.04 3.03zm-.06.02l.04.02.03-.03c-.03 0-.05 0-.07.01zM14.08 143.39c-.69-.43-1.13-1.8-2.34-.33-.14.17.28.54.35.83.51 2.24 1.81 3.75 5.71 3.5 4.47-.28 8.96-.46 13.45-.5-1.31-.15-2.75-.58-4.41-1.44-4.19-.87-7.98-2.9-12.76-2.06zm182.45 57.56c.74-1.74-1.09-2.66-2.72-3.2-1.89-.32-3.01.1-3.19 1.07-.25 1.33 1.01 2.22 2.65 2.74 1.24.39 2.87.33 3.26-.61zm-55.13 11.02c1.74 2.03 5.33 2.3 7.68 2.49 5.89.46.95-1.83 1.08-2.92-2.9.13-5.9-.66-8.76.43zm360.01-20.12c-2.29-.67-4.12-.03-5.6 1.15-.93.75-.88 1.65.58 1.98 2.39.54 4-.5 5.07-1.34 1.08-.92.99-1.49-.05-1.79zM12.94 107.99c1.11-.41 1.32-1.42.52-2.11-1.22-1.04-2.91-.57-4.46-.3-3.22.31-5.77-2.5-9.68-.83 1.62 3.92 5.44 3.35 9.53 2.31 1.02 1.04 2.48 1.52 4.09.93zm272.68 116.85c2.28 1.33 4.59 1.15 8.14.1-3.16-1.34-5.63-1.78-8.14-.1zM419.47 67.23c2.88.1 5.76.19 8.63.28-2.7-2.61-5.6-2.39-8.63-.28zM6.7 85.14c.46-.02 1.31-.75 1.21-.89-.51-.72-1.28-1.35-2.01-2.06-.91.79-1.69 1.18-1.63 1.48.17.87 1.05 1.53 2.43 1.47zm489.33-30.4c.99-.28 1.72-1 2.56-1.54-1.14-.07-2.3-.24-3.41-.14-1.08.1-2.09.52-3.13.81.83 1.33 2.49 1.29 3.98.87zm2.64-1.61l-.09.06c.07 0 .14.01.21.02l-.12-.08zM29.28 120.38c-.18-.46-.53-.88-.82-1.32-.3.16-.73.28-.89.49-.43.61-.12 1.09.83 1.25.25.04.91-.33.88-.42zm470.47-67.97c-.25.21-.5.41-.74.62.2-.05.41-.09.57-.17.13-.08.11-.29.17-.45zm-1.08.72l.12.08.21-.18c-.11.03-.21.07-.33.1z"/></svg>