<svg version="1.1" id="Layer_1" xmlns="http://www.w3.org/2000/svg" x="0" y="0" viewBox="0 0 1254.13 1256.17" xml:space="preserve"><style>.st1{fill:#fff}</style><path fill="none" d="M-29.24-30.16h1314.25v1314.25H-29.24z"/><path class="st1" d="M831.87 689.54c106.5-170.96 85.49-398.72-63.04-547.26C682.32 55.77 568.94 12.51 455.55 12.51S228.78 55.77 142.27 142.27c-173.02 173.02-173.02 453.54 0 626.55 86.51 86.51 199.89 129.76 313.28 129.76 81.3 0 162.59-22.24 233.99-66.72l329.11 329.11 142.34-142.34-329.12-329.09zM455.55 835.69c-101.54 0-197-39.54-268.8-111.34-71.8-71.8-111.34-167.26-111.34-268.8 0-101.54 39.54-197 111.34-268.8 71.8-71.8 167.26-111.34 268.8-111.34s197 39.54 268.8 111.34c71.8 71.8 111.34 167.26 111.34 268.8 0 101.54-39.54 197-111.34 268.8-71.8 71.8-167.26 111.34-268.8 111.34z"/><path class="st1" d="M455.55 155.7c-47.98 0-93.83 11-136.28 32.69-12.37 6.32-17.28 21.48-10.95 33.86 6.32 12.37 21.48 17.28 33.85 10.96 35.29-18.03 73.44-27.18 113.37-27.18 79.42 0 154.82 38.36 201.71 102.6 4.92 6.75 12.58 10.33 20.34 10.33 5.15 0 10.34-1.57 14.81-4.84 11.22-8.19 13.68-23.93 5.49-35.16-56.31-77.18-146.91-123.26-242.34-123.26zm765.06 922.58l-25.83-25.82-142.33 142.34 25.83 25.82c28.97 28.97 75.95 28.97 104.92 0l37.42-37.42c28.96-28.98 28.96-75.95-.01-104.92z"/></svg>