<?xml version="1.0" encoding="utf-8"?>
<!-- Generator: Adobe Illustrator 25.0.0, SVG Export Plug-In . SVG Version: 6.00 Build 0)  -->
<svg version="1.1" id="Слой_1" xmlns="http://www.w3.org/2000/svg" xmlns:xlink="http://www.w3.org/1999/xlink" x="0px" y="0px"
	 viewBox="0 0 50 50" style="enable-background:new 0 0 50 50;" xml:space="preserve">
<style type="text/css">
	.st0{fill:#EEEEEE;}
</style>
<path class="st0" d="M48.91,50c-0.04,0-0.09,0-0.13-0.01L32.5,48.01c-0.41-0.05-0.76-0.33-0.89-0.72c-0.14-0.39-0.03-0.83,0.26-1.12
	l2.77-2.77L25,33.77l-9.63,9.64l2.77,2.77c0.29,0.29,0.39,0.73,0.26,1.12c-0.14,0.39-0.48,0.67-0.89,0.72L1.21,49.99
	c-0.33,0.04-0.66-0.07-0.9-0.31c-0.24-0.24-0.35-0.57-0.31-0.9L1.99,32.5c0.05-0.41,0.33-0.76,0.72-0.89
	c0.39-0.13,0.83-0.03,1.12,0.26l2.77,2.77L16.23,25l-9.63-9.64l-2.77,2.77c-0.29,0.29-0.73,0.39-1.12,0.26
	c-0.39-0.14-0.67-0.48-0.72-0.89L0.01,1.21c-0.04-0.33,0.07-0.66,0.31-0.9c0.24-0.24,0.56-0.35,0.9-0.31L17.5,1.99
	c0.41,0.05,0.76,0.33,0.89,0.72c0.13,0.39,0.03,0.83-0.26,1.12l-2.77,2.77L25,16.23l9.63-9.64l-2.77-2.77
	c-0.29-0.29-0.39-0.73-0.26-1.12c0.14-0.39,0.48-0.67,0.89-0.72l16.28-1.98c0.33-0.04,0.66,0.07,0.9,0.31
	c0.24,0.24,0.35,0.57,0.31,0.9L48,17.5c-0.05,0.41-0.33,0.76-0.72,0.89c-0.39,0.13-0.83,0.04-1.12-0.26l-2.77-2.77L33.76,25
	l9.63,9.64l2.77-2.77c0.29-0.29,0.73-0.39,1.12-0.26c0.39,0.14,0.67,0.48,0.72,0.89l1.96,16.13c0.02,0.09,0.04,0.18,0.04,0.28
	c0,0.6-0.48,1.08-1.08,1.08C48.91,50,48.91,50,48.91,50z M34.96,46.13l12.7,1.54l-1.54-12.71l-1.96,1.96
	c-0.42,0.42-1.11,0.42-1.53,0L31.47,25.77c-0.2-0.2-0.32-0.48-0.32-0.77c0-0.29,0.11-0.56,0.32-0.77l11.16-11.17
	c0.42-0.42,1.11-0.42,1.53,0l1.96,1.96l1.54-12.7l-12.7,1.54l1.96,1.96c0.42,0.42,0.42,1.11,0,1.53L25.76,18.53
	c-0.42,0.42-1.11,0.42-1.53,0L13.06,7.36c-0.42-0.42-0.42-1.11,0-1.53l1.96-1.96L2.32,2.32l1.54,12.71l1.96-1.96
	c0.42-0.42,1.11-0.42,1.53,0l11.16,11.17c0.42,0.42,0.42,1.11,0,1.53L7.36,36.93c-0.42,0.42-1.11,0.42-1.53,0l-1.96-1.96L2.32,47.68
	l12.7-1.54l-1.96-1.96c-0.2-0.2-0.32-0.48-0.32-0.77c0-0.29,0.11-0.56,0.32-0.77l11.17-11.17c0.2-0.2,0.48-0.32,0.77-0.32l0,0
	c0.29,0,0.56,0.11,0.77,0.32l11.16,11.17c0.42,0.42,0.42,1.11,0,1.53L34.96,46.13z"/>
</svg>
