<svg xmlns="http://www.w3.org/2000/svg" viewBox="0 0 130 100"><path d="M70.889 9.36c-.395 2.135.579 3.715.989 5.454 1.327 5.373 4.242 9.977 5.748 15.252.187.699.968 1.42.217 2.043-1.987 1.65-3.097 4.155-6.398 4.239-10.404.316-20.771 1.589-31.122 2.678-7.99.837-15.995 1.903-24.03.44-1.286-.246-2.66-.398-4.278.76 4.566 4.266 8.893 8.244 14.038 10.983 2.305 1.232 2.437 1.705 1.093 4.037-.449.77-1.038 1.431-1.605 2.092a3913.307 3913.307 0 01-8.965 10.289c-1.636 1.887-3.107 3.905-4.473 6.83 7.267-2.427 14.36-2.91 21.192-4.773 8.774-2.372 17.077-6.298 25.38-10.18 5.35-2.488 10.929-4.394 16.454-6.479.809-.305 1.852-1.03 2.61.308.663 1.182 1.439 2.383.721 3.847-.716 1.486-1.666 2.846-2.313 4.375-1.776 4.127-3.822 8.333-3.09 13.068.547 3.466.287 6.713-.38 10.044-.365 1.746-.844 3.497.136 5.83L85.958 76.35c-3.112-3.228-6.723-3.474-10.304-3.54.035-.844.337-1.289.724-1.304 3.344-.154 6.648-.192 9.378 2.596 1.21 1.229 3.146.583 4.324-1.332 1.136-1.845-.44-2.49-1.4-3.136-1.404-.948-2.96-1.685-4.491-2.377-1.532-.692-3.149-1.245-5.163-2.032 1.534-.425 2.412-.117 3.358.188 2.954.933 5.616 2.56 8.384 3.98.884.443 1.848 1.203 2.624.056 1.316-1.898 3.85-2.384 4.656-5.083-3.857-4.18-9.67-3.633-14.326-6.687.651-.253.916-.469 1.146-.432 4.816.746 9.539 2.042 13.935 4.286 1.628.825 2.88.799 3.508-.639.752-1.739-1.04-2.124-2.043-2.7-3.782-2.269-7.854-3.818-11.884-5.461-.718-.291-1.762-.16-1.44-1.858 2.525-.1 4.766 1.249 7.054 2.048 3.305 1.17 6.655 2.315 9.503 4.597 1.505 1.194 2.312.274 3.088-.873 1.12-1.685-.425-2.126-1.222-2.688-1.898-1.316-4.044-1.984-6.17-2.721-3.073-1.065-6.25-1.852-9.131-3.86.748-.667 1.326-.461 1.812-.275 5.347 2.092 11.153 2.503 16.2 5.656.958.6 1.555.144 1.999-.762.506-1.046.091-1.736-.836-2.133-1.298-.541-2.574-1.13-3.872-1.671-3.474-1.414-6.907-2.92-10.506-4.034 2.322-1.23 4.489-.608 6.489.407 3.441 1.734 7.218 2.134 10.677 3.73.998.463 1.572-.016 2.055-1.06-3.335-3.083-8.029-3.06-11.365-6.188 3.808.626 7.5 1.78 10.968 3.605 3.141 1.655 3.1 1.748 5.328-1.873-6.878-3.924-14.432-5.93-21.43-9.44 1.544-.721 2.844-.111 4.118.409a2149.616 2149.616 0 0116.73 6.957c1.992.834 3.891 1.603 5.645-1.338-6.832-3.926-13.29-8.186-20.162-11.404C95.602 24.05 87.439 19.88 79.46 15.2c-2.94-1.754-5.261-4.558-8.571-5.841m2.067 50.451c-.922-.853-1.536-.806-2.005-.56-6.546 3.38-13.475 5.702-20.12 8.858-6.222 2.956-12.846 4.925-19.543 6.19a152.338 152.338 0 00-17.045 4.178c-3.604 1.098-7.231 2.175-10.78 3.499-1.529.561-2.597.056-3.17-1.198-.797-1.724.541-2.46 1.729-2.985 2.755-1.225 4.955-3.249 6.935-5.674 2.413-2.966 4.685-6.087 7.454-8.702 1.847-1.737 2.824-4.145 4.082-6.36 1.642-2.868 1.794-3.056-.639-5.24-5.408-4.826-10.99-9.394-17.083-13.098-.607-.364-1.3-.587-1.864-1.021-.87-.673-1.25-1.66-.93-2.813.34-1.221 1.018-1.339 2.204-1.317 9.653.283 19.242-.48 28.73-2.653 2.326-.547 4.723.135 7.064-.048 7.613-.572 15.239-.825 22.894-.92 3.052-.051 6.089-.49 9.132-.768 1.68-.157 2.208-1.249 1.667-2.846-.7-2.16-1.425-4.366-2.437-6.355-2.418-4.692-4.008-9.804-6.225-14.594-.373-.806-.727-1.681-.899-2.586-.377-2.06.65-3.217 2.569-3.087 1.326.108 2.295.981 3.35 1.715 4.43 3.132 8.839 6.287 13.29 9.372 7.778 5.37 16.013 9.63 24.526 13.399a99.058 99.058 0 0117.037 9.566c1.734 1.209 3.605 1.272 5.443 1.633 1.608.325 1.796 1.047 1.306 2.502-.941 2.75-2.323 4.718-4.858 6.322-4.895 3.063-9.828 6.311-13.245 11.596-3.847 5.94-8.816 10.58-14.002 14.954-6.09 5.116-11.368 11.203-17.004 16.849-3.202 3.225-6.313 6.424-8.662 10.46-.533.932-1.129 2.027-2.244 1.478-.837-.4-1.773-1.025-1.867-2.275-.094-1.227-.28-2.473-.19-3.685.571-7.521 1.166-15.043 1.829-22.546.367-4.003 1.843-7.64 3.571-11.24"/><path d="M84.005 64.181c1.006-.495 1.57-.084 2.016.856-.797.6-1.365.053-2.016-.856"/></svg>