<svg xmlns="http://www.w3.org/2000/svg" viewBox="0 0 100 100"><path d="M98.17 44.44c-3.25-1.93-6.66-3.59-9.85-5.62-2.34-1.49-4.64-3.02-6.95-4.55-5.66-3.74-11.29-7.54-17.03-11.16-1.02-.64-2.05-1.29-3.09-1.89-.5-.29-1.1-.72-1.68-.81-.37-.06-.63.09-.77.44-.48 1.16-.5 2.58-.56 3.81-.11 2-.1 4-.04 6 .09 3.4.09 7.09.97 10.39.2-.26.4-.53.6-.79-2.7.09-5.44-.5-8.07-1.08-3.95-.87-7.85-1.98-11.71-3.18-9-2.78-17.87-6.03-26.53-9.72-4.16-1.77-8.29-3.65-12.28-5.8-.44-.23-.91.06-.94.54-.06.95.16 1.96.3 2.89.27 1.8.58 3.6.88 5.4.96 5.7 1.9 11.41 2.7 17.14.77 5.5 1.4 11.01 1.84 16.54.34 4.2.64 8.42 1.21 12.6.14 1.04.15 2.6.74 3.52.39.62 1.07.54 1.71.41 2.59-.53 5.12-1.87 7.5-2.96 7.78-3.55 15.37-7.49 23.01-11.33 3.44-1.73 6.81-3.57 10.23-5.33 2.16-1.11 4.33-2.2 6.53-3.21 1.19-.55 2.84-1.56 4.2-1.56v-1.25h-.08v1.25h.04c-.2-.15-.4-.31-.6-.46.4 1.34.45 2.81.55 4.2.15 2.05.24 4.11.33 6.17.08 1.94.15 3.88.26 5.82.06 1.06.02 2.27.35 3.29.11.33.43.52.77.44 1.44-.37 2.84-1.8 3.97-2.69 2.51-1.98 4.95-4.05 7.38-6.12 5.78-4.93 11.48-9.95 17.25-14.9 2.13-1.82 4.24-3.7 6.48-5.38.64-.48.01-1.56-.63-1.08-4.69 3.51-9.03 7.54-13.44 11.37-5.51 4.78-10.99 9.62-16.67 14.22-.99.8-1.99 1.6-3.02 2.35-.48.35-1.24.92-1.65 1.02.26.15.51.29.77.44-.34-1.05-.27-2.32-.33-3.4-.11-1.98-.18-3.96-.26-5.94-.09-2.03-.18-4.06-.34-6.09-.1-1.33-.17-2.75-.55-4.04a.642.642 0 00-.6-.46h-.04c-.8 0-.81 1.25 0 1.25h.08c.8 0 .81-1.25 0-1.25-1.06 0-2.17.57-3.13.98-1.79.75-3.54 1.6-5.28 2.46-3.36 1.67-6.64 3.48-9.97 5.22-7.02 3.65-14.14 7.17-21.27 10.6-3.22 1.55-6.46 3.13-9.81 4.41-.83.32-1.84.46-2.62.81-.42.19-.04-.14-.04.11.01-.46-.28-1.07-.36-1.53-.7-3.96-.93-8.02-1.26-12.02-.4-4.85-.86-9.69-1.47-14.52-.84-6.54-1.87-13.05-2.96-19.55-.36-2.15-.74-4.31-1.08-6.46-.17-1.08-.45-2.26-.38-3.36-.31.18-.63.36-.94.54C8.23 25.71 16.42 29 24.6 32.06c8.42 3.14 17.01 6.07 25.78 8.11 3.04.7 6.25 1.46 9.39 1.35.41-.01.71-.39.6-.79-.86-3.2-.84-6.77-.93-10.06-.05-1.92-.06-3.84.03-5.75.06-1.21.06-2.58.53-3.72-.26.15-.51.29-.77.44 1.19.19 2.88 1.57 3.98 2.26 2.59 1.62 5.15 3.3 7.71 4.98 5.37 3.53 10.7 7.14 16.11 10.61 3.41 2.19 7.04 3.98 10.52 6.04.68.4 1.31-.68.62-1.09z"/></svg>