<svg xmlns="http://www.w3.org/2000/svg" viewBox="0 0 100 100"><path d="M66.715 25.04c-.122.249-.4.379-.367.839.037.299.243.328.404.31.23.005.461-.08.427-.494-.038-.3-.122-.6-.464-.655m-2.868.816c.701.386 1.077.075 1.352-.743.225-.682.45-1.387.876-1.834.213-.224.221-.522.069-.824-.174-.35-.407-.218-.552.03-.58 1.086-1.316 1.96-1.745 3.37m28.277 29.482l-.132-.21c-1.183 1.298-2.321 2.643-3.548 3.871-.684.693-.634 1.36-.2 2.266 1.317-2.005 2.61-3.966 3.88-5.927M5.41 61.684c-.948 1.12-1.537 2.48-2.324 3.583-.12.158-.173.454-.18.706.015.276-.065.687.207.81.18.096.323-.084.443-.264.645-.923 1.114-2.126 2.023-2.651.187-.11.126-.41.087-.663-.08-.438-.136-.876-.256-1.521m-.908-7.826c-.801 1.607-2.155 2.441-2.244 4.825 1.11-.29 1.268-2.718 2.646-1.946-.018-.987.075-1.88-.402-2.879m-1.766 9.105c.443-.24.528-.834.789-1.125.52-.582.67-1.863 1.583-1.677.251.053.217-.361.2-.568a4.155 4.155 0 00-.282-1.43c-1.711 1.306-2.538 3.004-2.29 4.8m1.66-12.733c-.09-.094-.18-.165-.268-.26-.548.72-1.072 1.416-1.62 2.135-.07.09-.119.18-.167.271-.554.948-.589 1.36-.053 2.752.577-1.82 1.957-2.768 2.108-4.898m80.767 15.423c.581-.282.765-1.103 1.189-1.504.847-.78.854-1.858.498-3.084-2.067 1.733-2.14 1.891-1.687 4.588M5.8 65.847c-.716.99-1.476 1.932-2.148 2.992-.648 1.037-.627 1.107-.093 2.544.99-.913 1.168-3.226 2.551-3.486.023.001.08-.387.015-.527-.126-.44.005-1.01-.325-1.523m57.938-51.81c-.74 1.035-1.082 2.609-2.107 3.2-.163.087-.105.456-.02.688.168.6.335 1.202.521 1.918.56-1.177.912-2.292 1.464-3.171.743-1.127.743-1.127.142-2.635m.943 4.064c-.688.83-1.807 3.14-1.923 4.008-.088.686.151 1.174.388 1.731.167-.225.285-.336.358-.495.386-.7.773-1.4 1.137-2.125.729-1.471.854-1.032.04-3.119M1.786 50.846c1.107-1.024 1.566-2.71 2.423-3.833.12-.157.063-.618.072-.916.008-.32-.028-.666-.253-.832-.247-.168-.371.15-.514.352-.596.81-1.039 1.876-1.808 2.336-.233.132-.176.546-.161.845.028.643-.014 1.307.241 2.048m-.478-10.084c.875-.94 1.28-2.328 2.147-2.97.21-.154.171-.408.178-.66-.02-.895-.041-1.814-.058-2.87-2.231 3.54-2.357 3.928-2.267 6.5M82.49 70.19c1.964-2.17 2.202-3.288 1.233-5.586-.472.468-1.198.999-1.192 1.619.033 1.308-.417 2.626-.04 3.967M62.87 3.941c-.892 1.536-1.706 2.798-2.39 4.294-.44.951-.25 1.553-.046 2.499.972-1.143 1.3-3.038 2.42-3.742.07-.044.101-.34.107-.524-.003-.735.155-1.487-.091-2.527M35.955 64.684c-.526-.038-1-.326-1.27.332-.593 1.498-1.32 2.946-1.396 4.825.45.31.869.116 1.263-.034.162-.064.304-.198.312-.496.09-1.626.838-2.914 1.091-4.627M61.51 15.788c.633-2.139 2.3-3.538 1.557-6.518-.888.572-1.043 2.036-1.726 2.682-.589.534-.655 1.267-.404 2.145.147.51.176 1.107.573 1.691m18.708 58.607c.481-.79.84-1.33 1.155-1.918.144-.249.36-.61.32-.794-.334-1.203-.135-2.597-.58-3.917-.548.72-1.243.976-1.209 2.215.053 1.401.014 2.823.314 4.414M3.633 39.655c-.6.948-.99 1.74-1.487 2.323-1.067 1.255-.994 2.748-.632 4.617.65-1.13 1.139-2.194 1.759-3.05.762-1.033.77-2.134.36-3.89m16.762 32.72c1.14.239 1.865-.246 1.94-2.148.015-.527.304-1.047.456-1.57.128-.456.346-.886.131-1.42-.481-.013-1.052-.12-1.299.515-.567 1.43-1.27 2.833-1.228 4.624m46.559-11.952a860.515 860.515 0 01-2.132 7.397l1.856.074c.166-1.853.468-3.657.497-5.538.014-.504.052-1.03-.221-1.933M4.117 77.754c.844-2.317 1.484-4.709 2.37-6.91.198-.476.141-.936-.215-1.336-.577.97-1.063 1.966-1.659 2.753-1.238 1.64-.878 3.555-.496 5.492m38.355-13.945c-.711.004-1.666-.298-1.87.408-.454 1.524-1.16 2.95-1.23 4.715 1.526.363 1.55.364 2.082-1.48.33-1.16.66-2.322 1.018-3.643m-6.537 5.785c.667-.073 1.173-.128 1.68-.206.207-.017.484-.078.517-.445.159-1.601.817-3.005.956-4.7-1.006-.142-1.784-.21-2.063 1.596-.171 1.21-.66 2.321-1.09 3.755M16.689 73.65c.74-.255 1.32-.445 1.899-.659.208-.063.417-.149.451-.561.115-1.649.705-3.078.936-4.792-.899.136-1.767.02-1.885 1.783-.034.39-.297.772-.444 1.135-.391.861-.67 1.794-.957 3.094m6.493-1.702a48.644 48.644 0 011.939-.405c.53-.1.877-.183.862-1.33-.023-.804.187-1.762.348-2.606.135-.73.006-1.078-.546-1.025-.505.032-.924.25-1.15.978-.497 1.34-.925 2.728-1.453 4.388m-9.924 2.96c.578-.144 1.017-.27 1.48-.394.254-.085.51-.193.613-.603.463-1.822.949-3.621 1.412-5.467-1.23-.332-1.758.525-2.143 2.006-.407 1.457-1.04 2.747-1.362 4.459m44.102-6.88c.26-2.793.922-5.138 1.88-7.451-.912-.186-1.498.257-1.985 1.299a19.85 19.85 0 00-1.195 3.385c-.206.82-.827 1.698-.503 2.441.387.928 1.162.262 1.803.325m15.672 20.668c.608-1.222 1.16-2.124 1.533-3.17.249-.68-.632-1.187-.402-2.052.024-.046.004-.138-.018-.184-.193-1.29-.41-2.604-.642-4.148-.506.88-1.3 1.364-1.212 2.353.258 2.278.101 4.637.741 7.201m-59.55-19.425c-.717.256-1.205.449-1.691.619-.208.063-.37.127-.495.468-.65 1.932-1.322 3.84-2.07 5.977.626-.213 1.112-.36 1.6-.553.324-.129.715-.164.89-.686.623-1.796 1.314-3.543 1.767-5.825m-3.777 1.364c-.86.39-1.688.458-2.124 1.295-.97 1.877-1.627 4.085-2.197 6.432.714-.095 1.207-.494 1.72-.801.28-.153.65-.235.73-.691.426-2.122 1.503-3.744 1.87-6.235m39.07-2.408c.636.201 1.189.124 1.743-.02.277-.062.532-.147.595-.764.214-1.945.792-3.741 1.238-5.794-.829.115-1.812-.004-2.18.835-.711 1.678-1.562 3.421-1.397 5.743m7.28-6.911c-1.39-.314-2.474-.137-2.833 2.055-.248 1.53-.996 2.84-.906 4.564.52.29 1.053.098 1.555.18.206.029.346-.036.426-.47.381-2.169 1.011-4.193 1.758-6.33M26.832 71.04c1.66-.252 3.11-.464 4.562-.677.23-.04.417-.149.518-.49a36.33 36.33 0 001.091-4.627c-.982-.142-1.567.278-1.834 1.624-.184.844-.504 1.638-.778 2.433-.176.546-.458.79-.84.459-.29-.284-.37-.722-.15-1.174.365-.747.39-1.642.602-2.691-.644.051-1.195.082-1.748.135-.322.037-.557.237-.64.763-.244 1.346-.486 2.647-.783 4.245m15.614-2.138c1.87-.407 3.654-.22 5.544-.512-.923-2.297.313-3.869.528-5.836-.73-.158-1.27.263-1.615 1.171-.273.727-.5 1.478-.75 2.228l-.378 1.228c-.151.478-.349.977-.778.736-.497-.289-.342-.904-.211-1.474.13-.547.282-1.07.434-1.617.128-.478.324-.909.297-1.62-.572-.04-1.191-.057-1.728.296-.467.285.181.9-.082 1.305a3.87 3.87 0 00-.316.61c-.371 1-.765 1.976-.945 3.485m27.25 17.661c-1.356 1.73-1.384 1.912-.954 3.805.226.97.429 1.916.491 2.973.064 1.012.194 2.116.693 3.163.644-1.703 1.215-3.27 1.853-4.79.443-1.066 1.065-2.013.229-3.298-.176-.28-.114-.874-.194-1.29-.266-1.177-.114-2.504-.557-3.915-.371.976-1.117 1.391-.826 2.478.5 1.849.193 3.836.485 5.703.037.322.028.666-.228.774-.324.128-.5-.175-.558-.566a20.14 20.14 0 01-.205-1.704c-.11-1.012-.15-2.023-.229-3.333m-6.691-26.867c-.715.118-1.36.215-1.983.358-.231.063-.602.19-.523.651.203.97-.29 1.369-.605 1.957-.822 1.514-1.124 3.341-1.406 5.238 1.054.052 1.95.008 2.841.124 1.646.229 2.855-.357 3.048-3.197.005-.183.101-.34.152-.523.391-1.687.94-3.278 1.128-5.108-.638-.178-1.167-.124-1.729.296.122.554.521 1.07.158 1.748-.895 1.673-1.342 3.726-2.058 5.564-.148.386-.255.934-.616.718-.43-.242-.553-.75-.351-1.41.252-.819.526-1.614.756-2.457.335-1.321.939-2.428 1.188-3.959m.997-56.043c-.124 2.818-.125 5.342.307 7.992.725 4.494 2.058 8.546 3.39 12.62.275.857.572 1.737.777 2.637.183.854-.036 1.307-.607 1.222-1.76-.232-3.532-.051-5.266-.398-2.031-.4-4.094-.457-6.132-.605-4.374-.304-8.748-.586-13.125-.752-1.17-.033-2.322.165-3.468.11a53.81 53.81 0 00-9.415.314c-3.843.444-7.707.774-11.572 1.171-3.681.38-7.386.76-11.069 1.209-2.233.282-2.833 1.252-3.017 4.574-.009.32-.018.642-.05.962-.236 5.247.379 10.404.625 15.595.291 6.088 1.089 12.098 1.886 18.108.19 1.45.19 1.428 1.142 1.018 2.925-1.25 5.894-2.407 8.937-2.942 3.943-.694 7.863-1.412 11.783-2.13 3.02-.558 6.03-1.508 9.086-1.721 3.265-.254 6.496-.945 9.73-1.728 1.408-.328 2.795-.703 4.224-.916 3.755-.584 7.514-1.26 11.256-2.19 1.225-.31 2.468-.482 3.712-.654.69-.096 1.216.814 1.17 1.684-.216 3.642-.569 7.28-.578 10.928-.01 4.52-.248 8.986-.486 13.454-.058 1.26-.185 2.541.28 3.976.904-1.168 1.583-2.503 2.239-3.815 1.506-3.01 3.054-5.927 4.803-8.586 4.863-7.46 10.293-13.848 15.922-19.956a850.843 850.843 0 007.36-8.147c.71-.784.736-.875.122-1.901-1.098-1.797-2.195-3.594-3.435-5.211-3.144-4.125-6.242-8.271-9.724-11.763-2.165-2.193-4.28-4.523-6.225-7.192-2.455-3.349-5.03-6.448-7.776-9.208-1.562-1.58-3.149-3.116-4.565-4.99-.71-.892-1.253-2.008-2.241-2.77M77.01 80.915c.476-1.455 1.22-2.628 1.896-3.871.217-.384.618-.763.517-1.27-.303-1.477-.189-3.126-.653-4.607-1.747 1.81-1.773 1.924-1.78 4.631-.001.895-.05 1.811.018 2.685.069.85-.367 1.665.002 2.432-.71-.066-1.04-.534-1.008-1.726.057-1.237-.069-2.48-.115-4.133-.625 1.016-1.351 1.57-1.354 2.51.033 2.134.134 4.294.67 6.442.873-.848 1.074-2.31 1.807-3.093m-14.79-55.08c-.99-4.892-2.009-9.531-2.773-14.255-.178-1.038-.262-2.141-.648-3.116-.172-.44-.067-.896.265-1.3 1.447-1.704 2.607-3.851 3.59-6.21.27-.658.528-.857.902-.25 2.653 4.455 6.054 7.577 9.238 11.06 2.05 2.237 4.026 4.609 5.88 7.252 2.052 2.948 4.442 5.308 6.76 7.78a92.002 92.002 0 016.112 7.121c2.835 3.68 5.575 7.473 8.027 11.716.57.98.568 1.048-.077 1.971-3.228 4.729-6.719 9.014-9.836 13.907-2.567 4.058-5.246 8-7.592 12.363-1.838 3.413-3.697 6.78-5.334 10.406a94.752 94.752 0 01-2.381 4.798c-.97 1.877-1.717 3.99-2.53 6.033-.493 1.248-.763 2.709-1.077 4.1-.131.592-.283 1.116-.765 1.125-.436.011-.535-.565-.683-1.028-.674-2.175-.93-4.545-1.326-6.827-.138-.807-.253-1.636-.602-2.265-1.203-2.144-1.065-4.641-.973-7.162.153-3.85.533-7.671.434-11.528-.05-1.562-.073-1.54-1.123-1.706-2.444-.412-4.908-.067-7.34-.042-.988.018-1.976.083-2.961.033-4.652-.22-9.281.431-13.921.647-3.17.142-6.328.675-9.509 1.206-3.157.51-6.282 1.501-9.438 1.988-3.18.486-6.204 1.985-9.306 3-.764.255-1.507.578-2.247.787-1.711.48-3.256 1.608-4.843 2.551-.583.35-1.055.843-1.42 1.613-.195.407-.325.954-.778.735-.43-.218-.6-.705-.652-1.303-.16-1.725-.34-3.45-.431-5.174-.06-1.171-.143-2.298-.318-3.427-.422-3.017-.682-6.052-.873-9.109-.304-4.78-.7-9.54-1.05-14.3-.065-.965-.108-1.93-.173-2.895-.048-.758.09-1.557-.329-2.211-.065-.117-.149-.417-.1-.508.607-1.222.184-2.518.08-3.737-.067-.897-.001-1.63.34-2.354.704-1.38 1.407-2.76 2.066-4.187.56-1.2 1.256-2.283 1.459-3.814.06-.503.384-.609.665-.83 1.242-.93 2.614-.777 3.927-.948 4.235-.502 8.51-.751 12.746-1.3 7.253-.946 14.52-1.571 21.787-1.37 5.25.144 10.502.198 15.739.824 1.052.12 2.131.082 3.391.14" fill="#333" stroke="#333" stroke-width=".573" stroke-miterlimit="10"/></svg>