<svg xmlns="http://www.w3.org/2000/svg" viewBox="0 0 100 100"><path d="M1.57 41.97c3.39 2.75 6 6.52 8.92 9.88 1.52 1.75 2.86 3.72 4.33 5.53 1.23 1.52 2.47 3.02 3.79 4.41 3.58 3.78 6.52 8.25 9.5 12.68 4.41 6.55 8.78 13.15 13.15 19.74.68 1.02 1.43 2 1.91 3.15.99 2.35 3.57 3.07 5.51.92.8-.89 1.29-2.22 1.83-3.42.16-.35.15-1.02-.03-1.36-1.42-2.78-1.29-5.95-1.57-9-.52-5.63-.33-11.28.05-16.92.12-1.84.16-3.69.25-5.96 2.1.73 3.95 1.33 5.77 2.03 3.72 1.44 7.44 2.84 11.32 3.66 2.56.54 5.04 1.62 7.59 2.31 3.7 1 7.43 1.87 11.15 2.79 3.1.77 6.2 1.58 9.31 2.31.83.2 1.69.24 2.54.23 1.04-.01 1.9-.64 2.4-1.7.93-1.97 1.52-3.95.26-6.16-.48-.84-.58-2.04-.76-3.1-.4-2.35-.57-4.78-1.18-7.05-.63-2.34-.8-4.69-.88-7.09-.05-1.3-.18-2.6-.28-3.9-.04-.48-.17-.98-.1-1.43.51-3.55-.06-7.1.1-10.65.04-.95.24-1.9.34-2.85.11-1.09.21-2.18.27-3.27.06-.95.01-1.92.1-2.87.2-2.28-.81-4.23-2.98-3.71-4.34 1.04-8.59-.31-12.88-.56a181.3 181.3 0 01-9.01-.75c-1.95-.21-3.48 1.14-5.16 1.88-.45.2-.62 1.31-1.01 2.23-3.16.23-6.5.53-9.84.7-3.8.19-7.61.25-11.42.36-1.42.04-2.24-.55-2.71-2.21-.39-1.36-.6-2.78-.89-4.18-.29-1.4-.65-2.78-.84-4.2-.4-2.92-.86-5.81-1.64-8.63-.33-1.2-.22-2.59-.29-3.89-.12-2.11-.31-2.28-2.02-2.36-2.32-.11-4.04.85-5.14 3.47-1.27 3.01-3.48 5.1-5.47 7.31-3.6 3.99-7.39 7.72-11.11 11.55-4.62 4.76-9.53 9.13-13.6 14.66-1.28 1.77-1.19 4.12.42 5.42zm7.66-6.09c2.09-2.33 4.18-4.67 6.34-6.91 5.22-5.42 10.69-10.51 15.45-16.57.65-.83 1.46-1.47 2.44-2.44.59 3.42 1.14 6.49 1.65 9.56.17 1 .12 2.1.44 3.02.71 2.05 1.27 4.04 1.16 6.37-.12 2.57 2.4 4.47 4.34 3.43 1.07-.58 2.14-.86 3.3-.86 1.19 0 2.39-.01 3.58-.09 6.41-.41 12.83-.75 19.24-1.31 3.22-.28 6.43-.94 9.64-1.47.49-.08 1.17-.21 1.39-.61.85-1.54 1.94-1.36 3.16-1.01.55.16 1.13.11 1.69.21 2.13.37 4.25.76 6.43 1.15.17.97.42 1.77.44 2.57.11 4.26.3 8.53.21 12.78-.14 6.46.76 12.72 1.97 18.96.27 1.38.3 2.81.04 4.28-.43-.02-.77.01-1.1-.07-2.39-.58-4.78-1.15-7.16-1.78-3.44-.9-6.87-1.83-10.3-2.76-2.33-.63-4.66-1.25-6.98-1.89-.77-.21-1.54-.4-2.3-.67-3.33-1.16-6.66-2.3-9.96-3.54-1.83-.69-3.76-.98-5.38-2.45-1.28-1.16-2.68-.98-4.01-.01-.68.5-1.34 1.03-1.96 1.63-1.2 1.16-1.29 1.57-.71 3.33.73 2.21.93 4.5.84 6.85-.15 3.99-.32 7.97-.44 11.96-.06 1.85-.01 3.71-.01 5.56-.1.07-.21.13-.31.2-.31-.36-.65-.69-.91-1.1-1.5-2.34-2.93-4.75-4.47-7.05-3.23-4.8-6.43-9.65-9.82-14.28-2.57-3.5-5.42-6.67-8.15-10-3.25-3.96-6.48-7.94-9.74-11.89-1.23-1.45-1.28-1.72-.04-3.1z"/></svg>