<svg version="1.1" id="Слой_1" xmlns="http://www.w3.org/2000/svg" x="0" y="0" viewBox="0 0 100 100" xml:space="preserve"><style>.st0{fill:#333}</style><path class="st0" d="M85.66 53c.34.23-.52 1.88-2.4 4.27-1.89 2.38-4.83 5.47-8.55 8.47-3.71 3.01-7.46 5.33-10.32 6.77-2.86 1.45-4.81 2.06-5.03 1.74-.47-.69 6.04-4.77 13.19-10.59C79.75 57.9 84.92 52.54 85.66 53zm-70.12 3.83c.03.44-.01.8-.28.99-.26.17-.71.11-1.19-.24-.48-.34-.96-.98-1.17-1.77-.2-.78-.11-1.52.13-2.01.24-.5.61-.75.93-.7.64.13.96 1.14 1.26 2.23.16.56.28 1.07.32 1.5zm21.95-20.9c.18.09 1.02.44.91.73-.14.39-1.53.2-1.82.18-1.38-.06-2.76-.16-4.14-.16-3.04.01-6.08.33-8.93 1.3-2.61.88-4.98 2.27-6.65 4.27-1.55 1.85-2.21 4.03-2.55 6.27-.05.33-.09 2.19-.63 2.16-.62-.03-.9-1.72-.98-2.12-.43-2.14-.1-4.43.9-6.41 2.27-4.48 7.62-7.06 12.97-7.66 2.65-.3 5.4-.15 7.98.46 1 .25 2.02.53 2.94.98z"/><path class="st0" d="M99.02 43.68c3.41 8.71-2.64 16.1-9.25 22.01-6.74 6.02-13.86 12.02-21.83 16.77-6.71 4-16.47 8.69-24.59 5.11-7.75-3.42-9.02-12.11-2.72-17.26-8.39 2.34-18.43 2.56-26.7-.27C3.38 66.43-.15 57.58 0 48.25c.14-8.96 4.02-16.92 13.95-20.37 8.65-3.01 18.9-2.88 27.64-.18-5.87-4.56-6.8-12-.17-16.29 6.7-4.33 15.05-2.59 21.79.73 7.69 3.77 14.14 9.3 20.4 14.66 5.7 4.86 12.78 10.06 15.41 16.88zM91.14 55.7c5.53-7.57.19-14.06-5.84-19.7-6.02-5.63-12.23-11.36-19.07-16.23-6.2-4.4-16.17-10.2-23.67-4.59-2.8 2.09-3.13 4.85-1.88 7.77.33.77 5.09 6.46 5.09 6.83 0 .01-.01.01-.01.01-1.96.7-4.6.06-6.72-.07-3.53-.21-7.06-.27-10.58.03-6.78.57-15.13 2.31-19.15 7.65-3.4 4.51-3.48 11.14-2.65 16.32 1.07 6.62 5.36 10.69 12.49 12.7 6.38 1.8 13.24 1.96 19.88 1.59.97-.05 6.31-.93 6.72-.05.19.42-1.82 1.81-2.08 2.04-3.96 3.77-5.93 9.67-.45 13.15 5.01 3.19 11.51.78 16.27-1.64 6.4-3.25 11.99-7.7 17.27-12.19 5-4.23 10.57-8.51 14.38-13.62z"/></svg>