<svg version="1.1" id="Слой_1" xmlns="http://www.w3.org/2000/svg" x="0" y="0" viewBox="0 0 100 100" xml:space="preserve"><style>.st0{fill:#333}</style><path class="st0" d="M14.34 53c-.34.23.52 1.88 2.4 4.27 1.89 2.38 4.83 5.47 8.55 8.47 3.71 3.01 7.46 5.33 10.32 6.77 2.86 1.45 4.81 2.06 5.03 1.74.47-.69-6.04-4.77-13.19-10.59C20.25 57.9 15.08 52.54 14.34 53zm70.12 3.83c-.03.44.01.8.28.99.26.17.71.11 1.19-.24.48-.34.96-.98 1.17-1.77.2-.78.11-1.52-.13-2.01-.24-.5-.61-.75-.93-.7-.64.13-.96 1.14-1.26 2.23-.16.56-.28 1.07-.32 1.5zm-21.95-20.9c-.18.09-1.02.44-.91.73.14.39 1.53.2 1.82.18 1.38-.06 2.76-.16 4.14-.16 3.04.01 6.08.33 8.93 1.3 2.61.88 4.98 2.27 6.65 4.27 1.55 1.85 2.21 4.03 2.55 6.27.05.33.09 2.19.63 2.16.62-.03.9-1.72.98-2.12.43-2.14.1-4.43-.9-6.41-2.27-4.48-7.62-7.06-12.97-7.66-2.65-.3-5.4-.15-7.98.46-1 .25-2.02.53-2.94.98z"/><path class="st0" d="M16.38 26.8c6.26-5.37 12.72-10.89 20.4-14.66 6.74-3.31 15.09-5.05 21.79-.73 6.63 4.29 5.7 11.73-.17 16.29 8.74-2.7 18.99-2.83 27.64.18 9.93 3.45 13.81 11.41 13.95 20.37.15 9.33-3.38 18.18-13.92 21.78-8.28 2.83-18.32 2.61-26.7.27 6.31 5.15 5.03 13.84-2.72 17.26-8.13 3.58-17.89-1.11-24.59-5.11-7.98-4.75-15.09-10.74-21.83-16.77-6.61-5.9-12.65-13.29-9.25-22 2.63-6.82 9.71-12.02 15.4-16.88zm6.82 42.51c5.28 4.5 10.88 8.94 17.27 12.19 4.77 2.42 11.26 4.82 16.27 1.64 5.48-3.49 3.51-9.38-.45-13.15-.26-.24-2.27-1.63-2.08-2.04.41-.88 5.75 0 6.72.05 6.64.38 13.5.21 19.88-1.59 7.14-2.01 11.43-6.08 12.49-12.7.84-5.19.75-11.81-2.65-16.32-4.01-5.33-12.37-7.07-19.15-7.65-3.52-.29-7.05-.24-10.58-.03-2.12.13-4.75.77-6.72.07 0-.01-.01-.01-.01-.01 0-.36 4.76-6.05 5.09-6.83 1.25-2.91.92-5.68-1.88-7.77-7.5-5.6-17.46.19-23.67 4.59C26.93 24.64 20.72 30.37 14.7 36 8.67 41.64 3.33 48.13 8.86 55.7c3.81 5.11 9.38 9.39 14.34 13.61z"/></svg>