<svg xmlns="http://www.w3.org/2000/svg" viewBox="0 0 100 55"><path d="M8.105 26c.862-.694 1.422-1.536 2.29-2.072.822-.534 1.425-1.423 2.198-2.069.795-.647 1.45-1.402 2.15-2.113.68-.687 1.55-1.2 2.153-2.09-.23-.037-.323-.101-.413-.075-2.09.196-4.159.323-6.259.245-.41-.006-.838.124-1.118.546-.626.89-1.083 3.187-.804 4.498 1.674-1.478 2.925-3.305 4.914-4.295.053.18-.013.251-.078.322-1.297 1.214-2.548 2.448-3.61 3.857-.26.352-.567.66-.97.859-.29.148-.441.359-.475.656a4.367 4.367 0 00.022 1.732m12.75-8.5c-.794.077-1.532-.145-2.259-.071-.25.032-.478.019-.697.232-.637.618-1.343 1.215-1.98 1.833-.835.785-1.574 1.703-2.481 2.4-1.971 1.467-3.539 3.352-5.202 5.126-.087.095-.126.256-.12.393a84.29 84.29 0 00-.065 1.848c.483-.452.86-.717 1.143-1.07 1.088-1.32 2.414-2.374 3.789-3.362.731-.53 1.486-1.039 2.147-1.634.792-.715 1.511-1.564 2.4-2.146 1.376-.943 2.046-2.473 3.326-3.549m76.03 2.15c-.684-.611-1.54-.92-2.289-1.414-.35-.237-.547-.002-.743.211-.984 1.064-2.111 1.975-3.238 2.885-.242.214-.436.518-1.025.61 1.282-1.623 3.07-2.514 4.03-4.192-.587-.433-1.28-.68-1.91-1.042-.606-.341-.899-.262-1.497.172-1.727 1.299-3.194 2.838-4.662 4.354a115.087 115.087 0 01-6.13 5.847c-2.27 2.004-4.586 3.963-6.71 6.166a40.4 40.4 0 01-1.428 1.378c-.192-.243-.058-.317.028-.434 1.046-1.249 2.185-2.41 3.372-3.528 1.802-1.712 3.865-3.16 5.596-4.96.81-.83 1.67-1.593 2.528-2.379.969-.858 2.008-1.674 2.86-2.642 1.089-1.273 2.275-2.414 3.532-3.489.376-.31.68-.664 1.119-1.115-.809-.287-1.523-.464-2.172-.758-.58-.25-.986-.144-1.472.263-.727.62-1.503 1.176-2.256 1.752.437-1.066 1.534-1.564 2.085-2.634-2.06-.786-4.048-1.529-6.016-2.295-.417-.166-.66.026-.922.31-.898.947-1.796 1.87-2.812 2.708-.484.43-1.064.771-1.5 1.244a248.387 248.387 0 00-7.714 8.508c-.13.165-.235.397-.588.114.276-.512.67-.96 1.107-1.41 1.14-1.162 2.28-2.324 3.302-3.572 1.131-1.389 2.521-2.56 3.676-3.927a1.6 1.6 0 01.419-.359c1.6-1.02 2.539-2.675 3.97-3.984-.51-.186-.923-.26-1.25-.453-.583-.342-.985-.144-1.448.262-.771.668-1.425 1.446-2.079 2.201a853.177 853.177 0 01-7.376 8.38c-.327.378-.511.91-1.09 1.274.003-.524.22-.806.436-1.088.478-.612.955-1.246 1.48-1.813.83-.899 1.661-1.798 2.445-2.74.762-.919 1.5-1.837 2.356-2.69 1.185-1.164 2.205-2.48 3.297-3.708.153-.166.26-.353.296-.582-1.096-.618-1.096-.618-1.835.277-.24.283-.48.543-.721.803-1.51 1.61-2.973 3.24-4.318 4.979-1.432 1.857-3.264 3.387-4.694 5.267.337-1.29 1.26-2.147 2.16-3.025.922-.925 1.678-1.98 2.435-3.013.779-1.08 1.792-1.962 2.569-3.087.734-1.031 1.822-1.78 2.528-2.948-2.522-.972-4.697-2.369-7.019-3.463-2.09-.99-4.18-1.979-6.478-2.459-1.793-.385-2.164.04-1.82 1.827.283 1.425 1.148 2.553 1.833 3.757.71 1.249 1.643 2.375 2.331 3.647.32.58.593 1.162.642 1.821.054.818-.139 1.122-.978 1.224-1.204.115-2.094.651-2.95 1.505-.833.83-1.784 1.575-2.499 2.537-1.43 1.902-3 3.719-4.76 5.338-.66.618-1.367 1.17-2.073 1.768a1.474 1.474 0 01-.19-.198c3.433-3.12 6.277-6.765 9.462-10.4-1.522.128-2.852-.07-3.905.974-.636.64-1.344 1.192-1.979 1.855-2.496 2.605-4.897 5.32-7.275 8.035-.35.401-.65.892-1.162 1.185-.148-.29-.038-.386.093-.55 1.024-1.203 2.024-2.427 3.096-3.586 1.88-2.057 3.807-4.047 5.71-6.082.438-.473 1.015-.86 1.147-1.572-.598-.136-1.14-.024-1.687-.002-.136.005-.273.01-.381.151-.934 1.177-2.108 2.043-3.257 2.977-2.122 1.702-4.005 3.667-5.889 5.61-1.118 1.138-2.26 2.231-3.024 3.674-.064.117-.15.234-.335.196-.103-.315.047-.55.197-.806a11.74 11.74 0 011.494-1.996c2.539-2.698 5.266-5.22 8.065-7.678.638-.572 1.416-1.081 1.74-2.12-.639-.02-1.186-.021-1.711-.046-.366-.032-.61.16-.85.398-1.626 1.568-3.369 3.05-4.898 4.727-2.252 2.46-4.576 4.807-6.898 7.2-.263.283-.547.59-.67.96-.08.277-.134.644-.554.387-.327-.193-.269-.468-.075-.75.109-.14.193-.303.326-.422 1.231-1.143 2.177-2.593 3.55-3.604.2-.145.375-.334.527-.522 1.158-1.276 2.316-2.575 3.521-3.808.833-.853 1.76-1.596 2.618-2.404.638-.595 1.253-1.19 1.631-2.002a1.759 1.759 0 00-.873-.193c-2.847.065-5.687-.28-8.536-.281-.137.005-.321-.056-.407.084-.452.679-1.264.893-1.786 1.529-.849 1.036-1.744 2.05-2.735 2.933-1.475 1.334-2.95 2.668-4.402 4.002-2.31 2.119-4.715 4.15-6.905 6.424-.131.142-.234.42-.622.412.768-1.33 1.779-2.303 2.79-3.255 1.363-1.284 2.844-2.459 4.16-3.787.833-.83 1.665-1.706 2.617-2.427 1.262-.938 2.36-2.007 3.385-3.187.698-.802 1.395-1.627 2.18-2.524-1.011-.234-1.791-.363-2.606.375-3.127 2.79-6.065 5.777-9.026 8.72-2.26 2.23-4.616 4.374-6.757 6.737-.262.284-.575 1.025-1 .632-.355-.328.31-.787.595-1.095 2.362-2.531 4.868-4.909 7.42-7.265 1.033-.952 2.115-1.838 3.08-2.833 1.82-1.827 3.568-3.741 5.665-5.487-1.391-.014-2.655-.284-3.702.92-1.156 1.321-2.5 2.49-3.704 3.769a327.037 327.037 0 01-3.875 4.072c-1.666 1.706-3.616 3.128-5.21 4.9-1.027 1.134-2.318 1.937-3.464 2.939-.177.143-.35.378-.675.231.103-.3.348-.446.522-.658.807-.92 1.946-1.512 2.707-2.454.957-1.177 2.078-2.224 3.273-3.16 1.835-1.44 3.435-3.075 5.057-4.734 1.84-1.872 3.445-3.987 5.544-5.664-1.055-.164-2.052-.034-3.031.004-2.117.06-4.26.076-6.377.136-.341.014-.708-.04-1.014.29-1.27 1.35-2.658 2.544-3.999 3.827-1.34 1.283-2.705 2.5-4.189 3.606-1.97 1.49-3.751 3.155-5.222 5.173-.151.211-.35.356-.294.65.174.95.1 1.956.365 2.903.317 1.127 1.097 1.826 2.238 1.85 1.048.005 2.102.146 3.125.06 1.499-.127 3.027-.096 4.521-.36 3.667-.667 7.384-.608 11.081-1.072l.953-.105c1.793-.207 3.583-.483 5.38-.576.82-.032 1.636-.132 2.403-.322 1.444-.376 2.944-.503 4.389-.856.496-.133.982.053 1.502-.058 1.084-.248 2.172-.405 3.282-.585 1.88-.301 3.812-.446 5.66-.951 3.566-.937 7.243-1.31 10.84-2.02 1.9-.37 3.278.487 3.385 2.625a9.653 9.653 0 01-.682 4.13c-.477 1.204-.815 2.47-1.292 3.674-.557 1.481-.059 3.148 1.248 3.918 1.703 1.004 3.511 1.207 5.221.046 1.466-.992 2.907-2.029 4.252-3.175 1.5-1.29 3.17-2.29 4.865-3.223 1.607-.883 3.12-1.831 4.39-3.135 1.206-1.232 2.389-2.464 3.83-3.477 2.042-1.425 4.083-2.85 6.173-4.185 1.29-.826 2.461-1.76 3.63-2.764.44-.382.854-.9.51-1.524-.34-1.104-1.055-1.919-2.25-2.146M64.36 29.496c-1.954.167-3.853.56-5.777.91-2.33.456-4.681.935-7.013 1.346-1.54.265-3.084.394-4.625.637-2.969.435-5.94.78-8.854 1.463-.316.081-.633.14-.952.152-1.775.07-3.521.297-5.267.525-3.04.393-6.11.536-9.174.884a97.7 97.7 0 00-4.512.61c-1.789.297-3.617.187-5.416.212a33.36 33.36 0 01-1.507-.055c-2.1-.055-3.469-1.278-3.642-3.368-.161-1.794-.277-3.59-.211-5.394.079-2.054-.024-4.101.032-6.155.033-.913.272-1.788.535-2.642.404-1.315 1.117-1.73 2.472-1.487.94.168 1.896.108 2.804.027 2.294-.204 4.613-.363 6.914-.385 5.31-.049 10.623-.553 15.94-.374 2.17.075 4.328-.101 6.498.02 3.54.202 7.08.36 10.612.358 2.85.003 5.696-.063 8.525-.584.181-.03.362-.06.543-.113 1.106-.27 1.47-.878.861-1.857-.536-.89-1.072-1.781-1.631-2.671-1.383-2.134-2.902-4.24-2.94-6.974-.01-.843.031-.935.848-1.036 1.066-.133 2.1.1 3.073.473 1.99.788 3.981 1.553 5.865 2.528 1.536.783 3.072 1.612 4.63 2.371 1.695.823 3.495 1.368 5.252 2.005 2.612.947 5.225 1.893 7.797 2.954 1.367.562 2.776 1.054 4.185 1.523.994.349 1.967.744 2.854 1.279 1.493.876 3.029 1.682 4.543 2.511.791.425 1.454 1.06 1.963 1.838.801 1.245.699 2.115-.428 3.026-1.06.862-2.143 1.725-3.3 2.454-1.691 1.046-3.238 2.292-4.905 3.383-2.134 1.383-3.98 3.119-5.78 4.899a13.912 13.912 0 01-3.526 2.486c-1.453.74-2.952 1.46-4.165 2.488-1.61 1.362-3.463 2.37-5.051 3.73-2.404 2.055-5.727 1.023-7.266-1.037-.841-1.107-.935-2.334-.551-3.602.32-1.107.642-2.214 1.125-3.281a8.89 8.89 0 00.778-3.996c-.013-.32-.026-.66-.107-.976-.22-.95-.548-1.187-1.505-1.172-.18.052-.362.06-.544.067"/><path d="M15.574 39.63c3.471.184 6.618-.373 9.798-.657 3.929-.359 7.767-1.284 11.639-1.96.996-.176 2.019-.239 2.99-.46 3.164-.693 6.382-1.16 9.54-2.014.79-.213 1.627-.36 2.442-.506 2.241-.384 4.424-1.108 6.696-1.288a10.87 10.87 0 011.733.023c.344.033.734.108.952.442.074.134.103.292.016.41-.043.07-.2.121-.292.102-1.977-.424-3.869.152-5.792.523-2.489.462-4.95 1.038-7.415 1.567-2.192.474-4.36.991-6.555 1.397-2.76.518-5.547.946-8.333 1.397-1.925.326-3.822.765-5.775.956-2.088.218-4.181.323-6.245.586-2.563.329-5.127.042-7.692.302-1.521.15-3.007.05-4.542-.142-.893-.101-1.784-.158-2.677-.26-2.953-.34-4.711-2.163-5.503-4.912-.822-2.954-.295-5.8.253-8.672.17-.918.247-1.855.37-2.795.055-.321.016-.73.522-.613.414.075.451.461.373.783-.264.831-.298 1.699-.47 2.549-.361 1.837-.79 3.678-.785 5.57.015 1.549.235 3.09.93 4.521.992 2.059 2.776 2.81 4.924 2.93 1.187.068 2.377.18 3.545.317 1.305.154 2.599.012 3.896-.038.59-.046 1.16-.046 1.457-.058"/><path d="M15.47 37.79c2.169.075 4.322-.237 6.481-.39 2.047-.126 4.113-.32 6.158-.492 1.068-.088 2.16-.153 3.222-.377 1.334-.28 2.727-.22 4.083-.502 1.65-.338 3.378-.474 5.001-.925 1.398-.397 2.774-.77 4.201-.985 2.424-.392 4.816-.987 7.243-1.31 1.383-.19 2.731-.677 4.137-.868 1.542-.197 3.024-.757 4.573-.795a5.37 5.37 0 01.866.012c.322.056.535.252.48.596-.057.299-.31.218-.516.226-2.366.115-4.646.66-6.929 1.16-3.48.775-7.016 1.278-10.523 1.94-1.38.259-2.763.45-4.088.957-.584.228-1.2.207-1.787.344-2.461.598-4.99.606-7.458 1.044-1.494.264-3.025.164-4.545.36-2.903.365-5.825.251-8.725.684-.703.096-1.432.125-2.166-.006a3.552 3.552 0 00-.981-.03c-1.813.276-3.6.05-5.404-.04-2.192-.096-3.496-1.39-4.37-3.338-1.227-2.801-1.043-5.68-.839-8.606.15-1.989.76-3.882.796-5.866.016-.183.03-.389.257-.42.204-.031.324.124.422.28.121.2.038.408.025.637a11.356 11.356 0 01-.429 2.455c-.283.9-.291 1.858-.392 2.774-.216 2.06-.363 4.117-.056 6.156.215 1.405.68 2.777 1.588 3.88.838 1.017 2.04 1.425 3.385 1.441 2.099.055 4.194.018 6.29.004m50.8 8.278c.115.018.205-.008.253.036 1.774 1.07 3.412.413 5.046-.358 2.955-1.369 5.616-3.251 8.279-5.11.954-.653 1.98-1.218 2.864-1.936 1.149-.934 2.25-1.934 3.447-2.78 2.374-1.665 4.437-3.683 6.62-5.57 1.742-1.503 3.53-2.964 5.513-4.136.891-.536 1.027-.564 1.645.096-2.044.763-3.63 2.17-5.287 3.512-1.149.934-2.202 1.978-3.28 2.977-1.78 1.688-3.798 3.112-5.722 4.623-2.897 2.28-5.938 4.359-9.004 6.393-1.688 1.115-3.402 2.162-5.286 2.943-.74.302-1.507.514-2.277.659-.996.175-1.814-.362-2.672-.716-.162-.062-.286-.331-.138-.633"/><path d="M67.976 49.01c.358-.174.638-.003.914.055 1.26.178 2.337-.274 3.384-.885 1.873-1.076 3.574-2.465 5.447-3.518 1.829-1.03 3.464-2.347 5.17-3.576.932-.675 1.884-1.373 2.84-1.98 2.026-1.242 3.623-2.946 5.313-4.608 1.404-1.4 2.997-2.624 4.497-3.914.683-.596 1.367-1.17 2.05-1.767.375-.334.821-.579 1.244-.846.2-.122.354-.265.524.002.122.2.13.405-.092.55-1.112.705-1.986 1.674-2.98 2.51-2.604 2.177-5.064 4.53-7.55 6.815-1.364 1.262-2.945 2.213-4.43 3.296-2.726 1.976-5.598 3.707-8.374 5.594-1.376.942-2.804 1.728-4.228 2.604-1.024.633-2.144.563-3.247.332-.321-.055-.467-.3-.482-.664M41.82 17.82c-4.091 4.377-8.23 8.71-12.698 12.737 3.971-4.509 8.394-8.557 12.413-13.022.072.088.167.176.285.285m33.573 16.92c-.055-.25.098-.415.275-.558 1.037-.884 2.025-1.835 3.085-2.697a30.8 30.8 0 002.707-2.476c1.93-1.945 4.096-3.648 6.074-5.526.506-.476 1.203-.709 1.804-1.074-1.102.955-2.204 1.91-3.305 2.888-3.195 2.814-6.223 5.805-9.49 8.554-.374.31-.676.756-1.196.867l.046.021zm9.557-4.95c.668-1.006 1.62-1.727 2.5-2.514.683-.62 1.413-1.195 2.07-1.882 1.928-1.967 4.048-3.714 6.168-5.461.353-.287.735-.416 1.196-.298-1.363.692-2.391 1.804-3.515 2.782-2.668 2.293-5.241 4.696-7.861 7.055-.154.143-.307.308-.56.272l.003.046zm-3.472-9.04c-.323-.078-.45.178-.625.344a194.695 194.695 0 00-7.123 7.277c-.415.45-.9.856-.99 1.497-.036.23-.17.303-.378.243-.207-.06-.237-.241-.222-.447.055-.344.272-.603.492-.817a32.306 32.306 0 011.754-1.778c1.406-1.332 2.528-2.948 4.147-4.106.731-.53 1.244-1.393 1.973-1.992.309-.263.601-.365.972-.22zm.006.007c-.079-.247-.227-.538-.029-.728.815-.716 1.322-1.738 2.306-2.233.023 0 .069.02.092.02-.59.66-1.18 1.322-1.746 1.982-.24.283-.642.481-.623.96"/><path d="M84.944 29.775c-.049.504-.499.658-.806.943-.617.549-1.258 1.053-1.964 1.65-.04-.409.23-.533.362-.652.771-.669 1.493-1.45 2.455-1.897l-.047-.044m-4.021 3.759c.126-.278.274-.557.656-.71-.121.393-.342.584-.656.71m-5.57 1.206c.014.363-.303.421-.608.775.068-.595.266-.763.631-.754l-.023-.022z"/></svg>