<svg xmlns="http://www.w3.org/2000/svg" viewBox="0 0 100 100"><path d="M99.38 36.57c-4.06-5.53-8.98-9.9-13.6-14.66-3.72-3.83-7.51-7.57-11.11-11.55-2-2.21-4.21-4.3-5.47-7.31C68.1.43 66.38-.53 64.06-.42c-1.71.08-1.9.24-2.02 2.36-.07 1.3.04 2.69-.29 3.89-.78 2.82-1.24 5.71-1.64 8.63-.19 1.42-.55 2.8-.84 4.2-.29 1.4-.51 2.82-.89 4.18-.47 1.66-1.3 2.25-2.71 2.21-3.81-.11-7.61-.17-11.42-.36-3.34-.16-6.68-.47-9.84-.7-.39-.91-.56-2.03-1.01-2.23-1.68-.74-3.21-2.09-5.16-1.88-3 .32-6 .58-9.01.75-4.29.24-8.53 1.59-12.88.56-2.17-.52-3.18 1.43-2.98 3.71.08.95.04 1.92.1 2.87.06 1.09.16 2.18.27 3.27.1.95.29 1.89.34 2.85.16 3.54-.41 7.1.1 10.65.07.46-.07.95-.1 1.43-.1 1.3-.24 2.6-.28 3.9-.08 2.4-.25 4.75-.88 7.09-.61 2.26-.77 4.7-1.18 7.05-.18 1.06-.28 2.25-.76 3.1-1.26 2.21-.67 4.19.26 6.16.5 1.07 1.36 1.7 2.4 1.7.85 0 1.71-.04 2.54-.23 3.11-.73 6.21-1.54 9.31-2.31 3.72-.93 7.45-1.79 11.15-2.79 2.54-.69 5.02-1.77 7.59-2.31 3.87-.81 7.59-2.22 11.32-3.66 1.82-.7 3.67-1.3 5.77-2.03.09 2.27.13 4.11.25 5.96.38 5.64.57 11.29.05 16.92-.28 3.04-.15 6.22-1.57 9-.17.34-.19 1.01-.03 1.36.54 1.19 1.03 2.53 1.83 3.42 1.94 2.15 4.52 1.44 5.51-.92.48-1.15 1.24-2.13 1.91-3.15 4.37-6.59 8.74-13.18 13.15-19.74 2.98-4.43 5.92-8.9 9.5-12.68 1.32-1.39 2.57-2.89 3.79-4.41 1.47-1.81 2.81-3.78 4.33-5.53 2.92-3.36 5.53-7.14 8.92-9.88 1.62-1.32 1.71-3.67.42-5.42zm-8.08 2.41c-3.26 3.94-6.49 7.93-9.74 11.89-2.72 3.32-5.58 6.5-8.15 10-3.4 4.63-6.59 9.48-9.82 14.28-1.54 2.29-2.97 4.7-4.47 7.05-.26.41-.61.74-.91 1.1-.1-.07-.21-.13-.31-.2 0-1.85.05-3.71-.01-5.56-.12-3.99-.3-7.97-.44-11.96-.09-2.35.11-4.64.84-6.85.58-1.76.49-2.17-.71-3.33-.62-.6-1.28-1.14-1.96-1.63-1.33-.97-2.73-1.15-4.01.01-1.61 1.46-3.55 1.76-5.38 2.45-3.31 1.24-6.64 2.38-9.96 3.54-.76.26-1.53.46-2.3.67-2.33.63-4.66 1.26-6.98 1.89-3.43.92-6.87 1.86-10.3 2.76-2.38.62-4.77 1.2-7.16 1.78-.33.08-.67.05-1.1.07-.27-1.47-.23-2.9.04-4.28 1.21-6.24 2.1-12.5 1.97-18.96-.09-4.26.1-8.52.21-12.78.02-.8.27-1.6.44-2.57 2.17-.39 4.3-.78 6.43-1.15.56-.1 1.15-.05 1.69-.21 1.22-.35 2.31-.52 3.16 1.01.22.4.9.53 1.39.61 3.21.53 6.41 1.19 9.64 1.47 6.41.55 12.82.9 19.24 1.31 1.19.08 2.39.09 3.58.09 1.15 0 2.23.29 3.3.86 1.94 1.04 4.46-.86 4.34-3.43-.11-2.32.45-4.31 1.16-6.37.32-.92.27-2.02.44-3.02.52-3.07 1.06-6.13 1.65-9.56.98.97 1.79 1.61 2.44 2.44C74.31 18.46 79.78 23.55 85 28.97c2.16 2.24 4.24 4.58 6.34 6.91 1.21 1.38 1.15 1.65-.04 3.1z"/></svg>