<svg xmlns="http://www.w3.org/2000/svg" viewBox="0 0 100 100"><path d="M33.22 25.033c-.324.06-.424.378-.455.652-.035.435.193.487.423.494.16.004.367-.013.398-.31.036-.458-.259-.604-.367-.836m2.868.836c-.42-1.411-1.176-2.281-1.766-3.353-.131-.233-.357-.377-.55-.015-.146.294-.154.592.07.805.446.448.68 1.143.89 1.837.275.81.657 1.097 1.356.726M7.788 55.325a884.535 884.535 0 003.875 5.912c.438-.906.48-1.593-.19-2.254-1.205-1.226-2.361-2.566-3.542-3.86l-.143.202m86.73 6.365c-.11.64-.19 1.096-.27 1.507-.054.25-.108.57.073.667.88.529 1.375 1.713 2.014 2.648.133.187.265.374.452.265.279-.13.198-.522.206-.82.006-.23-.054-.552-.164-.693-.75-1.1-1.355-2.447-2.31-3.574m.927-7.82c-.464.996-.374 1.893-.401 2.879 1.375-.788 1.537 1.671 2.653 1.954-.095-2.388-1.47-3.252-2.252-4.834m1.745 9.088c.255-1.783-.57-3.48-2.3-4.813a4.249 4.249 0 00-.292 1.437c-.006.23-.04.619.214.58.9-.182 1.07 1.108 1.583 1.672.267.283.342.882.795 1.124m-1.645-12.733c.148 2.138 1.544 3.071 2.113 4.9.52-1.386.509-1.8-.061-2.756-.067-.093-.11-.186-.176-.28-.531-.703-1.085-1.406-1.616-2.132-.094.09-.188.178-.26.268M14.753 65.635c.441-2.672.377-2.857-1.685-4.589-.356 1.23-.34 2.308.488 3.088.425.402.632 1.21 1.197 1.501m79.398.22c-.358.495-.19 1.073-.363 1.527-.05.137.008.528.03.529 1.416.268 1.559 2.567 2.566 3.49.521-1.432.569-1.5-.09-2.55-.683-1.051-1.436-2.013-2.143-2.996M36.207 14.034c-.615 1.52-.615 1.52.134 2.642.572.865.908 1.998 1.472 3.16.204-.728.358-1.32.512-1.912.076-.25.131-.593-.027-.69-1.016-.578-1.362-2.17-2.09-3.2m-.962 4.057c-.815 2.111-.688 1.679.052 3.122.37.721.74 1.42 1.134 2.119.088.14.177.257.354.491.222-.567.465-1.065.369-1.733-.091-.851-1.22-3.177-1.909-3.999m62.898 32.755c.25-.75.222-1.393.262-2.011.032-.32.089-.709-.16-.854-.79-.48-1.22-1.524-1.816-2.344-.155-.21-.283-.535-.518-.358-.21.154-.243.498-.252.819.014.321-.044.778.067.92.863 1.124 1.321 2.812 2.417 3.828m.485-10.08c.071-2.568-.056-2.939-2.252-6.487-.03 1.055-.055 1.972-.057 2.866-.006.23-.036.504.166.647.877.644 1.275 2.031 2.143 2.973M17.45 70.184c.382-1.343-.086-2.664-.05-3.97.016-.597-.726-1.145-1.195-1.617-.958 2.314-.713 3.399 1.246 5.587M37.06 3.94c-.235 1.026-.073 1.787-.093 2.521-.005.183.033.483.1.53 1.128.697 1.442 2.61 2.42 3.738.21-.935.387-1.55-.045-2.502-.67-1.487-1.485-2.725-2.382-4.287M63.968 64.7c.25 1.705 1.018 2.988 1.064 4.641.015.299.149.44.331.491.408.172.816.344 1.284.036-.086-1.884-.803-3.326-1.38-4.834-.281-.65-.77-.388-1.3-.334M38.432 15.77c.406-.585.422-1.181.55-1.682.255-.888.183-1.624-.399-2.145-.693-.639-.837-2.088-1.715-2.686-.725 2.986.934 4.385 1.564 6.513M19.696 74.398c.297-1.598.267-2.998.305-4.396.034-1.238-.67-1.51-1.2-2.213-.45 1.295-.236 2.7-.567 3.908-.051.182.19.555.322.788.329.56.68 1.12 1.14 1.913m76.601-34.753c-.415 1.756-.4 2.857.352 3.887.619.843 1.117 1.913 1.774 3.055.349-1.849.414-3.361-.63-4.606-.512-.588-.903-1.379-1.496-2.336M79.54 72.38c.05-1.788-.67-3.184-1.226-4.622-.257-.65-.81-.55-1.316-.518-.199.545.018.987.144 1.426.146.532.43 1.044.438 1.572.086 1.884.806 2.386 1.96 2.142M32.976 60.426c-.278.91-.223 1.416-.237 1.944.017 1.858.334 3.68.489 5.542l1.86-.086c-.71-2.497-1.381-4.787-2.112-7.4M95.819 77.74c.374-1.94.748-3.834-.492-5.474-.597-.797-1.097-1.797-1.667-2.754-.355.38-.391.861-.22 1.325.902 2.204 1.524 4.608 2.379 6.903M57.454 63.81c.376 1.317.688 2.473 1.024 3.63.545 1.85.545 1.85 2.092 1.48-.066-1.769-.783-3.188-1.246-4.715-.21-.671-1.159-.399-1.87-.396m6.54 5.779c-.443-1.435-.918-2.526-1.09-3.724-.295-1.798-1.077-1.727-2.068-1.594.137 1.701.81 3.096.972 4.707.036.345.31.398.516.427.48.036.983.096 1.67.184m19.25 4.065c-.285-1.293-.557-2.241-.947-3.078-.173-.372-.438-.746-.45-1.136-.112-1.77-.987-1.657-1.878-1.796.228 1.727.83 3.166.946 4.798.034.414.239.489.443.563a73.51 73.51 0 001.886.649m-6.49-1.717a561.734 561.734 0 00-1.416-4.398c-.233-.718-.64-.935-1.144-.972-.55-.038-.696.302-.555 1.017.16.853.363 1.8.34 2.625-.032 1.146.333 1.225.858 1.331.548.107 1.095.214 1.916.397m9.92 2.981c-.342-1.707-.971-3.009-1.344-4.465-.395-1.479-.922-2.342-2.147-2.009.477 1.826.954 3.651 1.432 5.454.103.416.352.537.603.613.454.15.887.254 1.457.407m-44.089-6.884c.622-.075 1.43.59 1.798-.317.32-.749-.299-1.638-.506-2.446a19.473 19.473 0 00-1.191-3.383c-.499-1.046-1.083-1.498-2.006-1.294.969 2.298 1.638 4.657 1.905 7.44m-15.69 20.674c.621-2.553.48-4.92.727-7.207.096-.984-.694-1.465-1.197-2.35a351.15 351.15 0 00-.642 4.134c-.002.07-.027.137-.005.184.229.855-.657 1.358-.401 2.054.36 1.065.91 1.952 1.518 3.185m59.545-19.44c.441 2.284 1.15 4.047 1.789 5.831.192.51.558.566.898.69.477.197.978.325 1.614.55-.743-2.155-1.425-4.055-2.083-5.977-.128-.348-.287-.398-.492-.473-.523-.175-.999-.371-1.726-.62m3.793 1.366c.345 2.487 1.424 4.123 1.87 6.223.102.462.467.54.739.686.519.312 1.012.716 1.721.804-.577-2.356-1.206-4.53-2.185-6.438-.459-.839-1.283-.907-2.145-1.275m-39.073-2.41c.156-2.313-.69-4.057-1.402-5.706-.367-.859-1.357-.725-2.18-.84.45 2.032 1.019 3.837 1.24 5.793.075.621.325.697.598.774.548.084 1.097.168 1.744-.021M43.872 61.3c.744 2.13 1.376 4.167 1.776 6.312.08.438.215.51.423.47.507-.077 1.03.098 1.542-.186.07-1.72-.65-3.024-.906-4.568-.353-2.166-1.45-2.334-2.835-2.028m29.212 9.754c-.3-1.614-.54-2.906-.755-4.22-.1-.53-.324-.743-.644-.774-.55-.061-1.1-.077-1.763-.14.2 1.037.245 1.933.59 2.7.218.442.16.899-.146 1.166-.377.334-.645.097-.836-.46-.276-.81-.599-1.599-.76-2.43-.283-1.338-.868-1.767-1.835-1.633a39.44 39.44 0 001.088 4.619c.105.347.286.443.515.473 1.439.223 2.9.447 4.546.699m-15.61-2.152c-.166-1.496-.551-2.493-.96-3.468a4.926 4.926 0 00-.304-.605c-.264-.42.395-1.021-.079-1.31-.54-.359-1.161-.33-1.735-.3-.043.71.174 1.152.3 1.614.145.532.291 1.064.413 1.618.146.554.289 1.178-.2 1.462-.42.241-.613-.246-.76-.732-.127-.393-.23-.81-.38-1.226-.254-.741-.463-1.504-.741-2.223-.342-.904-.881-1.332-1.62-1.169.222 1.956 1.462 3.55.527 5.842 1.874.281 3.668.101 5.539.497m-27.24 17.67c-.081 1.306-.132 2.314-.206 3.321a20.262 20.262 0 01-.207 1.692c-.057.389-.226.705-.566.558-.272-.122-.286-.443-.231-.763.28-1.874-.009-3.855.479-5.722.282-1.094-.463-1.505-.826-2.478-.43 1.41-.306 2.745-.545 3.93-.104.434-.028 1.033-.197 1.303-.838 1.285-.2 2.243.23 3.287.625 1.509 1.2 3.085 1.842 4.777.51-1.04.633-2.139.683-3.147.075-1.053.285-2.01.495-2.969.442-1.869.401-2.053-.95-3.789m6.684-26.887c.257 1.521.845 2.639 1.2 3.933.229.833.505 1.643.758 2.453.211.648.082 1.173-.36 1.413-.373.196-.473-.335-.623-.729-.706-1.832-1.154-3.886-2.049-5.562-.348-.675.033-1.193.163-1.74-.562-.405-1.111-.466-1.736-.277.179 1.84.731 3.439 1.12 5.124.041.185.128.348.146.532.198 2.827 1.397 3.434 3.056 3.182.898-.136 1.792-.089 2.848-.128-.292-1.89-.586-3.71-1.415-5.247-.305-.582-.8-.963-.612-1.944.105-.48-.281-.605-.51-.657-.615-.154-1.255-.241-1.986-.353m-.976-56.03c-1.007.753-1.543 1.885-2.21 2.762-1.428 1.887-3.008 3.427-4.565 4.99-2.761 2.768-5.324 5.863-7.78 9.214-1.955 2.653-4.061 5.004-6.233 7.192-3.492 3.506-6.589 7.642-9.73 11.754-1.238 1.617-2.343 3.422-3.426 5.228-.624 1.015-.604 1.107.108 1.907a832.6 832.6 0 007.37 8.141c5.612 6.097 11.057 12.488 15.921 19.941 1.738 2.687 3.31 5.598 4.81 8.599.652 1.325 1.326 2.652 2.235 3.824.451-1.41.35-2.698.27-3.962-.244-4.48-.487-8.96-.5-13.458-.014-3.648-.35-7.282-.57-10.936-.045-.873.485-1.776 1.17-1.688 1.235.171 2.492.344 3.722.653 3.737.93 7.48 1.606 11.25 2.192 1.416.223 2.806.582 4.22.92 3.235.777 6.474 1.486 9.725 1.714 3.068.222 6.048 1.153 9.084 1.719 3.926.728 7.852 1.433 11.78 2.138 3.035.542 5.987 1.68 8.934 2.93.953.417.952.44 1.13-1.024.808-5.988 1.594-12.023 1.876-18.095.259-5.201.86-10.37.638-15.606l-.042-.965c-.184-3.309-.799-4.312-3.017-4.58-3.681-.446-7.365-.823-11.07-1.2-3.867-.406-7.712-.741-11.578-1.17a55.984 55.984 0 00-9.397-.305c-1.172.06-2.313-.155-3.484-.119-4.387.154-8.754.447-13.12.739-2.024.15-4.09.208-6.143.61-1.73.343-3.515.156-5.265.406-.553.076-.793-.366-.609-1.233.209-.912.508-1.776.784-2.64 1.33-4.093 2.657-8.14 3.377-12.617.44-2.626.44-5.15.335-7.974M22.935 80.912c.735.777.924 2.25 1.795 3.1.542-2.164.624-4.318.66-6.451.003-.94-.716-1.488-1.353-2.492-.046 1.65-.172 2.886-.114 4.126.036 1.194-.298 1.644-.988 1.717.365-.77-.071-1.585-.003-2.41.071-.892.027-1.788.03-2.706.006-2.73-.037-2.823-1.777-4.637-.454 1.478-.338 3.11-.654 4.593-.106.502.32.88.516 1.253.676 1.28 1.4 2.448 1.888 3.907m14.781-55.067c1.264-.057 2.341-.027 3.4-.158 5.249-.635 10.481-.697 15.739-.828 7.278-.189 14.533.448 21.78 1.382 4.252.553 8.49.785 12.743 1.293 1.303.15 2.684.005 3.92.934.27.214.588.314.666.821.21 1.52.915 2.595 1.455 3.803.648 1.44 1.368 2.814 2.087 4.187.37.722.419 1.434.348 2.35-.103 1.236-.528 2.509.08 3.742.043.093-.01.39-.106.502-.43.63-.27 1.46-.336 2.216-.073.961-.1 1.924-.172 2.886-.36 4.762-.744 9.523-1.06 14.31-.2 3.068-.444 6.113-.872 9.13-.168 1.119-.247 2.287-.324 3.432-.094 1.74-.28 3.456-.441 5.173-.062.594-.214 1.095-.656 1.312-.465.217-.588-.314-.783-.733-.368-.767-.837-1.262-1.424-1.6-1.602-.961-3.154-2.082-4.861-2.565-.752-.205-1.5-.546-2.25-.774-3.093-1.003-6.126-2.509-9.3-3.01-3.154-.477-6.269-1.48-9.444-1.981-3.152-.523-6.326-1.047-9.511-1.203-4.628-.22-9.267-.876-13.908-.66-.987.042-1.972-.031-2.958-.036-2.455-.022-4.9-.364-7.343.027-1.037.178-1.06.154-1.102 1.713-.107 3.874.269 7.693.438 11.53.092 2.503.228 5.03-.954 7.154-.362.632-.477 1.478-.614 2.277-.407 2.283-.656 4.662-1.336 6.846-.15.455-.258 1.025-.671 1.037-.482-.013-.628-.522-.772-1.123-.329-1.385-.586-2.86-1.08-4.09-.816-2.019-1.56-4.15-2.54-6.036-.829-1.582-1.634-3.165-2.368-4.814-1.644-3.624-3.5-7.002-5.334-10.403-2.335-4.354-5.024-8.306-7.596-12.369C7.133 56.615 3.65 52.32.43 47.597c-.64-.935-.639-.981-.083-1.975 2.457-4.246 5.2-8.047 8.032-11.731 1.952-2.539 4.012-4.868 6.116-7.127 2.317-2.46 4.699-4.826 6.754-7.775 1.839-2.633 3.832-5.01 5.866-7.248 3.194-3.49 6.56-6.587 9.23-11.056.36-.586.63-.395.888.254.968 2.344 2.125 4.487 3.591 6.202.356.423.458.862.286 1.293-.394.975-.47 2.075-.637 3.125-.75 4.752-1.773 9.38-2.758 14.286" fill="#333" stroke="#333" stroke-width=".573" stroke-miterlimit="10"/></svg>