<?xml version="1.0" encoding="utf-8"?>
<!-- Generator: Adobe Illustrator 25.4.1, SVG Export Plug-In . SVG Version: 6.00 Build 0)  -->
<svg version="1.1" id="Capa_1" xmlns="http://www.w3.org/2000/svg" xmlns:xlink="http://www.w3.org/1999/xlink" x="0px" y="0px"
	 viewBox="0 0 1755.8 1061" style="enable-background:new 0 0 1755.8 1061;" xml:space="preserve">
<style type="text/css">
	.st0{fill:#82CDDF;}
	.st1{opacity:0.5;fill:#82CDDF;}
	.st2{fill:#00A0A9;}
	.st3{opacity:0.5;fill:#00A0A9;}
	.st4{fill:#5AC1D2;}
	.st5{opacity:0.5;fill:#5AC1D2;}
	.st6{fill:#DDDDDD;}
	.st7{fill:#009ADA;}
	.st8{opacity:0.5;fill:#009ADA;}
	.st9{fill:#004B83;}
	.st10{opacity:0.5;fill:#004B83;}
	.st11{fill:#006FB9;}
	.st12{opacity:0.5;fill:#006FB9;}
	.st13{fill:#FAD6E8;}
	.st14{opacity:0.5;fill:#FAD6E8;}
	.st15{fill:#E85E9E;}
	.st16{opacity:0.5;fill:#E85E9E;}
	.st17{fill:#F5B4D2;}
	.st18{opacity:0.5;fill:#F5B4D2;}
	.st19{fill:#B0DEF5;}
	.st20{fill:#ECF7FA;}
	.st21{fill:#DDF0F9;}
	.st22{fill:#E30613;}
	.st23{fill:#ED6C05;}
	.st24{fill:#FFDB00;}
	.st25{fill:#55BBAB;}
	.st26{fill:#B50F80;}
	.st27{opacity:0.5;}
	.st28{fill:#B87637;}
	.st29{opacity:0.5;fill:#B87637;}
	.st30{fill:#95575D;}
	.st31{opacity:0.5;fill:#95575D;}
	.st32{fill:#713265;}
	.st33{opacity:0.5;fill:#713265;}
	.st34{fill:#82AAC9;}
	.st35{display:none;}
	.st36{display:inline;fill:#02509D;}
	.st37{display:inline;opacity:0.5;fill:#02509D;}
	.st38{display:inline;fill:#FFE111;}
	.st39{display:inline;fill:#FFFFFF;}
	.st40{display:inline;fill:#EDEDED;}
	.st41{display:inline;}
	.st42{fill:#FFFFFF;}
	.st43{display:inline;fill:#95CFC4;}
	.st44{display:inline;opacity:0.5;fill:#95CFC4;}
	.st45{fill:#EE7384;}
</style>
<g>
	<g>
		<g>
			<path class="st0" d="M1705.8,797.2c-96.8-9.1-193.5-18.7-290.2-27.7c-97.8-9.2-401.5-21-456-23.7c-1.1-0.1-2.1,0.1-3,0.4
				c-14.8,2.3-57.5,5.5-72.3,7.8c-36.4,5.6-169.9,17.7-213.7,24.4c-38,5.8-76.1,11.6-114.1,17.5c-12.6,1.9-25.2,3.8-37.8,5.8
				c-5.9,0.9-12,1.3-17.8,2.7c-0.3,0.1-0.5,0.1-0.8,0.1c-9.1,1.4-6.6,15.6,2.1,15.7c14.5,0.1,29.1,0.2,43.6,0.3
				c37.7,0.2,75.4,0.5,113,0.7c52.2,0.3,104.5,0.6,156.7,1c58.4,0.4,116.8,0.7,175.2,1.1c55.4,0.3,110.8,0.7,166.2,1
				c44.5,0.3,89.1,0.6,133.6,0.8c24.6,0.2,49.1,0.3,73.7,0.5c15.4,0.1,30.7-0.8,46.1-1.4c53.5-2,107-3.9,160.4-5.9
				c42.7-1.6,85.3-3.1,128-4.7c2.3-0.1,4.7-0.2,7-0.3C1716.2,812.7,1715.9,798.1,1705.8,797.2z"/>
			<path class="st1" d="M1705.8,797.2c-29.7-2.8-59.4-5.7-89.2-8.5c-59,8.7-118.4,10.6-178.4,11.6c-82.1,1.4-164.2,2.1-246.3,1.6
				c-81.8-0.5-163.4-2.2-245.1-6.4c-36.9-1.9-73.7-4.2-110.6-4.6c-34.1-0.4-67.4-2.3-98.2-18.2c-1.3-0.7-2.4-1.4-3.5-2.1
				c-26.5,2.9-49.9,5.6-64,7.8c-38,5.8-76.1,11.6-114.1,17.5c-12.6,1.9-25.2,3.8-37.8,5.8c-5.9,0.9-12,1.3-17.8,2.7
				c-0.3,0.1-0.5,0.1-0.8,0.1c-9.1,1.4-6.6,15.6,2.1,15.7c14.5,0.1,29.1,0.2,43.6,0.3c37.7,0.2,75.4,0.5,113,0.7
				c52.2,0.3,104.5,0.6,156.7,1l175.2,1.1c55.4,0.3,110.8,0.7,166.2,1c44.5,0.3,89.1,0.6,133.6,0.8c24.6,0.2,49.1,0.3,73.7,0.5
				c15.4,0.1,30.7-0.8,46.1-1.4c53.5-2,107-3.9,160.4-5.9c42.7-1.6,85.3-3.1,128-4.7c2.3-0.1,4.7-0.2,7-0.3
				C1716.2,812.7,1715.9,798.1,1705.8,797.2z"/>
			<path class="st2" d="M1375.1,816c-19.4,70.8-22,145.7-7.1,217.6c0.4,1.8,0.2,3.4-0.4,4.7c-0.9,3-3.3,5.4-7.3,5.4h-1.4
				c-11.2,0.3-22.4,0-33.7,0H494.6c-3.4,0-7-2.5-7.7-5.9c-15.5-74.7-13.2-152.5,7.1-226c0.9-3.4,4.2-5.8,7.7-5.8h1.4
				c11.2-0.3,22.4,0,33.7,0h830.7C1372.6,805.9,1376.5,811,1375.1,816z"/>
			<path class="st3" d="M1358.7,953.1c-35.9,21.3-75.7,36.6-115.7,46.1c-76.8,18.3-158.3,16.6-236.7,13.9c-78.7-2.7-157.3-5-236-6.4
				c-67.5-1.2-143.8-5.4-201-45.4c-49-34.2-78.5-85.6-76.6-144c-18.9,72-20.8,147.8-5.7,220.6c0.7,3.4,4.3,5.9,7.7,5.9h830.7
				c11.2,0,22.4,0.3,33.7,0h1.4c4,0,6.4-2.4,7.3-5.4c0.6-1.4,0.8-3,0.4-4.7C1362.5,1007,1359.4,980.1,1358.7,953.1z"/>
			<path class="st4" d="M1719.1,1004.1c-1.1,0.3-2.2,0.3-3.1,0.2c-0.5,0.2-1,0.4-1.6,0.5c-25.3,5.7-50.7,10.9-76.3,15.4
				c-90.5,15.9-182.3,24-274.2,24.1c-0.9,0.1-1.6-0.1-2.3-0.3c-3.2,0-6.5-1.6-7.9-5.4c-2-5.4-3.1-11.3-4.2-17
				c-3.4-17-5.7-34.2-7.4-51.4c-2.7-25.9-4.4-51.8-1.9-77.9c2.8-27.5,8.4-56,19.7-81.4c1.1-2.4,4.4-4.1,6.9-4
				c24.9,0.9,49.9,1.5,74.8,1.6c88.4,0.7,176.8-3,264.8-11c8.1-0.7,9.7,9.1,5,13.7c-0.7,2.7-1.3,5.3-1.9,8
				c-12.5,55.4-8.2,113.5,11.7,166.6c1.1,2.8,2.2,5.6,3.3,8.5C1726.3,998.2,1722.9,1003.1,1719.1,1004.1z"/>
			<path class="st5" d="M1723.3,990.7c-36.6,10.1-74.3,15.8-112,22.1c-42.2,7-85.5,13.2-128.3,8.9c-43.6-4.5-89.7-19.6-111.7-60.8
				c-26.7-50-8.2-104.8,14.2-153.4c-6.2-0.2-12.4-0.3-18.6-0.5c-2.5-0.1-5.8,1.6-6.9,4c-11.3,25.4-17,53.9-19.7,81.4
				c-2.6,26-0.9,51.9,1.9,77.9c1.8,17.2,4,34.5,7.4,51.4c1.2,5.7,2.2,11.5,4.2,17c1.4,3.8,4.7,5.4,7.9,5.4c0.7,0.2,1.5,0.3,2.3,0.3
				c91.9-0.1,183.7-8.2,274.2-24.1c25.6-4.5,51-9.7,76.3-15.4c0.6-0.1,1.1-0.3,1.6-0.5c1,0.1,2.1,0.1,3.1-0.2c3.8-1,7.2-5.8,5.6-9.8
				C1724.2,993.1,1723.7,991.9,1723.3,990.7z"/>
			<path class="st6" d="M1721.3,985.8c-45.1,7.1-90.4,13.4-135.7,18.5c-30.8,3.4-61.8,5.9-92.8,5c-14.9-0.4-29.8-1.6-44.6-3.8
				c-13.5-1.9-27.2-5-39-12.1c-19.6-11.9-30.9-33.3-35.4-55.2c-4.5-21.8-4.9-47.6,6-67.6c13.6-24.9,43.6-27,68.8-30.3
				c29.9-3.9,60-5.7,90.2-6.9c57.1-2.4,114.6-3.1,170.9-14.2C1697.1,874.6,1701.4,932.7,1721.3,985.8z"/>
		</g>
		<g>
			<g>
				<path class="st7" d="M1748.1,524.9c-96.8-9.1-193.5-18.6-290.2-27.7c-97.8-9.2-401.5-21-456-23.7c-1.1-0.1-2.1,0.1-3,0.4
					c-14.8,2.3-57.5,5.5-72.3,7.8c-36.4,5.6-169.9,17.7-213.7,24.4c-38,5.8-76.1,11.6-114.1,17.5c-12.6,1.9-25.2,3.9-37.8,5.8
					c-5.9,0.9-12,1.3-17.8,2.7c-0.3,0.1-0.5,0.1-0.8,0.1c-9.1,1.4-6.6,15.6,2.1,15.7c14.5,0.1,29.1,0.2,43.6,0.3
					c37.7,0.2,75.4,0.5,113,0.7c52.2,0.3,104.5,0.7,156.7,1c58.4,0.4,116.8,0.7,175.2,1.1c55.4,0.3,110.8,0.7,166.2,1
					c44.5,0.3,89.1,0.6,133.6,0.8c24.6,0.2,49.1,0.3,73.7,0.5c15.4,0.1,30.7-0.8,46.1-1.4c53.5-2,106.9-3.9,160.4-5.9
					c42.7-1.6,85.3-3.1,128-4.7c2.3-0.1,4.7-0.2,7-0.3C1758.5,540.4,1758.2,525.8,1748.1,524.9z"/>
				<path class="st8" d="M1748.1,524.9c-29.7-2.8-59.4-5.7-89.1-8.5c-59,8.7-118.3,10.6-178.4,11.6c-82.1,1.4-164.2,2.1-246.3,1.6
					c-81.8-0.5-163.4-2.2-245.1-6.4c-36.9-1.9-73.7-4.2-110.6-4.6c-34.1-0.4-67.4-2.3-98.2-18.2c-1.3-0.7-2.4-1.4-3.5-2.1
					c-26.5,2.9-49.9,5.6-64,7.7c-38,5.8-76.1,11.6-114.1,17.5c-12.6,1.9-25.2,3.9-37.8,5.8c-5.9,0.9-12,1.3-17.8,2.7
					c-0.3,0.1-0.5,0.1-0.8,0.1c-9.1,1.4-6.6,15.6,2.1,15.7c14.5,0.1,29.1,0.2,43.6,0.3c37.7,0.2,75.4,0.5,113,0.7
					c52.2,0.3,104.5,0.7,156.7,1l175.2,1.1c55.4,0.3,110.8,0.7,166.2,1c44.5,0.3,89.1,0.6,133.6,0.8c24.6,0.2,49.1,0.3,73.7,0.5
					c15.4,0.1,30.7-0.8,46.1-1.4c53.5-2,106.9-3.9,160.4-5.9c42.7-1.6,85.3-3.1,128-4.7c2.3-0.1,4.7-0.2,7-0.3
					C1758.5,540.4,1758.2,525.8,1748.1,524.9z"/>
				<path class="st9" d="M1417.4,543.7c-19.4,70.8-22,145.7-7.1,217.6c0.4,1.8,0.2,3.4-0.4,4.7c-0.9,2.9-3.3,5.4-7.3,5.4h-1.4
					c-11.2,0.3-22.4,0-33.7,0H536.9c-3.3,0-7-2.5-7.7-5.9c-15.5-74.7-13.2-152.4,7.1-226c0.9-3.4,4.2-5.8,7.7-5.8h1.4
					c11.2-0.3,22.4,0,33.7,0h830.7C1414.9,533.6,1418.8,538.7,1417.4,543.7z"/>
				<path class="st10" d="M1401,680.8c-35.9,21.4-75.7,36.6-115.7,46.1c-76.8,18.3-158.3,16.6-236.7,13.9c-78.7-2.7-157.3-5-236-6.4
					c-67.5-1.2-143.8-5.4-201-45.4c-49-34.2-78.5-85.7-76.6-144c-18.9,72-20.8,147.8-5.7,220.6c0.7,3.4,4.3,5.9,7.7,5.9h830.7
					c11.2,0,22.4,0.3,33.7,0h1.4c4,0,6.4-2.4,7.3-5.4c0.6-1.4,0.8-3,0.4-4.7C1404.9,734.7,1401.7,707.8,1401,680.8z"/>
				<path class="st11" d="M1761.4,731.8c-1.1,0.3-2.2,0.3-3.2,0.2c-0.5,0.2-1,0.4-1.6,0.5c-25.3,5.7-50.7,10.9-76.3,15.4
					c-90.5,15.9-182.3,24-274.2,24.1c-0.9,0-1.6-0.1-2.3-0.3c-3.2,0-6.5-1.6-7.9-5.4c-2-5.4-3.1-11.3-4.2-17
					c-3.5-17-5.7-34.2-7.4-51.5c-2.7-25.9-4.4-51.9-1.9-77.9c2.8-27.5,8.4-56,19.7-81.4c1.1-2.4,4.4-4.1,6.9-4
					c24.9,0.9,49.9,1.5,74.8,1.6c88.4,0.7,176.8-3,264.8-11c8.1-0.7,9.7,9.1,5,13.7c-0.7,2.7-1.3,5.3-1.9,8
					c-12.5,55.3-8.2,113.5,11.7,166.6c1.1,2.9,2.2,5.7,3.3,8.5C1768.6,725.9,1765.2,730.8,1761.4,731.8z"/>
				<path class="st12" d="M1765.6,718.4c-36.6,10.1-74.3,15.9-112,22.1c-42.2,7-85.5,13.2-128.3,8.9c-43.6-4.5-89.6-19.6-111.7-60.8
					c-26.7-50-8.2-104.8,14.2-153.4c-6.2-0.2-12.4-0.3-18.6-0.5c-2.5-0.1-5.8,1.5-6.9,4c-11.3,25.4-17,53.9-19.7,81.4
					c-2.6,26-0.9,51.9,1.9,77.9c1.8,17.2,4,34.5,7.4,51.5c1.2,5.6,2.2,11.5,4.2,17c1.4,3.8,4.7,5.4,7.9,5.4c0.7,0.2,1.5,0.4,2.3,0.3
					c91.9-0.1,183.7-8.2,274.2-24.1c25.6-4.5,51-9.7,76.3-15.4c0.6-0.1,1.1-0.3,1.6-0.5c1,0.1,2.1,0.1,3.2-0.2
					c3.8-1,7.2-5.8,5.6-9.8C1766.5,720.8,1766,719.6,1765.6,718.4z"/>
				<path class="st6" d="M1763.6,713.5c-45.1,7.1-90.4,13.4-135.7,18.5c-30.8,3.4-61.8,5.9-92.8,5c-14.9-0.4-29.8-1.6-44.6-3.8
					c-13.5-1.9-27.2-5-39-12.1c-19.6-11.9-30.9-33.3-35.4-55.2c-4.5-21.8-4.9-47.6,6-67.6c13.6-24.9,43.6-27,68.8-30.3
					c29.9-3.9,60-5.7,90.2-6.9c57.1-2.4,114.6-3.1,170.9-14.2C1739.4,602.3,1743.7,660.5,1763.6,713.5z"/>
			</g>
			<g>
				<path class="st13" d="M1364.8,551.5c-10.9,41.9-16.5,85.1-16.8,128.4c-0.1,21.7,1.1,43.4,3.6,65c1,8.6,2,17.6,3.6,26.4h-20.5
					c-1.8-10.1-2.8-20.4-3.9-30.2c-7.7-69.3-1.5-140.4,17.7-207.5h21.1C1368,539.6,1366.4,545.5,1364.8,551.5z"/>
			</g>
			<g>
				<path class="st13" d="M1312.7,771.4h-20.2c-1.1-16.4-2-32.7-2.6-49.1c-2.1-63.1,1.3-127.3,16.2-188.6h20.7
					C1307,611.2,1307.2,691.8,1312.7,771.4z"/>
			</g>
			<g>
				<path class="st13" d="M1271.2,735.8c0.5,11.8,1,23.7,1.8,35.5h-20.3c0-0.1,0-0.2,0-0.3c-0.9-14.8-1.6-29.6-2.2-44.4
					c-2.5-64.2-0.9-130.3,13.4-193.1h20.7c-9.7,40.4-13.7,81.8-14.7,123.3C1269.4,683.2,1270,709.6,1271.2,735.8z"/>
			</g>
		</g>
		<g>
			<path class="st13" d="M1698.8,261.7c-82.4-16.1-165.3-29.2-248.5-40.4c-83-11.2-166.3-20.4-249.7-28.7
				c-46.8-4.7-93.6-9.1-140.4-13.4c-0.3,0-0.7-0.1-1-0.1c-0.3,0-0.5,0-0.7,0c-0.2,0-0.4,0-0.6,0.1c-0.3,0.1-0.6,0.1-0.9,0.2
				c-88.3,20.3-177.2,38.4-266.4,54.3c-24.6,4.4-45.5,7.4-69.6,14.3c-4,1.1-5.5,11.4-3.8,14c0.1,0.6-2.8-3.8-2.5-3.1
				c14,24.2,41.1,34.5,66.8,41.3c35,9.2,70.5,17,105.8,24.8c72.3,15.9,145,29.8,218.1,41.7c72.3,11.8,145.1,22.4,218.4,24.5
				c67,1.9,134.7-3.4,199.4-21.8c58.3-16.5,114.2-43.1,161-82c5.9-4.9,11.6-10,17.1-15.2c1-1,1.5-2.1,1.6-3.2
				C1703.8,266.2,1702.5,262.4,1698.8,261.7z"/>
			<path class="st14" d="M1698.8,261.7c-14-2.8-28.1-5.4-42.2-7.9c-24,7.9-48.3,14.7-72.8,20.3c-64.3,14.9-129.6,19-195.4,15.2
				c-66.8-3.9-134-10.9-200.5-18.1c-28.7-3.1-57.4-8.2-85-16.7c-21.6-6.7-47.7-15.6-65.3-30.5c-14.4-12.2-16.3-25.5-11.3-37.7
				c-78.2,17.5-156.9,33.3-235.8,47.4c-24.6,4.4-45.5,7.4-69.6,14.3c-4,1.1-5.5,11.4-3.8,14c0.1,0.6-2.8-3.8-2.5-3.1
				c14,24.2,41.1,34.5,66.8,41.3c35,9.2,70.5,17,105.8,24.8c72.3,15.9,145,29.8,218.1,41.7c72.3,11.8,145.1,22.4,218.4,24.5
				c67,1.9,134.7-3.4,199.4-21.8c58.3-16.5,114.2-43.1,161-82c5.9-4.9,11.6-10,17.1-15.2c1-1,1.5-2.1,1.6-3.2
				C1703.8,266.2,1702.5,262.4,1698.8,261.7z"/>
			<path class="st15" d="M1387.1,555.7c-0.2,0.4-0.4,0.7-0.6,1.1c-0.8,1.4-2.3,2.5-4.5,2.3c-0.4,0-0.7-0.1-1.1-0.1
				c-8.7-0.4-17.4-1.3-26.2-1.9l-641.6-46.4c-2.4-0.2-4-1.9-4.6-4.1c-5.5-18.4-9.7-37.1-12.4-56.1c-9.8-66.8-2.8-135.9,20.5-199.2
				c0.8-2.1,2.9-3.5,5.1-3.4l1.1,0.1c8.9,0.4,17.9,1.3,26.8,1.9l661.6,47.9c2.2,0.2,4.1,1.9,4.6,4.1c4,18.8,6.6,37.8,7.8,56.9
				C1428,426.2,1415.5,494.5,1387.1,555.7z"/>
			<path class="st16" d="M1382,500.8c-34.9,9.1-70.2,15.3-106.3,17.6c-67.7,4.3-136.8-2.5-203.9-11.4
				c-61.5-8.2-125.6-16.8-184.9-35.7c-50-15.9-101.6-45.5-125.9-94.1c-19.8-39.7-15.9-84.2-11.8-127.2c-8.8-0.6-17.5-1.5-26.3-1.9
				l-1.1-0.1c-2.2-0.2-4.4,1.3-5.1,3.4c-23.3,63.4-30.3,132.4-20.5,199.2c2.8,19,7,37.7,12.4,56.1c0.7,2.2,2.2,3.9,4.6,4.1
				l641.6,46.4c8.7,0.6,17.4,1.5,26.2,1.9c0.4,0,0.7,0,1.1,0.1c2.2,0.2,3.7-0.9,4.5-2.3c0.3-0.3,0.5-0.7,0.6-1.1
				c9.4-20.2,17-41.2,22.9-62.6C1400.7,496,1391.2,498.3,1382,500.8z"/>
			<path class="st2" d="M919.9,525.6l-127.3-9.2c-3.6-14.1-6.4-28.5-8.4-42.9c-10.3-74-0.4-150.2,28.2-219l128.9,9.3
				c-1.3,4.8-2.5,9.6-3.5,14.4c-6.9,31-12,62.3-15.3,93.8C916.9,423,916.1,474.5,919.9,525.6z"/>
			<path class="st2" d="M1317.9,554.5l-127.3-9.2c-3.6-14.1-6.4-28.5-8.4-42.9c-10.3-74-0.4-150.2,28.2-219l128.9,9.3
				c-1.3,4.8-2.5,9.6-3.5,14.4c-6.9,30.9-12,62.3-15.4,93.8C1315,451.9,1314.1,503.3,1317.9,554.5z"/>
			<path class="st17" d="M1695.1,494.5c-0.5,1.5-1.7,2.6-3.6,3c-22.6,4.7-45.2,9.5-67.7,14.2c-79.3,16.6-158.6,33.3-237.9,49.9
				c-4.7,1-7-4.2-5.3-7.5c0.4-19.3,0.9-38.6,1.4-57.9c0.8-34.2,0.9-68.4,3-102.5c1.1-16.8,2.8-33.6,5.9-50.2
				c2.6-13.8,5.7-27.5,11.6-40.3c-0.2-1.8,0.5-3.6,2.3-4.5c0.2-0.3,4-0.7,8.1-1.4c19.3-2.7,38.6-5.4,57.9-7.9
				c75.9-10,152-18.9,228.3-26c6.9-0.7,4,8.9,3.4,9.6c-1.1,2.8-2.2,5.5-3.3,8.3c-4.5,11.7-8.2,23.7-11.1,35.8
				c-12.6,53.5-9.4,110.8,9.1,162.5c0.9,2.5,1.9,5,2.8,7.5C1701.6,491.2,1698.3,494.4,1695.1,494.5z"/>
			<path class="st18" d="M1475.5,521.9c-29.7-26.9-41.2-67.1-44.7-105.8c-2.1-23.7-2.4-47.8-0.2-71.5c1.2-12.5,2.7-25.3,6.3-37.4
				c1.3-4.5,3.2-9.1,4.8-13.7c-9.6,1.3-19.3,2.7-28.9,4c-4.1,0.7-7.9,1.1-8.1,1.4c-1.7,0.9-2.4,2.7-2.3,4.5
				c-5.9,12.7-9.1,26.5-11.6,40.3c-3.1,16.6-4.8,33.4-5.9,50.2c-2.2,34.1-2.3,68.3-3,102.5c-0.5,19.3-0.9,38.6-1.4,57.9
				c-1.7,3.3,0.6,8.5,5.3,7.5c37.5-7.9,74.9-15.7,112.4-23.6C1490.3,533.7,1482.7,528.3,1475.5,521.9z"/>
			<path class="st6" d="M1697.2,479.7c-26.3,7.9-52.9,14.5-80,19.2c-23.9,4.1-48.2,6.6-72.5,7c-23.2,0.4-48.7-0.7-69.5-12.1
				c-20.9-11.6-28.3-34.5-31.8-56.8c-3.7-24-2.5-48.9,3.9-72.3c2.8-10.1,6.9-20.3,13.8-28.3c7.1-8.2,16.4-12.8,26.7-15.7
				c23.6-6.7,48.4-9.9,72.6-13.4c46.6-6.7,93.6-11.9,138.8-25.9c-4.5,11.7-8.2,23.7-11.1,35.8C1675.5,370.7,1678.6,428,1697.2,479.7
				z"/>
			<path class="st3" d="M871.8,504.4c-31.4-9.6-56.4-33.5-66.1-64.8c-9.6-30.7-5.9-64.2,0.3-95.1c3.5-17.6,8.3-35,11.7-52.7
				c2.3-12.2,4.6-24.4,7.6-36.3l-12.9-0.9c-28.6,68.8-38.5,145-28.2,219c2,14.5,4.8,28.8,8.4,42.9l127.3,9.2
				c-0.4-5.7-0.8-11.3-1.1-17C903.2,510.2,887.4,509.1,871.8,504.4z"/>
			<path class="st3" d="M1192.4,449.6c-6.8-56.7,16.4-112.1,36.7-165l-18.7-1.4c-28.6,68.8-38.4,145-28.2,219
				c2,14.5,4.8,28.8,8.4,42.9l127.3,9.2c-0.5-6.3-0.9-12.7-1.2-19C1259.9,541.2,1199.9,512.2,1192.4,449.6z"/>
		</g>
		<g>
			<g>
				<path class="st19" d="M384.2,1060.5L31.8,906.3c-20.1-8.8-29.3-32.3-20.5-52.4l363.3-830C383.4,3.7,406.8-5.5,427,3.4
					l352.4,154.2c20.1,8.8,29.3,32.3,20.5,52.4l-363.3,830C427.8,1060.2,404.3,1069.3,384.2,1060.5z"/>
				<path class="st20" d="M779.4,157.6L579.6,70.2c-5.3,14.1-9.3,28.7-14.1,43c-7.5,22.2-15.8,44.1-24.3,65.8
					c-18.5,47.4-38.4,94.2-56.8,141.6c-33.3,85.4-69,169.9-109,252.4c-33.6,69.1-66.1,141.4-109.4,205.1
					c-35.4,52.2-90.6,112.9-160.2,104.1c-33.5-4.2-62.6-22.7-86.5-46.8l-8.1,18.4c-8.8,20.1,0.4,43.6,20.5,52.4l352.4,154.2
					c20.1,8.8,43.6-0.4,52.4-20.5l363.3-830C808.7,189.9,799.5,166.4,779.4,157.6z"/>
				<path class="st21" d="M779.4,157.6L624,89.6L228.8,992.5l155.4,68c20.1,8.8,43.6-0.4,52.4-20.5l363.3-830
					C808.7,189.9,799.5,166.4,779.4,157.6z"/>
				<path class="st21" d="M346.9,994.3c-46.3-49.8-31-121.6-9.2-178.7c27.9-73.1,62.7-144.3,94.1-216
					c72.7-166.1,154.9-328.4,223.1-496.5L624,89.6L228.8,992.5l155.4,68c20.1,8.8,43.6-0.4,52.4-20.5l2.1-4.8
					C404.3,1033.3,370.9,1020.1,346.9,994.3z"/>
				<g>
					<path class="st22" d="M733.6,267.5c-14.8,33.9-54.4,49.4-88.3,34.5c-33.9-14.9-49.4-54.4-34.5-88.3
						c14.8-33.9,54.4-49.4,88.3-34.5C733,194.1,748.4,233.6,733.6,267.5z"/>
					<path class="st23" d="M673.6,404.5c-14.8,33.9-54.4,49.4-88.3,34.5c-33.9-14.8-49.4-54.4-34.5-88.3
						c14.8-33.9,54.4-49.4,88.3-34.5C673,331,688.5,370.6,673.6,404.5z"/>
					<path class="st24" d="M613.7,541.4c-14.8,33.9-54.4,49.4-88.3,34.5c-33.9-14.8-49.4-54.4-34.5-88.3
						c14.8-33.9,54.4-49.4,88.3-34.5C613.1,468,628.5,507.5,613.7,541.4z"/>
					<path class="st25" d="M553.7,678.4c-14.8,33.9-54.4,49.4-88.3,34.5c-33.9-14.9-49.4-54.4-34.5-88.3
						c14.8-33.9,54.4-49.4,88.3-34.5C553.1,604.9,568.6,644.5,553.7,678.4z"/>
					<path class="st9" d="M493.8,815.3c-14.8,33.9-54.4,49.4-88.3,34.5c-33.9-14.8-49.4-54.4-34.5-88.3
						c14.8-33.9,54.4-49.4,88.3-34.5C493.2,741.9,508.7,781.4,493.8,815.3z"/>
					<path class="st26" d="M433.9,952.3c-14.8,33.9-54.4,49.4-88.3,34.5c-33.9-14.8-49.4-54.4-34.5-88.3
						c14.8-33.9,54.4-49.4,88.3-34.5C433.2,878.8,448.7,918.4,433.9,952.3z"/>
				</g>
				<g class="st27">
					<path class="st22" d="M681.2,288.4c-35.9-9.2-52.4-46.7-39.7-80.4c6.3-16.7,18.2-29.2,32.4-34.3c-26.4-0.7-51.9,14.4-63.1,40.1
						c-14.8,33.9,0.6,73.4,34.5,88.3c28.4,12.4,60.7,3.6,79.2-19.5C711.3,289.5,695.8,292.1,681.2,288.4z"/>
					<path class="st23" d="M591.9,400.6c-21.8-29.7-11.2-77.1,22.6-90c-26.6-0.9-52.3,14.2-63.7,40.1c-14.9,33.9,0.6,73.4,34.5,88.3
						c26.2,11.5,55.6,4.8,74.5-14.4C634.7,429,606.8,421,591.9,400.6z"/>
					<path class="st24" d="M522.4,511.7c-0.8-23.1,11.2-55.4,33.8-64.1c-27.2-1.6-53.8,13.6-65.4,40c-14.8,33.9,0.6,73.5,34.5,88.3
						c25.7,11.3,54.7,5,73.7-13.4C565.2,572.3,523.7,549.2,522.4,511.7z"/>
					<path class="st25" d="M454.9,653c-3.5-28.9,14.1-59.8,39.9-68.5c-26.7-1-52.6,14.1-63.9,40.1c-14.8,33.9,0.6,73.4,34.5,88.3
						c17.8,7.8,37.1,7.2,53.6,0C487.7,711.4,458.9,685.7,454.9,653z"/>
					<path class="st9" d="M406.1,802.5c-6-16.6-5.6-37.3,2.6-53.1c8-15.5,22.6-23.3,38.9-26.2c-30.9-7.3-63.5,8.2-76.7,38.3
						c-14.8,33.9,0.6,73.5,34.5,88.3c26.8,11.7,57,4.5,75.9-15.8C452.4,845.4,417.4,834,406.1,802.5z"/>
					<path class="st26" d="M348.2,935.2c-9.4-32.4,8.7-70,42-74.4c-31.6-8.8-65.7,6.7-79.2,37.7c-14.8,33.9,0.6,73.5,34.5,88.3
						c28.2,12.4,60.2,3.7,78.8-19.1C395.7,980.9,358,968.9,348.2,935.2z"/>
				</g>
				<g>
					<path class="st28" d="M376,246.2c0.2,0.5,0.4,1,0.6,1.5l56.2,24.6c0.6-0.1,1.2-0.3,1.8-0.4c31.8-7.7,45.6-42.6,48.1-73.1
						c0.3-3.8,0.4-7.4,0.4-11c-0.1-19.9-5.5-39.1-14.8-56.7c-4.3-8.2-8.4-16.4-13-24.4c-1.3-2.2-6-8.3-6.3-9.7
						c6.8,31.2-26.6,49.7-46.9,65.8c-10.8,8.5-20.8,18.5-26,31.4c-4.5,11-6,23.2-4.6,35C372.2,235,373.7,240.8,376,246.2z"/>
					<path class="st29" d="M482.7,198.8c0.3-3.8,0.4-7.4,0.4-11c-0.1-19.9-5.5-39.1-14.8-56.7c-4.3-8.2-8.4-16.4-13-24.4
						c0,0,0-0.1-0.1-0.1c-0.6,8.3-1,16.5-0.6,24.7c0.6,13.2,4.1,26,5.5,39.1c2.1,20,1.9,43.7-11.1,60.3
						c-15,19.2-42.4,21.4-64.1,14.1c-3.5-1.1-7.4-2.9-11.3-5.1c0.7,2.2,1.4,4.5,2.3,6.6c0.2,0.5,0.4,1,0.6,1.5l56.2,24.6
						c0.6-0.1,1.2-0.3,1.8-0.4C466.5,264.1,480.2,229.3,482.7,198.8z"/>
					<path class="st30" d="M432.4,271.9L173.4,841c-4.8,10.6-17.2,15.3-27.8,10.7l0,0c-10.6-4.7-15.6-17-11.1-27.7l242.3-576.4"/>
					<path class="st31" d="M376.8,247.6l-71.4,169.7c16.6,15.6,23.3,37,17,62.9c-4.8,20-14.6,38.3-23.6,56.6
						c-13.2,26.8-26.4,53.6-39.6,80.4c-25.5,52.2-48.2,105.7-73.5,158c-7.8,16.1-18.3,37.3-34.9,45.8c-5.9,3-11.4,3.6-16.1,2.3
						l-0.2,0.6c-4.5,10.7,0.4,23,11.1,27.7l0,0c10.6,4.6,23-0.1,27.8-10.7l259-569.1L376.8,247.6z"/>
					<polygon class="st32" points="356,439.7 432.4,271.9 376.8,247.6 305.4,417.5 					"/>
					<path class="st33" d="M409.5,261.9c-4.9,38-11.9,77.5-32,110.1c-14.6,23.8-43.3,45.6-66.3,31.7l-5.8,13.8l50.6,22.2l76.4-167.8
						L409.5,261.9z"/>
					<line class="st34" x1="376.8" y1="247.6" x2="432.4" y2="271.9"/>
				</g>
			</g>
		</g>
		<g class="st35">
			<path class="st36" d="M923.4,1603.4c3.3,2.1,6.8,4.1,10.3,5.7c12.8,5.9,27.4,8.2,41.3,4.9c14-3.3,25.2-12.8,31.9-25.4
				c6.5-12.3,8.6-27.2,6.7-40.9c-2.2-15.5-8.9-29.9-17.2-43.1c-8.7-13.8-19-26.5-29.3-39.1c-11-13.4-22.4-26.6-33.4-40
				c-20.3-24.7-39.8-50.6-53.3-79.7c-11.8-25.5-19.5-53.6-17.7-81.8c0.2-3.5,0.6-7,1.1-10.4c0.2-1.8-0.7-4.1-2.6-4.7
				c-11.5-3.7-23.1-7.4-34.6-11.1c-18.4-5.9-36.7-11.8-55.1-17.7c-4.2-1.4-8.4-2.7-12.6-4c-2.7-0.9-5.7,0.3-6.2,3.3
				c-4.3,26.2-4.7,53.1-1,79.4c3.8,27.6,12.3,53.9,23.9,79.2c12.7,27.6,26.2,54.9,40.3,81.8c14,26.7,29,53,46.4,77.6
				c8.6,12.2,17.7,24,27.6,35.2C899.8,1583.9,910.5,1595.2,923.4,1603.4z"/>
			<path class="st37" d="M923.4,1603.4c3.3,2.1,6.8,4.1,10.3,5.7c12.8,5.9,27.4,8.2,41.3,4.9c14-3.3,25.2-12.8,31.9-25.4
				c6.5-12.3,8.6-27.2,6.7-40.9c-0.4-2.7-1-5.4-1.6-8c-8.4,14.9-24,25.1-41,27.8c-23.8,3.8-46.5-9-64-23.8
				c-23.2-19.6-40.6-45.2-57-70.4c-33.1-51.2-67.5-101.1-78.7-162.2c-4.8-25.9-6.9-57.7,6.9-81.4c1.3-2.2,2.8-4.3,4.4-6.1
				c-3.7-1.2-7.4-2.4-11.1-3.6c-4.2-1.4-8.4-2.7-12.6-4c-2.7-0.9-5.7,0.3-6.2,3.3c-4.3,26.2-4.7,53.1-1,79.4
				c3.8,27.6,12.3,53.9,23.9,79.2c12.7,27.6,26.2,54.9,40.3,81.8c14,26.7,29,53,46.4,77.6c8.6,12.2,17.7,24,27.6,35.2
				C899.8,1583.9,910.5,1595.2,923.4,1603.4z"/>
			<path class="st36" d="M776.4,794.1c-2.6-3-5.3-5.8-8.3-8.4c-10.6-9.3-24-15.7-38.1-16.5c-14.4-0.8-27.8,5.1-37.8,15.3
				c-9.8,10-16,23.6-18.1,37.3c-2.3,15.5,0,31.2,4.2,46.2c4.4,15.7,10.6,30.9,16.9,45.8c6.7,16,13.8,31.9,20.6,47.9
				c12.4,29.5,23.7,59.8,28.3,91.6c4,27.8,3.3,56.9-6.4,83.5c-1.2,3.3-2.5,6.5-4,9.7c-0.7,1.6-0.5,4.2,1.1,5.3
				c10,6.9,20,13.7,30,20.5c15.9,10.9,31.8,21.8,47.7,32.7c3.6,2.5,7.3,5,10.9,7.5c2.3,1.6,5.5,1.3,6.9-1.4
				c11.6-23.9,19.6-49.5,23.6-75.8c4.2-27.5,3.7-55.1-0.3-82.7c-4.3-30.1-9.4-60.1-15.2-89.9c-5.8-29.6-12.7-59-22.3-87.7
				c-4.7-14.1-10.1-28.1-16.3-41.6C793.4,819.5,786.4,805.6,776.4,794.1z"/>
			<path class="st37" d="M764.7,1172.2l47.7,32.7c0.7,0.4,1.3,0.9,2,1.4c6.1-1.2,12.4-1.7,18.7-1.6c10-22.1,17.1-45.5,20.7-69.5
				c2-12.9,2.9-25.7,2.9-38.6c-1.8-0.4-3.6-0.8-5.4-1.1c-22.4-4.1-47.1-8.1-65.8-22.1c-30.8-23.1-35.4-67.6-42.5-102.4
				c-7.1-34.9-25.3-66.2-32-101.2c-6.2-32.6,2.1-67.4,37.7-76.8c8-2.1,16.5-2.7,24.9-1.8c-1.8-1.9-3.6-3.7-5.5-5.4
				c-10.6-9.3-24-15.7-38.1-16.5c-14.4-0.8-27.8,5.1-37.8,15.3c-9.8,10-16,23.6-18.1,37.3c-2.3,15.5,0,31.2,4.2,46.2
				c4.4,15.7,10.6,30.9,16.9,45.8c6.7,16,13.8,31.9,20.6,47.9c12.4,29.5,23.7,59.8,28.3,91.6c4,27.8,3.3,56.9-6.4,83.5
				c-1.2,3.3-2.5,6.5-4,9.7c-0.7,1.6-0.5,4.2,1.1,5.3C744.8,1158.5,754.8,1165.3,764.7,1172.2z"/>
			<path class="st38" d="M712.2,1319.6c-58.2-47.8-66.6-133.7-18.8-191.8c47.8-58.2,133.7-66.6,191.8-18.8
				c58.1,47.8,66.6,133.7,18.8,191.8C856.2,1359,770.4,1367.4,712.2,1319.6z"/>
			<path class="st38" d="M829.7,1347c-43-1.3-84.4-20.7-112.3-54.3c-28.8-34.6-41.1-86-25.2-128.9c15.4-41.5,57.7-74,102.5-74.9
				c55.9-1.1,106.2,40.6,123.1,92.3c8.8,26.8,10.5,56.1,4.7,83.7c-0.8,3.8-1.6,7.7-2.5,11.6c28.7-55.8,15.7-126-34.8-167.4
				c-58.2-47.8-144-39.4-191.8,18.8c-47.8,58.1-39.4,144,18.8,191.8C746.3,1347.6,789.9,1356.3,829.7,1347z"/>
			<path class="st39" d="M735.4,1291.4c-42.6-35-48.8-97.9-13.8-140.5c35-42.6,97.9-48.8,140.5-13.7c42.6,35,48.8,97.9,13.7,140.5
				C840.9,1320.3,777.9,1326.4,735.4,1291.4z"/>
			<path class="st40" d="M725.7,1182.9c17.6-25.4,50.5-41.6,81.3-40.9c46.5,1,79.9,33.6,91.5,73.6c0.4-29.3-12.1-58.4-36.4-78.4
				c-42.6-35-105.5-28.8-140.5,13.7c-28.6,34.8-29.7,83.2-5.9,118.8C705.8,1240.9,708.2,1208.4,725.7,1182.9z"/>
			<g class="st41">
				<path class="st42" d="M869.7,1435.7c4.8-2.1,7.1-7.7,5-12.5c-2.1-4.9-7.7-7.1-12.5-5c-4.8,2.1-7.1,7.7-5,12.5
					C859.2,1435.5,864.9,1437.7,869.7,1435.7z"/>
				<path class="st42" d="M900.8,1485.9c4.4-2.9,5.7-8.8,2.9-13.2c-2.8-4.4-8.8-5.7-13.2-2.9c-4.4,2.8-5.7,8.8-2.9,13.2
					C890.5,1487.5,896.4,1488.8,900.8,1485.9z"/>
				<path class="st42" d="M930.3,1531c4.4-2.9,5.7-8.8,2.9-13.2c-2.8-4.4-8.8-5.7-13.2-2.9c-4.4,2.9-5.7,8.8-2.9,13.2
					C920,1532.6,925.9,1533.9,930.3,1531z"/>
			</g>
			<path class="st43" d="M695.6,937.1c36.4-12,72.7-24,109.1-35.9c10.3-3.4,20.7-6.8,31-10.2c1.7-0.6,2.4-2.5,1.9-4.1
				c-3.1-10.3-6.7-20.5-10.7-30.5c0,0,0-0.1,0-0.1c-0.2-1.8-1.9-3.6-4.2-2.9c-37.3,11.1-74.2,23.6-110.7,37.3
				c-10.4,4-20.9,8-31.2,12.2c-1.6,0.6-2.5,2.4-1.9,4.1c3.7,10,8.1,19.6,13.1,29C692.6,937.2,694.4,937.4,695.6,937.1z"/>
			<path class="st44" d="M778.8,904.7c-15,4.9-30.6,8.5-46.2,10.9c-15.8,2.4-31.8,5.6-47.8,5.9c2.2,4.9,4.6,9.7,7.1,14.4
				c0.7,1.3,2.5,1.6,3.7,1.2c36.4-12,72.7-24,109.1-35.9c10.3-3.4,20.7-6.8,31-10.2c1.7-0.6,2.4-2.5,1.9-4.1
				c-1.7-5.6-3.5-11.2-5.5-16.7C821.5,887.5,798.3,898.3,778.8,904.7z"/>
			<g class="st41">
				<g>
					<path class="st45" d="M796.4,1224.5c12.3,0,12.3-19,0-19C784.1,1205.5,784.1,1224.5,796.4,1224.5L796.4,1224.5z"/>
				</g>
			</g>
			<g class="st41">
				<g>
					<g>
						<path class="st45" d="M794,1218.9c7.7,24.2,15.5,48.4,23.2,72.6c0.9,2.9,5.5,1.7,4.6-1.3c-7.7-24.2-15.5-48.4-23.2-72.6
							C797.7,1214.7,793.1,1216,794,1218.9L794,1218.9z"/>
					</g>
				</g>
				<g>
					<g>
						<path class="st45" d="M799.1,1217.7c25.1-7.6,50-15.6,74.8-24.1c2.9-1,1.6-5.6-1.3-4.6c-24.8,8.5-49.7,16.5-74.8,24.1
							C794.9,1214,796.2,1218.6,799.1,1217.7L799.1,1217.7z"/>
					</g>
				</g>
			</g>
		</g>
	</g>
</g>
</svg>
