<?xml version="1.0" encoding="utf-8"?>
<!-- Generator: Adobe Illustrator 25.4.1, SVG Export Plug-In . SVG Version: 6.00 Build 0)  -->
<svg version="1.1" id="Capa_1" xmlns="http://www.w3.org/2000/svg" xmlns:xlink="http://www.w3.org/1999/xlink" x="0px" y="0px"
	 viewBox="0 0 817.9 1510" style="enable-background:new 0 0 817.9 1510;" xml:space="preserve">
<style type="text/css">
	.st0{fill:#E30613;}
	.st1{fill:#D50A11;}
	.st2{fill:#FFCF44;}
	.st3{fill:#00793C;}
	.st4{fill:#006239;}
	.st5{fill:#004E2E;}
	.st6{fill:#F59E00;}
	.st7{fill:#9B928E;}
	.st8{fill:#4E433E;}
	.st9{fill:#EE7601;}
	.st10{fill:#A43223;}
	.st11{fill:#A32523;}
	.st12{fill:#00A8E8;}
	.st13{fill:#0075BE;}
</style>
<polygon class="st0" points="662.7,348.4 817.9,377.3 658.9,1230.6 503.8,1201.7 "/>
<path class="st0" d="M540.3,1208.5c18.2-85.3,113.3-638,124.3-679.9c7.6-28.7,10.2-70.4,34.8-90.2c35.9-28.9,65.4-25.9,110-15.6
	l8.5-45.4l-155.1-28.9l-158.9,853.3L540.3,1208.5z"/>
<rect x="262.2" y="780.4" transform="matrix(0.1832 -0.9831 0.9831 0.1832 -213.9446 1334.6791)" class="st1" width="868" height="31.3"/>
<rect x="198" y="768.5" transform="matrix(0.1831 -0.9831 0.9831 0.1831 -254.5722 1261.8839)" class="st1" width="868" height="31.3"/>
<polygon class="st2" points="768.5,219.9 817.9,377.3 662.7,348.4 "/>
<polygon class="st0" points="785.6,274.4 768.5,219.9 731.8,264.4 "/>
<polygon class="st3" points="465.8,270.8 622.9,285.6 541.7,1149.7 384.6,1135 "/>
<path class="st4" d="M421.6,1138.5c10.4-86.6,55.1-645.7,62.4-688.4c5-29.3,3.8-71.1,26.5-93c33.1-32,62.8-31.7,108.1-25.5l4.3-46
	l-157.1-14.8L384.6,1135L421.6,1138.5z"/>
<rect x="105.6" y="698" transform="matrix(9.346133e-02 -0.9956 0.9956 9.346133e-02 -221.3274 1184.1882)" class="st5" width="868" height="31.3"/>
<polygon class="st5" points="499.6,274 530.7,276.9 449.6,1141.1 418.4,1138.1 "/>
<polygon class="st2" points="559.5,133.3 622.9,285.6 465.8,270.8 "/>
<polygon class="st3" points="581.5,186 559.5,133.3 527,180.9 "/>
<rect x="52.7" y="365.8" transform="matrix(0.993 -0.1184 0.1184 0.993 -85.5176 19.3959)" class="st6" width="135.6" height="727"/>
<polygon class="st2" points="177,1214.7 96.2,1098.3 230.8,1082.3 "/>
<polygon points="149,1174.4 177,1214.7 195.7,1168.8 "/>
<polygon class="st7" points="144.7,360.4 10.1,376.4 2.8,315.2 137.4,299.1 "/>
<path class="st0" d="M137.6,300.4l-2.5-20.7c-4.4-37.2-38.2-63.7-75.3-59.3c-37.2,4.4-63.7,38.2-59.3,75.3L3,316.5L137.6,300.4z"/>
<polyline class="st8" points="5.5,338.1 140.2,322.1 139.2,314.3 4.6,330.4 "/>
<polyline class="st8" points="8.8,365.3 143.4,349.3 142.5,341.5 7.9,357.6 "/>
<path class="st9" d="M113,364.1c6.9,74.6,68.4,533.7,70.1,570.9c1.1,25.5,9.7,60.4-5.4,82.9c-22,32.9-47,37.9-86.2,41l4.7,39.4
	l134.6-16.1l-86.1-721.9L113,364.1z"/>
<path class="st10" d="M350.3,361.1c0,0,128.8-106.4,37-178.8c-57.3-45.2-66.5-122.9-52.7-148.3c38.6-70.8-194.6,50.7-168.7,189.7
	c21.7,116.8,84.3,139.9,84.3,139.9L350.3,361.1z"/>
<path class="st11" d="M165.8,223.6c21.7,116.8,84.3,139.9,84.3,139.9l100.2-2.5c0,0,3.1-2.6,8-7.2c-44.2-5.4-86.5-27.5-107.9-68.6
	c-25.9-49.6-30.3-115.7-10.2-168.2c19.1-49.8,54.1-82.4,96.4-101.7C314.8-3.7,143.4,103.4,165.8,223.6z"/>
<path class="st0" d="M238.4,433.1l130.5-3.3c0,0,23.4,788.9,5.7,808.1c-22.1,24-74.2,24.9-97.9,2.4
	C261.3,1225.7,238.4,433.1,238.4,433.1z"/>
<path class="st7" d="M252.1,360.3c15.3-8.7,89.9-8.9,99.6,2.1c10.1,11.5,17.1,67.3,17.1,67.3l-130.5,3.3
	C238.4,432.9,245.5,364,252.1,360.3z"/>
<path class="st0" d="M337.9,1224.2c-21.5-18.9-27.8-47.9-36.2-74c-11.3-35.2-18.1-71.7-21.8-108.5c-8-80.1-6.6-268.4-8.6-348.7
	l-6.5-260.7l-26.4,0.7c0,0,22.9,792.6,38.4,807.3c23.6,22.3,75.2,21.6,97.5-2.1C360.8,1237.3,347.9,1233,337.9,1224.2z"/>
<path class="st12" d="M642.8,1459.6c-33.3,30.7-454.8,28.7-496.2-13.9c-71.4-73.4-152.2-649.7-113-700
	c49.2-63.1,673.4-51.3,725.8,4.1C793.3,785.7,709.4,1398.2,642.8,1459.6z"/>
<path class="st13" d="M23.9,849.5c1,28,3.3,60,6.7,94.5c127.5-40.2,590.9-33.2,727.2,4.3c3.6-34.2,6.3-65.9,7.8-93.6
	C598.2,825,186.9,819.6,23.9,849.5z"/>
</svg>
