<?xml version="1.0" encoding="utf-8"?>
<!-- Generator: Adobe Illustrator 25.4.1, SVG Export Plug-In . SVG Version: 6.00 Build 0)  -->
<svg version="1.1" id="Capa_1" xmlns="http://www.w3.org/2000/svg" xmlns:xlink="http://www.w3.org/1999/xlink" x="0px" y="0px"
	 viewBox="0 0 1826 1713.7" style="enable-background:new 0 0 1826 1713.7;" xml:space="preserve">
<style type="text/css">
	.st0{fill:#B1694D;}
	.st1{fill:#EAA26A;}
	.st2{fill:#F4F4F4;}
	.st3{fill:#E39761;}
	.st4{fill:#B9C8DE;}
	.st5{fill:#6FC1AC;}
	.st6{fill:#84C9B9;}
	.st7{fill:#FAD267;}
	.st8{fill:#F7BF52;}
	.st9{fill:#92CDE9;}
	.st10{fill:#7AC2DF;}
	.st11{fill:#A0645B;}
	.st12{fill:#AB7066;}
	.st13{fill:#965C55;}
	.st14{fill:#965652;}
	.st15{fill:#92504E;}
	.st16{fill:#F8BDAF;}
	.st17{fill:#F5A899;}
	.st18{fill:#FABA5D;}
	.st19{fill:#F5ADA7;}
	.st20{fill:#FFFFFF;}
	.st21{fill:#524743;}
	.st22{fill:#F39D94;}
	.st23{fill:#6E84C1;}
	.st24{fill:#D78E60;}
	.st25{fill:#EEEAE5;}
	.st26{fill:#E1DED6;}
	.st27{fill:#6FBEE4;}
	.st28{fill:#F5AFBC;}
	.st29{fill:#4EBBBA;}
	.st30{fill:#A586BD;}
	.st31{fill:#B8E1F5;}
	.st32{fill:#A5D7EE;}
</style>
<path class="st0" d="M860.4,1571.5c-8.1-170-72.9-936.2-104.1-1304.5l-6.8-80.3l31.1-2.6l6.8,80.3
	c31.2,368.4,96.1,1135,104.2,1305.6L860.4,1571.5z"/>
<path class="st0" d="M1264.6,1692.4c-57.8-175.9-394-1150.1-508.9-1460.7l29.2-10.8c115,310.8,451.4,1285.7,509.3,1461.7
	L1264.6,1692.4z"/>
<path class="st0" d="M608.2,1690.1l-30.8-5c18.8-115.3,69.2-545.1,113.6-924.4c25.2-215.2,49-418.5,63.8-536.2l30.9,3.9
	c-14.8,117.6-38.6,320.8-63.8,536C677.5,1143.9,627.1,1574.1,608.2,1690.1z"/>
<polygon class="st1" points="1182.2,1064.7 581.6,1064.7 436.5,302.3 1037.1,302.3 "/>
<polygon class="st2" points="1148.3,993.7 620.3,993.7 492.7,323.5 1020.7,323.5 "/>
<polygon class="st3" points="1137.1,1010.4 604.4,1010.4 498.4,340.2 1009.6,340.2 "/>
<polygon class="st2" points="1148.3,993.7 620.3,993.7 492.7,323.5 1020.7,323.5 "/>
<polygon class="st4" points="592.8,337 518,337 498.4,294.9 573.2,294.9 "/>
<polygon class="st4" points="966,337 891.2,337 871.7,294.9 946.5,294.9 "/>
<path class="st0" d="M1211.3,1082H558.1c-4.2,0-7.6-3.4-7.6-7.6v-21.1c0-4.2,3.4-7.6,7.6-7.6h653.2c4.2,0,7.6,3.4,7.6,7.6v21.1
	C1218.9,1078.6,1215.5,1082,1211.3,1082z"/>
<path class="st5" d="M672.8,825.2c-33.5,10.9-29,43.7,3.8,49.7c12.9,2.4,28.8-4.4,41.2,0.9c24.9,10.5,8.7,22.8,6.5,41.8
	c-4.3,36.4,65.4,24.2,85.2,26.3c51,5.5,102.5,6.2,153.5,2c22.3-1.8,63.3-13.5,47.8-45.5c-3-6.1-8.2-11.2-9.9-17.8
	c-2.1-8,2.1-17.2,9.5-20.9c23.4-11.6,43.5-2.1,58.7-31.3c1.3-2.4,2.3-5.3,1.4-7.9c-0.9-2.8-3.7-4.5-6.4-5.8
	c-49.6-24.8-109.1-8.7-164.2-15c-3.8-0.4-7.9-1.1-10.8-3.7c-3.8-3.5-4.3-9.2-6.4-13.9c-6.1-13.7-24-16.7-39-17
	c-22.6-0.4-45.2,1-67.6,4.2c-8.5,1.2-19.3,2.9-25.5,9.4c-9.5,10-5.5,23.6-20.8,30.6c-7,3.2-14.8,4.1-22.3,5.4
	C695.6,818.7,684.1,821.5,672.8,825.2z"/>
<path class="st6" d="M929.5,884.3c-26.2-0.7-52.2-0.4-78.4,1.1c-9.5,0.6-43.9-0.1-48.1,11.5c-4.4,12.3,21.9,9.5,28.9,8.8
	c26.1-2.6,52-7.1,78.1-9.6c22.7-2.2,78.2-8.7,103,10.1c-0.6-1.9-1.3-3.8-2.3-5.8c-3-6.1-8.2-11.2-9.9-17.8l-0.1-0.6
	C977.8,887.4,952.5,884.9,929.5,884.3z"/>
<path class="st6" d="M727.9,903.9c5.3-4.1,12.1-7.1,18-10.3c8.8-4.8,15.1-12.1,6.5-21.3c-5.9-6.3-15.9-7.5-24-8
	c-17.9-1.2-52,6.9-73.6-0.9c4.5,5.4,11.8,9.7,21.7,11.5c12.9,2.4,28.8-4.4,41.2,0.9C736.1,883.5,732.1,892.3,727.9,903.9z"/>
<path class="st6" d="M1070.5,822.5c-0.9-2.8-3.7-4.5-6.4-5.8c-49.6-24.8-109.1-8.7-164.2-15c-3.8-0.4-7.9-1.1-10.8-3.7
	c-3.8-3.5-4.3-9.2-6.4-13.9c-6.1-13.7-24-16.7-39-17c-22.6-0.4-45.2,1-67.6,4.2c-8.5,1.2-19.3,2.9-25.5,9.4c-1.1,1.2-2,2.4-2.8,3.6
	c1.5,3,3.4,5.8,4.7,6.7c3.8,2.6,10.7,2.8,14.8,3c10.1,0.5,20.3-0.9,30.3-2.5c17.2-2.7,34.2-6.9,51.8-6.5c10.7,0.3,23,1.9,26.7,13.6
	c4.8,15.1-13,30.8,4.5,41.1c24.7,14.6,64.2,0.5,89.4-6.1c18.7-4.9,53.6-20,71.8-6.6c11.5,8.5,6,18.7-3.1,26.5
	c11.6-2.6,21.9-6.6,30.5-23.3C1070.3,828,1071.3,825.1,1070.5,822.5z"/>
<path class="st5" d="M1007.6,770.8c-27.6-5.4-61.5-3.2-89,2.4c-12.1,2.5-26.7,12.9-6.1,16.5c32.2,5.6,65.6,4.6,97.4-3
	c3.5-0.8,7.6-2.3,8.6-5.7C1020.1,775.7,1013.1,771.9,1007.6,770.8z"/>
<path class="st7" d="M619.6,452.3c-8.8,19.7-9.2,43.5-1.3,64.9c15.7,42.4,75.5,55.2,115.2,39.3c28.2-11.2,49.5-39.5,49.9-69.8
	c0.1-11.9-2.8-23.8-8.1-34.5c-21.4-42.7-78.3-52.9-119.5-35.5C638.5,424.1,626.4,437,619.6,452.3z"/>
<path class="st8" d="M633.1,440.5c1.8,2.2,4.8,3.8,7.7,4.3c5.2,0.9,10.6-0.3,15.8,0.7c5.2,1,10.4,5.8,8.9,10.8
	c-0.8,2.7-3.3,4.6-5.8,6c-15.6,8.7-37,8.4-48,22.6c0.2,5.7,0.9,12.3,5.7,15.3c2.4,1.4,5.3,1.6,8,1.8c8.2,0.4,16.4,0.8,24.6,1.3
	c-0.1,4.7-4.8,7.8-9.3,9.2c-4.4,1.4-9.4,1.9-12.9,5c-17.8,15.2,25.5,36.8,35.4,40.2c16.7,5.7,56.3,12.6,70.7-2c2-2,2.7-5.7,0.7-7.7
	c-1-1-2.5-1.4-3.9-1.8c-17.1-3.8-35.5-1.2-51.8-7.4c-3.3-1.2-7-3.9-6.1-7.3c24-5,50.8,2.8,72.4-8.9c1.5-0.8,3-1.7,3.8-3.2
	c2.6-4.7-3.4-9.6-8.6-10.8c-5.2-1.2-11.8-2.2-13.5-7.2c-1.1-3.4,0.7-7.1,3.4-9.4c2.7-2.3,6.2-3.4,9.5-4.6
	c8.3-2.9,16.5-6.5,24.3-10.6c5.7-3,11.6-6.7,14.1-12.6c4.6-10.8-12.6-27-19.9-33.5c-12.3-10.9-28-17.7-44.2-20.4
	c-28.8-4.9-50.5,3.5-75.1,16.7c-3.2,1.7-6.8,3.9-7.6,7.4C630.9,436.6,631.7,438.8,633.1,440.5z"/>
<path class="st9" d="M1349.6,1229.5c0.1-79.1,40.5-269.6,60.9-354.1c1.1-5,2.2-9.9,3.5-14.8c3.9-14.6,6.2-29.6,9.6-44.4
	c0.7-3.1,7.8-36.2,11-36.3c73-2.9,145.9-8.4,218.5-16.6c12.7-1.4,26.7-1.9,36.2,7.8c9.4,9.7,15.3,20.2,19.5,32.6
	c20.6,48.8,33.7,105,32.9,158.7c-1.6,108.9-4.2,189.3-7,289.7c-1.9,68.9-9.3,143.6-13.6,212.4c-2.6,42.5-9.9,125-16.2,161.7
	c-23.2,3-52,0.4-73.7-8.5c-1-6.5-2-13-3.1-19.5c-13.8-87.6-23.9-178.8-33-267c-9.9-96.1-20.6-177.2-28-266.7
	c-2.7-33-6.1-65.9-9.5-98.7c-15.5,50.9-21.2,81.9-32,139.4c-10.2,54.4-33.5,143.8-29.8,200.2c8.4,129.2,0,198.6,1.6,315.1
	c0.2,16.7-22.9,13.3-38,11.7c-13.3-1.4-33.9,1.3-41.5-9.2C1407,1474.9,1349.4,1334.5,1349.6,1229.5z"/>
<path class="st10" d="M1557.3,964.6l-1.3-0.3c-10.8-5.7-21.4-11.5-31.6-17.2c-10.2-5.6-20.8-11.4-31.6-17.1
	c-1.4-0.7-1.9-2.4-1.2-3.8c0.7-1.4,2.4-1.9,3.8-1.2c10.8,5.7,21.4,11.5,31.6,17.2c10.2,5.6,20.8,11.4,31.5,17.1
	c1.4,0.7,1.9,2.5,1.2,3.8C1559.3,964,1558.4,964.6,1557.3,964.6z"/>
<path class="st11" d="M1785,395c-3.5,8.6-10.9,14.9-18.9,19.6c-2,1.2-4.1,2.2-6.2,3.2l-0.7,0.3c-3.4,1.5-6.9,2.9-10.2,4.5
	c-0.5,0.2-1,0.4-1.4,0.3c-0.6-0.2-0.9-0.9-1.1-1.5c-4.4-14.3-13.1-27.3-24.6-36.9c4.3,10.2,13.2,28.4,9.2,39.8
	c-2,5.8-10.2,4.8-16.2,5.3c-6.8,0.5-13.7,0.7-20.6,0.5c-24.8-0.7-49.3-5.3-74.1-7.2c-76.2-6-131.7,22.9-227.3-2.2l-1.1-0.3l-0.5-0.1
	c-7.1-2-18.9-7.3-22.6-8.7c-3.4-1.2-4.3-8.2-4.7-12.4c-0.7-7-1.7-16.4-0.5-24.2c-4,3-5,7.6-6,12.5c-1.3,6.2-1.7,13.3,2,21.2
	c-2.9-0.9-8-2.9-12.8-5.1c-0.6-0.3-1.2-0.6-1.8-0.9h0c-2.1-0.9-4-1.9-5.6-2.6c-2.9-1.5-6.1-3.2-7.3-6.2c-0.9-2.1-0.6-4.4-0.3-6.6
	c1.3-8.6,3.6-17,6.5-25.3c0.9-2.5,1.8-5,2.8-7.5c3.4-8.9,7.2-17.6,10.8-26.1c16.5-40,23.7-83.8,20.8-127l364.1-26.2
	c-0.7,59.1,12.6,118.3,38.5,171.4C1782.7,361.7,1791.4,379.1,1785,395z"/>
<path class="st12" d="M1404.7,330.3c-1.5,11.1-4.5,21.8-7.3,32.5c-2.9,10.6-5.4,21.4-6.3,32.3c-0.7,8.5-0.3,17.2,1.9,25.5l-1.1-0.3
	l-0.5-0.1c-0.9-2.8-1.6-5.6-2.1-8.4c-0.9-5.5-1-11.2-0.8-16.8c0.6-11.2,3.2-22.1,6-32.8c3-10.7,6-21.3,8-32.1
	c1.9-10.8,2.5-21.9,0.2-32.8c1.7,5.3,2.5,10.8,2.8,16.4C1405.8,319.2,1405.4,324.8,1404.7,330.3z"/>
<path class="st13" d="M1693.1,328.4c4.1-17.3,16.9-30.9,26-45.7c9.6-15.7,15.4-33.2,21.4-50.6c-2.7-18.9-3.9-38.1-3.7-57.2
	l-342.5,24.6c-3,6.4-6,12.7-7.3,19.7c-0.1,0.7-0.4,1.2-0.6,1.7l0,0.4c-4.8,27.1,6.4,52.7,23.6,73.2c13.1,15.5,29.7,25.9,45.3,38.5
	c29.6,23.8,34.4,59.9,22.4,93.3c47.5-1.4,95.4-7.2,142.8-3.5c24.7,2,49.2,6.5,74,7.2c6.8,0.2,13.7,0.1,20.6-0.4
	c6-0.5,14.2,0.5,16.2-5.3c2.7-7.7-0.5-18.5-4.1-27.8C1710.6,376,1686.5,356.1,1693.1,328.4z"/>
<path class="st14" d="M1366.1,369c6-9.2,10.8-19.1,14.1-29.4c3.2-10.4,5.1-21,5.3-31.8c0.3-10.8-0.4-21.8-0.4-32.9
	c0-11.1,1-22.4,4.8-33l0.7-0.3l0.4,0.6c-2.2,10.8-2.1,21.7-1.6,32.6c0.4,10.9,1.4,22,0.9,33.2c-0.4,11.2-2.5,22.4-6.5,32.9
	c-3.9,10.5-9.6,20.3-16.8,28.8l-0.8,0.1L1366.1,369z"/>
<path class="st14" d="M1398.9,257.8c0.2,13.5,3,26.8,8.2,38.9c5.2,12.1,13.4,23.1,19,36c5.6,12.9,8.5,27,8.1,41
	c-0.2,7-1.3,14-3.2,20.7c-1.8,6.7-4.1,13-6.2,19.5c-0.1,0.5-0.6,0.7-1.1,0.6l-0.6-0.9c0.5-6.9,1.8-13.6,2.8-20.2
	c1-6.6,1.5-13.1,1.5-19.7c-0.1-13.1-2.5-26.2-7.5-38.3c-4.9-12.1-12.7-23.6-17.5-36.8c-4.7-13.1-6.3-27.2-4.8-40.8l0.7-0.5
	L1398.9,257.8z"/>
<path class="st14" d="M1462.6,409.1l-1.3-0.3c-1.4-0.7-1.9-2.5-1.2-3.8c7.7-14.4,5-31.6,0.9-51c-3.9-18.8-7-38.6,2.2-54.8
	c0.8-1.4,2.5-1.8,3.9-1.1c1.4,0.8,1.8,2.5,1.1,3.9c-8.3,14.5-5.3,33.1-1.6,50.8c3.3,15.8,7.8,37.4-1.5,54.8
	C1464.6,408.6,1463.6,409.1,1462.6,409.1z"/>
<path class="st15" d="M1627.4,396.1c2.9-5.7,4.5-12,4.4-18.1c-0.2-6.2-2.1-12.1-4.8-17.8c-2.8-5.7-6.1-11.2-9.3-17
	c-3.1-5.8-6.1-12-7.5-18.8c-0.3-1.5,0.7-3,2.2-3.3c1.5-0.3,2.9,0.6,3.3,2l0,0.1c1.6,5.9,4.2,11.6,7.2,17.2
	c2.9,5.7,6.2,11.4,8.8,17.7c2.5,6.2,4.4,13.1,3.8,20c-0.5,6.9-3,13.4-6.8,18.8l-1.1,0.2L1627.4,396.1z"/>
<path class="st15" d="M1688.4,411.1c3.4-9.5,5.2-19.7,3-29.2c-2.1-9.5-7.7-18-14-25.7c-6.2-7.9-13.5-15.2-19.2-24.1
	c-2.9-4.4-5.4-9.1-7.2-14.3c-1.8-5.1-2.7-10.7-2.3-16.2c0.1-1.6,1.5-2.7,3-2.6c1.5,0.1,2.7,1.4,2.6,2.9v0c-0.3,9.4,3.6,18.6,9,26.8
	c5.3,8.3,12.2,15.8,18.4,24.1c6.1,8.3,11.9,17.6,13.5,28.3c1.7,10.7-1.1,21.3-5.6,30.5l-0.9,0.3L1688.4,411.1z"/>
<path class="st14" d="M1720.8,378.9c-5.8-4.1-10.4-9.9-13.7-16.3c-3.2-6.4-5.3-13.5-6.3-20.6c-2.1-14.4-0.1-28.7,1.6-42.5
	c1.9-13.9,3-27.6,2.4-41.5c-0.5-13.9-2.3-27.7-5.4-41.4l0.5-0.8l0.7,0.4c4.7,13.3,7.8,27.3,8.8,41.4c0.6,7.1,0.6,14.2,0.4,21.3
	c-0.3,7.1-1.1,14.2-2.1,21.1c-1.9,13.9-4,27.7-2.7,41.3c1.3,13.5,5.8,27.3,16.2,36.9l0,0.5L1720.8,378.9z"/>
<path class="st14" d="M1774.4,400.3c2.4-6.5,2.9-13.6,1.8-20.4c-1-6.8-3.3-13.4-6.1-19.7c-5.7-12.6-13-24.5-19.7-36.9
	c-6.5-12.4-13.1-24.8-18.2-38c-2.5-6.6-4.6-13.4-6.1-20.3c-1.4-6.9-2.2-14-1.9-21l0.5-0.5l0.5,0.5c0.3,6.9,1.4,13.8,3.1,20.5
	c1.7,6.7,4,13.3,6.6,19.7c5.2,12.8,11.9,25.1,18.4,37.5c6.4,12.3,13.9,24.3,19.1,37.5c2.6,6.6,4.7,13.4,5.5,20.5
	c0.7,7.1-0.1,14.4-3.2,20.8l-0.2,0.1L1774.4,400.3z"/>
<path class="st12" d="M1378.9,261.9c-0.1,1-0.2,2-0.4,3c-0.1,0.9-0.2,1.7-0.3,2.6c-1.8,13-5.1,25.9-9.4,38.3
	c-4.4,12.4-10,24.4-16.7,35.8c-4.1,7-8.8,13.8-13.8,20.2c0.9-2.5,1.8-5,2.8-7.5c3.1-4.6,6-9.2,8.8-14c6.5-11.3,12-23.1,16.2-35.4
	c4.4-12.2,7.6-24.9,9.8-37.7c2.1-12.8,3.1-25.9,2.8-39l0.5-0.5l0.5,0.5C1380.5,239.4,1380.1,250.7,1378.9,261.9z"/>
<path class="st12" d="M1378.7,297c-1.2,13.4-4,26.8-9,39.4c-5.1,12.6-12.6,23.8-17.7,36c-2.6,6.1-4.5,12.4-5.2,19
	c-0.5,4-0.5,8.1,0.2,12.1c-0.6-0.3-1.2-0.6-1.8-0.9h0c-0.7-3.8-0.8-7.7-0.5-11.5c0.6-6.8,2.4-13.4,5-19.8
	c5.1-12.6,12.6-23.8,17.5-36.1c5.2-12.2,8-25.3,9.6-38.5c1.3-10.5,1.8-21.2,1.8-31.9v0c0-2.7,0-5.4,0-8.1c0.1,1.7,0.3,3.4,0.4,5.1
	C1379.6,273.5,1379.7,285.3,1378.7,297z"/>
<path class="st12" d="M1762.4,406.7c-0.4,3.8-1.2,7.5-2.4,11l-0.7,0.3c1-3.7,1.6-7.6,1.8-11.5c0.4-6.1-0.1-12.1-1.3-18.1
	c-2.2-11.9-7-23.2-12.7-34c-5.5-10.9-11.9-21.4-17.3-32.5c-2.7-5.6-5.2-11.3-6.9-17.2c-1.6-6-2.7-12.2-2.2-18.3
	c0.1,6.2,1.4,12.2,3.5,17.9c2,5.7,4.7,11.2,7.5,16.6c5.7,10.8,12.1,21.3,17.9,32.2c5.5,11,10.5,22.6,12.3,34.9
	C1762.8,394.3,1763,400.6,1762.4,406.7z"/>
<path class="st16" d="M1468.6,501.4c-13.5,34.1-27,68.8-42.3,103.5c-3.9,8.7-7.8,17.4-12.1,26.2c-4.3,8.8-8.8,17.6-14.1,26.8
	c-2.7,4.6-5.6,9.3-9.2,14.4c-1.8,2.6-3.8,5.2-6.4,8.2c-2.7,3-5.6,6.3-11.7,10.5c-3,2-7.2,4.5-13.8,6.2c-3,0.8-7.8,1.3-11.3,1.1
	c-0.9-0.1-1.8-0.1-2.7-0.3l-1.4-0.2l-0.7-0.1l-0.5-0.1c-1.3-0.3-2.6-0.6-3.8-0.9l-0.9-0.3l-0.7-0.2l-1.4-0.5
	c-0.9-0.3-1.9-0.7-2.6-1.1c-1.3-0.6-2.9-1.4-3.9-2c-2.3-1.3-4-2.4-5.7-3.6c-6.2-4.4-10.2-8.2-14.2-12c-7.8-7.6-14.3-14.9-20.7-22.3
	c-6.3-7.4-12.4-14.8-18.3-22.2c-11.8-14.8-23-29.8-34-44.9c-11-15.1-21.8-30.3-32.3-45.7c-10.6-15.4-20.9-30.8-31-47.2
	c-7.4-12-3.7-27.8,8.3-35.2c11.6-7.1,26.6-4,34.3,7l0.2,0.2c10.1,14.3,21,28.9,32.1,43.1c11.1,14.3,22.4,28.5,33.9,42.4
	c11.5,13.9,23.2,27.7,35,41c5.9,6.6,11.9,13.1,17.9,19.4c6,6.2,12.1,12.2,17.8,17.1c2.8,2.4,5.7,4.6,7.1,5.4l0.2,0l-0.8-0.4l-1-0.4
	l-0.6-0.2l-0.8-0.3c-0.7-0.2-1.4-0.4-2.2-0.5l-0.7-0.1l-0.9-0.1c-0.6-0.1-1.3-0.1-1.9-0.2c-1.2,0-2.7-0.1-4.1,0.1
	c-0.7,0.1-1.5,0.2-2.1,0.3c-0.6,0.1-1.1,0.2-1.7,0.3c-4.4,1.1-6.6,2.6-7.7,3.2c-2.3,1.6-2,1.5-1.8,1c0.3-0.5,1-1.6,1.7-2.9
	c1.5-2.5,3.2-5.8,4.8-9.3c3.3-7,6.5-14.9,9.6-22.9c3.1-8,6.1-16.3,9-24.7c11.6-33.6,21.9-68.4,32.6-103.7
	c6.5-21.6,29.4-33.9,51-27.3c21.6,6.5,33.9,29.4,27.3,51C1469.4,499.2,1469,500.3,1468.6,501.4L1468.6,501.4z"/>
<path class="st16" d="M1461.5,388.8c0.2,10.7,12.7,23.1,17.4,33.1c8.3,17.6,24.8,38.9,37.2,50.1c21.2,19.2,41.7,19,66.1,9.8
	c24.4-9.2,58.2-64.6,67.9-87.3c1.2-2.9,2.2-6.5-0.1-8.7c-0.9-0.9-2-1.9-3.3-1.9c-60.7,0.4-68.9-23.9-70.3-47.7l0-0.7
	c-0.5-7.7-0.2-15.3-0.8-22l-38.1,0.7l0.4,0.6l0.1,0.2c1.7,4.2,1.1,22.8-2.8,38.8l-0.3,1.1l-0.1,0.3c-2.3,8.9-5.7,16.8-10.3,20.9
	C1512.9,386.3,1477.4,386.4,1461.5,388.8z"/>
<path class="st17" d="M1650,385.8c-0.9-0.9-2-1.9-3.3-1.9c-15.7,0.1-27.9-1.5-37.4-4.2l-0.2,0.3c-13.5,17-22.6,34.4-36.4,51.1
	c-5.6,6.8-18.6,23.7-29.2,20.7c-9.5-2.6-15.4-18.2-18.2-26.3c-5.1-14.8-6.7-29.8-8.3-45.2c-15.3,6.1-42.3,6.5-55.5,8.5
	c0.2,10.7,12.7,23.1,17.4,33.1c8.3,17.6,24.8,38.9,37.2,50.1c21.2,19.2,41.7,19,66.1,9.7c24.4-9.2,58.2-64.6,67.9-87.3
	C1651.3,391.6,1652.3,388,1650,385.8z"/>
<path class="st18" d="M1421,766.5c-1.4,13.2-2.7,26.4-3.9,39.6c-0.2,2.3-0.3,4.9,1.3,6.7c1.7,1.8,12.7-4.7,16.4-5.6
	c7.5-1.7,15-2.9,22.6-4c11.2-1.7,22.6-3.3,33.9-4c41.7-2.5,85,11.5,125.4,20.1c21.9,4.7,44.1,8.8,66.5,10.1c15.3,0.9,46.6,8,45-14.2
	c-4.9-71.2-20.7-141.3-21.5-213.5c-0.7-58.4,9.7-126.4,4.2-184.6c-2.4-25.5-17.2-27.5-39.6-32.3c-17.9-3.9-37.1-7.8-55.3-9.2
	c-1.3-0.1-2.7-0.2-4,0.2c-5.1,1.6-6.3,8.9-8.2,13.2c-3.2,7.1-7.3,13.9-11.4,20.4c-8,12.8-17.2,24.9-27.4,36.1
	c-6.3,6.9-14.9,13.9-23.9,11.6c-6.3-1.6-10.6-7.5-13.9-13.2c-11.8-20.3-16.3-41.8-18.7-64.8c-16.3,1.8-33.4,3.5-49.6,6.8
	c-13.7,2.7-29.6,7.7-35.1,22c-10.5,27.2-2.6,56-4.1,84.7c-2.9,52.1,6.5,103.7,6.5,160.7c0,23.3,2.1,48.4-0.5,71.4
	C1424.1,738.7,1422.5,752.6,1421,766.5z"/>
<path class="st18" d="M1469,394.9c21,8.4,30.5,24.9,26,47.1c-6.5,31.9-24.5,75.7-36.7,108.7c-25.1-2.7-70.4-19.8-92.7-32.1
	c-2.1-1.1,23-55.5,25.4-60.5c9.1-18.8,20.1-37,33.2-53.4C1434.1,392,1454.3,389,1469,394.9z"/>
<path class="st16" d="M1454.1,79.3c-6.1,3.8-11.9,8.1-17.2,13.2c-28.7,27.4-45.4,69-44.9,112c0.7,61.4,48.9,107.7,96.1,125.4
	c50.5,18.9,113.1,19.4,161.1-8.9c63.4-37.3,88.5-135.6,41.4-202.9c-49.5-70.8-152.7-76.6-221.9-46.4
	C1463.7,74,1458.8,76.5,1454.1,79.3z"/>
<path class="st17" d="M1538.2,331.8c42.9,8.8,98.5-5.1,137.2-31.7c-7.8,8.2-16.5,15.3-26.2,21c-48,28.3-110.7,27.8-161.1,8.9
	c-41.6-15.6-84-53.5-93.9-104.3C1421.5,282.3,1480.6,320,1538.2,331.8z"/>
<path class="st11" d="M1734.8,166.3c-4-1.6-7.7-3.2-12.1-3.3c-4.4,0-8.9,1.4-12.2,4.4c-3,2.8-4.7,6.6-5.7,10.5
	c-4,15.6-14.3,1-20.8-3.4c-12.5-8.3-27-12.9-41-17.7c-33.8-11.7-62.2-26.5-90.1-48.9c-14.7,17.3-40.7,29.3-61.8,36.5
	c-12.3,4.2-25,7.1-36.9,12.1c-10.2,4.2-20,9.9-27.3,18.4c-2.7,3.1-18.9,21.5-22.5,11.3c-1.9-5.4-3.9-11.1-7.6-15.5
	c-5.3-6.4-12.6-7.2-20.3-5.8c-5.5,1,5-47.1,5.7-49.4c1.5-5.1,3.1-10.2,4.8-15.2c4.8-13.8,10.8-27.3,18.8-39.6
	c30.5-46.8,82.7-67.1,136.5-59c6.5,1,13,2.6,19.6,2.6c5.7-0.1,11.3-1.3,17-2.1c56.2-7.3,107.2,31.2,133.8,78.9
	c0.7,1.3,1.4,2.7,2.2,4.1c5.2,9.8,9.2,19.9,12.2,30.1c2.4,8.3,4.3,16.8,5.6,25.4C1733.9,148.6,1736.1,158.4,1734.8,166.3z"/>
<path class="st19" d="M1621.4,237.9c2.2,13.3,11.7,25.2,24.3,30c40.1,15.1,72.6-48.1,30-65.5c-10.1-4.1-26.7-4.9-36.6,0.8
	C1626.6,210.4,1618.9,223.4,1621.4,237.9z"/>
<path class="st19" d="M1485.6,237.9c-2.2,13.3-11.7,25.2-24.3,30c-40,15.1-72.6-48.1-30-65.5c10.1-4.1,26.7-4.9,36.6,0.8
	C1480.3,210.4,1488,223.4,1485.6,237.9z"/>
<path class="st20" d="M1581.7,272.2c-3,7.6-14.2,13.7-21,14.2c-10.7,0.8-19.6-6.4-23.8-15.9c-0.6-1.4-1.3-3.2-0.5-4.5
	c0.7-1.2,2.2-1.7,3.5-1.6c1.4,0.1,2.6,0.8,3.8,1.3c4.3,2,8.9,3.3,13.6,3.5c7,0.3,13.9-1.9,20.5-4.4c0.7-0.2,1.3-0.5,2-0.4
	c1.4,0.1,2.3,1.5,2.5,2.9C1582.6,269.1,1582.3,270.7,1581.7,272.2z"/>
<path class="st20" d="M1672,214.2c-0.7,0.6-1.7,0.9-2.5,1.2c-8,2.7-16.6,4.2-25.1,4.6c-3.7,0.2-7.4,0.1-11.1-0.1
	c-1.2-0.1-2.7-0.1-4.4-0.2h0c-5.3-0.3-12.2-1.1-14.7-4c-1.4-1.6-1.2-3.9-0.8-6c0.6-3.1,1.4-6.2,2.6-9.2c0.6-1.7,1.4-3.3,2.3-4.9
	c2.9-5.3,7.1-9.7,13-12.2c4.2-1.8,8.6-2.6,13-2.5c8,0.1,15.8,3.2,21.4,9C1670.1,194.7,1680.2,208,1672,214.2z"/>
<path class="st21" d="M1673.3,209.9c0.9-3-0.4-6.8-2.1-10c-1.8-3.3-4.1-6.4-6.7-9.1c-5.1-5.4-12.5-8.5-20.1-8.8
	c-7.5-0.2-15.3,2.1-20.8,7.5c-5.5,5.3-8.4,12.8-9.9,20.3l-0.6,0.4l-0.4-0.6c1.4-7.7,4.2-15.4,9.8-21.2c5.6-5.8,13.9-8.5,21.9-8.4
	c8,0.1,16.1,3.2,21.9,9c2.8,2.9,5.3,6,7.3,9.5c1,1.8,1.9,3.6,2.4,5.7c0.6,2,0.8,4.3,0.2,6.6c-0.2,0.8-1.1,1.3-1.9,1.1
	C1673.5,211.6,1673,210.8,1673.3,209.9L1673.3,209.9L1673.3,209.9z"/>
<path class="st21" d="M1649.1,204.5c1.9,1.7,4,1.9,6.4,1.9c-1.6,6.2-5.8,11.2-11.1,13.6c-3.7,0.2-7.4,0.1-11.1-0.1
	c-1.2-0.1-2.7-0.1-4.4-0.2h0c-6.6-3.4-11.2-10.7-11.2-19.1c0-1.7,0.2-3.3,0.5-4.8c2.9-5.3,7.1-9.7,13-12.2c4.2-1.8,8.6-2.6,13-2.5
	c6.2,2.7,10.8,8.8,11.9,16.2l-0.6,0c-1.9-0.2-3.7,0-5.5,0.9C1647.7,199.2,1647.2,202.8,1649.1,204.5z"/>
<path class="st21" d="M1674.6,209.1c3.5-1,6.8-2.7,9-5.6l0.7-0.1l0.1,0.6c-1.8,3.5-5.3,6.1-8.9,7.7l0,0c-0.7,0.3-1.5,0-1.8-0.7
	c-0.3-0.7,0-1.5,0.7-1.8L1674.6,209.1z"/>
<path class="st21" d="M1674.7,207.3c2.2-1.1,4-3.4,5-6l0.6-0.3l0.3,0.5c-0.3,3-1.6,6.1-4.2,8.3l0,0c-0.6,0.5-1.6,0.4-2.1-0.2
	c-0.5-0.6-0.4-1.6,0.2-2.1L1674.7,207.3z"/>
<path class="st20" d="M1446.6,214.2c0.7,0.6,1.7,0.9,2.5,1.2c8,2.7,16.6,4.2,25.1,4.6c3.7,0.2,7.4,0.1,11.1-0.1
	c1.2-0.1,2.7-0.1,4.4-0.2h0c5.3-0.3,12.2-1.1,14.7-4c1.4-1.6,1.2-3.9,0.8-6c-0.6-3.1-1.4-6.2-2.6-9.2c-0.6-1.7-1.4-3.3-2.3-4.9
	c-2.9-5.3-7.1-9.7-13-12.2c-4.2-1.8-8.6-2.6-13-2.5c-8,0.1-15.8,3.2-21.4,9C1448.6,194.7,1438.5,208,1446.6,214.2z"/>
<path class="st21" d="M1442.4,210.8c-0.6-2.3-0.4-4.6,0.2-6.6c0.6-2,1.4-3.9,2.4-5.7c2-3.5,4.5-6.7,7.3-9.5c5.8-5.8,13.8-9,21.9-9
	c8-0.1,16.2,2.6,21.9,8.4c5.6,5.8,8.5,13.6,9.8,21.2l-0.4,0.6l-0.6-0.4c-1.5-7.5-4.5-15-9.9-20.3c-5.4-5.4-13.3-7.7-20.8-7.5
	c-7.5,0.2-15,3.4-20.1,8.8c-2.6,2.7-4.9,5.9-6.7,9.1c-1.7,3.2-3,7-2.1,10l0,0c0.2,0.8-0.2,1.7-1,1.9
	C1443.5,212.1,1442.7,211.6,1442.4,210.8L1442.4,210.8z"/>
<path class="st21" d="M1469.6,204.5c-1.9,1.7-4,1.9-6.4,1.9c1.6,6.2,5.8,11.2,11.1,13.6c3.7,0.2,7.4,0.1,11.1-0.1
	c1.2-0.1,2.7-0.1,4.4-0.2h0c6.6-3.4,11.2-10.7,11.2-19.1c0-1.7-0.2-3.3-0.5-4.8c-2.9-5.3-7.1-9.7-13-12.2c-4.2-1.8-8.6-2.6-13-2.5
	c-6.2,2.7-10.8,8.8-11.9,16.2l0.6,0c1.9-0.2,3.7,0,5.5,0.9C1471,199.2,1471.5,202.8,1469.6,204.5z"/>
<path class="st21" d="M1443.1,211.6c-3.6-1.6-7-4.2-8.9-7.7l0.2-0.7l0.6,0.1c2.2,3,5.5,4.7,9,5.6c0.7,0.2,1.2,1,1,1.7
	c-0.2,0.7-1,1.2-1.7,1L1443.1,211.6L1443.1,211.6z"/>
<path class="st21" d="M1442.3,209.7c-2.6-2.2-3.8-5.3-4.2-8.3l0.4-0.5l0.5,0.3c1,2.6,2.8,5,5,6c0.7,0.4,1.1,1.2,0.7,2
	c-0.4,0.7-1.2,1.1-2,0.7L1442.3,209.7L1442.3,209.7z"/>
<path class="st16" d="M1725.6,163.1c6.9,0.7,13.5,5.6,16.7,12.7c1.4,3.1,2.1,6.5,2.5,10c2.1,18.3-7.1,38.2-22.3,44
	c-1.6,0.6-3.4,1.1-5.1,0.9c-5.3-0.6-8.4-7.1-10.1-13C1701.8,197.6,1698.1,160.2,1725.6,163.1z"/>
<path class="st22" d="M1710.4,197.3l-1-0.3c-0.8-0.5-0.9-1.6-0.4-2.3c6.1-8.3,14.5-14.3,23.7-16.7c0.9-0.2,1.8,0.3,2.1,1.2
	c0.2,0.9-0.3,1.8-1.2,2.1c-8.5,2.2-16.2,7.7-21.9,15.4C1711.4,197.1,1710.9,197.3,1710.4,197.3z"/>
<path class="st22" d="M1735,200.4l-0.8-0.2c-7.2-4-15.5-5-23.3-3c-0.9,0.2-1.8-0.3-2-1.2c-0.2-0.9,0.3-1.8,1.2-2
	c8.6-2.2,17.8-1.1,25.8,3.3c0.8,0.4,1.1,1.5,0.7,2.3C1736.2,200.1,1735.6,200.4,1735,200.4z"/>
<path class="st16" d="M1380.5,164.6c-6.6,0.7-13,5.3-16,12.2c-1.3,3-2,6.3-2.4,9.6c-2,17.5,6.8,36.5,21.3,42.1
	c1.6,0.6,3.2,1.1,4.9,0.9c5.1-0.6,8.1-6.8,9.6-12.4C1403.3,197.6,1406.8,161.8,1380.5,164.6z"/>
<path class="st22" d="M1393.5,197.3c-0.5,0-1-0.2-1.3-0.7c-5.4-7.4-12.8-12.6-20.9-14.8c-0.9-0.2-1.4-1.1-1.1-2
	c0.2-0.9,1.1-1.4,2-1.1c8.8,2.3,16.9,8,22.7,16c0.5,0.7,0.4,1.7-0.4,2.2L1393.5,197.3z"/>
<path class="st22" d="M1370,200.3c-0.6,0-1.1-0.3-1.4-0.8c-0.4-0.8-0.1-1.8,0.6-2.2c7.6-4.2,16.4-5.3,24.7-3.2
	c0.9,0.2,1.4,1.1,1.2,2c-0.2,0.9-1.1,1.4-2,1.2c-7.5-1.9-15.4-0.9-22.3,2.9L1370,200.3z"/>
<path class="st22" d="M1556.6,237.1c-1,0-2,0-3-0.1c-0.6,0-1.1-0.1-1.7-0.1c-1.3,0-2.4-1.2-2.3-2.5c0-1.3,1.2-2.3,2.5-2.3
	c0.6,0,1.2,0,1.8,0.1c2.6,0.1,4.8,0.2,7.1-0.5c2.5-0.9,4.6-3.2,5.4-6c0.7-2.6,0.3-5.1-1.2-6.9c-2.8-3.5-9.2-3.7-13.8-2.2
	c-1.3,0.4-2.6-0.3-3-1.5c-0.4-1.3,0.3-2.6,1.5-3c6-2,14.6-1.7,19,3.7c2.5,3,3.2,7.2,2.1,11.3c-1.3,4.4-4.5,7.9-8.5,9.3
	C1560.4,236.9,1558.5,237.1,1556.6,237.1z"/>
<path class="st21" d="M1450.1,164.8c3.3-2.5,7.1-4.2,10.8-5.7c3.8-1.4,7.6-2.6,11.6-3.5c3.9-0.9,7.9-1.7,11.9-2.2
	c4-0.5,8-0.9,12.4-0.6c1.5,0.1,2.6,1.4,2.6,2.9c-0.1,1.5-1.4,2.6-2.9,2.6l-0.2,0l-0.1,0c-3.6-0.5-7.5-0.4-11.3-0.2
	c-3.9,0.3-7.7,0.7-11.5,1.4c-3.8,0.6-7.6,1.5-11.3,2.6c-3.7,1.1-7.3,2.5-10.4,4.6l0,0c-0.6,0.4-1.3,0.2-1.7-0.3
	C1449.5,165.9,1449.6,165.2,1450.1,164.8z"/>
<path class="st21" d="M1667.9,166.7c-3.1-2.1-6.8-3.5-10.4-4.6c-3.7-1.1-7.5-2-11.3-2.6c-3.8-0.6-7.7-1.1-11.5-1.4
	c-3.8-0.2-7.7-0.3-11.3,0.2l-0.1,0c-1.5,0.2-2.9-0.9-3.1-2.4c-0.2-1.5,0.9-2.9,2.4-3.1l0.2,0c4.3-0.3,8.3,0.1,12.4,0.6
	c4,0.5,8,1.3,11.9,2.2c3.9,0.9,7.8,2,11.6,3.5c3.8,1.4,7.5,3.1,10.8,5.7c0.5,0.4,0.6,1.2,0.2,1.7
	C1669.2,167,1668.5,167.1,1667.9,166.7L1667.9,166.7z"/>
<path class="st16" d="M1214,466.9c-3.7-13.6-6.4-27.8-15.7-38.9c-0.4-0.4-0.8-0.9-1.3-1c-0.6-0.2-1.2,0.1-1.8,0.3
	c-10.9,4.7-15,15.2-20.8,24.8c-6.6,11.1-12.7,23-15.2,35.8c4.7,2.8,9.5,5.5,14.1,8.5c0.6,0.4,1.3,0.8,2,0.9c0.5,0,1.1-0.1,1.6-0.3
	c2.8-1,5.2-2.9,7.8-4.5c3.3-2,6.5-4.2,9.6-6.5c6.9-5.1,14.1-10.7,19.4-17.5l0.4-0.8L1214,466.9z"/>
<path class="st14" d="M1694.7,163.8c-4.8-5.2-10.7-9.1-16.8-12.3c-3.1-1.7-6.2-3.2-9.4-4.7c-3.2-1.5-6.3-3-9.5-4.5
	c-12.8-5.8-25.7-11.4-38.5-17.6c-12.7-6.2-25.3-12.9-36.9-21.3c-11.6-8.3-22.2-18.3-30.1-30.1c9.8,10.3,20.8,18.9,32.5,26.4
	c3,1.8,6,3.6,9,5.4c3.1,1.7,6.1,3.5,9.2,5c6.2,3.3,12.4,6.4,18.8,9.4c12.6,6.2,25.5,12,38,18.7c6.3,3.3,12.5,6.8,18.4,10.7
	C1685.2,153.1,1690.9,157.9,1694.7,163.8z"/>
<path class="st14" d="M1702.6,144.9c-4.2-8.5-10.5-15.2-17-21.9c-6.4-6.7-13.1-13.1-20.2-19.1c-7-6.1-14.3-11.7-21.9-17.1
	c-7.6-5.4-15.4-10.4-23.4-15.5c9,2.9,17.6,6.9,25.8,11.7c8.2,4.8,15.9,10.4,23.2,16.6c7.1,6.3,13.9,13,19.8,20.5
	C1694.9,127.4,1700.6,135.6,1702.6,144.9z"/>
<path class="st14" d="M1416.3,169.4c1.5-6.1,4.9-11.7,9.1-16.5c4.3-4.7,9.4-8.7,15-11.9c11.1-6.5,23.5-9.8,35.2-13.6
	c11.8-3.5,23-8.2,33.6-14.4c10.6-6.2,20.3-13.8,29.4-22.4c-7.3,10.2-16.5,19-27,26.1c-5.2,3.6-10.8,6.7-16.5,9.4
	c-5.8,2.7-11.8,4.8-17.7,6.7c-11.9,3.7-23.9,6.7-34.8,12C1431.8,150.3,1421.7,158,1416.3,169.4z"/>
<path class="st14" d="M1540.4,46.1c-6.4,15-17.7,28.1-31.8,37c-7,4.6-14.9,7.8-22.8,10.2c-7.9,2.4-15.9,4.1-23.5,6.4
	c-15.3,4.2-29.5,12-41.2,22.7c-11.7,10.8-21.2,24.1-27.2,39.3c3.9-15.9,12.4-30.7,24.2-42.5c5.8-6,12.5-11,19.7-15.3
	c7.2-4.2,15.1-7.4,23-9.7c15.9-4.4,31.9-6.9,45.6-15C1520,71.5,1532,60.1,1540.4,46.1z"/>
<path class="st14" d="M1407.6,82.9c6-11.6,14.3-22.2,23.8-31.3c9.5-9.2,20.5-16.9,32.3-23c11.8-6.1,24.4-10.6,37.4-13.1
	c13-2.6,26.3-3.2,39.3-1.4c-13.1,0.6-25.9,2.5-38.3,5.8c-12.4,3.3-24.4,7.9-35.8,13.8c-11.4,5.8-22.1,13-31.9,21.3
	C1424.6,63.1,1415.6,72.5,1407.6,82.9z"/>
<path class="st14" d="M1714.4,158.4c-2.7-13.6-6.1-26.8-10.9-39.6c-4.8-12.7-10.8-25-18.4-36.2c-7.5-11.2-16.6-21.4-26.9-30.1
	c-10.4-8.7-22-16-34.8-21.3c13.5,3.1,26.3,9.5,37.5,17.8c11.3,8.4,21,18.8,28.9,30.5c7.8,11.7,13.8,24.5,17.8,37.9
	C1711.7,130.7,1714,144.5,1714.4,158.4z"/>
<path class="st12" d="M1385.9,152.9c4.6-14.6,10.6-28.9,19.6-41.6c8.9-12.6,21.1-23.3,35.8-28.9c7.4-2.8,15.1-3.8,22.7-4.8
	c7.6-0.9,15.1-1.9,22.5-3.8c7.3-1.9,14.5-4.6,21.3-8c6.9-3.3,13.3-7.5,19.4-12.1C1515.8,64,1502,71.6,1487.1,76
	c-14.9,4.7-30.8,3.7-44.8,9.1c-14.1,5.2-26,15.5-35,27.5c-4.6,6-8.5,12.6-12,19.4C1391.8,138.8,1388.8,145.8,1385.9,152.9z"/>
<path class="st12" d="M1384.6,146.5c0.8-10.4,3.2-20.7,6.3-30.6c3.2-9.9,7.2-19.6,12.6-28.6c-3.3,9.9-6.8,19.6-9.9,29.5
	C1390.4,126.6,1387.6,136.5,1384.6,146.5z"/>
<path class="st12" d="M1656.9,80.1c-6.3-6.8-14.2-11.7-22.5-15.4c-8.4-3.7-17.2-6.3-26.1-8.8c-4.4-1.3-8.9-2.6-13.3-4.1
	c-4.4-1.5-8.7-3.2-13.1-4.8c-4.3-1.7-8.7-3.4-12.8-5.9c-4-2.5-7.7-5.7-10.3-9.6l0.1-0.9l0.8,0.1c5.8,7.1,14.4,10.8,23,13.7
	c4.4,1.5,8.7,3.2,13,4.6c4.4,1.5,8.8,2.7,13.2,4.1c8.8,2.8,17.8,5.5,26.1,9.7C1643.5,67.1,1651.4,72.6,1656.9,80.1z"/>
<path class="st12" d="M1715,85.2c-1.5-1.8-3-3.5-4.5-5.2c-5.4-6.1-11-12.1-16.8-17.9c-11.7-11.4-23.8-22.5-37.4-31.5
	c-6.7-4.5-13.9-8.2-21.5-11.2c-7.5-3-15.3-5.4-23.3-7.1c-7.9-1.8-16-2.7-24.1-2.9c-8.1-0.2-16.3,0.4-24.3,2l-0.9-0.6l0.6-0.9
	c16.1-3.7,33.1-3.7,49.3-0.3c8.1,1.7,16,4.2,23.7,7.2c7.7,3.1,15.2,6.8,22,11.6c13.6,9.5,25.8,20.7,37.1,32.5
	c6.2,6.5,12.2,13.3,17.9,20.3C1713.5,82.5,1714.3,83.9,1715,85.2z"/>
<path class="st12" d="M1548,79.5c9.9,10.5,19.6,21.2,30.4,30.6c2.7,2.3,5.5,4.6,8.4,6.7c2.8,2.2,5.8,4.1,8.8,6.1
	c6,3.8,12.4,7.2,18.8,10.3c12.9,6.4,26.3,11.5,39.6,17.2c6.6,2.9,13.2,5.9,19.7,9.1c6.4,3.3,12.7,6.9,18.7,10.9
	c-12.6-7.1-25.8-12.7-39.2-18c-13.4-5.3-26.9-10.4-40-16.7c-13-6.4-25.5-14.1-36.2-24C1566.3,101.9,1557,90.8,1548,79.5z"/>
<path class="st12" d="M1549,94.9c-3,4.2-6.4,8-10.1,11.6c-3.7,3.6-7.6,6.9-11.7,10c-8.2,6.2-17.2,11.4-26.5,15.8
	c-9.3,4.3-19,8-28.7,11c-4.9,1.5-9.8,3-14.7,4.3c-5,1.3-9.9,2.6-14.9,3.8c4.8-1.8,9.7-3.4,14.5-5.1c4.8-1.6,9.7-3.3,14.4-5.1
	c9.6-3.5,19.1-7.2,28.2-11.5c9.2-4.3,18.1-9.2,26.4-14.9C1534.3,109,1542.1,102.4,1549,94.9z"/>
<path class="st12" d="M1559.8,36.2c6.8,15,18,27.5,30.5,38c12.6,10.5,26.4,19.5,40.3,28.4c13.7,9.2,28.1,17.4,41.5,27.2
	c6.7,4.9,13.1,10.3,18.9,16.2c5.7,6,10.8,12.6,15,19.7c-9.2-13.8-21.5-25-35.1-34.3c-13.5-9.3-27.9-17.5-41.8-26.5
	c-13.8-9-27.8-18-40.4-28.9c-6.3-5.5-12.2-11.4-17.3-18c-5.1-6.6-9.5-13.8-12.5-21.5l0.3-0.7L1559.8,36.2z"/>
<path class="st12" d="M1548,29.1c-7.6,0.9-15.1,2-22.5,3.6c-7.4,1.5-14.8,3.3-22.1,5.4c-14.5,4.3-28.7,9.6-42,16.8
	c-13.3,7.1-24.9,16.9-35.7,27.5c-5.4,5.3-10.6,10.8-15.5,16.6c-5,5.7-9.7,11.6-14.3,17.7c8.2-12.8,17.7-24.8,28.3-35.8
	c10.6-11,22.4-21,35.9-28.4c13.6-7.1,28-12.6,42.7-16.4C1517.7,32.1,1532.8,29.6,1548,29.1z"/>
<path class="st10" d="M1700.6,836.6L1700.6,836.6c-88.8-0.5-178.6-4.9-267-13c-1.6-0.1-2.7-1.5-2.6-3.1c0.1-1.6,1.5-2.7,3.1-2.6
	c88.2,8.1,177.9,12.5,266.5,13c1.6,0,2.8,1.3,2.8,2.9C1703.5,835.4,1702.2,836.6,1700.6,836.6z"/>
<path class="st10" d="M1721,899.5l-1-0.2c-12.6-4.7-26.8-9.9-37.2-20.3c-10.6-10.6-16.1-25.7-14.8-40.6c0.1-1.6,1.5-2.7,3.1-2.6
	c1.6,0.1,2.7,1.5,2.6,3.1c-1.2,13.2,3.8,26.7,13.1,36.1c9.5,9.5,23.1,14.6,35.2,19c1.5,0.5,2.2,2.2,1.7,3.6
	C1723.3,898.8,1722.2,899.5,1721,899.5z"/>
<path class="st10" d="M1565.7,915.3c-1.6,0-2.8-1.3-2.8-2.8c0-6-0.2-13.6-0.5-21.6c-0.5-17.8-1.1-40,0.2-57.5c0.1-1.6,1.5-2.7,3-2.6
	c1.6,0.1,2.7,1.5,2.6,3c-1.3,17.2-0.7,39.2-0.2,56.9c0.2,8.1,0.5,15.7,0.5,21.8C1568.5,914,1567.3,915.3,1565.7,915.3z"/>
<path class="st10" d="M1570,895.6c-1.3,0-2.7-0.2-4-0.7c-1.5-0.6-2.2-2.2-1.6-3.7c0.6-1.5,2.2-2.2,3.7-1.6c3.3,1.3,7.2-1,9.2-3.8
	c2.4-3.4,3.2-8,3.8-12.4c1.8-13.4,2.5-27.1,2.2-40.7c0-1.6,1.2-2.9,2.8-2.9c1.6,0,2.9,1.2,2.9,2.8c0.4,13.8-0.4,27.8-2.2,41.6
	c-0.7,5.1-1.6,10.5-4.8,15C1579.3,892.7,1574.8,895.6,1570,895.6z"/>
<path class="st23" d="M1354.8,1686.3c-4.6,0-5.4-4.9-4.8-7c5.1-17.9,22.6-29.8,39.5-35c5.9-1.8,12.2-2.7,15.9-8.2
	c3.8-5.7,6-12.7,6.4-19.5c0-0.6,0.1-1.2,0.5-1.6c0.4-0.4,1-0.4,1.5-0.5c13.7-0.4,69.4-1,87.1-0.3c0.7,0,1.4,0.1,1.9,0.4
	c1.3,0.7,1.5,2.4,1.6,3.9c0.8,13,2.3,47.7,2.3,59.7c0,4.5-1.2,7.1-6.1,7.6c-8.8,0.8-110.3,0.6-134.4,0.6
	C1362.5,1686.3,1358.7,1686.3,1354.8,1686.3z"/>
<path class="st23" d="M1564.4,1686.3c-4.6,0-5.4-4.9-4.8-7c5.1-17.9,22.6-29.8,39.5-35c5.9-1.8,12.2-2.7,15.9-8.2
	c3.8-5.7,6-12.7,6.4-19.5c0-0.6,0.1-1.2,0.5-1.6c0.4-0.4,1-0.4,1.5-0.5c13.7-0.4,69.4-1,87.1-0.3c0.7,0,1.4,0.1,1.9,0.4
	c1.3,0.7,1.5,2.4,1.6,3.9c0.8,13,2.3,47.7,2.3,59.7c0,4.5-1.2,7.1-6.1,7.6c-8.8,0.8-110.3,0.6-134.4,0.6
	C1572.1,1686.3,1568.3,1686.3,1564.4,1686.3z"/>
<path class="st24" d="M1169.2,522.2c11.9-33.1,43.8-133.4,51.2-158.3c-3.2-1.3-6.4-2.5-9.6-3.8c-0.8-0.3-1.7-0.7-2.6-0.2
	c-1.1,0.5-1.8,1.9-2.4,3.1c-7.4,16.6-53,122.9-60.8,140.7c-3.4,7.6-6.8,15.7-7.1,23.8c-0.3,8.1,3.5,16.3,10.1,16.8
	c4.5,0.3,9.2-3,12.6-7.4C1163.9,532.6,1167.2,527.8,1169.2,522.2z"/>
<path class="st18" d="M1206.1,410c6.5-20.4,11.8-37.6,14.4-46.2c-3.2-1.3-6.4-2.5-9.6-3.8c-0.8-0.3-1.7-0.7-2.6-0.2
	c-1.1,0.5-1.8,1.9-2.4,3.1c-2.5,5.7-9.5,21.9-18,41.5C1193.7,406.9,1199.8,408.7,1206.1,410z"/>
<path class="st25" d="M1202.8,318.1c4.8-5.2,11.1-8.7,17.1-12.4c9.3-5.8,18.7-13.4,20.9-24.1c4.1,7.6,6.1,16.4,5.6,25
	c2.2-2.4,4.5-4.9,6.7-7.3c1.4,10.5,1.4,21.3,0,31.8c-1.8,13.5-3.5,27.9-16.8,35C1204.7,383.2,1180.9,341.9,1202.8,318.1z"/>
<path class="st9" d="M1205.6,316.2l-0.2-0.9c0-1,0.9-1.7,1.7-2.3c12.4-9.1,30.2-14.2,33.7-31.4c4.1,7.6,6.1,16.4,5.6,25
	c2.2-2.4,4.5-4.9,6.7-7.3c-0.7,0.8,0.8,7.7,0.9,9c0.2,3.3,0.2,6.6,0.2,9.8c-0.1,4.9,0.5,12.5-1.7,17c-0.7,1.4-2.1,2.7-3.7,2.7
	c-4.4,0.1-5.4-7.8-9.8-8.2c-2.3-0.2-4.1,1.8-5.7,3.5c-2.2,2.4-4.7,4.6-7.5,6.4c-1.1,0.7-2.3,1.4-3.6,1.4c-2.4-0.1-4-2.6-4.6-4.9
	c-0.8-3.3-0.3-6.9,1.3-9.9c1-1.8,2.3-3.4,3.1-5.3c0.8-1.9,0.8-4.3-0.7-5.7c-1.6-1.5-4.3-1.1-6.3-0.2c-2,0.9-3.9,2.3-6.2,2.6
	C1207.6,317.6,1206.2,317.1,1205.6,316.2z"/>
<path class="st16" d="M1155.5,488.7c7.4,3.7,15.6,5.9,23.9,6.3c3.5,0.2,6.5-0.1,7.3-3.6c0.9-3.6-1.5-8-3.9-10.5
	c-3.3-3.5-7.8-5.6-12.2-7.7c5,2.6,10.6,4.1,16.3,4.5c1.6,0.1,3.2,0.1,4.7-0.4c4-1.5,5.6-6.8,4.2-10.8c-2.8-7.8-14.1-11.3-21.3-13.3
	c6.2,1.1,16.2,3.8,22.2,0.9c4.9-2.4,3.7-9.3,0.2-12.7c-3.7-3.5-9-4.3-13.5-6.1c-5.2-2.2-10.8-4.7-16.5-4.2
	c-6.3,0.6-10.7,6.2-13.8,11.7c-8.7,15.6-12.7,40.8,8.3,48.5"/>
<path class="st16" d="M1536.8,710.3c-8.2-3-21.1-9.2-29.3-3.4c-2.2,1.6-3.7,4.6-2.6,7.1c0.7,1.7,2.2,3,3.8,3.8
	c8,4.4,17.1,7.7,25.9,12.6c-9-0.9-15.5-1.4-24.9-2.9c-3.3-0.6-6.8,0.5-9.7,2.2c-2.8,1.8-4.8,5.3-3.7,8.5c1.1,3.3,4.8,4.8,8.1,5.8
	c9.3,2.8,19.1,4.1,28.8,6.1c-11.8,1.9-19.9,3.7-30.5,7c-3.3,1-5.7,4.7-5.3,8.1c0.6,4.4,6.2,7.2,10.6,6.2c9.4-2.1,19-2.5,29.5-3.7
	c-6.5,3.2-11.1,7.3-16.7,10.7c-7.2,4.4-0.2,11.4,6.1,10c15.6-3.4,30.6-7.5,46.5-11.5c2.4-0.6,5.1-1.3,6.6-3.4c0.7-1,0.9-2.2,1.2-3.3
	c2.2-9.1,4.3-17.6,3.4-27.1c-0.4-4.2-0.4-9-1.5-13c-0.1-0.5-0.3-1-0.6-1.4c-0.4-0.5-1.1-0.8-1.7-1c-6.2-2.6-12.5-5.1-18.7-7.6
	C1553.7,716.7,1545.3,713.4,1536.8,710.3z"/>
<path class="st16" d="M1755.4,450.4c2.7,8.9,5.8,18.3,8.9,27.7l9.6,28.5c6.5,19.1,13.1,38.4,19.5,57.8c6.4,19.5,12.6,39.1,18.4,59.3
	c2.9,10.1,5.6,20.3,8.1,31c1.2,5.3,2.4,10.8,3.4,16.5c1,5.7,1.9,11.7,2.4,18.6c0.2,3.5,0.4,7.3,0.1,11.9c-0.1,1.2-0.1,2.3-0.3,3.7
	c-0.2,1.4-0.3,2.6-0.7,4.3l-0.5,2.4c-0.2,0.9-0.5,1.9-0.8,2.8c-0.5,1.7-1.5,4.2-2.5,6.5c-0.2,0.4-0.8,1.5-1.3,2.5
	c-0.6,1-1.2,1.9-1.8,2.8c-0.7,1-1,1.4-1.6,2c-0.5,0.6-1,1.2-1.5,1.7l-0.8,0.8l-0.6,0.6l-1.2,1.1l-1.2,1.1l-1,0.8l-2,1.5l-1.7,1.1
	c-1.2,0.8-2.1,1.3-3.1,1.9c-3.9,2.2-7,3.5-10.1,4.8c-6,2.5-11.5,4.3-16.9,5.9c-5.4,1.6-10.6,3.1-15.9,4.4
	c-20.9,5.3-41.4,9.2-62,12.5c-20.6,3.2-41.4,5.8-62.4,7.3c-10.5,0.7-21.1,1.2-32,1.3c-10.9,0-21.8-0.4-33.6-2
	c-12.6-1.7-21.5-13.3-19.8-26c1.6-12,12.3-20.7,24.2-20l0.6,0c8.3,0.5,17.5,0.2,26.9-0.5c9.3-0.7,18.9-1.8,28.4-3.2
	c19.1-2.8,38.3-6.5,57.3-10.9c19-4.4,37.9-9.5,55.8-15.5c4.5-1.5,8.8-3.1,13-4.7c4.1-1.6,8.2-3.3,11.4-4.9c1.6-0.8,3-1.6,3.4-2
	l0.1-0.1l-0.2,0.1l-0.5,0.3l-0.8,0.7l-0.5,0.5l-0.7,0.7l-0.9,1l-1,1.3c-0.5,0.6-0.9,1.3-1.3,2l-0.9,1.6c-0.6,1.1-1,2.5-1.2,2.9
	l-0.4,1.5c-0.1,0.5-0.1,0.4-0.2,0.6l-0.1-0.1l-0.4-3.2c-0.5-3.2-1.4-7.2-2.4-11.3c-1.1-4.2-2.3-8.5-3.7-12.9
	c-2.7-8.8-5.9-17.9-9.3-27c-6.7-18.2-14.1-36.6-21.7-55c-7.6-18.4-15.5-36.9-23.4-55.4l-11.9-28.1c-4-9.5-7.9-19-11.8-29.2l0-0.1
	c-8.1-21.1,2.4-44.8,23.5-52.9c21.1-8.1,44.8,2.4,52.9,23.5C1754.7,448.4,1755.1,449.5,1755.4,450.4z"/>
<path class="st18" d="M1690.1,393.6c5.9-0.7,12.3,0.4,18.9,3.8c28.2,14.8,44.5,45.9,57.5,73.2c3.7,7.8,6.9,15.8,9.7,23.9
	c1.4,4.1,7.9,17.6,6.2,21.5c-4.3,10.1-92.8,40.3-94.9,35.3c-11.9-29.5-16.5-68.6-23.9-107.8l-0.1-0.2c-0.2-0.7-0.5-1.3-0.7-2
	C1655.9,419.1,1670,396,1690.1,393.6z"/>
<path class="st2" d="M1549.1,618c-37.2,2.5-73.9,13.2-106.7,30.9c-32.8,17.7-86.4,57.2-65,101.2c7,14.3,23.3,21.3,38.8,25.2
	c39.8,10.1,81.8,7.8,122.5,2c32.2-3.6,63.3-13.2,93.1-25.5c5.6-2.3,11.4-4.8,15.4-9.4c8-9.3,4.2-26-7.1-30.8
	c-6.9-2.9-14.3-1.5-21.4-3c-11.2-2.3-23.5-5-31.3-14c-7.4-8.6-9.1-21.4-4.8-32.1c4.7-11.7,21-16.3,22.2-29.4
	c0.5-5.4-2.7-11-7.7-13.2c-5.3-2.4-13.1-2.1-18.9-2.4C1568.4,617.2,1558.7,617.3,1549.1,618z"/>
<path class="st26" d="M1640,711.7c-3.9-1.7-8.1-2-12.3-2.3c5.9,5.5,10.1,12.6,7.1,21.1c-3.2,9.2-13.3,14.1-21.6,17.6
	c-29.5,12.6-62,18-93.8,21.1c-32.8,3.3-67.3,5.3-99.7-2.1c-15.9-3.6-32.4-9.8-44.2-21.1c0.5,1.4,1.1,2.7,1.8,4.1
	c7,14.3,23.3,21.3,38.8,25.2c39.8,10.1,81.8,7.8,122.5,2c32.2-3.6,63.3-13.2,93.1-25.5c5.6-2.3,11.4-4.8,15.4-9.4
	C1655.1,733.2,1651.3,716.5,1640,711.7z"/>
<path class="st5" d="M1438.3,665.1c-2,3.2-3.2,7.1-6,9.6c-2.1,2-5.1,3.2-6.4,5.8c-1,2.2-0.5,4.9,1.2,6.7c1.6,1.7,4.2,2.5,6.6,2.1
	c4.2-0.6,7.2-4.3,11.1-6.1c3.8-1.8,8.3-1.7,12.5-2c4.2-0.3,8.8-1.3,11.5-4.5c1.9-2.2,2.6-5.3,2.8-8.2c0.2-1.9,0.2-3.9-0.9-5.4
	c-2.3-3.4-7.4-2.5-11.4-2.1C1451.3,661.7,1443.7,656.5,1438.3,665.1z"/>
<path class="st7" d="M1413.7,713.6c-8.1,5.5-17.4,12.3-18.9,21.8c-1,6.5,2.5,13.8,8.7,16.1c5.4,2.1,11.5,0.1,16.8-2.3
	c5.3-2.4,10.6-5.3,16.5-5.3c3.9,0,7.7,1.3,11.6,1.7c3.9,0.3,8.4-0.7,10.4-4.1c4.2-7.1-4-14.4-10.5-15.1c-3.9-0.5-8.7,1-11.4-1.8
	c-3.7-3.8,0.5-10.6-2.1-15.2c-1.5-2.7-5.1-3.7-8.1-3.2c-3.1,0.5-5.7,2.3-8.3,4.1C1416.9,711.4,1415.3,712.5,1413.7,713.6z"/>
<path class="st8" d="M1431.2,740.1c0.3,3.7,3.7,6.7,3.4,10.4c-0.1,1.4-0.8,2.7-0.8,4.1c0.1,2,1.6,3.7,3.4,4.6
	c4.8,2.6,10.8,1.2,15.9-1c5.1-2.1,10.1-5,15.6-5c4.4,0,8.6,1.8,12.9,2.8c3.3,0.8,6.8,1.1,10.2,1c3-0.1,6-0.7,8.4-2.4
	c2.4-1.8,3.8-5.1,2.7-7.8c-0.9-2.3-3.3-3.7-5.7-4.1c-2.4-0.5-4.9-0.2-7.4-0.1c-4.4,0.2-8.8-0.2-13.1-1.2c-9.1-2.1-1.6-7.5-2.3-12.9
	c-0.7-5.6-6.8-7.7-11.5-7.2C1455.2,722.2,1430.5,730.4,1431.2,740.1z"/>
<path class="st9" d="M1582,734.2c0.4,1.1,0.6,2.2,0.3,3.3c-0.7,3.5-5,4.9-8.6,4.9c-3.6,0-7.5-0.6-10.5,1.3
	c-3.7,2.4-4.4,7.5-6.6,11.4c-2.3,4-6.6,6.8-11.2,7.2c-6.2,0.6-9.9-2.8-13.8-7c-3.6-3.9-7.8-5.8-11.3-9.2c-7.1-7.1-1.1-9.2,5.8-9.2
	c11.1-0.1,17.8-0.8,28-5.7C1562.2,727.3,1577.7,722.1,1582,734.2z"/>
<path class="st27" d="M1539.1,728.9c3.7,0.1,7.1-2,10.2-4.1c3.1-2.1,6.3-4.3,10.1-4.5c2.2-0.1,4.8,0.3,6.2-1.3
	c0.7-0.7,0.9-1.8,0.9-2.8c0.4-5.9-4-11.6-9.6-13.4c-5.6-1.8-12.1,0-16.5,3.9C1535.5,711.1,1526.2,728.5,1539.1,728.9z"/>
<path class="st28" d="M1492.4,708.8c3,1.5,4.2,5,6.4,7.5c2.9,3.3,8.2,4.5,12.1,2.3c3.9-2.1,5.7-7.5,3.7-11.4c-1.3-2.5-4-4.3-4.7-7.1
	c-0.9-3.8,2.4-7.2,4.7-10.3c4.8-6.3,3.3-13.7-5.4-12.7c-6.8,0.8-11,9-18,8.5c-2.1-0.1-4.4-1.2-6.3-0.4c-0.9,0.4-1.6,1.1-2.3,1.9
	c-3.2,3.7-8.4,10-8.7,15.1C1472.7,717,1485.5,705.4,1492.4,708.8z"/>
<path class="st28" d="M1517,658.8c0.6,0.2,1.2,0.4,1.6,0.9c1.3,1.4,0.3,3.8-1.3,4.8c-1.6,1-3.7,1.1-5.5,1.6
	c-7.8,2.4-13.4,14.9-22.9,12c-2.3-0.7-4.2-3-3.6-5.3c0.8-3,4.7-3.6,7.8-4.2C1500.4,667.2,1509,656.5,1517,658.8z"/>
<path class="st1" d="M800.2,1296.5H34.1c-11.2,0-20.3-9.1-20.3-20.3v-16.3c0-11.2,9.1-20.3,20.3-20.3h766.1
	c11.2,0,20.3,9.1,20.3,20.3v16.3C820.5,1287.4,811.4,1296.5,800.2,1296.5z"/>
<path class="st1" d="M100.6,1713.7H81.1c-2.3,0-4.2-1.9-4.2-4.2v-423.3c0-2.3,1.9-4.2,4.2-4.2h19.5c2.3,0,4.2,1.9,4.2,4.2v423.3
	C104.8,1711.8,102.9,1713.7,100.6,1713.7z"/>
<path class="st1" d="M756.3,1713.7h-19.5c-2.3,0-4.2-1.9-4.2-4.2v-423.3c0-2.3,1.9-4.2,4.2-4.2h19.5c2.3,0,4.2,1.9,4.2,4.2v423.3
	C760.5,1711.8,758.6,1713.7,756.3,1713.7z"/>
<rect x="107.2" y="1138.8" class="st28" width="75.8" height="100.7"/>
<rect x="100.7" y="1135.5" class="st21" width="88.9" height="14.4"/>
<path class="st20" d="M165.6,1194.8c0,15.8-9.2,28.6-20.5,28.6c-11.3,0-20.5-12.8-20.5-28.6c0-15.8,9.2-28.5,20.5-28.5
	C156.4,1166.3,165.6,1179.1,165.6,1194.8z"/>
<rect x="211.8" y="1142.7" class="st9" width="75.8" height="96.9"/>
<rect x="205.3" y="1135.5" class="st21" width="88.9" height="14.4"/>
<path class="st20" d="M270.2,1194.8c0,15.8-9.2,28.6-20.5,28.6c-11.3,0-20.5-12.8-20.5-28.6c0-15.8,9.2-28.5,20.5-28.5
	C261,1166.3,270.2,1179.1,270.2,1194.8z"/>
<path class="st29" d="M437,1176.5c0.9-18.8,1.4-75.1,1.3-89.1c-1.8-0.1-3.7-0.3-5.5-0.4c-0.5,0-1-0.1-1.4,0.3
	c-0.5,0.4-0.6,1.2-0.7,2c-1.2,9.6-7.8,71.2-9,81.5c-0.5,4.4-1,9.1,0.1,13.3c1.1,4.2,4.4,7.8,7.8,7c2.4-0.5,4.3-3,5.3-5.8
	C435.9,1182.7,436.8,1179.7,437,1176.5z"/>
<path class="st18" d="M438.2,1113.3c0.1-11.4,0.1-21.1,0.1-25.9c-1.8-0.1-3.7-0.3-5.5-0.4c-0.5,0-1-0.1-1.4,0.3
	c-0.5,0.4-0.6,1.2-0.7,2c-0.4,3.3-1.4,12.7-2.7,24.1C431.4,1113.7,434.8,1113.7,438.2,1113.3z"/>
<path class="st25" d="M422.1,1066.8c1.6-3.4,4.3-6.2,6.8-9.1c3.8-4.4,7.4-9.8,6.9-15.6c3.3,3.2,5.7,7.4,6.8,11.9
	c0.8-1.6,1.5-3.2,2.3-4.8c2.4,5.2,4.1,10.7,5,16.3c1.2,7.2,2.6,14.8-3.1,20.5C433.3,1099.8,414.6,1082.4,422.1,1066.8z"/>
<path class="st30" d="M459.8,1170.2c1.3-20.8,4-83.1,4.5-98.6c-1.2-0.3-2.5-0.6-3.7-0.8l-0.9,0.2c-0.3,0.4-0.5,1.3-0.6,2.1
	c-1.2,10.6-8.1,78.4-9.3,89.7c-0.5,4.9-1,10-0.5,14.7c0.6,4.7,2.6,8.9,5,8.3c1.6-0.4,3-3,3.8-6
	C458.8,1177,459.6,1173.7,459.8,1170.2z"/>
<path class="st18" d="M463.3,1097.9c0.5-11.6,0.9-21.3,1-26.3c-1.2-0.3-2.5-0.6-3.7-0.8l-0.9,0.2c-0.3,0.4-0.5,1.3-0.6,2.1
	c-0.4,3.4-1.3,12.5-2.5,23.7C458.8,1097.4,461,1097.7,463.3,1097.9z"/>
<path class="st25" d="M459.8,1050.2c1.6-3.7,3.2-7.3,4.8-11c1.8,5.8,3.7,11.7,4.4,17.8c0.6,4.8,1.2,11-1.1,15.5
	c-3.5,6.5-10.3,3.4-11.6-2.4c-1.3-5.9,0.4-12.8,2.7-18.1C459.3,1051.4,459.5,1050.8,459.8,1050.2z"/>
<path class="st24" d="M459.1,1184.8c5.6-20,21.1-80.5,24.8-95.5c-1.1-0.5-2.3-1.1-3.4-1.6l-1,0c-0.4,0.4-0.7,1.2-1,2
	c-3.3,10.1-24.2,75-27.7,85.9c-1.5,4.7-3.1,9.6-3.5,14.3c-0.4,4.8,0.7,9.3,3.1,9.1c1.7-0.1,3.5-2.3,5-5.1
	C456.8,1191.3,458.2,1188.3,459.1,1184.8z"/>
<path class="st18" d="M477.9,1113.2c2.7-10.5,4.9-19.3,6-23.9c-1.1-0.5-2.3-1.1-3.4-1.6l-1,0c-0.4,0.4-0.7,1.2-1,2
	c-1,3-3.6,11-6.8,21C473.7,1111.7,475.8,1112.5,477.9,1113.2z"/>
<path class="st25" d="M483.4,1070.1c4.3,1.1,8.6,3.1,12.5,4.8c0.7,0.3,1.4,0.7,1.7,1.4c0.3,0.9-0.2,1.8-0.8,2.5
	c-2,2.6-3.7,5.4-5.8,8c-1.7,2.1-4.2,5.6-6.9,6.3c-1.4,0.3-2.8-0.1-4.1-0.5c-2.3-0.7-3-1.9-3.3-4.2c-0.5-2.9-0.6-5.8-0.5-8.7
	c0.1-3.1,0.4-6.1,0.6-9.2l0.3-0.9l0.9-0.3C479.7,1069.4,481.6,1069.6,483.4,1070.1z"/>
<path class="st24" d="M420.6,1175c-3.4-20.6-15.7-81.9-19-97c-2,0.3-4,0.5-6.1,0.8c-0.5,0.1-1.1,0.2-1.4,0.6
	c-0.4,0.6-0.4,1.5-0.3,2.3c0.9,10.7,7.9,79.1,8.9,90.6c0.5,4.9,1,10.1,3.2,14.4c2.2,4.3,6.5,7.5,10.1,5.8c2.4-1.1,3.9-4.2,4.4-7.5
	C420.8,1181.9,421.2,1178.5,420.6,1175z"/>
<path class="st18" d="M407.4,1106.1c-2.5-12.4-4.7-23-5.8-28.1c-2,0.3-4,0.5-6.1,0.8c-0.5,0.1-1.1,0.2-1.4,0.6
	c-0.4,0.6-0.4,1.5-0.3,2.3c0.3,3.7,1.3,14.1,2.6,26.7C400.1,1108,403.8,1107.2,407.4,1106.1z"/>
<path class="st25" d="M378.6,1059.4c-0.7-5.6-1.1-11.4-1.7-17l0.1-1l1-0.8c1.2-0.6,2.5-1,3.9-1.3c0.9,2.8,2.1,5.4,3.6,7.9
	c-0.2-2.6-0.3-5.3-0.5-7.9l0.1-0.7l0.5-0.3c4.8-1.2,9.7-2.3,14.5-3.6c1.4-0.4,3.2-0.7,4.2,0.4c0.4,0.4,0.5,0.9,0.7,1.4
	c1.1,3.1,2.1,6.2,3.1,9.3c2.9,8.7,7.9,20,2.4,28.6c-4,6.3-11.1,9.7-18.4,7.4c-6.5-2-10.4-7.1-11.9-13.6
	C379.5,1065.5,379,1062.4,378.6,1059.4z"/>
<polygon class="st31" points="481.2,1121.8 467.3,1239.5 404,1239.5 390.2,1121.8 "/>
<path class="st32" d="M462.9,1121.8c-3.8,28-0.9,57.3-15.9,82.5c-9.8,16.4-25.8,25.4-44.1,25.7l1.1,9.5h63.3l13.9-117.7H462.9z"/>
<rect x="514.1" y="1141.5" class="st30" width="75.8" height="98"/>
<rect x="507.6" y="1135.5" class="st21" width="88.9" height="14.4"/>
<path class="st20" d="M589.9,1167.6v54.5c-1.9,0.9-4,1.3-6.2,1.3c-11.3,0-20.5-12.8-20.5-28.6c0-15.8,9.2-28.6,20.5-28.6
	C585.9,1166.3,588,1166.7,589.9,1167.6z"/>
<rect x="373.5" y="1184.1" class="st5" width="42.9" height="55.4"/>
<rect x="369.8" y="1180.7" class="st21" width="50.3" height="8.1"/>
<path class="st20" d="M373.5,1198.8v30.8c1.1,0.5,2.3,0.7,3.5,0.7c6.4,0,11.6-7.2,11.6-16.1s-5.2-16.1-11.6-16.1
	C375.8,1198.1,374.6,1198.4,373.5,1198.8z"/>
</svg>
