<?xml version="1.0" encoding="utf-8"?>
<!-- Generator: Adobe Illustrator 25.4.1, SVG Export Plug-In . SVG Version: 6.00 Build 0)  -->
<svg version="1.1" id="Layer_1" xmlns="http://www.w3.org/2000/svg" xmlns:xlink="http://www.w3.org/1999/xlink" x="0px" y="0px"
	 viewBox="0 0 672.7 623" style="enable-background:new 0 0 672.7 623;" xml:space="preserve">
<style type="text/css">
	.st0{display:none;fill:#E9F7FE;}
	.st1{display:none;}
	.st2{display:inline;fill:#FFFFFF;}
	.st3{display:inline;}
	.st4{fill:#D52F3D;}
	.st5{fill:#66C8D0;}
	.st6{fill:#F1B120;}
	.st7{fill:#EE68A7;}
	.st8{display:inline;fill:#D52F3D;}
	.st9{fill:#3F2712;}
	.st10{fill:#FED3AA;}
	.st11{fill:#F1C9A3;}
	.st12{fill:#F69FA7;}
	.st13{fill:#F7D4B2;}
	.st14{fill:#EAC9A9;}
	.st15{fill:#4C2A14;}
	.st16{fill:#F48996;}
	.st17{fill:#241F1C;}
	.st18{fill:#EF3D4F;}
	.st19{fill:#273B5E;}
	.st20{fill:#3E4E6D;}
	.st21{fill:#5E1A0D;}
	.st22{fill:#F8CFA5;}
	.st23{fill:#764D24;}
	.st24{fill:#FBB03B;}
	.st25{fill:#484848;}
	.st26{fill:#FFFFFF;}
</style>
<g id="XMLID_17_">
	<rect id="XMLID_2_" class="st0" width="1400" height="980"/>
	<g id="XMLID_15_">
		<g id="XMLID_348_" class="st1">
			<path id="XMLID_761_" class="st2" d="M1043.2,538.6c-5.1-1.2-10.2-0.9-15.1,0.8c-1.3-11.4-4.6-26.8-12.2-41.1
				c-0.9-1.8-1.9-3.6-2.7-5.4c-7.9-16.8-18.4-32.3-31-45.6c-12.5-13.2-27-24.3-43.1-32.5c23.1-14.3,51.8-45.3,46.3-109.9
				c-7.1-40.5-10.4-98.3-48.9-119.9c0,0-52.4-60.4-150.6-40.7c-38.9,7.8-66.8,29.8-86,56.1c-8.2-15.3-16.5-29.4-24.9-42.2
				c-2.5-6.6-6.3-12.1-11-16.1c-35.3-49.5-71.5-78.6-105-91.9c-23.8-9.4-46.2-10.8-66.1-5.9c-0.6,0-1.2,0-1.8,0
				c-12.5,0-25,1.7-37.1,5.4c-11.3,3.5-22.1,8.4-32,14.4l0,0c-22.9,7.8-44,24.9-59.8,52.7c-24.9,43.6-36.9,113.2-23.2,213
				c22.4,163.3,98.8,138,98.8,138c-28.8-0.1-38.1-29.3-38.1-29.3c14.8,14.1,28,19.1,38,20.5c-0.1,5.6,1.8,10.3,4.9,13.8
				c-6.2,5-9.1,13.4-6.5,21.4c1.7,5.2,5.3,9.3,9.7,11.6c-1.4,2.7-2.2,5.7-2.2,8.8c-4.5,5-6.4,12.3-4.2,19.2c1.8,5.7,6,10,11.1,12.2
				c-9.9,10.3-10.6,29.1-0.9,45.2c11.2,18.4,31.8,26.4,46.1,17.7c0.8-0.5,1.5-1,2.2-1.5c0.8-0.3,1.5-0.7,2.3-1.2
				c0.2-0.1,0.3-0.2,0.5-0.3c31.5,38.5,82,58.4,132.6,50.1c-1.8,2.1-3.2,4.7-4,8c-2.4,9.7,5.9,17.9,14.8,14.7
				c5.3-1.9,10.2-9,7.4-15.1c-0.5-1.1-1.8-0.7-1,0.5c1,1.4-1,11.2-6.5,13.2c-7.5,2.7-12.2-4-9.7-12.1c1.5-4.9,4.1-8.4,7.3-10.8
				c3.9-0.9,7.8-1.9,11.7-3.2c2.4-0.8,4.8-1.6,7.2-2.5c0.2-0.1,0.4-0.1,0.6-0.2c3.5-0.4,7.1-0.6,10.6-1c-1.6,3.1-7.1,14.7-10.8,24
				H658c-1.9,0.2-3.9,1.7-4.6,2.8c-1.1,1.9,1.2,1.2,2,0.8c1.4-0.7,2.9-1.2,4.4-1.2c-4.9,12.9-14.6,27.8-35.3,32.5
				c-10.4,2.3-28.4-1.6-26.3-17.8c0.8-6.1,5.1-10.7,7.6-11.7c0.7-0.3,1.4-1-0.1-1c-2.4,0.1-7.8,4.6-9,9.4
				c-4.8,18.5,11.8,28.2,28.7,26.1c19.1-2.4,32.7-20.1,38.4-37.3c6.7,0.3,21.8,1,25.1,1c-1.8,5.1-9.2,23-2.4,26.4
				c2.6,1.3,5.8,0.5,8.4-2c2.2-2.1,3.7-4,5.6-7.3c-0.3,6.3,3.9,9.4,9.2,4.4c2.1-2.1,4.1-5,5.3-7c-2.2,7.8,1.3,9.7,3.7,9.6
				c4.1-0.3,8.2-7.8,10.6-12.5c0.1-0.1,0.3-0.3,0.4-0.5c-1.3,6.7-13.9,30.8-15.8,32.6c1-0.1,2.1,0.3,3.1,0.4c2.4,0.1,3.5-0.7,5-3.9
				l7-17.5c5.3,3.1,11.8,0.6,15.8-4.3c5.4-6.5,9.6-18.4,2.5-20.3c-5-1.4-11,8.8-13.3,12.4c1-2.5,2-6.4,2.1-8.9
				c0.1-3.6-0.5-3.3-2.7-3c-0.6,0.1-3.6,0.6-3.6,0.6c1.8,0.4,1,6-0.4,9.3c-0.1,0.3-0.3,0.8-0.5,1.2l-0.1,0.1
				c-1.6,3.2-6.4,12.6-9.6,12.4c-1,0-1.3-1.4-0.7-4.4c1-4.5,5.3-12.3,6.9-13.8c-1,0.2-2.1-0.2-3.1-0.3c-2.4-0.1-3.4,1.6-5,4.7
				c-1.9,3.6-4,7.3-6.6,10.4c-3.5,4.1-7.6,4.7-6.8-0.4c0.4-2.8,2.4-6.4,3-7.5c2.7-4.4,6.5-8.7,9.8-10.6c2.7-1.5,5.5-0.9,6.3,1.9
				c1.3,0.2,1.9-1,0.8-2.1c-4.2-4.6-12.7-1.9-17.2,3.4c-2.8,3.4-4.6,6.7-5.5,9.7c-2.1,4-4.7,8.1-7.7,10.4c-1.6,1.2-3.2,1-4.1,0
				c-3.3-3.6,2.5-19,3.9-23.4c2.1-0.1,5.3-0.7,7.2-2c1.3-0.9,0.8-1.4-0.6-0.9c-1.2,0.4-4.4,0.5-5.9,0.5
				c5.9-17.3,13.9-28.4,15.3-29.2c2.7-1.4-0.6-1-3.5,0.1c-5.8,2-15,26.1-16.1,29.2c-5.2,0-15.2-1.3-25.1-1.3
				c1.3-3.2,6.7-18.7,9.6-24.1c3,0,8.7-2,8.7-5.5c0-1.5-1.1-2.2-2.5-2.3c0.2-0.1,0.3-0.2,0.5-0.3c0.4-0.2,0.8-0.5,1.2-0.7
				c0.7-0.4,1.3-0.8,2-1.2c0.4-0.2,0.8-0.5,1.2-0.7c0.6-0.4,1.3-0.8,1.9-1.2c0.4-0.2,0.8-0.5,1.1-0.7c0.6-0.4,1.3-0.8,1.9-1.3
				c0.4-0.2,0.7-0.5,1.1-0.8c0.6-0.4,1.3-0.9,1.9-1.3c0.4-0.3,0.7-0.5,1.1-0.8c0.6-0.5,1.3-0.9,1.9-1.4c0.3-0.2,0.7-0.5,1-0.7
				c0.6-0.5,1.3-1,1.9-1.5c0.3-0.2,0.6-0.5,0.9-0.7c0.7-0.6,1.4-1.1,2-1.7c0.2-0.2,0.5-0.4,0.7-0.6c0.8-0.6,1.5-1.3,2.2-1.9
				c0.1-0.1,0.3-0.3,0.4-0.4c0.7-0.6,1.4-1.3,2.1-1.9c5.5,2.3,11.4,3,17.2,1.6c1-0.2,1.9-0.5,2.8-0.9c0.9-0.1,1.8-0.3,2.7-0.5
				c0.2-0.1,0.4-0.1,0.7-0.2c8.3,20.8,20.9,39.4,36.9,54.6c-3.6,2.8-7,8.5-8.5,11c1-2.5,2-6.4,2.1-8.9c0.1-3.6-0.5-3.3-2.7-3
				c-0.6,0.1-3.6,0.6-3.6,0.6c1.8,0.4,1,6-0.4,9.3c-0.4,0.9-1.1,2.6-1.5,3.3c-0.5,1,0.9,0.6,1.7-0.7c-1.3,6.7-13.9,30.8-15.8,32.6
				c1-0.1,2.1,0.3,3.1,0.4c2.4,0.1,3.5-0.7,5-3.9l7-17.5c5.3,3.1,11.8,0.6,15.8-4.3c2.7-3.2,5-7.7,5.9-11.7c1.1,0.9,2.2,1.8,3.3,2.6
				l-0.8,1.5c-0.4,1,0.2,1.2,0.7,1.2c-1.3,2.7-3.2,5.4-2.5,8.6c0.6,2.8,3.2,3.3,4.7,3.3c3.4,0,6.4-3.2,8.9-6.7
				c0.5,0.3,1.1,0.7,1.6,1c-1.1,3.1-2.4,6.3-3.8,8.7c-6,1.7-13,3-18,5.3c-2.9,1.3-5.6,3.3-7,6.1c-2.2,4.1-1.5,9,5.9,9
				c11,0,18.3-11.3,23-19.7c3.9-1.4,6.6-2.7,8.7-4.3c22,12.1,47.3,19,74.2,19c1.4,0,2.8,0,4.2-0.1l0,0c1.4,0,2.7-0.1,4-0.2
				c0.3,0,0.5,0,0.8-0.1c1.1-0.1,2.2-0.1,3.2-0.2c0.4,0,0.8-0.1,1.1-0.1c1-0.1,1.9-0.2,2.9-0.3c0.4,0,0.9-0.1,1.3-0.1
				c0.9-0.1,1.8-0.2,2.7-0.3c0.5-0.1,0.9-0.1,1.4-0.2c0.9-0.1,1.7-0.2,2.6-0.4c0.5-0.1,1-0.2,1.4-0.2c0.8-0.1,1.7-0.3,2.5-0.4
				c0.5-0.1,1-0.2,1.5-0.3c0.8-0.2,1.6-0.3,2.4-0.5c0.5-0.1,1-0.2,1.5-0.3c0.8-0.2,1.6-0.4,2.4-0.5c0.5-0.1,1-0.2,1.5-0.4
				c0.8-0.2,1.6-0.4,2.4-0.6c0.5-0.1,1-0.3,1.5-0.4c0.8-0.2,1.6-0.4,2.4-0.7c0.5-0.1,1-0.3,1.4-0.4c0.8-0.2,1.6-0.5,2.4-0.7
				c0.5-0.1,0.9-0.3,1.4-0.4c0.8-0.3,1.6-0.5,2.4-0.8c0.4-0.2,0.9-0.3,1.3-0.5c0.8-0.3,1.7-0.6,2.5-0.9c0.4-0.1,0.8-0.3,1.2-0.4
				c0.9-0.3,1.8-0.7,2.6-1.1c0.3-0.1,0.6-0.3,1-0.4c1-0.4,2-0.8,2.9-1.3c0.2-0.1,0.4-0.2,0.6-0.3c4.8-2.2,9.5-4.5,14-7.2
				c0,0,0.1,0,0.1-0.1c1.1-0.6,2.1-1.3,3.2-1.9c0.1-0.1,0.3-0.2,0.4-0.2c1-0.6,1.9-1.2,2.9-1.8c0.2-0.1,0.3-0.2,0.5-0.3
				c0.9-0.6,1.8-1.2,2.7-1.8c0.2-0.1,0.4-0.2,0.5-0.4c0.9-0.6,1.8-1.2,2.6-1.9c0.2-0.1,0.4-0.3,0.5-0.4c0.9-0.6,1.7-1.3,2.6-1.9
				c0.2-0.1,0.3-0.3,0.5-0.4c0.9-0.7,1.7-1.3,2.6-2c0.1-0.1,0.3-0.2,0.4-0.4c0.9-0.7,1.7-1.4,2.6-2.2c0.1-0.1,0.2-0.2,0.3-0.3
				c0.9-0.8,1.8-1.5,2.7-2.3c0.1-0.1,0.2-0.1,0.2-0.2c0.9-0.8,1.8-1.7,2.7-2.5l0.1-0.1c16.4-15.4,29.5-34.3,38-55.5
				c0.8,0.2,1.6,0.3,2.4,0.4c0.9,0.3,1.9,0.6,2.8,0.9c17.7,4.3,36.6-10.8,42.1-33.6C1070.8,564.9,1060.9,542.9,1043.2,538.6z
				 M739.3,679.7c6.3-8.8,10.7-4.2,5.8,4.9c-4,7.3-12.1,15.5-15.8,11.9C732.9,690,736.5,683.6,739.3,679.7z M784.4,707
				c-3.4,4.7-11.3,13.8-17.8,13.8c-6.4,0-3.6-8.7,4-12c4.2-1.9,10.6-3.3,15.4-4.6L784.4,707z M766.9,446.6c-1.2,1.2-2.4,2.5-3.5,3.8
				c-1.7-0.8-3.5-1.4-5.4-1.8c-2.3-3.8-5.8-6.7-9.8-8.3c1.5-1.2,2.8-2.6,3.9-4.2c4.2,1.5,8.7,2.8,13.4,3.8c2.2,0.5,4.4,1,6.5,1.5
				C770.2,443.2,768.5,444.9,766.9,446.6z M439.8,450.5c-0.1,0.1-0.1,0.2-0.2,0.3c-1.5-0.9-3-1.9-4.4-3
				C436.7,448.8,438.3,449.7,439.8,450.5z M672.7,645.6c-1.8,0.2-3.8,0.3-5.8,0.4c0.2-0.1,0.4-0.2,0.6-0.3c0.4-0.2,0.7-0.3,1.1-0.5
				c0.8-0.3,1.5-0.7,2.3-1.1c0.4-0.2,0.8-0.4,1.1-0.5c0.7-0.3,1.5-0.7,2.2-1.1c0.4-0.2,0.8-0.4,1.2-0.6c0,0,0.1,0,0.1-0.1
				C674,643.5,673,645.1,672.7,645.6z M675.2,645.4c1-1.3,3.2-3.9,3.9-3.6C680,641.9,681.5,644.5,675.2,645.4z M770,684.6
				c-4,7.3-12.1,15.5-15.8,11.9c3.5-6.5,7.1-13,9.9-16.8c1.6-2.2,3-3.5,4.2-4.2c1.2,1.1,2.4,2.2,3.6,3.3
				C771.9,680.4,771.3,682.3,770,684.6z M785.7,694.4c-4.8,5.6-7.9,2.6-4.4-5.1c0.3-0.7,0.7-1.4,1-2.1c1.9,1.4,3.8,2.8,5.8,4.1
				C787.4,692.4,786.5,693.4,785.7,694.4z M792.6,700.3c0.6-1.7,1.2-3.4,1.8-5.1c1.3,0.8,2.7,1.6,4.1,2.4
				C796.4,698.9,794.3,699.8,792.6,700.3z"/>
			<path id="XMLID_966_" class="st2" d="M381.8,726.4l44.2,43.7l-44.2,43.7h27.6l-15,38.7l56.9-19.6l-9.4,59.6l52-31.6l3.5,61.1
				l44.8-42.5c0.1,0,0.2,0,0.2,0.1l18.3,58.8l32.9-51.7l32,51.9l19.2-58.8c0.2,0,0.3-0.1,0.5-0.1l6.4,6.6l-1.5,10.9l7.5-4.8l30.3,31
				l5.1-53.6l6.2-4l3.7,2.6l6.3,56.8l29.7-31.4l4.1,2.9l-0.6-6.6l8.9-9.4l21.6,57l30-54c0.2,0,0.4,0,0.5,0l33.6,51l17.4-58.9
				c0.1,0,0.2,0,0.2-0.1l41.7,43.3l6.1-59.4c0.7-0.3,1.4-0.6,2.1-0.9l46.3,37.7l-1.2-60.1c0.3-0.1,0.5-0.3,0.7-0.4l48.6,34.9
				l-4.5-56.8h23.3l-48.5-43.7l48.5-43.7h-636V726.4z M610.1,883.7c-10.3,0.8-20.7,0.9-30.9,0.2c-1.1-0.1-2.2-0.2-3.2-0.3l-18.2-2.4
				c-11.2-2-21.8-4.9-31.7-8.4l-16.4-6.5c-9.3-4.1-17.8-8.6-25.5-13.2l-20.5-13.8c-0.2-0.1-0.3-0.3-0.5-0.4
				c-6.9-5.2-12.9-10.3-18.2-15l-9.7-10.1h182.2l-15.8,43.7l57.1-21.1l-5.3,39.4c-9,2.6-18,4.6-27,6L610.1,883.7z M737.9,834.9
				l-41.6,24c-2.9-1.5-5.7-3.1-8.4-4.7l-14.9-9.5c-8.3-5.8-15.8-11.9-22.5-17.8l-13.2-13.1H766l-27.9,21l0.4,0.2
				c-0.2,0.1-0.3,0.2-0.5,0.3L737.9,834.9z M983.4,813.8c-6.3,4.2-12.6,8.2-18.8,12l-15.4,8.7l0.2,0.1l-46.1,22.5l0.3,0.3
				c-0.2,0.1-0.3,0.1-0.5,0.2v-0.4l-49.3,17l0,0c-4.9,1.2-9.9,2.3-14.7,3.3l-22.9,3.4c-10.7,1.1-21.2,1.5-31.5,1.1l-16.3-1.2
				c-9.1-1-18-2.6-26.7-4.7l-3.5-39c0.6-0.4,1.3-0.8,1.9-1.3l52.7,28.2l-10.7-50.2h18.6l34.6,15.9l-4.4-15.9L983.4,813.8
				L983.4,813.8z"/>
		</g>
		<g id="XMLID_25_">
			<g id="XMLID_27_" class="st1">
				<g id="XMLID_30_" class="st3">
					<g id="XMLID_386_">
						<polygon id="XMLID_390_" class="st4" points="472.3,802.9 463.4,859 512,829.5 						"/>
					</g>
					<g id="XMLID_379_">
						<polygon id="XMLID_383_" class="st4" points="649.5,846.6 689.2,887.2 694.6,830.7 						"/>
					</g>
					<g id="XMLID_365_">
						<polygon id="XMLID_369_" class="st5" points="511.1,829.4 514.4,886 555.5,847 						"/>
					</g>
					<g id="XMLID_357_">
						<polygon id="XMLID_361_" class="st5" points="693.4,830.1 739.8,862.8 734.8,806.2 						"/>
					</g>
					<g id="XMLID_323_">
						<polygon id="XMLID_329_" class="st6" points="555.5,846.8 572.4,901 602.9,853.1 						"/>
					</g>
					<g id="XMLID_313_">
						<polygon id="XMLID_317_" class="st6" points="734.9,806.1 784.9,832.9 773.1,777.4 						"/>
					</g>
					<g id="XMLID_302_">
						<polygon id="XMLID_307_" class="st7" points="602.2,852.8 632,901.1 649.6,847.1 						"/>
					</g>
					<g id="XMLID_276_">
						<polygon id="XMLID_296_" class="st7" points="772.3,777.7 823.8,801.5 808.7,746.8 						"/>
					</g>
					<g id="XMLID_32_">
						<polygon id="XMLID_185_" class="st7" points="440.4,769.5 419.9,822.4 473.5,803.9 						"/>
					</g>
				</g>
				<path id="XMLID_393_" class="st8" d="M615.1,852.6c-8.7,0.6-17.4,0.6-26,0c-47.3-3.3-84.4-24.4-107.2-41.5
					c-24.7-18.6-38.4-36.6-38.5-36.8l1.2-0.9c0.1,0.2,13.7,18.1,38.3,36.5c22.6,17,59.5,37.9,106.4,41.2
					c69.8,4.8,142-29.5,214.5-102.2l1,1C740.9,814,677.2,848.4,615.1,852.6z"/>
			</g>
			<g id="XMLID_29_" class="st1">
				<g id="XMLID_259_" class="st3">
					<g id="XMLID_405_">
						<polygon id="XMLID_406_" class="st4" points="629.1,773.6 609.8,826.9 663,807.3 						"/>
					</g>
					<g id="XMLID_401_">
						<polygon id="XMLID_402_" class="st4" points="794.8,850.2 826,897.6 842.1,843.1 						"/>
					</g>
					<g id="XMLID_397_">
						<polygon id="XMLID_398_" class="st5" points="662.2,806.9 654.6,863.2 702.4,832.6 						"/>
					</g>
					<g id="XMLID_392_">
						<polygon id="XMLID_394_" class="st5" points="841,842.3 880.3,883.1 886.1,826.7 						"/>
					</g>
					<g id="XMLID_387_">
						<polygon id="XMLID_388_" class="st6" points="702.5,832.5 708.8,888.9 747.8,847.7 						"/>
					</g>
					<g id="XMLID_381_">
						<polygon id="XMLID_382_" class="st6" points="886.3,826.6 930.3,862.4 929.2,805.7 						"/>
					</g>
					<g id="XMLID_368_">
						<polygon id="XMLID_377_" class="st7" points="747.1,847.2 767.2,900.3 794.8,850.7 						"/>
					</g>
					<g id="XMLID_363_">
						<polygon id="XMLID_364_" class="st7" points="928.4,805.9 974.5,839 970,782.4 						"/>
					</g>
					<g id="XMLID_263_">
						<polygon id="XMLID_290_" class="st7" points="604.1,734.7 574,782.7 630.1,774.7 						"/>
					</g>
				</g>
				<path id="XMLID_33_" class="st8" d="M759.9,849.5c-8.7-1.1-17.2-2.7-25.5-5c-45.8-12.2-78.3-40-97.4-61.1
					c-20.7-22.9-30.8-43.2-30.9-43.4l1.3-0.6c0.1,0.2,10.1,20.4,30.7,43.1c19,21,51.2,48.6,96.7,60.7c67.6,18,145-2,230-59.5
					l0.8,1.2C890.7,835.5,821.6,857.2,759.9,849.5z"/>
			</g>
			<g id="XMLID_3_">
				<g id="XMLID_20_">
					<path id="XMLID_266_" class="st9" d="M20.5,120c0,0-15.2,232,92.3,264.6c0,0,114.4-1.4,208.8-62.9c0,0,55.9-41.6-41.7-211.9
						C280,109.8,148.7-55.5,20.5,120z"/>
					<g id="XMLID_695_">
						<g id="XMLID_696_">
							<g id="XMLID_697_">
								<g id="XMLID_773_">
									<g id="XMLID_788_">
										
											<ellipse id="XMLID_244_" transform="matrix(0.8591 -0.5118 0.5118 0.8591 -100.1032 45.4281)" class="st10" cx="32.5" cy="204.5" rx="27.8" ry="35.8"/>
										
											<ellipse id="XMLID_243_" transform="matrix(0.8591 -0.5118 0.5118 0.8591 -100.5579 49.583)" class="st11" cx="39.8" cy="207.4" rx="22.9" ry="29.6"/>
										<g id="XMLID_789_">
											<path id="XMLID_242_" class="st12" d="M31.3,180.4c0,0-0.5,0.9-1.3,2.6c-0.8,1.7-1.8,4.1-2.9,7.1c-0.5,1.5-1,3.1-1.4,4.8
												c-0.4,1.7-0.7,3.6-0.9,5.5c-0.2,1.9-0.2,3.9,0,5.8c0.2,2,0.7,3.9,1.5,5.7c0.8,1.8,1.8,3.5,3.1,4.9c0.3,0.4,0.7,0.7,1,1
												s0.7,0.7,1,1c0.8,0.6,1.4,1.3,2.3,1.8c1.6,1.1,3.2,2,4.7,2.8c1.6,0.7,3.1,1.4,4.6,1.9c1.5,0.6,2.8,1,4.1,1.4
												c1.2,0.4,2.3,0.7,3.2,0.9c1.8,0.5,2.8,0.8,2.8,0.8s-1.1-0.1-2.9-0.2c-0.5,0-1-0.1-1.5-0.1c-0.6-0.1-1.2-0.2-1.8-0.3
												c-1.3-0.2-2.8-0.4-4.3-0.8c-1.6-0.3-3.3-0.9-5-1.5c-0.9-0.3-1.7-0.8-2.6-1.2c-0.9-0.4-1.8-1-2.7-1.5
												c-0.9-0.5-1.7-1.2-2.6-1.8c-0.8-0.7-1.6-1.4-2.4-2.3c-1.5-1.7-2.8-3.6-3.7-5.7c-0.8-2.1-1.4-4.3-1.6-6.5
												s-0.1-4.4,0.2-6.4c0.3-2,0.8-4,1.4-5.7c0.6-1.8,1.3-3.4,2-4.9c1.4-2.9,2.8-5.2,3.9-6.7C30.5,181.2,31.3,180.4,31.3,180.4
												z"/>
											<path id="XMLID_241_" class="st12" d="M39.6,184.9c0,0-0.5-0.1-1.4-0.1c-0.9-0.1-2.2-0.1-3.7-0.1c-0.8,0-1.6,0-2.4,0.1
												c-0.9,0-1.7,0.2-2.6,0.4c-0.5,0.1-0.9,0.2-1.3,0.3c-0.4,0.1-0.9,0.2-1.3,0.4c-0.4,0.2-0.9,0.3-1.3,0.5s-0.8,0.5-1.2,0.7
												c-0.9,0.4-1.5,1.1-2.3,1.6c-0.7,0.6-1.3,1.3-1.9,2c-0.5,0.7-1,1.5-1.5,2.1c-0.5,0.7-0.8,1.5-1.2,2.1
												c-0.4,0.7-0.7,1.3-0.9,1.9c-0.2,0.6-0.5,1.1-0.7,1.5c-0.4,0.8-0.6,1.3-0.6,1.3s0-0.5,0.1-1.5c0-0.5,0.1-1,0.2-1.7
												c0-0.3,0.1-0.7,0.1-1c0.1-0.4,0.2-0.7,0.3-1.1c0.2-0.8,0.4-1.7,0.8-2.5s0.9-1.8,1.4-2.7c0.7-0.8,1.3-1.8,2.1-2.5
												c0.9-0.7,1.7-1.5,2.7-2c0.5-0.3,1-0.6,1.5-0.8c0.5-0.2,1.1-0.4,1.6-0.6s1.1-0.3,1.6-0.4s1.1-0.2,1.6-0.2c1-0.1,2-0.1,3,0
												c0.9,0,1.8,0.2,2.6,0.4c1.6,0.4,2.8,0.8,3.7,1.2C39.2,184.6,39.6,184.9,39.6,184.9z"/>
										</g>
									</g>
									<g id="XMLID_774_">
										
											<ellipse id="XMLID_240_" transform="matrix(0.998 -6.308698e-02 6.308698e-02 0.998 -7.3284 18.449)" class="st10" cx="288.5" cy="125.3" rx="27.8" ry="35.8"/>
										
											<ellipse id="XMLID_239_" transform="matrix(0.998 -6.307915e-02 6.307915e-02 0.998 -7.7457 18.1805)" class="st11" cx="284.1" cy="131.8" rx="22.9" ry="29.6"/>
										<g id="XMLID_775_">
											<path id="XMLID_238_" class="st12" d="M275.9,104.6c0,0,1,0.3,2.8,0.9c1.8,0.7,4.2,1.7,7,3.3c1.4,0.8,2.9,1.8,4.4,2.9
												c1.5,1.1,3,2.4,4.4,3.9s2.7,3.2,3.8,5.1c1.1,1.9,1.9,4.1,2.4,6.3c0.4,2.2,0.5,4.5,0.2,6.8c-0.2,1.1-0.4,2.2-0.7,3.2
												c-0.4,1-0.6,2.1-1.1,3s-0.8,1.9-1.4,2.7c-0.5,0.8-1,1.7-1.5,2.5c-1.1,1.5-2.1,2.9-3.3,4.1c-1,1.2-2.1,2.2-3.1,3.1
												c-0.5,0.4-0.9,0.9-1.3,1.2c-0.4,0.4-0.8,0.7-1.2,1c-1.5,1.2-2.3,1.8-2.3,1.8s0.7-0.8,1.9-2.2c0.6-0.7,1.3-1.5,2.1-2.6
												c0.8-1,1.7-2.1,2.6-3.4c0.9-1.2,1.8-2.7,2.7-4.2c0.8-1.6,1.7-3.2,2.3-5c0.4-0.9,0.6-1.8,0.9-2.7c0.1-0.5,0.2-0.9,0.3-1.4
												s0.2-0.9,0.2-1.4c0.2-1.9,0.1-3.9-0.2-5.8c-0.4-1.9-1-3.8-2-5.5s-2-3.4-3.3-4.8c-1.2-1.4-2.5-2.8-3.9-4
												c-1.3-1.2-2.6-2.2-3.9-3.2c-2.5-1.9-4.7-3.3-6.3-4.2C276.8,105.1,275.9,104.6,275.9,104.6z"/>
											<path id="XMLID_237_" class="st12" d="M271.5,113.1c0,0,0.2-0.5,0.7-1.3s1.2-1.9,2.3-3.1c0.6-0.6,1.2-1.2,1.9-1.8
												s1.6-1.2,2.5-1.7c0.4-0.3,1-0.5,1.4-0.7c0.5-0.2,1-0.5,1.5-0.6s1.1-0.3,1.6-0.4c0.6-0.1,1.1-0.1,1.7-0.2
												c1.1-0.2,2.3,0,3.4,0.1c1.1,0.2,2.1,0.6,3.1,0.9c1,0.4,1.8,0.9,2.7,1.4c0.8,0.5,1.5,1.1,2.1,1.6c0.3,0.3,0.6,0.5,0.9,0.7
												c0.3,0.3,0.5,0.5,0.7,0.8c0.4,0.5,0.8,0.9,1.1,1.3c0.6,0.7,0.9,1.2,0.9,1.2s-0.5-0.3-1.3-0.7c-0.4-0.2-0.9-0.5-1.4-0.9
												s-1.1-0.7-1.8-1s-1.4-0.7-2.2-1.1c-0.8-0.3-1.6-0.6-2.5-0.9c-0.9-0.2-1.8-0.4-2.7-0.5c-0.9,0-1.9-0.2-2.8,0
												c-0.5,0-0.9,0-1.4,0.1s-0.9,0.2-1.4,0.3s-0.9,0.3-1.3,0.4c-0.4,0.2-0.9,0.3-1.3,0.5c-0.8,0.4-1.7,0.7-2.4,1.2
												c-0.8,0.4-1.4,0.9-2.1,1.3c-1.2,0.9-2.3,1.6-3,2.2C271.9,112.7,271.5,113.1,271.5,113.1z"/>
										</g>
									</g>
								</g>
								<g id="XMLID_698_">
									<g id="XMLID_760_">
										<circle id="XMLID_236_" class="st13" cx="156.6" cy="150.9" r="130"/>
										<path id="XMLID_235_" class="st11" d="M275.2,96.3c0,0-118.8,77.8-244.5,78.9C30.7,175.2,166.5,71.1,275.2,96.3z"/>
										<path id="XMLID_234_" class="st14" d="M274.1,206.5c-15,31.7-42.8,57.3-79,68.5c-68.6,21.2-141.4-17.2-162.6-85.7
											c-11.2-36.2-5.8-73.5,11.9-103.9c-13.5,28.4-16.8,61.7-6.7,94.1c21.2,68.6,94,107,162.6,85.7
											C232.6,255.2,258.2,233.7,274.1,206.5z"/>
										<path id="XMLID_233_" class="st15" d="M182.7,135.5C52.4,173.2,25.4,169.7,25.4,169.7c-11.1-36-5.7-70.7,10.4-98.9
											c0-0.1,0-0.1,0.1-0.1c1.8-3.1,3.6-6,5.6-8.9c10.4-15.1,24.1-27.9,39.9-37.5l0,0c9.1-5.6,19-10,29.4-13.2
											c11.1-3.4,22.6-5,34-5c18.7,0,37.3,4.3,54.4,11.7c1.9,0.8,3.6,2,5.5,2.5C266.1,37.9,182.7,135.4,182.7,135.5z"/>
									</g>
									<g id="XMLID_728_">
										<path id="XMLID_224_" class="st11" d="M186.9,199.9c1.1,3.6-5.1,4.6-12.4,6.9c-7.3,2.3-13,4.9-14.1,1.4
											c-1.1-3.6,2.8-12,10.1-14.3C177.8,191.6,185.8,196.3,186.9,199.9z"/>
										<path id="XMLID_223_" class="st12" d="M159,207.2c0,0,0-0.6,0.2-1.7c0.2-1,0.5-2.5,1.2-4.3c0.7-1.7,1.7-3.7,3.1-5.6
											c0.8-0.9,1.6-1.8,2.7-2.6c1-0.8,2.2-1.4,3.5-1.9c1.3-0.4,2.6-0.7,4-0.6c0.7,0,1.3,0.1,1.9,0.2c0.6,0.1,1.2,0.3,1.8,0.4
											c0.6,0.2,1.1,0.4,1.7,0.6c0.5,0.3,1,0.5,1.5,0.7c0.9,0.5,1.8,1.1,2.5,1.7c0.8,0.5,1.4,1.1,1.9,1.6c0.6,0.5,1,1,1.3,1.4
											c0.7,0.8,1.1,1.3,1.1,1.3s-0.5-0.3-1.5-0.8c-0.4-0.3-1-0.6-1.6-0.9s-1.3-0.7-2.1-1.1s-1.7-0.7-2.6-1.1
											c-0.9-0.3-1.9-0.6-2.9-0.8c-0.5-0.1-1-0.1-1.5-0.2c-0.5,0-1-0.1-1.5,0c-1,0-2,0.3-3,0.6c-1,0.4-1.9,0.8-2.8,1.4
											c-0.8,0.6-1.7,1.3-2.4,2.1c-0.7,0.8-1.4,1.5-2,2.3s-1.1,1.6-1.6,2.3c-0.9,1.5-1.7,2.8-2.2,3.7
											C159.3,206.7,159,207.2,159,207.2z"/>
									</g>
									<g id="XMLID_702_">
										<g id="XMLID_721_">
											<g id="XMLID_457_">
												<g id="XMLID_462_">
													<path id="XMLID_463_" class="st15" d="M125.2,165.5c0,0-27.2-12.7-41.7,12.9C83.5,178.4,99.2,161.6,125.2,165.5z"/>
												</g>
												<g id="XMLID_460_">
													<path id="XMLID_461_" class="st15" d="M191.8,144.8c0,0,15.3-25.9,41.7-12.9C233.5,131.9,211.1,126.9,191.8,144.8z"/>
												</g>
											</g>
										</g>
										<g id="XMLID_705_">
											<g id="XMLID_494_">
												<g id="XMLID_495_">
													<g id="XMLID_496_">
														<g id="XMLID_499_">
															
																<ellipse id="XMLID_500_" transform="matrix(0.9553 -0.2957 0.2957 0.9553 -60.0343 39.4975)" class="st16" cx="100.6" cy="218.2" rx="21.9" ry="10.9"/>
														</g>
														<g id="XMLID_497_">
															
																<ellipse id="XMLID_498_" transform="matrix(0.9553 -0.2957 0.2957 0.9553 -40.7871 79.3258)" class="st16" cx="241.9" cy="174.5" rx="21.9" ry="10.9"/>
														</g>
													</g>
												</g>
											</g>
										</g>
										<path id="XMLID_217_" class="st17" d="M118.7,177.8c0.4,1.4,0.6,2.8,0.5,4.1c-3-3.9-8.2-5.7-13.1-4.2s-8.2,6-8.4,10.9
											c-0.8-1.1-1.5-2.3-1.9-3.7c-2-6.3,1.6-13.1,7.9-15C110,168,116.8,171.5,118.7,177.8z"/>
										<path id="XMLID_78_" class="st17" d="M227.6,144.1c0.4,1.4,0.6,2.8,0.5,4.1c-3-3.9-8.2-5.7-13.1-4.2
											c-5,1.5-8.2,6-8.4,10.9c-0.8-1.1-1.5-2.3-1.9-3.7c-2-6.3,1.6-13.1,7.9-15C218.9,134.3,225.6,137.8,227.6,144.1z"/>
									</g>
									<path id="XMLID_214_" class="st18" d="M154.4,242.7c0,0,1,0.1,2.9,0.4c1.8,0.2,4.4,0.5,7.3,0.6c3,0.2,6.4,0.2,10,0
										c0.9-0.1,1.8-0.2,2.7-0.2c0.9-0.1,1.8-0.2,2.7-0.4c1.8-0.3,3.7-0.7,5.4-1.2c1.8-0.5,3.5-1.1,5.2-1.8
										c0.8-0.4,1.7-0.7,2.5-1.1s1.6-0.8,2.4-1.3c0.8-0.4,1.5-0.9,2.2-1.3c0.4-0.2,0.7-0.5,1.1-0.7c0.3-0.2,0.7-0.5,1-0.7
										c1.4-0.9,2.6-2,3.8-2.9c1.1-1,2.2-1.8,3.1-2.7c0.9-0.9,1.8-1.5,2.4-2.2c1.3-1.3,2.1-2,2.1-2s-0.3,1-0.9,2.8
										c-0.3,0.9-0.8,1.9-1.3,3.1s-1.3,2.4-2.2,3.8c-0.9,1.3-2,2.8-3.3,4.1c-0.6,0.7-1.3,1.4-2.1,2.1c-0.7,0.7-1.5,1.4-2.3,2
										c-0.4,0.3-0.8,0.6-1.3,1c-0.4,0.3-0.9,0.6-1.4,0.9s-0.9,0.6-1.4,0.9s-1,0.5-1.5,0.8c-2,1-4.1,1.8-6.2,2.4
										c-2.2,0.5-4.4,1-6.5,1.2c-2.2,0.2-4.3,0.2-6.4,0.1c-2.1-0.1-4-0.5-5.8-0.8c-1.8-0.4-3.5-0.9-5-1.5c-3-1.1-5.4-2.4-7-3.4
										C155.2,243.5,154.4,242.7,154.4,242.7z"/>
								</g>
							</g>
						</g>
					</g>
					<path id="XMLID_213_" class="st15" d="M36.7,205.9c0,0,9.2,166.2,76.1,178.7c0,0-22.8,10.7-51.8-17.1c0,0,8.5,26.8,34.9,26.9
						c0,0-70,23.2-90.6-126.5C-7.3,176.4,3.8,112.6,26.6,72.6c14.5-25.4,33.8-41.2,54.8-48.3l0,0L65.6,88.2L36.7,205.9z"/>
					<path id="XMLID_212_" class="st15" d="M321.6,321.7c47-51.6-39.7-182.8-39.7-182.8l-6.7-5.7l-86.3-88.1L143.8,6.7
						c0.3-0.1,0.7-0.2,1-0.3c18.6-5,39.7-3.8,62.1,5c43.9,17.3,92.8,64.3,137.3,153.2C411.9,299.9,321.6,321.7,321.6,321.7z"/>
				</g>
				<g id="XMLID_4_">
					<path id="XMLID_178_" class="st19" d="M335,150.9c0,0-67.1,188.1,61.4,217.9s204.2-19.5,186.4-171.6L335,150.9z"/>
					<g id="XMLID_31_">
						<g id="XMLID_105_">
							<g id="XMLID_107_">
								<g id="XMLID_151_">
									<g id="XMLID_277_">
										<circle id="XMLID_167_" class="st13" cx="453.4" cy="234.1" r="139.5"/>
										<path id="XMLID_166_" class="st11" d="M532.2,349.2c-31.1,21.3-70.7,30-110.3,20.8c-75.1-17.4-121.8-92.3-104.4-167.4
											c9.2-39.6,34.4-71.3,67.2-89.9c-27.9,19-48.9,48.2-57.1,83.6c-17.4,75.1,29.4,150,104.4,167.4
											C467.4,371.9,502.8,365.8,532.2,349.2z"/>
									</g>
									<g id="XMLID_270_">
										<path id="XMLID_165_" class="st11" d="M454.9,295.9c-0.9,3.9-7.2,1.5-15.2-0.4s-14.7-2.5-13.8-6.4s9.1-9.6,17.1-7.7
											C451,283.3,455.8,292,454.9,295.9z"/>
										<path id="XMLID_164_" class="st12" d="M425.1,287.6c0,0,0.4-0.5,1.1-1.4c0.7-0.9,1.9-2.1,3.4-3.3c1.5-1.2,3.5-2.5,5.9-3.5
											c1.2-0.5,2.5-0.8,3.9-1s2.8-0.1,4.3,0.1c1.4,0.3,2.8,0.8,4,1.5c0.6,0.3,1.2,0.8,1.7,1.2c0.5,0.5,1,0.9,1.4,1.4
											s0.9,1,1.2,1.5s0.7,1,1,1.5c0.6,1,1.1,2,1.4,2.9c0.4,0.9,0.7,1.8,0.9,2.5c0.3,0.8,0.4,1.4,0.5,2c0.2,1.1,0.3,1.8,0.3,1.8
											s-0.3-0.6-0.9-1.5c-0.3-0.5-0.6-1.1-1-1.7c-0.4-0.7-0.9-1.4-1.4-2.2c-0.5-0.8-1.1-1.6-1.8-2.4s-1.4-1.6-2.2-2.3
											c-0.4-0.4-0.9-0.7-1.3-1c-0.5-0.3-0.9-0.6-1.4-0.9c-1-0.5-2-0.9-3.1-1.1s-2.2-0.3-3.4-0.2c-1.1,0.1-2.3,0.3-3.3,0.6
											c-1.1,0.3-2.1,0.7-3.1,1.1s-1.9,0.8-2.7,1.3c-1.7,0.9-3,1.7-4,2.3C425.7,287.3,425.1,287.6,425.1,287.6z"/>
									</g>
									<g id="XMLID_152_">
										<g id="XMLID_191_">
											<g id="XMLID_474_">
												<g id="XMLID_478_">
													<path id="XMLID_479_" class="st20" d="M416.3,230.6c0,0-18.4-26.5-45.6-10.6C370.7,220.1,394.3,213,416.3,230.6z"/>
												</g>
												<g id="XMLID_476_">
													<path id="XMLID_477_" class="st20" d="M489.2,247.5c0,0,28.2-15.7,45.6,10.6C534.9,258.1,516.8,241.3,489.2,247.5z"/>
												</g>
											</g>
										</g>
										<g id="XMLID_159_">
											<g id="XMLID_168_">
												<g id="XMLID_469_">
													<g id="XMLID_472_">
														
															<ellipse id="XMLID_473_" transform="matrix(0.2255 -0.9742 0.9742 0.2255 24.4652 561.2878)" class="st16" cx="365.3" cy="265.3" rx="10.5" ry="23.6"/>
													</g>
													<g id="XMLID_470_">
														
															<ellipse id="XMLID_471_" transform="matrix(0.2255 -0.9742 0.9742 0.2255 109.4279 739.5707)" class="st16" cx="519.9" cy="301" rx="10.5" ry="23.6"/>
													</g>
												</g>
											</g>
										</g>
										<path id="XMLID_41_" class="st21" d="M403.6,238.6c-0.3,1.5-0.9,2.9-1.7,4.1c-0.6-5.2-4.5-9.7-9.9-11s-10.9,1.1-13.7,5.5
											c-0.2-1.4-0.1-2.9,0.2-4.4c1.6-6.9,8.5-11.3,15.5-9.7C400.9,224.8,405.3,231.7,403.6,238.6z"/>
										<path id="XMLID_46_" class="st21" d="M522.8,266.2c-0.3,1.5-0.9,2.9-1.7,4.1c-0.6-5.2-4.5-9.7-9.9-11s-10.9,1.1-13.7,5.5
											c-0.2-1.4-0.1-2.9,0.2-4.4c1.6-6.9,8.5-11.3,15.5-9.7C520.1,252.4,524.4,259.3,522.8,266.2z"/>
									</g>
								</g>
							</g>
						</g>
						<path id="XMLID_28_" class="st18" d="M411.3,311.1L411.3,311.1c-3.1,13.2,5.1,26.3,18.3,29.3l0,0c13.1,3,26.2-5.1,29.3-18.3
							l0,0L411.3,311.1z"/>
					</g>
					<path id="XMLID_154_" class="st20" d="M505.7,153.7c0,0-28,67.8-116.6,56.8c0,0,43.1-6.8,47.9-19.9c0,0-87.1,3.4-97.4,39.2
						c0,0-5.8-12.1-0.9-19.4c0,0-46.8,53,3.3,114.3c0,0-34.4-35.3-38.3-70.8c-4.1-37.4,21.6-138,111.5-156.1
						c90-18.1,138,37.3,138,37.3S514.6,126.8,505.7,153.7z"/>
					<path id="XMLID_153_" class="st20" d="M553.2,135c0,0-56-14.8-58.4,36.3c0,0,18.1,36.9-30.3,53.7c0,0,100.6,15.9,93.9-6.3
						c0,0,34.3,106.8-27.8,137.5c0,0,75.7-14.4,67.4-111.3C591.4,207.8,588.5,154.8,553.2,135z"/>
				</g>
				<g id="XMLID_5_">
					<g id="XMLID_7_">
						<g id="XMLID_282_">
							<g id="XMLID_297_">
								
									<ellipse id="XMLID_130_" transform="matrix(0.972 -0.2349 0.2349 0.972 -106.9856 95.9994)" class="st10" cx="349.5" cy="497.1" rx="30.3" ry="39"/>
								
									<ellipse id="XMLID_129_" transform="matrix(0.972 -0.2349 0.2349 0.972 -108.0649 97.7274)" class="st11" cx="356.2" cy="502.5" rx="25" ry="32.3"/>
								<g id="XMLID_298_">
									<path id="XMLID_128_" class="st12" d="M356,471.5c0,0-0.8,0.8-2.2,2.3s-3.2,3.7-5.3,6.4c-1,1.4-2,2.9-3,4.6
										c-1,1.7-1.9,3.5-2.8,5.4c-0.9,1.9-1.4,4-1.9,6.1c-0.4,2.1-0.5,4.3-0.3,6.4c0.2,2.1,0.8,4.2,1.6,6.2
										c0.2,0.5,0.5,0.9,0.7,1.4c0.3,0.5,0.5,1,0.7,1.4c0.6,0.9,1.1,1.8,1.8,2.6c1.3,1.6,2.7,3.1,4.1,4.4c1.5,1.3,2.8,2.5,4.2,3.5
										c1.3,1.1,2.6,1.9,3.8,2.7c1.1,0.8,2.2,1.5,3.1,2c1.7,1.1,2.7,1.7,2.7,1.7s-1.1-0.4-3-1.2c-0.5-0.2-1-0.4-1.6-0.6
										c-0.6-0.2-1.1-0.6-1.8-0.9c-0.6-0.3-1.3-0.7-2-1c-0.7-0.4-1.4-0.8-2.2-1.3c-0.7-0.5-1.6-0.9-2.3-1.5
										c-0.8-0.6-1.6-1.2-2.4-1.8c-0.8-0.6-1.6-1.4-2.4-2.1c-0.8-0.7-1.5-1.6-2.3-2.4c-0.8-0.8-1.4-1.8-2.1-2.7
										c-0.6-1-1.2-2-1.8-3.1c-1-2.2-1.7-4.6-2-7.1c-0.2-2.5-0.1-5,0.4-7.3s1.3-4.6,2.3-6.6s2.1-3.9,3.3-5.5
										c1.2-1.7,2.4-3.1,3.6-4.4c2.4-2.6,4.6-4.5,6.2-5.8C355,472.1,356,471.5,356,471.5z"/>
									<path id="XMLID_127_" class="st12" d="M363.2,478.9c0,0-0.5-0.3-1.5-0.6c-0.9-0.4-2.3-0.9-3.8-1.4
										c-0.8-0.2-1.7-0.5-2.6-0.7c-0.9-0.2-1.9-0.3-2.9-0.5c-0.5-0.1-1,0-1.5-0.1c-0.5,0-1-0.1-1.5,0c-0.5,0-1,0.1-1.5,0.1
										c-0.5,0.1-1,0.2-1.5,0.3c-1,0.1-1.9,0.6-2.9,0.9c-0.9,0.4-1.8,1-2.7,1.4c-0.8,0.6-1.5,1.2-2.3,1.8
										c-0.7,0.6-1.3,1.3-1.9,1.8c-0.6,0.6-1.2,1.1-1.6,1.7c-0.4,0.5-0.8,1-1.2,1.4c-0.7,0.8-1.1,1.2-1.1,1.2s0.2-0.5,0.6-1.5
										c0.2-0.5,0.4-1,0.7-1.7c0.2-0.3,0.3-0.7,0.5-1s0.4-0.7,0.7-1.1c0.5-0.7,1-1.6,1.7-2.3s1.5-1.6,2.3-2.3c1-0.6,1.9-1.4,3-1.9
										s2.2-1.1,3.5-1.2c0.6-0.1,1.2-0.3,1.8-0.3s1.2,0,1.8-0.1s1.2,0,1.8,0.1s1.2,0.1,1.7,0.3c1.1,0.3,2.2,0.5,3.1,1
										c1,0.3,1.8,0.8,2.6,1.2c1.5,0.9,2.7,1.8,3.5,2.5C362.9,478.4,363.2,478.9,363.2,478.9z"/>
								</g>
							</g>
							<g id="XMLID_283_">
								
									<ellipse id="XMLID_126_" transform="matrix(0.2349 -0.972 0.972 0.2349 7.8601 1004.2371)" class="st10" cx="641.8" cy="497.1" rx="39" ry="30.3"/>
								
									<ellipse id="XMLID_125_" transform="matrix(0.2349 -0.972 0.972 0.2349 -2.3899 1001.7978)" class="st11" cx="635.2" cy="502.4" rx="32.3" ry="25"/>
								<g id="XMLID_284_">
									<path id="XMLID_124_" class="st12" d="M635.4,471.5c0,0,1,0.6,2.6,1.9c1.6,1.3,3.8,3.2,6.2,5.8c1.2,1.3,2.4,2.8,3.6,4.4
										c1.2,1.6,2.3,3.5,3.3,5.5s1.8,4.2,2.3,6.6c0.5,2.4,0.6,4.8,0.4,7.3c-0.3,2.5-1,4.9-2,7.1c-0.5,1.1-1.1,2.1-1.7,3.1
										c-0.7,0.9-1.3,1.9-2.1,2.7s-1.5,1.7-2.3,2.4s-1.6,1.4-2.4,2.1c-0.8,0.6-1.6,1.2-2.4,1.8c-0.8,0.6-1.6,1-2.3,1.5
										c-0.8,0.4-1.5,0.9-2.2,1.3c-0.7,0.4-1.4,0.7-2,1s-1.2,0.6-1.8,0.9c-0.6,0.2-1.1,0.4-1.6,0.6c-1.9,0.8-3,1.2-3,1.2
										s1-0.6,2.7-1.7c0.9-0.5,1.9-1.2,3.1-2c1.2-0.8,2.5-1.7,3.8-2.7c1.4-1,2.8-2.2,4.2-3.5c1.4-1.4,2.8-2.8,4.1-4.4
										c0.7-0.8,1.2-1.7,1.8-2.6c0.3-0.4,0.5-0.9,0.7-1.4s0.5-0.9,0.7-1.4c0.8-2,1.4-4,1.6-6.2c0.2-2.1,0.1-4.3-0.3-6.4
										c-0.5-2.1-1-4.2-1.9-6.1c-0.8-1.9-1.7-3.7-2.8-5.4c-1-1.7-2-3.2-3-4.6c-2-2.7-3.9-4.9-5.3-6.4
										C636.2,472.3,635.4,471.5,635.4,471.5z"/>
									<path id="XMLID_123_" class="st12" d="M628.1,478.9c0,0,0.4-0.5,1.1-1.1c0.8-0.7,1.9-1.6,3.5-2.5c0.8-0.4,1.6-0.9,2.6-1.2
										c0.9-0.4,2-0.7,3.1-1c0.6-0.1,1.1-0.2,1.7-0.3c0.6-0.1,1.2-0.2,1.8-0.1c0.6,0,1.2,0,1.8,0.1s1.2,0.2,1.8,0.3
										c1.2,0.2,2.4,0.8,3.5,1.2c1.1,0.5,2,1.3,3,1.9c0.9,0.8,1.6,1.6,2.3,2.3c0.7,0.8,1.2,1.6,1.7,2.3c0.2,0.4,0.5,0.7,0.7,1.1
										c0.2,0.3,0.3,0.7,0.5,1c0.3,0.6,0.5,1.2,0.7,1.7c0.4,0.9,0.6,1.5,0.6,1.5s-0.4-0.4-1.1-1.2c-0.3-0.4-0.7-0.8-1.2-1.4
										c-0.4-0.6-1-1.1-1.6-1.7c-0.6-0.6-1.2-1.2-1.9-1.8c-0.8-0.6-1.5-1.1-2.3-1.8c-0.9-0.5-1.7-1-2.7-1.4
										c-1-0.3-1.9-0.8-2.9-0.9c-0.5-0.1-1-0.3-1.5-0.3s-1-0.1-1.5-0.1c-0.5-0.1-1,0-1.5,0s-1,0-1.5,0.1c-1,0.2-2,0.2-2.9,0.5
										c-0.9,0.2-1.8,0.4-2.6,0.7c-1.6,0.5-2.9,1-3.8,1.4C628.6,478.6,628.1,478.9,628.1,478.9z"/>
								</g>
							</g>
						</g>
						<circle id="XMLID_122_" class="st22" cx="496.1" cy="481.2" r="141.8"/>
						<path id="XMLID_121_" class="st11" d="M600.6,577.1c-25.9,28.2-63.1,45.9-104.4,45.9c-78.3,0-141.8-63.5-141.8-141.8
							c0-41.3,17.7-78.5,45.9-104.4c-23.2,25.2-37.4,58.9-37.4,95.9c0,78.3,63.5,141.8,141.8,141.8
							C541.7,614.5,575.4,600.4,600.6,577.1z"/>
						<g id="XMLID_267_">
							<path id="XMLID_120_" class="st11" d="M511.9,542.1c0,4.1-6.8,3.1-15.1,3.1c-8.4,0-15.1,0.9-15.1-3.1
								c0-4.1,6.8-11.6,15.1-11.6S511.9,538,511.9,542.1z"/>
							<path id="XMLID_119_" class="st12" d="M480.5,540.7c0,0,0.2-0.6,0.8-1.7c0.5-1,1.4-2.5,2.7-4c1.2-1.6,2.9-3.3,5.1-4.8
								c1.1-0.7,2.3-1.4,3.6-1.9s2.8-0.8,4.2-0.9c1.5,0,2.9,0.2,4.3,0.6c0.7,0.2,1.3,0.5,2,0.8c0.6,0.3,1.2,0.7,1.7,1
								c0.5,0.4,1.1,0.7,1.5,1.2c0.5,0.4,0.9,0.8,1.3,1.2c0.8,0.9,1.5,1.7,2.1,2.5s1.1,1.6,1.5,2.3s0.7,1.3,1,1.9
								c0.5,1.1,0.7,1.7,0.7,1.7s-0.5-0.5-1.2-1.3c-0.4-0.4-0.8-0.9-1.4-1.5c-0.5-0.6-1.2-1.2-1.9-1.8c-0.7-0.7-1.5-1.3-2.3-2
								c-0.9-0.6-1.8-1.3-2.8-1.8c-0.5-0.3-1-0.5-1.5-0.7s-1.1-0.4-1.6-0.5c-1.1-0.3-2.2-0.4-3.4-0.4c-1.1,0.1-2.3,0.3-3.4,0.6
								c-1.1,0.4-2.2,0.8-3.2,1.4c-1,0.6-2,1.1-2.8,1.8c-0.9,0.6-1.7,1.3-2.4,1.9c-1.4,1.2-2.6,2.4-3.4,3.2
								C480.9,540.2,480.5,540.7,480.5,540.7z"/>
						</g>
						<g id="XMLID_155_">
							<g id="XMLID_211_">
								<path id="XMLID_135_" class="st17" d="M451.6,504.5c0,1.3-0.2,2.7-0.5,3.9c-1.7-6.5-7.6-11.2-14.6-11.2s-12.9,4.8-14.6,11.2
									c-0.3-1.3-0.5-2.6-0.5-3.9c0-8.4,6.8-15.1,15.1-15.1C444.8,489.4,451.6,496.1,451.6,504.5z"/>
								<path id="XMLID_131_" class="st17" d="M572.1,504.5c0,1.3-0.2,2.7-0.5,3.9c-1.7-6.5-7.6-11.2-14.6-11.2s-12.9,4.8-14.6,11.2
									c-0.3-1.3-0.5-2.6-0.5-3.9c0-8.4,6.8-15.1,15.1-15.1C565.3,489.4,572.1,496.1,572.1,504.5z"/>
							</g>
							<g id="XMLID_181_">
								<path id="XMLID_116_" class="st23" d="M458.7,486.3c0,0-22.2-34.1-47.6,0C411.1,486.3,432.8,473.8,458.7,486.3z"/>
								<path id="XMLID_115_" class="st23" d="M534.8,486.3c0,0,23.8-36.3,47.6,0C582.4,486.3,560.6,473.8,534.8,486.3z"/>
							</g>
							<g id="XMLID_157_">
								<g id="XMLID_169_">
									<ellipse id="XMLID_114_" class="st16" cx="416.1" cy="533.2" rx="23.9" ry="11.7"/>
									<ellipse id="XMLID_113_" class="st16" cx="577.4" cy="533.2" rx="23.9" ry="11.7"/>
								</g>
							</g>
						</g>
						<path id="XMLID_110_" class="st18" d="M464.2,564.3c0,0,31.9,53.9,65,0H464.2z"/>
						<path id="XMLID_109_" class="st23" d="M626,422.2c-0.9-1.6-1.7-3.3-2.5-4.9c-7.2-15.4-16.9-29.6-28.5-41.8
							c-25.5-27-60.4-44.4-98.9-44.4c-38.2,0-72.9,17.1-98.4,43.8c-26.8,27.9-43.4,66.3-43.4,106.4c0,1.2,0,2.4,0,3.6
							c85,10.8,149.6-30.1,179.9-54.7c-21.7,19.1-56.6,47.2-75.6,49c0,0,75.6-7.4,120.9-47.8c0,0,9.4,42.4,51.1,49.1
							c0,0-4.2-7.7,7.3-4.3C638,475.9,639.3,447.3,626,422.2z"/>
						<path id="XMLID_1_" class="st23" d="M534.8,458.5c0,0-12.8,14.6-18.1,14.2c0,0,36.7,5.2,73.4-18.6l-12.7-48.5L534.8,458.5z"/>
					</g>
				</g>
				<g id="XMLID_8_">
					<g id="XMLID_9_">
						<g id="XMLID_197_">
							<g id="XMLID_198_">
								<g id="XMLID_338_">
									<g id="XMLID_353_">
										
											<ellipse id="XMLID_69_" transform="matrix(0.8554 -0.5179 0.5179 0.8554 -236.4439 138.8896)" class="st10" cx="130.6" cy="493" rx="27.8" ry="35.8"/>
										
											<ellipse id="XMLID_63_" transform="matrix(0.8554 -0.5179 0.5179 0.8554 -236.8459 143.0766)" class="st11" cx="137.9" cy="495.8" rx="22.9" ry="29.6"/>
										<g id="XMLID_354_">
											<path id="XMLID_62_" class="st12" d="M129.1,468.8c0,0-0.5,0.9-1.3,2.6c-0.8,1.7-1.8,4.1-2.8,7.1c-0.5,1.5-1,3.1-1.4,4.8
												s-0.7,3.6-0.9,5.5c-0.2,1.9-0.1,3.9,0.1,5.8c0.2,2,0.8,3.9,1.5,5.7c0.8,1.8,1.9,3.5,3.1,4.9c0.3,0.4,0.7,0.7,1,1
												s0.7,0.7,1,1c0.8,0.6,1.5,1.3,2.3,1.8c1.6,1.1,3.2,2,4.8,2.8c1.6,0.7,3.2,1.4,4.6,1.9c1.5,0.6,2.8,1,4.1,1.3
												c1.2,0.4,2.3,0.7,3.2,0.9c1.8,0.5,2.8,0.7,2.8,0.7s-1.1,0-2.9-0.2c-0.5,0-1-0.1-1.5-0.1c-0.6-0.1-1.2-0.2-1.8-0.3
												c-1.3-0.2-2.8-0.4-4.3-0.8c-1.6-0.3-3.3-0.9-5-1.5c-0.9-0.3-1.7-0.8-2.7-1.1c-0.9-0.4-1.8-1-2.7-1.5
												c-0.9-0.5-1.7-1.2-2.6-1.8c-0.8-0.7-1.6-1.4-2.4-2.2c-1.5-1.7-2.8-3.6-3.7-5.6c-0.8-2.1-1.4-4.3-1.6-6.5
												s-0.1-4.4,0.2-6.4c0.3-2,0.8-4,1.4-5.7c0.6-1.8,1.2-3.4,1.9-4.9c1.4-2.9,2.8-5.2,3.9-6.7
												C128.4,469.6,129.1,468.8,129.1,468.8z"/>
											<path id="XMLID_61_" class="st12" d="M137.6,473.2c0,0-0.5-0.1-1.4-0.1c-0.9-0.1-2.2-0.1-3.7-0.1c-0.8,0-1.6,0-2.4,0.1
												c-0.9,0-1.7,0.3-2.6,0.4c-0.5,0.1-0.9,0.2-1.3,0.4c-0.4,0.1-0.9,0.2-1.3,0.4s-0.9,0.4-1.3,0.5c-0.4,0.2-0.8,0.5-1.2,0.7
												c-0.9,0.4-1.5,1.1-2.3,1.6c-0.7,0.6-1.3,1.3-1.9,2c-0.5,0.7-1,1.5-1.5,2.2s-0.8,1.5-1.2,2.1c-0.4,0.7-0.7,1.3-0.9,1.9
												c-0.2,0.6-0.5,1.1-0.7,1.5c-0.4,0.8-0.6,1.3-0.6,1.3s0-0.5,0.1-1.5c0-0.5,0.1-1,0.1-1.7c0-0.3,0.1-0.7,0.1-1
												c0.1-0.4,0.2-0.7,0.3-1.1c0.2-0.8,0.4-1.7,0.8-2.5s0.8-1.8,1.4-2.7c0.7-0.8,1.3-1.8,2.1-2.5c0.9-0.7,1.7-1.6,2.7-2.1
												c0.5-0.3,1-0.6,1.5-0.8s1.1-0.4,1.6-0.6c0.5-0.2,1.1-0.3,1.6-0.4c0.5-0.1,1.1-0.2,1.6-0.3c1-0.1,2-0.1,3,0
												c0.9,0,1.8,0.2,2.6,0.4c1.6,0.4,2.9,0.8,3.7,1.2C137.1,472.9,137.6,473.2,137.6,473.2z"/>
										</g>
									</g>
									<g id="XMLID_339_">
										
											<ellipse id="XMLID_57_" transform="matrix(0.9975 -7.016139e-02 7.016139e-02 0.9975 -27.9507 28.0973)" class="st10" cx="386" cy="411.9" rx="27.8" ry="35.8"/>
										
											<ellipse id="XMLID_56_" transform="matrix(0.9975 -7.016636e-02 7.016636e-02 0.9975 -28.4227 27.8117)" class="st11" cx="381.7" cy="418.5" rx="22.9" ry="29.6"/>
										<g id="XMLID_340_">
											<path id="XMLID_55_" class="st12" d="M373.2,391.3c0,0,1,0.3,2.8,0.9s4.2,1.7,7,3.3c1.4,0.8,2.9,1.7,4.4,2.9
												c1.5,1.1,3,2.4,4.4,3.9s2.8,3.2,3.9,5.1c1.1,1.9,1.9,4.1,2.4,6.3c0.4,2.2,0.5,4.5,0.2,6.7c-0.2,1.1-0.4,2.2-0.7,3.2
												c-0.4,1-0.6,2.1-1.1,3s-0.8,1.9-1.3,2.7c-0.5,0.8-1,1.7-1.5,2.5c-1.1,1.5-2.1,2.9-3.2,4.1c-1,1.2-2.1,2.3-3.1,3.2
												c-0.5,0.4-0.9,0.9-1.3,1.3c-0.4,0.4-0.8,0.7-1.2,1c-1.4,1.2-2.3,1.8-2.3,1.8s0.7-0.8,1.9-2.2c0.6-0.7,1.3-1.6,2.1-2.6
												s1.7-2.1,2.6-3.4c0.9-1.3,1.8-2.7,2.7-4.2c0.8-1.6,1.6-3.2,2.3-5c0.4-0.9,0.5-1.8,0.8-2.7c0.1-0.5,0.2-0.9,0.3-1.4
												s0.2-1,0.2-1.4c0.2-1.9,0.1-3.9-0.3-5.8c-0.4-1.9-1.1-3.8-2-5.5c-1-1.7-2-3.3-3.3-4.8c-1.3-1.4-2.5-2.8-3.9-3.9
												c-1.3-1.2-2.7-2.2-3.9-3.2c-2.5-1.8-4.8-3.2-6.4-4.2C374.2,391.8,373.2,391.3,373.2,391.3z"/>
											<path id="XMLID_49_" class="st12" d="M368.9,399.8c0,0,0.2-0.5,0.7-1.3s1.2-1.9,2.3-3.1c0.6-0.6,1.2-1.2,1.9-1.8
												c0.7-0.6,1.6-1.2,2.5-1.7c0.4-0.3,0.9-0.5,1.4-0.7s1-0.5,1.5-0.6s1.1-0.3,1.6-0.5c0.6-0.1,1.1-0.1,1.7-0.2
												c1.1-0.2,2.3,0,3.4,0.1c1.1,0.2,2.1,0.6,3.2,0.9c1,0.4,1.8,0.9,2.7,1.4c0.8,0.5,1.5,1.1,2.1,1.6c0.3,0.3,0.6,0.5,0.9,0.7
												c0.3,0.3,0.5,0.5,0.7,0.8c0.4,0.5,0.8,0.9,1.1,1.3c0.6,0.7,0.9,1.2,0.9,1.2s-0.5-0.3-1.3-0.7c-0.4-0.2-0.9-0.5-1.4-0.9
												s-1.1-0.7-1.8-1s-1.4-0.7-2.2-1.1c-0.8-0.3-1.6-0.6-2.5-0.9c-0.9-0.2-1.8-0.4-2.7-0.5c-0.9,0-1.9-0.2-2.8,0
												c-0.5,0.1-0.9,0.1-1.4,0.1c-0.5,0.1-0.9,0.2-1.4,0.3c-0.5,0.1-0.9,0.3-1.3,0.4c-0.4,0.2-0.9,0.3-1.3,0.5
												c-0.8,0.4-1.6,0.7-2.4,1.2c-0.8,0.4-1.4,0.9-2.1,1.3c-1.2,0.9-2.3,1.7-3,2.2C369.3,399.5,368.9,399.8,368.9,399.8z"/>
										</g>
									</g>
								</g>
								<circle id="XMLID_43_" class="st10" cx="254.3" cy="438.4" r="130"/>
								<path id="XMLID_37_" class="st11" d="M372.1,493.3c-14.8,31.8-42.4,57.6-78.5,69.1c-68.4,21.7-141.5-16.1-163.2-84.6
									c-11.5-36.1-6.3-73.5,11.1-104c-13.3,28.5-16.3,61.8-6.1,94.2c21.7,68.4,94.8,106.3,163.2,84.6
									C331,542.2,356.5,520.5,372.1,493.3z"/>
								<g id="XMLID_325_">
									<path id="XMLID_36_" class="st11" d="M284.9,487.2c1.1,3.6-5.1,4.6-12.4,6.9c-7.3,2.3-13,5-14.1,1.5
										c-1.1-3.6,2.7-12,10-14.3C275.8,479,283.8,483.7,284.9,487.2z"/>
									<path id="XMLID_35_" class="st12" d="M257.1,494.8c0,0,0-0.6,0.2-1.7c0.2-1.1,0.5-2.5,1.2-4.3c0.6-1.7,1.6-3.7,3.1-5.6
										c0.7-0.9,1.6-1.9,2.6-2.7s2.2-1.4,3.5-1.9c1.3-0.4,2.6-0.7,4-0.7c0.7,0,1.3,0.1,1.9,0.1c0.6,0.1,1.2,0.2,1.8,0.4
										s1.2,0.3,1.7,0.6c0.5,0.2,1,0.5,1.5,0.7c0.9,0.5,1.8,1.1,2.5,1.6c0.8,0.5,1.4,1.1,1.9,1.6c0.6,0.5,1,1,1.4,1.4
										c0.7,0.8,1.1,1.3,1.1,1.3s-0.5-0.3-1.5-0.8c-0.4-0.3-1-0.6-1.6-0.9c-0.6-0.3-1.3-0.7-2.1-1.1c-0.8-0.4-1.7-0.7-2.6-1.1
										c-0.9-0.3-1.9-0.6-2.9-0.8c-0.5-0.1-1-0.1-1.5-0.2c-0.5,0-1-0.1-1.5,0c-1,0-2,0.3-3,0.6c-1,0.4-1.9,0.8-2.8,1.5
										c-0.8,0.6-1.7,1.3-2.4,2.1s-1.4,1.5-2,2.3s-1.1,1.6-1.6,2.3c-0.9,1.5-1.6,2.8-2.1,3.7C257.4,494.2,257.1,494.8,257.1,494.8
										z"/>
								</g>
								<g id="XMLID_255_">
									<g id="XMLID_300_">
										<path id="XMLID_171_" class="st21" d="M221.8,471.1c0.4,1.2,0.6,2.4,0.6,3.5c-3.3-5.2-9.8-7.7-15.9-5.8
											c-6.1,1.9-10,7.8-9.7,13.9c-0.6-1-1.1-2.1-1.5-3.3c-2.3-7.3,1.7-15.1,9-17.4C211.7,459.8,219.5,463.8,221.8,471.1z"/>
										<path id="XMLID_156_" class="st21" d="M327.1,437.7c0.4,1.2,0.6,2.4,0.6,3.5c-3.3-5.2-9.8-7.7-15.9-5.8
											c-6.1,1.9-10,7.8-9.6,13.9c-0.6-1-1.1-2.1-1.5-3.3c-2.3-7.3,1.7-15.1,9-17.4C317,426.3,324.8,430.4,327.1,437.7z"/>
									</g>
									<g id="XMLID_271_">
										<path id="XMLID_23_" class="st24" d="M222.9,453.2c0,0-28.9-23.6-41.6,13.2C181.4,466.4,196.9,449.5,222.9,453.2z"/>
										<path id="XMLID_22_" class="st24" d="M289.4,432.1c0,0,10.7-38.3,41.6-13.2C331,418.9,308.6,414.1,289.4,432.1z"/>
									</g>
									<g id="XMLID_256_">
										<g id="XMLID_257_">
											
												<ellipse id="XMLID_19_" transform="matrix(0.9531 -0.3025 0.3025 0.9531 -144.3912 84.1201)" class="st16" cx="199.4" cy="508.2" rx="21.9" ry="12.9"/>
											
												<ellipse id="XMLID_18_" transform="matrix(0.9531 -0.3025 0.3025 0.9531 -124.2394 124.6359)" class="st16" cx="340.2" cy="463.4" rx="21.9" ry="12.9"/>
										</g>
									</g>
								</g>
								<path id="XMLID_6_" class="st18" d="M250.4,522.9c0,0,1,0.1,2.9,0.3c1.8,0.2,4.4,0.4,7.4,0.6c3,0.2,6.4,0.2,10-0.1
									c0.9-0.1,1.8-0.2,2.7-0.3s1.8-0.2,2.7-0.4c1.8-0.3,3.6-0.7,5.4-1.2c1.8-0.5,3.5-1.1,5.2-1.9c0.8-0.4,1.7-0.7,2.5-1.2
									c0.8-0.4,1.6-0.8,2.4-1.3c0.8-0.4,1.5-0.9,2.2-1.4c0.4-0.2,0.7-0.5,1.1-0.7c0.3-0.3,0.7-0.5,1-0.7c1.4-0.9,2.6-2,3.8-2.9
									c1.1-1,2.2-1.8,3.1-2.7c0.9-0.9,1.8-1.6,2.4-2.2c1.3-1.3,2.1-2,2.1-2s-0.3,1-0.9,2.8c-0.3,0.9-0.8,1.9-1.3,3.1
									c-0.5,1.2-1.3,2.4-2.2,3.8c-0.9,1.3-1.9,2.8-3.2,4.2c-0.6,0.7-1.3,1.4-2,2.1c-0.7,0.7-1.5,1.4-2.3,2c-0.4,0.3-0.8,0.6-1.3,1
									c-0.4,0.3-0.9,0.6-1.3,0.9c-0.5,0.3-0.9,0.6-1.4,0.9c-0.5,0.3-1,0.5-1.5,0.8c-2,1-4.1,1.8-6.2,2.5c-2.2,0.6-4.4,1.1-6.5,1.2
									c-2.2,0.2-4.3,0.2-6.4,0.1c-2.1-0.1-4-0.4-5.8-0.8c-1.8-0.4-3.5-0.9-5-1.4c-3-1.1-5.4-2.3-7-3.3
									C251.2,523.7,250.4,522.9,250.4,522.9z"/>
							</g>
						</g>
						<g id="XMLID_10_">
							<g id="XMLID_430_">
								<g id="XMLID_431_">
									<path id="XMLID_432_" class="st24" d="M391.9,382.8c1.3,7.2-2,14.6-8.3,18.5c-2.6,1.6-5.4,2.5-8.1,2.7
										c-8.2,0.7-16.2-4.4-18.8-12.6c-0.4-1.1-0.6-2.3-0.7-3.4c-5.3,0.3-10.5-1.8-14.1-5.6c-6.9,1.2-13.7-1.6-17.7-7
										c-1.9,1.7-4.1,3-6.6,3.8c-4.3,1.4-8.8,1-12.6-0.6c-1.7,1.3-3.5,2.3-5.7,3c-4.3,1.4-1.4-5.2-5.2-6.9
										c-2.2,2.8-5.9,7.9-9.5,9.1c-3,0.9-7.4,1.1-10.3,0.5c-1.5-0.3-6.6-7.5-7.9-8.2c-1.8,5.4-12.9,2.5-18.7,4.4
										c-5.7,1.8-15.1-7.3-19.6-10.5c-2,4.6-2.1,26.8-7.2,28.5c-4.6,1.5-17,11.5-21.1,9.5c-1.4,5,7.5,5.3,2.5,7.7
										c-14.7,7.2-18.3,1.8-21.5-1.7c-1.5,5.9-0.6,11.9-6.8,13.9c-3.2,1-11.1,3.3-14.1,2.5c0.3,8-0.1,13.3-8,15.8
										c-0.1,0-0.2,0.1-0.3,0.1c0.8,5.9-1.4,11.8-5.6,15.7c0.5,0.9,0.9,1.8,1.2,2.8c3.1,9.7-2.5,20.1-12.4,22.9
										c-9.1,2.6-18.9-2.6-22-11.5c-1.1-3-1.3-6.2-0.7-9.1c-6.6-1-12.4-5.6-14.5-12.4c-2-6.3-0.3-13,3.8-17.6c0-2.8,0.7-5.6,2-8
										c-4.1-2.1-7.4-5.8-8.9-10.6c-2.3-7.4,0.3-15.1,6-19.6c-3.1-3.5-4.9-8.3-4.4-14.1c0.7-7.1,5.8-13,12.6-15.1h0.1
										c-0.3-0.7-0.6-1.3-0.8-2c-0.7-2.3-1-4.7-0.8-7c0.5-5.5,3.5-10.6,8.2-13.7c-1-3.5-0.9-7,0.1-10.2c1.5-5,5.2-9.2,10.2-11.4
										c-1.2-8.6,3.9-17.1,12.5-19.8c0.6-0.2,1.3-0.4,1.9-0.5c1-6.5,5.7-12.3,12.4-14.4c1.3-0.4,2.7-0.7,4.1-0.8
										c1.3-6.2,5.8-11.6,12.3-13.6c2.9-0.9,6-1.1,8.8-0.5c1.4-6,5.8-11.1,12.1-13.1c3.1-1,6.4-1.1,9.4-0.4
										c2.1-2.3,4.7-4.1,7.9-5.1c3.4-1.1,6.9-1.1,10.2-0.2c1.7-2,3.9-3.8,6.5-4.9c6.7-3,14.3-1.6,19.4,3c1.6-1.7,3.6-3.1,5.8-4.1
										c8-3.6,17.2-0.9,22.2,6c1-0.7,2-1.3,3.2-1.8c9.1-4.1,19.9,0,23.9,9.1c0.4,0.9,0.7,1.9,1,2.9c5-2.2,10.4-1.9,14.9,0.2
										c3.8,1.8,7,4.9,8.8,9c0.2,0.3,0.3,0.7,0.4,1c4.7,1.1,9,4.1,11.5,8.4c0.7,1.2,1.3,2.4,1.7,3.8c0.2,0.6,0.3,1.1,0.4,1.7
										c8.3-0.6,16.6,3.9,20.2,12c1,2.2,1.5,4.4,1.7,6.6c6.3,1.2,11.9,5.8,13.9,12.3c1.7,5.2,0.8,10.6-1.8,14.9
										c7.1,0.6,13.4,5.4,15.7,12.6c2.3,7.4-0.3,15.1-6,19.6C386.2,371.3,390.7,376.2,391.9,382.8z"/>
								</g>
							</g>
						</g>
					</g>
				</g>
			</g>
			<g id="XMLID_16_" class="st1">
				<polygon id="XMLID_11_" class="st8" points="991.7,786.9 408.3,786.9 448.8,746.8 408.3,706.7 991.7,706.7 947.2,746.8 				"/>
				<g id="XMLID_407_" class="st3">
					<g id="XMLID_558_">
						<path id="XMLID_570_" class="st25" d="M694.2,657.4c1.4,0,4.3-0.1,5.4-0.5c1.3-0.5,1.7,0,0.5,0.8c-1.8,1.2-4.6,1.7-6.6,1.8
							c-1.2,4-6.5,18.2-3.5,21.5c0.9,1,2.3,1.1,3.8,0c3.5-2.6,6.3-7.9,8.5-12.3c0.7-1.5,1.8-1.2,1,0.5c-3.5,7.5-5.2,9.8-8.3,12.8
							c-2.4,2.3-5.3,3.1-7.7,1.8c-6.2-3.2,0.6-19.6,2.2-24.2c-3.1,0-16.8-0.6-23-0.9c-5.3,15.8-17.7,32-35.2,34.2
							c-15.5,2-30.7-6.9-26.3-23.9c1.2-4.4,6.1-8.6,8.3-8.6c1.4,0,0.8,0.7,0.1,1c-2.2,1-6.2,5.1-6.9,10.7
							c-1.9,14.8,14.6,18.4,24.1,16.3c19-4.3,27.9-18,32.4-29.8c-1.4,0-2.8,0.5-4.1,1.1c-0.7,0.3-2.9,1-1.8-0.7
							c0.6-1,2.4-2.4,4.2-2.6h2.6c3.4-8.5,8.5-19.1,9.9-22c-13.3,1.5-29.3,0.5-34.2,16.2c-2.3,7.4,2,13.6,8.9,11.1
							c5-1.8,6.9-10.8,6-12.1c-0.7-1.1,0.4-1.5,0.9-0.5c2.6,5.6-1.9,12.1-6.8,13.8c-8.1,3-15.8-4.5-13.6-13.4
							c4.3-17.2,26.5-15.4,39.8-16.7c0.5-0.8,3.1-4.8,5.2-5.4c2-0.5,3.9,0,3.9,1.9c0,3.2-5.3,5-8,5c-2.6,5-7.6,19.2-8.8,22.1
							c9.1,0,18.3,1.2,23,1.2c1-2.9,9.4-24.9,14.8-26.7c2.6-1,5.7-1.4,3.2-0.1C707,631.3,699.7,641.6,694.2,657.4z M677.3,632.5
							c5.8-0.9,4.4-3.3,3.6-3.3C680.2,628.9,678.2,631.3,677.3,632.5z"/>
						<path id="XMLID_568_" class="st25" d="M717,681.7c-2.2,0.1-5.4-1.6-3.4-8.8c-1.1,1.8-2.9,4.5-4.9,6.4
							c-7.8,7.5-13-4.4-2.7-16.7c4.1-4.8,11.9-7.3,15.7-3.1c1,1,0.4,2.2-0.7,2c-0.7-2.5-3.3-3.1-5.8-1.7c-3.1,1.7-6.6,5.7-9,9.7
							c-0.5,1-2.4,4.3-2.8,6.9c-0.7,4.8,3.1,4.2,6.2,0.4c2.4-2.9,4.3-6.2,6-9.5c1.5-2.9,2.4-4.5,4.6-4.3c0.9,0.1,1.9,0.5,2.9,0.3
							c-1.4,1.4-5.4,8.6-6.3,12.7c-0.5,2.8-0.2,4.1,0.7,4.1c2.9,0.1,7.3-8.5,8.8-11.4c0.6-1.2,1.6-0.8,1,0.5
							C725.2,673.2,721,681.4,717,681.7z"/>
						<path id="XMLID_565_" class="st25" d="M740.9,676.4c-3.7,4.5-9.7,6.8-14.5,3.9l-6.4,16.1c-1.4,2.9-2.3,3.7-4.5,3.5
							c-0.9-0.1-1.9-0.5-2.9-0.3c1.7-1.6,13.2-23.7,14.5-29.9c-0.7,1.2-2,1.6-1.6,0.6c0.3-0.7,1-2.2,1.4-3.1c1.3-3,2-8.1,0.4-8.5
							c0,0,2.8-0.5,3.3-0.5c2-0.2,2.6-0.5,2.4,2.8c-0.1,2.2-1,5.8-1.9,8.1c2-3.3,7.5-12.7,12.2-11.4
							C749.7,659.6,745.9,670.4,740.9,676.4z M736,663.9c-2.6,3.5-5.9,9.4-9.1,15.4c3.3,3.3,10.8-4.2,14.5-10.9
							C745.9,660.1,741.8,655.9,736,663.9z"/>
						<path id="XMLID_562_" class="st25" d="M763.7,676.4c-3.7,4.5-9.7,6.8-14.5,3.9l-6.4,16.1c-1.4,2.9-2.3,3.7-4.5,3.5
							c-0.9-0.1-1.9-0.5-2.9-0.3c1.7-1.6,13.2-23.7,14.5-29.9c-0.7,1.2-2,1.6-1.6,0.6c0.3-0.7,1-2.2,1.4-3.1c1.3-3,2-8.1,0.4-8.5
							c0,0,2.8-0.5,3.3-0.5c2-0.2,2.6-0.5,2.4,2.8c-0.1,2.2-1,5.8-1.9,8.1c2-3.3,7.5-12.7,12.2-11.4
							C772.5,659.6,768.7,670.4,763.7,676.4z M758.9,663.9c-2.6,3.5-5.9,9.4-9.1,15.4c3.3,3.3,10.8-4.2,14.5-10.9
							C768.7,660.1,764.6,655.9,758.9,663.9z"/>
						<path id="XMLID_559_" class="st25" d="M783.7,685c-4.3,7.7-11,18.1-21,18.1c-6.8,0-7.5-4.5-5.4-8.3c1.3-2.5,3.7-4.3,6.4-5.6
							c4.5-2.2,11-3.3,16.5-4.9c2.6-4.5,4.8-11.7,5.8-15.3c-2.3,4.1-6.7,12.5-11.9,12.5c-1.4,0-3.7-0.5-4.3-3.1
							c-0.6-2.9,1.1-5.4,2.3-7.9c-0.4,0-1-0.2-0.6-1.1l1.2-2.4c1.4-2.6,2.8-5.4,3.8-7.5c0.5-1.1,1.4-1.4,2.6-1.4h4.1
							c-0.6,0.5-1.7,1-2.5,2.4c-2.3,3.9-4.2,7.9-6.1,12c-3.3,7.1-0.4,9.8,4,4.7c3.8-4.4,8.1-12.4,10.7-17.7c0.5-1.1,1.4-1.4,2.6-1.4
							h3.7c-2.6,1.8-3.6,4.5-5.3,9s-3.5,10.2-5.4,15.5c3-0.9,7.1-2.9,9.8-6.7c2.1-3.1,3.6-6.2,4.3-7.5c0.6-1.2,1.6-0.7,1,0.6
							C795.2,678.6,793.5,681.4,783.7,685z M764.8,690.7c-6.9,3-9.5,11-3.7,11c6,0,13.2-8.4,16.3-12.7l1.5-2.5
							C774.5,687.6,768.6,689,764.8,690.7z"/>
					</g>
				</g>
				<g id="XMLID_26_" class="st3">
					<g id="XMLID_686_">
						<path id="XMLID_723_" class="st26" d="M464.3,752.1c0-15.8,7.8-24.2,22.3-24.2c5,0,13.5,1.6,13.5,1.6l0.4,1.2
							c0,0-1.9,5.6-3.3,13l-9.5,0.5c0,0,0.7-3.5,0.7-4.5c0-2.2-1.5-3.4-4-3.4c-4.4,0-6.1,4.3-6.1,15.3c0,6.1,1.2,8.4,4.1,8.4
							c3,0,4.1-1.5,5.2-7l9.4-0.6c0,0-1.6,7.1-2.2,12.9l-0.9,1c0,0-6.1,2.3-13.7,2.3C470,768.5,464.3,762.6,464.3,752.1z"/>
						<path id="XMLID_720_" class="st26" d="M536.5,759.7c0,1.9,0.5,2.7,1.9,2.7c0.9,0,1.6-0.2,1.6-0.2l0.4,0.7l-1.2,5
							c0,0-3.3-0.1-7.2-0.1h-3c-2.7,0-9.9,0.1-9.9,0.1l1.1-5.3c2.8-0.1,4-1.3,4.4-4.6l0.8-6.2c0,0-1.8-0.1-3.2-0.1
							c-1.2,0-6.5,0.5-6.5,0.5l-0.7,6.1c-0.1,0.9-0.2,1.7-0.2,2.2c0,1.5,0.4,1.9,1.5,1.9s1.6-0.2,1.6-0.2l0.4,0.6l-1.2,5.1
							c0,0-7.3-0.2-9.8-0.2c-3.6,0-9.8,0.3-9.8,0.3l1.1-5.2c3.2-0.7,3.9-1.6,4.4-5l2.6-21c0.3-2.5-0.1-3.1-1.7-3.1
							c-0.6,0-1.5,0.1-1.5,0.1L502,733l1-4.5h7.6c3.5,0,12-0.3,12-0.3l-1.1,5.5c-2.5,0.5-3.1,1-3.5,3.2l-1.2,7.3l4.7,0.2
							c2.7,0,3.8-0.1,4.8-0.2l0.9-7.2c0.3-2.4-0.1-3.1-1.7-3.1c-0.7,0-1.6,0.1-1.6,0.1l-0.4-0.8l1-4.5h11.3c3.3-0.1,8.9-0.3,8.9-0.3
							l-1,5.3c-2.9,0.5-3.5,1-3.9,3.3C538.9,741.8,536.5,757.5,536.5,759.7z"/>
						<path id="XMLID_718_" class="st26" d="M558.2,760.2c0,1.8,0.4,2.3,1.5,2.3c1.2,0,1.9-0.2,1.9-0.2l0.4,0.6l-1.2,5.1
							c0,0-7.4-0.2-9.9-0.2c-3.8,0-9.9,0.3-9.9,0.3l1.1-5.2c3.3-0.7,4-1.6,4.4-5l2.6-21c0.3-2.5-0.1-3.1-1.7-3.1
							c-0.6,0-1.5,0.1-1.5,0.1l-0.5-0.8l1-4.5h9.6c2.5,0,10.3-0.3,10.3-0.3l-1.1,5.5c-2.7,0.4-3.2,0.9-3.7,3.2
							C560.6,742.6,558.2,757.9,558.2,760.2z"/>
						<path id="XMLID_716_" class="st26" d="M562.6,768.4l1.2-5.6c3-0.5,4-1.7,4.4-5.3l2.5-20.5c0.3-2.5-0.1-3.1-1.7-3.1
							c-0.6,0-1.5,0.1-1.5,0.1l-0.4-0.8l1-4.5h9.6c2.8,0,12.5-0.3,12.5-0.3l-1.4,5.9c-4.1,0.4-5.3,1-5.6,3.2
							c-1,5.5-3.2,19.1-3.2,21.5c0,1.4,0.5,1.9,1.8,1.9c4,0,5.3-1.8,6.7-9.9l7.9-0.8l0.6,0.9c0,0-1.8,7.8-3.4,16.2l-1,1
							c0,0-8.7-0.4-17.3-0.4C569.1,767.8,562.6,768.4,562.6,768.4z"/>
						<path id="XMLID_713_" class="st26" d="M604.4,767.8c-3.3,0-8.6,0.5-8.6,0.5l1.2-5.6c2.8-0.5,3.8-1.5,4.4-5l2.5-20.3
							c0.3-2.5,0.1-3.3-1-3.3c-0.8,0-1.9,0.1-1.9,0.1l-0.5-0.8l1.2-4.9c0,0,6.6,0.2,9,0.2c2.7,0,9.3-0.4,9.3-0.4
							c11,0,17.2,5.2,17.2,15.2c0,15.1-9.3,25.1-23.4,25.1C613.6,768.5,608.1,767.8,604.4,767.8z M616.1,737.6
							c-0.4,2.1-3.2,20.8-3.2,21.5c0,1.5,0.4,1.9,1.6,1.9c5.6,0,8.6-5.9,8.6-17.3c0-5.8-1.5-7.8-5.6-7.8
							C616.7,735.9,616.4,736.3,616.1,737.6z"/>
						<path id="XMLID_710_" class="st26" d="M653.6,754l-0.5,4.1c-0.4,3.8-0.1,4.2,3.6,4.4l0.2,0.5l-1.2,5.1c0,0-7.3-0.2-9.8-0.2
							c-4.4,0-10.4,0.5-10.4,0.5l1.2-5.6c2.9-0.5,4-1.7,4.4-5.2l2.6-21c0.2-2-0.1-2.7-1.2-2.7c-0.9,0-2.1,0.1-2.1,0.1l-0.5-0.7
							l1.2-4.8c0,0,6,0.1,8.4,0.1c2.9,0,10.5-0.4,10.5-0.4c10.1,0,15.8,3.3,15.8,9.9c0,5.3-2.8,9.7-8.5,12.9l2.7,6.3
							c1.5,3.5,3.3,5.3,5,5.3l0.5,1l-1.1,4.4l-9.4,0.7c-3.4,0-5-1.5-6.1-5.5l-2.4-9.3h-2.9V754z M659.1,747c2.8-1.1,4.2-3.4,4.2-6.9
							c0-2.9-1.9-4.2-5.9-4.2c-0.8,0-1,0.2-1.2,1.3c-1,5.6-1.3,7.1-1.6,9.2L659.1,747z"/>
						<path id="XMLID_707_" class="st26" d="M695.5,760.8c4.8,0,6-1,7.4-6.4l7.8-0.5l0.7,0.9c0,0-1.8,5.9-3.2,12.5l-1,1
							c0,0-9.6-0.4-18.8-0.4c-6.2,0-12.7,0.6-12.7,0.6l1.2-5.6c3-0.5,4-1.7,4.4-5.3l2.6-20.3c0.3-2.6,0.1-3.3-1.2-3.3
							c-0.6,0-1.5,0.1-1.5,0.1l-0.6-0.8l1.2-4.8c0,0,8.5,0.2,13.9,0.2c7.3,0,15-0.3,18.3-0.7l0.7,1c0,0-1.9,6.4-2.8,12.1l-8.5,0.5
							c0,0,0.5-1.9,0.5-3c0-2.1-1.2-2.6-5.2-2.6c-1.6,0-1.9,0.3-2.1,1.6l-1.2,6.8c1.2,0,3.2,0.1,4.8,0.1c1.8,0,6.5-0.4,6.5-0.4
							l0.6,0.8l-1.7,7c0,0-4.3-0.2-7-0.2c-1.7,0-3.3,0.2-4.4,0.4c-0.3,2.1-0.8,5.3-0.8,6.6C693.1,760.5,693.7,760.8,695.5,760.8z"/>
						<path id="XMLID_704_" class="st26" d="M742.4,747.6l1.1-11.1c0.2-2.1-0.2-2.6-1.6-2.6h-1.8l-0.2-0.7l0.9-4.9
							c0,0,6.6,0.2,9.9,0.2c3.3,0,8.3-0.1,8.3-0.2l-1,5.5c-2.5,0.4-3.5,1.3-3.8,3.8l-4.5,30.1l-11.6,0.7
							c-4.9-11.3-9.1-19.8-9.1-19.8h-0.9l-1.1,10.8c-0.2,2.3,0.2,3.1,1.9,3.1c0.7,0,1.9-0.2,1.9-0.2l0.5,0.5L730,768
							c0,0-6.7-0.2-9.2-0.2c-4.2,0-9.3,0.5-9.3,0.5l1.3-5.5c2.4-0.3,3.5-1.4,3.8-3.8l3.3-21.2c0.4-2.8-0.2-3.4-3.9-3.8l-0.6-0.8
							l0.9-4.9c0,0,4.4,0.3,8.8,0.3c3.3,0,7.8-0.2,7.8-0.2c3.9,9.8,8.5,19.3,8.5,19.3L742.4,747.6L742.4,747.6z"/>
						<path id="XMLID_701_" class="st26" d="M760.6,730.5c2.1-1.6,4.4-2.7,6.2-2.7c3.1,0,5.2,2.4,5.2,6.1c0,4.3-3.9,9.2-10.1,12.7
							l-3.5-2.8v-1.5c2.4-1.6,3.9-4.2,3.9-6.4c0-1.6-0.7-3.4-1.8-4.6L760.6,730.5z"/>
						<path id="XMLID_699_" class="st26" d="M771.4,765.9l-0.6-1.1c0,0,1.9-6,2.5-10l7.7-0.5c-0.4,3.8,1,6.2,4.3,6.2
							c2.4,0,3.9-1.1,3.9-2.7c0-2.1-2.8-3.3-6.1-4.8c-4.3-2.1-9.2-4.7-9.2-10.8c0-8.5,7.7-14.2,19.5-14.2c6.5,0,11.7,1.7,11.7,1.7
							l0.6,1.3c0,0-1.8,5.1-2.8,10.5l-7.2,0.5l-0.7-0.5c0,0,0.2-1.4,0.2-1.7c0-2.4-1.4-3.5-3.8-3.5c-2.2,0-3.8,1.3-3.8,3
							s1.8,2.8,4.1,3.9c4.5,2.2,11.3,4.5,11.3,11.6c0,8.6-7.5,13.8-19.6,13.8C776.4,768.5,771.4,765.9,771.4,765.9z"/>
						<path id="XMLID_692_" class="st26" d="M820,767.8c-3.3,0-8.6,0.5-8.6,0.5l1.2-5.6c2.8-0.5,3.8-1.5,4.4-5l2.5-20.3
							c0.3-2.5,0.1-3.3-1-3.3c-0.8,0-1.9,0.1-1.9,0.1l-0.5-0.8l1.2-4.9c0,0,6.6,0.2,9,0.2c2.7,0,9.3-0.4,9.3-0.4
							c11,0,17.2,5.2,17.2,15.2c0,15.1-9.3,25.1-23.4,25.1C829.3,768.5,823.7,767.8,820,767.8z M831.8,737.6
							c-0.4,2.1-3.2,20.8-3.2,21.5c0,1.5,0.4,1.9,1.6,1.9c5.6,0,8.6-5.9,8.6-17.3c0-5.8-1.5-7.8-5.6-7.8
							C832.3,735.9,832,736.3,831.8,737.6z"/>
						<path id="XMLID_689_" class="st26" d="M891.2,762.6l0.4,0.6l-1.1,4.8c0,0-5.1-0.1-8.4-0.1c-5.6,0-11.4,0.3-11.4,0.3l-0.4-0.5
							l1-5.1c3.4-0.4,4-0.7,4-2.1V757c0,0-3.9-0.1-4.4-0.1c-1.1,0-4.7,0.3-4.7,0.3l-0.8,2.7c-0.2,0.8-0.4,1.3-0.4,1.6
							c0,0.7,0.4,0.9,1.4,0.9h1.6l0.4,0.6l-1.1,5c0,0-5.5-0.2-9.1-0.2c-3.7,0-7.9,0.1-7.9,0.1l1-5.3c1.4-0.4,2.5-1.5,3.3-3.3
							l12.8-30.4l16.2-1l0.8,0.7c0,0,2.9,23.3,3.8,29.9C888.7,761.3,889.5,762.3,891.2,762.6z M869,749.6h2.9c0.9,0,1.7-0.1,3-0.1
							l-0.6-10.6H873L869,749.6z"/>
						<path id="XMLID_687_" class="st26" d="M914.6,744.3h0.8l3-6.9c0.7-1.2,1.1-2.2,1.1-2.8s-0.5-0.8-2.1-0.8l-0.1-0.4l1.1-4.8h9.4
							c3.1,0,6.7-0.2,6.7-0.2l0.2,0.5l-1.1,5.3c-2.6,1.5-5.5,4.2-7.4,7.6l-6.7,11c-1.2,2.1-1.3,3.6-1.6,5.6
							c-0.4,2.8,0.2,3.8,2.5,3.8c1.5,0,3-0.2,3-0.2l0.2,0.4l-1.2,5.7c0,0-8.9-0.4-12.4-0.4c-3.8,0-12.2,0.5-12.2,0.5l1.2-5.6
							c5.1-0.4,6.3-1.2,6.7-4.8l0.1-1c0.2-1.8,0-3.1-1-5.5l-4.8-12.1c-0.8-2.2-2.7-3.9-5.1-5.1l-0.2-0.4l1.3-5.5c0,0,7,0.1,9,0.1
							c2.7,0,10.7-0.4,10.7-0.4l0.4,0.7l-1.2,5c-1.7,0-2.5,0.5-2.5,1.6C912.6,736.7,913.7,741.4,914.6,744.3z"/>
					</g>
				</g>
			</g>
		</g>
	</g>
</g>
</svg>
