<?xml version="1.0" encoding="utf-8"?>
<!-- Generator: Adobe Illustrator 25.4.1, SVG Export Plug-In . SVG Version: 6.00 Build 0)  -->
<svg version="1.1" id="Object" xmlns="http://www.w3.org/2000/svg" xmlns:xlink="http://www.w3.org/1999/xlink" x="0px" y="0px"
	 viewBox="0 0 2907.8 2638.4" style="enable-background:new 0 0 2907.8 2638.4;" xml:space="preserve">
<style type="text/css">
	.st0{clip-path:url(#SVGID_00000139995119860690951940000017012509692372120994_);}
	.st1{fill:none;stroke:#000000;stroke-miterlimit:10;}
	.st2{fill:#F03631;}
	.st3{fill:#F37A37;}
	.st4{fill:#FFEB4B;}
	.st5{fill:#417E53;}
	.st6{fill:#3F6CF7;}
	.st7{fill:#C32CD9;}
	.st8{display:none;}
	.st9{display:inline;}
</style>
<g id="Heart">
	<defs>
		<path id="SVGID_1_" d="M2929,1507.7c-22.4,23.4-46.3,45.8-71.7,67.1l-973,825.8v0l-280.4,237.9l-13.2-11.1L336.9,1566.9
			c-25.3-21.4-49.1-43.9-71.3-67.5C-32.8,1183.3-52.4,686.6,234.9,346.8c86-101.7,190.5-178.7,304.4-230c47-21.2,95.5-38,145-50.5
			c261.3-65.7,549.3-8.7,770.7,178.5l145.8,123.3l146.5-122.4c264.7-221.1,622.6-257.2,916.5-122.4
			c113.5,52.1,217.5,129.6,302.9,231.9C3252.1,696.8,3229.4,1193.4,2929,1507.7z"/>
	</defs>
	<clipPath id="SVGID_00000089542040291896123020000012829547394827419317_">
		<use xlink:href="#SVGID_1_"  style="overflow:visible;"/>
	</clipPath>
	<g id="Pride_Color" style="clip-path:url(#SVGID_00000089542040291896123020000012829547394827419317_);">
		<g>
			<g>
				<path class="st1" d="M-463.5,269.2"/>
			</g>
		</g>
		<g>
			<g>
				<path class="st2" d="M-10.1,705.3c3.7,1,7.3,2.2,10.8,3.2c-6.9,2.2-17.1,2.5-28.8,1.7c28.4,6.2,59.1,9.7,90.5,11
					c15.7,0.7,31.6,0.7,47.6,0.4c16-0.3,31.9-1.2,47.8-2.4c63.4-5,124.6-16.7,172.5-30.9c34.7,0.6,65.5-7.7,68.7-18.8
					c3.1-11-22.6-20.5-57.6-21.2c-7.7-1.2-16.7-2-22.3-3.7c-50.2-16.3-111.4-27.1-179-34.8c13,3,26.6,6.1,39.7,9.1
					c-19.5-2.4-38.8-4.9-60.5-4.7c2.3,2,5.3,4,7.6,6c-8.4-1.7-17.2-3.1-26.2-4.2c-9-1.1-18.3-1.8-27.7-2.2
					c-18.8-0.9-38-0.6-56.5,0.8c-37.1,2.8-71.5,10-94.5,20.9c-46.1,21.9-29.1,50.3,38.1,63.7L-10.1,705.3z"/>
			</g>
			<g>
				<path class="st2" d="M115.7,766.8c-10-1.7-20-3.4-29.8-5c-9.9-1.7-19.7-3.4-29.4-5.1c-19.5-3.5-38.8-7-58.1-10.6l-7.7-3.6
					l2.9,16.9l0.7-1.1c17.9-7.4,41.7-12.8,67.8-17c13.1-2.1,26.7-3.9,40.5-5.5c13.8-1.5,27.8-2.8,41.4-4l19.5-2.7
					c9.3-2.3,15.5-5.7,17.4-9.3c4.4-8.2-12.7-15.6-38.3-16.6l-29.4-1.1c-71.8-8.5-184.6-6.7-224,22.6c-8.9,6.8-0.8,15,1.3,22.7
					c-2.5,11.2,24.6,20.5,60.4,20.6c35.8,0.1,66.4-8.9,68.7-20.2c6.1,0.7,12.3,1.3,18.4,2c-4.7,1.5-9.5,2.8-14.3,4.3
					c9.9-10,42.5-12.8,66.7-18.4c12.1-1.2,24.2-2.2,36.3-3.3l-21-25.9l-18.9,3.8c1.5,1.1,4.3,2.7,4,2.8
					C55,720.9,21.2,728.6-18.1,734l-49.5,10.5c-13.4,5.2-11.9,12.6,2.9,16.9l22.1,5.2c-3.3-1.1-6.7-2-10-3.2
					c50.9,5,104.5,7.5,154.8,12.8c7.9,1.1,17.6-0.1,21.7-2.8C127.4,770.8,124,767.8,115.7,766.8z"/>
			</g>
			<g>
				<g>
					<path class="st2" d="M-63.4,773.6c-8.3-1.8-16.2-3.8-27.9-3.1c-2.8,1.2-4.2,1.9-5,2.2c4.4,1.1,10.3,2.7,16.2,4.2
						C-68.5,779.8-62.6,777.3-63.4,773.6z"/>
				</g>
				<g>
					<path class="st2" d="M-96.3,772.6c-4-1.1-6.7-1.8-6.7-1.8c1.6,0.9,3.1,1.6,4.5,2.4c1.3-0.2,1.3-0.2,1.3-0.2
						S-97.1,773-96.3,772.6z"/>
				</g>
				<g>
					<path class="st2" d="M1221.5,65c78.5,4.2,157.2,8.7,236,12.6c78.8,3.8,157.6,7.9,236.4,11.5c5.3,0.3,9.8-0.8,10.1-2.4
						c0.3-1.4-3.8-3-8.6-3.1c-78.9-3.9-157.5-7.8-236.1-11.8c-78.6-3.9-157.1-8.4-235.6-12.6c-5.3-0.2-9.7,0.9-10.4,2.4
						C1213,63.2,1216.6,64.7,1221.5,65z"/>
				</g>
				<g>
					<path class="st2" d="M2391.9,264.1c-3.8,1.1-3.7,2.8,0.1,4.1c3.3,1.1,9.2,1.5,12.9,0.5c3.2-0.9,3.1-3-0.1-4.1
						C2401,263.2,2395.1,263.2,2391.9,264.1z"/>
				</g>
				<g>
					<path class="st2" d="M2352.8,389.7c-22,1.4-42.9,3.2-61.7,6.8c-3.5,0.5-7.4,0.2-10.3-0.6c1.2,2.7-3.1,4.9-11.1,5.6
						c-19.6,1.9-39.3,3.5-59.2,5.1c-19.9,1.6-39.9,3-60.1,4.3c-40.3,2.5-81.1,4.5-122.2,6.1c-41.1,1.5-82.4,3.1-123.8,4.5
						c-41.4,1.4-82.9,2.8-124.1,4.2c-1.2,2.1-3.4,4.1-7.2,5.9c-11.6,6.1-34.6,8.8-58.3,7l-17.9-2.1c-72.3-5.7-144.4-11.4-216.3-17
						c-14.8,2.6-31.9,4.2-50.5,4.3c-31.2,3.3-62.5,6.5-94,9.4c-15.7,1.5-31.5,2.8-47.3,4.1c-15.8,1.4-31.7,2.6-47.7,3.8
						c4,1.9,6.4,4.1,6.3,6.4c-1.4,5.6-16.2,9.5-33.5,8.9c-8.7,0-17.4-0.1-26.1-0.2c24.9,1.9,49.9,3.8,74.7,5.9
						c3.6,0.2,6.9,0.6,9.9,1.2c13.7,0.4,27.4,0.7,41.3,1c13.8,0.3,27.8,0.5,41.8,0.6c245.5,0.7,476.7-13.2,706.7-29.4
						c3.8-0.7,9.7-0.4,12.9,1.1c2.2,1.4,1.7,3.3-2.5,3.9c-18.2,2.8-36,5.8-53.7,8.9c-17.7,3.1-35.2,6.2-52.6,9.6
						c-34.8,6.6-69.3,13.3-104.4,19.7c-35.1,6.4-70.7,12.5-107.8,17.7c-37.1,5.4-75.6,10.1-116.5,13.5
						c-194.6,16.3-386.5,30.7-585.4,41.1c-51.9-0.9-102.9-0.8-153.5-0.2c-25.3,0.3-50.5,0.7-75.6,1.3c-25.1,0.7-50.3,1.5-75.4,2.3
						c-50.3,1.7-100.7,3.8-151.8,5.9c-51.1,2.3-102.8,4.6-155.8,6.8c-286.2,11.9-556.3,14.5-836.2,18.3
						c-52.4,2.8-102.7-1.5-141.6-10.6c-9.7-2.3-18.8-4.8-26.9-7.7c-8.2-2.8-15.5-5.9-21.8-9.2c-12.6-6.6-21.3-14.2-24.8-22.4
						c-8.2-20,15.3-39.4,58.4-52.9c-8.6,0-17.1-0.1-25.6-0.1l-40.7-3.4c-38.5-3.4-71.4-11.2-92.2-22.2l-28.7-13.5
						c-19.1-12.9-44.1-24.8-68.3-36.7c-24.1-11.9-47.5-23.9-63.2-37.5l6.8-10.5l-7.4-2.9c-24.4-7.2-40.9-16.9-46.7-27.4l2.1-12.7
						c4.8-14.5,16.7-28.4,35.9-41.5c-0.8-5.4,1.5-10.6,6.4-15.7c-16.9-12.7-25-26.1-12.1-41.3c-10.1-3.5-8.5-9.1,3.4-12.5
						c4.1-1.1,9-1.9,14.1-2.2c-0.1,0-0.1,0-0.1,0c-5.6-3.2-7.2-4.1-14.7-7.7c-10-0.9-15.7-1.6-15.7-1.6c-26.5-1.7-26.5-1.7-49.5-3.5
						c-19.8-4.1-32.1-10-32.1-10c-22.3-22.2-22.3-22.2-19.1-32c1.3-1,2.7-1.9,4.2-2.9c-17.6-2.9-18.8-3.2-23.5-4.1
						c-5-1.6-8.4-3.6-8.4-3.6c-0.9-5.2-0.9-5.2-3.9-7.1c-1-2-0.8-3.9-0.8-3.9c9.7-6,9.7-6,9.9-7.7c2.3-1.6,5.4-2.9,5.4-2.9
						c11.4-2,16-2.8,17.9-3.1c24.8,13.1,24.9,13.1,24.9,13.1c5.3-4.8,5.3-4.8,5.3-4.8c5.8,6.1,5.8,6.1,5.8,6.1
						c-3.4-5.7-3.4-5.7-3.4-5.7c12.5,3.2,12.5,3.2,12.5,3.2c-14.3-4.7-14.3-4.7-14.3-4.7c29.4,1.5,29.4,1.5,41.2,1.1
						c12.2,0.5,22.7-1.1,23.9-1.2c-1.1-1.8-1.1-3-1.1-3c31.5,1.6,31.5,1.6,62.1,3.5c2.9,1.2,5.1,2.4,7.2,3.6
						c2.9-1.6,8.8-2.6,14.8-2.3c5.4,0.2,10.7,0.5,16.1,0.7c1.2-0.3,2.4-0.6,3.4-0.9c0-0.3,0-0.4,0-0.4c5.4-1.2,9.2-2,13.5-2.9
						c2.7-0.7,2.8-0.7,2.8-0.7c0,0,0.1,0,0.2,0.1c9.3-2,22.8-4.8,58.5-12.4c9.5,0.6,18.4,1.3,26.8,2.3c-2.7-0.8-5.3-1.6-7.8-2.5
						c-5-1.8-0.5-6.8-3.3-7.3c-16.8-2.4-34-4.5-51.5-6.2c-17.5-1.7-35.2-3.3-53-4.5c-35.7-2.5-72.1-4.3-108.2-6.5
						c-12.9,0.8-25.1-1.9-27.1-5.9c-1.8-4.1,7.4-8,20.6-8.8c36.4-7.4,75-13,114.7-16.8c39.7-3.8,80.5-5.7,121.5-6.2
						c41-0.5,82.1,0.6,122.4,2.9C-530.5,48.1-491,52-453.4,57c39.6,2.2,79.4,4.1,119.3,5.8c-1.9-0.8-3.8-1.6-5.7-2.5
						c10.3,1.2,20.7,2.4,31,3.7c1.1,0.1,2.2,0.1,3.3,0.2c-7.9-3-15.7-6-23.5-9c-5.4-0.9-10.8-1.7-16.3-2.5
						c-46.3-1.4-90.4-5.5-134.2-10.2c-43.8-4.7-87.2-10.2-131.9-14C-659.6,24.1-701,16-746.5,10.1c-11.7-0.3-19.9-3.5-18.5-7.3
						c1.3-3.6,12.2-6.3,23.6-6c37.9-2.1,77.1-3.5,116.6-4c19.7-0.2,39.5-0.2,59.2,0.1c19.7,0.4,39.3,1,58.7,2
						c38.7,1.9,76.5,5,112.2,9.5c17.9,2.2,35.2,4.8,51.9,7.8c16.7,3,32.7,6.5,47.9,10.3c27.7,0.1,54.4,2.4,76.5,8
						c0.4,0,0.8,0.1,1.2,0.1c-5.8-2.5-11.3-5.1-17.1-7.6c20.7,1.8,31.8,8,50.7,10.6c-2.2-3.5-4.8-6.9-7-10.4
						c25.5,1.5,51.6,2.4,77.8,3.1c26.2,0.7,52.5,1.5,78.6,2.4c52.2,1.9,103.4,4.9,150.6,12.3c3.8,0.2,7.4,0.6,10.9,0.9
						c40.7-7.2,81.9-14.1,130.1-14.9c-16.3-1.2-32.3-2.3-48.6-3.5c35.1-4.4,69.8-7.3,107.3-6.7c50.8,0.5,104.6,5.3,152.3,13.2
						c47.8,7.9,89.5,19.1,116.2,32.9c98.4-0.5,196.8-0.9,295.2-1.4c49.2-0.2,98.4-0.4,147.5-0.9c24.6-0.2,49.2-0.4,73.7-0.7
						c24.6-0.2,49.1-0.5,73.7-0.8c10.1-0.2,19.2,2.2,20.9,5.3c1,3.1-5.8,5.9-15.9,6.2c-35.2,2-70.6,3.6-106,5
						c-35.4,1.5-71,2.8-106.6,3.9c-35.6,1.1-71.3,2-107,2.9c-35.7,0.8-71.5,1.7-107.2,2.5c29.9,1.7,59.8,3.3,89.7,5
						c30,1.7,60,3.4,90.1,4.9c30.1,1.5,60.3,2.9,90.7,4.1c15.2,0.6,30.4,1.1,45.6,1.7c15.2,0.6,30.5,1.1,45.8,1.5
						c15.6-0.1,31.3-0.3,47-0.4c15.6-0.2,31,1,46.3,2.6c19.6,0.4,39,0.9,58.3,1.3c9.7,0.2,19.3,0.4,28.9,0.7
						c9.6,0.3,19.2,0.5,28.8,0.8c38.4,1,76.6,2,114.9,2.7c19.2,0.3,38.3,0.6,57.6,0.8c19.2,0.1,38.6,0.3,58,0.4
						c38.8,0.2,78,0,118-0.8c34.1-0.8,67.2-1.5,99.7-2.2c32.5-0.7,64.5-1.4,96.5-2.2c63.9-1.6,127.8-3.8,195.9-6
						c47.8-1.6,94.5-3.1,140.7-4.7c23.1-0.8,46-1.3,68.9-1.8c22.9-0.5,45.6-0.9,68.4-1.3c45.5-0.6,90.9-0.9,136.8-0.4
						c45.8,0.6,92,1.9,139.1,4.1c25.1,0.2,48,7,50.6,15.1c2.6,8-15.9,14.4-41,14.2c-49.2,0.8-98.3,1.7-147.4,2.5
						c-49.1,1-98.1,2.1-147.1,3.1c-98,1.8-196,4.2-294.6,5.4c-24.6,0.3-49.3,0.6-74,0.9c-24.7,0.3-49.5,0.5-74.2,0.7
						c-24.8,0.2-49.6,0.2-74.5,0.2c-24.9-0.1-49.8-0.1-74.9-0.2c-50-0.2-100.3-0.7-150.9-1.7c-12.6-0.3-25.3-0.6-38-0.8
						c-12.7-0.3-25.4-0.6-38.1-0.9c-25.5-0.6-51-1.4-76.7-2.2c-44.3-1.6-87.8-3.1-131.1-4.7c0.5,1.1,1,2.1,1,3.2
						c-0.1,4.3-4.3,8.2-11.3,11.4c49.2,2.3,98.7,5.2,148.4,8.8c17.3-0.7,34.6-1.4,52-2.1c17.3-0.7,34.7-1.4,52.1-1.8
						c34.8-1,69.7-1.8,104.9-2.2c35.2-0.4,70.7-0.3,106.6,0.4c35.9,0.8,72.2,2.4,109,4.8c25.3,1.7,50,3.7,74.2,6
						c12.1,1.1,24.1,2.4,36.1,3.6c6,0.6,11.9,1.3,17.8,1.9c5.9,0.7,11.8,1.4,17.7,2.1c47.1,5.6,93.3,11.8,139.9,17.9
						c29.7-0.1,59.4-0.3,89.1-0.4c29.7-0.1,59.4-0.2,89.1-0.3c29.7-0.1,59.5-0.1,89.4-0.2c14.9,0,29.9,0,44.8,0.1
						c15,0.1,29.9,0.3,44.9,0.4c4.8-0.3,9.7,0.7,11.4,2.3c1.6,1.6-1,3-5.9,3.4c-20.7,1.5-41.5,2.8-62.4,4c-20.9,1.3-41.9,2.5-63,3.5
						c-42.2,2.1-84.7,3.8-127.4,5.3c13.2,5.5,20.9,12.2,19.6,19.2c-1.4,7.2-12,13.3-28.1,17.2l57.8,3c11.9,0.8,21.2,4,20.7,7.5
						c-0.4,3.9-10,6.3-21.4,5.7c-19.7-0.9-39.3-1.9-59-2.8c-9.8-0.5-19.6-1-29.5-1.4l-29.5-1.3c-39.3-1.8-78.5-3.5-117.8-5.3
						c-47.2,0.2-94.3,0.3-141.5,0.5c-47.1,0.1-94.3,0.1-141.6,0c12.9,5.2,22.4,11.4,26.8,18.2c0,0,0,0.1,0,0.1
						c14.6,0.3,29.2,0.6,43.7,0.9c267.4-11.4,541.1-11.6,816.2,5.8c5.4,0.2,9.8,1.7,9.8,3.5c0,1.7-4.2,2.9-9.1,2.5
						c-41.5-2.5-83-4.7-124.4-6.6c-20.7-0.9-41.4-1.8-62.1-2.6c-20.7-0.8-41.4-1.5-62-2c0.1,0,0.2,0.1,0.3,0.1
						c3.3,1.1,3.8,3,0.1,4.1c-3.2,0.9-9.7,0.7-13-0.4c-3.8-1.3-3.3-3.1-0.2-4.1c-38.5-0.9-77-1.6-115.3-2
						c-38.4-0.4-76.7-0.7-114.9-0.4c-38.2,0.2-76.3,0.7-114.4,1.4c-19,0.3-38,0.7-56.9,1.2c-9.5,0.2-18.9,0.5-28.4,0.7
						c-9.5,0.3-18.9,0.6-28.4,0.9c35.1,0.7,70.1,1.8,105.1,2.8c35,1,70.1,2.2,105.1,3.5c17.5,0.7,35,1.4,52.5,2.1
						c17.5,0.8,35,1.7,52.5,2.6c35,1.8,69.9,3.8,104.9,6.1c15.4-1.4,30.6-2.9,46.2-4.2c4.2-0.2,9.7,1,11.3,2.6c1.1,1.4-2,3-6.4,3.2
						c-4.3,0.3-8.6,0.7-12.9,1c13.2,0.9,24.9,3.3,33.1,6.6c8.2,3.3,13.1,7.4,12.6,11.7c-1.9,8.7-24.9,14.6-52.4,13.1
						c-36.9-0.7-73.6-1.6-110.4-2.7c-18.4-0.6-36.7-1.1-55.1-1.7c-18.4-0.6-36.7-1.2-55.1-1.8c-8,0.2-15.9,0.4-23.9,0.6
						c-8.1,1-16.1,2.1-24.1,3.2c28.5,2,57,3.9,85.4,6c28.4,2.2,56.9,4.4,85.3,6.6c28.4,2.3,56.8,4.5,85.1,6.7
						c28.3,2.3,56.6,4.5,84.8,7c9.7,0.4,17.9,3.2,17.9,6.3c0.1,3.1-7.9,5.3-17.6,4.9c-25,0.4-50,0.8-75.1,1.1
						c-25.1,0.4-50.1,0.7-75.3,0.9c-25.1,0.2-50.3,0.4-75.4,0.6c-25.2,0.1-50.4,0.3-75.6,0.4c-50.4,0.3-101,0.3-151.6,0.1
						c-25.3-0.1-50.6-0.2-75.9-0.2c-25.3-0.1-50.7-0.2-76-0.3c-66.9,11.1-134.1,22.2-202.4,33.5c8.5,0.5,17.2,0.9,25.9,1.2
						c55.1,1.5,108.1,1.1,160-0.9c26-1,51.7-2.3,77.2-3.8c25.5-1.5,50.9-3.2,76.2-4.8c101.3-6.5,201.8-14.4,308.6-13.6
						c5.4-0.2,9.7,1.4,10.4,2.9c0.5,1.6-3.2,3-8.6,2.8c-26.1,0.2-51.6,0.9-76.8,1.9c-12.6,0.5-25.2,1.1-37.7,1.8
						c-12.5,0.7-25,1.4-37.4,2.2c-49.9,3.1-99.6,6.7-151.4,9.3c-10.7,0.5-21.4,1.1-32,1.6c-10.6,0.6-21.1,1.2-31.6,1.7
						c-21,1.2-41.7,2.4-62.2,3.6c-41.1,2.6-81.4,5.4-121.3,9.1c40.6,0.5,80.9,0.1,120.9-0.7c20-0.4,40-0.9,59.9-1.5
						c19.9-0.6,39.8-1.2,59.7-1.8c39.8-1.2,79.5-2.6,119.4-3.7c39.9-1.1,79.9-2.1,120.2-2.2c7.1-0.4,14.1,0.6,18.5,2.4
						c0.4-0.8,1.9-1.6,4.1-2c20.3-3.4,42.3-5.5,64.9-7.1c4.3-0.5,9.7,0.4,11.9,2.1C2360.3,387.6,2357.6,389,2352.8,389.7z
						 M423.1,823.3c-1.6-0.7-2.9-1.3-4.1-1.8c4.4,0.9,9.1,1.9,14.3,3c0,0,0,0,20,12.3C453.3,836.8,438.2,830.2,423.1,823.3z
						 M173.9,872.5c0,0,0,0,0.1,0c-6.7-4-11.6-6.9-11.6-6.9C167.1,868.5,170.8,870.7,173.9,872.5z M869,102.3
						c-10.7-0.2-21.5-0.5-32.2-0.7c-10.7-0.3-21.4-0.6-32.1-0.9c-21.4-0.7-42.7-1.6-64-2.7c-42.6-2.2-85-5.4-127.4-9.9
						c20.8-0.4,41.4-0.9,62.2-1.3c32.2,2.2,64.4,4.7,96.6,7.2C804.3,96.5,836.6,99.2,869,102.3z M254.8,778
						c22.7,6.2,40.4,14,57.1,22c7.4-0.8,15-1.5,22.7-1.9c7.7-0.4,15.5-0.5,23.4-0.4c42.3,0.5,83.4,1.7,124,3.7
						c-5.3-4.4,4.4-3.9,9.4-4.5c5.1-0.4,10.2-0.8,15.2-1.2c-43.3-2.7-86.7-5.7-130.8-9C336,783.7,292.8,782.4,254.8,778z
						 M-46.9,799.9c-1.2-0.5-2.3-1-3.7-1.5c0,0,0,0,8-6.7C-42.6,791.6-44.5,795.1-46.9,799.9z M-59.4,811.2c2,0.3,4,0.6,6.2,0.8
						C-55.4,814.6-57.4,813.7-59.4,811.2z M-2.4,818.5c-3.4-1.7-5.5-2.7-8.1-3.4C-2.5,818.5-2.4,818.5-2.4,818.5z M41.3,1011.7
						l21.5-33.4l-23.5,32.1L41.3,1011.7z"/>
				</g>
			</g>
		</g>
		<g>
			<g>
				<path class="st3" d="M-134.6,1093c3.8,1.4,7.6,3.1,11.3,4.6c-7.6,1.7-18.6,1-31-1.1c29.8,9.7,62.3,16.7,95.8,21.3
					c16.8,2.3,33.8,4.1,51,5.2c17.1,1.1,34.4,1.7,51.5,1.8c68.5,0.4,135.1-6.7,187.7-17.9c37.2,3.5,70.8-3.1,75.2-14.9
					c4.3-11.8-22.4-24.2-59.8-27.8c-8.2-2-17.7-3.6-23.6-6.1c-52.2-22.4-116.6-39.8-188-54.5c13.6,4.5,27.8,9.1,41.5,13.6
					c-20.6-4.4-40.9-8.9-64.1-10.7c2.3,2.4,5.2,4.8,7.5,7.2c-8.8-2.6-18.1-5-27.6-7c-9.5-2-19.4-3.8-29.3-5.3
					c-19.9-2.9-40.5-4.5-60.4-4.9c-39.8-0.7-77.3,3.6-103,13.1c-51.5,19.1-36.5,51.9,34,73.4L-134.6,1093z"/>
			</g>
			<g>
				<path class="st3" d="M-5.8,1172.9c-5.3-1.4-10.6-2.8-15.8-4.1c-5.3-1.4-10.5-2.8-15.7-4.3c-10.4-2.8-20.7-5.7-31-8.6
					c-20.6-5.8-40.9-11.6-61.2-17.5l-7.9-4.7l1.3,18.7l0.9-1.1c20-6.3,46-9.7,74.5-11.6c14.2-1,29-1.5,44-1.8
					c15-0.4,30.1-0.5,44.9-0.6l21.2-1.2c10.2-1.7,17.2-4.8,19.5-8.6c5.5-8.5-12.2-18.2-39.4-21.6l-31.4-3.9c-4.8-1-9.7-2-14.8-2.9
					c-5.1-1-10.3-1.9-15.6-2.8c-10.7-1.8-21.8-3.4-33.2-4.8c-22.7-2.8-46.4-4.7-69.1-5.2c-45.4-1-86.9,3.6-109.6,17.6
					c-10.2,6.5-2.5,16.3-1.1,24.9c-3.9,12,24.2,24.9,62.6,28.7c38.4,3.8,72.2-2.9,75.8-15c6.4,1.3,13.1,2.7,19.5,4.1
					c-5.2,1.1-10.5,2.1-15.8,3.2c11.7-9.8,46.9-9.6,73.4-13.2c13.1,0,26.2-0.1,39.3-0.1l-20-30.2l-20.6,2.3c1.5,1.3,4.3,3.4,4,3.5
					c-39.3,4.9-76.3,9.9-119,11.7l-54.1,6.4c-14.9,4.3-14.1,12.5,1.3,18.7l23.2,8c-3.5-1.6-7-2.9-10.4-4.5
					c54.1,10.7,111.4,18.9,164.9,29.9c8.4,2,18.9,1.5,23.6-1C6.4,1178.4,2.9,1174.8-5.8,1172.9z"/>
			</g>
			<g>
				<g>
					<path class="st3" d="M-198.8,1162.1c-8.7-2.9-17-5.8-29.7-6.3c-3.1,1.1-4.7,1.6-5.6,1.9c4.6,1.7,10.7,4,16.9,6.2
						C-205,1168.4-198.4,1166.1-198.8,1162.1z"/>
				</g>
				<g>
					<path class="st3" d="M-234,1157.7c-4.2-1.6-7-2.6-7-2.6c1.6,1.1,3.1,2.1,4.6,3.1c1.4-0.1,1.4-0.1,1.4-0.1S-235,1158-234,1157.7
						z"/>
				</g>
				<g>
					<path class="st3" d="M1254.7,572.3c84.5,5.8,169.2,10.2,254,14.5c21.2,1,42.4,2.1,63.6,3.1l15.9,0.8l15.9,0.7l31.8,1.3
						c42.4,1.7,84.9,3.4,127.4,5c5.7,0.2,10.5-1,10.8-2.8c0.3-1.5-4.1-3.2-9.3-3.3c-42.5-1.7-84.9-3.4-127.3-5.1
						c-10.6-0.4-21.2-0.9-31.8-1.3c-10.6-0.4-21.2-0.9-31.8-1.4c-21.2-1.1-42.3-2.1-63.5-3.2c-42.3-2.2-84.6-4.4-126.8-6.7
						l-31.7-1.8l-15.8-0.9l-15.8-1l-63.3-4.1c-5.7-0.2-10.4,0.9-11.2,2.6C1245.5,570.3,1249.4,571.9,1254.7,572.3z"/>
				</g>
				<g>
					<path class="st3" d="M2521.8,769.4c-4.1,1.3-3.9,3.2,0.3,4.5c3.6,1.1,10,1.3,14,0c3.4-1.1,3.3-3.4-0.3-4.5
						C2531.7,768.1,2525.2,768.3,2521.8,769.4z"/>
				</g>
				<g>
					<path class="st3" d="M2484.8,908.7c-23.9,2.5-46.6,5.4-66.9,10.1c-3.8,0.7-8,0.5-11.2-0.2c1.4,2.9-3.2,5.5-11.8,6.6
						c-21.2,2.9-42.7,5.6-64.3,8c-21.6,2.4-43.4,4.5-65.3,6.6c-43.9,4-88.3,7.4-133,10.5c-44.7,3.2-89.8,5.5-134.9,7.9
						c-45.1,2.4-90.4,4.7-135.4,7.3c-1.2,2.3-3.7,4.5-7.7,6.6c-6.3,3.5-15.7,6.1-26.8,7.6c-11.1,1.4-23.8,1.8-36.8,0.9l-19.5-2.2
						c-39.5-2.9-79-5.5-118.3-8.1c-19.7-1.4-39.4-2.7-59-4.1c-9.8-0.7-19.7-1.4-29.5-2.2c-9.8-0.8-19.6-1.6-29.5-2.4
						c-16.2,2.9-34.9,4.6-55.2,4.8c-34.1,3.6-68.3,7.1-102.6,10.3c-17.2,1.6-34.4,3.1-51.7,4.5c-17.3,1.3-34.7,2.6-52.2,3.7
						c4.3,2.1,6.9,4.5,6.8,7.1c-1.5,6.1-17.8,10.3-36.7,9.5c-9.5-0.1-19-0.3-28.5-0.5c27.2,2.3,54.5,4.7,81.7,7.3
						c3.9,0.2,7.6,0.7,10.8,1.4c15,0.6,30,1,45.1,1.3c15.1,0.3,30.4,0.5,45.8,0.6c268.5,1.7,521.4-17.7,771.8-42
						c4.1-0.9,10.5-0.7,14.2,0.8c2.4,1.5,2,3.5-2.6,4.3c-19.8,3.7-39.2,7.5-58.4,11.5c-19.2,4-38.2,8-57.2,11.9
						c-37.9,7.9-75.4,16-113.7,23.8c-38.2,7.7-77.1,15.1-117.6,21.7c-40.5,6.4-82.7,11.9-127.4,16.1
						c-213.1,20.4-423.7,34.8-642.3,43.8c-57-2-113-3.1-168.5-3.4c-27.8-0.2-55.4-0.2-83.1-0.1c-27.6,0-55.2,0-82.8,0.2
						c-55.3,0.3-110.7,1-166.9,1.7c-56.2,0.4-113.1,0.8-171.4,0.9c-314.9,0.5-611.9-13.7-919.1-32.1
						c-57.7-1.4-112.5-10.2-154.4-23.4c-10.5-3.3-20.1-6.8-28.8-10.6c-8.7-3.8-16.4-7.9-23.1-12.1c-13.3-8.4-22-17.5-25.1-26.8
						c-7.1-22.6,20.3-41.5,68.5-52.4c-9.4-0.7-18.7-1.5-28-2.4l-44.1-7.5c-41.7-7.3-76.9-18.9-98.5-32.9l-30-17.5
						c-9.8-8-21.2-15.8-33.3-23.5c-12.1-7.7-24.9-15.3-37.4-23.1c-25.1-15.5-49.2-31-64.9-47.5l8.4-10.8l-7.7-3.9
						c-25.7-10.4-42.6-22.6-47.8-34.8l3.6-13.6c6.7-15.4,21-29.2,43.1-41.6c-0.3-5.9,2.7-11.5,8.6-16.4c-16.9-15.6-24.3-31-8.8-46.3
						c-10.5-4.9-8.2-10.8,4.9-13.3c4.5-0.8,9.9-1.1,15.4-1c-0.1-0.1-0.1-0.1-0.1-0.1c-5.7-4.1-7.3-5.2-15-9.9
						c-10.6-2-16.8-3.4-16.8-3.4c-28.4-4.6-28.4-4.6-52.9-8.9c-20.9-6.5-33.6-14.3-33.6-14.3c-21.6-26.5-21.6-26.5-17.1-36.9
						c1.5-0.9,3.1-1.8,4.8-2.7c-18.6-5-19.9-5.4-24.9-6.9c-5.2-2.3-8.6-4.8-8.6-4.8c-0.4-5.8-0.4-5.8-3.4-8.1
						c-0.9-2.3-0.5-4.4-0.5-4.4c11-5.6,11-5.6,11.5-7.3c2.6-1.5,6.2-2.7,6.2-2.7c12.5-1,17.4-1.4,19.5-1.5
						c25.3,16.8,25.3,16.9,25.3,16.9c6.1-4.7,6.1-4.7,6.1-4.7c5.6,7.3,5.6,7.3,5.6,7.3c-3-6.5-3-6.5-3-6.5
						c13.1,4.8,13.1,4.8,13.1,4.8c-14.8-6.6-14.8-6.6-14.8-6.6c31.4,4.7,31.4,4.7,44.1,5.4c13.1,1.8,24.5,1.1,25.8,1.1
						c-0.9-2-0.9-3.4-0.9-3.4c33.6,5,33.6,5,66.4,10.2c3,1.6,5.3,3.2,7.4,4.7c3.3-1.5,9.7-2,16.1-1c5.8,0.8,11.5,1.6,17.2,2.4
						c1.3-0.2,2.6-0.4,3.8-0.6c0-0.3,0-0.5,0-0.5c6-0.8,10.1-1.3,14.8-1.9c3-0.5,3.1-0.5,3.1-0.5c0,0,0.1,0.1,0.2,0.1
						c10.2-1.3,25-3.2,64.1-8.2c10.2,1.5,19.6,3.2,28.5,5c-2.8-1.1-5.6-2.2-8.2-3.4c-5.2-2.4,0.1-7.5-2.8-8.2
						c-17.8-4.2-36.1-8-54.7-11.5c-18.6-3.6-37.5-6.7-56.5-9.9c-38.1-6.4-76.9-12.1-115.4-18.2c-13.9-0.4-26.7-4.7-28.4-9.3
						c-1.5-4.7,8.8-8,23.1-7.5c39.8-4.4,81.7-6.5,124.6-6.6c5.4,0,10.7,0,16.1,0c5.4,0,10.8,0.1,16.2,0.1
						c10.8,0.2,21.7,0.4,32.7,0.8c21.8,0.8,43.8,2,65.8,3.6c44,3.3,87.9,8.2,130.9,14.5c43,6.1,85,13.6,124.9,22.1
						c42.3,5.7,84.8,11,127.5,16.2c-2-1-4-2.1-6-3.2c11,2.2,22,4.2,33,6.3c1.2,0.2,2.4,0.3,3.6,0.4c-8.2-3.9-16.4-7.7-24.5-11.6
						c-5.7-1.4-11.5-2.7-17.3-4c-49.5-5.4-96.6-13.4-143.1-22.2c-46.5-8.8-92.6-18.1-140.2-26.6c-51.1-9.1-94.7-21.8-142.9-32.4
						c-12.5-1.4-20.9-5.7-19.1-9.6c1.7-3.8,13.6-5.8,25.8-4.4c40.7,1.2,82.8,3.2,125.1,6.4c21.1,1.6,42.3,3.5,63.3,5.6
						c21,2,42,4.4,62.6,7c41.3,5.3,81.5,11.7,119.4,19.6c18.9,3.9,37.3,8.2,54.9,12.8c17.6,4.6,34.5,9.4,50.5,14.7
						c29.7,2.1,58.1,6.5,81.5,14.2c0.4,0.1,0.9,0.1,1.3,0.2c-6.1-3.2-11.7-6.3-17.8-9.5c22.1,3.4,33.5,11.1,53.6,15.2
						c-2.1-4-4.7-7.9-6.8-11.9c27.3,3.5,55.2,6.3,83.2,9c14,1.4,28.1,2.5,42.1,3.8c14.1,1.2,28.1,2.5,42.1,3.8
						c55.9,5.3,110.7,11.6,161,22.7c4.1,0.5,7.9,1.1,11.7,1.7c44.1-5.7,88.7-11.2,140.6-9.6c-17.5-2.1-34.6-4.2-52.1-6.3
						c37.9-3,75.4-4.4,115.6-1.9c54.5,3.4,112,10.5,163,21.2c51,10.6,95.4,24.5,123.6,40.8c52.9,1.3,105.9,2.6,158.8,3.8
						c53,1.2,105.9,2.6,158.8,3.3c52.9,0.8,105.9,1.5,158.8,2c13.2,0.1,26.5,0.2,39.7,0.3c13.2,0,26.4,0,39.7,0.1
						c26.4,0,52.9,0,79.3-0.2c10.9-0.2,20.6,2.6,22.5,6c1,3.4-6.3,6.4-17.2,6.6c-38,1.8-76,3.3-114.2,4.5
						c-38.2,1.1-76.5,1.7-114.8,2.3c-38.4,0.5-76.8,0.8-115.3,1c-9.6,0-19.2,0.1-28.9,0.1c-9.6,0-19.3-0.1-28.9-0.1
						c-19.3-0.1-38.5-0.2-57.8-0.3c16.1,1.4,32.1,2.8,48.2,4.1c16.1,1.3,32.2,2.8,48.3,4c32.2,2.5,64.6,4.9,97,7.2
						c32.4,2.3,65,4.4,97.6,6.3c16.3,1,32.7,1.9,49.1,2.7c16.4,0.8,32.9,1.5,49.4,2.1c16.8,0,33.8,0,50.7,0
						c16.8,0,33.4,1.4,49.9,3.3c21.1,0.7,42,1.3,62.9,2c10.4,0.3,20.8,0.7,31.2,1c10.4,0.3,20.7,0.6,31.1,0.8
						c41.4,1.1,82.6,2.1,123.9,2.8c20.6,0.4,41.3,0.7,62.1,0.9c10.4,0.1,20.8,0.2,31.2,0.2c10.4,0.1,20.8,0,31.3,0
						c41.9-0.2,84.1-0.8,127.2-2.1c36.8-1.1,72.4-2.2,107.4-3.6c35-1.4,69.5-2.9,103.9-4.5c68.8-3.2,137.6-6.6,210.8-11.4
						c51.4-3.2,101.6-6.4,151.2-9.6c24.8-1.5,49.4-3.1,74-4.6c24.6-1.5,49-2.9,73.5-4.2c24.4-1.3,48.9-2.5,73.4-3.5
						c12.2-0.5,24.5-1,36.8-1.5c12.3-0.4,24.6-0.9,36.9-1.3c49.3-1.7,99-2.7,149.7-2.8c27-1.1,52,5.2,55.2,13.8
						c3.3,8.6-16.3,16.6-43.3,17.7c-52.9,3.5-105.7,6.9-158.4,10.4l-19.8,1.3l-19.8,1.2c-13.2,0.8-26.4,1.6-39.5,2.4
						c-26.4,1.6-52.7,3.2-79.1,4.8c-26.4,1.6-52.7,3.1-79.1,4.7c-13.2,0.7-26.4,1.6-39.6,2.2c-13.2,0.7-26.4,1.3-39.6,2
						c-52.8,2.6-105.8,5.1-158.9,7.4c-13.3,0.5-26.6,1.1-39.9,1.6c-13.3,0.5-26.6,0.9-39.9,1.4c-26.6,0.9-53.3,1.6-80,2.3
						c-26.7,0.7-53.5,1.3-80.4,1.8c-26.9,0.5-53.8,1-80.8,1.2c-54,0.4-108.2,0.3-162.8-0.2c-13.6-0.2-27.3-0.3-41-0.5
						c-13.7-0.2-27.4-0.4-41.2-0.8c-27.5-0.7-55-1.5-82.7-2.4c-47.8-1.7-94.7-3.3-141.5-5.1c0.6,1.2,1.1,2.4,1.1,3.5
						c-0.1,4.7-4.7,9-12.3,12.4c53.1,2.5,106.5,5.7,160.2,9.5c37.4-1.5,74.8-3,112.4-4.5c37.6-1.5,75.3-2.8,113.3-3.6
						s76.3-1.1,115-0.7c38.7,0.2,77.9,1.1,117.7,2.9c27.3,1.3,54,3,80.2,5c13.1,1,26.1,2.1,39,3.2c12.9,1.2,25.7,2.3,38.5,3.4
						c51,4.7,101,10,151.6,15.2c16-0.5,32.1-1.1,48.1-1.6c16-0.6,32-1.1,48.1-1.8c32-1.4,64.1-2.7,96.2-4.1
						c32.1-1.3,64.2-2.6,96.4-3.9c32.2-1.2,64.5-2.5,96.8-3.7c5.2-0.6,10.5,0.3,12.4,1.9c1.9,1.7-0.9,3.4-6.2,4
						c-22.3,2.7-44.7,5.3-67.2,7.6c-22.5,2.3-45.2,4.4-67.9,6.5c-45.5,4.1-91.3,7.7-137.4,11.2c14.5,5.5,23.1,12.5,21.9,20.2
						c-1.2,8-12.5,15-29.7,20l62.7,0.8c12.9,0.3,23.1,3.5,22.7,7.4c-0.3,4.3-10.6,7.3-22.9,7.2c-21.3-0.2-42.6-0.4-63.9-0.7
						c-10.7-0.1-21.3-0.2-32-0.3l-31.9-0.5c-42.6-0.7-85.1-1.4-127.7-2.1c-25.6,0.8-51.1,1.6-76.6,2.5c-12.8,0.4-25.5,0.7-38.3,1
						l-38.3,0.9c-51.1,1.1-102.1,2.1-153.4,3c14.1,5.5,24.5,12.1,29.3,19.4c0,0,0,0.1,0,0.1c15.9,0,31.7,0.1,47.4,0.1
						c289.7-18,585.7-28.4,884.1-25.1c5.8-0.1,10.7,1.4,10.8,3.3c0.1,1.8-4.4,3.4-9.7,3.2c-45.1-0.6-90.1-0.9-135-0.7
						c-22.5,0.1-44.9,0.2-67.3,0.4c-22.4,0.3-44.8,0.5-67.2,0.8c0.2,0,0.2,0.1,0.4,0.1c3.6,1.1,4.3,3.2,0.3,4.5
						c-3.4,1.2-10.5,1.1-14,0.1c-4.2-1.3-3.8-3.3-0.4-4.4c-41.7,0.6-83.4,1.5-124.9,2.6c-41.6,1.1-83.1,2.7-124.4,4
						c-41.4,1.5-82.7,3.2-123.8,5.1c-20.6,1-41.1,2-61.7,3.1c-20.5,1.1-41,2.2-61.5,3.3l28.5,0.1l28.5,0l57,0c38,0,76,0.2,114,0.5
						c38,0.4,76,0.8,113.9,1.2c38,0.5,75.9,1.3,113.9,2.3c16.6-2.2,33.1-4.5,49.9-6.6c4.6-0.4,10.6,0.7,12.4,2.4
						c1.3,1.5-2.1,3.4-6.8,3.8c-4.7,0.5-9.3,1.1-13.9,1.6c14.4,0.4,27.1,2.6,36.2,5.8c9.1,3.2,14.5,7.5,14.2,12.2
						c-1.6,9.7-26.3,17.1-56.2,16.6c-40,0.8-79.9,1.3-119.9,1.7c-20,0.1-39.9,0.3-59.8,0.4l-29.9,0.1l-29.9-0.1
						c-8.6,0.5-17.3,1-25.9,1.5c-8.7,1.4-17.4,2.8-26,4.3c31,1.3,62,2.5,92.9,3.8c31,1.2,61.9,2.4,92.8,3.6
						c30.9,1.3,61.8,2.6,92.6,3.8c30.8,1.3,61.7,2.7,92.4,3.8c10.6-0.1,19.6,2.6,19.8,6c0.3,3.3-8.3,6.2-18.9,6.3
						c-13.6,0.8-27.1,1.7-40.7,2.5c-13.6,0.7-27.2,1.5-40.8,2.2c-27.2,1.4-54.4,2.8-81.7,4.1s-54.6,2.6-82,3.8
						c-13.7,0.6-27.4,1.2-41.1,1.7c-13.7,0.5-27.4,1-41.1,1.5c-54.8,1.9-109.8,3.5-164.8,4.9c-13.8,0.3-27.5,0.7-41.3,1
						c-13.8,0.3-27.5,0.5-41.3,0.8c-27.6,0.4-55.1,0.8-82.7,1.2c-36.3,6.8-72.7,13.5-109.3,20.3c-9.2,1.7-18.3,3.4-27.5,5.1
						c-9.2,1.6-18.4,3.3-27.6,4.9c-18.4,3.3-36.9,6.5-55.5,9.8c9.3,0.4,18.8,0.8,28.2,1c15,0.3,29.9,0.4,44.6,0.4
						c14.7,0,29.4-0.3,43.9-0.6c29-0.7,57.6-2,85.9-3.6c28.3-1.6,56.2-3.6,84-5.7c13.9-1.1,27.7-2.2,41.5-3.4
						c13.8-1.2,27.6-2.5,41.3-3.8c110.1-10.5,219.2-21.6,335.3-25.7c5.8-0.4,10.6,1.1,11.4,2.8c0.6,1.7-3.3,3.4-9.2,3.4
						c-28.4,1.3-56.1,3.1-83.5,5.3c-13.7,1.1-27.3,2.3-40.9,3.4c-13.6,1.2-27.1,2.4-40.7,3.6c-54.2,5-108.2,10.5-164.5,15
						c-11.7,0.9-23.3,1.9-34.8,2.8c-11.5,0.9-23,1.7-34.4,2.6c-22.8,1.7-45.4,3.5-67.7,5.3c-44.7,3.7-88.6,7.7-132,12.5
						c44.3-0.3,88.2-1.6,131.8-3.3c21.8-0.9,43.6-1.9,65.3-2.9c10.9-0.6,21.7-1.1,32.5-1.7c10.8-0.6,21.7-1.3,32.5-1.9
						c43.3-2.6,86.6-5.3,130-7.8c43.4-2.5,86.9-4.6,130.8-6.5c7.7-0.7,15.4,0.1,20.3,1.9c0.4-0.9,2-1.8,4.3-2.4
						c21.9-4.6,45.9-7.8,70.3-10.5c4.7-0.8,10.6,0,13,1.8C2492.8,906,2490,907.7,2484.8,908.7z M319.7,1262.2
						c-1.6-0.9-3-1.6-4.2-2.3c4.7,1.4,9.6,2.8,15.2,4.5c0,0,0,0,20.6,15.1C351.2,1279.4,335.4,1270.9,319.7,1262.2z M46.6,1293.7
						c0,0,0,0,0.2,0c-6.9-5-11.8-8.6-11.8-8.6C39.7,1288.7,43.4,1291.4,46.6,1293.7z M874.3,607.7c-11.6-0.4-23.1-0.9-34.7-1.5
						c-11.5-0.5-23.1-1.2-34.6-1.9c-23-1.4-46-3-68.9-4.9c-45.8-3.8-91.5-8.6-137-14.7c22.4,0.1,44.7,0.3,67,0.4
						c34.6,3.4,69.2,7.1,103.9,10.8C804.8,599.9,839.5,603.8,874.3,607.7z M142.6,1198c23.8,8.9,42.2,19,59.5,29.4
						c8.1-0.2,16.3-0.2,24.6,0.1c8.3,0.2,16.7,0.7,25.2,1.5c45.5,4,89.7,8.8,133.2,14.2c-5.4-5.2,5.1-3.9,10.5-4.2
						c5.5,0,11-0.1,16.5-0.1c-46.4-6.5-92.8-13.4-140.1-20.6C229.4,1211.9,183,1206.3,142.6,1198z M-183.8,1192.4
						c-1.3-0.7-2.4-1.4-3.8-2.1c0,0,0,0,9.3-6.5C-178.4,1183.8-180.8,1187.4-183.8,1192.4z M-198.5,1203.6c2.1,0.5,4.3,1,6.6,1.5
						C-194.5,1207.6-196.6,1206.4-198.5,1203.6z M-138,1217.4c-3.5-2.2-5.6-3.6-8.4-4.5C-138,1217.3-138,1217.4-138,1217.4z
						 M-110.6,1432.8l26.7-34.2l-28.7,32.6L-110.6,1432.8z"/>
				</g>
			</g>
		</g>
		<g>
			<g>
				<path class="st4" d="M-214.4,1637.4c4,0.8,8,1.8,11.9,2.6c-7.3,2.5-18.5,3.3-31.2,3.1c31.1,4.7,64.5,6.5,98.6,6.2
					c17.1-0.1,34.3-0.9,51.6-2c17.3-1.1,34.6-2.7,51.7-4.7c68.6-7.9,134.4-22.3,185.8-38.5c37.7-1.1,70.7-10.6,73.7-21.6
					c2.9-10.9-25.3-18.9-63.3-17.9c-8.4-0.9-18.2-1.1-24.4-2.6c-55.1-13.5-122-21-195.6-25.3c14.2,2.3,29.1,4.7,43.4,7
					c-21.3-1.4-42.3-2.9-65.8-1.7c2.6,1.8,5.9,3.6,8.5,5.4c-9.2-1.3-18.8-2.2-28.6-2.8c-9.8-0.6-19.9-0.8-30.1-0.8
					c-20.4,0.1-41.2,1.3-61.3,3.6c-40.1,4.6-77.2,13.3-101.6,25.1c-49,23.6-29.4,50.6,44,60.2L-214.4,1637.4z"/>
			</g>
			<g>
				<path class="st4" d="M-75.4,1691.2c-11-1.2-21.8-2.3-32.5-3.4c-10.8-1.2-21.4-2.4-32.1-3.5c-21.3-2.4-42.3-4.9-63.4-7.4
					l-8.5-3.1l3.8,16.3l0.8-1.1c19.1-8.1,44.6-14.6,72.8-20c14.1-2.7,28.8-5.2,43.7-7.4c14.9-2.2,30-4.1,44.8-6l21-3.6
					c10-2.7,16.6-6.3,18.5-9.9c4.5-8.2-14.5-14.6-42.2-14.3l-32,0.4c-4.9-0.3-10-0.6-15.2-0.8c-5.2-0.2-10.5-0.3-16-0.4
					c-10.9-0.2-22.3-0.1-33.8,0.1c-23.1,0.5-47,2-69.8,4.5c-45.5,5.1-86.5,14.6-107.2,29.9c-9.3,7.1-0.3,14.7,2.3,22.1
					c-2.2,11.1,27.6,18.8,66.3,17.1c38.8-1.7,71.6-12,73.6-23.1c6.6,0.3,13.4,0.7,20,1c-5,1.7-10.2,3.2-15.3,4.9
					c10.4-10.2,45.6-14.6,71.6-21.3c13.1-1.7,26.2-3.3,39.3-5l-23.8-24.2l-20.3,4.6c1.6,1,4.7,2.4,4.5,2.5
					c-38.7,9.4-75,18.7-117.5,25.9l-53.2,12.7c-14.3,5.8-12.4,12.9,3.8,16.3l24.2,4c-3.7-0.9-7.3-1.7-11-2.6
					c55.4,2.3,113.6,2,168.4,4.7c8.7,0.7,19.1-0.9,23.5-3.7C-62.5,1694.5-66.4,1691.8-75.4,1691.2z"/>
			</g>
			<g>
				<g>
					<path class="st4" d="M-269.3,1706.7c-9-1.4-17.7-2.9-30.4-1.7c-3,1.3-4.5,2-5.3,2.4c4.8,0.9,11.2,2.1,17.7,3.3
						C-274.6,1713.1-268.3,1710.2-269.3,1706.7z"/>
				</g>
				<g>
					<path class="st4" d="M-305,1707.4c-4.4-0.8-7.4-1.4-7.4-1.4c1.7,0.8,3.4,1.4,5,2.1c1.4-0.3,1.4-0.3,1.4-0.3
						S-305.9,1707.8-305,1707.4z"/>
				</g>
				<g>
					<path class="st4" d="M1198.9,905.2c85.4,1.3,170.9,3,256.5,4.1c85.6,1.1,171.3,2.3,256.9,3.4c5.7,0.1,10.6-1.1,10.8-2.7
						c0.3-1.4-4.2-2.8-9.5-2.8c-42.9-0.6-85.7-1.2-128.4-1.8c-10.7-0.2-21.4-0.3-32.1-0.5l-16-0.3l-16-0.2
						c-21.4-0.3-42.7-0.5-64.1-0.8c-85.4-1.1-170.7-2.9-256.1-4.1c-5.7,0-10.5,1.2-11.2,2.8C1189.5,903.8,1193.5,905.1,1198.9,905.2
						z"/>
				</g>
				<g>
					<path class="st4" d="M2475.5,1062.4c-4.1,1.2-3.9,2.8,0.3,4c3.6,1,10,1.2,14,0.1c3.4-1,3.3-3-0.3-4
						C2485.4,1061.3,2478.9,1061.5,2475.5,1062.4z"/>
				</g>
				<g>
					<path class="st4" d="M2437.4,1186.1c-23.8,2-46.5,4.4-66.6,8.4c-3.8,0.6-8,0.4-11.2-0.3c1.4,2.6-3.2,4.8-11.8,5.8
						c-21.2,2.4-42.5,4.5-64,6.7c-21.5,2.1-43.2,4.1-65,5.9c-43.6,3.7-87.8,6.8-132.3,9.5c-44.5,2.7-89.2,5.4-134.1,8.2
						c-44.8,2.7-89.7,5.3-134.5,8c-1.2,2-3.6,4.1-7.6,6c-6.2,3.2-15.5,5.6-26.5,7.1c-11,1.5-23.6,2.1-36.5,1.6l-19.5-1.5
						c-78.6-3.2-157-6.3-235.1-9.4c-16,3.1-34.5,5.2-54.6,6c-33.7,4.3-67.5,8.5-101.5,12.4c-17,2-34.1,3.8-51.2,5.7
						c-17.1,1.9-34.3,3.7-51.6,5.4c4.4,1.7,7,3.8,7,6.1c-1.3,5.5-17.2,9.9-35.9,9.9c-9.4,0.3-18.9,0.5-28.3,0.8
						c27.1,0.9,54.2,1.9,81.2,3.1c3.9,0,7.5,0.3,10.8,0.8c14.8-0.1,29.8-0.3,44.8-0.4c15-0.2,30.1-0.5,45.4-0.9
						c266.1-7.9,516.4-28.8,765.2-51.5c4.1-0.8,10.5-0.7,14.1,0.7c2.4,1.3,2,3.1-2.6,3.8c-19.6,3.3-38.9,6.8-57.9,10.3
						c-19.1,3.5-37.9,7.1-56.7,10.9c-37.5,7.5-74.7,15.1-112.5,22.5c-37.8,7.3-76.2,14.4-116.2,20.7c-40,6.5-81.6,12.3-125.8,17
						c-210.4,22.2-417.9,43-633.1,60.4c-56.3,1.1-111.6,3-166.4,5.5c-27.4,1.3-54.7,2.6-81.9,4.1c-27.2,1.6-54.4,3.4-81.6,5.2
						c-54.4,3.7-109,7.6-164.3,11.6c-55.3,4.3-111.3,8.7-168.6,12.9c-309.7,23.3-602.3,37.7-905.3,54.4
						c-56.7,5.2-111.3,3.4-153.8-3.7c-10.6-1.7-20.5-3.9-29.5-6.2c-9-2.3-17-5-24-7.9c-14-5.8-23.7-12.8-27.8-20.6
						c-9.7-19.1,15-39.2,61.1-54.4c-9.3,0.4-18.5,0.8-27.8,1.1l-44.2-1.4c-41.8-1.5-77.8-7.5-100.9-17.2l-31.6-11.8
						c-10.6-5.9-22.8-11.4-35.7-16.7c-12.9-5.4-26.4-10.6-39.8-15.7c-26.7-10.4-52.4-21-70-33.4l6.9-10.6l-8.1-2.5
						c-26.7-5.8-45-14.4-51.7-24.4l1.7-12.5c4.6-14.4,16.9-28.5,37.2-42.3c-1.1-5.2,1.2-10.5,6.3-15.6
						c-18.8-11.5-28.2-24.2-14.8-39.7c-11.1-3-9.6-8.4,3.1-12.3c4.4-1.3,9.7-2.3,15.2-2.9c-0.1,0-0.1,0-0.1,0
						c-6.1-2.8-8-3.7-16.2-6.7c-10.8-0.4-17.1-0.8-17.1-0.8c-28.8-0.4-28.8-0.4-53.8-0.9c-21.7-3-35.3-8.2-35.3-8.2
						c-25.1-20.5-25.1-20.5-22.1-30.2c1.3-1,2.8-2,4.4-3c-19.2-2-20.5-2.1-25.7-2.8c-5.5-1.4-9.3-3.1-9.3-3.1
						c-1.2-5.1-1.2-5.1-4.5-6.7c-1.2-1.9-1.1-3.8-1.1-3.8c10.2-6.3,10.2-6.3,10.4-8c2.4-1.7,5.8-3.1,5.8-3.1
						c12.3-2.5,17.2-3.5,19.3-3.9c27.5,11.5,27.5,11.5,27.5,11.5c5.5-4.9,5.5-4.9,5.5-4.9c6.6,5.7,6.6,5.7,6.6,5.7
						c-3.9-5.3-3.9-5.3-3.9-5.3c13.7,2.5,13.7,2.5,13.7,2.5c-15.7-3.9-15.7-3.9-15.7-3.9c32,0,32,0,44.7-1
						c13.3-0.2,24.5-2.2,25.9-2.4c-1.2-1.7-1.4-2.9-1.4-2.9c34.2,0,34.2,0,67.5,0.3c3.2,1,5.7,2.1,8,3.2c3.1-1.7,9.4-3,16-3
						c5.8,0,11.7-0.1,17.5-0.1c1.3-0.4,2.5-0.7,3.7-1c0-0.3-0.1-0.4-0.1-0.4c5.9-1.4,9.9-2.4,14.5-3.5c2.9-0.8,3-0.8,3-0.8
						c0,0,0.1,0,0.2,0.1c10-2.4,24.5-5.8,63-15c10.3,0.1,20,0.4,29.1,1c-3-0.6-5.8-1.3-8.6-2c-5.5-1.5-0.9-6.6-3.8-6.9
						c-18.3-1.6-37.1-2.7-56.1-3.6c-19-0.8-38.3-1.5-57.7-1.8c-38.9-0.6-78.4-0.6-117.6-0.9c-14,1.5-27.3-0.6-29.6-4.4
						c-2.1-3.9,7.7-8.2,22-9.6c39.2-9.1,80.8-16.4,123.7-22.2c5.4-0.7,10.7-1.4,16.1-2.1c5.4-0.6,10.8-1.2,16.3-1.8
						c10.9-1.2,21.8-2.3,32.8-3.3c22-2,44.1-3.6,66.3-4.8c44.4-2.4,89.1-3.4,132.9-3.1c43.8,0.6,86.7,2.5,127.7,5.6
						c43,0.3,86.2,0.3,129.6,0.1c-2.1-0.7-4.2-1.4-6.3-2.2c11.3,0.7,22.5,1.4,33.7,2.2c1.2,0,2.4,0,3.6,0
						c-8.6-2.6-17.3-5.2-25.8-7.8c-5.9-0.7-11.8-1.2-17.7-1.7c-50.2,0.8-98.3-1.1-146-3.7c-47.7-2.5-95-5.9-143.7-7.4
						c-52.4-1.8-97.6-7.7-147.2-11.2c-12.7,0.2-21.7-2.5-20.4-6.2c1.3-3.6,13-6.7,25.4-7c41-3.9,83.5-7.2,126.3-9.5
						c21.4-1.2,42.8-2.1,64.2-2.7c21.4-0.5,42.7-0.8,63.7-0.8c42.1,0,83.2,1.3,122.1,4c19.5,1.4,38.4,3.1,56.6,5.2
						c18.2,2.1,35.7,4.8,52.3,7.8c30-1.2,59.1-0.1,83.3,4.3c0.4,0,0.9,0,1.3,0c-6.4-2.2-12.4-4.4-18.8-6.6c22.5,0.8,34.8,6.4,55.4,8
						c-2.5-3.3-5.5-6.5-8-9.8c27.8,0.3,56,0,84.5-0.5c14.2-0.3,28.5-0.4,42.7-0.6c14.2-0.2,28.5-0.3,42.6-0.5
						c56.7-0.4,112.4,0.2,163.9,5.4c4.1,0,8,0.2,11.9,0.4c43.9-8.8,88.3-17.2,140.6-20.1c-17.8-0.5-35.1-0.9-52.9-1.4
						c37.9-5.7,75.5-10.1,116.2-11.1c55.1-1.7,113.7,0.9,165.8,6.6c52.1,5.8,97.8,15,127.3,27.4c13.3-0.6,26.7-1.2,40-1.7l40-1.6
						c26.7-1.1,53.4-2.1,80-3.2c53.4-2.1,106.7-4.5,160.1-6.3c53.4-2,106.7-4.1,160-6.4c13.3-0.6,26.7-1.2,40-1.7
						c13.3-0.5,26.7-1.1,40-1.6c26.6-1.1,53.3-2.3,79.9-3.4c11-0.6,20.9,1.4,22.9,4.4c1.2,3-6,6-17,6.6
						c-38.2,3.2-76.5,6.1-114.9,8.7c-38.4,2.8-76.9,5.4-115.5,7.8c-38.6,2.4-77.2,4.7-116,6.8c-9.7,0.5-19.4,1.1-29,1.6
						c-9.7,0.6-19.4,1.1-29.1,1.7c-19.4,1.1-38.8,2.2-58.1,3.3c32.5,0.5,65,0.9,97.5,1.4c32.6,0.6,65.2,1.1,97.9,1.4
						c32.7,0.4,65.6,0.6,98.5,0.6c16.5,0,33,0,49.5-0.1c16.5,0,33.1,0,49.7-0.1c16.9-0.7,34-1.4,51-2.1c16.9-0.7,33.6-0.1,50.3,0.9
						c21.2-0.3,42.3-0.5,63.3-0.8c10.5-0.1,21-0.3,31.4-0.4c10.5-0.1,20.9-0.2,31.3-0.3c41.7-0.3,83.2-0.7,124.8-1.4
						c20.8-0.3,41.6-0.7,62.5-1.2c20.9-0.5,41.8-1,62.9-1.5c42.1-1.1,84.7-2.5,128-4.6c74-3.7,143.4-7.1,212.7-10.6
						c69.3-3.6,138.6-7.8,212.3-11.8c51.8-3,102.4-5.9,152.5-8.7c12.5-0.7,25-1.4,37.4-2c12.4-0.6,24.9-1.2,37.2-1.8
						c24.8-1.1,49.5-2.2,74.2-3.1s49.3-1.8,74-2.5c12.4-0.3,24.7-0.7,37.1-1c12.4-0.3,24.8-0.6,37.2-0.7
						c49.7-0.6,99.9-0.6,151.1,0.3c27.2-0.5,52.3,5.6,55.4,13.4c3.1,7.7-16.7,14.5-44.1,15c-53.4,2.1-106.6,4.2-159.8,6.3l-19.9,0.8
						l-19.9,0.9c-13.3,0.6-26.6,1.2-39.9,1.8c-26.6,1.2-53.1,2.4-79.7,3.6c-26.6,1.2-53.1,2.3-79.7,3.5c-13.3,0.6-26.6,1.1-39.9,1.7
						c-13.3,0.6-26.6,1.2-39.9,1.9c-53.2,2.4-106.5,4.7-159.9,6.8c-13.4,0.5-26.7,1-40.1,1.5c-13.4,0.5-26.8,1.1-40.2,1.6
						c-26.8,1.1-53.6,2.1-80.5,3c-26.9,0.9-53.8,1.8-80.8,2.6c-27,0.7-54.1,1.5-81.2,2.2c-54.3,1.5-108.8,2.6-163.8,3.3
						c-13.7,0.1-27.5,0.3-41.3,0.4c-13.8,0.1-27.6,0.2-41.4,0.4c-27.6,0.3-55.4,0.4-83.2,0.4c-48.1,0-95.4,0-142.4-0.1
						c0.6,1,1.2,2.1,1.2,3.1c0,4.2-4.4,8.1-11.9,11.5c53.4,0.5,107.2,1.7,161.3,3.4c18.8-1.3,37.5-2.5,56.3-3.8
						c18.8-1.2,37.6-2.5,56.5-3.6c37.7-2.1,75.6-4.1,113.8-5.6s76.7-2.6,115.7-3.1c39-0.3,78.4,0.1,118.4,1.2
						c27.5,0.9,54.3,2.1,80.7,3.6c13.2,0.7,26.3,1.5,39.2,2.4c6.5,0.4,13,0.9,19.4,1.3c6.5,0.5,12.9,1,19.3,1.5
						c51.3,4.1,101.6,8.8,152.4,13.3c32.2-1,64.4-2,96.6-3.1c32.2-0.9,64.4-1.9,96.7-2.8c32.3-0.9,64.6-1.8,96.9-2.7
						c16.2-0.4,32.4-0.8,48.6-1.2c16.2-0.3,32.5-0.5,48.8-0.8c5.2-0.5,10.6,0.4,12.4,2c1.8,1.5-1,3-6.2,3.4
						c-22.4,2-44.9,3.8-67.6,5.6c-22.7,1.8-45.4,3.6-68.3,5.2c-45.7,3.3-91.8,6.1-138.1,8.8c14.5,5,23.1,11.3,21.9,18.2
						c-1.2,7.1-12.6,13.3-29.9,17.5l62.8,1.3c12.9,0.4,23.1,3.3,22.7,6.8c-0.3,3.8-10.7,6.4-23,6.2c-21.4-0.4-42.7-0.7-64.1-1.1
						c-10.7-0.2-21.3-0.4-32-0.6l-32-0.4c-42.7-0.6-85.3-1.1-128-1.7c-25.6,0.8-51.2,1.5-76.8,2.3c-12.8,0.3-25.6,0.8-38.4,1.2
						l-38.4,1.2c-51.1,1.6-102.3,3.1-153.6,4.4c14.2,4.7,24.7,10.5,29.7,17c0,0,0,0.1,0,0.1c15.9-0.2,31.7-0.3,47.5-0.5
						c289.7-19.5,586.6-27.5,885.6-17.7c5.9,0.1,10.7,1.4,10.7,3.1c0.1,1.6-4.5,2.9-9.7,2.7c-45.1-1.4-90.2-2.4-135.2-3.2
						c-22.5-0.4-45-0.7-67.5-0.9c-11.2-0.1-22.5-0.2-33.7-0.3c-11.2-0.1-22.5,0-33.7,0c0.2,0,0.2,0.1,0.4,0.1c3.6,1,4.3,2.9,0.3,4
						c-3.5,1-10.5,0.9-14.1-0.1c-4.1-1.2-3.7-3-0.3-4c-41.8,0.2-83.5,0.6-125.2,1.2c-41.6,0.7-83.2,1.5-124.6,2.9
						c-41.4,1.4-82.8,2.9-124,4.7c-20.6,0.9-41.2,1.8-61.7,2.9c-10.3,0.5-20.5,1-30.8,1.6c-10.3,0.6-20.5,1.2-30.7,1.8l28.5-0.3
						l28.5-0.1l57.1-0.1c38,0,76.1,0.1,114.1,0.3c19,0.2,38,0.3,57,0.5c19,0.3,38,0.7,57,1c38,0.8,76,1.8,114,3
						c16.6-1.8,33.1-3.7,50-5.4c4.6-0.3,10.6,0.7,12.4,2.2c1.3,1.4-2.1,3-6.8,3.3c-4.7,0.4-9.3,0.9-14,1.3
						c14.4,0.5,27.1,2.5,36.1,5.5c9,3,14.4,6.9,14.1,11.1c-1.7,8.6-26.5,14.9-56.4,14.2c-40,0.3-79.9,0.5-119.8,0.5
						c-39.9-0.1-79.7-0.2-119.6-0.3c-8.6,0.4-17.2,0.9-25.9,1.3c-8.7,1.3-17.3,2.6-26,3.9c31,1.1,61.9,2.1,92.9,3.3
						c30.9,1.3,61.8,2.7,92.7,4c30.9,1.4,61.7,2.8,92.5,4.2c30.8,1.4,61.6,2.8,92.3,4.5c10.5,0.1,19.5,2.7,19.7,5.7
						c0.2,3-8.4,5.4-19,5.3c-13.5,0.5-27.1,1-40.7,1.5c-13.6,0.5-27.1,1.1-40.7,1.6c-27.2,1-54.4,2-81.6,3
						c-27.2,0.9-54.5,1.8-81.8,2.7c-13.6,0.4-27.3,0.8-41,1.2c-13.7,0.4-27.3,0.9-41,1.3c-54.7,1.7-109.5,3.3-164.4,4.6
						c-54.9,1.4-109.8,2.7-164.8,4.1c-36.1,6.4-72.3,12.9-108.6,19.4c-9.1,1.6-18.2,3.2-27.3,4.8c-9.1,1.7-18.2,3.3-27.4,5
						c-18.3,3.3-36.6,6.6-55,9.9c9.3,0.2,18.7,0.3,28.1,0.3c14.9-0.1,29.7-0.3,44.4-0.6c14.7-0.4,29.2-0.7,43.7-1.2
						c28.9-1,57.3-2.4,85.4-4.2c28.1-1.7,55.9-3.8,83.6-6.1c27.6-2.4,55.1-4.7,82.5-7c109.6-9.4,218.3-20.1,334.2-22.2
						c5.8-0.3,10.6,1,11.4,2.6c0.6,1.5-3.3,3-9.2,2.9c-28.3,0.9-55.9,2.3-83.3,4c-13.7,0.9-27.3,1.7-40.8,2.8
						c-13.5,1.1-27,2.2-40.5,3.3c-54,4.5-107.8,9.5-163.9,13.6c-11.6,0.8-23.1,1.7-34.6,2.5c-11.5,0.8-22.9,1.8-34.2,2.7
						c-22.7,1.8-45.1,3.6-67.4,5.5c-44.5,3.8-88.1,7.9-131.2,12.7c44.1-0.8,87.7-2.4,131.1-4.5c21.7-1,43.3-2.2,64.9-3.4
						c10.8-0.6,21.6-1.2,32.4-1.8c10.8-0.6,21.6-1.2,32.3-1.8c43.1-2.4,86.1-4.8,129.3-7.1c43.2-2.2,86.6-4.4,130.3-5.6
						c7.6-0.6,15.3,0.2,20.2,1.9c0.4-0.8,2-1.6,4.3-2.1c21.9-3.9,45.7-6.6,70.1-8.7c4.7-0.6,10.5,0.1,13,1.8
						C2445.4,1183.8,2442.6,1185.3,2437.4,1186.1z M260.2,1731.5c-1.7-0.6-3.2-1.1-4.5-1.6c4.8,0.7,9.9,1.4,15.6,2.3
						c0,0,0,0,22.2,11.1C293.6,1743.3,276.8,1737.5,260.2,1731.5z M-8,1791.4c0,0,0,0,0.2,0c-7.4-3.6-12.8-6.1-12.8-6.1
						C-15.5,1787.8-11.4,1789.8-8,1791.4z M817.7,954.6c-11.7,0.2-23.3,0.4-34.9,0.5c-11.6,0.1-23.2,0.2-34.9,0.4
						c-23.2,0.2-46.4,0.1-69.5-0.1c-46.3-0.5-92.5-2-138.6-4.7c22.5-1.2,44.9-2.5,67.4-3.7c35,0.9,70,2,105.1,3.3
						c17.5,0.7,35.1,1.3,52.7,2l13.2,0.5l13.2,0.6C800.1,953.8,808.9,954.2,817.7,954.6z M75.9,1695.3c24.9,4.9,44.4,11.7,62.9,18.7
						c8-1.2,16.2-2.2,24.6-2.9c8.3-0.7,16.8-1.2,25.3-1.5c45.8-1.5,90.6-2.2,134.6-2.2c-5.9-4,4.6-4,10-4.8c5.5-0.6,11-1.3,16.5-1.9
						c-47-0.6-94.2-1.5-142.2-2.7C164.2,1696.9,117.2,1697.8,75.9,1695.3z M-250.3,1731.5c-1.4-0.5-2.6-0.9-4.1-1.3c0,0,0,0,8.3-7
						C-246.1,1723.2-248,1726.7-250.3,1731.5z M-263.4,1743.2c2.2,0.2,4.4,0.3,6.8,0.5C-258.9,1746.3-261.2,1745.5-263.4,1743.2z
						 M-201.4,1747.5c-3.7-1.5-6-2.4-8.9-2.9C-201.4,1747.5-201.4,1747.5-201.4,1747.5z M-146,1933.8l21.9-33.6l-24.2,32.5
						L-146,1933.8z"/>
				</g>
			</g>
		</g>
		<g>
			<g>
				<path class="st5" d="M-261.4,2041.5c3.8,0.9,7.6,1.9,11.3,2.8c-7.2,1.9-17.9,2-30.1,1.3c29.6,5.5,61.5,8.6,94.3,9.8
					c16.4,0.6,33,0.7,49.7,0.5c16.7-0.2,33.3-0.8,49.9-1.7c66.2-3.8,130.2-13.4,180.3-25.2c36.2,0.8,68.4-6,71.9-15.4
					c3.4-9.4-23.3-17.8-59.9-18.7c-8-1.2-17.4-1.8-23.3-3.4c-52.2-14.3-116-24-186.4-31.1c13.6,2.7,27.7,5.4,41.3,8.1
					c-20.3-2.2-40.4-4.5-63.1-4.5c2.4,1.7,5.5,3.4,7.9,5.2c-8.8-1.5-17.9-2.8-27.3-3.8c-9.4-1-19.1-1.6-28.9-2
					c-19.6-0.8-39.6-0.7-59,0.4c-38.7,2.2-74.7,8.2-98.8,17.4c-48.3,18.5-30.8,43,39.1,54.7L-261.4,2041.5z"/>
			</g>
			<g>
				<path class="st5" d="M-130.7,2094.8c-10.4-1.5-20.8-3-31.1-4.5c-10.3-1.5-20.5-3-30.6-4.5c-20.3-3.1-40.4-6.2-60.5-9.4l-8-3.1
					l2.8,14.4l0.8-0.9c18.7-6.3,43.6-10.8,70.9-14.3c13.7-1.7,27.9-3.2,42.3-4.5c14.4-1.2,29-2.2,43.3-3.2l20.4-2.2
					c9.8-1.9,16.2-4.8,18.2-7.8c4.7-7-13.1-13.4-39.8-14.5l-30.7-1.1c-4.7-0.5-9.5-1-14.5-1.4c-5-0.4-10.1-0.8-15.3-1.1
					c-10.5-0.6-21.4-1.1-32.5-1.4c-22.2-0.6-45.2-0.4-67.2,0.8c-44,2.4-83.7,8.9-104.4,21.4c-9.3,5.8-1,12.9,1.1,19.5
					c-2.7,9.6,25.5,17.7,62.8,17.9c37.4,0.3,69.4-7.3,71.8-17c6.3,0.6,12.9,1.2,19.1,1.8c-4.9,1.3-9.9,2.4-14.9,3.6
					c10.5-8.5,44.5-10.7,69.8-15.4c12.7-0.9,25.3-1.7,38-2.6l-21.6-22.3c-6.6,1-13.2,2.1-19.8,3.1c1.5,0.9,4.4,2.3,4.2,2.4
					c-37.6,6.5-72.9,13-114.1,17.4l-51.7,8.7c-14,4.4-12.5,10.7,2.8,14.5l23,4.6c-3.5-1-7-1.8-10.4-2.8c53,4.5,108.9,6.9,161.3,11.7
					c8.3,1,18.4,0,22.7-2.2C-118.5,2098.3-122.1,2095.7-130.7,2094.8z"/>
			</g>
			<g>
				<g>
					<path class="st5" d="M-317.6,2099.7c-8.6-1.6-16.9-3.4-29.1-2.8c-2.9,1-4.4,1.6-5.2,1.8c4.5,1,10.7,2.3,16.8,3.7
						C-323,2105-316.8,2102.8-317.6,2099.7z"/>
				</g>
				<g>
					<path class="st5" d="M-351.9,2098.7c-4.2-0.9-7-1.5-7-1.5c1.6,0.7,3.2,1.4,4.7,2.1c1.3-0.2,1.4-0.2,1.4-0.2
						S-352.8,2099.1-351.9,2098.7z"/>
				</g>
				<g>
					<path class="st5" d="M1062.2,1432.7c81.9,5.7,163.8,12,245.9,17.6c20.5,1.4,41,2.8,61.6,4.2l15.4,1l15.4,1.1l30.8,2.2
						c41.1,2.9,82.1,5.8,123.2,8.7c5.5,0.4,10.2-0.4,10.5-1.8c0.3-1.2-3.9-2.7-9-3c-164.4-11.7-327.9-23.4-491.5-35.1
						c-5.5-0.3-10.1,0.5-10.9,1.8C1053.3,1430.9,1057.1,1432.3,1062.2,1432.7z"/>
				</g>
				<g>
					<path class="st5" d="M2278.9,1642.7c-4,0.8-3.9,2.2,0,3.5c3.4,1.1,9.5,1.7,13.5,0.9c3.3-0.7,3.3-2.4-0.1-3.5
						C2288.4,1642.3,2282.2,1642.1,2278.9,1642.7z"/>
				</g>
				<g>
					<path class="st5" d="M2235.9,1748.7c-23,0.4-44.8,1.1-64.4,3.4c-3.6,0.3-7.7-0.1-10.7-0.9c1.2,2.3-3.3,4-11.6,4.4
						c-20.4,0.9-41,1.5-61.8,2.1c-20.8,0.6-41.7,1.1-62.7,1.4c-42,0.7-84.6,0.8-127.4,0.7c-85.6-0.4-172.4-0.8-258.5-1.2
						c-1.2,1.7-3.6,3.4-7.6,4.8c-6.1,2.5-15.1,4-25.8,4.7c-10.6,0.7-22.8,0.5-35.1-0.7l-18.6-2.4c-75.2-7.2-150.3-14.3-225.1-21.4
						c-15.5,1.8-33.4,2.6-52.7,2.2c-32.6,1.9-65.2,3.7-98,5.2c-16.4,0.8-32.9,1.5-49.4,2.1c-16.5,0.7-33.1,1.4-49.8,1.9
						c4.1,1.7,6.6,3.7,6.4,5.7c-1.5,4.8-17.1,7.7-35,6.7c-9.1-0.3-18.1-0.6-27.2-0.9c25.9,2.3,51.9,4.6,77.8,7.1
						c3.7,0.2,7.2,0.7,10.3,1.3c14.2,0.7,28.6,1.4,43,2.1c14.4,0.7,28.9,1.2,43.6,1.7c255.7,7.6,496.9,3.5,736.7-2
						c4-0.5,10.1,0,13.5,1.4c2.2,1.3,1.7,2.9-2.7,3.2c-19,1.8-37.6,3.7-56.1,5.7c-18.5,2-36.7,4-54.9,6.3
						c-36.4,4.4-72.4,9-109.1,13.3c-36.6,4.3-73.8,8.2-112.5,11.5c-38.7,3.5-78.9,6.2-121.6,7.9c-203,7.6-403.1,14.5-610.5,18.2
						c-54.1-2-107.2-3.2-159.9-4c-26.3-0.4-52.6-0.6-78.8-0.7c-26.2,0-52.4,0.1-78.6,0.3c-52.4,0.4-105,1-158.2,1.7
						c-53.3,0.9-107.2,2-162.4,2.7c-37.3,0.5-74.3,0.9-111.1,1.4c-36.8,0.5-73.4,0.8-109.9,1.1c-36.5,0.3-72.7,0.3-108.9,0.4
						c-36.2,0.2-72.3,0.4-108.3,0.4c-36,0.1-72,0-108-0.1c-36,0-72,0.1-108,0.1c-36,0-72.1-0.1-108.3-0.1c-9,0-18.1,0-27.2-0.1
						c-4.5,0-9.1,0-13.6,0c-4.5,0-9.1,0-13.6,0c-18.2,0.1-36.3,0.1-54.6,0.2c-54.6,1.9-107-2.3-147.4-10.4c-10.1-2-19.5-4.3-28-6.8
						c-8.5-2.5-16.1-5.1-22.6-8c-13.1-5.7-22-12.3-25.6-19.3c-8.3-17.2,16.4-33.7,61.4-44.9c-9-0.1-17.8-0.2-26.7-0.3l-42.3-3.2
						c-40.1-3.2-74.3-10.1-95.9-19.7l-29.7-11.8c-9.9-5.6-21.3-11-33.4-16.3c-12.1-5.3-24.8-10.5-37.4-15.6
						c-25.1-10.3-49.2-20.7-65.5-32.4l7.2-9l-7.7-2.5c-25.3-6.3-42.4-14.6-48.4-23.7l2.3-10.8c5.2-12.4,17.7-24.2,37.9-35.4
						c-0.8-4.6,1.6-9.1,6.9-13.4c-17.4-10.9-25.8-22.4-12.2-35.4c-10.5-3.1-8.8-7.8,3.6-10.7c4.3-1,9.4-1.6,14.7-1.8
						c-0.1,0-0.1,0-0.1,0c-5.8-2.8-7.5-3.6-15.2-6.6c-10.4-0.8-16.4-1.5-16.4-1.5c-27.6-1.6-27.6-1.6-51.6-3.2
						c-20.6-3.6-33.4-8.7-33.4-8.7c-23-19.1-23-19.1-19.6-27.5c1.3-0.8,2.8-1.7,4.4-2.4c-18.3-2.6-19.6-2.8-24.5-3.6
						c-5.2-1.4-8.7-3.1-8.7-3.1c-0.9-4.5-0.9-4.5-4-6.1c-1-1.7-0.8-3.4-0.8-3.4c10.1-5.1,10.1-5.1,10.4-6.5c2.4-1.4,5.7-2.5,5.7-2.5
						c11.9-1.6,16.7-2.3,18.7-2.6c25.8,11.3,25.8,11.3,25.8,11.3c5.5-4.1,5.5-4.1,5.5-4.1c6,5.3,6,5.3,6,5.3
						c-3.4-4.9-3.4-4.9-3.4-4.9c13,2.8,13,2.8,13,2.8c-14.9-4.1-14.9-4.1-14.9-4.1c30.7,1.5,30.7,1.5,42.9,1.1
						c12.8,0.4,23.7-0.8,25-1c-1.1-1.5-1.2-2.6-1.2-2.6c32.8,1.5,32.8,1.5,64.8,3.3c3,1,5.3,2.1,7.5,3.1c3.1-1.4,9.2-2.2,15.5-1.9
						c5.6,0.2,11.2,0.5,16.8,0.7c1.3-0.3,2.5-0.5,3.6-0.7c0-0.2,0-0.4,0-0.4c5.7-1,9.6-1.6,14.1-2.4c2.8-0.6,2.9-0.6,2.9-0.6
						c0,0,0.1,0,0.2,0.1c9.7-1.6,23.8-4,61.2-10.2c9.9,0.5,19.2,1.3,27.9,2.2c-2.8-0.7-5.5-1.4-8.1-2.2c-5.2-1.5-0.5-5.8-3.3-6.2
						c-17.5-2.2-35.4-4.1-53.6-5.7c-18.2-1.6-36.7-3.1-55.3-4.2c-37.3-2.3-75.2-4-112.8-6.1c-13.5,0.7-26.2-1.7-28.2-5.2
						c-1.8-3.5,7.8-6.8,21.6-7.4c38.1-6.2,78.4-10.8,119.8-13.9c5.2-0.4,10.4-0.8,15.6-1.1c5.2-0.3,10.5-0.6,15.7-0.9
						c10.5-0.5,21-1,31.6-1.3c21.2-0.7,42.5-1.1,63.9-1.2c42.8-0.1,85.7,1.1,127.7,3.4c42,2.5,83.1,6.3,122.3,10.9
						c41.3,2.3,82.7,4.3,124.4,6.2c-2-0.7-4-1.4-5.9-2.2c10.8,1.2,21.5,2.3,32.3,3.5c1.2,0.1,2.3,0.1,3.5,0.2
						c-8.2-2.7-16.3-5.4-24.4-8c-5.6-0.9-11.2-1.6-16.9-2.3c-48.3-1.7-94.3-5.6-139.9-10.1c-45.6-4.4-90.8-9.6-137.5-13.2
						c-50.2-4-93.3-11.3-140.7-16.6c-12.2-0.4-20.7-3.1-19.3-6.4c1.4-3.1,12.8-5.3,24.7-5c39.6-1.6,80.5-2.5,121.7-2.5
						c20.6,0,41.2,0.1,61.8,0.5c20.5,0.5,41,1.3,61.2,2.3c40.4,2,79.8,5,117,9.2c18.6,2.1,36.7,4.5,54,7.2c17.4,2.7,34,5.9,49.8,9.3
						c28.9,0.4,56.7,2.7,79.7,7.7c0.4,0,0.9,0.1,1.3,0.1c-6.1-2.3-11.7-4.4-17.7-6.7c21.6,1.8,33,7.3,52.7,9.7c-2.2-3-5-6-7.2-9
						c26.6,1.6,53.8,2.7,81.1,3.6c13.7,0.4,27.3,1,41,1.5c13.7,0.6,27.3,1.1,40.9,1.7c54.4,2.4,107.8,5.7,157,12.8
						c4,0.2,7.7,0.6,11.4,1c42.5-5.5,85.6-10.7,136-10.5c-17-1.3-33.7-2.5-50.7-3.8c36.6-3.1,72.9-5.1,112.1-3.9
						c53,1.3,109,6.5,158.7,14.2c49.7,7.7,93.1,18.1,120.7,30.5c12.8,0.1,25.7,0.4,38.5,0.6l38.5,0.7c25.7,0.5,51.3,0.9,77,1.4
						c51.3,0.9,102.7,1.6,154,2.8c51.3,1.1,102.6,2.1,153.9,2.9c12.8,0.2,25.6,0.4,38.5,0.6c12.8,0.3,25.6,0.5,38.4,0.8
						c25.6,0.4,51.2,0.9,76.8,1.3c10.6,0.1,20,2.4,21.8,5.1c1,2.7-6.1,4.9-16.7,4.8c-36.8,0.7-73.7,1.2-110.7,1.4
						c-37,0.4-74.1,0.7-111.2,0.7c-37.2,0.1-74.4,0-111.6-0.2c-9.3-0.1-18.6-0.1-28-0.2c-9.3,0-18.6,0-28,0c-18.6,0-37.3-0.1-56-0.1
						c62.2,4.2,124.6,8.5,187.4,12.7c31.4,2,62.9,4,94.5,5.8c15.8,0.9,31.7,1.7,47.5,2.6c15.9,0.9,31.8,1.8,47.7,2.6
						c16.3,0.3,32.7,0.6,49.1,1c16.2,0.3,32.3,1.7,48.2,3.5c20.4,0.9,40.6,1.8,60.8,2.7c10.1,0.5,20.1,0.9,30.2,1.4
						c10,0.5,20.1,1,30.1,1.5c40,2,79.8,3.9,119.8,5.7c20,0.9,40,1.7,60,2.4c20.1,0.7,40.2,1.4,60.4,2.2c40.5,1.4,81.4,2.5,123,3.1
						c71.2,1,137.9,1.9,204.6,2.7c66.7,0.8,133.3,1.1,204.3,1.8c49.8,0.4,98.6,0.8,146.7,1.2c12,0.1,24,0.2,36,0.4
						c12,0.2,23.9,0.4,35.8,0.7c23.8,0.5,47.6,1,71.3,1.6c23.7,0.6,47.4,1.3,71.2,2.2c11.9,0.4,23.7,0.9,35.6,1.3
						c11.9,0.5,23.8,1,35.7,1.6c47.7,2.5,95.9,5.5,144.9,9.4c26.1,1.2,49.9,8,52.4,15c2.6,7-16.8,11.7-43,10.4
						c-51.3-1.4-102.5-2.7-153.6-4.1l-19.2-0.5l-19.2-0.4c-12.8-0.3-25.6-0.5-38.3-0.8c-25.6-0.5-51.1-1-76.6-1.6
						c-25.5-0.6-51.1-1.1-76.6-1.7c-12.8-0.3-25.6-0.6-38.3-0.8c-12.8-0.2-25.6-0.5-38.4-0.7c-51.2-1-102.4-2-153.8-3.3
						c-12.8-0.3-25.7-0.7-38.5-1c-12.9-0.3-25.7-0.6-38.6-0.9c-25.8-0.6-51.6-1.3-77.4-2c-25.8-0.7-51.7-1.5-77.7-2.4
						c-25.9-0.9-52-1.8-78-2.7c-52.2-1.7-104.6-3.8-157.3-6.3c-26.4-1.3-52.8-2.6-79.3-3.9c-26.5-1.3-53.2-2.7-79.9-4.2
						c-46.1-2.7-91.5-5.3-136.6-7.9c0.5,0.9,1,1.9,1,2.8c-0.2,3.7-4.6,6.9-12,9.4c51.2,3.4,102.8,7.4,154.6,11.9
						c18.1-0.1,36.1-0.2,54.2-0.2c18.1-0.1,36.2-0.1,54.3,0c36.3,0.2,72.7,0.7,109.4,1.5c36.7,0.8,73.7,2,111.1,3.8
						c37.4,1.9,75.2,4.5,113.6,7.8c26.3,2.3,52,4.9,77.2,7.7c12.6,1.4,25.1,2.9,37.5,4.3c6.2,0.8,12.4,1.5,18.6,2.3
						c6.2,0.8,12.3,1.6,18.4,2.4c49,6.6,97,13.6,145.5,20.5c15.5,0.5,30.9,1,46.4,1.5c15.5,0.5,30.9,0.9,46.4,1.5
						c30.9,1.1,61.9,2.2,92.9,3.3c31,1.1,62,2.3,93.1,3.4c15.5,0.6,31.1,1.2,46.7,1.9c15.6,0.8,31.2,1.5,46.8,2.3
						c5-0.1,10.1,1,11.8,2.5c1.7,1.5-1.1,2.6-6.2,2.6c-21.6,0.4-43.3,0.6-65.1,0.9c-21.8,0.3-43.8,0.4-65.8,0.5
						c-44,0.1-88.4-0.1-132.9-0.5c13.7,5.2,21.6,11.3,20.1,17.2c-1.5,6.1-12.8,10.9-29.6,13.6l60.2,4.8c12.4,1.1,22,4.2,21.4,7.3
						c-0.5,3.3-10.6,5-22.4,4.1c-20.5-1.6-40.9-3.2-61.4-4.8c-10.2-0.8-20.5-1.6-30.7-2.4l-30.7-2.2c-40.9-3-81.8-5.9-122.7-8.9
						c-24.6-0.8-49.2-1.6-73.8-2.4c-12.3-0.5-24.6-0.8-36.9-1.2l-36.9-1.1c-49.1-1.5-98.3-3.1-147.6-4.9
						c13.4,4.9,23.1,10.6,27.6,16.5c0,0,0,0.1,0,0.1c15.2,0.8,30.4,1.5,45.6,2.3c278.9-0.5,564.1,9.8,850.4,36.6
						c5.6,0.4,10.2,1.9,10.1,3.4c0,1.4-4.5,2.3-9.5,1.8c-43.2-3.9-86.4-7.5-129.5-10.9c-21.6-1.7-43.1-3.3-64.7-4.8
						c-10.8-0.8-21.5-1.5-32.3-2.3c-10.8-0.7-21.5-1.3-32.3-2c0.1,0,0.2,0.1,0.3,0.1c3.4,1.1,3.9,2.8,0,3.5
						c-3.4,0.7-10.1,0.2-13.5-0.9c-3.9-1.3-3.4-2.8-0.1-3.5c-40.1-2.3-80.2-4.4-120.1-6.3c-40-1.8-79.9-3.7-119.7-4.8
						c-39.8-1.2-79.6-2.2-119.2-3.1c-19.8-0.4-39.6-0.7-59.4-1.1c-9.9-0.1-19.8-0.3-29.6-0.4c-9.9-0.1-19.7-0.1-29.6-0.2l27.4,1.4
						l27.4,1.6l54.7,3.2c36.5,2.2,73,4.5,109.5,6.9c18.2,1.2,36.5,2.5,54.7,3.7c18.2,1.4,36.4,2.8,54.6,4.3
						c36.4,2.9,72.8,6.1,109.2,9.4c16-0.6,32-1.3,48.3-1.8c4.4,0,10.1,1.3,11.8,2.7c1.1,1.3-2.2,2.5-6.7,2.5
						c-4.5,0.1-9,0.2-13.5,0.4c13.8,1.3,25.9,3.8,34.4,6.9c8.5,3.1,13.5,6.9,13,10.5c-1,3.7-7.6,6.5-17.5,8.2
						c-9.9,1.7-23,2.1-37.4,0.9c-38.4-2.1-76.7-4.3-114.9-6.7c-19.1-1.2-38.2-2.4-57.4-3.6l-28.7-1.9l-28.7-1.8
						c-8.3-0.1-16.6-0.2-24.9-0.3c-8.4,0.6-16.8,1.3-25.2,1.9c29.7,2.7,59.3,5.4,88.9,8.3c29.6,3,59.2,6,88.7,9
						c29.5,3,59,6.1,88.5,9.1c29.5,3.1,58.9,6.1,88.3,9.5c10.1,0.7,18.6,3.5,18.6,6.2c0,2.6-8.3,4.2-18.5,3.5
						c-13-0.4-26-0.7-39.1-1.1c-13-0.3-26.1-0.7-39.1-1c-26.1-0.7-52.2-1.5-78.4-2.2c-26.2-0.8-52.4-1.7-78.6-2.5
						c-13.1-0.5-26.2-0.9-39.3-1.4c-13.1-0.4-26.3-0.8-39.4-1.2c-52.6-1.6-105.2-3.5-157.9-5.5c-13.2-0.5-26.4-1-39.5-1.5
						c-13.2-0.5-26.4-0.9-39.6-1.4c-26.4-1-52.8-1.9-79.2-2.9c-35,3.6-70,7.2-105.2,10.8c-8.8,0.9-17.6,1.8-26.4,2.7
						c-8.8,0.9-17.7,1.9-26.5,2.8c-17.7,1.9-35.5,3.7-53.3,5.6c8.9,0.7,17.9,1.3,26.9,1.8c14.3,0.8,28.5,1.4,42.6,2
						c14.1,0.5,28.1,1.1,41.9,1.4c27.7,0.8,55.1,1.2,82.2,1.2s53.9-0.2,80.5-0.5c26.6-0.5,53.1-0.9,79.5-1.4
						c105.6-1.8,210.5-5,321.7,0.1c5.6,0.1,10.1,1.5,10.8,2.9c0.5,1.4-3.4,2.4-9,2c-27.2-0.9-53.8-1.3-80.1-1.4
						c-13.2,0-26.2-0.1-39.3,0c-13,0.2-26.1,0.3-39.1,0.5c-52,0.8-103.9,2.1-157.9,2.4c-11.2,0.1-22.3,0.1-33.3,0.2
						c-11,0.1-22,0.2-33,0.4c-21.9,0.3-43.5,0.6-64.9,1c-42.8,0.8-84.9,1.8-126.5,3.6c42.3,1.8,84.3,2.9,126,3.6
						c20.9,0.3,41.7,0.6,62.4,0.8c10.4,0.1,20.8,0.2,31.1,0.2c10.4,0.1,20.7,0.2,31.1,0.3c41.5,0.4,82.9,0.8,124.4,1.3
						c41.6,0.6,83.3,1.1,125.2,2.7c7.4-0.1,14.7,1.1,19.3,2.8c0.4-0.7,2-1.3,4.3-1.5c21.2-2.1,44.2-3,67.7-3.5
						c4.5-0.3,10.1,0.7,12.4,2.3C2243.7,1747.2,2240.9,1748.3,2235.9,1748.7z M189.3,2145.6c-1.6-0.6-3-1.1-4.2-1.6
						c4.6,0.8,9.5,1.7,14.9,2.7c0,0,0,0,20.8,10.7C220.7,2157.4,205,2151.6,189.3,2145.6z M-71.2,2185.7c0,0,0,0,0.1,0
						c-7-3.5-12-6-12-6C-78.1,2182.2-74.3,2184.1-71.2,2185.7z M694,1455.6c-11.2-0.5-22.4-1-33.5-1.4c-11.2-0.5-22.3-1-33.5-1.5
						c-22.3-1.1-44.5-2.3-66.7-3.7c-44.4-2.9-88.6-6.5-132.8-11.3c21.7,0.1,43.2,0.2,64.8,0.2c33.5,2.6,67.1,5.4,100.7,8.3
						c16.8,1.5,33.6,3,50.4,4.5l12.6,1.2l12.6,1.2C677.1,1453.9,685.5,1454.7,694,1455.6z M14.3,2105.3c23.6,5.5,42,12.3,59.4,19.3
						c7.8-0.7,15.7-1.2,23.7-1.4c8-0.2,16.2-0.3,24.4-0.1c44.1,0.8,87,2.3,129.3,4.3c-5.5-3.8,4.7-3.3,9.8-3.8
						c5.3-0.3,10.6-0.6,15.9-0.9c-45.1-2.7-90.3-5.8-136.4-9C98.9,2110.7,53.8,2109.4,14.3,2105.3z M-300.6,2122.3
						c-1.3-0.5-2.4-0.9-3.9-1.3c0,0,0,0,8.4-5.7C-296.2,2115.2-298.1,2118.2-300.6,2122.3z M-313.8,2132c2.1,0.2,4.2,0.5,6.5,0.7
						C-309.7,2134.8-311.8,2134.1-313.8,2132z M-254.5,2138.5c-3.5-1.5-5.7-2.4-8.4-3C-254.5,2138.4-254.5,2138.5-254.5,2138.5z
						 M-210.9,2304.1l22.7-28.5l-24.8,27.4L-210.9,2304.1z"/>
				</g>
			</g>
		</g>
		<g>
			<g>
				<path class="st6" d="M-9.8,2476.5c3.7,0.7,7.4,1.5,11,2.2c-6.8,2.4-17,3.2-28.8,3.1c28.8,3.9,59.6,5.3,91.1,4.6
					c7.9-0.2,15.8-0.5,23.8-0.9c7.9-0.4,15.9-1,23.9-1.5c16-1.1,31.9-2.6,47.8-4.5c63.3-7.6,124-21.1,171.5-36.2
					c34.8-1,65.3-9.7,68.1-19.7c2.7-10-23.4-17.3-58.6-16.4c-7.8-0.8-16.9-1-22.5-2.3c-51-12-112.9-18.5-181-22
					c13.2,2,27,4.1,40.2,6.1c-19.7-1.1-39.1-2.4-60.9-1.2c2.4,1.6,5.5,3.3,7.9,4.9c-8.5-1.1-17.4-1.9-26.5-2.4
					c-9.1-0.5-18.5-0.6-27.9-0.4c-18.9,0.3-38.1,1.6-56.7,3.9c-37.1,4.6-71.3,13-93.8,24c-45.1,22.1-26.7,46.5,41.2,54.5
					L-9.8,2476.5z"/>
			</g>
			<g>
				<path class="st6" d="M118.9,2524.2c-5.1-0.5-10.1-1-15.1-1.5c-5-0.5-10-0.9-15-1.4c-9.9-1-19.8-1.9-29.6-2.9
					c-19.6-2-39.1-4-58.6-6.1l-7.8-2.8l3.7,14.8l0.7-1c17.5-7.6,41.1-13.8,67-19c13-2.6,26.6-5,40.3-7.2c13.8-2.1,27.7-3.9,41.3-5.7
					l19.4-3.4c9.2-2.5,15.3-5.9,17-9.2c4.1-7.5-13.4-13.2-39-12.8l-29.5,0.5c-4.5-0.3-9.2-0.5-14-0.6c-4.8-0.1-9.7-0.2-14.8-0.2
					c-10.1-0.1-20.6,0.1-31.2,0.4c-21.3,0.7-43.4,2.3-64.4,4.8c-42,5.1-79.7,14.2-98.7,28.4c-8.5,6.6-0.1,13.4,2.4,20.2
					c-1.9,10.1,25.6,16.8,61.4,14.9c35.8-1.9,66-11.7,67.7-21.9c6.1,0.2,12.4,0.5,18.5,0.7c-4.6,1.6-9.4,3.1-14.1,4.6
					c9.5-9.4,41.9-13.8,65.9-20.2l9.1-1.3l9.1-1.2l18.1-2.4l-22.1-22c-6.3,1.4-12.5,2.9-18.8,4.4c1.5,0.9,4.4,2.1,4.2,2.3
					c-35.6,9-69.1,17.9-108.2,24.9l-49,12.1c-13.1,5.4-11.3,11.9,3.7,14.9l22.4,3.4c-3.4-0.8-6.8-1.4-10.2-2.2
					c51.1,1.5,104.8,0.7,155.3,2.6c8,0.6,17.6-1,21.6-3.5C130.8,2527.2,127.2,2524.7,118.9,2524.2z"/>
			</g>
			<g>
				<g>
					<path class="st6" d="M-59.8,2540.4c-8.4-1.2-16.4-2.5-28.1-1.2c-2.7,1.3-4.1,1.9-4.9,2.2c4.4,0.8,10.4,1.8,16.4,2.8
						C-64.7,2546.2-58.9,2543.6-59.8,2540.4z"/>
				</g>
				<g>
					<path class="st6" d="M-92.8,2541.4c-4.1-0.7-6.8-1.2-6.8-1.2c1.6,0.7,3.2,1.3,4.6,1.9c1.3-0.3,1.3-0.3,1.3-0.3
						S-93.6,2541.8-92.8,2541.4z"/>
				</g>
				<g>
					<path class="st6" d="M1226.6,1779.2c78.7,3.9,157.6,9.1,236.5,13.3c19.7,1.1,39.5,2.2,59.2,3.2l14.8,0.8l14.8,0.9l29.6,1.9
						c39.5,2.4,78.9,4.8,118.4,7.2c5.3,0.3,9.8-0.5,10.1-2c0.3-1.3-3.7-2.7-8.6-2.9c-39.5-2.4-78.9-4.9-118.3-7.3
						c-9.9-0.6-19.7-1.3-29.6-1.9l-14.8-0.9l-14.8-0.8c-19.7-1.1-39.4-2.2-59.1-3.3c-39.4-2.2-78.7-4.5-118.1-6.8l-29.5-1.8
						l-14.8-0.9l-14.8-0.8l-59-3.1c-5.3-0.2-9.7,0.8-10.5,2.1C1218,1777.6,1221.7,1779,1226.6,1779.2z"/>
				</g>
				<g>
					<path class="st6" d="M2394.6,1983.1c-3.8,0.8-3.8,2.3,0,3.7c3.2,1.1,9.1,1.7,12.9,0.9c3.2-0.7,3.2-2.5,0-3.6
						C2403.7,1982.7,2397.8,1982.4,2394.6,1983.1z"/>
				</g>
				<g>
					<path class="st6" d="M2352.3,2093.6c-22,0.4-42.8,1.3-61.5,3.8c-3.5,0.3-7.3-0.1-10.2-0.9c1.1,2.4-3.2,4.2-11.1,4.6
						c-9.8,0.5-19.6,0.9-29.4,1.3c-9.8,0.4-19.7,0.7-29.6,1.1c-19.8,0.8-39.8,1.4-59.9,1.9c-40.2,1-80.8,1.5-121.7,1.6
						c-40.9,0-82,0.5-123.2,0.7c-41.2,0.3-82.4,0.5-123.5,0.8c-1.2,1.8-3.5,3.5-7.2,5.1c-2.9,1.3-6.5,2.4-10.7,3.3
						c-4.1,0.9-8.8,1.5-13.9,2c-10.1,0.9-21.7,0.9-33.5-0.1l-17.7-2.2c-35.9-3.3-71.8-6.4-107.6-9.5c-17.9-1.6-35.8-3.2-53.7-4.7
						l-13.4-1.2l-13.4-1.1c-8.9-0.7-17.9-1.5-26.8-2.2c-14.7,2.2-31.8,3.4-50.3,3.3c-31.1,2.6-62.2,5.1-93.5,7.3
						c-15.6,1.1-31.3,2.2-47.1,3.2c-15.8,1.1-31.6,2.2-47.5,3.2c4,1.7,6.3,3.7,6.2,5.8c-1.4,5-16.1,8.4-33.3,7.8
						c-8.7-0.1-17.3-0.2-25.9-0.3c24.8,1.8,49.6,3.6,74.3,5.6c3.6,0.2,6.9,0.6,9.9,1.1c6.8,0.2,13.6,0.4,20.4,0.6
						c6.8,0.2,13.7,0.4,20.6,0.7c13.8,0.4,27.6,0.7,41.6,0.9c30.5,0.5,60.7,0.7,90.8,0.7c15,0,30,0,45-0.1
						c14.9-0.1,29.8-0.3,44.7-0.3c59.4-0.1,118.2-1.1,176.5-2.5c14.6-0.4,29.1-0.8,43.6-1.2c14.5-0.3,29-0.6,43.5-0.9
						c28.9-0.7,57.8-1.5,86.6-2.4c28.8-0.9,57.5-1.9,86.2-3l10.8-0.4l10.7-0.3c7.2-0.2,14.3-0.4,21.5-0.6
						c14.3-0.4,28.6-0.9,42.9-1.3c3.8-0.5,9.6,0,12.9,1.4c2.1,1.3,1.6,3-2.6,3.4c-18.1,2-35.9,4.1-53.6,6.3
						c-8.8,1.1-17.6,2.3-26.3,3.4c-2.2,0.3-4.4,0.6-6.5,0.9c-2.2,0.3-4.4,0.6-6.5,0.9c-4.4,0.6-8.7,1.3-13,1.9
						c-34.7,5-69.1,10.2-104,15s-70.4,9.4-107.2,13.2c-36.9,4.2-75.2,7.7-115.8,10c-193.3,10.8-383.7,22.4-580.9,31.1
						c-51.5-0.6-102.1-0.5-152.2,0.2c-25.1,0.3-50,0.8-74.9,1.4c-24.9,0.8-49.8,1.8-74.7,2.8c-49.8,2-99.8,4.3-150.4,6.6
						c-50.6,2.8-101.8,5.8-154.3,8.5c-17.7,0.9-35.4,1.8-53,2.7c-8.8,0.4-17.6,0.9-26.3,1.3c-8.8,0.5-17.5,1-26.3,1.5
						c-35,1.9-69.7,3.7-104.4,5.4c-34.6,1.6-69.1,3.1-103.5,4.7c-34.4,1.8-68.6,3.5-102.9,5.1c-34.2,1.6-68.4,3.1-102.6,4.5
						l-12.8,0.5l-12.8,0.6l-25.6,1.3c-17.1,0.9-34.2,1.7-51.3,2.6c-34.2,1.6-68.5,3.3-102.8,4.9c-8.6,0.4-17.2,0.8-25.8,1.2
						c-4.3,0.2-8.6,0.4-12.9,0.6c-4.3,0.2-8.6,0.5-12.9,0.7c-17.2,1-34.5,2-51.8,2.9c-51.8,4.7-101.6,3.1-140.5-3.4
						c-9.7-1.6-18.8-3.5-27-5.6c-8.2-2.1-15.6-4.5-22-7.1c-12.8-5.3-21.7-11.6-25.5-18.7c-4.4-8.7-1.1-17.7,8.7-26.2
						c4.9-4.3,11.4-8.5,19.3-12.5c7.9-4,17.2-7.9,27.8-11.3c-8.5,0.4-17,0.7-25.4,1.1l-40.5-1c-38.3-1.1-71.3-6.5-92.4-15.2
						l-29-10.6c-9.8-5.3-21-10.3-32.8-15.1c-11.8-4.8-24.3-9.6-36.6-14.1c-24.5-9.2-48.2-18.6-64.5-29.8l6.2-9.8l-7.5-2.2
						c-24.6-5-41.4-12.7-47.7-21.8l1.5-11.4c4.1-13.2,15.3-26.2,33.8-39c-1-4.7,1-9.6,5.7-14.3c-17.4-10.3-26.1-21.8-14-36.1
						c-10.2-2.6-8.9-7.6,2.8-11.3c4-1.2,8.9-2.2,14-2.8c-0.1,0-0.1,0-0.1,0c-5.7-2.5-7.4-3.3-15-6c-10-0.3-15.8-0.6-15.8-0.6
						c-26.5-0.1-26.5-0.1-49.5-0.3c-20-2.5-32.6-7.1-32.6-7.1c-23.3-18.5-23.4-18.5-20.6-27.4c1.2-0.9,2.6-1.9,4-2.8
						c-17.7-1.6-18.9-1.7-23.7-2.3c-5.1-1.2-8.6-2.7-8.6-2.7c-1.1-4.6-1.1-4.6-4.3-6.1c-1.1-1.7-1-3.5-1-3.5
						c9.4-5.9,9.4-5.9,9.5-7.4c2.2-1.6,5.3-2.9,5.3-2.9c11.3-2.4,15.8-3.4,17.7-3.8c25.4,10.2,25.5,10.3,25.5,10.3
						c5-4.5,5-4.5,5-4.5c6.1,5.1,6.1,5.1,6.1,5.1c-3.6-4.8-3.6-4.8-3.6-4.8c12.6,2.2,12.6,2.2,12.6,2.2c-14.5-3.4-14.5-3.4-14.5-3.4
						c29.5-0.3,29.5-0.3,41.2-1.3c12.3-0.3,22.6-2.3,23.8-2.5c-1.1-1.5-1.3-2.6-1.3-2.6c31.5-0.3,31.5-0.3,62.3-0.4
						c2.9,0.9,5.2,1.9,7.4,2.8c2.8-1.6,8.6-2.8,14.7-2.9c5.4-0.1,10.8-0.2,16.1-0.3c1.2-0.3,2.3-0.7,3.4-1c0-0.2-0.1-0.4-0.1-0.4
						c5.4-1.3,9.1-2.2,13.4-3.2c2.7-0.7,2.8-0.8,2.8-0.8c0,0,0.1,0,0.2,0.1c9.2-2.2,22.6-5.5,58-14c9.5,0,18.4,0.3,26.9,0.7
						c-2.7-0.6-5.4-1.1-7.9-1.8c-5.1-1.3-0.8-6.1-3.6-6.3c-16.9-1.3-34.2-2.3-51.8-3c-8.8-0.3-17.6-0.6-26.5-0.8
						c-4.4-0.1-8.9-0.2-13.4-0.3c-4.5,0-8.9-0.1-13.4-0.1c-35.9-0.2-72.3,0.3-108.5,0.4c-12.9,1.5-25.2-0.3-27.4-3.8
						c-2-3.6,7-7.6,20.2-9c36.1-8.7,74.4-15.8,114-21.5c4.9-0.7,9.9-1.4,14.9-2.1c5-0.6,10-1.2,15-1.8c10-1.1,20.1-2.2,30.3-3.1
						c20.3-1.9,40.7-3.5,61.3-4.7c41-2.5,82.3-3.6,122.7-3.5c40.5,0.4,80.1,2.2,118,5.1c39.7,0.3,79.6,0.2,119.6,0
						c-2-0.6-3.9-1.3-5.8-2c5.2,0.3,10.4,0.7,15.6,1c5.2,0.4,10.4,0.7,15.6,1.1c1.1,0,2.3,0,3.4,0c-8-2.4-15.9-4.8-23.8-7.2
						c-5.4-0.6-10.9-1.1-16.4-1.6c-46.4,0.7-90.7-1-134.8-3.3c-44-2.3-87.7-5.5-132.7-6.5c-48.4-1.4-90.2-6.6-136.1-9.5
						c-11.8,0.3-20.1-2.1-18.9-5.5c1.2-3.3,11.9-6.2,23.4-6.6c37.9-3.8,77.2-7,116.7-9.4c19.8-1.2,39.6-2.2,59.4-2.8
						c19.8-0.5,39.4-0.8,58.9-0.8c38.9,0,76.9,1.1,112.9,3.6c18,1.2,35.5,2.8,52.3,4.7c8.4,0.9,16.7,2.1,24.7,3.3
						c8.1,1.2,15.9,2.6,23.6,4c27.8-1,54.6,0.2,76.9,4.3c0.4,0,0.8,0,1.2,0c-5.9-2-11.4-4.1-17.4-6.1c20.8,0.8,32.1,6,51.1,7.6
						c-2.3-3-5.1-6-7.4-9c25.6,0.4,51.8,0.2,78-0.1c13.1-0.2,26.3-0.2,39.5-0.2c13.2,0,26.3,0,39.4,0c52.4,0.1,103.8,1.3,151.3,6.5
						c3.8,0.1,7.4,0.3,10.9,0.5c40.6-7.4,81.7-14.5,130.2-16.3c-16.4-0.7-32.4-1.3-48.9-2c35.1-4.7,69.9-8.1,107.5-8.4
						c50.9-0.8,105,2.8,153,9c48,6.3,90,15.6,117,27.5c6.2-0.1,12.3-0.3,18.5-0.4l18.5-0.2l37-0.5c24.7-0.3,49.3-0.7,74-1l74-1
						l18.5-0.3l9.2-0.1l9.2,0l37-0.2c49.3-0.3,98.6-0.6,147.9-1.1c12.3-0.1,24.6-0.3,37-0.4c12.3,0,24.6-0.1,36.9-0.1
						c24.6-0.1,49.2-0.3,73.8-0.4c10.2-0.2,19.2,2,21,4.8c1,2.7-5.8,5.3-15.9,5.4c-35.3,1.6-70.7,2.9-106.3,4
						c-8.9,0.2-17.8,0.7-26.7,1c-8.9,0.3-17.8,0.7-26.7,1c-17.8,0.6-35.6,1.2-53.5,1.8c-35.7,1.1-71.4,2-107.2,2.8
						c-8.9,0.2-17.9,0.4-26.8,0.6c-8.9,0.3-17.9,0.6-26.8,0.8c-17.9,0.5-35.8,1.1-53.7,1.6c15,0.6,29.9,1.2,44.9,1.8
						c7.5,0.3,15,0.6,22.5,0.9l11.3,0.4l11.3,0.5c30,1.5,60.1,2.9,90.3,4.2c30.2,1.3,60.4,2.5,90.8,3.5c15.2,0.5,30.4,0.9,45.7,1.4
						c15.3,0.6,30.5,1.1,45.9,1.6c15.6,0,31.4-0.1,47.1-0.1c15.6-0.1,31,1,46.4,2.5c19.6,0.5,39,0.9,58.4,1.4
						c9.7,0.2,19.3,0.5,29,0.7c9.6,0.3,19.3,0.7,28.9,1c38.5,1.3,76.7,2.6,115.1,3.6c19.2,0.5,38.4,1,57.7,1.4
						c9.6,0.2,19.3,0.4,29,0.5c4.8,0.1,9.7,0.2,14.5,0.3c4.8,0.1,9.7,0.2,14.6,0.3c38.9,0.9,78.2,1.4,118.2,1.4
						c34.2,0,67.3-0.1,99.9-0.1c32.6,0.2,64.6,0.3,96.6,0.4c64.1,0.2,128.1-0.5,196.3,0c47.9,0.1,94.7,0.2,141,0.3
						c5.8,0,11.6,0,17.3,0.1c5.8,0,11.5,0,17.3,0.2c11.5,0.2,23,0.4,34.4,0.6c22.9,0.4,45.7,0.9,68.5,1.5
						c22.8,0.6,45.6,1.3,68.4,2.1c11.4,0.4,22.8,0.9,34.3,1.3c11.4,0.5,22.9,0.9,34.4,1.6c45.9,2.6,92.1,5.9,139.2,9.9
						c25.1,1.3,47.9,8.4,50.2,15.7c2.4,7.3-16.4,12.1-41.5,10.8c-49.3-1.5-98.5-3-147.6-4.4l-18.4-0.5l-18.4-0.3
						c-12.3-0.2-24.6-0.5-36.8-0.7c-24.5-0.5-49.1-1-73.6-1.4c-24.5-0.5-49.1-1-73.6-1.5l-18.4-0.4c-6.1-0.1-12.3-0.3-18.4-0.3
						c-12.3-0.2-24.6-0.3-36.9-0.5c-49.2-0.7-98.4-1.4-147.7-2.4c-12.3-0.3-24.7-0.5-37-0.8c-12.3-0.2-24.7-0.3-37.1-0.5
						c-24.7-0.3-49.5-0.7-74.3-1.2c-24.8-0.5-49.7-1-74.6-1.6c-12.5-0.3-24.9-0.7-37.4-1c-6.2-0.2-12.5-0.4-18.7-0.5
						c-6.3-0.1-12.5-0.2-18.8-0.4c-50.1-1-100.4-2.4-151-4.2c-12.7-0.5-25.3-0.9-38-1.4c-6.3-0.3-12.7-0.5-19.1-0.8
						c-6.4-0.2-12.7-0.4-19.1-0.6c-25.5-0.8-51.1-1.8-76.7-2.9c-44.3-1.9-87.9-3.8-131.2-5.6c0.5,1,1,1.9,1,2.9
						c-0.1,3.9-4.3,7.2-11.3,10c49.2,2.6,98.7,5.8,148.4,9.4c17.3-0.4,34.7-0.9,52-1.3c17.4-0.4,34.7-0.9,52.1-0.9
						c34.8-0.3,69.8-0.4,105-0.1c35.2,0.3,70.8,1,106.7,2.3c35.9,1.6,72.2,3.9,109,6.9c25.3,2.1,49.9,4.6,74.1,7.2
						c12.1,1.3,24.1,2.7,36,4.1c6,0.7,11.9,1.4,17.8,2.2c5.9,0.8,11.8,1.6,17.7,2.4c47,6.5,93,13.5,139.5,20.4
						c14.8,0.4,29.7,0.8,44.5,1.2c14.8,0.4,29.7,0.7,44.5,1.3c29.7,1,59.4,2.1,89.1,3.1c29.7,1.1,59.5,2.2,89.3,3.3
						c14.9,0.6,29.9,1.1,44.8,1.8c14.9,0.8,29.9,1.6,44.9,2.4c4.8-0.1,9.7,1.1,11.3,2.6c1.6,1.5-1.1,2.7-6,2.7
						c-10.4,0.2-20.8,0.3-31.2,0.5c-5.2,0.1-10.4,0.1-15.6,0.2c-5.2,0-10.4,0.1-15.7,0.2c-21,0.4-42,0.6-63.1,0.7
						c-42.2,0.3-84.8,0.2-127.5-0.1c13.1,5.4,20.6,11.7,19.1,17.9c-1.5,6.4-12.3,11.4-28.5,14.2l57.7,4.9c11.9,1.1,21,4.3,20.5,7.5
						c-0.5,3.5-10.2,5.2-21.5,4.3c-19.6-1.6-39.2-3.2-58.8-4.8c-9.8-0.8-19.6-1.6-29.4-2.4l-29.4-2.1c-39.2-2.8-78.3-5.6-117.5-8.4
						c-23.6-0.7-47.1-1.4-70.7-2c-11.8-0.4-23.5-0.6-35.3-0.9l-35.3-0.8c-47.1-1-94.2-2.2-141.4-3.5c12.9,5,22.2,10.8,26.5,16.9
						c0,0,0,0.1,0,0.1c14.6,0.6,29.1,1.3,43.6,1.9c33.4-0.4,66.9-0.8,100.5-0.9c8.4,0,16.8-0.1,25.2-0.1c8.4,0.1,16.8,0.1,25.2,0.2
						c16.8,0.2,33.7,0.4,50.5,0.6c33.7,0.5,67.5,1.1,101.4,1.9c16.9,0.4,33.9,0.9,50.9,1.3c8.5,0.2,17,0.6,25.5,1
						c8.5,0.4,17,0.7,25.5,1.1c34,1.5,68,3.2,102.1,5c17,1,34.1,1.9,51.2,2.9c17.1,1,34.2,2,51.2,3.4c68.3,5.2,136.7,11.2,205.2,18
						c5.4,0.4,9.7,2,9.7,3.5c0,1.5-4.3,2.4-9.1,1.8c-41.3-4.1-82.7-8-124-11.5c-20.6-1.8-41.3-3.5-61.9-5.1
						c-10.3-0.8-20.6-1.6-30.9-2.4c-5.2-0.4-10.3-0.7-15.5-1l-15.5-1c0.1,0,0.2,0.1,0.3,0.1c3.3,1.1,3.7,2.9,0,3.6
						c-3.2,0.7-9.7,0.2-12.9-0.9c-3.7-1.3-3.2-2.9-0.1-3.6c-38.4-2.3-76.8-4.4-115.1-6.2c-19.1-0.9-38.3-1.8-57.4-2.6l-14.3-0.6
						c-4.8-0.2-9.5-0.4-14.3-0.5c-9.6-0.3-19.1-0.5-28.6-0.8c-38.2-1-76.2-1.8-114.2-2.3c-19-0.2-37.9-0.5-56.9-0.7
						c-9.5-0.1-18.9-0.2-28.4-0.2c-9.5,0-18.9,0.1-28.3,0.1l26.2,1.2c8.7,0.4,17.5,0.9,26.2,1.4l52.4,3c34.9,2,69.9,4.1,104.8,6.4
						c17.5,1.2,34.9,2.3,52.4,3.5c17.4,1.4,34.9,2.9,52.3,4.3c34.9,2.9,69.7,6.1,104.5,9.5c15.4-0.7,30.7-1.4,46.3-2
						c4.2,0,9.7,1.3,11.2,2.8c1.1,1.3-2.1,2.6-6.5,2.6c-4.3,0.1-8.6,0.3-12.9,0.4c13.2,1.3,24.7,3.9,32.9,7.1
						c8.1,3.2,12.8,7.2,12.3,11c-0.5,1.9-2.4,3.6-5.3,5.1c-2.9,1.4-6.8,2.6-11.6,3.5c-9.5,1.8-22.1,2.2-35.8,1.1
						c-36.7-2-73.4-4.2-110-6.6c-18.3-1.2-36.6-2.4-54.9-3.6l-27.4-1.9l-27.4-1.6c-7.9-0.1-15.9-0.1-23.8-0.2
						c-8.1,0.7-16.1,1.4-24.1,2.1c14.2,1.3,28.4,2.6,42.5,4l21.3,2c7.1,0.7,14.2,1.3,21.2,2.1c28.3,3,56.6,6.1,84.8,9.1
						c28.2,3.1,56.4,6.2,84.6,9.2c14.1,1.6,28.2,3.1,42.2,4.7l10.5,1.2l10.5,1.3c7,0.9,14,1.7,21.1,2.6c9.7,0.8,17.7,3.7,17.7,6.4
						c0,2.7-8,4.4-17.7,3.6c-12.4-0.4-24.9-0.9-37.4-1.2c-12.5-0.3-24.9-0.6-37.4-0.9c-25-0.7-50-1.4-75-2
						c-25-0.8-50.1-1.6-75.1-2.4c-12.5-0.4-25.1-0.9-37.6-1.3c-12.6-0.3-25.1-0.7-37.7-1c-50.3-1.3-100.6-2.9-151-4.6
						c-12.6-0.4-25.2-0.9-37.8-1.3c-6.3-0.3-12.6-0.4-18.9-0.5l-18.9-0.5c-25.2-0.7-50.5-1.4-75.7-2.1
						c-33.4,4.1-66.9,8.2-100.5,12.4c-8.4,1-16.8,2.1-25.2,3.1c-8.4,1.1-16.9,2.2-25.3,3.3c-16.9,2.2-33.9,4.4-50.9,6.6
						c8.5,0.6,17.1,1.1,25.7,1.5c13.7,0.6,27.3,1.1,40.7,1.4c3.4,0.1,6.7,0.2,10.1,0.2c3.4,0.1,6.7,0.2,10,0.3
						c6.7,0.2,13.3,0.3,20,0.5c26.5,0.5,52.6,0.6,78.5,0.4c25.9-0.2,51.5-0.8,76.9-1.5c12.7-0.4,25.4-0.8,38.1-1.2
						c6.3-0.2,12.7-0.4,19-0.5c6.3-0.2,12.6-0.3,18.9-0.5c100.9-2.6,201.2-6.9,307.5-1.8c5.3,0,9.7,1.6,10.3,3
						c0.5,1.4-3.2,2.5-8.6,2.1c-26-0.8-51.4-1.2-76.5-1.2c-6.3,0-12.6,0-18.8,0c-6.3,0-12.5,0-18.7,0.2c-12.5,0.3-24.9,0.5-37.3,0.8
						c-49.7,1.2-99.3,2.9-150.9,3.6c-10.7,0.1-21.3,0.3-31.9,0.4c-10.6,0.1-21.1,0.5-31.5,0.7c-20.9,0.5-41.5,1.1-62,1.7
						c-40.9,1.3-81.1,2.9-120.8,5.2c40.4,1.4,80.5,2.1,120.3,2.3c19.9,0.1,39.8,0.1,59.6,0.1c9.9,0,19.8-0.1,29.8-0.1
						c9.9,0,19.8,0.1,29.7,0.1c39.6,0.1,79.2,0.3,118.9,0.4c19.9,0.1,39.7,0.3,59.7,0.6c5,0.1,10,0.1,15,0.2l7.5,0.1l7.5,0.2
						c10,0.3,20,0.6,30,1c7-0.1,14,1.1,18.4,2.9c0.4-0.7,1.9-1.3,4.1-1.6c20.3-2.3,42.3-3.3,64.7-3.9c4.3-0.3,9.6,0.7,11.8,2.4
						C2359.8,2092,2357.1,2093.1,2352.3,2093.6z M428.4,2559.8c-1.6-0.6-2.9-1-4.1-1.4c4.4,0.6,9.2,1.3,14.4,2.1c0,0,0,0,20.5,10.1
						C459.2,2570.5,443.8,2565.3,428.4,2559.8z M181.6,2615.5c0,0,0,0,0.1,0c-6.9-3.2-11.8-5.5-11.8-5.5
						C174.7,2612.2,178.5,2614,181.6,2615.5z M873.5,1812.4c-21.5-0.4-43-0.7-64.4-1.1c-21.4-0.4-42.8-1-64.1-1.8
						c-42.7-1.6-85.2-4.1-127.7-7.6c20.8-0.6,41.5-1.2,62.2-1.8c32.2,1.7,64.5,3.5,96.9,5.5c16.2,1,32.3,2.1,48.5,3.1l12.1,0.8
						l12.2,0.9C857.3,1811.1,865.4,1811.7,873.5,1812.4z M258.5,2527.2c23,4.4,41,10.4,58,16.8c7.4-1.1,14.9-2.1,22.6-2.8
						c7.7-0.7,15.5-1.1,23.4-1.4c42.3-1.4,83.5-2.1,124.1-2.1c-5.5-3.7,4.3-3.7,9.2-4.4c5.1-0.6,10.1-1.2,15.2-1.7
						c-43.3-0.5-86.9-1.4-131.1-2.4C339.9,2528.1,296.6,2529.3,258.5,2527.2z M-42.1,2562.8c-1.3-0.4-2.4-0.8-3.8-1.2
						c0,0,0,0,7.6-6.4C-38.3,2555.2-39.9,2558.4-42.1,2562.8z M-54,2573.7c2,0.1,4,0.3,6.2,0.4C-49.9,2576.4-51.9,2575.7-54,2573.7z
						 M3.2,2576.9c-3.5-1.3-5.6-2.1-8.3-2.6C3.1,2576.9,3.2,2576.9,3.2,2576.9z M55.7,2746.5l19.9-30.9l-21.9,29.9L55.7,2746.5z"/>
				</g>
			</g>
		</g>
		<g>
			<g>
				<path class="st7" d="M214.3,2820.3c3.4,0.8,6.7,1.8,10,2.7c-6.2,2.2-15.6,2.6-26.3,2.1c26.1,5,54.1,7.6,82.8,8.1
					c7.2,0.1,14.4,0.1,21.6,0c7.2-0.1,14.5-0.4,21.8-0.6c14.6-0.6,29.1-1.6,43.6-2.9c57.8-5.5,113.4-17.1,157-30.7
					c31.7,0.1,59.7-7.8,62.5-17.8c2.7-10-20.9-18.2-52.9-18.4c-7.1-1.1-15.3-1.6-20.5-3.1c-46.1-13.9-102.3-22.7-164.2-28.6
					c12,2.5,24.4,5.1,36.4,7.6c-17.9-1.8-35.5-3.8-55.4-3.3c2.1,1.7,4.9,3.5,7,5.3c-7.7-1.4-15.8-2.5-24.1-3.4
					c-8.3-0.8-16.8-1.2-25.4-1.5c-17.2-0.4-34.8,0.3-51.7,1.9c-33.9,3.3-65.2,10.5-85.9,20.8c-41.6,20.7-25.5,46.1,36.2,56.7
					L214.3,2820.3z"/>
			</g>
			<g>
				<path class="st7" d="M330.3,2873.4c-4.6-0.7-9.2-1.4-13.7-2c-4.5-0.7-9.1-1.3-13.6-2c-9-1.4-18-2.7-26.9-4
					c-17.8-2.7-35.5-5.5-53.2-8.4l-7.1-3.1l3,15.2l0.7-1c16.2-7.1,37.7-12.5,61.5-16.8c11.9-2.2,24.3-4.1,36.9-5.8
					c12.6-1.6,25.3-3,37.7-4.3l17.7-2.8c8.5-2.2,14.1-5.4,15.7-8.7c3.9-7.5-11.9-13.9-35.2-14.4l-26.9-0.5
					c-4.1-0.4-8.4-0.8-12.7-1.1c-4.4-0.3-8.9-0.6-13.4-0.8c-9.2-0.4-18.7-0.7-28.4-0.7c-19.4-0.1-39.6,0.7-58.8,2.5
					c-38.4,3.6-72.9,11.4-90.6,25.1c-7.9,6.3-0.4,13.6,1.7,20.5c-2,10.2,22.9,18,55.5,17.4c32.7-0.6,60.4-9.4,62.2-19.7
					c5.5,0.5,11.3,1,16.8,1.4c-4.3,1.4-8.6,2.7-12.9,4.2c8.9-9.2,38.5-12.4,60.5-18c11-1.3,22.1-2.4,33.1-3.6l-19.6-23
					c-5.7,1.2-11.5,2.5-17.2,3.8c1.4,1,3.9,2.3,3.7,2.4c-32.7,7.8-63.3,15.5-99.2,21.2l-44.9,10.5c-12.1,5-10.6,11.6,3,15.2
					l20.3,4.3c-3.1-0.9-6.1-1.7-9.2-2.6c46.5,3.5,95.4,4.6,141.4,8.4c7.3,0.9,16-0.4,19.8-2.8C341,2876.9,337.8,2874.2,330.3,2873.4
					z"/>
			</g>
			<g>
				<g>
					<path class="st7" d="M167.1,2883.2c-7.6-1.5-14.9-3.1-25.5-2.3c-2.5,1.2-3.8,1.8-4.5,2.1c4,0.9,9.4,2.2,14.8,3.5
						C162.5,2888.9,167.9,2886.5,167.1,2883.2z"/>
				</g>
				<g>
					<path class="st7" d="M137.1,2883c-3.7-0.9-6.2-1.5-6.2-1.5c1.4,0.7,2.8,1.4,4.2,2.1c1.2-0.2,1.2-0.2,1.2-0.2
						S136.3,2883.3,137.1,2883z"/>
				</g>
				<g>
					<path class="st7" d="M1259.9,2176.8c71.6,5.1,143.3,11.2,215.1,16.4c17.9,1.3,35.9,2.6,53.8,3.9l13.5,1l13.5,1.1l26.9,2.1
						c35.9,2.8,71.8,5.6,107.7,8.3c4.8,0.4,8.9-0.5,9.3-1.9c0.3-1.3-3.3-2.8-7.8-3.1c-35.9-2.8-71.8-5.7-107.6-8.5
						c-9-0.7-17.9-1.4-26.9-2.2l-13.4-1.1l-13.4-1c-17.9-1.3-35.8-2.7-53.7-4c-35.8-2.7-71.6-5.4-107.4-8.3l-26.8-2.1l-13.4-1.1
						l-13.4-1l-53.7-4c-4.8-0.3-8.8,0.6-9.6,2C1252.1,2175,1255.4,2176.4,1259.9,2176.8z"/>
				</g>
				<g>
					<path class="st7" d="M2319.9,2391.7c-3.5,0.8-3.5,2.4-0.1,3.7c2.9,1.2,8.3,1.7,11.7,0.9c2.9-0.7,3-2.5,0.1-3.7
						C2328.2,2391.3,2322.8,2391,2319.9,2391.7z"/>
				</g>
				<g>
					<path class="st7" d="M2279.4,2503.6c-20,0.4-39.1,1.2-56.2,3.7c-3.2,0.3-6.7-0.1-9.3-0.9c1,2.5-3,4.3-10.2,4.6
						c-8.9,0.5-17.8,0.9-26.8,1.3c-9,0.4-18,0.7-27,1.1c-18.1,0.7-36.3,1.3-54.6,1.7c-36.6,0.9-73.7,1.2-110.9,1.2
						c-74.5,0-150,0-224.9,0c-1.1,1.8-3.2,3.6-6.7,5.1c-5.3,2.6-13.2,4.3-22.5,5.1c-9.2,0.8-19.8,0.7-30.5-0.4l-16.1-2.4
						c-32.6-3.6-65.3-7.1-97.9-10.6c-16.3-1.8-32.6-3.5-48.8-5.3l-12.2-1.3l-12.2-1.3c-8.1-0.9-16.3-1.7-24.4-2.6
						c-13.5,2-29,3.1-45.9,2.8c-28.4,2.3-56.8,4.4-85.3,6.3c-14.3,1-28.6,1.8-43,2.7c-14.4,0.9-28.8,1.8-43.3,2.5
						c3.6,1.8,5.7,3.8,5.6,5.9c-1.3,5.1-14.9,8.3-30.5,7.5c-7.9-0.2-15.7-0.4-23.6-0.6c22.5,2.1,45.1,4.3,67.6,6.7
						c3.3,0.2,6.2,0.7,9,1.2c12.4,0.6,24.8,1.2,37.3,1.8c12.5,0.6,25.1,1,37.9,1.4c27.8,0.8,55.3,1.4,82.8,1.7
						c13.7,0.2,27.4,0.3,41,0.4c13.6,0.1,27.2,0,40.7,0.2c54.2,0.4,107.7,0,160.9-1c13.3-0.3,26.6-0.5,39.8-0.8
						c13.2-0.2,26.5-0.5,39.6-0.7c26.4-0.5,52.7-1.1,79-1.9c26.3-0.7,52.5-1.6,78.6-2.5c26.2-0.8,52.3-1.5,78.4-2.3
						c3.5-0.5,8.8,0,11.7,1.4c1.9,1.4,1.4,3-2.4,3.4c-16.6,1.9-32.8,4-49,6.2c-16.1,2.2-32,4.4-47.9,6.9
						c-31.7,4.9-63.2,9.9-95.1,14.6c-31.9,4.7-64.3,9.1-98,12.7c-33.7,3.9-68.7,7.1-105.8,9.1c-176.5,9.3-350.2,18.6-530.2,24.5
						c-46.9-1.5-93-2.2-138.7-2.3c-22.9-0.1-45.6,0-68.3,0.2c-22.7,0.4-45.4,0.8-68.2,1.4c-45.5,1.1-91,2.4-137.2,3.8
						c-46.2,1.8-92.9,3.6-140.8,5.3c-16.2,0.5-32.3,1-48.3,1.6c-8,0.2-16,0.5-24,0.7c-8,0.3-16,0.6-24,0.9
						c-31.9,1.1-63.6,2.1-95.2,2.9c-15.8,0.4-31.6,0.8-47.3,1.2c-7.9,0.2-15.7,0.3-23.6,0.5c-7.9,0.2-15.7,0.3-23.5,0.5
						c-31.4,0.9-62.6,1.7-93.8,2.4s-62.4,1.3-93.6,1.9c-15.6,0.2-31.2,0.7-46.8,1.1c-15.6,0.4-31.2,0.7-46.8,1.1
						c-31.2,0.7-62.5,1.3-93.8,2c-7.8,0.2-15.7,0.3-23.5,0.5l-11.8,0.2c-3.9,0.1-7.9,0.2-11.8,0.3c-15.7,0.4-31.5,0.9-47.3,1.3
						c-47.3,3.1-92.7-0.1-128-7.9c-8.8-1.9-17-4.2-24.4-6.6c-7.4-2.4-14.1-5.1-19.8-7.9c-11.5-5.8-19.5-12.5-22.7-19.8
						c-3.8-9-0.5-17.9,8.6-26.3c4.6-4.2,10.6-8.2,17.9-12c7.3-3.8,15.9-7.4,25.6-10.5c-7.8,0.1-15.5,0.2-23.2,0.3l-36.8-2.4
						c-34.9-2.5-64.8-9-83.8-18.6l-26.2-11.8c-8.8-5.7-18.9-11.1-29.5-16.4c-10.7-5.3-21.9-10.5-33-15.6
						c-22.1-10.2-43.5-20.7-58-32.6l5.9-9.7l-6.8-2.5c-22.2-6-37.4-14.4-42.9-23.8l1.6-11.5c4.1-13.2,14.6-26,31.8-38.2
						c-0.8-4.8,1.1-9.6,5.6-14.3c-15.6-11.1-23.2-23-11.8-37.1c-9.2-3-7.9-8,2.8-11.3c3.7-1.1,8.2-1.9,12.8-2.3c-0.1,0-0.1,0-0.1,0
						c-5.1-2.8-6.6-3.6-13.5-6.6c-9.1-0.6-14.4-1.2-14.4-1.2c-24.2-1-24.2-1-45.1-2.1c-18.1-3.3-29.5-8.4-29.5-8.4
						c-20.8-19.6-20.8-19.6-18.1-28.5c1.1-0.9,2.4-1.8,3.8-2.7c-16.1-2.3-17.2-2.5-21.5-3.2c-4.6-1.4-7.7-3.1-7.7-3.1
						c-0.9-4.7-0.9-4.7-3.7-6.3c-1-1.8-0.8-3.5-0.8-3.5c8.7-5.6,8.7-5.6,8.8-7.1c2-1.5,4.9-2.8,4.9-2.8c10.4-2,14.5-2.8,16.2-3.2
						c22.9,11.3,23,11.3,23,11.3c4.7-4.4,4.7-4.4,4.7-4.4c5.5,5.4,5.5,5.4,5.5,5.4c-3.2-5-3.2-5-3.2-5c11.5,2.7,11.5,2.7,11.5,2.7
						c-13.1-4-13.1-4-13.1-4c26.8,0.8,26.8,0.8,37.6,0.2c11.2,0.2,20.6-1.5,21.8-1.6c-1-1.6-1.1-2.7-1.1-2.7
						c28.7,0.8,28.7,0.8,56.7,1.9c2.6,1,4.7,2.1,6.7,3.1c2.6-1.5,7.9-2.6,13.5-2.4c4.9,0.1,9.8,0.2,14.7,0.3
						c1.1-0.3,2.1-0.6,3.1-0.8c0-0.2-0.1-0.4-0.1-0.4c4.9-1.1,8.4-1.9,12.3-2.8c2.5-0.6,2.5-0.7,2.5-0.7c0,0,0.1,0,0.1,0.1
						c8.5-1.9,20.7-4.7,53.1-12.2c8.7,0.3,16.8,0.9,24.4,1.7c-2.5-0.7-4.9-1.3-7.2-2.1c-4.6-1.5-0.6-6.2-3.1-6.5
						c-15.4-1.9-31.1-3.5-47-4.8c-8-0.6-16-1.2-24.1-1.8c-4-0.3-8.1-0.5-12.2-0.8c-4.1-0.2-8.1-0.4-12.2-0.6
						c-32.6-1.5-65.8-2.4-98.8-3.6c-11.8,1-23-1.2-24.8-4.8c-1.7-3.7,6.6-7.4,18.7-8.4c33.1-7.5,68.2-13.3,104.3-17.6
						c4.5-0.5,9.1-1.1,13.6-1.5c4.6-0.4,9.1-0.9,13.7-1.3c9.2-0.8,18.4-1.5,27.6-2.1c18.5-1.2,37.2-2.1,55.9-2.7
						c37.4-1.1,75-0.8,111.8,0.7c36.8,1.8,72.9,4.8,107.3,8.9c36.1,1.6,72.5,2.8,108.9,3.9c-1.8-0.7-3.5-1.4-5.2-2.2
						c9.5,1,18.9,2,28.3,3.1c1,0.1,2.1,0.1,3.1,0.1c-7.2-2.7-14.4-5.3-21.5-8c-4.9-0.8-9.9-1.5-14.9-2.1
						c-42.2-0.8-82.6-3.9-122.6-7.7c-40-3.7-79.7-8.3-120.6-10.9c-44-3-81.9-9.8-123.6-14.3c-10.7-0.1-18.2-2.8-17.1-6.3
						c1.1-3.3,11-5.9,21.5-5.8c34.6-2.5,70.4-4.4,106.5-5.5c18-0.5,36.1-0.8,54.1-0.8c18,0.1,35.9,0.5,53.6,1.1
						c35.4,1.3,70,3.6,102.7,7.2c16.3,1.8,32.2,4,47.5,6.5c7.6,1.2,15.1,2.6,22.4,4.1c7.3,1.5,14.5,3.1,21.4,4.7
						c25.3-0.2,49.7,1.8,69.9,6.6c0.4,0,0.8,0.1,1.1,0.1c-5.3-2.2-10.3-4.5-15.7-6.7c18.9,1.5,29.1,7,46.3,9.2
						c-2-3.1-4.5-6.2-6.5-9.3c23.3,1.2,47.1,1.8,71,2.2c12,0.2,23.9,0.6,35.9,0.9c12,0.3,23.9,0.7,35.9,1
						c47.7,1.5,94.4,4.1,137.6,10.7c3.5,0.2,6.7,0.5,10,0.8c37.1-6.5,74.7-12.7,118.8-13.4c-14.9-1.1-29.5-2.1-44.4-3.2
						c32-3.9,63.8-6.5,98.1-5.9c46.4,0.4,95.5,5.2,139.1,12.6c43.6,7.4,81.6,17.7,105.9,30.4c11.2-0.1,22.4,0,33.7,0.1l33.7,0.2
						l67.3,0.4c44.9,0.3,89.8,0.3,134.7,1.1c44.9,0.6,89.8,1,134.7,1.3c11.2,0.1,22.4,0.1,33.7,0.2c11.2,0.1,22.4,0.3,33.6,0.4
						c22.4,0.2,44.8,0.4,67.2,0.6c9.3,0,17.5,2.3,19,5.1c0.8,2.8-5.4,5.2-14.6,5.3c-32.2,1.1-64.5,2-96.8,2.6
						c-16.2,0.4-32.4,0.7-48.6,1.1c-16.2,0.3-32.5,0.6-48.7,0.9c-32.5,0.5-65,0.8-97.6,1.1c-8.1,0.1-16.3,0.1-24.4,0.2
						c-8.2,0.1-16.3,0.2-24.5,0.3c-16.3,0.2-32.6,0.4-48.9,0.6c27.2,1.8,54.5,3.6,81.8,5.5c27.3,2,54.7,3.9,82.1,5.7
						c27.4,1.8,55,3.5,82.6,5c27.6,1.5,55.4,2.9,83.3,4.4c14.2,0.2,28.5,0.3,42.9,0.5c14.2,0.1,28.2,1.5,42.2,3.2
						c17.8,0.8,35.5,1.5,53.2,2.3c8.8,0.4,17.6,0.8,26.4,1.1c8.8,0.4,17.5,0.9,26.3,1.3c35,1.8,69.8,3.5,104.7,5
						c17.5,0.7,34.9,1.4,52.5,2.1c17.5,0.6,35.1,1.2,52.8,1.8c35.4,1.2,71.2,2.1,107.6,2.5c31.1,0.3,61.3,0.5,91,0.7
						c29.7,0.4,58.8,0.7,88,1c58.3,0.6,116.7,0.4,178.8,1.1c43.6,0.3,86.3,0.5,128.4,0.8c5.3,0,10.5,0.1,15.8,0.1
						c5.3,0,10.5,0.1,15.7,0.2c10.5,0.2,20.9,0.4,31.4,0.6c20.9,0.5,41.6,1,62.4,1.6c20.8,0.6,41.5,1.3,62.3,2.2
						c10.4,0.5,20.8,0.9,31.2,1.4c10.4,0.5,20.8,1,31.3,1.7c41.8,2.6,83.8,5.8,126.7,9.9c22.9,1.3,43.5,8.5,45.5,15.8
						c2,7.3-15.1,12.3-38,11c-44.9-1.4-89.7-2.9-134.4-4.3l-16.8-0.5l-16.8-0.4l-33.5-0.8c-22.4-0.5-44.7-1-67.1-1.5
						c-22.3-0.5-44.7-1.1-67-1.6l-16.8-0.4c-5.6-0.1-11.2-0.3-16.8-0.4c-11.2-0.2-22.4-0.4-33.6-0.6c-44.8-0.8-89.6-1.8-134.5-3
						c-11.2-0.3-22.5-0.6-33.7-0.9c-11.2-0.3-22.5-0.5-33.8-0.8c-22.5-0.5-45.1-1.1-67.7-1.7s-45.2-1.3-67.9-2.1
						c-22.7-0.7-45.4-1.8-68.2-2.4c-45.6-1.5-91.4-3.3-137.5-5.6c-11.5-0.6-23.1-1.2-34.6-1.8c-5.8-0.3-11.6-0.6-17.3-0.9
						c-5.8-0.3-11.6-0.6-17.4-0.9c-23.2-1.1-46.5-2.4-69.8-3.8c-40.3-2.4-80-4.8-119.4-7.2c0.5,1,0.9,2,0.9,2.9
						c-0.2,3.9-4.1,7.3-10.5,10c44.7,3.2,89.8,7,135,11.3c15.8-0.2,31.6-0.5,47.4-0.7c15.8-0.2,31.7-0.5,47.5-0.4
						c31.7,0,63.6,0.2,95.7,0.8c32.1,0.6,64.4,1.6,97.1,3.2c32.7,1.8,65.7,4.4,99.2,7.7c23,2.3,45.4,4.9,67.4,7.8
						c11,1.4,21.9,2.9,32.7,4.4c5.4,0.8,10.8,1.5,16.2,2.3c5.4,0.8,10.7,1.7,16.1,2.5c42.7,6.8,84.5,14,126.8,21.2
						c13.5,0.5,27,0.9,40.6,1.4c13.5,0.5,27,0.8,40.5,1.4c27,1.1,54.1,2.2,81.1,3.3c27.1,1.1,54.2,2.3,81.4,3.4
						c13.6,0.6,27.2,1.2,40.8,1.9c13.6,0.8,27.2,1.6,40.9,2.4c4.4-0.1,8.8,1.1,10.3,2.6c1.4,1.5-1,2.7-5.5,2.8
						c-18.9,0.5-37.9,0.7-57,0.9c-19.1,0.3-38.3,0.5-57.5,0.7c-38.5,0.2-77.3,0.1-116.2-0.3c11.8,5.5,18.6,11.9,17.1,18.1
						c-1.5,6.5-11.4,11.5-26.2,14.4l52.5,5c10.8,1.2,19.1,4.4,18.5,7.6c-0.5,3.5-9.4,5.3-19.6,4.3c-17.8-1.6-35.7-3.3-53.5-4.9
						l-26.7-2.5l-26.7-2.2c-35.7-3-71.3-6-106.9-9c-21.5-0.8-42.9-1.6-64.4-2.3c-10.7-0.4-21.4-0.7-32.2-1.1l-32.2-1
						c-42.9-1.4-85.8-2.8-128.7-4.4c11.6,5.1,20,11,23.8,17.3c0,0,0,0.1,0,0.1c13.3,0.7,26.5,1.5,39.7,2.2
						c30.4-0.2,60.9-0.3,91.5-0.3c7.6,0,15.3,0,23,0.1c7.7,0.1,15.3,0.2,23,0.3c15.3,0.3,30.7,0.5,46,0.8
						c30.7,0.6,61.5,1.4,92.4,2.3c15.4,0.5,30.9,1,46.3,1.5c15.5,0.6,30.9,1.4,46.4,2.2c31,1.6,62,3.3,93,5.2c15.5,1,31.1,2,46.6,3
						c15.5,1.1,31.1,2.1,46.6,3.5c62.2,5.2,124.5,11.1,186.8,18c4.9,0.4,8.8,2,8.7,3.5c-0.1,1.5-4,2.4-8.4,1.9
						c-37.6-4.1-75.2-7.9-112.8-11.5c-18.8-1.8-37.6-3.4-56.3-5.1c-9.4-0.8-18.8-1.6-28.2-2.4c-9.4-0.8-18.8-1.4-28.2-2.1
						c0.1,0,0.2,0.1,0.3,0.1c2.9,1.2,3.4,2.9-0.1,3.7c-3,0.7-8.9,0.2-11.8-0.9c-3.4-1.3-2.9-3,0-3.7c-35-2.4-69.9-4.5-104.8-6.4
						c-17.4-1-34.9-1.9-52.3-2.7c-8.7-0.4-17.4-0.9-26.1-1.2c-8.7-0.3-17.4-0.6-26.1-0.9c-34.8-1.2-69.4-2.1-104-2.8
						c-17.3-0.4-34.6-0.7-51.8-0.9c-8.6-0.1-17.2-0.2-25.8-0.3c-8.6,0-17.2,0-25.8-0.1l23.9,1.3c8,0.5,15.9,1,23.9,1.5l47.7,3.2
						c31.8,2.2,63.6,4.5,95.4,6.9l47.7,3.7c15.9,1.5,31.7,2.9,47.6,4.4c31.7,3,63.4,6.2,95.1,9.7c14-0.7,28-1.4,42.2-2
						c3.8,0,8.8,1.3,10.2,2.8c1,1.3-2,2.6-5.9,2.6c-3.9,0.1-7.8,0.3-11.8,0.4c12,1.3,22.5,4,29.8,7.2c7.3,3.3,11.6,7.3,11,11.1
						c-1,3.9-6.8,6.9-15.5,8.7c-8.7,1.8-20.2,2.2-32.6,1c-33.4-2.1-66.8-4.4-100.1-6.8c-16.7-1.2-33.3-2.5-49.9-3.7l-25-1.9l-25-1.8
						c-7.2-0.1-14.5-0.2-21.7-0.3c-7.4,0.7-14.7,1.4-22,2.1c12.9,1.4,25.8,2.8,38.7,4.2l19.3,2.1c6.4,0.7,12.9,1.4,19.3,2.2
						c25.7,3.1,51.5,6.2,77.2,9.3c25.7,3.2,51.3,6.3,77,9.5c12.8,1.6,25.6,3.2,38.4,4.8l9.6,1.2l9.6,1.3c6.4,0.9,12.8,1.7,19.1,2.6
						c8.8,0.8,16.1,3.7,16,6.5c0,2.8-7.4,4.5-16.2,3.7c-11.3-0.4-22.7-0.8-34-1.1c-11.4-0.3-22.7-0.6-34.1-1
						c-22.7-0.7-45.5-1.4-68.3-2.2c-22.8-0.8-45.6-1.7-68.5-2.5c-11.4-0.5-22.8-0.9-34.3-1.4c-11.4-0.4-22.9-0.8-34.3-1.1
						c-45.8-1.6-91.6-3.3-137.5-5.2c-11.5-0.5-23-1-34.4-1.5c-11.5-0.5-23-0.8-34.5-1.3c-23-0.9-46-1.8-69-2.7
						c-30.5,3.9-61.1,7.9-91.9,11.9c-7.7,1-15.4,2-23.1,3c-7.7,1.1-15.4,2.1-23.1,3.2c-15.4,2.1-30.9,4.2-46.5,6.3
						c7.7,0.7,15.6,1.3,23.4,1.7c12.5,0.7,24.8,1.3,37.1,1.8c6.1,0.2,12.2,0.5,18.3,0.7c6.1,0.2,12.1,0.4,18.2,0.6
						c24.1,0.7,48,0.9,71.5,0.9c23.6-0.1,46.9-0.4,70.1-1c23.2-0.6,46.3-1.2,69.3-1.9c92-2.3,183.5-6,280.4-0.9
						c4.9,0.1,8.8,1.6,9.3,3c0.4,1.4-3,2.6-7.9,2.1c-23.7-0.9-46.8-1.2-69.8-1.3c-11.5,0-22.9-0.1-34.2,0.1
						c-11.4,0.2-22.7,0.4-34,0.7c-45.3,1.1-90.6,2.6-137.6,3c-9.7,0.1-19.4,0.2-29,0.3c-9.6,0.1-19.2,0.4-28.7,0.5
						c-19,0.4-37.9,0.8-56.5,1.4c-37.3,1-74,2.4-110.2,4.5c36.8,1.7,73.3,2.6,109.6,3.1c18.2,0.3,36.3,0.4,54.4,0.5
						c9,0,18.1,0.1,27.1,0.1c9,0.1,18.1,0.2,27.1,0.2c36.1,0.3,72.2,0.6,108.4,0.9c36.2,0.5,72.5,0.8,109,2.5
						c6.4-0.1,12.8,1.1,16.7,2.9c0.4-0.7,1.8-1.4,3.7-1.6c18.5-2.3,38.6-3.3,59.1-3.8c3.9-0.3,8.8,0.7,10.7,2.4
						C2286.3,2501.9,2283.8,2503.1,2279.4,2503.6z M611.2,2919.9c-1.5-0.6-2.6-1.1-3.7-1.6c4,0.8,8.3,1.6,13.1,2.5
						c0,0,0,0,18.4,10.9C638.9,2931.8,625,2925.9,611.2,2919.9z M385,2968c0,0,0,0,0.1,0c-6.2-3.5-10.6-6-10.6-6
						C378.8,2964.5,382.2,2966.4,385,2968z M937.7,2204.9c-9.8-0.3-19.6-0.7-29.3-1.1c-9.8-0.4-19.5-0.8-29.3-1.1
						c-19.5-0.8-38.9-1.8-58.3-3.1c-38.8-2.4-77.5-5.8-116.1-10.2c18.9-0.2,37.8-0.4,56.7-0.6c29.3,2.3,58.7,4.8,88.1,7.5
						c14.7,1.4,29.4,2.7,44.1,4.1l11,1.1l11,1.2C922.9,2203.3,930.3,2204.1,937.7,2204.9z M457.3,2881.3c20.8,5.2,37,12,52.4,19
						c6.8-0.9,13.7-1.6,20.7-2c7-0.4,14.1-0.6,21.3-0.6c38.5-0.1,76.1,0.6,113,1.8c-4.9-3.9,4-3.6,8.5-4.2c4.7-0.4,9.3-0.9,13.9-1.3
						c-39.4-1.9-79-4.2-119.3-6.6C531.3,2885,491.9,2884.7,457.3,2881.3z M182.7,2906.6c-1.1-0.5-2.2-0.9-3.4-1.3c0,0,0,0,7.1-6.2
						C186.4,2899,184.8,2902.2,182.7,2906.6z M171.5,2917.1c1.8,0.2,3.7,0.4,5.7,0.6C175.3,2920,173.4,2919.3,171.5,2917.1z
						 M223.5,2922.5c-3.1-1.5-5-2.4-7.5-2.9C223.5,2922.5,223.5,2922.5,223.5,2922.5z M267.1,3096.2l18.9-30.6l-20.7,29.5
						L267.1,3096.2z"/>
				</g>
			</g>
		</g>
	</g>
</g>
<g id="Text" class="st8">
	<g class="st9">
		<rect x="1133.7" y="3010.6" width="930.9" height="4.4"/>
	</g>
	<g class="st9">
		<path d="M775,2770.2l-51.2,163.6h-7.3l-48.8-152.6l-48.6,152.6h-7.5l-51.2-163.6h7.7l47.3,152.1l48.8-152.1h7.1l48.6,152.4
			l47.8-152.4H775z"/>
		<path d="M830,2923.9c-11.8-7.2-21-17.1-27.7-29.7c-6.7-12.6-10.1-26.7-10.1-42.3c0-15.6,3.4-29.7,10.1-42.3
			c6.7-12.6,16-22.5,27.7-29.7c11.8-7.2,25-10.8,39.5-10.8c14.6,0,27.8,3.6,39.6,10.8c11.9,7.2,21.1,17.1,27.8,29.7
			c6.7,12.6,10.1,26.7,10.1,42.3c0,15.6-3.4,29.7-10.1,42.3c-6.7,12.6-16,22.5-27.8,29.7c-11.9,7.2-25.1,10.8-39.6,10.8
			C854.9,2934.7,841.7,2931.1,830,2923.9z M905.3,2917.6c10.7-6.5,19.1-15.6,25.3-27.1c6.1-11.5,9.2-24.4,9.2-38.6
			c0-14.2-3.1-27-9.2-38.6c-6.1-11.5-14.6-20.6-25.3-27.1c-10.7-6.5-22.6-9.8-35.8-9.8c-13.1,0-25,3.3-35.7,9.8
			c-10.6,6.5-19,15.6-25.2,27.1c-6.1,11.5-9.2,24.4-9.2,38.6c0,14.2,3.1,27,9.2,38.6c6.1,11.5,14.5,20.6,25.2,27.1
			c10.6,6.5,22.5,9.8,35.7,9.8C882.6,2927.4,894.5,2924.2,905.3,2917.6z"/>
		<path d="M1092,2933.8l-37.1-56.3c-4.9,0.9-10.3,1.4-16.3,1.4h-44.8v54.9h-7.3v-163.6h52.1c18.7,0,33.3,4.8,43.8,14.4
			c10.5,9.6,15.7,22.9,15.7,39.8c0,13.1-3.1,24-9.3,32.8c-6.2,8.8-15.1,14.9-26.7,18.3l38.3,58.2H1092z M1039.1,2871.6
			c16.7,0,29.6-4.1,38.6-12.3s13.5-19.8,13.5-34.9c0-15-4.5-26.5-13.5-34.7s-21.8-12.3-38.6-12.3h-45.2v94.2H1039.1z"/>
		<path d="M1140.4,2770.2h7.3v156.3h87.8v7.2h-95.1V2770.2z"/>
		<path d="M1265.1,2770.2h57.8c15.6,0,29.4,3.5,41.4,10.5c12.1,7,21.4,16.7,28.1,29.1c6.6,12.4,10,26.4,10,42.2
			c0,15.7-3.3,29.8-10,42.2c-6.6,12.4-16,22.1-28.1,29.1c-12.1,7-25.9,10.5-41.4,10.5h-57.8V2770.2z M1322.5,2926.5
			c14.6,0,27.3-3.2,38.2-9.6c10.9-6.4,19.4-15.2,25.4-26.5c6-11.3,9-24.1,9-38.4c0-14.3-3-27.1-9-38.4c-6-11.3-14.5-20.1-25.4-26.5
			c-10.9-6.4-23.7-9.6-38.2-9.6h-50.1v149.1H1322.5z"/>
		<path d="M1590.7,2784.7c10.4,9.5,15.6,24.2,15.6,43.9c0,19.8-5.3,34.3-16,43.5c-10.6,9.2-27,13.8-48.9,13.8h-26.6v47.9h-25.3
			v-163.4h51.4C1563.7,2770.4,1580.3,2775.2,1590.7,2784.7z M1572.8,2852.1c5.1-5.8,7.6-14.4,7.6-25.7c0-11.3-3.2-19.3-9.6-24
			c-6.4-4.7-16.5-7-30.2-7h-25.7v65.4h29.3C1558.2,2860.8,1567.7,2857.9,1572.8,2852.1z"/>
		<path d="M1755.6,2823.4c0,27-10.8,43.9-32.3,50.9l39.2,59.4h-32.1l-35.8-54.9h-33.2v54.9h-25.3v-163.4h55.7
			c22.8,0,39.2,4.2,49.1,12.6C1750.7,2791.4,1755.6,2804.9,1755.6,2823.4z M1722,2846.6c5.1-4.8,7.7-12.6,7.7-23.3
			c0-10.7-2.6-18-7.9-22c-5.3-4-14.7-6-28.3-6h-32.1v58.4h31.5C1707.1,2853.8,1716.9,2851.4,1722,2846.6z"/>
		<path d="M1792,2770.4h25.3v163.4H1792V2770.4z"/>
		<path d="M1972.2,2791.8c14.4,14.3,21.6,34.1,21.6,59.5c0,25.4-7,45.5-21,60.3c-14,14.8-35.4,22.2-64.3,22.2h-49.7v-163.4h51.4
			C1937.1,2770.4,1957.8,2777.5,1972.2,2791.8z M1968.3,2852c0-37.4-19.6-56.1-58.9-56.1h-25.3v111.9h28.1c18.1,0,32-4.7,41.7-14.1
			C1963.5,2884.2,1968.3,2870.3,1968.3,2852z"/>
		<path d="M2131.6,2770.4v25.9h-79.9v43.2h71.8v24.5h-71.8v43.7h82.5v25.9h-107.7v-163.4H2131.6z"/>
		<path d="M2227.3,2770.2h57.8c15.6,0,29.4,3.5,41.4,10.5c12.1,7,21.4,16.7,28.1,29.1c6.6,12.4,10,26.4,10,42.2
			c0,15.7-3.3,29.8-10,42.2c-6.6,12.4-16,22.1-28.1,29.1c-12.1,7-25.9,10.5-41.4,10.5h-57.8V2770.2z M2284.7,2926.5
			c14.6,0,27.3-3.2,38.2-9.6c10.9-6.4,19.4-15.2,25.4-26.5c6-11.3,9-24.1,9-38.4c0-14.3-3-27.1-9-38.4c-6-11.3-14.5-20.1-25.4-26.5
			c-10.9-6.4-23.7-9.6-38.2-9.6h-50.1v149.1H2284.7z"/>
		<path d="M2494,2885.8h-89.8l-20.1,47.9h-7.9l69.4-163.6h7.1l69.4,163.6h-7.9L2494,2885.8z M2491.2,2879.1l-42-99.8l-42.2,99.8
			H2491.2z"/>
		<path d="M2584.8,2877.9v55.9h-7.3v-55.9l-60.6-107.7h7.9l56.5,100l56.5-100h7.7L2584.8,2877.9z"/>
	</g>
</g>
</svg>
