<?xml version="1.0" encoding="utf-8"?>
<!-- Generator: Adobe Illustrator 25.4.1, SVG Export Plug-In . SVG Version: 6.00 Build 0)  -->
<svg version="1.1" id="Layer_1" xmlns="http://www.w3.org/2000/svg" xmlns:xlink="http://www.w3.org/1999/xlink" x="0px" y="0px"
	 viewBox="0 0 322.8 389.5" style="enable-background:new 0 0 322.8 389.5;" xml:space="preserve">
<style type="text/css">
	.st0{display:none;}
	.st1{display:inline;fill:#60B9E9;}
	.st2{display:inline;fill:#F8B335;}
	.st3{fill:#6FB32D;}
	.st4{fill:#F39F00;}
	.st5{fill:#00A7E2;}
	.st6{fill:#E51E3D;}
</style>
<g class="st0">
	<path class="st1" d="M930.2,1007.8c-0.9-2.9-1.9-5.8-3-8.8c-1.1-3-2.1-6-3.2-9h-32.3c-1,3-2.1,6-3.1,9.1c-1,3-2,6-2.9,8.8h-19.3
		c3.1-8.9,6.1-17.1,8.8-24.7c2.8-7.5,5.5-14.7,8.2-21.3c2.7-6.7,5.3-13,7.9-19c2.6-6,5.3-11.9,8.1-17.6h17.6
		c2.7,5.7,5.4,11.6,8,17.6c2.6,6,5.3,12.3,8,19c2.7,6.7,5.4,13.8,8.2,21.3c2.8,7.6,5.7,15.8,8.9,24.7H930.2z M907.9,943.9
		c-0.4,1.2-1,2.8-1.8,4.9c-0.8,2.1-1.7,4.5-2.7,7.2c-1,2.7-2.2,5.7-3.4,8.9c-1.3,3.3-2.5,6.7-3.8,10.2h23.6c-1.3-3.6-2.5-7-3.7-10.3
		c-1.2-3.3-2.3-6.2-3.4-9c-1.1-2.7-2-5.1-2.8-7.2C909,946.7,908.4,945,907.9,943.9z"/>
	<path class="st1" d="M985,924.2c12.4,0,21.9,2.2,28.5,6.6c6.6,4.4,9.9,11.3,9.9,20.6c0,5.8-1.3,10.5-4,14.1
		c-2.7,3.6-6.5,6.5-11.5,8.5c1.7,2.1,3.4,4.4,5.2,7.1c1.8,2.7,3.6,5.4,5.4,8.3c1.8,2.9,3.5,5.9,5.2,9.1c1.7,3.1,3.2,6.2,4.6,9.2
		h-20.8c-1.5-2.7-3.1-5.4-4.6-8.2c-1.6-2.8-3.1-5.5-4.8-8.1c-1.6-2.6-3.3-5.1-4.8-7.5c-1.6-2.3-3.2-4.5-4.8-6.4h-9.2v30.2h-18.6
		v-81.4c4.1-0.8,8.2-1.4,12.6-1.7C977.7,924.4,981.6,924.2,985,924.2z M986,940.1c-1.4,0-2.6,0-3.6,0.1c-1.1,0.1-2.1,0.2-3,0.2v22.4
		h5.2c7,0,12-0.9,15-2.6c3-1.7,4.5-4.7,4.5-8.9c0-4.1-1.5-6.9-4.6-8.6C996.5,940.9,992,940.1,986,940.1z"/>
	<path class="st1" d="M1100.4,925.2V941h-24.9v66.8h-18.6V941h-24.9v-15.9H1100.4z"/>
	<path class="st1" d="M1137.1,924.2c12.3,0,21.8,2.2,28.4,6.5c6.6,4.3,9.9,11.4,9.9,21.3c0,9.9-3.3,17.1-10,21.5
		c-6.7,4.4-16.2,6.6-28.6,6.6h-5.8v27.7h-18.6v-81.4c4.1-0.8,8.3-1.4,12.9-1.7C1129.7,924.4,1133.7,924.2,1137.1,924.2z
		 M1138.3,940.1c-1.4,0-2.7,0-4,0.1c-1.3,0.1-2.4,0.2-3.4,0.2v23.8h5.8c6.4,0,11.3-0.9,14.5-2.6c3.3-1.7,4.9-5,4.9-9.8
		c0-2.3-0.4-4.2-1.3-5.7c-0.8-1.5-2-2.7-3.6-3.6c-1.5-0.9-3.4-1.5-5.7-1.9C1143.5,940.2,1141,940.1,1138.3,940.1z"/>
	<path class="st1" d="M1267.8,966.4c0,7.1-1.1,13.3-3.2,18.7c-2.1,5.4-5,9.9-8.6,13.5c-3.7,3.6-8,6.3-13.1,8.2
		c-5,1.8-10.5,2.7-16.3,2.7c-5.6,0-11-0.9-16-2.7c-5-1.8-9.4-4.5-13.1-8.2c-3.7-3.6-6.7-8.1-8.8-13.5c-2.1-5.4-3.2-11.6-3.2-18.7
		c0-7.1,1.1-13.3,3.3-18.7c2.2-5.4,5.2-9.9,9-13.5c3.8-3.7,8.1-6.4,13.1-8.2c5-1.8,10.2-2.7,15.7-2.7c5.6,0,11,0.9,16,2.7
		c5,1.8,9.4,4.6,13.1,8.2c3.7,3.7,6.7,8.2,8.8,13.5C1266.7,953.1,1267.8,959.3,1267.8,966.4z M1204.7,966.4c0,4.1,0.5,7.7,1.5,11
		c1,3.3,2.4,6.1,4.3,8.4c1.9,2.3,4.2,4.2,6.9,5.4c2.7,1.3,5.8,1.9,9.3,1.9c3.4,0,6.5-0.6,9.2-1.9c2.7-1.3,5-3.1,6.9-5.4
		c1.9-2.3,3.3-5.1,4.3-8.4c1-3.3,1.5-6.9,1.5-11c0-4.1-0.5-7.7-1.5-11c-1-3.3-2.4-6.1-4.3-8.5c-1.9-2.3-4.2-4.2-6.9-5.4
		c-2.7-1.3-5.8-1.9-9.2-1.9c-3.5,0-6.6,0.7-9.3,2c-2.7,1.3-5,3.1-6.9,5.5c-1.9,2.3-3.3,5.2-4.3,8.5
		C1205.2,958.8,1204.7,962.4,1204.7,966.4z"/>
	<path class="st1" d="M1283.3,925.2h18.6v82.6h-18.6V925.2z"/>
	<path class="st1" d="M1376.4,1007.8c-5.3-9.5-11.1-18.8-17.3-28c-6.2-9.2-12.8-17.9-19.8-26.1v54.1h-18.4v-82.6h15.1
		c2.6,2.6,5.5,5.8,8.7,9.7c3.2,3.8,6.4,7.9,9.7,12.2c3.3,4.3,6.6,8.8,9.8,13.5c3.3,4.6,6.3,9.1,9.2,13.4v-48.8h18.5v82.6H1376.4z"/>
	<path class="st1" d="M1472.3,925.2V941h-24.9v66.8h-18.6V941h-24.9v-15.9H1472.3z"/>
</g>
<g class="st0">
	<path class="st2" d="M892.7,1049c0.7,0,1.2-0.1,1.6-0.2c0.4-0.1,0.8-0.3,1-0.4c0.3-0.2,0.4-0.4,0.5-0.7c0.1-0.3,0.1-0.5,0.1-0.9
		c0-0.7-0.3-1.2-0.9-1.7c-0.6-0.4-1.7-0.9-3.3-1.4c-0.7-0.2-1.3-0.5-2-0.8c-0.7-0.3-1.3-0.7-1.8-1.2c-0.5-0.5-1-1-1.3-1.7
		c-0.3-0.7-0.5-1.5-0.5-2.4c0-0.9,0.2-1.8,0.5-2.6c0.4-0.8,0.9-1.4,1.5-1.9c0.7-0.5,1.4-0.9,2.4-1.2c0.9-0.3,2-0.4,3.1-0.4
		c1.4,0,2.6,0.1,3.6,0.4c1,0.3,1.8,0.6,2.5,1l-1.3,3.6c-0.6-0.3-1.2-0.6-1.9-0.8c-0.7-0.2-1.5-0.3-2.5-0.3c-1.1,0-1.9,0.2-2.4,0.5
		c-0.5,0.3-0.7,0.8-0.7,1.4c0,0.4,0.1,0.7,0.3,0.9c0.2,0.3,0.4,0.5,0.8,0.7c0.3,0.2,0.7,0.4,1.1,0.6s0.9,0.3,1.4,0.5
		c1.1,0.4,2,0.8,2.8,1.2c0.8,0.4,1.4,0.8,2,1.3c0.5,0.5,0.9,1.1,1.2,1.8c0.3,0.7,0.4,1.5,0.4,2.5c0,1.9-0.7,3.4-2,4.5
		c-1.3,1.1-3.4,1.6-6.1,1.6c-0.9,0-1.7-0.1-2.5-0.2c-0.7-0.1-1.4-0.2-1.9-0.4c-0.6-0.2-1-0.3-1.5-0.5c-0.4-0.2-0.7-0.3-1-0.5
		l1.3-3.7c0.6,0.3,1.4,0.6,2.3,0.9C890.3,1048.9,891.4,1049,892.7,1049z"/>
	<path class="st2" d="M939.4,1048.6v4h-13.7V1032h4.6v16.6H939.4z"/>
	<path class="st2" d="M983.3,1042.3c0,1.8-0.3,3.3-0.8,4.6c-0.5,1.3-1.2,2.5-2.1,3.3c-0.9,0.9-2,1.6-3.2,2c-1.3,0.5-2.6,0.7-4,0.7
		c-1.4,0-2.7-0.2-4-0.7s-2.3-1.1-3.3-2c-0.9-0.9-1.7-2-2.2-3.3c-0.5-1.3-0.8-2.9-0.8-4.6s0.3-3.3,0.8-4.6s1.3-2.5,2.2-3.4
		c0.9-0.9,2-1.6,3.3-2c1.2-0.5,2.5-0.7,3.9-0.7c1.4,0,2.7,0.2,4,0.7c1.2,0.5,2.3,1.1,3.3,2c0.9,0.9,1.7,2,2.2,3.4
		C983,1039,983.3,1040.5,983.3,1042.3z M967.6,1042.3c0,1,0.1,1.9,0.4,2.7c0.2,0.8,0.6,1.5,1.1,2.1c0.5,0.6,1,1,1.7,1.3
		c0.7,0.3,1.4,0.5,2.3,0.5c0.8,0,1.6-0.2,2.3-0.5c0.7-0.3,1.3-0.8,1.7-1.3c0.5-0.6,0.8-1.3,1.1-2.1c0.2-0.8,0.4-1.7,0.4-2.7
		s-0.1-1.9-0.4-2.7c-0.2-0.8-0.6-1.5-1.1-2.1c-0.5-0.6-1-1-1.7-1.3c-0.7-0.3-1.4-0.5-2.3-0.5c-0.9,0-1.6,0.2-2.3,0.5
		c-0.7,0.3-1.2,0.8-1.7,1.4c-0.5,0.6-0.8,1.3-1.1,2.1C967.7,1040.4,967.6,1041.3,967.6,1042.3z"/>
	<path class="st2" d="M1018.5,1035.6c-2.2,0-3.7,0.6-4.7,1.8c-1,1.2-1.4,2.8-1.4,4.9c0,1,0.1,1.9,0.4,2.7c0.2,0.8,0.6,1.5,1.1,2.1
		c0.5,0.6,1.1,1.1,1.8,1.4c0.7,0.3,1.5,0.5,2.5,0.5c0.5,0,1,0,1.3,0c0.4,0,0.7-0.1,1-0.1v-7.1h4.6v10.2c-0.6,0.2-1.4,0.4-2.7,0.7
		c-1.2,0.2-2.7,0.4-4.5,0.4c-1.5,0-2.9-0.2-4.2-0.7c-1.3-0.5-2.3-1.2-3.2-2.1c-0.9-0.9-1.6-2-2.1-3.3c-0.5-1.3-0.7-2.8-0.7-4.5
		c0-1.7,0.3-3.2,0.8-4.6c0.5-1.3,1.3-2.4,2.2-3.4c0.9-0.9,2-1.6,3.3-2.1c1.3-0.5,2.6-0.7,4-0.7c1,0,1.8,0.1,2.6,0.2
		c0.8,0.1,1.5,0.3,2,0.4c0.6,0.2,1,0.3,1.4,0.5s0.6,0.3,0.8,0.4l-1.3,3.7c-0.6-0.3-1.4-0.6-2.2-0.9
		C1020.4,1035.7,1019.5,1035.6,1018.5,1035.6z"/>
	<path class="st2" d="M1064.4,1052.5c-0.2-0.7-0.5-1.4-0.7-2.2s-0.5-1.5-0.8-2.2h-8c-0.3,0.7-0.5,1.5-0.8,2.3
		c-0.3,0.8-0.5,1.5-0.7,2.2h-4.8c0.8-2.2,1.5-4.3,2.2-6.1c0.7-1.9,1.4-3.6,2-5.3c0.7-1.7,1.3-3.2,2-4.7c0.6-1.5,1.3-2.9,2-4.4h4.4
		c0.7,1.4,1.3,2.9,2,4.4c0.7,1.5,1.3,3.1,2,4.7s1.3,3.4,2,5.3c0.7,1.9,1.4,3.9,2.2,6.1H1064.4z M1058.9,1036.7
		c-0.1,0.3-0.3,0.7-0.5,1.2c-0.2,0.5-0.4,1.1-0.7,1.8s-0.5,1.4-0.9,2.2c-0.3,0.8-0.6,1.7-1,2.5h5.9c-0.3-0.9-0.6-1.7-0.9-2.6
		c-0.3-0.8-0.6-1.6-0.8-2.2c-0.3-0.7-0.5-1.3-0.7-1.8C1059.2,1037.3,1059,1036.9,1058.9,1036.7z"/>
	<path class="st2" d="M1107.1,1052.5c-1.3-2.4-2.8-4.7-4.3-7c-1.5-2.3-3.2-4.5-4.9-6.5v13.5h-4.6V1032h3.8c0.7,0.7,1.4,1.5,2.2,2.4
		c0.8,0.9,1.6,2,2.4,3c0.8,1.1,1.6,2.2,2.4,3.3c0.8,1.2,1.6,2.3,2.3,3.3V1032h4.6v20.5H1107.1z"/>
	<path class="st2" d="M1154.2,1035.6c-2.2,0-3.7,0.6-4.7,1.8c-1,1.2-1.4,2.8-1.4,4.9c0,1,0.1,1.9,0.4,2.7c0.2,0.8,0.6,1.5,1.1,2.1
		c0.5,0.6,1.1,1.1,1.8,1.4s1.5,0.5,2.5,0.5c0.5,0,1,0,1.3,0c0.4,0,0.7-0.1,1-0.1v-7.1h4.6v10.2c-0.6,0.2-1.4,0.4-2.7,0.7
		c-1.2,0.2-2.7,0.4-4.5,0.4c-1.5,0-2.9-0.2-4.2-0.7c-1.3-0.5-2.3-1.2-3.2-2.1c-0.9-0.9-1.6-2-2.1-3.3c-0.5-1.3-0.7-2.8-0.7-4.5
		c0-1.7,0.3-3.2,0.8-4.6c0.5-1.3,1.3-2.4,2.2-3.4c0.9-0.9,2-1.6,3.3-2.1c1.3-0.5,2.6-0.7,4-0.7c1,0,1.8,0.1,2.6,0.2
		c0.8,0.1,1.5,0.3,2,0.4c0.6,0.2,1,0.3,1.4,0.5s0.6,0.3,0.8,0.4l-1.3,3.7c-0.6-0.3-1.4-0.6-2.2-0.9
		C1156.1,1035.7,1155.2,1035.6,1154.2,1035.6z"/>
	<path class="st2" d="M1205.9,1042.3c0,1.8-0.3,3.3-0.8,4.6c-0.5,1.3-1.2,2.5-2.1,3.3s-2,1.6-3.2,2s-2.6,0.7-4,0.7
		c-1.4,0-2.7-0.2-4-0.7c-1.2-0.5-2.3-1.1-3.3-2s-1.7-2-2.2-3.3c-0.5-1.3-0.8-2.9-0.8-4.6s0.3-3.3,0.8-4.6c0.6-1.3,1.3-2.5,2.2-3.4
		c0.9-0.9,2-1.6,3.3-2c1.2-0.5,2.5-0.7,3.9-0.7c1.4,0,2.7,0.2,4,0.7c1.2,0.5,2.3,1.1,3.3,2c0.9,0.9,1.7,2,2.2,3.4
		C1205.7,1039,1205.9,1040.5,1205.9,1042.3z M1190.3,1042.3c0,1,0.1,1.9,0.4,2.7s0.6,1.5,1.1,2.1c0.5,0.6,1,1,1.7,1.3
		s1.4,0.5,2.3,0.5c0.8,0,1.6-0.2,2.3-0.5c0.7-0.3,1.3-0.8,1.7-1.3c0.5-0.6,0.8-1.3,1.1-2.1c0.2-0.8,0.4-1.7,0.4-2.7
		s-0.1-1.9-0.4-2.7c-0.2-0.8-0.6-1.5-1.1-2.1c-0.5-0.6-1-1-1.7-1.3c-0.7-0.3-1.4-0.5-2.3-0.5c-0.9,0-1.6,0.2-2.3,0.5
		s-1.2,0.8-1.7,1.4c-0.5,0.6-0.8,1.3-1.1,2.1S1190.3,1041.3,1190.3,1042.3z"/>
	<path class="st2" d="M1231.1,1052.5V1032h13.9v3.9h-9.2v4h8.2v3.8h-8.2v5h9.9v3.9H1231.1z"/>
	<path class="st2" d="M1276,1049c0.7,0,1.2-0.1,1.6-0.2c0.4-0.1,0.8-0.3,1-0.4c0.3-0.2,0.4-0.4,0.5-0.7s0.1-0.5,0.1-0.9
		c0-0.7-0.3-1.2-0.9-1.7c-0.6-0.4-1.7-0.9-3.3-1.4c-0.7-0.2-1.3-0.5-2-0.8c-0.7-0.3-1.3-0.7-1.8-1.2c-0.5-0.5-1-1-1.3-1.7
		c-0.3-0.7-0.5-1.5-0.5-2.4c0-0.9,0.2-1.8,0.5-2.6c0.4-0.8,0.9-1.4,1.5-1.9c0.7-0.5,1.4-0.9,2.4-1.2c0.9-0.3,2-0.4,3.1-0.4
		c1.4,0,2.6,0.1,3.6,0.4c1,0.3,1.8,0.6,2.5,1l-1.3,3.6c-0.6-0.3-1.2-0.6-1.9-0.8c-0.7-0.2-1.5-0.3-2.5-0.3c-1.1,0-1.9,0.2-2.4,0.5
		c-0.5,0.3-0.7,0.8-0.7,1.4c0,0.4,0.1,0.7,0.3,0.9s0.4,0.5,0.8,0.7c0.3,0.2,0.7,0.4,1.1,0.6c0.4,0.2,0.9,0.3,1.4,0.5
		c1.1,0.4,2,0.8,2.8,1.2c0.8,0.4,1.4,0.8,2,1.3s0.9,1.1,1.2,1.8c0.3,0.7,0.4,1.5,0.4,2.5c0,1.9-0.7,3.4-2,4.5
		c-1.3,1.1-3.4,1.6-6.1,1.6c-0.9,0-1.7-0.1-2.5-0.2c-0.7-0.1-1.4-0.2-1.9-0.4c-0.6-0.2-1-0.3-1.5-0.5s-0.7-0.3-1-0.5l1.3-3.7
		c0.6,0.3,1.4,0.6,2.3,0.9C1273.6,1048.9,1274.7,1049,1276,1049z"/>
	<path class="st2" d="M1328.5,1032h4.6v20.5h-4.6v-8.7h-7.8v8.7h-4.6V1032h4.6v7.9h7.8V1032z"/>
	<path class="st2" d="M1359.2,1052.5V1032h13.9v3.9h-9.2v4h8.2v3.8h-8.2v5h9.9v3.9H1359.2z"/>
	<path class="st2" d="M1404.6,1031.8c3.1,0,5.4,0.5,7.1,1.6c1.6,1.1,2.5,2.8,2.5,5.1c0,1.4-0.3,2.6-1,3.5c-0.7,0.9-1.6,1.6-2.9,2.1
		c0.4,0.5,0.8,1.1,1.3,1.8c0.5,0.7,0.9,1.4,1.3,2.1s0.9,1.5,1.3,2.3c0.4,0.8,0.8,1.5,1.2,2.3h-5.2c-0.4-0.7-0.8-1.4-1.1-2
		c-0.4-0.7-0.8-1.4-1.2-2c-0.4-0.7-0.8-1.3-1.2-1.9c-0.4-0.6-0.8-1.1-1.2-1.6h-2.3v7.5h-4.6v-20.2c1-0.2,2.1-0.3,3.1-0.4
		C1402.8,1031.8,1403.7,1031.8,1404.6,1031.8z M1404.8,1035.7c-0.3,0-0.6,0-0.9,0c-0.3,0-0.5,0-0.8,0.1v5.6h1.3c1.7,0,3-0.2,3.7-0.7
		s1.1-1.2,1.1-2.2c0-1-0.4-1.7-1.1-2.1C1407.4,1035.9,1406.3,1035.7,1404.8,1035.7z"/>
	<path class="st2" d="M1439.7,1052.5V1032h13.9v3.9h-9.2v4h8.2v3.8h-8.2v5h9.9v3.9H1439.7z"/>
</g>
<g>
	<path class="st3" d="M101.6,133.2c3.2-6.7,7.5-13.1,13.1-18.6c25.8-25.8,67.6-25.8,93.3,0c17.6,17.6,23.2,42.6,16.8,64.9l75.7,63.6
		c8.8-15,15-31.1,18.6-47.6L119.3,5.4c-26.4,7.1-51.3,21-72,41.7c-1.7,1.7-3.4,3.4-5,5.2L101.6,133.2z"/>
	<path class="st4" d="M319.9,191.6c9.7-50.7-5.1-105.2-44.4-144.4C245.8,17.4,207.3,1.7,168.4,0L319.9,191.6z"/>
	<path class="st5" d="M2.2,134.4c-8.3,49.7,6.7,102.6,45,140.9l114.1,114.1l25-25L2.2,134.4z"/>
	<path class="st6" d="M221.7,188c-3.2,7.2-7.7,14-13.6,19.9c-25.8,25.8-67.6,25.8-93.3,0c-15.7-15.7-21.8-37.4-18.4-57.8L20.3,82.8
		c-8.3,14.8-14,30.7-17.2,47l212.9,205l59.5-59.5c1.4-1.4,2.7-2.8,4-4.1L221.7,188z"/>
</g>
</svg>
