<?xml version="1.0" encoding="utf-8"?>
<!-- Generator: Adobe Illustrator 25.4.1, SVG Export Plug-In . SVG Version: 6.00 Build 0)  -->
<svg version="1.1" id="Layer_2" xmlns="http://www.w3.org/2000/svg" xmlns:xlink="http://www.w3.org/1999/xlink" x="0px" y="0px"
	 viewBox="0 0 400 487" style="enable-background:new 0 0 400 487;" xml:space="preserve">
<style type="text/css">
	.st0{fill:#FFC800;}
	.st1{fill:#ED000A;}
	.st2{fill:#6E0291;}
	.st3{fill:#009ADE;}
	.st4{fill:#717379;}
	.st5{fill:#808188;}
</style>
<g id="XMLID_479_">
	<path id="XMLID_263_" class="st0" d="M350.3,427.6L350.3,427.6c16-7.6,23.1-22.1,15.8-32.4L259.9,244.3L202,271.8l106.2,150.9
		C315.4,433,334.3,435.2,350.3,427.6z"/>
	<path id="XMLID_446_" class="st1" d="M317.8,216.9L401.6,336c-7.2-10.3-26.1-12.5-42.1-4.9l0,0c-16,7.6-23.1,22.1-15.8,32.4
		l-83.8-119.1L317.8,216.9z"/>
	<path id="XMLID_266_" class="st2" d="M234.4,482.5L234.4,482.5c16-7.6,23.1-22.1,15.8-32.4L144.1,299.2l-57.9,27.4l106.2,150.9
		C199.6,487.9,218.5,490.1,234.4,482.5z"/>
	<path id="XMLID_392_" class="st3" d="M202,271.8l60.4,85.9c-7.2-10.3-26.1-12.5-42.1-4.9l0,0c-16,7.6-23.1,22.1-15.8,32.4
		l-60.4-85.9L202,271.8z"/>
	<g id="XMLID_661_">
		<path id="XMLID_667_" class="st4" d="M42.5,264.6c0.8-4.8,3.2-9.7,7-14.1c11.4-13.1,36.3-43.2,43.7-64.2
			c9.7-27.5-41.3-61.8-74.4-105.9c-33.2-44.1-8-80.4-8-80.4l16.9,24C15.1,29.9,11,43.3,18.4,53.8c7.4,10.5,23.5,14.2,36.1,8.3
			l103.9,147.6L42.5,264.6L42.5,264.6z"/>
		<path id="XMLID_668_" class="st5" d="M63.7,32.3C56.3,21.8,40.2,18.1,27.7,24L10.8,0c0,0,51,0.3,80.9,45.9
			c29.9,45.6,40.6,98.9,74.5,105.8c25.8,5.2,70,2.6,89.6,1.1c6.6-0.5,12.9,0.2,18.4,2l0,0l-115.8,54.9L54.5,62.1
			C67,56.1,71.1,42.8,63.7,32.3z"/>
	</g>
	<polygon id="XMLID_691_" class="st5" points="197.3,265.1 168.5,224.2 284.3,169.3 313.2,210.3 	"/>
	<polygon id="XMLID_670_" class="st4" points="81.5,320 52.7,279 168.5,224.2 197.3,265.1 	"/>
</g>
</svg>
