<?xml version="1.0" encoding="utf-8"?>
<!-- Generator: Adobe Illustrator 25.4.1, SVG Export Plug-In . SVG Version: 6.00 Build 0)  -->
<svg version="1.1" id="Слой_1" xmlns="http://www.w3.org/2000/svg" xmlns:xlink="http://www.w3.org/1999/xlink" x="0px" y="0px"
	 viewBox="0 0 501 129" style="enable-background:new 0 0 501 129;" xml:space="preserve">
<style type="text/css">
	.st0{fill:#141414;}
</style>
<g>
	<path class="st0" d="M1.96,49.26c0.02,0,0.04-0.01,0.06-0.01c0.02-0.02,0.05-0.04,0.07-0.07L1.96,49.26z"/>
	<path class="st0" d="M492.6,71.03c-2.84-0.55-5.67-1.12-8.56-1.67c2.54-0.11,5.08-0.25,7.6-0.41c8.42-0.51,11.12-1.78,6.39-3.97
		c-4.65-2.16-11.8-3.29-19.8-3.95c-1.24-0.22-2.41-0.53-3.75-0.65c-8.1-0.73-11.23-1.01-10.66-1.97c0.55-0.14,1.12-0.25,1.74-0.33
		c4.83-0.61,3.46,2.17,8.84,1.68c2.78-0.25,6.14-0.07,6.62-1.73c-5.26,0.05-7.97-1.76-13.59-1.77c0.47-0.23,0.98-0.47,1.53-0.73
		c1.93,0.18,3.86,0.35,5.79,0.53c0.23,0.65,1.25,1.32,3.45,1.09c2.93-0.31,0.09-0.97,0.1-1.47c5.87-0.43,12.56,0.89,18.45-0.81
		c-3.54-3.3-14.94-2.52-21.57-4.05c-0.85-0.48-1.7-0.96-2.55-1.44c2.38-0.06,5.52-0.07,5.75-0.93c0.33-1.23-3.74-1.07-6.22-1.38
		c-0.02-0.25,0.09-0.5,0.35-0.74c0.76-0.02,1.46-0.1,2.13-0.21c0.26-0.02,0.53-0.04,0.79-0.06c7.42,0.23,13.96-0.89,21.6-0.96
		c-0.66-0.73-1.74-1.22-3.03-1.56c-0.02-0.1-0.05-0.21-0.13-0.32c-0.83-1.28-0.92-2.83-7.25-3.09c-1.07-0.04-2.12-0.12-3.17-0.2
		c1.36-0.12,3.24-0.19,4.54-0.24c1.5-0.06,3.01-0.08,4.52-0.12c-0.37-0.43-0.35-1.15-1.15-1.25c-14.39-1.78-28.27-4.29-44.67-3.49
		c-0.44-0.28-0.92-0.58-1.46-0.93c9.25-0.49,18.68-0.53,26.95,0.2c9.89,0.87,16.63-2,26.09-1.02c-1.91-0.69-3.97-1.2-5.98-1.68
		c2.01-0.23,4.16-0.49,6.6-0.71c-4.89-0.96-8.87-1.77-8.76-3.15c0.05-0.07,0.07-0.15,0.06-0.22c0.01-0.03,0.01-0.05,0.02-0.08
		c0.76-1.6,8.95-0.38,9.72-2.17c-2.5-0.8-5.97-0.34-8.7-0.7c-7.3-0.97-14.61-1.93-22.08-2.65c5.53,0.2,11.07,0.24,16.57-0.5
		c-3.76-0.74-7.6-1.09-11.39-1.47c-1.98-0.2-4.38-0.66-3.32-1.28c5.54-3.24-3.9-3.25-9.12-3.95c-8.1-1.09-16.36-2.01-24.73-2.85
		c13.55-0.34,26.32-0.02,39.22,1.53c3.32,0.4,7.21,1.19,13.4,0.65c-24.95-5.19-50.5-7.39-78.51-7c0,0-0.6,0.07-0.6,0.07
		c-16.59-1.69-33.84-1.78-51.04-2c1.01-0.84,3.66-0.68,5.72-0.88c6.89,0,13.79,0,20.92,0c-0.69-1.4-1.03-3.18-6.49-2.09
		c-4.61,0.92-8.13,0.48-12.48,0.46c-15.84-0.08-31.86-1.06-47.47,0.6c-10.46-0.59-20.77-0.53-31.42-0.27
		c-2.6-0.11-5.19-0.21-7.78-0.33c-13.93-0.6-27.99-0.95-42.07-1.23c-16.55-1.34-33.41-2.14-50.7-1.06
		c-25.84-0.66-51.67-1.18-76.94,1.82C95.84,2.54,81.31,4.2,74.14,6.26c5.6,0.62,10.2-1,14.92-0.41c2.97,0.37,0.58,0.95-0.15,1.43
		C84,7.94,79.09,8.59,74.18,9.24c5.9-0.19,10.27,0.92,15.47,1.6c-5.2-0.68-9.58-1.78-15.47-1.6c-4.29,0.65-7.01,1.96-12.55,2.22
		c4.47,1.26,10.29,0.04,13,1.59c-0.67,1.33-3.1,1.62-7.42,1.63c-12.77,0.02-23.35,1.85-36.51,4.45c13.39,0.49,22.54,1.74,30.77,3.65
		c2.7,0.62,4.47,1.23,2.49,2.28c-1.29,0.69-2.1,1.41-2.1,2.21c-3.45,0.34-5.59,0.89-2.13,2.71c0.32,0.17,0.44,0.32,0.42,0.46
		c-6.06,0.73-12.04,1.57-18.3,1.85c-9.08,0.41-9.72,3.71-17.87,4.16c-0.5,0.03-1.01,0.04-1.51,0.06C15.4,38.5,9.1,40.59,13.13,43.9
		l-0.97,0.23l-1.22-0.05C9.16,44.72,4,45.23,6.48,46.06c3.61,1.22,6.7,2.65,10.07,3.97c-1.49,0.07-3.03,0.19-4.68,0.41
		c-0.75,0.1-2.74-0.82-4.33-1.19c-1.75-0.42-3.68-0.39-5.51,0c-2.83,2.5-3.7,4.49,5.83,6.33c2.84,0.55,5.67,1.12,8.56,1.67
		c-2.54,0.11-5.08,0.25-7.6,0.41c-8.42,0.51-11.12,1.78-6.39,3.97c4.65,2.16,11.8,3.29,19.8,3.95c1.24,0.22,2.41,0.53,3.75,0.65
		c8.1,0.73,11.23,1.01,10.66,1.97c-0.55,0.14-1.12,0.25-1.74,0.33c-4.83,0.61-3.46-2.17-8.84-1.68c-2.78,0.25-6.14,0.07-6.62,1.73
		c5.26-0.05,7.97,1.76,13.59,1.77c-0.47,0.23-0.98,0.47-1.53,0.73c-1.93-0.18-3.86-0.35-5.79-0.53c-0.23-0.65-1.25-1.32-3.45-1.09
		c-2.93,0.31-0.09,0.97-0.1,1.47c-5.87,0.43-12.56-0.89-18.45,0.81c3.54,3.3,14.94,2.52,21.57,4.05c0.85,0.48,1.7,0.96,2.55,1.44
		c-2.38,0.06-5.52,0.07-5.75,0.93c-0.33,1.23,3.74,1.07,6.22,1.38c0.02,0.25-0.09,0.5-0.35,0.74c-0.76,0.02-1.46,0.1-2.13,0.21
		c-0.26,0.02-0.53,0.04-0.79,0.06c-7.42-0.23-13.96,0.89-21.6,0.96c0.66,0.73,1.74,1.22,3.03,1.56c0.02,0.1,0.05,0.21,0.13,0.32
		c0.83,1.28,0.92,2.83,7.25,3.09c1.07,0.04,2.12,0.12,3.17,0.2c-1.36,0.12-3.24,0.19-4.54,0.24c-1.5,0.06-3.01,0.08-4.52,0.12
		c0.37,0.43,0.35,1.15,1.15,1.25c14.39,1.78,28.27,4.29,44.67,3.49c0.44,0.28,0.92,0.58,1.46,0.93c-9.25,0.49-18.68,0.53-26.95-0.2
		c-9.89-0.87-16.63,2-26.09,1.02c1.91,0.69,3.97,1.2,5.98,1.68c-2.01,0.23-4.16,0.49-6.6,0.71c4.89,0.96,8.87,1.77,8.76,3.15
		c-0.05,0.07-0.07,0.15-0.06,0.22c-0.01,0.03-0.01,0.05-0.02,0.08c-0.76,1.6-8.95,0.38-9.72,2.17c2.5,0.8,5.97,0.34,8.7,0.7
		c7.3,0.97,14.61,1.93,22.08,2.65c-5.53-0.2-11.07-0.24-16.57,0.5c3.76,0.74,7.6,1.09,11.39,1.47c1.98,0.2,4.38,0.66,3.32,1.28
		c-5.54,3.24,3.9,3.25,9.12,3.95c8.1,1.09,16.36,2.01,24.73,2.85c-13.55,0.34-26.32,0.02-39.22-1.53c-3.32-0.4-7.21-1.19-13.4-0.65
		c24.95,5.19,50.5,7.39,78.51,7c0,0,0.6-0.07,0.6-0.07c16.59,1.69,33.84,1.78,51.04,2c-1.01,0.84-3.66,0.68-5.72,0.88
		c-6.89,0-13.79,0-20.92,0c0.69,1.4,1.03,3.18,6.49,2.09c4.61-0.92,8.13-0.48,12.48-0.46c15.84,0.08,31.86,1.06,47.47-0.6
		c10.46,0.59,20.77,0.53,31.42,0.27c2.6,0.11,5.19,0.21,7.78,0.33c13.93,0.6,27.99,0.95,42.07,1.23c16.55,1.34,33.41,2.14,50.7,1.06
		c25.84,0.66,51.67,1.18,76.94-1.82c15.07-0.61,29.59-2.27,36.76-4.33c-5.6-0.62-10.2,1-14.92,0.41c-2.97-0.37-0.58-0.95,0.15-1.43
		c4.91-0.65,9.82-1.3,14.73-1.96c-5.9,0.19-10.27-0.92-15.47-1.6c5.2,0.68,9.58,1.78,15.47,1.6c4.29-0.65,7.01-1.96,12.55-2.22
		c-4.47-1.26-10.29-0.04-13-1.59c0.67-1.33,3.1-1.62,7.42-1.63c12.77-0.02,23.35-1.85,36.51-4.45c-13.39-0.49-22.54-1.74-30.77-3.65
		c-2.7-0.62-4.47-1.23-2.49-2.28c1.29-0.69,2.1-1.41,2.1-2.21c3.45-0.34,5.59-0.89,2.13-2.71c-0.32-0.17-0.44-0.32-0.42-0.46
		c6.06-0.73,12.04-1.57,18.3-1.85c9.08-0.41,9.72-3.71,17.87-4.16c0.5-0.03,1.01-0.04,1.51-0.06c7.07-1.99,13.36-4.08,9.33-7.39
		l0.97-0.23l1.22,0.05c1.78-0.63,6.94-1.14,4.47-1.98c-3.61-1.22-6.7-2.65-10.07-3.97c1.49-0.07,3.03-0.2,4.68-0.41
		c0.75-0.1,2.74,0.82,4.33,1.19c1.75,0.42,3.68,0.39,5.51,0C501.26,74.86,502.12,72.87,492.6,71.03z"/>
</g>
</svg>
