<?xml version="1.0" encoding="utf-8"?>
<!-- Generator: Adobe Illustrator 25.4.1, SVG Export Plug-In . SVG Version: 6.00 Build 0)  -->
<svg version="1.1" id="Слой_1" xmlns="http://www.w3.org/2000/svg" xmlns:xlink="http://www.w3.org/1999/xlink" x="0px" y="0px"
	 viewBox="0 0 140 165" style="enable-background:new 0 0 140 165;" xml:space="preserve">
<style type="text/css">
	.st0{fill-rule:evenodd;clip-rule:evenodd;fill:#333333;}
</style>
<g>
	<path class="st0" d="M69.9,57.8c4.6-3.3,7.3-8.6,5.6-14.7c-0.9-3.4-2.8-6.1-5.5-8.3c-2.4-2-5.5-3.6-8.8-4.9
		c-1.2-0.5-2.6-0.4-3.6,0.2c-9.1-0.1-15.4,5.4-17.3,11.9c-2.1,7.2,1.1,15.4,11.5,18.4C58.6,62.3,65.3,61,69.9,57.8z M47.9,43.5
		c1.2-4.2,5.5-7.7,11.7-6.8c0.3,0,0.5,0.1,0.8,0c1.6,0.7,3.1,1.6,4.3,2.6c1.6,1.3,2.8,3,3.4,5.1c0.9,3.5-0.5,6.5-3.1,8.3
		c-2.7,1.9-6.6,2.6-10.5,1.4C48.4,52.5,46.6,47.7,47.9,43.5z"/>
	<path class="st0" d="M139.3,159.1c-1.1-1.4-3.8-4.8-4.3-5.5l-9.9-11.7l-10.4-14.2c-1.1-1.7-2.2-4-3.7-5.7c-1-1.1-2.2-2-3.6-2.6
		c-2.2-1-5-1.5-8.1-1.6c-3.6-0.2-7.5,0-11.1,0.2c6.5-11.3,13.2-22.6,18.3-34.3c4-9.2,6.9-18.6,7.9-28.3c0.8-7.8-0.5-16.7-4-25
		c-3.5-8.4-9.3-16.1-16.9-21.2c-7.3-4.8-16.6-7.6-26.3-8.7c-9.6-1-19.4-0.3-27.9,1.8c-4.4,1.1-8.7,2.5-12.7,4.3
		c-4.1,1.8-8,4.1-11.3,7c-2.2,1.9-4.1,4.1-5.7,6.4C7.3,23.3,5.5,26.9,4,30.4c-6.3,15-4.6,29.2,1.3,42.6
		c7.9,17.7,23.6,33.9,37.9,48.3l-5.4,0.2c-0.9,0-3.7-0.5-5-0.4c-1,0.1-1.7,0.4-2.2,0.7c-0.5,0.3-1.2,0.8-1.7,1.7
		c-0.8,1.3-1.4,4.3-1.8,5.1l-6.7,14.5l-5.5,10.4l-2.4,3.2c-0.7,0.9-2.1,2.9-2.1,3.4c0.1,1.5,0.7,3.2,4,3.2l80.7,1.3l24.8,0
		c3.7,0.1,7.7,0.5,11.6,0.5c1.9,0,3.8-0.1,5.6-0.4C137.3,164.6,141.6,162.1,139.3,159.1z M12.6,70.7c-5.3-12-6.9-24.7-1.3-38.1
		c1.1-2.6,2.4-5.3,4-7.9c1.5-2.4,3.3-4.7,5.6-6.6c2.8-2.4,6-4.3,9.4-5.8c3.6-1.6,7.4-2.8,11.3-3.8C49,6.6,57.7,6,66.2,6.9
		c8.3,0.9,16.3,3.2,22.5,7.3c6.6,4.4,11.4,11,14.4,18.3c3.1,7.4,4.3,15.3,3.6,22.3c-1,9.2-3.8,18-7.5,26.7
		c-8.1,18.8-20.6,36.7-29.6,54.9l-16.7-15.6C38.1,106,20.9,89.3,12.6,70.7z M120.2,158l-24.8,0l-73.9-1.2l0.1-0.2l6-11.2l6.8-14.8
		c0.2-0.4,0.6-1.8,1-3c0.9,0.1,1.9,0.2,2.3,0.2l12-0.4l17.2,16c0.3,1,1.1,1.9,2.4,2.3c2,0.6,4.2-0.2,5-1.9c2.9-6.5,6.4-13,10.1-19.5
		c3.5,0,8-0.4,12.3-0.3c2.7,0,5.3,0.2,7.1,1l4.1,5.7l10.9,14.8l10,11.8l0.6,0.7L120.2,158z"/>
	<path class="st0" d="M20.3,25c-0.9-0.4-2.1-0.2-2.6,0.6c-2.3,3.5-4.1,7.1-5.3,10.9c-1.3,3.8-2,7.7-2.2,11.7
		c-0.1,0.9,0.8,1.7,1.8,1.7c1.1,0,2-0.6,2-1.5c0.2-3.7,0.9-7.4,2.1-10.9c1.2-3.6,2.8-7,5-10.2C21.6,26.4,21.2,25.4,20.3,25z"/>
	<path class="st0" d="M14.3,54.2c-0.1-0.9-1-1.6-2.1-1.5c-1.1,0.1-1.9,0.9-1.8,1.8l1.3,6.7c0.3,0.9,1.4,1.4,2.4,1.1
		c1-0.2,1.6-1.2,1.3-2L14.3,54.2z"/>
	<path class="st0" d="M65.7,126.6c0.8-0.6,0.8-1.6,0.1-2.3l-12-11.1c-0.7-0.7-1.9-0.7-2.7-0.1c-0.8,0.6-0.9,1.6-0.2,2.3l12,11.2
		C63.7,127.2,64.9,127.2,65.7,126.6z"/>
	<path class="st0" d="M75.9,39.2c2.1,3.3,3.1,6.9,2,10.6c-0.3,0.9,0.4,1.8,1.4,2c1,0.2,2.1-0.3,2.3-1.2c1.1-3.6,0.5-7.2-1-10.5
		C78.3,35.2,74,31,69.3,28c-0.8-0.5-2.1-0.4-2.7,0.3C66,29,66.1,30.1,67,30.6C70.4,32.8,73.7,35.8,75.9,39.2z"/>
</g>
</svg>
