<?xml version="1.0" encoding="utf-8"?>
<!-- Generator: Adobe Illustrator 25.4.1, SVG Export Plug-In . SVG Version: 6.00 Build 0)  -->
<svg version="1.1" id="Слой_1" xmlns="http://www.w3.org/2000/svg" xmlns:xlink="http://www.w3.org/1999/xlink" x="0px" y="0px"
	 viewBox="0 0 140 165" style="enable-background:new 0 0 140 165;" xml:space="preserve">
<style type="text/css">
	.st0{fill:#333333;}
</style>
<path class="st0" d="M129.5,130.8c-3.1,9.1-7.3,15.1-12.1,18.6c0-0.1,0-0.2,0-0.3c-3.5-9-11.8-14.2-17.8-20.8
	c-3.3-3.6-6.3-7.5-9.4-11.4c-0.8-1-1.4-1.9-2.1-2.8c14.6-7.8,23.5,0.9,32.8,13.3c4.6,6.1,12.6-2.8,7.8-8.7
	c-6.6-8.2-17.8-22.2-29-20.9c-11,1.3-24.6,11.3-34.9,0.8c-14-14.3-26.6-45.5-5.3-60.4c2.2-1.5,3.2-4.7,1.9-7.4
	C54.5,16.9,42.3,9.9,31,1.1C25.8-3,16.4,7.3,12.7,10.7C-9.8,32,1.6,64.1,14.8,86.6c18.1,30.7,44.1,62.7,74.9,76
	c19.6,8.5,47-4.3,47.5-30.4C137.3,126.6,131,126.3,129.5,130.8z M18.7,17.7C28.3,5.9,44,21.6,50.7,31.9c-5.1,4.6-8.4,10.2-10.2,16.4
	c-2.6-4.4-7.6-7.2-11-10.6c-4.6-4.6-8.5-9.9-12.7-14.9c-0.4-0.5-0.9-0.6-1.5-0.6C16.4,20.7,17.5,19.1,18.7,17.7z M35.2,101.2
	C23.7,86.5,9.6,66.3,7.9,45.7c-0.6-7.4,1.9-14.4,5.5-20.4c2.3,6.5,6,11.7,10.2,16.8c3.8,4.6,9.9,11.3,15.8,11.1c0,0,0,0,0,0
	c-2.5,14.3,2,30.6,10.5,43.1c5.4,8,13.8,20.9,24,21.2c2.6,0.1,4.9,0.1,7.1-0.4c2.2,7,8.6,13.9,12.3,18.5
	c5.4,6.7,11.6,14.5,19.6,16.4C88,161.9,49.9,119.7,35.2,101.2z"/>
<path class="st0" d="M111.3,39.8C104.4,26.9,91,20.4,78.2,21.8c-3.7,0.4-3.8,6.3,0,6.6c10.5,0.8,19.9,6.1,25.9,16.1
	c6.2,10.2,1.3,20.4,4.2,30.8c0.8,2.9,3.9,3.8,5.8,1.8C122.8,68,116.4,49.4,111.3,39.8z"/>
<path class="st0" d="M127,23.8C112.6-2.2,87.6-2.5,63.6,2.8c-1.7,0.4-1.8,3.8,0,4.1c7.1,1.1,14,1.1,21.1,1.2
	c15.8,0.1,26.4,5.3,35.6,20.1c5.2,8.4,7.7,18.5,9.5,28.4c2.2,12.2-1.4,23.4-1.1,35.4c0.1,3.5,3.9,4.5,5.5,1.7
	C146.1,73.7,137.2,42.3,127,23.8z"/>
</svg>
