<?xml version="1.0" encoding="utf-8"?>
<!-- Generator: Adobe Illustrator 25.0.0, SVG Export Plug-In . SVG Version: 6.00 Build 0)  -->
<svg version="1.1" id="Слой_1" xmlns="http://www.w3.org/2000/svg" xmlns:xlink="http://www.w3.org/1999/xlink" x="0px" y="0px"
	 viewBox="0 0 523.1 201.2" style="enable-background:new 0 0 523.1 201.2;" xml:space="preserve">
<style type="text/css">
	.st0{fill:#F24841;}
</style>
<g>
	<path class="st0" d="M455.6,26.6c5-0.4,6.3,7.5,12.2,5.1c4.4-1.8,9.3,0.7,13.8-2.1c-4.5,0.6-8.2-2.5-12.6-1.9
		C464.5,28.5,460.4,24.6,455.6,26.6z"/>
	<path class="st0" d="M464.8,23.1c-5.1-2.4-5.5-2.5-12.7-0.8C456.3,21.2,460,25.9,464.8,23.1z"/>
	<path class="st0" d="M84.7,171.6c-0.4,0.1-0.9,0.9-0.8,1.1c1,1.9,2.8,0.8,4.3,1.2c0.2,0.1,0.5-0.1,1.3-0.2
		c-0.7-0.5-0.9-0.7-1.2-0.8C87.1,172.6,86.2,171.1,84.7,171.6z"/>
	<path class="st0" d="M515.6,119.7c-1-0.1-2-0.1-3-0.1c-0.1,0.1-0.2,0.1-0.4,0.2c0.1-0.1,0.2-0.1,0.4-0.2c-1.3-1.7-4.2-0.6-5.6-2.9
		c5.5-1,10.8,0.8,15.8-1.4c-13.8-5.1-28.1-4.1-42.4-3.9c0.1,1.3-0.1,2.6-0.4,3.9c0.3-1.3,0.5-2.6,0.4-3.9c-2-0.8-2-4.3-5-3.9
		c-1.2-2.2-4.5,0.8-5.6-2.7c4.1-0.1,7.4-1.3,7.9-6.2c0.1-1.1,1.7-2,2.6-3l0,0c2.7-0.4,3.8-2,3.6-4.7c1-0.7,1.5-1.6,1.6-2.8
		c4.3-2.8,4.5-3.6,1.8-7.7c-0.2-0.5-0.5-1-0.6-1.6l0.4-0.3c1.3,0.2,2.7,0.6,3.1-1.4c-3.7-4.4,0.3-6.4,3.4-8.4
		c-3.4-2.9-7.2-1.4-10-3.7c-2.4-2-6.5-4-5.5-6.6c1-2.9,1.1-7.5,5.5-8.7c0.8-1.6,0.5-3.2,0.2-4.9c0.6-4.1-1.5-6.4-5-7.7
		c-3.4-1.3-6.8-2.6-10.5-2.5c-8,0.2-15.4-2.2-23.4-4.3c2.2-1.6,5.6-1.7,4.5-4.7c-0.7-1.9-2.7-1.3-4.1,0c-2.2,0.1-4.4,0.3-6.6,0.4
		c-1-0.6-2.1-1.2-3.1-1.8c2.5-2.8,6-1.9,9.9-2.5c-4.8-2.4-9.3-1.5-13.4-1.7c-7.6-0.4-9.2-0.4-14.4-6.1c-4-4.3-9.3-4.8-14.5-5.6
		c-10.7-2.8-21.8-3-32.7-4.4c-12-1.5-24,0.1-36-0.1c-4.6-0.1-8.9,0.8-12.1,4.5c-0.5,0.2-1,0.3-1.5,0.5c-0.4-0.4-0.9-0.6-1.5-0.6
		c-1.4-1.2-2.6-1.3-3.6,0.6c-3.6-0.4-7.1-1.3-10.6-1.9c-3.9-0.6-8.1,0.5-11.4-0.7c-11.2-4-22.3-1.4-33.4-0.8
		c-2.8-0.1-5.6-0.7-8.3,0.2c-3.5,0.2-6.9-2.4-10.4-0.3c0.6,0.6,1.2,1.2,1.8,1.8c-0.6-0.6-1.2-1.2-1.8-1.8c-1.6,0-3.1,0-4.7,0.1
		c-8.9-2.7-18.1-1.3-27.2-1.4c-2.2,0-4.3,0-6.5,0c-2.3-0.5-4.6-0.4-6.9,0c-1.6-0.7-3.2-1.6-4.9-0.1c-1.1,0-2.3-0.1-3.4-0.1
		c-2.1-0.2-4.3-0.3-6.4-0.5c-3.3-1.8-6.8-1.9-10.4-1.2c-1.7,0-3.4-0.1-5.1-0.1c-8.4-0.1-16.7-0.6-25-1.2c-8.5-0.6-17.3-1.7-25.4,2.6
		c-0.4-0.2-0.8-0.5-1.1-0.8c0.6-1,0.6-1-0.1-0.1c-0.5,0.3-0.9,0.6-1.3,1c-1-1.3-2.1-1.2-3.6-0.7c-7.7,2.5-15.7,3.6-23.7,3
		c-7.3-0.6-14.4,0.8-21.6,1.9C60.5,8.3,57,8.9,53.4,9c-11.7,0.2-17.9,8.2-23.5,17.1c-0.8,0-1.6-0.1-2.4,0.1c-1.1,0.2-2.2,0.7-1.9,2
		c0.1,0.5,1.1,1,1.8,1.1c0.7,0.2,1.5,0.1,2.3,0.2c-8.6,9.1-18.1,17.2-29.9,24.1c14.9,3.2,29.2,3.3,43.5,3.1c-0.4,3-0.4,3.1-3.1,3.4
		c-7.1,0.7-12.6,3.7-14.9,11.3c-4.7-1.4-8.8-4.2-14.6-7.8c6.7,12.4,17,16.1,27.3,19.8c-3,4.1-3,4.1-2.2,8c1.9,5.4,7.9,4.9,11.3,8.1
		c-0.6,5.1-5,8.5-5.7,13.6c1.2,0.7,2.3,1.3,3.5,2c-1.2-0.7-2.3-1.3-3.5-2c-4.3,2.3-0.9,5.6-1,8.4c-6.6,4.6-12.5,10.8-21.5,10.5
		c-2.2-0.1-2.4,1.8-2.4,3.6c0,2.2,1.3,3,3.2,2.9c3.5-0.2,6.6,0.7,9.5,2.4c6,3.4,12.5,4.2,19.2,4.4l-0.1,0.2l0,0
		c-0.3,2.6-2,6.4,3,5.6c10.8-1.7,20.8,0.7,30.7,4.5l0,0c1.2,0.3,2.4,0.7,3.6,1c-1.2-0.4-2.4-0.7-3.6-1c-0.6,1.8-3.3,2.1-3.2,4.4
		c-4.1-2.2-7,2.6-11,1.1c0.5,3.1,1.4,4.8,4.2,5.1c10.1,1.1,19.6,5.6,30,4.9c-0.6,4-3.5,2.6-5.8,2.6c-1.2,0-2.1,0.6-2,2.1
		c0,1.4,0.9,2,2.1,2c6.4,0,12.7,1.1,19,1.7c8,0.8,15.6,3.8,23.7,3.6c3.8,1.3,7.7,1.4,11.6,1.9c26.3,4.9,52.8,8.1,79.2,11.8
		c8.3,2.3,16.7,3.4,25.3,3.3c15.8,0.3,31.5,2.2,47.4,1.2c12.7-0.8,25.5-0.5,38.2-1.4c7.5-0.1,15,0.8,22.4-1.6
		c-5.2-2.2-10.5-1.4-15.8-1.3l0,0c-1.1-0.1-2.1-0.1-3.2-0.1c0-0.6,0-1.1,0-1.7c12.1-1.5,24.4-0.6,36.5-1.2
		c6.4-0.3,12.3-3.5,18.8-2.4c1.6,0.2,3.9,0.6,4.3-1.1c0.6-3-2.2-2.1-3.8-2.4c-1.8-0.3-3.8,0.4-5.3-1.3c1.4-0.1,2.7-0.3,4.1-0.4
		c13-0.5,24.9-4.2,34.8-13.3c3-1.7,6.4-2.8,8.9-5.2l0,0c13.6-2.6,26.1-8.6,39.5-12.1c5.2,1.2,8-3.1,11.7-5.3
		c0.1-0.2,0.1-0.4,0.1-0.6c0,0.2,0,0.4-0.1,0.6c2.3,0,5,1.1,6.7-1.6c4.2-3.3,10.7-4.4,10.8-11.6l0,0c0.5-0.5,1-1.1,1.4-1.6
		c3.4-2.3,6-5,3.6-9.4c-1.4-2.5,0.8-4.1,1.1-6.1C516.9,118.9,516.3,118.9,515.6,119.7z"/>
</g>
</svg>
