<?xml version="1.0" encoding="utf-8"?>
<!-- Generator: Adobe Illustrator 25.0.0, SVG Export Plug-In . SVG Version: 6.00 Build 0)  -->
<svg version="1.1" id="Слой_1" xmlns="http://www.w3.org/2000/svg" xmlns:xlink="http://www.w3.org/1999/xlink" x="0px" y="0px"
	 viewBox="0 0 523.1 201.2" style="enable-background:new 0 0 523.1 201.2;" xml:space="preserve">
<style type="text/css">
	.st0{fill:#F66A5E;}
</style>
<g>
	<path class="st0" d="M455.65,26.64c5-0.35,6.34,7.49,12.18,5.14c4.37-1.76,9.32,0.7,13.76-2.15c-4.45,0.58-8.22-2.55-12.62-1.87
		C464.46,28.46,460.41,24.57,455.65,26.64z"/>
	<path class="st0" d="M464.79,23.09c-5.08-2.42-5.48-2.45-12.71-0.75C456.28,21.16,460.05,25.92,464.79,23.09z"/>
	<path class="st0" d="M84.71,171.65c-0.37,0.15-0.89,0.95-0.78,1.15c0.99,1.87,2.85,0.78,4.29,1.18c0.24,0.07,0.53-0.08,1.33-0.22
		c-0.72-0.49-0.92-0.72-1.17-0.78C87.11,172.65,86.25,171.05,84.71,171.65z"/>
	<path class="st0" d="M515.62,119.65c-1-0.05-2-0.09-2.99-0.14c-0.1,0.06-0.23,0.11-0.36,0.15c0.13-0.05,0.25-0.1,0.36-0.15
		c-1.33-1.69-4.23-0.56-5.59-2.88c5.51-1.02,10.76,0.78,15.83-1.37c-13.8-5.08-28.14-4.1-42.39-3.91c0.14,1.3-0.09,2.6-0.41,3.91
		c0.32-1.31,0.55-2.61,0.41-3.91c-2.04-0.81-2-4.35-4.98-3.94c-1.24-2.18-4.55,0.82-5.63-2.67c4.14-0.08,7.36-1.31,7.87-6.18
		c0.11-1.07,1.72-1.98,2.64-2.96c0,0,0,0,0,0c2.68-0.39,3.81-2.02,3.64-4.69c0.96-0.68,1.55-1.58,1.59-2.79
		c4.31-2.76,4.5-3.6,1.77-7.7c-0.23-0.52-0.45-1.04-0.65-1.57c0,0,0.4-0.33,0.4-0.33c1.3,0.16,2.69,0.55,3.07-1.39
		c-3.73-4.39,0.29-6.38,3.42-8.4c-3.36-2.89-7.18-1.36-10-3.66c-2.41-1.96-6.45-4.04-5.53-6.61c1.05-2.93,1.14-7.5,5.46-8.67
		c0.78-1.6,0.47-3.25,0.18-4.89c0.58-4.09-1.52-6.4-5.05-7.73c-3.4-1.29-6.83-2.63-10.52-2.53c-7.98,0.2-15.41-2.24-23.43-4.26
		c2.18-1.62,5.56-1.68,4.53-4.71c-0.66-1.94-2.72-1.33-4.11,0.04c-2.21,0.15-4.42,0.29-6.63,0.43c-1.04-0.59-2.09-1.18-3.12-1.78
		c2.48-2.82,5.97-1.9,9.89-2.53c-4.77-2.37-9.26-1.47-13.42-1.66c-7.62-0.35-9.19-0.41-14.43-6.08c-4-4.33-9.27-4.83-14.5-5.65
		c-10.72-2.8-21.78-2.96-32.67-4.36c-11.97-1.53-23.99,0.11-35.99-0.09c-4.64-0.08-8.85,0.75-12.07,4.49
		c-0.5,0.16-0.99,0.32-1.48,0.51c-0.44-0.35-0.93-0.55-1.48-0.62c-1.4-1.16-2.65-1.34-3.57,0.58c-3.58-0.43-7.07-1.35-10.64-1.87
		c-3.89-0.56-8.15,0.5-11.41-0.66c-11.2-3.97-22.26-1.43-33.39-0.84c-2.78-0.07-5.56-0.74-8.32,0.17
		c-3.47,0.16-6.85-2.45-10.38-0.35c0.6,0.61,1.19,1.22,1.79,1.83c-0.6-0.61-1.19-1.22-1.79-1.83c-1.57,0.02-3.13,0.03-4.7,0.05
		c-8.94-2.7-18.09-1.33-27.16-1.38c-2.16-0.01-4.33-0.02-6.49-0.03c-2.31-0.52-4.61-0.41-6.92,0.04c-1.62-0.68-3.23-1.57-4.9-0.12
		c-1.13-0.04-2.26-0.08-3.4-0.12c-2.15-0.15-4.3-0.3-6.45-0.45c-3.32-1.8-6.83-1.85-10.42-1.18c-1.7-0.05-3.41-0.09-5.11-0.14
		c-8.35-0.14-16.66-0.64-24.99-1.25c-8.54-0.62-17.27-1.72-25.39,2.57c-0.39-0.24-0.77-0.51-1.12-0.81c0.61-0.95,0.6-1-0.09-0.07
		c-0.49,0.27-0.94,0.61-1.33,1.01c-1-1.34-2.12-1.23-3.64-0.74C101.7,5.32,93.75,6.4,85.68,5.79c-7.32-0.55-14.45,0.8-21.57,1.95
		c-3.58,0.58-7.11,1.17-10.74,1.26C41.7,9.25,35.47,17.21,29.92,26.12c-0.8,0.01-1.62-0.07-2.4,0.07c-1.09,0.19-2.19,0.71-1.93,2.03
		c0.1,0.5,1.14,0.95,1.83,1.15c0.73,0.22,1.55,0.14,2.34,0.17c-8.64,9.13-18.13,17.2-29.91,24.1c14.94,3.25,29.22,3.29,43.52,3.07
		c-0.44,3.03-0.43,3.08-3.07,3.36c-7.1,0.74-12.59,3.65-14.9,11.28c-4.71-1.42-8.81-4.25-14.57-7.76
		c6.7,12.37,16.95,16.11,27.27,19.79c-3.05,4.06-3.05,4.06-2.18,7.96c1.88,5.39,7.88,4.87,11.27,8.11
		c-0.61,5.07-4.97,8.53-5.67,13.56c1.15,0.66,2.31,1.32,3.46,1.98c-1.15-0.66-2.31-1.32-3.46-1.98c-4.31,2.34-0.87,5.61-0.99,8.45
		c-6.63,4.64-12.5,10.83-21.54,10.49c-2.2-0.08-2.43,1.83-2.4,3.63c0.03,2.17,1.33,3.02,3.22,2.88c3.45-0.25,6.62,0.7,9.54,2.36
		c5.99,3.4,12.5,4.19,19.17,4.42c0,0-0.07,0.18-0.07,0.18c0,0,0,0,0,0c-0.32,2.6-2.04,6.35,2.99,5.56
		c10.75-1.69,20.81,0.7,30.71,4.54c0,0,0.04,0.04,0.04,0.04c1.2,0.33,2.4,0.66,3.59,1.02c-1.19-0.36-2.39-0.7-3.59-1.02
		c-0.62,1.78-3.3,2.05-3.15,4.4c-4.06-2.17-7.03,2.58-11.02,1.08c0.52,3.09,1.44,4.84,4.2,5.14c10.08,1.08,19.62,5.58,29.98,4.85
		c-0.63,3.98-3.5,2.57-5.85,2.55c-1.24-0.01-2.07,0.63-2.02,2.05c0.04,1.42,0.91,1.97,2.14,1.96c6.4-0.01,12.69,1.09,19.04,1.72
		c7.96,0.79,15.57,3.8,23.66,3.62c3.75,1.34,7.71,1.4,11.59,1.89c26.27,4.86,52.76,8.11,79.2,11.79c8.28,2.27,16.71,3.37,25.3,3.28
		c15.8,0.31,31.51,2.18,47.4,1.24c12.7-0.75,25.48-0.47,38.2-1.38c7.48-0.11,15.05,0.84,22.42-1.65
		c-5.17-2.18-10.53-1.38-15.82-1.31l0,0c-1.08-0.05-2.15-0.09-3.23-0.14c0.01-0.56,0.02-1.13,0.04-1.69
		c12.14-1.52,24.35-0.64,36.53-1.18c6.38-0.28,12.34-3.46,18.83-2.37c1.6,0.2,3.91,0.57,4.26-1.06c0.64-3-2.22-2.15-3.8-2.45
		c-1.78-0.33-3.78,0.37-5.26-1.26c1.37-0.13,2.73-0.34,4.1-0.39c13.05-0.49,24.88-4.22,34.76-13.26c3-1.72,6.38-2.77,8.94-5.25
		c0,0,0,0,0,0c13.57-2.64,26.13-8.65,39.45-12.13c5.22,1.22,8-3.06,11.67-5.32c0.11-0.19,0.15-0.4,0.14-0.63
		c0,0.23-0.04,0.44-0.14,0.63c2.34-0.03,4.96,1.13,6.66-1.61c4.2-3.29,10.67-4.4,10.77-11.61c0,0,0,0,0,0
		c0.47-0.53,0.95-1.06,1.43-1.59c3.42-2.27,6.03-4.99,3.63-9.42c-1.38-2.53,0.8-4.06,1.07-6.09
		C516.91,118.93,516.33,118.92,515.62,119.65z"/>
</g>
</svg>
