<?xml version="1.0" encoding="utf-8"?>
<!-- Generator: Adobe Illustrator 25.0.0, SVG Export Plug-In . SVG Version: 6.00 Build 0)  -->
<svg version="1.1" id="Layer_1" xmlns="http://www.w3.org/2000/svg" xmlns:xlink="http://www.w3.org/1999/xlink" x="0px" y="0px"
	 viewBox="0 0 1254.13 1256.17" style="enable-background:new 0 0 1254.13 1256.17;" xml:space="preserve">
<style type="text/css">
	.st0{fill:none;}
	.st1{fill:#FFFFFF;}
</style>
<rect x="-29.24" y="-30.16" class="st0" width="1314.25" height="1314.25"/>
<g>
	<path class="st1" d="M831.87,689.54c106.5-170.96,85.49-398.72-63.04-547.26C682.32,55.77,568.94,12.51,455.55,12.51
		S228.78,55.77,142.27,142.27c-173.02,173.02-173.02,453.54,0,626.55c86.51,86.51,199.89,129.76,313.28,129.76
		c81.3,0,162.59-22.24,233.99-66.72l329.11,329.11l142.34-142.34L831.87,689.54z M455.55,835.69c-101.54,0-197-39.54-268.8-111.34
		c-71.8-71.8-111.34-167.26-111.34-268.8c0-101.54,39.54-197,111.34-268.8c71.8-71.8,167.26-111.34,268.8-111.34
		s197,39.54,268.8,111.34c71.8,71.8,111.34,167.26,111.34,268.8c0,101.54-39.54,197-111.34,268.8
		C652.55,796.15,557.09,835.69,455.55,835.69z"/>
	<path class="st1" d="M455.55,155.7c-47.98,0-93.83,11-136.28,32.69c-12.37,6.32-17.28,21.48-10.95,33.86
		c6.32,12.37,21.48,17.28,33.85,10.96c35.29-18.03,73.44-27.18,113.37-27.18c79.42,0,154.82,38.36,201.71,102.6
		c4.92,6.75,12.58,10.33,20.34,10.33c5.15,0,10.34-1.57,14.81-4.84c11.22-8.19,13.68-23.93,5.49-35.16
		C641.58,201.78,550.98,155.7,455.55,155.7z"/>
	<path class="st1" d="M1220.61,1078.28l-25.83-25.82l-142.33,142.34l25.83,25.82c28.97,28.97,75.95,28.97,104.92,0l37.42-37.42
		C1249.58,1154.22,1249.58,1107.25,1220.61,1078.28z"/>
</g>
</svg>
